ply
format ascii 1.0
element vertex 3033
property float x
property float y
property float z
property uchar red
property uchar green
property uchar blue
end_header
0 0 54 43 160 4
0 0 55 43 160 4
0 0 56 43 160 4
0 0 57 43 160 4
0 0 58 43 160 4
0 0 59 43 160 4
1 0 53 43 160 4
1 0 54 43 160 4
1 0 55 43 160 4
1 0 56 43 160 4
1 0 57 43 160 4
1 0 58 43 160 4
1 0 59 43 160 4
2 0 53 43 160 4
2 0 54 43 160 4
2 0 55 43 160 4
2 0 56 43 160 4
2 0 57 43 160 4
2 0 58 43 160 4
2 0 59 43 160 4
2 15 44 158 216 229
3 0 53 43 160 4
3 0 54 43 160 4
3 0 55 43 160 4
3 0 56 43 160 4
3 0 57 43 160 4
3 6 45 158 216 229
3 7 43 158 216 229
4 0 55 43 160 4
4 0 56 43 160 4
4 23 41 158 216 229
5 0 54 43 160 4
5 0 55 43 160 4
6 0 52 43 160 4
6 0 53 43 160 4
6 0 54 43 160 4
6 0 57 43 160 4
6 0 58 43 160 4
6 0 59 43 160 4
7 0 51 43 160 4
7 0 52 43 160 4
7 0 53 43 160 4
7 0 56 43 160 4
7 0 57 43 160 4
7 0 58 43 160 4
7 0 59 43 160 4
8 0 51 43 160 4
8 0 52 43 160 4
8 0 56 43 160 4
8 0 57 43 160 4
8 0 58 43 160 4
8 0 59 43 160 4
9 0 56 43 160 4
9 0 57 43 160 4
9 0 58 43 160 4
9 0 59 43 160 4
10 0 55 43 160 4
10 0 56 43 160 4
10 0 57 43 160 4
10 0 58 43 160 4
10 0 59 43 160 4
11 0 54 43 160 4
11 0 55 43 160 4
11 0 56 43 160 4
11 0 57 43 160 4
11 0 58 43 160 4
11 0 59 43 160 4
11 1 58 158 216 229
12 0 50 43 160 4
12 0 51 43 160 4
12 0 52 43 160 4
12 0 53 43 160 4
12 0 54 43 160 4
12 0 55 43 160 4
12 0 56 43 160 4
12 0 57 43 160 4
12 0 58 43 160 4
12 0 59 43 160 4
13 0 46 43 160 4
13 0 47 43 160 4
13 0 50 43 160 4
13 0 53 43 160 4
13 0 54 43 160 4
13 0 55 43 160 4
13 0 56 43 160 4
13 0 57 43 160 4
13 0 58 43 160 4
13 0 59 43 160 4
13 30 27 158 216 229
13 31 27 158 216 229
14 0 45 43 160 4
14 0 46 43 160 4
14 0 54 43 160 4
14 0 55 43 160 4
14 0 56 43 160 4
14 0 57 43 160 4
14 0 58 43 160 4
14 0 59 43 160 4
14 22 25 158 216 229
14 23 25 158 216 229
14 24 25 158 216 229
14 25 25 158 216 229
14 26 25 158 216 229
14 27 25 158 216 229
14 28 25 158 216 229
14 29 25 158 216 229
14 30 25 158 216 229
15 0 56 43 160 4
15 0 57 43 160 4
15 0 58 43 160 4
15 0 59 43 160 4
15 21 24 158 216 229
15 21 25 158 216 229
15 22 23 196 175 214
15 22 24 196 175 214
15 22 25 158 216 229
15 23 23 196 175 214
15 23 24 158 216 229
15 23 25 158 216 229
15 24 23 158 216 229
15 24 24 158 216 229
15 24 25 158 216 229
15 25 23 158 216 229
15 25 24 158 216 229
15 25 25 158 216 229
15 25 26 158 216 229
15 26 23 158 216 229
15 26 24 158 216 229
15 26 25 158 216 229
15 26 26 158 216 229
15 27 23 158 216 229
15 27 24 158 216 229
15 27 25 158 216 229
15 27 26 158 216 229
15 28 23 158 216 229
15 28 24 158 216 229
15 28 25 158 216 229
15 28 26 158 216 229
15 29 23 158 216 229
15 29 24 158 216 229
15 29 25 158 216 229
15 29 26 158 216 229
15 30 25 158 216 229
15 30 26 158 216 229
16 22 23 196 175 214
16 22 24 196 175 214
16 22 25 158 216 229
16 23 24 158 216 229
16 23 25 158 216 229
16 23 26 158 216 229
16 24 25 158 216 229
16 25 25 158 216 229
16 25 26 158 216 229
16 26 25 158 216 229
16 26 26 158 216 229
16 27 25 158 216 229
16 27 26 158 216 229
16 28 25 158 216 229
16 28 26 158 216 229
16 29 25 158 216 229
16 29 26 158 216 229
16 30 24 158 216 229
16 30 25 158 216 229
16 30 26 158 216 229
17 22 23 196 175 214
17 22 24 158 216 229
17 22 25 158 216 229
17 23 24 158 216 229
17 23 25 158 216 229
17 23 26 158 216 229
17 24 25 158 216 229
17 24 26 158 216 229
17 25 25 158 216 229
17 25 26 158 216 229
17 26 25 158 216 229
17 26 26 158 216 229
17 27 25 158 216 229
17 27 26 158 216 229
17 28 25 158 216 229
17 28 26 158 216 229
17 29 25 158 216 229
17 29 26 158 216 229
17 30 24 158 216 229
17 30 25 158 216 229
17 30 26 158 216 229
18 0 52 43 160 4
18 0 53 43 160 4
18 9 29 158 216 229
18 9 30 158 216 229
18 22 22 158 216 229
18 22 25 158 216 229
18 23 25 158 216 229
18 23 26 158 216 229
18 24 25 158 216 229
18 24 26 158 216 229
18 25 25 158 216 229
18 25 26 158 216 229
18 26 25 158 216 229
18 26 26 158 216 229
18 27 25 158 216 229
18 27 26 158 216 229
18 28 25 158 216 229
18 28 26 158 216 229
18 29 26 158 216 229
18 30 25 158 216 229
18 30 26 158 216 229
18 30 27 158 216 229
18 31 27 158 216 229
19 0 44 43 160 4
19 0 45 43 160 4
19 0 53 43 160 4
19 0 54 43 160 4
19 0 55 43 160 4
19 7 29 158 216 229
19 15 26 158 216 229
19 17 26 158 216 229
19 18 26 158 216 229
19 19 26 158 216 229
19 21 17 196 175 214
19 22 21 158 216 229
19 22 22 158 216 229
19 22 25 158 216 229
19 23 25 158 216 229
19 23 26 158 216 229
19 24 25 158 216 229
19 24 26 158 216 229
19 24 27 158 216 229
19 25 25 158 216 229
19 25 26 158 216 229
19 26 25 158 216 229
19 26 26 158 216 229
19 26 27 158 216 229
19 27 25 158 216 229
19 27 26 158 216 229
19 27 27 158 216 229
19 28 25 158 216 229
19 28 26 158 216 229
19 28 27 158 216 229
19 29 26 158 216 229
19 29 27 158 216 229
19 30 26 158 216 229
19 30 27 158 216 229
19 30 28 158 216 229
19 31 27 158 216 229
19 31 28 158 216 229
20 7 28 158 216 229
20 8 27 158 216 229
20 10 26 158 216 229
20 10 27 158 216 229
20 11 27 158 216 229
20 12 18 196 175 214
20 22 21 196 175 214
20 22 22 158 216 229
20 23 25 158 216 229
20 23 26 158 216 229
20 23 27 158 216 229
20 24 26 158 216 229
20 24 27 158 216 229
20 25 26 158 216 229
20 25 27 158 216 229
20 26 26 158 216 229
20 26 27 158 216 229
20 27 25 158 216 229
20 27 26 158 216 229
20 27 27 158 216 229
20 28 26 158 216 229
20 28 27 158 216 229
20 29 26 158 216 229
20 29 27 158 216 229
20 30 27 158 216 229
20 30 28 158 216 229
20 31 27 158 216 229
20 31 28 158 216 229
21 4 35 158 216 229
21 9 24 147 102 188
21 9 26 158 216 229
21 10 26 158 216 229
21 10 27 158 216 229
21 11 22 196 175 214
21 11 26 158 216 229
21 12 18 196 175 214
21 12 24 196 175 214
21 12 25 196 175 214
21 13 27 158 216 229
21 14 26 158 216 229
21 14 27 158 216 229
21 15 27 158 216 229
21 17 27 158 216 229
21 19 27 158 216 229
21 20 27 158 216 229
21 21 26 158 216 229
21 21 27 158 216 229
21 22 25 158 216 229
21 22 26 158 216 229
21 22 27 158 216 229
21 23 26 158 216 229
21 23 27 158 216 229
21 24 26 158 216 229
21 24 27 158 216 229
21 25 26 158 216 229
21 25 27 158 216 229
21 26 26 158 216 229
21 26 27 158 216 229
21 27 26 158 216 229
21 27 27 158 216 229
21 28 26 158 216 229
21 28 27 158 216 229
21 29 26 158 216 229
21 29 27 158 216 229
21 30 27 158 216 229
21 31 27 158 216 229
21 31 28 158 216 229
21 32 29 158 216 229
22 5 32 158 216 229
22 6 35 158 216 229
22 9 27 158 216 229
22 10 26 158 216 229
22 11 22 196 175 214
22 12 21 196 175 214
22 12 22 196 175 214
22 12 23 196 175 214
22 13 22 196 175 214
22 13 23 196 175 214
22 13 24 196 175 214
22 13 25 158 216 229
22 14 22 196 175 214
22 14 23 196 175 214
22 14 24 196 175 214
22 14 25 158 216 229
22 14 26 158 216 229
22 15 24 196 175 214
22 15 25 158 216 229
22 15 26 158 216 229
22 15 27 158 216 229
22 16 24 147 102 188
22 16 25 158 216 229
22 16 26 158 216 229
22 16 27 158 216 229
22 17 25 158 216 229
22 17 26 158 216 229
22 17 27 158 216 229
22 18 25 158 216 229
22 18 26 158 216 229
22 18 27 158 216 229
22 19 25 158 216 229
22 19 26 158 216 229
22 19 27 158 216 229
22 20 12 196 175 214
22 20 26 158 216 229
22 20 27 158 216 229
22 21 16 196 175 214
22 21 26 158 216 229
22 21 27 158 216 229
22 22 26 158 216 229
22 22 27 158 216 229
22 23 26 158 216 229
22 23 27 158 216 229
22 23 28 158 216 229
22 24 26 158 216 229
22 24 27 158 216 229
22 24 28 158 216 229
22 25 26 158 216 229
22 25 27 158 216 229
22 25 28 158 216 229
22 26 26 158 216 229
22 26 27 158 216 229
22 26 28 158 216 229
22 27 26 158 216 229
22 27 27 158 216 229
22 28 26 158 216 229
22 28 27 158 216 229
22 28 28 158 216 229
22 29 27 158 216 229
22 29 28 158 216 229
22 30 26 158 216 229
22 30 27 158 216 229
22 30 28 158 216 229
22 31 27 158 216 229
22 31 28 158 216 229
23 7 32 158 216 229
23 7 33 158 216 229
23 10 26 158 216 229
23 10 28 158 216 229
23 10 29 158 216 229
23 11 26 158 216 229
23 11 27 158 216 229
23 12 21 196 175 214
23 12 22 196 175 214
23 12 23 196 175 214
23 13 19 196 175 214
23 13 21 196 175 214
23 13 22 196 175 214
23 13 23 196 175 214
23 13 24 196 175 214
23 14 19 196 175 214
23 14 21 196 175 214
23 14 22 196 175 214
23 14 23 196 175 214
23 14 24 196 175 214
23 14 25 196 175 214
23 14 26 158 216 229
23 14 27 158 216 229
23 15 20 196 175 214
23 15 26 158 216 229
23 15 27 158 216 229
23 16 26 158 216 229
23 16 27 158 216 229
23 17 26 158 216 229
23 17 27 158 216 229
23 18 25 158 216 229
23 18 26 158 216 229
23 18 27 158 216 229
23 19 26 158 216 229
23 19 27 158 216 229
23 20 11 196 175 214
23 20 26 158 216 229
23 20 27 158 216 229
23 21 26 158 216 229
23 21 27 158 216 229
23 22 26 158 216 229
23 22 27 158 216 229
23 22 28 158 216 229
23 23 26 158 216 229
23 23 27 158 216 229
23 23 28 158 216 229
23 24 26 158 216 229
23 24 27 158 216 229
23 24 28 158 216 229
23 25 26 158 216 229
23 25 27 158 216 229
23 25 28 158 216 229
23 26 26 158 216 229
23 26 27 158 216 229
23 26 28 158 216 229
23 27 27 158 216 229
23 27 28 158 216 229
23 28 27 158 216 229
23 28 28 158 216 229
23 29 27 158 216 229
23 29 28 158 216 229
23 30 27 158 216 229
23 30 28 158 216 229
23 31 27 158 216 229
23 31 28 158 216 229
24 8 35 158 216 229
24 12 18 196 175 214
24 13 17 196 175 214
24 13 18 196 175 214
24 13 19 196 175 214
24 14 16 196 175 214
24 14 17 196 175 214
24 14 18 196 175 214
24 14 19 196 175 214
24 14 20 196 175 214
24 14 21 196 175 214
24 14 22 196 175 214
24 14 23 196 175 214
24 14 24 196 175 214
24 14 25 196 175 214
24 14 26 158 216 229
24 14 27 158 216 229
24 15 18 196 175 214
24 15 26 158 216 229
24 15 27 158 216 229
24 16 9 196 175 214
24 16 26 158 216 229
24 16 27 158 216 229
24 17 26 158 216 229
24 17 27 158 216 229
24 18 26 158 216 229
24 18 27 158 216 229
24 19 26 158 216 229
24 19 27 158 216 229
24 20 26 158 216 229
24 20 27 158 216 229
24 20 28 114 158 206
24 21 26 158 216 229
24 21 27 158 216 229
24 21 28 158 216 229
24 22 26 158 216 229
24 22 27 158 216 229
24 22 28 158 216 229
24 23 27 158 216 229
24 23 28 158 216 229
24 24 27 158 216 229
24 24 28 158 216 229
24 25 27 158 216 229
24 25 28 158 216 229
24 26 27 158 216 229
24 26 28 158 216 229
24 27 27 158 216 229
24 27 28 158 216 229
24 27 29 158 216 229
24 28 27 158 216 229
24 28 28 158 216 229
24 29 27 158 216 229
24 29 28 158 216 229
24 30 27 158 216 229
24 30 28 158 216 229
24 30 29 158 216 229
24 31 27 158 216 229
24 31 28 158 216 229
24 32 29 158 216 229
25 0 58 43 160 4
25 0 59 43 160 4
25 10 28 158 216 229
25 11 25 196 175 214
25 12 22 196 175 214
25 12 23 196 175 214
25 13 16 196 175 214
25 13 17 196 175 214
25 13 18 196 175 214
25 13 19 196 175 214
25 13 21 196 175 214
25 13 22 196 175 214
25 13 23 196 175 214
25 14 14 196 175 214
25 14 17 196 175 214
25 14 18 196 175 214
25 14 19 196 175 214
25 14 21 196 175 214
25 14 22 196 175 214
25 14 26 158 216 229
25 15 18 196 175 214
25 15 19 196 175 214
25 15 20 196 175 214
25 15 21 196 175 214
25 15 22 196 175 214
25 15 23 196 175 214
25 15 24 196 175 214
25 15 25 196 175 214
25 15 26 158 216 229
25 15 27 158 216 229
25 16 26 158 216 229
25 16 27 158 216 229
25 17 26 158 216 229
25 17 27 158 216 229
25 17 28 158 216 229
25 18 8 196 175 214
25 18 26 158 216 229
25 18 27 158 216 229
25 19 8 196 175 214
25 19 26 158 216 229
25 19 27 158 216 229
25 19 28 158 216 229
25 20 11 196 175 214
25 20 26 158 216 229
25 20 27 158 216 229
25 20 28 114 158 206
25 21 27 158 216 229
25 21 28 158 216 229
25 22 26 158 216 229
25 22 27 158 216 229
25 22 28 158 216 229
25 23 27 158 216 229
25 23 28 158 216 229
25 24 27 158 216 229
25 24 28 158 216 229
25 25 27 158 216 229
25 25 28 158 216 229
25 26 27 158 216 229
25 26 28 158 216 229
25 27 27 158 216 229
25 27 28 158 216 229
25 28 27 158 216 229
25 28 28 158 216 229
25 29 27 158 216 229
25 29 28 158 216 229
25 30 28 158 216 229
25 30 29 158 216 229
25 31 28 158 216 229
25 31 29 158 216 229
25 32 29 158 216 229
26 0 55 43 160 4
26 0 56 43 160 4
26 0 57 43 160 4
26 0 58 43 160 4
26 0 59 43 160 4
26 11 25 196 175 214
26 12 21 196 175 214
26 12 23 196 175 214
26 12 24 196 175 214
26 12 25 196 175 214
26 13 18 196 175 214
26 13 19 196 175 214
26 13 20 196 175 214
26 13 22 196 175 214
26 13 23 196 175 214
26 14 14 196 175 214
26 14 18 196 175 214
26 14 19 196 175 214
26 15 10 196 175 214
26 15 11 196 175 214
26 15 18 196 175 214
26 15 19 196 175 214
26 15 20 196 175 214
26 15 21 196 175 214
26 15 22 196 175 214
26 15 23 196 175 214
26 15 24 196 175 214
26 15 25 196 175 214
26 15 26 158 216 229
26 15 27 158 216 229
26 16 7 196 175 214
26 16 8 196 175 214
26 16 20 196 175 214
26 16 24 196 175 214
26 16 25 196 175 214
26 16 26 158 216 229
26 16 27 158 216 229
26 16 28 158 216 229
26 17 6 196 175 214
26 17 7 196 175 214
26 17 8 196 175 214
26 17 27 158 216 229
26 18 6 196 175 214
26 18 7 196 175 214
26 18 8 196 175 214
26 18 26 158 216 229
26 18 27 158 216 229
26 19 6 196 175 214
26 19 7 196 175 214
26 19 8 196 175 214
26 19 27 158 216 229
26 19 28 158 216 229
26 20 7 196 175 214
26 20 27 158 216 229
26 20 28 114 158 206
26 21 27 158 216 229
26 21 28 158 216 229
26 22 27 158 216 229
26 22 28 158 216 229
26 23 27 158 216 229
26 23 28 158 216 229
26 24 27 158 216 229
26 24 28 158 216 229
26 25 27 158 216 229
26 25 28 158 216 229
26 25 29 158 216 229
26 26 27 158 216 229
26 26 28 158 216 229
26 27 28 158 216 229
26 27 29 158 216 229
26 28 28 158 216 229
26 28 29 158 216 229
26 29 28 158 216 229
26 29 29 158 216 229
26 30 28 158 216 229
26 30 29 158 216 229
26 31 28 158 216 229
26 31 29 158 216 229
26 32 29 158 216 229
27 0 52 43 160 4
27 0 53 43 160 4
27 0 54 43 160 4
27 0 55 43 160 4
27 0 56 43 160 4
27 0 57 43 160 4
27 0 58 43 160 4
27 0 59 43 160 4
27 11 25 196 175 214
27 12 21 196 175 214
27 12 23 196 175 214
27 12 24 196 175 214
27 12 25 196 175 214
27 13 18 196 175 214
27 13 19 196 175 214
27 13 20 196 175 214
27 13 21 196 175 214
27 13 23 196 175 214
27 13 24 196 175 214
27 14 19 196 175 214
27 14 20 196 175 214
27 15 10 196 175 214
27 15 19 196 175 214
27 15 20 196 175 214
27 15 21 196 175 214
27 15 22 196 175 214
27 15 23 196 175 214
27 15 24 196 175 214
27 15 25 196 175 214
27 15 26 196 175 214
27 15 27 158 216 229
27 16 7 196 175 214
27 16 8 196 175 214
27 16 21 196 175 214
27 16 22 196 175 214
27 16 23 196 175 214
27 16 24 196 175 214
27 16 25 196 175 214
27 16 26 196 175 214
27 16 27 158 216 229
27 16 28 158 216 229
27 17 6 196 175 214
27 17 8 196 175 214
27 17 27 158 216 229
27 17 28 158 216 229
27 18 6 196 175 214
27 18 8 196 175 214
27 18 27 158 216 229
27 18 28 158 216 229
27 19 7 196 175 214
27 19 8 196 175 214
27 19 27 158 216 229
27 19 28 114 158 206
27 20 27 158 216 229
27 20 28 114 158 206
27 21 27 158 216 229
27 21 28 158 216 229
27 22 27 158 216 229
27 22 28 158 216 229
27 22 29 158 216 229
27 23 27 158 216 229
27 23 28 158 216 229
27 23 29 158 216 229
27 24 27 158 216 229
27 24 28 158 216 229
27 24 29 158 216 229
27 25 28 158 216 229
27 25 29 158 216 229
27 26 28 158 216 229
27 26 29 158 216 229
27 27 28 158 216 229
27 27 29 158 216 229
27 28 28 158 216 229
27 28 29 158 216 229
27 29 28 158 216 229
27 29 29 158 216 229
27 30 28 158 216 229
27 30 29 158 216 229
27 30 30 158 216 229
27 31 28 158 216 229
27 31 29 158 216 229
27 32 29 158 216 229
27 32 30 158 216 229
28 0 48 43 160 4
28 0 49 43 160 4
28 0 50 43 160 4
28 0 53 43 160 4
28 0 54 43 160 4
28 0 55 43 160 4
28 0 56 43 160 4
28 0 57 43 160 4
28 9 27 255 186 119
28 9 28 255 186 119
28 10 25 255 186 119
28 10 26 255 186 119
28 10 27 255 186 119
28 11 24 196 175 214
28 11 25 196 175 214
28 12 20 196 175 214
28 12 21 196 175 214
28 12 23 196 175 214
28 12 24 196 175 214
28 12 25 196 175 214
28 13 17 196 175 214
28 13 18 196 175 214
28 13 19 196 175 214
28 13 20 196 175 214
28 13 21 196 175 214
28 13 23 196 175 214
28 13 24 196 175 214
28 13 25 196 175 214
28 14 19 196 175 214
28 14 20 196 175 214
28 14 21 196 175 214
28 14 23 196 175 214
28 14 24 196 175 214
28 14 25 196 175 214
28 15 20 196 175 214
28 15 21 196 175 214
28 15 22 196 175 214
28 15 23 196 175 214
28 15 24 196 175 214
28 15 25 196 175 214
28 15 26 196 175 214
28 15 27 196 175 214
28 15 29 158 216 229
28 16 7 196 175 214
28 16 8 196 175 214
28 16 21 196 175 214
28 16 22 196 175 214
28 16 23 196 175 214
28 16 24 196 175 214
28 16 25 196 175 214
28 16 26 196 175 214
28 16 27 196 175 214
28 16 28 158 216 229
28 17 27 158 216 229
28 17 28 158 216 229
28 18 27 158 216 229
28 18 28 158 216 229
28 18 29 158 216 229
28 19 27 114 158 206
28 19 28 114 158 206
28 20 27 114 158 206
28 20 28 114 158 206
28 21 27 196 175 214
28 21 28 158 216 229
28 21 29 158 216 229
28 22 28 158 216 229
28 22 29 158 216 229
28 23 28 158 216 229
28 23 29 158 216 229
28 24 28 158 216 229
28 24 29 158 216 229
28 25 28 158 216 229
28 25 29 158 216 229
28 26 28 158 216 229
28 26 29 158 216 229
28 26 30 158 216 229
28 27 28 158 216 229
28 27 29 158 216 229
28 28 28 158 216 229
28 28 29 158 216 229
28 29 28 158 216 229
28 29 29 158 216 229
28 30 28 158 216 229
28 30 29 158 216 229
28 30 30 158 216 229
28 31 29 158 216 229
28 31 30 158 216 229
28 32 29 158 216 229
28 32 30 158 216 229
28 33 31 158 216 229
29 0 50 43 160 4
29 8 28 255 186 119
29 8 29 158 216 229
29 9 26 255 186 119
29 9 27 255 186 119
29 10 23 196 175 214
29 10 24 255 186 119
29 11 20 196 175 214
29 11 25 196 175 214
29 11 29 158 216 229
29 12 17 196 175 214
29 12 21 196 175 214
29 12 23 196 175 214
29 12 24 196 175 214
29 12 25 196 175 214
29 12 29 158 216 229
29 13 17 196 175 214
29 13 20 196 175 214
29 13 21 196 175 214
29 13 23 196 175 214
29 13 24 196 175 214
29 13 25 196 175 214
29 14 13 196 175 214
29 14 14 196 175 214
29 14 20 196 175 214
29 14 21 196 175 214
29 14 22 196 175 214
29 14 24 196 175 214
29 15 10 196 175 214
29 15 20 196 175 214
29 15 21 196 175 214
29 15 22 196 175 214
29 15 28 158 216 229
29 16 7 196 175 214
29 16 8 196 175 214
29 16 20 196 175 214
29 16 21 196 175 214
29 16 22 196 175 214
29 16 23 196 175 214
29 16 24 196 175 214
29 16 25 196 175 214
29 16 26 196 175 214
29 16 27 196 175 214
29 16 28 158 216 229
29 16 29 158 216 229
29 17 27 158 216 229
29 17 28 158 216 229
29 18 27 158 216 229
29 18 28 158 216 229
29 19 27 114 158 206
29 19 28 114 158 206
29 19 29 158 216 229
29 20 28 114 158 206
29 20 29 114 158 206
29 21 27 196 175 214
29 21 28 158 216 229
29 21 29 158 216 229
29 22 28 158 216 229
29 22 29 158 216 229
29 23 28 158 216 229
29 23 29 158 216 229
29 24 28 158 216 229
29 24 29 158 216 229
29 25 28 158 216 229
29 25 29 158 216 229
29 26 28 158 216 229
29 26 29 158 216 229
29 26 30 158 216 229
29 27 28 158 216 229
29 27 29 158 216 229
29 27 30 158 216 229
29 28 28 158 216 229
29 28 29 158 216 229
29 28 30 158 216 229
29 29 28 158 216 229
29 29 29 158 216 229
29 29 30 158 216 229
29 30 29 158 216 229
29 30 30 158 216 229
29 30 31 158 216 229
29 31 29 158 216 229
29 31 30 158 216 229
29 32 29 158 216 229
29 32 30 158 216 229
30 0 49 43 160 4
30 0 50 43 160 4
30 0 51 43 160 4
30 0 58 43 160 4
30 0 59 43 160 4
30 5 36 158 216 229
30 6 33 158 216 229
30 9 29 158 216 229
30 11 23 196 175 214
30 12 19 196 175 214
30 12 20 196 175 214
30 12 21 196 175 214
30 12 23 196 175 214
30 12 24 196 175 214
30 12 29 158 216 229
30 13 17 196 175 214
30 13 18 196 175 214
30 13 20 196 175 214
30 13 21 196 175 214
30 13 22 196 175 214
30 13 23 196 175 214
30 13 24 196 175 214
30 13 25 196 175 214
30 13 29 158 216 229
30 14 12 196 175 214
30 14 13 196 175 214
30 14 14 196 175 214
30 14 20 196 175 214
30 14 21 196 175 214
30 14 22 196 175 214
30 14 24 196 175 214
30 15 9 196 175 214
30 15 20 196 175 214
30 15 21 196 175 214
30 15 22 196 175 214
30 15 24 196 175 214
30 15 25 196 175 214
30 15 28 158 216 229
30 16 6 196 175 214
30 16 7 196 175 214
30 16 21 196 175 214
30 16 22 196 175 214
30 16 23 196 175 214
30 16 27 196 175 214
30 16 28 158 216 229
30 16 29 158 216 229
30 16 30 158 216 229
30 17 27 158 216 229
30 17 28 158 216 229
30 17 29 158 216 229
30 18 28 158 216 229
30 18 29 158 216 229
30 19 28 158 216 229
30 19 29 158 216 229
30 20 28 114 158 206
30 20 29 158 216 229
30 21 28 158 216 229
30 21 29 158 216 229
30 22 28 158 216 229
30 22 29 158 216 229
30 23 28 158 216 229
30 23 29 158 216 229
30 24 28 158 216 229
30 24 29 158 216 229
30 25 29 158 216 229
30 26 28 158 216 229
30 26 29 158 216 229
30 27 29 158 216 229
30 27 30 158 216 229
30 28 29 158 216 229
30 28 30 158 216 229
30 29 29 158 216 229
30 29 30 158 216 229
30 30 29 158 216 229
30 30 30 158 216 229
30 31 29 158 216 229
30 31 30 158 216 229
30 32 29 158 216 229
30 32 30 158 216 229
31 0 56 43 160 4
31 0 57 43 160 4
31 0 58 43 160 4
31 0 59 43 160 4
31 8 30 158 216 229
31 9 27 255 186 119
31 9 28 255 186 119
31 9 29 158 216 229
31 10 29 158 216 229
31 11 20 196 175 214
31 11 22 196 175 214
31 11 29 158 216 229
31 12 19 196 175 214
31 12 20 196 175 214
31 12 21 196 175 214
31 12 23 196 175 214
31 12 24 196 175 214
31 12 29 158 216 229
31 13 17 196 175 214
31 13 20 196 175 214
31 13 21 196 175 214
31 13 22 196 175 214
31 13 24 196 175 214
31 13 29 158 216 229
31 14 11 196 175 214
31 14 12 196 175 214
31 14 13 196 175 214
31 14 14 196 175 214
31 14 21 196 175 214
31 14 22 196 175 214
31 14 24 196 175 214
31 14 28 158 216 229
31 14 30 158 216 229
31 15 21 196 175 214
31 15 22 196 175 214
31 15 23 196 175 214
31 15 25 196 175 214
31 15 26 196 175 214
31 15 27 196 175 214
31 15 28 158 216 229
31 15 29 158 216 229
31 16 28 158 216 229
31 16 29 158 216 229
31 17 28 158 216 229
31 17 29 158 216 229
31 18 28 158 216 229
31 18 29 158 216 229
31 19 28 158 216 229
31 19 29 158 216 229
31 20 28 114 158 206
31 20 29 158 216 229
31 21 29 158 216 229
31 21 30 158 216 229
31 22 29 158 216 229
31 22 30 158 216 229
31 23 29 158 216 229
31 23 30 158 216 229
31 24 29 158 216 229
31 24 30 158 216 229
31 25 29 158 216 229
31 25 30 158 216 229
31 26 29 158 216 229
31 26 30 158 216 229
31 27 29 158 216 229
31 27 30 158 216 229
31 28 29 158 216 229
31 28 30 158 216 229
31 29 29 158 216 229
31 29 30 158 216 229
31 30 29 158 216 229
31 30 30 158 216 229
31 30 31 158 216 229
31 31 29 158 216 229
31 31 30 158 216 229
31 31 31 158 216 229
31 32 29 158 216 229
31 32 30 158 216 229
31 32 32 158 216 229
31 33 31 158 216 229
32 0 55 43 160 4
32 0 56 43 160 4
32 0 57 43 160 4
32 0 58 43 160 4
32 0 59 43 160 4
32 8 28 255 186 119
32 8 29 255 186 119
32 9 24 255 186 119
32 9 25 255 186 119
32 9 26 255 186 119
32 9 27 255 186 119
32 9 28 255 186 119
32 11 19 196 175 214
32 11 20 196 175 214
32 12 17 196 175 214
32 12 18 196 175 214
32 12 19 196 175 214
32 12 20 196 175 214
32 12 21 196 175 214
32 12 24 196 175 214
32 13 12 196 175 214
32 13 20 196 175 214
32 13 21 196 175 214
32 13 22 196 175 214
32 13 27 255 186 119
32 14 22 196 175 214
32 14 23 196 175 214
32 14 28 158 216 229
32 14 29 158 216 229
32 14 30 158 216 229
32 15 22 196 175 214
32 15 23 196 175 214
32 15 28 158 216 229
32 15 29 158 216 229
32 16 28 158 216 229
32 16 29 158 216 229
32 17 28 158 216 229
32 17 29 158 216 229
32 18 28 158 216 229
32 18 29 158 216 229
32 19 28 158 216 229
32 19 29 158 216 229
32 20 29 158 216 229
32 20 30 158 216 229
32 21 29 158 216 229
32 21 30 158 216 229
32 22 29 158 216 229
32 22 30 158 216 229
32 23 29 158 216 229
32 23 30 158 216 229
32 24 29 158 216 229
32 24 30 158 216 229
32 25 29 158 216 229
32 25 30 158 216 229
32 26 29 158 216 229
32 26 30 158 216 229
32 27 29 158 216 229
32 27 30 158 216 229
32 28 29 158 216 229
32 28 30 158 216 229
32 28 31 158 216 229
32 29 30 158 216 229
32 29 31 158 216 229
32 29 32 158 216 229
32 30 30 158 216 229
32 30 31 158 216 229
32 31 30 158 216 229
32 31 31 158 216 229
32 32 30 158 216 229
32 32 31 158 216 229
32 33 31 158 216 229
33 0 52 43 160 4
33 0 53 43 160 4
33 0 54 43 160 4
33 0 55 43 160 4
33 0 56 43 160 4
33 0 57 43 160 4
33 0 58 43 160 4
33 0 59 43 160 4
33 7 29 255 186 119
33 7 30 158 216 229
33 8 27 255 186 119
33 8 28 255 186 119
33 8 29 255 186 119
33 10 29 158 216 229
33 11 17 255 186 119
33 11 18 255 186 119
33 11 19 255 186 119
33 11 20 255 186 119
33 11 24 255 186 119
33 12 14 196 175 214
33 12 15 196 175 214
33 12 16 196 175 214
33 12 17 196 175 214
33 12 18 196 175 214
33 12 19 196 175 214
33 12 20 196 175 214
33 12 21 196 175 214
33 12 22 196 175 214
33 12 26 196 175 214
33 12 27 255 186 119
33 13 20 196 175 214
33 13 21 196 175 214
33 13 22 196 175 214
33 13 23 196 175 214
33 13 24 196 175 214
33 13 25 196 175 214
33 13 26 196 175 214
33 13 29 158 216 229
33 13 30 158 216 229
33 14 22 196 175 214
33 14 23 196 175 214
33 14 24 196 175 214
33 14 25 196 175 214
33 14 26 196 175 214
33 14 27 196 175 214
33 14 28 158 216 229
33 14 29 158 216 229
33 14 30 158 216 229
33 14 32 158 216 229
33 15 28 158 216 229
33 15 29 158 216 229
33 15 30 158 216 229
33 16 28 158 216 229
33 16 29 158 216 229
33 16 30 158 216 229
33 17 28 158 216 229
33 17 29 158 216 229
33 17 30 158 216 229
33 18 29 158 216 229
33 18 30 158 216 229
33 19 29 158 216 229
33 19 30 158 216 229
33 20 29 158 216 229
33 20 30 158 216 229
33 21 29 158 216 229
33 21 30 158 216 229
33 22 29 158 216 229
33 22 30 158 216 229
33 23 29 158 216 229
33 23 30 158 216 229
33 24 29 158 216 229
33 24 30 158 216 229
33 24 31 158 216 229
33 25 29 158 216 229
33 25 30 158 216 229
33 25 31 158 216 229
33 26 29 158 216 229
33 26 30 158 216 229
33 27 29 158 216 229
33 27 30 158 216 229
33 27 31 158 216 229
33 28 30 158 216 229
33 28 31 158 216 229
33 29 30 158 216 229
33 29 31 158 216 229
33 30 30 158 216 229
33 30 31 158 216 229
33 31 30 158 216 229
33 31 31 158 216 229
33 32 30 158 216 229
33 32 31 158 216 229
33 33 31 158 216 229
34 0 49 43 160 4
34 0 50 43 160 4
34 0 51 43 160 4
34 0 52 43 160 4
34 0 53 43 160 4
34 0 54 43 160 4
34 0 55 43 160 4
34 0 56 43 160 4
34 0 57 43 160 4
34 0 58 43 160 4
34 0 59 43 160 4
34 8 25 255 186 119
34 8 26 255 186 119
34 8 27 255 186 119
34 9 22 255 186 119
34 9 23 255 186 119
34 9 24 255 186 119
34 9 25 255 186 119
34 9 26 255 186 119
34 9 27 255 186 119
34 9 28 255 186 119
34 11 16 255 186 119
34 11 17 255 186 119
34 11 18 255 186 119
34 11 19 255 186 119
34 11 20 255 186 119
34 12 14 196 175 214
34 12 15 196 175 214
34 12 16 196 175 214
34 12 17 196 175 214
34 12 18 196 175 214
34 12 19 196 175 214
34 12 20 196 175 214
34 12 21 196 175 214
34 12 22 196 175 214
34 12 23 196 175 214
34 12 24 196 175 214
34 12 25 196 175 214
34 12 27 196 175 214
34 12 30 158 216 229
34 13 21 196 175 214
34 13 22 196 175 214
34 13 23 196 175 214
34 13 24 196 175 214
34 13 25 196 175 214
34 13 26 196 175 214
34 13 27 196 175 214
34 13 28 158 216 229
34 13 29 158 216 229
34 13 30 158 216 229
34 14 25 196 175 214
34 14 26 196 175 214
34 14 27 196 175 214
34 14 28 158 216 229
34 14 29 158 216 229
34 14 30 158 216 229
34 14 31 158 216 229
34 15 29 158 216 229
34 15 30 158 216 229
34 15 31 158 216 229
34 16 29 158 216 229
34 16 30 158 216 229
34 17 29 158 216 229
34 17 30 158 216 229
34 18 29 158 216 229
34 18 30 158 216 229
34 19 29 158 216 229
34 19 30 158 216 229
34 20 29 158 216 229
34 20 30 158 216 229
34 21 29 158 216 229
34 21 30 158 216 229
34 22 29 158 216 229
34 22 30 158 216 229
34 23 29 158 216 229
34 23 30 158 216 229
34 23 31 158 216 229
34 24 30 158 216 229
34 24 31 158 216 229
34 25 29 158 216 229
34 25 30 158 216 229
34 25 31 158 216 229
34 26 29 158 216 229
34 26 30 158 216 229
34 26 31 158 216 229
34 26 32 158 216 229
34 27 29 158 216 229
34 27 30 158 216 229
34 27 31 158 216 229
34 28 30 158 216 229
34 28 31 158 216 229
34 29 30 158 216 229
34 29 31 158 216 229
34 30 30 158 216 229
34 30 31 158 216 229
34 31 30 158 216 229
34 31 31 158 216 229
34 32 31 158 216 229
34 32 32 158 216 229
34 33 31 158 216 229
35 0 48 43 160 4
35 0 49 43 160 4
35 0 50 43 160 4
35 0 51 43 160 4
35 0 52 43 160 4
35 0 53 43 160 4
35 0 54 43 160 4
35 0 55 43 160 4
35 0 56 43 160 4
35 0 57 43 160 4
35 0 58 43 160 4
35 0 59 43 160 4
35 7 26 255 186 119
35 7 27 255 186 119
35 7 28 255 186 119
35 7 29 255 186 119
35 8 23 255 186 119
35 8 24 255 186 119
35 8 25 255 186 119
35 8 26 255 186 119
35 8 27 255 186 119
35 8 28 255 186 119
35 8 29 255 186 119
35 8 30 158 216 229
35 9 21 255 186 119
35 9 22 255 186 119
35 9 23 255 186 119
35 9 24 255 186 119
35 9 25 255 186 119
35 9 26 255 186 119
35 9 27 255 186 119
35 9 28 255 186 119
35 9 29 158 216 229
35 11 16 255 186 119
35 11 17 255 186 119
35 11 18 255 186 119
35 11 19 255 186 119
35 11 20 255 186 119
35 11 21 255 186 119
35 11 22 255 186 119
35 12 14 255 186 119
35 12 15 196 175 214
35 12 16 255 186 119
35 12 17 196 175 214
35 12 18 196 175 214
35 12 19 196 175 214
35 12 20 196 175 214
35 12 21 196 175 214
35 12 22 196 175 214
35 12 23 196 175 214
35 12 24 196 175 214
35 12 25 196 175 214
35 13 24 196 175 214
35 13 25 196 175 214
35 13 26 196 175 214
35 13 27 196 175 214
35 13 28 196 175 214
35 13 29 158 216 229
35 13 30 158 216 229
35 14 26 196 175 214
35 14 27 196 175 214
35 14 28 158 216 229
35 14 29 158 216 229
35 14 30 158 216 229
35 15 28 158 216 229
35 15 29 158 216 229
35 15 30 158 216 229
35 15 31 158 216 229
35 16 29 158 216 229
35 16 30 158 216 229
35 17 29 158 216 229
35 17 30 158 216 229
35 18 29 158 216 229
35 18 30 158 216 229
35 18 31 158 216 229
35 19 29 158 216 229
35 19 30 158 216 229
35 19 31 158 216 229
35 20 29 158 216 229
35 20 30 158 216 229
35 21 30 158 216 229
35 21 31 158 216 229
35 22 29 158 216 229
35 22 30 158 216 229
35 22 31 158 216 229
35 23 30 158 216 229
35 23 31 158 216 229
35 24 30 158 216 229
35 24 31 158 216 229
35 25 30 158 216 229
35 25 31 158 216 229
35 26 30 158 216 229
35 26 31 158 216 229
35 27 30 158 216 229
35 27 31 158 216 229
35 28 30 158 216 229
35 28 31 158 216 229
35 29 30 158 216 229
35 29 31 158 216 229
35 29 32 158 216 229
35 30 30 158 216 229
35 30 31 158 216 229
35 31 31 158 216 229
35 31 32 158 216 229
35 32 31 158 216 229
35 32 32 158 216 229
35 33 31 158 216 229
35 33 32 158 216 229
36 0 49 43 160 4
36 0 50 43 160 4
36 0 51 43 160 4
36 0 52 43 160 4
36 0 53 43 160 4
36 0 54 43 160 4
36 0 55 43 160 4
36 0 56 43 160 4
36 0 57 43 160 4
36 6 28 255 186 119
36 6 29 255 186 119
36 7 25 255 186 119
36 7 26 255 186 119
36 7 27 255 186 119
36 7 28 255 186 119
36 7 29 255 186 119
36 8 23 255 186 119
36 8 24 255 186 119
36 8 25 255 186 119
36 8 26 255 186 119
36 8 27 255 186 119
36 8 28 255 186 119
36 8 29 255 186 119
36 9 21 255 186 119
36 9 22 255 186 119
36 9 23 255 186 119
36 9 24 255 186 119
36 9 25 255 186 119
36 9 26 255 186 119
36 9 27 255 186 119
36 10 18 255 186 119
36 11 16 255 186 119
36 11 17 255 186 119
36 11 18 255 186 119
36 11 19 255 186 119
36 11 20 255 186 119
36 11 21 255 186 119
36 11 22 255 186 119
36 11 23 255 186 119
36 12 14 255 186 119
36 12 15 255 186 119
36 12 16 255 186 119
36 12 17 255 186 119
36 12 18 255 186 119
36 12 19 255 186 119
36 12 20 255 186 119
36 12 21 196 175 214
36 12 22 196 175 214
36 12 23 196 175 214
36 12 24 196 175 214
36 12 25 196 175 214
36 13 24 196 175 214
36 13 25 196 175 214
36 13 26 196 175 214
36 13 27 196 175 214
36 13 28 196 175 214
36 13 29 158 216 229
36 13 30 158 216 229
36 13 31 158 216 229
36 14 26 196 175 214
36 14 27 255 186 119
36 14 28 158 216 229
36 14 29 158 216 229
36 14 30 158 216 229
36 14 31 158 216 229
36 15 29 158 216 229
36 15 30 158 216 229
36 16 29 158 216 229
36 16 30 158 216 229
36 17 29 158 216 229
36 17 30 158 216 229
36 18 30 158 216 229
36 18 31 158 216 229
36 19 30 158 216 229
36 19 31 158 216 229
36 20 29 114 158 206
36 20 30 158 216 229
36 20 31 158 216 229
36 21 30 158 216 229
36 21 31 158 216 229
36 22 30 158 216 229
36 22 31 158 216 229
36 23 30 158 216 229
36 23 31 158 216 229
36 24 30 158 216 229
36 24 31 158 216 229
36 25 30 158 216 229
36 25 31 158 216 229
36 26 30 158 216 229
36 26 31 158 216 229
36 27 30 158 216 229
36 27 31 158 216 229
36 28 30 158 216 229
36 28 31 158 216 229
36 28 33 158 216 229
36 29 31 158 216 229
36 29 32 158 216 229
36 29 33 158 216 229
36 30 31 158 216 229
36 30 32 158 216 229
36 31 31 158 216 229
36 31 32 158 216 229
36 32 31 158 216 229
36 32 32 158 216 229
36 33 31 158 216 229
36 33 32 158 216 229
37 0 46 43 160 4
37 4 32 158 216 229
37 5 30 255 186 119
37 6 28 255 186 119
37 6 29 255 186 119
37 6 30 255 186 119
37 7 26 255 186 119
37 7 27 255 186 119
37 7 28 255 186 119
37 7 29 255 186 119
37 8 23 255 186 119
37 8 24 255 186 119
37 8 25 255 186 119
37 8 26 255 186 119
37 8 27 255 186 119
37 8 28 255 186 119
37 8 29 255 186 119
37 9 21 255 186 119
37 9 22 255 186 119
37 9 23 255 186 119
37 9 24 255 186 119
37 9 25 255 186 119
37 9 26 255 186 119
37 9 27 255 186 119
37 11 16 255 186 119
37 11 17 255 186 119
37 11 18 255 186 119
37 11 19 255 186 119
37 11 20 255 186 119
37 11 21 255 186 119
37 11 22 255 186 119
37 11 23 255 186 119
37 12 14 255 186 119
37 12 15 255 186 119
37 12 16 255 186 119
37 12 17 255 186 119
37 12 18 255 186 119
37 12 19 196 175 214
37 12 21 196 175 214
37 12 22 196 175 214
37 12 23 196 175 214
37 12 24 196 175 214
37 12 25 196 175 214
37 12 29 158 216 229
37 13 24 196 175 214
37 13 25 255 186 119
37 13 26 255 186 119
37 13 27 255 186 119
37 13 28 196 175 214
37 13 29 158 216 229
37 13 30 158 216 229
37 14 29 158 216 229
37 14 30 158 216 229
37 14 31 158 216 229
37 15 29 158 216 229
37 15 30 158 216 229
37 15 31 158 216 229
37 16 29 158 216 229
37 16 30 158 216 229
37 16 31 158 216 229
37 17 30 158 216 229
37 17 31 158 216 229
37 18 30 158 216 229
37 18 31 158 216 229
37 19 30 158 216 229
37 19 31 158 216 229
37 20 30 158 216 229
37 20 31 158 216 229
37 21 30 158 216 229
37 21 31 158 216 229
37 22 30 158 216 229
37 22 31 158 216 229
37 23 30 158 216 229
37 23 31 158 216 229
37 24 30 158 216 229
37 24 31 158 216 229
37 24 32 158 216 229
37 25 30 158 216 229
37 25 31 158 216 229
37 25 32 158 216 229
37 26 30 158 216 229
37 26 31 158 216 229
37 26 32 158 216 229
37 26 33 158 216 229
37 27 31 158 216 229
37 27 32 158 216 229
37 28 31 158 216 229
37 28 32 158 216 229
37 29 31 158 216 229
37 29 32 158 216 229
37 30 31 158 216 229
37 30 32 158 216 229
37 31 31 158 216 229
37 31 32 158 216 229
37 32 31 158 216 229
37 32 32 158 216 229
37 33 31 158 216 229
37 33 32 158 216 229
38 0 43 43 160 4
38 0 44 43 160 4
38 0 45 43 160 4
38 0 46 43 160 4
38 0 47 43 160 4
38 0 48 43 160 4
38 0 49 43 160 4
38 0 50 43 160 4
38 0 51 43 160 4
38 0 52 43 160 4
38 0 53 43 160 4
38 0 54 43 160 4
38 0 55 43 160 4
38 0 56 43 160 4
38 0 57 43 160 4
38 0 58 43 160 4
38 0 59 43 160 4
38 4 32 158 216 229
38 5 30 255 186 119
38 6 28 255 186 119
38 6 29 255 186 119
38 6 30 255 186 119
38 7 25 255 186 119
38 7 26 255 186 119
38 7 27 255 186 119
38 7 28 255 186 119
38 7 29 255 186 119
38 8 23 255 186 119
38 8 24 255 186 119
38 8 25 255 186 119
38 8 26 255 186 119
38 8 27 255 186 119
38 8 28 255 186 119
38 8 29 255 186 119
38 9 22 255 186 119
38 9 23 255 186 119
38 9 24 255 186 119
38 9 25 255 186 119
38 9 26 255 186 119
38 9 27 255 186 119
38 11 16 255 186 119
38 11 17 255 186 119
38 11 18 255 186 119
38 11 19 255 186 119
38 11 20 255 186 119
38 11 21 255 186 119
38 11 22 255 186 119
38 11 23 255 186 119
38 12 15 255 186 119
38 12 16 196 175 214
38 12 17 196 175 214
38 12 18 196 175 214
38 12 19 196 175 214
38 12 22 196 175 214
38 12 23 196 175 214
38 12 24 196 175 214
38 12 25 196 175 214
38 12 26 196 175 214
38 12 27 196 175 214
38 12 28 196 175 214
38 12 29 158 216 229
38 12 30 158 216 229
38 13 25 196 175 214
38 13 26 255 186 119
38 13 27 255 186 119
38 13 28 196 175 214
38 13 29 158 216 229
38 13 30 158 216 229
38 14 29 158 216 229
38 14 30 158 216 229
38 14 31 158 216 229
38 14 32 158 216 229
38 15 29 158 216 229
38 15 30 158 216 229
38 15 31 158 216 229
38 15 32 158 216 229
38 16 30 158 216 229
38 16 31 158 216 229
38 17 30 158 216 229
38 17 31 158 216 229
38 18 30 158 216 229
38 18 31 158 216 229
38 19 30 158 216 229
38 19 31 158 216 229
38 20 30 158 216 229
38 20 31 114 158 206
38 21 30 158 216 229
38 21 31 158 216 229
38 21 32 114 158 206
38 22 31 158 216 229
38 22 32 158 216 229
38 23 31 158 216 229
38 23 32 158 216 229
38 24 31 158 216 229
38 24 32 158 216 229
38 25 31 158 216 229
38 25 32 158 216 229
38 26 31 158 216 229
38 26 32 158 216 229
38 27 31 158 216 229
38 27 32 158 216 229
38 28 31 158 216 229
38 28 32 158 216 229
38 29 31 158 216 229
38 29 32 158 216 229
38 30 31 158 216 229
38 30 32 158 216 229
38 31 31 158 216 229
38 31 32 158 216 229
38 32 32 158 216 229
38 33 32 158 216 229
38 33 33 158 216 229
38 34 33 158 216 229
38 34 34 158 216 229
39 0 42 43 160 4
39 0 43 43 160 4
39 0 44 43 160 4
39 0 45 43 160 4
39 0 46 43 160 4
39 0 47 43 160 4
39 0 48 43 160 4
39 0 49 43 160 4
39 0 50 43 160 4
39 0 51 43 160 4
39 0 52 43 160 4
39 0 53 43 160 4
39 0 54 43 160 4
39 0 55 43 160 4
39 0 56 43 160 4
39 0 57 43 160 4
39 0 58 43 160 4
39 0 59 43 160 4
39 4 32 158 216 229
39 5 30 255 186 119
39 6 28 255 186 119
39 6 29 255 186 119
39 6 30 255 186 119
39 7 25 255 186 119
39 7 26 255 186 119
39 7 27 255 186 119
39 7 28 255 186 119
39 7 29 255 186 119
39 8 23 255 186 119
39 8 24 255 186 119
39 8 25 255 186 119
39 8 26 255 186 119
39 8 27 255 186 119
39 8 28 255 186 119
39 8 29 255 186 119
39 9 22 255 186 119
39 9 23 255 186 119
39 9 24 255 186 119
39 9 25 255 186 119
39 10 21 255 186 119
39 10 22 255 186 119
39 11 17 255 186 119
39 11 18 255 186 119
39 11 19 255 186 119
39 11 20 255 186 119
39 11 21 255 186 119
39 11 22 255 186 119
39 11 23 255 186 119
39 12 17 255 186 119
39 12 18 255 186 119
39 12 19 255 186 119
39 12 20 255 186 119
39 12 22 196 175 214
39 12 23 196 175 214
39 12 24 196 175 214
39 12 25 196 175 214
39 12 26 196 175 214
39 12 27 196 175 214
39 12 28 196 175 214
39 12 29 158 216 229
39 12 30 158 216 229
39 13 29 158 216 229
39 13 30 158 216 229
39 13 31 158 216 229
39 14 30 158 216 229
39 14 31 158 216 229
39 14 32 158 216 229
39 15 29 158 216 229
39 15 30 158 216 229
39 15 31 158 216 229
39 16 30 158 216 229
39 16 31 158 216 229
39 17 30 158 216 229
39 17 31 158 216 229
39 17 32 158 216 229
39 18 31 158 216 229
39 18 32 158 216 229
39 19 31 158 216 229
39 19 32 114 158 206
39 20 30 158 216 229
39 20 31 158 216 229
39 21 30 158 216 229
39 21 31 158 216 229
39 21 32 114 158 206
39 22 31 158 216 229
39 22 32 158 216 229
39 23 31 158 216 229
39 23 32 158 216 229
39 24 31 158 216 229
39 24 32 158 216 229
39 25 31 158 216 229
39 25 32 158 216 229
39 26 31 158 216 229
39 26 32 158 216 229
39 27 32 158 216 229
39 28 31 158 216 229
39 28 32 158 216 229
39 28 33 158 216 229
39 29 31 158 216 229
39 29 32 158 216 229
39 30 32 158 216 229
39 30 33 158 216 229
39 31 32 158 216 229
39 31 33 158 216 229
39 32 32 158 216 229
39 32 33 158 216 229
39 33 32 158 216 229
39 33 33 158 216 229
39 34 33 158 216 229
40 0 41 43 160 4
40 0 42 43 160 4
40 0 43 43 160 4
40 0 44 43 160 4
40 0 45 43 160 4
40 0 46 43 160 4
40 0 47 43 160 4
40 0 48 43 160 4
40 0 49 43 160 4
40 0 50 43 160 4
40 0 51 43 160 4
40 0 52 43 160 4
40 0 53 43 160 4
40 0 54 43 160 4
40 0 55 43 160 4
40 0 56 43 160 4
40 0 57 43 160 4
40 0 58 43 160 4
40 0 59 43 160 4
40 4 32 158 216 229
40 5 30 255 186 119
40 6 28 255 186 119
40 6 29 255 186 119
40 6 30 255 186 119
40 7 25 255 186 119
40 7 26 255 186 119
40 7 27 255 186 119
40 7 28 255 186 119
40 7 29 255 186 119
40 7 30 255 186 119
40 8 24 255 186 119
40 8 25 255 186 119
40 8 26 255 186 119
40 8 27 255 186 119
40 8 28 255 186 119
40 8 29 255 186 119
40 8 30 255 186 119
40 9 24 255 186 119
40 10 22 255 186 119
40 10 23 255 186 119
40 11 19 255 186 119
40 11 20 255 186 119
40 11 21 255 186 119
40 11 22 255 186 119
40 11 23 196 175 214
40 11 24 196 175 214
40 11 27 196 175 214
40 11 28 255 186 119
40 11 29 158 216 229
40 11 30 158 216 229
40 12 18 255 186 119
40 12 23 196 175 214
40 12 24 196 175 214
40 12 25 196 175 214
40 12 26 196 175 214
40 12 27 196 175 214
40 12 28 196 175 214
40 12 29 158 216 229
40 12 30 158 216 229
40 12 31 158 216 229
40 13 30 158 216 229
40 13 31 158 216 229
40 14 30 158 216 229
40 14 31 158 216 229
40 15 30 158 216 229
40 15 31 158 216 229
40 16 30 158 216 229
40 16 31 158 216 229
40 16 32 158 216 229
40 17 31 158 216 229
40 17 32 158 216 229
40 18 31 158 216 229
40 18 32 114 158 206
40 19 31 158 216 229
40 19 32 114 158 206
40 20 31 158 216 229
40 20 32 114 158 206
40 21 30 158 216 229
40 21 31 158 216 229
40 21 32 114 158 206
40 22 31 158 216 229
40 22 32 114 158 206
40 23 31 158 216 229
40 23 32 158 216 229
40 24 31 158 216 229
40 24 32 158 216 229
40 25 31 158 216 229
40 25 32 158 216 229
40 26 31 158 216 229
40 26 32 158 216 229
40 27 32 158 216 229
40 27 33 158 216 229
40 28 32 158 216 229
40 28 33 158 216 229
40 29 32 158 216 229
40 29 33 158 216 229
40 30 32 158 216 229
40 30 33 158 216 229
40 31 32 158 216 229
40 31 33 158 216 229
40 32 32 158 216 229
40 32 33 158 216 229
40 33 32 158 216 229
40 33 33 158 216 229
40 34 33 158 216 229
41 0 41 43 160 4
41 0 42 43 160 4
41 0 43 43 160 4
41 0 44 43 160 4
41 0 45 43 160 4
41 0 46 43 160 4
41 0 47 43 160 4
41 0 48 43 160 4
41 0 49 43 160 4
41 0 50 43 160 4
41 0 51 43 160 4
41 0 52 43 160 4
41 0 53 43 160 4
41 0 54 43 160 4
41 0 55 43 160 4
41 0 56 43 160 4
41 0 57 43 160 4
41 0 58 43 160 4
41 0 59 43 160 4
41 4 32 158 216 229
41 5 30 255 186 119
41 5 31 158 216 229
41 6 28 255 186 119
41 6 29 255 186 119
41 7 25 255 186 119
41 7 26 255 186 119
41 7 27 255 186 119
41 7 28 255 186 119
41 7 29 255 186 119
41 8 23 255 186 119
41 8 24 255 186 119
41 8 25 255 186 119
41 8 26 255 186 119
41 8 27 255 186 119
41 9 21 255 186 119
41 9 22 255 186 119
41 10 23 255 186 119
41 11 20 255 186 119
41 11 23 196 175 214
41 11 24 196 175 214
41 11 25 196 175 214
41 11 26 196 175 214
41 11 27 196 175 214
41 11 28 196 175 214
41 11 29 158 216 229
41 11 30 158 216 229
41 11 31 158 216 229
41 12 29 158 216 229
41 12 30 158 216 229
41 12 31 158 216 229
41 13 30 158 216 229
41 13 31 158 216 229
41 14 30 158 216 229
41 14 31 158 216 229
41 15 30 158 216 229
41 15 31 158 216 229
41 16 30 158 216 229
41 16 31 158 216 229
41 16 32 158 216 229
41 17 31 158 216 229
41 17 32 158 216 229
41 18 31 158 216 229
41 18 32 158 216 229
41 19 31 158 216 229
41 19 32 114 158 206
41 20 31 158 216 229
41 20 32 114 158 206
41 21 31 158 216 229
41 21 32 114 158 206
41 22 31 158 216 229
41 22 32 114 158 206
41 23 32 158 216 229
41 23 33 158 216 229
41 24 32 158 216 229
41 24 33 158 216 229
41 25 31 158 216 229
41 25 32 158 216 229
41 25 33 158 216 229
41 26 31 158 216 229
41 26 32 158 216 229
41 27 32 158 216 229
41 27 33 158 216 229
41 27 34 158 216 229
41 28 32 158 216 229
41 28 33 158 216 229
41 29 32 158 216 229
41 29 33 158 216 229
41 30 32 158 216 229
41 30 33 158 216 229
41 31 33 158 216 229
41 32 32 158 216 229
41 32 33 158 216 229
41 33 32 158 216 229
41 33 33 158 216 229
41 34 33 158 216 229
42 0 41 43 160 4
42 0 42 43 160 4
42 0 43 43 160 4
42 0 44 43 160 4
42 0 45 43 160 4
42 0 46 43 160 4
42 0 47 43 160 4
42 0 48 43 160 4
42 0 49 43 160 4
42 0 50 43 160 4
42 0 51 43 160 4
42 0 52 43 160 4
42 0 53 43 160 4
42 0 54 43 160 4
42 0 55 43 160 4
42 0 56 43 160 4
42 0 57 43 160 4
42 0 58 43 160 4
42 0 59 43 160 4
42 4 32 158 216 229
42 5 30 255 186 119
42 6 28 255 186 119
42 7 25 255 186 119
42 7 26 255 186 119
42 7 27 255 186 119
42 8 23 255 186 119
42 8 24 255 186 119
42 8 26 255 186 119
42 9 22 255 186 119
42 10 22 255 186 119
42 10 23 255 186 119
42 10 26 255 186 119
42 10 30 158 216 229
42 10 31 158 216 229
42 11 29 158 216 229
42 11 30 158 216 229
42 11 31 158 216 229
42 12 30 158 216 229
42 12 31 158 216 229
42 13 31 158 216 229
42 13 32 158 216 229
42 14 31 158 216 229
42 14 32 158 216 229
42 15 31 158 216 229
42 15 32 158 216 229
42 16 31 158 216 229
42 16 32 158 216 229
42 16 33 158 216 229
42 17 31 158 216 229
42 17 32 158 216 229
42 17 33 158 216 229
42 18 31 158 216 229
42 18 32 158 216 229
42 19 31 158 216 229
42 19 32 158 216 229
42 20 31 158 216 229
42 20 32 114 158 206
42 20 33 158 216 229
42 21 31 158 216 229
42 21 32 158 216 229
42 22 31 158 216 229
42 22 32 158 216 229
42 22 33 158 216 229
42 23 32 158 216 229
42 23 33 158 216 229
42 24 32 158 216 229
42 24 33 158 216 229
42 25 32 158 216 229
42 25 33 158 216 229
42 26 32 158 216 229
42 26 33 158 216 229
42 27 32 158 216 229
42 27 33 158 216 229
42 28 32 158 216 229
42 28 33 158 216 229
42 29 32 158 216 229
42 29 33 158 216 229
42 29 34 158 216 229
42 30 32 158 216 229
42 30 33 158 216 229
42 31 33 158 216 229
42 32 33 158 216 229
42 32 34 158 216 229
42 33 33 158 216 229
42 33 34 158 216 229
42 34 33 158 216 229
42 34 34 158 216 229
42 35 35 158 216 229
43 0 41 43 160 4
43 0 42 43 160 4
43 0 43 43 160 4
43 0 44 43 160 4
43 0 45 43 160 4
43 0 46 43 160 4
43 0 47 43 160 4
43 0 48 43 160 4
43 0 49 43 160 4
43 0 50 43 160 4
43 0 51 43 160 4
43 0 52 43 160 4
43 0 53 43 160 4
43 0 54 43 160 4
43 0 55 43 160 4
43 0 56 43 160 4
43 0 57 43 160 4
43 0 58 43 160 4
43 0 59 43 160 4
43 4 32 158 216 229
43 4 33 158 216 229
43 5 31 158 216 229
43 5 32 158 216 229
43 6 28 255 186 119
43 7 26 255 186 119
43 7 27 255 186 119
43 7 28 255 186 119
43 7 31 158 216 229
43 7 32 158 216 229
43 8 24 255 186 119
43 8 25 255 186 119
43 8 26 255 186 119
43 8 32 158 216 229
43 9 26 255 186 119
43 9 27 255 186 119
43 9 28 196 175 214
43 9 31 158 216 229
43 10 29 196 175 214
43 10 30 158 216 229
43 10 31 158 216 229
43 10 32 158 216 229
43 11 30 158 216 229
43 11 31 158 216 229
43 11 32 158 216 229
43 12 30 158 216 229
43 12 31 158 216 229
43 12 32 158 216 229
43 13 31 158 216 229
43 13 32 158 216 229
43 14 31 158 216 229
43 14 32 158 216 229
43 15 31 158 216 229
43 15 32 158 216 229
43 16 31 158 216 229
43 16 32 158 216 229
43 16 34 158 216 229
43 17 31 158 216 229
43 17 32 158 216 229
43 17 34 158 216 229
43 18 31 158 216 229
43 18 32 158 216 229
43 18 34 158 216 229
43 19 31 158 216 229
43 19 32 158 216 229
43 19 34 158 216 229
43 20 32 114 158 206
43 20 33 158 216 229
43 21 32 158 216 229
43 21 33 158 216 229
43 21 34 158 216 229
43 22 31 158 216 229
43 22 32 158 216 229
43 22 33 158 216 229
43 23 32 158 216 229
43 23 33 158 216 229
43 24 32 158 216 229
43 24 33 158 216 229
43 25 32 158 216 229
43 25 33 158 216 229
43 26 32 158 216 229
43 26 33 158 216 229
43 27 32 158 216 229
43 27 33 158 216 229
43 28 32 158 216 229
43 28 33 158 216 229
43 29 32 158 216 229
43 29 33 158 216 229
43 29 34 158 216 229
43 30 32 158 216 229
43 30 33 158 216 229
43 31 33 158 216 229
43 31 34 158 216 229
43 32 33 158 216 229
43 32 34 158 216 229
43 33 33 158 216 229
43 33 34 158 216 229
43 34 33 158 216 229
43 34 34 158 216 229
44 0 41 43 160 4
44 0 42 43 160 4
44 0 43 43 160 4
44 0 44 43 160 4
44 0 45 43 160 4
44 0 46 43 160 4
44 0 47 43 160 4
44 0 48 43 160 4
44 0 49 43 160 4
44 0 50 43 160 4
44 0 51 43 160 4
44 0 52 43 160 4
44 0 53 43 160 4
44 0 54 43 160 4
44 0 55 43 160 4
44 0 56 43 160 4
44 0 57 43 160 4
44 0 58 43 160 4
44 0 59 43 160 4
44 4 32 158 216 229
44 4 33 158 216 229
44 8 27 196 175 214
44 8 28 196 175 214
44 8 29 196 175 214
44 8 30 196 175 214
44 8 31 158 216 229
44 8 33 158 216 229
44 9 25 255 186 119
44 9 26 255 186 119
44 9 27 196 175 214
44 9 28 196 175 214
44 9 29 196 175 214
44 9 30 196 175 214
44 9 31 158 216 229
44 9 32 158 216 229
44 10 24 255 186 119
44 10 25 196 175 214
44 10 28 196 175 214
44 10 29 196 175 214
44 10 31 158 216 229
44 10 32 158 216 229
44 11 31 158 216 229
44 11 32 158 216 229
44 12 31 158 216 229
44 12 32 158 216 229
44 13 31 158 216 229
44 13 32 158 216 229
44 14 31 158 216 229
44 14 32 158 216 229
44 15 31 158 216 229
44 15 32 158 216 229
44 16 31 158 216 229
44 16 32 158 216 229
44 16 33 158 216 229
44 16 34 158 216 229
44 17 32 158 216 229
44 17 33 158 216 229
44 18 32 114 158 206
44 18 33 158 216 229
44 19 31 114 158 206
44 19 32 114 158 206
44 19 33 158 216 229
44 20 31 114 158 206
44 20 32 114 158 206
44 20 34 158 216 229
44 21 32 114 158 206
44 21 33 158 216 229
44 22 32 114 158 206
44 22 33 158 216 229
44 23 32 158 216 229
44 23 33 158 216 229
44 24 32 158 216 229
44 24 33 158 216 229
44 25 33 158 216 229
44 25 34 158 216 229
44 26 32 158 216 229
44 26 33 158 216 229
44 27 32 158 216 229
44 27 33 158 216 229
44 28 32 158 216 229
44 28 33 158 216 229
44 28 35 158 216 229
44 29 33 158 216 229
44 29 34 158 216 229
44 30 33 158 216 229
44 30 34 158 216 229
44 31 33 158 216 229
44 31 34 158 216 229
44 32 33 158 216 229
44 32 34 158 216 229
44 33 33 158 216 229
44 33 34 158 216 229
44 34 33 158 216 229
44 34 34 158 216 229
44 34 35 158 216 229
44 35 35 158 216 229
44 35 36 158 216 229
45 0 41 43 160 4
45 0 42 43 160 4
45 0 43 43 160 4
45 0 44 43 160 4
45 0 45 43 160 4
45 0 46 43 160 4
45 0 47 43 160 4
45 0 48 43 160 4
45 0 49 43 160 4
45 0 50 43 160 4
45 0 51 43 160 4
45 0 52 43 160 4
45 0 53 43 160 4
45 0 54 43 160 4
45 0 55 43 160 4
45 0 56 43 160 4
45 0 57 43 160 4
45 0 58 43 160 4
45 0 59 43 160 4
45 4 32 158 216 229
45 4 33 158 216 229
45 5 32 158 216 229
45 5 33 158 216 229
45 6 28 255 186 119
45 7 27 255 186 119
45 7 31 158 216 229
45 7 33 158 216 229
45 8 27 255 186 119
45 8 28 196 175 214
45 8 29 196 175 214
45 8 30 196 175 214
45 8 31 158 216 229
45 8 32 158 216 229
45 9 27 196 175 214
45 9 28 196 175 214
45 9 29 196 175 214
45 9 30 196 175 214
45 9 31 158 216 229
45 9 32 158 216 229
45 9 33 158 216 229
45 10 26 196 175 214
45 10 27 196 175 214
45 10 28 196 175 214
45 10 29 196 175 214
45 10 30 204 204 91
45 10 31 158 216 229
45 10 32 158 216 229
45 10 33 158 216 229
45 11 26 196 175 214
45 11 27 196 175 214
45 11 28 196 175 214
45 11 29 196 175 214
45 11 31 158 216 229
45 11 32 158 216 229
45 12 31 158 216 229
45 12 32 158 216 229
45 13 31 158 216 229
45 13 32 158 216 229
45 14 31 158 216 229
45 14 32 158 216 229
45 14 34 158 216 229
45 15 31 158 216 229
45 15 32 158 216 229
45 15 33 158 216 229
45 16 32 158 216 229
45 16 33 158 216 229
45 17 32 158 216 229
45 17 33 158 216 229
45 18 32 158 216 229
45 18 33 158 216 229
45 19 31 158 216 229
45 19 32 158 216 229
45 19 33 158 216 229
45 20 31 114 158 206
45 20 32 114 158 206
45 20 33 158 216 229
45 21 32 158 216 229
45 21 33 158 216 229
45 21 34 158 216 229
45 22 32 158 216 229
45 22 33 158 216 229
45 22 34 158 216 229
45 23 33 158 216 229
45 23 34 158 216 229
45 24 33 158 216 229
45 24 34 158 216 229
45 25 33 158 216 229
45 25 34 158 216 229
45 26 32 158 216 229
45 26 33 158 216 229
45 26 34 158 216 229
45 27 33 158 216 229
45 27 34 158 216 229
45 28 33 158 216 229
45 28 34 158 216 229
45 29 33 158 216 229
45 29 34 158 216 229
45 30 33 158 216 229
45 30 34 158 216 229
45 31 33 158 216 229
45 31 34 158 216 229
45 32 34 158 216 229
45 32 35 158 216 229
45 33 33 158 216 229
45 33 34 158 216 229
45 34 33 158 216 229
45 34 34 158 216 229
45 34 35 158 216 229
45 34 36 158 216 229
45 35 35 158 216 229
46 0 41 43 160 4
46 0 42 43 160 4
46 0 43 43 160 4
46 0 44 43 160 4
46 0 45 43 160 4
46 0 46 43 160 4
46 0 47 43 160 4
46 0 48 43 160 4
46 0 49 43 160 4
46 0 50 43 160 4
46 0 51 43 160 4
46 0 52 43 160 4
46 0 53 43 160 4
46 0 54 43 160 4
46 0 55 43 160 4
46 0 56 43 160 4
46 0 57 43 160 4
46 0 58 43 160 4
46 0 59 43 160 4
46 4 32 158 216 229
46 4 33 158 216 229
46 7 31 158 216 229
46 8 30 196 175 214
46 8 31 158 216 229
46 8 32 158 216 229
46 9 28 196 175 214
46 9 31 158 216 229
46 9 32 158 216 229
46 9 33 158 216 229
46 10 27 196 175 214
46 10 28 196 175 214
46 10 29 196 175 214
46 10 30 158 216 229
46 10 31 158 216 229
46 10 32 158 216 229
46 10 33 158 216 229
46 11 27 196 175 214
46 11 28 196 175 214
46 11 29 196 175 214
46 11 30 158 216 229
46 11 31 158 216 229
46 11 32 158 216 229
46 11 33 158 216 229
46 12 31 158 216 229
46 12 32 158 216 229
46 12 34 158 216 229
46 13 31 158 216 229
46 13 32 158 216 229
46 13 34 158 216 229
46 14 32 158 216 229
46 14 33 158 216 229
46 15 32 158 216 229
46 15 33 158 216 229
46 16 32 158 216 229
46 16 33 158 216 229
46 17 32 158 216 229
46 17 33 158 216 229
46 18 32 158 216 229
46 18 33 158 216 229
46 19 32 158 216 229
46 19 33 158 216 229
46 19 34 158 216 229
46 20 32 158 216 229
46 20 33 158 216 229
46 20 34 158 216 229
46 21 32 158 216 229
46 21 33 158 216 229
46 21 34 158 216 229
46 22 32 158 216 229
46 22 33 158 216 229
46 22 34 158 216 229
46 23 33 158 216 229
46 23 34 158 216 229
46 24 33 158 216 229
46 24 34 158 216 229
46 25 33 158 216 229
46 25 34 158 216 229
46 26 33 158 216 229
46 26 34 158 216 229
46 27 33 158 216 229
46 27 34 158 216 229
46 28 33 158 216 229
46 28 34 158 216 229
46 29 33 158 216 229
46 29 34 158 216 229
46 30 34 158 216 229
46 30 35 158 216 229
46 31 34 158 216 229
46 31 35 158 216 229
46 32 34 158 216 229
46 32 35 158 216 229
46 33 34 158 216 229
46 33 35 158 216 229
46 34 33 158 216 229
46 34 34 158 216 229
46 34 35 158 216 229
46 35 35 158 216 229
47 0 41 43 160 4
47 0 42 43 160 4
47 0 43 43 160 4
47 0 44 43 160 4
47 0 45 43 160 4
47 0 46 43 160 4
47 0 47 43 160 4
47 0 48 43 160 4
47 0 49 43 160 4
47 0 50 43 160 4
47 0 51 43 160 4
47 0 52 43 160 4
47 0 53 43 160 4
47 0 54 43 160 4
47 0 55 43 160 4
47 0 56 43 160 4
47 0 57 43 160 4
47 0 58 43 160 4
47 0 59 43 160 4
47 4 32 158 216 229
47 4 33 158 216 229
47 5 32 158 216 229
47 5 33 158 216 229
47 7 33 158 216 229
47 9 32 158 216 229
47 10 29 204 204 91
47 10 30 158 216 229
47 10 31 158 216 229
47 10 32 158 216 229
47 10 33 158 216 229
47 11 29 196 175 214
47 11 30 158 216 229
47 11 31 158 216 229
47 11 32 158 216 229
47 11 33 158 216 229
47 12 31 158 216 229
47 12 32 158 216 229
47 12 34 158 216 229
47 13 32 158 216 229
47 13 33 158 216 229
47 14 32 158 216 229
47 14 33 158 216 229
47 15 32 158 216 229
47 15 33 158 216 229
47 16 32 158 216 229
47 16 33 158 216 229
47 17 32 158 216 229
47 17 33 158 216 229
47 18 32 158 216 229
47 18 33 158 216 229
47 18 34 158 216 229
47 19 33 158 216 229
47 19 34 158 216 229
47 20 33 158 216 229
47 20 34 158 216 229
47 21 33 158 216 229
47 21 34 158 216 229
47 22 33 158 216 229
47 22 34 158 216 229
47 23 33 158 216 229
47 23 34 158 216 229
47 24 33 158 216 229
47 24 34 158 216 229
47 25 33 158 216 229
47 25 34 158 216 229
47 26 33 158 216 229
47 26 34 158 216 229
47 27 33 158 216 229
47 27 34 158 216 229
47 28 34 158 216 229
47 28 35 158 216 229
47 29 34 158 216 229
47 29 35 158 216 229
47 30 34 158 216 229
47 30 35 158 216 229
47 30 36 158 216 229
47 31 34 158 216 229
47 31 35 158 216 229
47 32 34 158 216 229
47 32 35 158 216 229
47 33 34 158 216 229
47 33 35 158 216 229
47 34 34 158 216 229
47 34 35 158 216 229
47 35 35 158 216 229
48 0 42 43 160 4
48 0 43 43 160 4
48 0 44 43 160 4
48 0 45 43 160 4
48 0 46 43 160 4
48 0 47 43 160 4
48 0 48 43 160 4
48 0 49 43 160 4
48 0 50 43 160 4
48 0 51 43 160 4
48 0 52 43 160 4
48 0 53 43 160 4
48 0 54 43 160 4
48 0 55 43 160 4
48 0 56 43 160 4
48 0 57 43 160 4
48 0 58 43 160 4
48 0 59 43 160 4
48 4 33 158 216 229
48 5 33 158 216 229
48 7 32 158 216 229
48 10 31 158 216 229
48 10 32 158 216 229
48 10 33 158 216 229
48 10 34 158 216 229
48 11 30 158 216 229
48 11 32 158 216 229
48 11 33 158 216 229
48 12 32 158 216 229
48 12 33 158 216 229
48 13 32 158 216 229
48 13 33 158 216 229
48 14 32 158 216 229
48 14 33 158 216 229
48 14 34 158 216 229
48 14 35 158 216 229
48 15 32 158 216 229
48 15 33 158 216 229
48 15 35 158 216 229
48 16 32 158 216 229
48 16 33 158 216 229
48 16 35 158 216 229
48 17 32 158 216 229
48 17 33 158 216 229
48 17 34 158 216 229
48 18 33 158 216 229
48 18 34 158 216 229
48 19 33 158 216 229
48 19 34 158 216 229
48 20 34 158 216 229
48 20 35 158 216 229
48 21 33 158 216 229
48 21 34 158 216 229
48 21 35 158 216 229
48 22 33 158 216 229
48 22 34 158 216 229
48 23 33 158 216 229
48 23 34 158 216 229
48 23 35 158 216 229
48 24 34 158 216 229
48 24 35 158 216 229
48 25 33 158 216 229
48 25 34 158 216 229
48 25 36 158 216 229
48 26 33 158 216 229
48 26 34 158 216 229
48 26 35 158 216 229
48 26 36 158 216 229
48 27 34 158 216 229
48 27 35 158 216 229
48 28 34 158 216 229
48 28 35 158 216 229
48 29 34 158 216 229
48 29 35 158 216 229
48 30 34 158 216 229
48 30 35 158 216 229
48 31 34 158 216 229
48 31 35 158 216 229
48 32 34 158 216 229
48 32 35 158 216 229
48 33 35 158 216 229
48 34 35 158 216 229
48 34 36 158 216 229
48 35 35 158 216 229
49 0 41 43 160 4
49 0 42 43 160 4
49 0 43 43 160 4
49 0 44 43 160 4
49 0 45 43 160 4
49 0 46 43 160 4
49 0 47 43 160 4
49 0 48 43 160 4
49 0 49 43 160 4
49 0 50 43 160 4
49 0 51 43 160 4
49 0 52 43 160 4
49 0 53 43 160 4
49 0 54 43 160 4
49 0 55 43 160 4
49 0 56 43 160 4
49 0 57 43 160 4
49 0 58 43 160 4
49 0 59 43 160 4
49 4 34 158 216 229
49 5 34 158 216 229
49 7 33 158 216 229
49 8 33 158 216 229
49 9 32 158 216 229
49 10 32 158 216 229
49 10 33 158 216 229
49 11 32 158 216 229
49 11 33 158 216 229
49 12 32 158 216 229
49 12 33 158 216 229
49 13 32 158 216 229
49 13 33 158 216 229
49 14 32 158 216 229
49 14 33 158 216 229
49 14 34 158 216 229
49 15 32 158 216 229
49 15 33 158 216 229
49 15 34 158 216 229
49 16 32 158 216 229
49 16 33 158 216 229
49 16 34 158 216 229
49 17 33 158 216 229
49 17 34 158 216 229
49 18 33 158 216 229
49 18 34 158 216 229
49 19 33 158 216 229
49 19 34 158 216 229
49 20 34 158 216 229
49 20 35 158 216 229
49 21 34 158 216 229
49 21 35 158 216 229
49 22 33 158 216 229
49 22 34 158 216 229
49 22 35 158 216 229
49 23 34 158 216 229
49 23 35 158 216 229
49 24 34 158 216 229
49 24 35 158 216 229
49 25 34 158 216 229
49 25 35 158 216 229
49 26 33 158 216 229
49 26 34 158 216 229
49 26 35 158 216 229
49 27 34 158 216 229
49 27 35 158 216 229
49 28 34 158 216 229
49 28 35 158 216 229
49 29 34 158 216 229
49 29 35 158 216 229
49 30 34 158 216 229
49 30 35 158 216 229
49 31 34 158 216 229
49 31 35 158 216 229
49 32 35 158 216 229
49 32 36 158 216 229
49 33 35 158 216 229
49 33 36 158 216 229
49 34 35 158 216 229
49 34 36 158 216 229
49 35 35 158 216 229
50 0 41 43 160 4
50 0 42 43 160 4
50 0 43 43 160 4
50 0 44 43 160 4
50 0 45 43 160 4
50 0 46 43 160 4
50 0 47 43 160 4
50 0 48 43 160 4
50 0 49 43 160 4
50 0 50 43 160 4
50 0 51 43 160 4
50 0 52 43 160 4
50 0 53 43 160 4
50 0 54 43 160 4
50 0 55 43 160 4
50 0 56 43 160 4
50 0 57 43 160 4
50 0 58 43 160 4
50 0 59 43 160 4
50 6 35 158 216 229
50 8 34 158 216 229
50 12 34 158 216 229
50 12 35 158 216 229
50 13 34 158 216 229
50 13 35 158 216 229
50 14 34 158 216 229
50 15 34 158 216 229
50 15 35 158 216 229
50 16 34 158 216 229
50 16 35 158 216 229
50 17 34 158 216 229
50 18 34 158 216 229
50 19 34 158 216 229
50 19 35 158 216 229
50 20 34 158 216 229
50 20 35 158 216 229
50 21 34 158 216 229
50 21 35 158 216 229
50 21 36 158 216 229
50 22 34 158 216 229
50 22 35 158 216 229
50 23 34 158 216 229
50 23 35 158 216 229
50 24 34 158 216 229
50 24 35 158 216 229
50 25 34 158 216 229
50 25 35 158 216 229
50 26 34 158 216 229
50 26 35 158 216 229
50 27 34 158 216 229
50 27 35 158 216 229
50 28 34 158 216 229
50 28 35 158 216 229
50 29 34 158 216 229
50 29 35 158 216 229
50 30 34 158 216 229
50 30 35 158 216 229
50 31 34 158 216 229
50 31 35 158 216 229
50 31 36 158 216 229
50 32 35 158 216 229
50 32 36 158 216 229
50 33 35 158 216 229
50 33 36 158 216 229
50 34 35 158 216 229
50 34 36 158 216 229
50 35 35 158 216 229
50 35 36 158 216 229
51 0 41 43 160 4
51 0 42 43 160 4
51 0 43 43 160 4
51 0 44 43 160 4
51 0 45 43 160 4
51 0 46 43 160 4
51 0 47 43 160 4
51 0 48 43 160 4
51 0 49 43 160 4
51 0 50 43 160 4
51 0 51 43 160 4
51 0 52 43 160 4
51 0 53 43 160 4
51 0 54 43 160 4
51 0 55 43 160 4
51 0 56 43 160 4
51 0 57 43 160 4
51 0 58 43 160 4
51 0 59 43 160 4
51 14 35 158 216 229
51 15 35 158 216 229
51 16 35 158 216 229
51 17 35 158 216 229
51 18 35 158 216 229
51 19 35 158 216 229
51 20 35 158 216 229
51 21 35 158 216 229
51 21 36 158 216 229
51 22 35 158 216 229
51 23 35 158 216 229
51 24 35 158 216 229
51 25 35 158 216 229
51 26 35 158 216 229
51 27 35 158 216 229
51 28 35 158 216 229
51 28 36 158 216 229
51 29 35 158 216 229
51 29 36 158 216 229
51 30 35 158 216 229
51 30 36 158 216 229
51 31 35 158 216 229
51 31 36 158 216 229
51 32 35 158 216 229
51 32 36 158 216 229
51 33 35 158 216 229
51 33 36 158 216 229
51 34 35 158 216 229
51 34 36 158 216 229
51 35 35 158 216 229
51 35 36 158 216 229
52 0 41 43 160 4
52 0 42 43 160 4
52 0 43 43 160 4
52 0 44 43 160 4
52 0 45 43 160 4
52 0 46 43 160 4
52 0 47 43 160 4
52 0 48 43 160 4
52 0 49 43 160 4
52 0 50 43 160 4
52 0 51 43 160 4
52 0 52 43 160 4
52 0 53 43 160 4
52 0 54 43 160 4
52 0 55 43 160 4
52 0 56 43 160 4
52 0 57 43 160 4
52 0 58 43 160 4
52 0 59 43 160 4
52 33 37 158 216 229
52 33 38 158 216 229
52 34 37 158 216 229
52 35 37 158 216 229
53 0 42 43 160 4
53 0 43 43 160 4
53 0 44 43 160 4
53 0 45 43 160 4
53 0 46 43 160 4
53 0 47 43 160 4
53 0 48 43 160 4
53 0 49 43 160 4
53 0 50 43 160 4
53 0 51 43 160 4
53 0 52 43 160 4
53 0 53 43 160 4
53 0 54 43 160 4
53 0 55 43 160 4
53 0 56 43 160 4
53 0 57 43 160 4
53 0 58 43 160 4
53 0 59 43 160 4
54 0 43 43 160 4
54 0 44 43 160 4
54 0 45 43 160 4
54 0 46 43 160 4
54 0 47 43 160 4
54 0 48 43 160 4
54 0 49 43 160 4
54 0 50 43 160 4
54 0 51 43 160 4
54 0 52 43 160 4
54 0 53 43 160 4
54 0 54 43 160 4
54 0 55 43 160 4
54 0 56 43 160 4
54 0 57 43 160 4
54 0 58 43 160 4
54 0 59 43 160 4
55 0 45 43 160 4
55 0 46 43 160 4
55 0 47 43 160 4
55 0 48 43 160 4
55 0 49 43 160 4
55 0 50 43 160 4
55 0 51 43 160 4
55 0 52 43 160 4
55 0 53 43 160 4
55 0 54 43 160 4
55 0 55 43 160 4
55 0 56 43 160 4
55 0 57 43 160 4
55 0 58 43 160 4
55 0 59 43 160 4
56 0 46 43 160 4
56 0 47 43 160 4
56 0 48 43 160 4
56 0 49 43 160 4
56 0 50 43 160 4
56 0 51 43 160 4
56 0 52 43 160 4
56 0 53 43 160 4
56 0 54 43 160 4
56 0 57 43 160 4
56 0 58 43 160 4
56 0 59 43 160 4
57 0 48 43 160 4
57 0 49 43 160 4
57 0 50 43 160 4
57 0 52 43 160 4
57 0 53 43 160 4
57 0 55 43 160 4
57 0 56 43 160 4
57 0 59 43 160 4
58 0 50 43 160 4
58 0 51 43 160 4
58 0 52 43 160 4
58 0 53 43 160 4
58 0 54 43 160 4
58 0 55 43 160 4
58 0 56 43 160 4
58 0 57 43 160 4
58 0 58 43 160 4
59 0 51 43 160 4
59 0 52 43 160 4
59 0 53 43 160 4
59 0 54 43 160 4
59 0 55 43 160 4
59 0 56 43 160 4
59 0 57 43 160 4
59 0 58 43 160 4
59 0 59 43 160 4
