ply
format ascii 1.0
element vertex 2267
property float x
property float y
property float z
property uchar red
property uchar green
property uchar blue
end_header
11 6 29 255 127 12
11 6 30 158 216 229
11 7 29 196 175 214
11 7 30 158 216 229
11 8 29 196 175 214
11 8 30 158 216 229
11 9 29 196 175 214
11 9 30 158 216 229
11 10 29 196 175 214
11 10 30 158 216 229
11 11 29 196 175 214
11 11 30 158 216 229
11 12 30 158 216 229
11 13 30 158 216 229
11 14 30 158 216 229
11 15 30 158 216 229
11 16 30 158 216 229
11 17 30 158 216 229
11 18 30 158 216 229
11 19 30 158 216 229
11 20 30 158 216 229
11 21 30 158 216 229
11 22 30 158 216 229
11 23 30 158 216 229
11 24 30 158 216 229
11 25 30 158 216 229
11 26 30 158 216 229
11 27 30 158 216 229
11 28 30 158 216 229
11 29 30 158 216 229
11 30 30 158 216 229
11 31 30 158 216 229
11 32 30 158 216 229
12 6 28 255 127 12
12 6 29 255 127 12
12 6 30 158 216 229
12 7 28 196 175 214
12 7 29 196 175 214
12 7 30 158 216 229
12 8 28 196 175 214
12 8 29 196 175 214
12 8 30 158 216 229
12 9 30 158 216 229
12 10 30 158 216 229
12 11 30 158 216 229
12 12 30 158 216 229
12 13 30 158 216 229
12 14 30 158 216 229
12 15 30 158 216 229
12 16 30 158 216 229
12 17 30 158 216 229
12 18 30 158 216 229
12 19 30 158 216 229
12 20 30 158 216 229
12 21 30 158 216 229
12 22 30 158 216 229
12 23 30 158 216 229
12 24 30 158 216 229
12 25 30 158 216 229
12 26 30 158 216 229
12 27 28 196 175 214
12 27 29 196 175 214
12 27 30 158 216 229
12 28 28 196 175 214
12 28 29 196 175 214
12 28 30 158 216 229
12 29 28 196 175 214
12 29 29 196 175 214
12 29 30 158 216 229
12 30 28 196 175 214
12 30 29 196 175 214
12 30 30 158 216 229
12 31 28 196 175 214
12 31 29 196 175 214
12 31 30 158 216 229
12 32 28 214 38 40
12 32 29 214 38 40
12 32 30 158 216 229
13 6 28 255 127 12
13 6 29 255 127 12
13 6 30 158 216 229
13 7 27 196 175 214
13 7 28 196 175 214
13 7 29 196 175 214
13 7 30 158 216 229
13 8 27 196 175 214
13 8 28 196 175 214
13 8 29 196 175 214
13 8 30 158 216 229
13 9 30 158 216 229
13 10 30 158 216 229
13 11 30 158 216 229
13 12 30 158 216 229
13 13 30 158 216 229
13 14 30 158 216 229
13 15 30 158 216 229
13 16 30 158 216 229
13 17 30 158 216 229
13 18 30 158 216 229
13 19 30 158 216 229
13 20 30 158 216 229
13 21 30 158 216 229
13 22 30 158 216 229
13 23 30 158 216 229
13 24 30 158 216 229
13 25 30 158 216 229
13 26 30 158 216 229
13 27 27 196 175 214
13 27 28 196 175 214
13 27 29 196 175 214
13 27 30 158 216 229
13 28 27 196 175 214
13 28 28 196 175 214
13 28 29 196 175 214
13 28 30 158 216 229
13 29 27 196 175 214
13 29 28 196 175 214
13 29 29 196 175 214
13 29 30 158 216 229
13 30 27 196 175 214
13 30 28 196 175 214
13 30 29 196 175 214
13 30 30 158 216 229
13 31 27 196 175 214
13 31 28 196 175 214
13 31 29 196 175 214
13 31 30 158 216 229
13 32 27 214 38 40
13 32 28 214 38 40
13 32 29 214 38 40
13 32 30 158 216 229
14 6 28 255 186 119
14 6 29 255 186 119
14 6 30 158 216 229
14 7 25 255 186 119
14 7 26 255 186 119
14 7 27 255 186 119
14 7 28 255 186 119
14 7 29 255 186 119
14 7 30 158 216 229
14 8 29 255 186 119
14 8 30 158 216 229
14 9 29 255 186 119
14 9 30 158 216 229
14 10 29 255 186 119
14 10 30 158 216 229
14 11 29 255 186 119
14 11 30 158 216 229
14 12 29 255 186 119
14 12 30 158 216 229
14 13 29 255 186 119
14 13 30 158 216 229
14 14 30 158 216 229
14 15 30 158 216 229
14 16 30 158 216 229
14 17 30 158 216 229
14 18 30 158 216 229
14 19 30 158 216 229
14 20 30 158 216 229
14 21 30 158 216 229
14 22 30 158 216 229
14 23 30 158 216 229
14 24 30 158 216 229
14 25 30 158 216 229
14 26 30 158 216 229
14 27 27 196 175 214
14 27 28 196 175 214
14 27 29 196 175 214
14 27 30 158 216 229
14 28 27 196 175 214
14 28 28 196 175 214
14 28 29 196 175 214
14 28 30 158 216 229
14 29 27 196 175 214
14 29 28 196 175 214
14 29 29 196 175 214
14 29 30 158 216 229
14 30 27 196 175 214
14 30 28 196 175 214
14 30 29 196 175 214
14 30 30 158 216 229
14 31 27 196 175 214
14 31 28 196 175 214
14 31 29 196 175 214
14 31 30 158 216 229
14 32 28 214 38 40
14 32 29 214 38 40
14 32 30 158 216 229
15 6 28 255 186 119
15 6 29 255 186 119
15 6 30 255 186 119
15 7 25 255 186 119
15 7 26 255 186 119
15 7 27 255 186 119
15 7 28 255 186 119
15 7 29 255 186 119
15 7 30 255 186 119
15 8 29 255 186 119
15 8 30 255 186 119
15 9 29 255 186 119
15 9 30 255 186 119
15 10 29 255 186 119
15 10 30 255 186 119
15 11 29 255 186 119
15 11 30 255 186 119
15 12 29 255 186 119
15 12 30 255 186 119
15 13 29 255 186 119
15 13 30 158 216 229
15 14 30 158 216 229
15 15 30 158 216 229
15 16 30 158 216 229
15 17 30 158 216 229
15 18 30 158 216 229
15 19 30 158 216 229
15 20 30 158 216 229
15 21 30 158 216 229
15 22 30 158 216 229
15 23 30 158 216 229
15 24 30 158 216 229
15 25 30 158 216 229
15 26 30 158 216 229
15 27 28 196 175 214
15 27 29 196 175 214
15 27 30 158 216 229
15 28 28 196 175 214
15 28 29 196 175 214
15 28 30 158 216 229
15 29 28 196 175 214
15 29 29 196 175 214
15 29 30 158 216 229
15 30 28 196 175 214
15 30 29 196 175 214
15 30 30 158 216 229
15 31 28 196 175 214
15 31 29 196 175 214
15 31 30 158 216 229
15 32 28 214 38 40
15 32 29 214 38 40
15 32 30 158 216 229
16 5 30 255 186 119
16 6 28 255 186 119
16 6 29 255 186 119
16 6 30 255 186 119
16 7 25 255 186 119
16 7 26 255 186 119
16 7 27 255 186 119
16 7 28 255 186 119
16 7 29 255 186 119
16 7 30 255 186 119
16 8 23 196 175 214
16 8 24 196 175 214
16 8 25 196 175 214
16 8 26 196 175 214
16 8 27 196 175 214
16 8 28 196 175 214
16 8 29 255 186 119
16 8 30 255 186 119
16 9 23 196 175 214
16 9 24 196 175 214
16 9 25 196 175 214
16 9 26 196 175 214
16 9 27 196 175 214
16 9 28 196 175 214
16 9 29 255 186 119
16 9 30 255 186 119
16 10 29 255 186 119
16 10 30 255 186 119
16 11 29 255 186 119
16 11 30 255 186 119
16 12 29 255 186 119
16 12 30 255 186 119
16 13 29 255 186 119
16 13 30 158 216 229
16 14 30 158 216 229
16 15 30 158 216 229
16 16 30 158 216 229
16 17 30 158 216 229
16 18 30 158 216 229
16 19 30 158 216 229
16 20 30 158 216 229
16 21 30 158 216 229
16 22 30 158 216 229
16 23 30 158 216 229
16 24 30 158 216 229
16 25 30 158 216 229
16 26 30 158 216 229
16 27 28 196 175 214
16 27 29 196 175 214
16 27 30 158 216 229
16 28 28 196 175 214
16 28 29 196 175 214
16 28 30 158 216 229
16 29 28 196 175 214
16 29 29 196 175 214
16 29 30 158 216 229
16 30 28 196 175 214
16 30 29 196 175 214
16 30 30 158 216 229
16 31 28 196 175 214
16 31 29 196 175 214
16 31 30 158 216 229
16 32 28 214 38 40
16 32 29 214 38 40
16 32 30 158 216 229
17 5 30 255 186 119
17 6 27 255 186 119
17 6 28 255 186 119
17 6 29 255 186 119
17 6 30 255 186 119
17 7 24 255 186 119
17 7 25 255 186 119
17 7 26 255 186 119
17 7 27 255 186 119
17 7 28 255 186 119
17 7 29 255 186 119
17 7 30 255 186 119
17 8 23 196 175 214
17 8 24 196 175 214
17 8 25 196 175 214
17 8 26 196 175 214
17 8 27 196 175 214
17 8 28 196 175 214
17 8 29 255 186 119
17 8 30 255 186 119
17 9 23 196 175 214
17 9 24 196 175 214
17 9 25 196 175 214
17 9 26 196 175 214
17 9 27 196 175 214
17 9 28 196 175 214
17 9 29 255 186 119
17 9 30 255 186 119
17 10 29 255 186 119
17 10 30 255 186 119
17 11 29 255 186 119
17 11 30 255 186 119
17 12 29 255 186 119
17 12 30 255 186 119
17 13 29 255 186 119
17 13 30 158 216 229
17 14 30 158 216 229
17 15 30 158 216 229
17 16 30 158 216 229
17 17 30 158 216 229
17 18 30 158 216 229
17 19 30 158 216 229
17 20 30 158 216 229
17 21 30 158 216 229
17 22 30 158 216 229
17 23 30 158 216 229
17 24 30 158 216 229
17 25 30 158 216 229
17 26 30 158 216 229
17 27 28 196 175 214
17 27 29 196 175 214
17 27 30 158 216 229
17 28 28 196 175 214
17 28 29 196 175 214
17 28 30 158 216 229
17 29 28 196 175 214
17 29 29 196 175 214
17 29 30 158 216 229
17 30 28 196 175 214
17 30 29 196 175 214
17 30 30 158 216 229
17 31 28 196 175 214
17 31 29 196 175 214
17 31 30 158 216 229
17 32 28 214 38 40
17 32 29 214 38 40
17 32 30 158 216 229
18 5 30 255 186 119
18 6 27 255 186 119
18 6 28 255 186 119
18 6 29 255 186 119
18 6 30 255 186 119
18 7 24 255 186 119
18 7 25 255 186 119
18 7 26 255 186 119
18 7 27 255 186 119
18 7 28 255 186 119
18 7 29 255 186 119
18 7 30 255 186 119
18 8 23 196 175 214
18 8 24 196 175 214
18 8 25 196 175 214
18 8 26 196 175 214
18 8 27 196 175 214
18 8 28 196 175 214
18 8 29 255 186 119
18 8 30 255 186 119
18 9 23 196 175 214
18 9 24 196 175 214
18 9 25 196 175 214
18 9 26 196 175 214
18 9 27 196 175 214
18 9 28 196 175 214
18 9 29 255 186 119
18 9 30 255 186 119
18 10 29 255 186 119
18 10 30 255 186 119
18 11 29 255 186 119
18 11 30 255 186 119
18 12 29 255 186 119
18 12 30 255 186 119
18 13 29 255 186 119
18 13 30 158 216 229
18 14 30 158 216 229
18 15 30 158 216 229
18 16 30 158 216 229
18 17 30 158 216 229
18 18 30 158 216 229
18 19 30 158 216 229
18 20 30 158 216 229
18 21 30 158 216 229
18 22 30 158 216 229
18 23 30 158 216 229
18 24 30 158 216 229
18 25 30 158 216 229
18 26 30 158 216 229
18 27 28 196 175 214
18 27 29 196 175 214
18 27 30 158 216 229
18 28 28 196 175 214
18 28 29 196 175 214
18 28 30 158 216 229
18 29 28 196 175 214
18 29 29 196 175 214
18 29 30 158 216 229
18 30 28 196 175 214
18 30 29 196 175 214
18 30 30 158 216 229
18 31 28 196 175 214
18 31 29 196 175 214
18 31 30 158 216 229
18 32 28 214 38 40
18 32 29 214 38 40
18 32 30 158 216 229
19 5 30 255 186 119
19 6 27 255 186 119
19 6 28 255 186 119
19 6 29 255 186 119
19 6 30 255 186 119
19 7 24 255 186 119
19 7 25 255 186 119
19 7 26 255 186 119
19 7 27 255 186 119
19 7 28 255 186 119
19 7 29 255 186 119
19 7 30 255 186 119
19 8 23 196 175 214
19 8 24 196 175 214
19 8 25 196 175 214
19 8 26 196 175 214
19 8 27 196 175 214
19 8 28 196 175 214
19 8 29 255 186 119
19 8 30 255 186 119
19 9 23 196 175 214
19 9 24 196 175 214
19 9 25 196 175 214
19 9 26 196 175 214
19 9 27 196 175 214
19 9 28 196 175 214
19 9 29 255 186 119
19 9 30 255 186 119
19 10 29 255 186 119
19 10 30 255 186 119
19 11 29 255 186 119
19 11 30 255 186 119
19 12 29 255 186 119
19 12 30 255 186 119
19 13 29 255 186 119
19 13 30 158 216 229
19 14 30 158 216 229
19 15 30 158 216 229
19 16 30 158 216 229
19 17 30 158 216 229
19 18 30 158 216 229
19 19 30 158 216 229
19 20 30 158 216 229
19 21 30 158 216 229
19 22 30 158 216 229
19 23 30 158 216 229
19 24 30 158 216 229
19 25 30 158 216 229
19 26 30 158 216 229
19 27 28 196 175 214
19 27 29 196 175 214
19 27 30 158 216 229
19 28 28 196 175 214
19 28 29 196 175 214
19 28 30 158 216 229
19 29 28 196 175 214
19 29 29 196 175 214
19 29 30 158 216 229
19 30 28 196 175 214
19 30 29 196 175 214
19 30 30 158 216 229
19 31 28 196 175 214
19 31 29 196 175 214
19 31 30 158 216 229
19 32 28 214 38 40
19 32 29 214 38 40
19 32 30 158 216 229
20 5 30 255 186 119
20 6 27 255 186 119
20 6 28 255 186 119
20 6 29 255 186 119
20 6 30 255 186 119
20 7 24 255 186 119
20 7 25 255 186 119
20 7 26 255 186 119
20 7 27 255 186 119
20 7 28 255 186 119
20 7 29 255 186 119
20 7 30 255 186 119
20 8 23 196 175 214
20 8 24 196 175 214
20 8 25 196 175 214
20 8 26 196 175 214
20 8 27 196 175 214
20 8 28 196 175 214
20 8 29 255 186 119
20 8 30 255 186 119
20 9 23 196 175 214
20 9 24 196 175 214
20 9 25 196 175 214
20 9 26 196 175 214
20 9 27 196 175 214
20 9 28 196 175 214
20 9 29 255 186 119
20 9 30 255 186 119
20 10 29 255 186 119
20 10 30 255 186 119
20 11 29 255 186 119
20 11 30 255 186 119
20 12 29 255 186 119
20 12 30 255 186 119
20 13 29 255 186 119
20 13 30 158 216 229
20 14 30 158 216 229
20 15 30 158 216 229
20 16 30 158 216 229
20 17 30 158 216 229
20 18 30 158 216 229
20 19 30 158 216 229
20 20 30 158 216 229
20 21 30 158 216 229
20 22 30 158 216 229
20 23 30 158 216 229
20 24 30 158 216 229
20 25 30 158 216 229
20 26 30 158 216 229
20 27 30 158 216 229
20 28 30 158 216 229
20 29 30 158 216 229
20 30 30 158 216 229
20 31 30 158 216 229
20 32 28 214 38 40
20 32 29 214 38 40
20 32 30 158 216 229
21 5 30 255 186 119
21 6 27 255 186 119
21 6 28 255 186 119
21 6 29 255 186 119
21 6 30 255 186 119
21 7 24 255 186 119
21 7 25 255 186 119
21 7 26 255 186 119
21 7 27 255 186 119
21 7 28 255 186 119
21 7 29 255 186 119
21 7 30 255 186 119
21 8 23 196 175 214
21 8 24 196 175 214
21 8 25 196 175 214
21 8 26 196 175 214
21 8 27 196 175 214
21 8 28 196 175 214
21 8 29 255 186 119
21 8 30 255 186 119
21 9 23 196 175 214
21 9 24 196 175 214
21 9 25 196 175 214
21 9 26 196 175 214
21 9 27 196 175 214
21 9 28 196 175 214
21 9 29 255 186 119
21 9 30 255 186 119
21 10 29 255 186 119
21 10 30 255 186 119
21 11 29 255 186 119
21 11 30 255 186 119
21 12 29 255 186 119
21 12 30 255 186 119
21 13 29 255 186 119
21 13 30 158 216 229
21 14 30 158 216 229
21 15 30 158 216 229
21 16 30 158 216 229
21 17 30 158 216 229
21 18 30 158 216 229
21 19 30 158 216 229
21 20 30 158 216 229
21 21 30 158 216 229
21 22 30 158 216 229
21 23 30 158 216 229
21 24 30 158 216 229
21 25 30 158 216 229
21 26 30 158 216 229
21 27 30 158 216 229
21 28 30 158 216 229
21 29 30 158 216 229
21 30 30 158 216 229
21 31 30 158 216 229
21 32 28 214 38 40
21 32 29 214 38 40
21 32 30 214 38 40
22 5 29 255 186 119
22 5 30 255 186 119
22 6 26 255 186 119
22 6 27 255 186 119
22 6 28 255 186 119
22 6 29 255 186 119
22 6 30 255 186 119
22 7 24 255 186 119
22 7 25 255 186 119
22 7 26 255 186 119
22 7 27 255 186 119
22 7 28 255 186 119
22 7 29 255 186 119
22 7 30 255 186 119
22 8 23 196 175 214
22 8 24 196 175 214
22 8 25 196 175 214
22 8 26 196 175 214
22 8 27 196 175 214
22 8 28 196 175 214
22 8 29 255 186 119
22 8 30 255 186 119
22 9 23 196 175 214
22 9 24 196 175 214
22 9 25 196 175 214
22 9 26 196 175 214
22 9 27 196 175 214
22 9 28 196 175 214
22 9 29 255 186 119
22 9 30 255 186 119
22 10 29 255 186 119
22 10 30 255 186 119
22 11 29 255 186 119
22 11 30 255 186 119
22 12 29 255 186 119
22 12 30 255 186 119
22 13 29 255 186 119
22 13 30 158 216 229
22 14 30 158 216 229
22 15 30 158 216 229
22 16 30 158 216 229
22 17 30 158 216 229
22 18 30 158 216 229
22 19 30 158 216 229
22 20 30 158 216 229
22 21 30 158 216 229
22 22 30 158 216 229
22 23 30 158 216 229
22 24 30 158 216 229
22 25 30 158 216 229
22 26 30 158 216 229
22 27 30 158 216 229
22 28 30 158 216 229
22 29 30 158 216 229
22 30 30 158 216 229
22 31 30 158 216 229
22 32 28 214 38 40
22 32 29 214 38 40
22 32 30 214 38 40
23 5 29 255 186 119
23 5 30 255 186 119
23 6 26 255 186 119
23 6 27 255 186 119
23 6 28 255 186 119
23 6 29 255 186 119
23 6 30 255 186 119
23 7 23 255 186 119
23 7 24 255 186 119
23 7 25 255 186 119
23 7 26 255 186 119
23 7 27 255 186 119
23 7 28 255 186 119
23 7 29 255 186 119
23 7 30 255 186 119
23 8 23 196 175 214
23 8 24 196 175 214
23 8 25 196 175 214
23 8 26 196 175 214
23 8 27 196 175 214
23 8 28 196 175 214
23 8 29 255 186 119
23 8 30 255 186 119
23 9 23 196 175 214
23 9 24 196 175 214
23 9 25 196 175 214
23 9 26 196 175 214
23 9 27 196 175 214
23 9 28 196 175 214
23 9 29 255 186 119
23 9 30 255 186 119
23 10 29 255 186 119
23 10 30 255 186 119
23 11 29 255 186 119
23 11 30 255 186 119
23 12 29 255 186 119
23 12 30 255 186 119
23 13 29 255 186 119
23 13 30 158 216 229
23 14 30 158 216 229
23 15 30 158 216 229
23 16 30 158 216 229
23 17 30 158 216 229
23 18 30 158 216 229
23 19 30 158 216 229
23 20 30 158 216 229
23 21 30 158 216 229
23 22 30 158 216 229
23 23 30 158 216 229
23 24 30 158 216 229
23 25 30 158 216 229
23 26 30 158 216 229
23 27 30 158 216 229
23 28 30 158 216 229
23 29 30 158 216 229
23 30 30 158 216 229
23 31 30 158 216 229
23 32 29 214 38 40
23 32 30 214 38 40
24 5 29 255 186 119
24 5 30 255 186 119
24 6 26 255 186 119
24 6 27 255 186 119
24 6 28 255 186 119
24 6 29 255 186 119
24 6 30 255 186 119
24 7 23 255 186 119
24 7 24 255 186 119
24 7 25 255 186 119
24 7 26 255 186 119
24 7 27 255 186 119
24 7 28 255 186 119
24 7 29 255 186 119
24 7 30 255 186 119
24 8 24 196 175 214
24 8 25 196 175 214
24 8 26 196 175 214
24 8 27 196 175 214
24 8 28 196 175 214
24 8 29 255 186 119
24 8 30 255 186 119
24 9 24 196 175 214
24 9 25 196 175 214
24 9 26 196 175 214
24 9 27 196 175 214
24 9 28 196 175 214
24 9 29 255 186 119
24 9 30 255 186 119
24 10 29 255 186 119
24 10 30 255 186 119
24 11 29 255 186 119
24 11 30 255 186 119
24 12 29 255 186 119
24 12 30 255 186 119
24 13 29 255 186 119
24 13 30 158 216 229
24 14 30 158 216 229
24 15 30 158 216 229
24 16 30 158 216 229
24 17 30 158 216 229
24 18 30 158 216 229
24 19 30 158 216 229
24 20 30 158 216 229
24 21 30 158 216 229
24 22 30 158 216 229
24 23 30 158 216 229
24 24 30 158 216 229
24 25 30 158 216 229
24 26 30 158 216 229
24 27 30 158 216 229
24 28 30 158 216 229
24 29 30 158 216 229
24 30 30 158 216 229
24 31 30 158 216 229
24 32 29 214 38 40
24 32 30 214 38 40
25 5 29 255 186 119
25 5 30 255 186 119
25 6 26 255 186 119
25 6 27 255 186 119
25 6 28 255 186 119
25 6 29 255 186 119
25 6 30 255 186 119
25 7 23 255 186 119
25 7 24 255 186 119
25 7 25 255 186 119
25 7 26 255 186 119
25 7 27 255 186 119
25 7 28 255 186 119
25 7 29 255 186 119
25 7 30 255 186 119
25 8 24 196 175 214
25 8 25 196 175 214
25 8 26 196 175 214
25 8 27 196 175 214
25 8 28 196 175 214
25 8 29 255 186 119
25 8 30 255 186 119
25 9 24 196 175 214
25 9 25 196 175 214
25 9 26 196 175 214
25 9 27 196 175 214
25 9 28 196 175 214
25 9 29 255 186 119
25 9 30 255 186 119
25 10 14 196 175 214
25 10 29 255 186 119
25 10 30 255 186 119
25 11 29 255 186 119
25 11 30 255 186 119
25 12 29 255 186 119
25 12 30 255 186 119
25 13 29 255 186 119
25 13 30 158 216 229
25 14 30 158 216 229
25 15 30 158 216 229
25 16 30 158 216 229
25 17 30 158 216 229
25 18 30 158 216 229
25 19 30 158 216 229
25 20 30 158 216 229
25 21 30 158 216 229
25 22 30 158 216 229
25 23 30 158 216 229
25 24 30 158 216 229
25 25 30 158 216 229
25 26 30 158 216 229
25 27 30 158 216 229
25 28 30 158 216 229
25 29 30 158 216 229
25 30 30 158 216 229
25 31 30 158 216 229
25 32 29 214 38 40
25 32 30 214 38 40
26 5 29 255 186 119
26 5 30 255 186 119
26 5 31 158 216 229
26 6 26 255 186 119
26 6 27 255 186 119
26 6 28 255 186 119
26 6 29 255 186 119
26 6 30 255 186 119
26 6 31 158 216 229
26 7 23 255 186 119
26 7 24 255 186 119
26 7 25 255 186 119
26 7 26 255 186 119
26 7 27 255 186 119
26 7 28 255 186 119
26 7 29 255 186 119
26 7 30 255 186 119
26 7 31 158 216 229
26 8 24 196 175 214
26 8 25 196 175 214
26 8 26 196 175 214
26 8 27 196 175 214
26 8 28 196 175 214
26 8 29 255 186 119
26 8 30 255 186 119
26 8 31 158 216 229
26 9 24 196 175 214
26 9 25 196 175 214
26 9 26 196 175 214
26 9 27 196 175 214
26 9 28 196 175 214
26 9 29 255 186 119
26 9 30 255 186 119
26 9 31 158 216 229
26 10 14 196 175 214
26 10 29 255 186 119
26 10 30 255 186 119
26 10 31 158 216 229
26 11 29 255 186 119
26 11 30 255 186 119
26 11 31 158 216 229
26 12 29 255 186 119
26 12 30 255 186 119
26 12 31 158 216 229
26 13 29 255 186 119
26 13 30 255 186 119
26 13 31 158 216 229
26 14 30 158 216 229
26 14 31 158 216 229
26 15 30 158 216 229
26 15 31 158 216 229
26 16 30 158 216 229
26 16 31 158 216 229
26 17 30 158 216 229
26 17 31 158 216 229
26 18 30 158 216 229
26 18 31 158 216 229
26 19 30 158 216 229
26 19 31 158 216 229
26 20 30 158 216 229
26 20 31 158 216 229
26 21 30 158 216 229
26 21 31 158 216 229
26 22 30 158 216 229
26 22 31 158 216 229
26 23 30 158 216 229
26 23 31 158 216 229
26 24 30 158 216 229
26 24 31 158 216 229
26 25 30 158 216 229
26 25 31 158 216 229
26 26 30 158 216 229
26 26 31 158 216 229
26 27 30 158 216 229
26 27 31 158 216 229
26 28 30 158 216 229
26 28 31 158 216 229
26 29 30 158 216 229
26 29 31 158 216 229
26 30 30 158 216 229
26 30 31 158 216 229
26 31 30 158 216 229
26 31 31 158 216 229
26 32 29 214 38 40
26 32 30 214 38 40
26 32 31 158 216 229
27 4 31 158 216 229
27 5 28 255 186 119
27 5 29 255 186 119
27 5 30 255 186 119
27 5 31 158 216 229
27 6 26 255 186 119
27 6 27 255 186 119
27 6 28 255 186 119
27 6 29 255 186 119
27 6 30 255 186 119
27 6 31 158 216 229
27 7 23 255 186 119
27 7 24 255 186 119
27 7 25 255 186 119
27 7 26 255 186 119
27 7 27 255 186 119
27 7 28 255 186 119
27 7 29 255 186 119
27 7 30 255 186 119
27 7 31 158 216 229
27 8 24 196 175 214
27 8 25 196 175 214
27 8 26 196 175 214
27 8 27 196 175 214
27 8 28 196 175 214
27 8 29 255 186 119
27 8 30 255 186 119
27 8 31 158 216 229
27 9 24 196 175 214
27 9 25 196 175 214
27 9 26 196 175 214
27 9 27 196 175 214
27 9 28 196 175 214
27 9 29 255 186 119
27 9 30 255 186 119
27 9 31 158 216 229
27 10 29 255 186 119
27 10 30 255 186 119
27 10 31 158 216 229
27 11 29 255 186 119
27 11 30 255 186 119
27 11 31 158 216 229
27 12 29 255 186 119
27 12 30 255 186 119
27 12 31 158 216 229
27 13 29 255 186 119
27 13 30 255 186 119
27 13 31 158 216 229
27 14 30 158 216 229
27 14 31 158 216 229
27 15 30 158 216 229
27 15 31 158 216 229
27 16 30 158 216 229
27 16 31 158 216 229
27 17 30 158 216 229
27 17 31 158 216 229
27 18 30 158 216 229
27 18 31 158 216 229
27 19 30 158 216 229
27 19 31 158 216 229
27 20 30 158 216 229
27 20 31 158 216 229
27 21 30 158 216 229
27 21 31 158 216 229
27 22 30 158 216 229
27 22 31 158 216 229
27 23 30 158 216 229
27 23 31 158 216 229
27 24 30 158 216 229
27 24 31 158 216 229
27 25 30 158 216 229
27 25 31 158 216 229
27 26 30 158 216 229
27 26 31 158 216 229
27 27 30 158 216 229
27 27 31 158 216 229
27 28 30 158 216 229
27 28 31 158 216 229
27 29 30 158 216 229
27 29 31 158 216 229
27 30 30 158 216 229
27 30 31 158 216 229
27 31 30 158 216 229
27 31 31 158 216 229
27 32 29 214 38 40
27 32 30 214 38 40
27 32 31 158 216 229
28 4 31 158 216 229
28 5 28 255 186 119
28 5 29 255 186 119
28 5 30 255 186 119
28 5 31 158 216 229
28 6 25 255 186 119
28 6 26 255 186 119
28 6 27 255 186 119
28 6 28 255 186 119
28 6 29 255 186 119
28 6 30 255 186 119
28 6 31 158 216 229
28 7 23 255 186 119
28 7 24 255 186 119
28 7 25 255 186 119
28 7 26 255 186 119
28 7 27 255 186 119
28 7 28 255 186 119
28 7 29 255 186 119
28 7 30 255 186 119
28 7 31 158 216 229
28 8 24 196 175 214
28 8 25 196 175 214
28 8 26 196 175 214
28 8 27 196 175 214
28 8 28 196 175 214
28 8 29 255 186 119
28 8 30 255 186 119
28 8 31 158 216 229
28 9 24 196 175 214
28 9 25 196 175 214
28 9 26 196 175 214
28 9 27 196 175 214
28 9 28 196 175 214
28 9 29 255 186 119
28 9 30 255 186 119
28 9 31 158 216 229
28 10 29 255 186 119
28 10 30 255 186 119
28 10 31 158 216 229
28 11 29 255 186 119
28 11 30 255 186 119
28 11 31 158 216 229
28 12 29 255 186 119
28 12 30 255 186 119
28 12 31 158 216 229
28 13 29 255 186 119
28 13 30 255 186 119
28 13 31 158 216 229
28 14 30 158 216 229
28 14 31 158 216 229
28 15 30 158 216 229
28 15 31 158 216 229
28 16 30 158 216 229
28 16 31 158 216 229
28 17 30 158 216 229
28 17 31 158 216 229
28 18 30 158 216 229
28 18 31 158 216 229
28 19 30 158 216 229
28 19 31 158 216 229
28 20 30 158 216 229
28 20 31 158 216 229
28 21 30 158 216 229
28 21 31 158 216 229
28 22 30 158 216 229
28 22 31 158 216 229
28 23 30 158 216 229
28 23 31 158 216 229
28 24 30 158 216 229
28 24 31 158 216 229
28 25 30 158 216 229
28 25 31 158 216 229
28 26 30 158 216 229
28 26 31 158 216 229
28 27 30 158 216 229
28 27 31 158 216 229
28 28 30 158 216 229
28 28 31 158 216 229
28 29 30 158 216 229
28 29 31 158 216 229
28 30 30 158 216 229
28 30 31 158 216 229
28 31 30 158 216 229
28 31 31 158 216 229
28 32 29 214 38 40
28 32 30 214 38 40
28 32 31 158 216 229
29 4 31 255 186 119
29 5 28 255 186 119
29 5 29 255 186 119
29 5 30 255 186 119
29 5 31 255 186 119
29 6 25 255 186 119
29 6 26 255 186 119
29 6 27 255 186 119
29 6 28 255 186 119
29 6 29 255 186 119
29 6 30 255 186 119
29 6 31 255 186 119
29 7 22 255 186 119
29 7 23 255 186 119
29 7 24 255 186 119
29 7 25 255 186 119
29 7 26 255 186 119
29 7 27 255 186 119
29 7 28 255 186 119
29 7 29 255 186 119
29 7 30 255 186 119
29 7 31 255 186 119
29 8 24 196 175 214
29 8 25 196 175 214
29 8 26 196 175 214
29 8 27 196 175 214
29 8 28 196 175 214
29 8 29 255 186 119
29 8 30 255 186 119
29 8 31 255 186 119
29 9 24 196 175 214
29 9 25 196 175 214
29 9 26 196 175 214
29 9 27 196 175 214
29 9 28 196 175 214
29 9 29 255 186 119
29 9 30 255 186 119
29 9 31 255 186 119
29 10 29 255 186 119
29 10 30 255 186 119
29 10 31 255 186 119
29 11 29 255 186 119
29 11 30 255 186 119
29 11 31 255 186 119
29 12 29 255 186 119
29 12 30 255 186 119
29 12 31 255 186 119
29 13 29 255 186 119
29 13 30 255 186 119
29 13 31 158 216 229
29 14 30 158 216 229
29 14 31 158 216 229
29 15 30 158 216 229
29 15 31 158 216 229
29 16 30 158 216 229
29 16 31 158 216 229
29 17 30 158 216 229
29 17 31 158 216 229
29 18 30 158 216 229
29 18 31 158 216 229
29 19 30 158 216 229
29 19 31 158 216 229
29 20 30 158 216 229
29 20 31 158 216 229
29 21 30 158 216 229
29 21 31 158 216 229
29 22 30 158 216 229
29 22 31 158 216 229
29 23 30 158 216 229
29 23 31 158 216 229
29 24 30 158 216 229
29 24 31 158 216 229
29 25 30 158 216 229
29 25 31 158 216 229
29 26 30 158 216 229
29 26 31 158 216 229
29 27 30 158 216 229
29 27 31 158 216 229
29 28 30 158 216 229
29 28 31 158 216 229
29 29 30 158 216 229
29 29 31 158 216 229
29 30 30 158 216 229
29 30 31 158 216 229
29 31 30 158 216 229
29 31 31 158 216 229
29 32 29 214 38 40
29 32 30 214 38 40
29 32 31 158 216 229
30 4 31 255 186 119
30 5 28 255 186 119
30 5 29 255 186 119
30 5 30 255 186 119
30 5 31 255 186 119
30 6 25 255 186 119
30 6 26 255 186 119
30 6 27 255 186 119
30 6 28 255 186 119
30 6 29 255 186 119
30 6 30 255 186 119
30 6 31 255 186 119
30 7 22 255 186 119
30 7 23 255 186 119
30 7 24 255 186 119
30 7 25 255 186 119
30 7 26 255 186 119
30 7 27 255 186 119
30 7 28 255 186 119
30 7 29 255 186 119
30 7 30 255 186 119
30 7 31 255 186 119
30 8 24 196 175 214
30 8 25 196 175 214
30 8 26 196 175 214
30 8 27 196 175 214
30 8 28 196 175 214
30 8 29 255 186 119
30 8 30 255 186 119
30 8 31 255 186 119
30 9 24 196 175 214
30 9 25 196 175 214
30 9 26 196 175 214
30 9 27 196 175 214
30 9 28 196 175 214
30 9 29 255 186 119
30 9 30 255 186 119
30 9 31 255 186 119
30 10 29 255 186 119
30 10 30 255 186 119
30 10 31 255 186 119
30 11 29 255 186 119
30 11 30 255 186 119
30 11 31 255 186 119
30 12 29 255 186 119
30 12 30 255 186 119
30 12 31 255 186 119
30 13 29 255 186 119
30 13 30 255 186 119
30 13 31 158 216 229
30 14 30 158 216 229
30 14 31 158 216 229
30 15 30 158 216 229
30 15 31 158 216 229
30 16 30 158 216 229
30 16 31 158 216 229
30 17 30 158 216 229
30 17 31 158 216 229
30 18 30 158 216 229
30 18 31 158 216 229
30 19 30 158 216 229
30 19 31 158 216 229
30 20 30 158 216 229
30 20 31 158 216 229
30 21 30 158 216 229
30 21 31 158 216 229
30 22 30 158 216 229
30 22 31 158 216 229
30 23 30 158 216 229
30 23 31 158 216 229
30 24 30 158 216 229
30 24 31 158 216 229
30 25 30 158 216 229
30 25 31 158 216 229
30 26 30 158 216 229
30 26 31 158 216 229
30 27 30 158 216 229
30 27 31 158 216 229
30 28 30 158 216 229
30 28 31 158 216 229
30 29 30 158 216 229
30 29 31 158 216 229
30 30 30 158 216 229
30 30 31 158 216 229
30 31 30 158 216 229
30 31 31 158 216 229
30 32 29 214 38 40
30 32 30 214 38 40
30 32 31 158 216 229
31 4 31 158 216 229
31 5 28 255 186 119
31 5 29 255 186 119
31 5 30 255 186 119
31 5 31 158 216 229
31 6 25 255 186 119
31 6 26 255 186 119
31 6 27 255 186 119
31 6 28 255 186 119
31 6 29 255 186 119
31 6 30 255 186 119
31 6 31 158 216 229
31 7 22 255 186 119
31 7 23 255 186 119
31 7 24 255 186 119
31 7 25 255 186 119
31 7 26 255 186 119
31 7 27 255 186 119
31 7 28 255 186 119
31 7 29 255 186 119
31 7 30 255 186 119
31 7 31 158 216 229
31 8 24 196 175 214
31 8 25 196 175 214
31 8 26 196 175 214
31 8 27 196 175 214
31 8 28 196 175 214
31 8 29 255 186 119
31 8 30 255 186 119
31 8 31 158 216 229
31 9 24 196 175 214
31 9 25 196 175 214
31 9 26 196 175 214
31 9 27 196 175 214
31 9 28 196 175 214
31 9 29 255 186 119
31 9 30 255 186 119
31 9 31 158 216 229
31 10 29 255 186 119
31 10 30 255 186 119
31 10 31 158 216 229
31 11 29 255 186 119
31 11 30 255 186 119
31 11 31 158 216 229
31 12 29 255 186 119
31 12 30 255 186 119
31 12 31 158 216 229
31 13 29 255 186 119
31 13 30 255 186 119
31 13 31 158 216 229
31 14 30 158 216 229
31 14 31 158 216 229
31 15 30 158 216 229
31 15 31 158 216 229
31 16 30 158 216 229
31 16 31 158 216 229
31 17 9 188 188 33
31 17 10 188 188 33
31 17 11 188 188 33
31 17 30 158 216 229
31 17 31 158 216 229
31 18 9 188 188 33
31 18 10 188 188 33
31 18 11 188 188 33
31 18 30 158 216 229
31 18 31 158 216 229
31 19 9 188 188 33
31 19 10 188 188 33
31 19 11 188 188 33
31 19 30 158 216 229
31 19 31 158 216 229
31 20 9 188 188 33
31 20 10 188 188 33
31 20 11 188 188 33
31 20 30 158 216 229
31 20 31 158 216 229
31 21 11 188 188 33
31 21 30 158 216 229
31 21 31 158 216 229
31 22 30 158 216 229
31 22 31 158 216 229
31 23 30 158 216 229
31 23 31 158 216 229
31 24 30 158 216 229
31 24 31 158 216 229
31 25 30 158 216 229
31 25 31 158 216 229
31 26 30 158 216 229
31 26 31 158 216 229
31 27 30 158 216 229
31 27 31 158 216 229
31 28 30 158 216 229
31 28 31 158 216 229
31 29 30 158 216 229
31 29 31 158 216 229
31 30 30 158 216 229
31 30 31 158 216 229
31 31 30 158 216 229
31 31 31 158 216 229
31 32 29 214 38 40
31 32 30 214 38 40
31 32 31 158 216 229
32 4 31 158 216 229
32 5 28 255 186 119
32 5 29 255 186 119
32 5 30 255 186 119
32 5 31 158 216 229
32 6 25 255 186 119
32 6 26 255 186 119
32 6 27 255 186 119
32 6 28 255 186 119
32 6 29 255 186 119
32 6 30 255 186 119
32 6 31 158 216 229
32 7 22 255 186 119
32 7 23 255 186 119
32 7 24 255 186 119
32 7 25 255 186 119
32 7 26 255 186 119
32 7 27 255 186 119
32 7 28 255 186 119
32 7 29 255 186 119
32 7 30 255 186 119
32 7 31 158 216 229
32 8 24 196 175 214
32 8 25 196 175 214
32 8 26 196 175 214
32 8 27 196 175 214
32 8 28 196 175 214
32 8 29 255 186 119
32 8 30 255 186 119
32 8 31 158 216 229
32 9 24 196 175 214
32 9 25 196 175 214
32 9 26 196 175 214
32 9 27 196 175 214
32 9 28 196 175 214
32 9 29 255 186 119
32 9 30 255 186 119
32 9 31 158 216 229
32 10 29 255 186 119
32 10 30 255 186 119
32 10 31 158 216 229
32 11 29 255 186 119
32 11 30 255 186 119
32 11 31 158 216 229
32 12 29 255 186 119
32 12 30 255 186 119
32 12 31 158 216 229
32 13 29 255 186 119
32 13 30 255 186 119
32 13 31 158 216 229
32 14 31 158 216 229
32 15 31 158 216 229
32 16 31 158 216 229
32 17 10 188 188 33
32 17 11 188 188 33
32 17 31 158 216 229
32 18 9 188 188 33
32 18 10 188 188 33
32 18 11 188 188 33
32 18 31 158 216 229
32 19 9 188 188 33
32 19 10 188 188 33
32 19 11 188 188 33
32 19 31 158 216 229
32 20 9 188 188 33
32 20 10 188 188 33
32 20 11 188 188 33
32 20 31 158 216 229
32 21 11 188 188 33
32 21 31 158 216 229
32 22 31 158 216 229
32 23 31 158 216 229
32 24 31 158 216 229
32 25 31 158 216 229
32 26 31 158 216 229
32 27 31 158 216 229
32 28 31 158 216 229
32 29 31 158 216 229
32 30 31 158 216 229
32 31 31 158 216 229
32 32 29 214 38 40
32 32 30 214 38 40
32 32 31 158 216 229
33 4 30 255 186 119
33 4 31 255 186 119
33 5 27 255 186 119
33 5 28 255 186 119
33 5 29 255 186 119
33 5 30 255 186 119
33 5 31 255 186 119
33 6 25 255 186 119
33 6 26 255 186 119
33 6 27 255 186 119
33 6 28 255 186 119
33 6 29 255 186 119
33 6 30 255 186 119
33 6 31 255 186 119
33 7 22 255 186 119
33 7 23 255 186 119
33 7 24 255 186 119
33 7 25 255 186 119
33 7 26 255 186 119
33 7 27 255 186 119
33 7 28 255 186 119
33 7 29 255 186 119
33 7 30 255 186 119
33 7 31 255 186 119
33 8 24 196 175 214
33 8 25 196 175 214
33 8 26 196 175 214
33 8 27 196 175 214
33 8 28 196 175 214
33 8 29 196 175 214
33 8 30 255 186 119
33 8 31 255 186 119
33 9 24 196 175 214
33 9 25 196 175 214
33 9 26 196 175 214
33 9 27 196 175 214
33 9 28 196 175 214
33 9 29 255 186 119
33 9 30 255 186 119
33 9 31 255 186 119
33 10 29 255 186 119
33 10 30 255 186 119
33 10 31 255 186 119
33 11 29 255 186 119
33 11 30 255 186 119
33 11 31 255 186 119
33 12 29 255 186 119
33 12 30 255 186 119
33 12 31 255 186 119
33 13 30 255 186 119
33 13 31 158 216 229
33 14 31 158 216 229
33 15 31 158 216 229
33 16 31 158 216 229
33 17 10 188 188 33
33 17 11 188 188 33
33 17 12 188 188 33
33 17 31 158 216 229
33 18 10 188 188 33
33 18 11 188 188 33
33 18 12 188 188 33
33 18 31 158 216 229
33 19 10 188 188 33
33 19 11 188 188 33
33 19 12 188 188 33
33 19 31 158 216 229
33 20 10 188 188 33
33 20 11 188 188 33
33 20 12 188 188 33
33 20 31 158 216 229
33 21 11 188 188 33
33 21 12 188 188 33
33 21 31 158 216 229
33 22 31 158 216 229
33 23 31 158 216 229
33 24 31 158 216 229
33 25 31 158 216 229
33 26 31 158 216 229
33 27 31 158 216 229
33 28 31 158 216 229
33 29 31 158 216 229
33 30 31 158 216 229
33 31 31 158 216 229
33 32 30 214 38 40
33 32 31 158 216 229
34 4 30 255 186 119
34 4 31 255 186 119
34 5 27 255 186 119
34 5 28 255 186 119
34 5 29 255 186 119
34 5 30 255 186 119
34 5 31 255 186 119
34 6 24 255 186 119
34 6 25 255 186 119
34 6 26 255 186 119
34 6 27 255 186 119
34 6 28 255 186 119
34 6 29 255 186 119
34 6 30 255 186 119
34 6 31 255 186 119
34 7 21 255 186 119
34 7 22 255 186 119
34 7 23 255 186 119
34 7 24 255 186 119
34 7 25 255 186 119
34 7 26 255 186 119
34 7 27 255 186 119
34 7 28 255 186 119
34 7 29 255 186 119
34 7 30 255 186 119
34 7 31 255 186 119
34 8 30 255 186 119
34 8 31 255 186 119
34 9 30 255 186 119
34 9 31 255 186 119
34 10 30 255 186 119
34 10 31 255 186 119
34 11 30 255 186 119
34 11 31 255 186 119
34 12 30 255 186 119
34 12 31 255 186 119
34 13 30 255 186 119
34 13 31 158 216 229
34 14 31 158 216 229
34 15 31 158 216 229
34 16 31 158 216 229
34 17 10 188 188 33
34 17 11 188 188 33
34 17 12 188 188 33
34 17 31 158 216 229
34 18 10 188 188 33
34 18 11 188 188 33
34 18 12 188 188 33
34 18 31 158 216 229
34 19 10 188 188 33
34 19 11 188 188 33
34 19 12 188 188 33
34 19 31 158 216 229
34 20 10 188 188 33
34 20 11 188 188 33
34 20 12 188 188 33
34 20 31 158 216 229
34 21 11 188 188 33
34 21 12 188 188 33
34 21 31 158 216 229
34 22 31 158 216 229
34 23 31 158 216 229
34 24 31 158 216 229
34 25 31 158 216 229
34 26 31 158 216 229
34 27 31 158 216 229
34 28 31 158 216 229
34 29 31 158 216 229
34 30 31 158 216 229
34 31 31 158 216 229
34 32 30 214 38 40
34 32 31 158 216 229
35 4 30 255 127 12
35 4 31 158 216 229
35 5 27 255 127 12
35 5 28 255 127 12
35 5 29 255 127 12
35 5 30 255 127 12
35 5 31 158 216 229
35 6 24 255 186 119
35 6 25 255 186 119
35 6 26 255 186 119
35 6 27 255 127 12
35 6 28 255 127 12
35 6 29 255 127 12
35 6 30 255 127 12
35 6 31 158 216 229
35 7 21 255 186 119
35 7 22 255 186 119
35 7 23 255 186 119
35 7 24 255 186 119
35 7 25 255 186 119
35 7 26 255 186 119
35 7 27 255 186 119
35 7 28 196 175 214
35 7 29 196 175 214
35 7 31 158 216 229
35 8 28 196 175 214
35 8 29 196 175 214
35 8 31 158 216 229
35 9 31 158 216 229
35 10 31 158 216 229
35 11 31 158 216 229
35 12 31 158 216 229
35 13 31 158 216 229
35 14 31 158 216 229
35 15 31 158 216 229
35 16 31 158 216 229
35 17 10 188 188 33
35 17 11 188 188 33
35 17 12 188 188 33
35 17 31 158 216 229
35 18 10 188 188 33
35 18 11 188 188 33
35 18 12 188 188 33
35 18 31 158 216 229
35 19 10 188 188 33
35 19 11 188 188 33
35 19 12 188 188 33
35 19 31 158 216 229
35 20 10 188 188 33
35 20 11 188 188 33
35 20 12 188 188 33
35 20 31 158 216 229
35 21 11 188 188 33
35 21 12 188 188 33
35 21 31 158 216 229
35 22 31 158 216 229
35 23 31 158 216 229
35 24 31 158 216 229
35 25 31 158 216 229
35 26 31 158 216 229
35 27 31 158 216 229
35 28 31 158 216 229
35 29 31 158 216 229
35 30 31 158 216 229
35 31 31 158 216 229
35 32 30 214 38 40
35 32 31 158 216 229
36 4 30 255 127 12
36 4 31 158 216 229
36 5 27 255 127 12
36 5 28 255 127 12
36 5 29 255 127 12
36 5 30 255 127 12
36 5 31 158 216 229
36 6 25 255 127 12
36 6 26 255 127 12
36 6 27 255 127 12
36 6 28 255 127 12
36 6 29 255 127 12
36 6 30 255 127 12
36 6 31 158 216 229
36 7 28 196 175 214
36 7 29 196 175 214
36 7 31 158 216 229
36 8 28 196 175 214
36 8 29 196 175 214
36 8 31 158 216 229
36 9 28 196 175 214
36 9 29 196 175 214
36 9 31 158 216 229
36 10 31 158 216 229
36 11 31 158 216 229
36 12 31 158 216 229
36 13 31 158 216 229
36 14 31 158 216 229
36 15 31 158 216 229
36 16 31 158 216 229
36 17 11 188 188 33
36 17 12 188 188 33
36 17 13 188 188 33
36 17 31 158 216 229
36 18 11 188 188 33
36 18 12 188 188 33
36 18 13 188 188 33
36 18 31 158 216 229
36 19 11 188 188 33
36 19 12 188 188 33
36 19 13 188 188 33
36 19 31 158 216 229
36 20 11 188 188 33
36 20 12 188 188 33
36 20 13 188 188 33
36 20 31 158 216 229
36 21 11 188 188 33
36 21 12 188 188 33
36 21 13 188 188 33
36 21 31 158 216 229
36 22 13 188 188 33
36 22 31 158 216 229
36 23 31 158 216 229
36 24 31 158 216 229
36 25 31 158 216 229
36 26 31 158 216 229
36 27 31 158 216 229
36 28 31 158 216 229
36 29 31 158 216 229
36 30 31 158 216 229
36 31 31 158 216 229
36 32 30 214 38 40
36 32 31 158 216 229
37 4 30 255 127 12
37 4 31 158 216 229
37 5 27 255 127 12
37 5 28 255 127 12
37 5 29 255 127 12
37 5 30 255 127 12
37 5 31 158 216 229
37 6 25 255 127 12
37 6 26 255 127 12
37 6 27 255 127 12
37 6 28 255 127 12
37 6 29 255 127 12
37 6 30 255 127 12
37 6 31 158 216 229
37 7 28 196 175 214
37 7 29 196 175 214
37 7 31 158 216 229
37 8 28 196 175 214
37 8 29 196 175 214
37 8 31 158 216 229
37 9 28 196 175 214
37 9 29 196 175 214
37 9 31 158 216 229
37 10 31 158 216 229
37 11 31 158 216 229
37 12 31 158 216 229
37 13 31 158 216 229
37 14 31 158 216 229
37 15 31 158 216 229
37 16 31 158 216 229
37 17 12 188 188 33
37 17 13 188 188 33
37 17 31 158 216 229
37 18 12 188 188 33
37 18 13 188 188 33
37 18 31 158 216 229
37 19 12 188 188 33
37 19 13 188 188 33
37 19 31 158 216 229
37 20 12 188 188 33
37 20 13 188 188 33
37 20 31 158 216 229
37 21 11 188 188 33
37 21 12 188 188 33
37 21 13 188 188 33
37 21 31 158 216 229
37 22 13 188 188 33
37 22 31 158 216 229
37 23 31 158 216 229
37 24 31 158 216 229
37 25 31 158 216 229
37 26 31 158 216 229
37 27 31 158 216 229
37 28 31 158 216 229
37 29 31 158 216 229
37 30 31 158 216 229
37 31 31 158 216 229
37 32 30 214 38 40
37 32 31 158 216 229
38 4 29 255 127 12
38 4 30 255 127 12
38 4 31 158 216 229
38 5 27 255 127 12
38 5 28 255 127 12
38 5 29 255 127 12
38 5 30 255 127 12
38 5 31 158 216 229
38 6 25 255 127 12
38 6 26 255 127 12
38 6 27 255 127 12
38 6 28 255 127 12
38 6 29 255 127 12
38 6 30 255 127 12
38 6 31 158 216 229
38 7 31 158 216 229
38 8 31 158 216 229
38 9 31 158 216 229
38 10 31 158 216 229
38 11 31 158 216 229
38 12 31 158 216 229
38 13 31 158 216 229
38 14 31 158 216 229
38 15 31 158 216 229
38 16 31 158 216 229
38 17 31 158 216 229
38 18 31 158 216 229
38 19 13 188 188 33
38 19 31 158 216 229
38 20 13 188 188 33
38 20 31 158 216 229
38 21 13 188 188 33
38 21 31 158 216 229
38 22 13 188 188 33
38 22 31 158 216 229
38 23 31 158 216 229
38 24 31 158 216 229
38 25 31 158 216 229
38 26 31 158 216 229
38 27 31 158 216 229
38 28 31 158 216 229
38 29 31 158 216 229
38 30 31 158 216 229
38 31 31 158 216 229
38 32 30 214 38 40
38 32 31 158 216 229
39 4 29 255 127 12
39 4 30 255 127 12
39 4 31 158 216 229
39 5 26 255 127 12
39 5 27 255 127 12
39 5 28 255 127 12
39 5 29 255 127 12
39 5 30 255 127 12
39 5 31 158 216 229
39 6 25 255 127 12
39 6 26 255 127 12
39 6 27 255 127 12
39 6 28 255 127 12
39 6 29 255 127 12
39 6 30 255 127 12
39 6 31 158 216 229
39 7 31 158 216 229
39 8 31 158 216 229
39 9 31 158 216 229
39 10 31 158 216 229
39 11 31 158 216 229
39 12 31 158 216 229
39 13 31 158 216 229
39 14 31 158 216 229
39 15 31 158 216 229
39 16 31 158 216 229
39 17 31 158 216 229
39 18 31 158 216 229
39 19 31 158 216 229
39 20 31 158 216 229
39 21 31 158 216 229
39 22 31 158 216 229
39 23 31 158 216 229
39 24 31 158 216 229
39 25 31 158 216 229
39 26 31 158 216 229
39 27 31 158 216 229
39 28 31 158 216 229
39 29 31 158 216 229
39 30 31 158 216 229
39 31 31 158 216 229
39 32 30 214 38 40
39 32 31 158 216 229
40 4 29 255 127 12
40 4 30 255 127 12
40 4 31 158 216 229
40 5 26 255 127 12
40 5 27 255 127 12
40 5 28 255 127 12
40 5 29 255 127 12
40 5 30 255 127 12
40 5 31 158 216 229
40 6 25 255 127 12
40 6 26 255 127 12
40 6 27 255 127 12
40 6 28 255 127 12
40 6 29 255 127 12
40 6 30 255 127 12
40 6 31 158 216 229
40 7 31 158 216 229
40 8 31 158 216 229
40 9 31 158 216 229
40 10 31 158 216 229
40 11 31 158 216 229
40 12 31 158 216 229
40 13 31 158 216 229
40 14 31 158 216 229
40 15 31 158 216 229
40 16 31 158 216 229
40 17 31 158 216 229
40 18 31 158 216 229
40 19 31 158 216 229
40 20 31 158 216 229
40 21 31 158 216 229
40 22 31 158 216 229
40 23 31 158 216 229
40 24 31 158 216 229
40 25 31 158 216 229
40 26 31 158 216 229
40 27 31 158 216 229
40 28 31 158 216 229
40 29 31 158 216 229
40 30 31 158 216 229
40 31 31 158 216 229
40 32 30 214 38 40
40 32 31 158 216 229
41 4 29 158 216 229
41 4 30 158 216 229
41 4 31 158 216 229
41 5 26 158 216 229
41 5 27 158 216 229
41 5 28 158 216 229
41 5 29 158 216 229
41 5 30 158 216 229
41 5 31 158 216 229
41 6 23 158 216 229
41 6 24 158 216 229
41 6 25 158 216 229
41 6 26 158 216 229
41 6 27 158 216 229
41 6 28 158 216 229
41 6 29 158 216 229
41 6 30 158 216 229
41 6 31 158 216 229
41 7 21 158 216 229
41 7 22 158 216 229
41 7 23 158 216 229
41 7 24 158 216 229
41 7 25 158 216 229
41 7 26 158 216 229
41 7 27 158 216 229
41 7 28 158 216 229
41 7 29 158 216 229
41 7 30 158 216 229
41 7 31 158 216 229
41 8 20 158 216 229
41 8 21 158 216 229
41 8 22 158 216 229
41 8 23 158 216 229
41 8 24 158 216 229
41 8 25 158 216 229
41 8 26 158 216 229
41 8 27 158 216 229
41 8 28 158 216 229
41 8 29 158 216 229
41 8 30 158 216 229
41 8 31 158 216 229
41 9 20 158 216 229
41 9 21 158 216 229
41 9 22 158 216 229
41 9 23 158 216 229
41 9 24 158 216 229
41 9 25 158 216 229
41 9 26 158 216 229
41 9 27 158 216 229
41 9 28 158 216 229
41 9 29 158 216 229
41 9 30 158 216 229
41 9 31 158 216 229
41 10 20 158 216 229
41 10 21 158 216 229
41 10 22 158 216 229
41 10 23 158 216 229
41 10 24 158 216 229
41 10 25 158 216 229
41 10 26 158 216 229
41 10 27 158 216 229
41 10 28 158 216 229
41 10 29 158 216 229
41 10 30 158 216 229
41 10 31 158 216 229
41 11 20 158 216 229
41 11 21 158 216 229
41 11 22 158 216 229
41 11 23 158 216 229
41 11 24 158 216 229
41 11 25 158 216 229
41 11 26 158 216 229
41 11 27 158 216 229
41 11 28 158 216 229
41 11 29 158 216 229
41 11 30 158 216 229
41 11 31 158 216 229
41 12 20 158 216 229
41 12 21 158 216 229
41 12 22 158 216 229
41 12 23 158 216 229
41 12 24 158 216 229
41 12 25 158 216 229
41 12 26 158 216 229
41 12 27 158 216 229
41 12 28 158 216 229
41 12 29 158 216 229
41 12 30 158 216 229
41 12 31 158 216 229
41 13 19 158 216 229
41 13 20 158 216 229
41 13 21 158 216 229
41 13 22 158 216 229
41 13 23 158 216 229
41 13 24 158 216 229
41 13 25 158 216 229
41 13 26 158 216 229
41 13 27 158 216 229
41 13 28 158 216 229
41 13 29 158 216 229
41 13 30 158 216 229
41 13 31 158 216 229
41 14 19 158 216 229
41 14 20 158 216 229
41 14 21 158 216 229
41 14 22 158 216 229
41 14 23 158 216 229
41 14 24 158 216 229
41 14 25 158 216 229
41 14 26 158 216 229
41 14 27 158 216 229
41 14 28 158 216 229
41 14 29 158 216 229
41 14 30 158 216 229
41 14 31 158 216 229
41 15 19 158 216 229
41 15 20 158 216 229
41 15 21 158 216 229
41 15 22 158 216 229
41 15 23 158 216 229
41 15 24 158 216 229
41 15 25 158 216 229
41 15 26 158 216 229
41 15 27 158 216 229
41 15 28 158 216 229
41 15 29 158 216 229
41 15 30 158 216 229
41 15 31 158 216 229
41 16 19 158 216 229
41 16 20 158 216 229
41 16 21 158 216 229
41 16 22 158 216 229
41 16 23 158 216 229
41 16 24 158 216 229
41 16 25 158 216 229
41 16 26 158 216 229
41 16 27 158 216 229
41 16 28 158 216 229
41 16 29 158 216 229
41 16 30 158 216 229
41 16 31 158 216 229
41 17 19 158 216 229
41 17 20 158 216 229
41 17 21 158 216 229
41 17 22 158 216 229
41 17 23 158 216 229
41 17 24 158 216 229
41 17 25 158 216 229
41 17 26 158 216 229
41 17 27 158 216 229
41 17 28 158 216 229
41 17 29 158 216 229
41 17 30 158 216 229
41 17 31 158 216 229
41 18 19 158 216 229
41 18 20 158 216 229
41 18 21 158 216 229
41 18 22 158 216 229
41 18 23 158 216 229
41 18 24 158 216 229
41 18 25 158 216 229
41 18 26 158 216 229
41 18 27 158 216 229
41 18 28 158 216 229
41 18 29 158 216 229
41 18 30 158 216 229
41 18 31 158 216 229
41 19 18 158 216 229
41 19 19 158 216 229
41 19 20 158 216 229
41 19 21 158 216 229
41 19 22 158 216 229
41 19 23 158 216 229
41 19 24 158 216 229
41 19 25 158 216 229
41 19 26 158 216 229
41 19 27 158 216 229
41 19 28 158 216 229
41 19 29 158 216 229
41 19 30 158 216 229
41 19 31 158 216 229
41 20 18 158 216 229
41 20 19 158 216 229
41 20 20 158 216 229
41 20 21 158 216 229
41 20 22 158 216 229
41 20 23 158 216 229
41 20 24 158 216 229
41 20 25 158 216 229
41 20 26 158 216 229
41 20 27 158 216 229
41 20 28 158 216 229
41 20 29 158 216 229
41 20 30 158 216 229
41 20 31 158 216 229
41 21 18 158 216 229
41 21 19 158 216 229
41 21 20 158 216 229
41 21 21 158 216 229
41 21 22 158 216 229
41 21 23 158 216 229
41 21 24 158 216 229
41 21 25 158 216 229
41 21 26 158 216 229
41 21 27 158 216 229
41 21 28 158 216 229
41 21 29 158 216 229
41 21 30 158 216 229
41 21 31 158 216 229
41 22 18 158 216 229
41 22 19 158 216 229
41 22 20 158 216 229
41 22 21 158 216 229
41 22 22 158 216 229
41 22 23 158 216 229
41 22 24 158 216 229
41 22 25 158 216 229
41 22 26 158 216 229
41 22 27 158 216 229
41 22 28 158 216 229
41 22 29 158 216 229
41 22 30 158 216 229
41 22 31 158 216 229
41 23 18 158 216 229
41 23 19 158 216 229
41 23 20 158 216 229
41 23 21 158 216 229
41 23 22 158 216 229
41 23 23 158 216 229
41 23 24 158 216 229
41 23 25 158 216 229
41 23 26 158 216 229
41 23 27 158 216 229
41 23 28 158 216 229
41 23 29 158 216 229
41 23 30 158 216 229
41 23 31 158 216 229
41 24 17 158 216 229
41 24 18 158 216 229
41 24 19 158 216 229
41 24 20 158 216 229
41 24 21 158 216 229
41 24 22 158 216 229
41 24 23 158 216 229
41 24 24 158 216 229
41 24 25 158 216 229
41 24 26 158 216 229
41 24 27 158 216 229
41 24 28 158 216 229
41 24 29 158 216 229
41 24 30 158 216 229
41 24 31 158 216 229
41 25 19 158 216 229
41 25 20 158 216 229
41 25 21 158 216 229
41 25 22 158 216 229
41 25 23 158 216 229
41 25 24 158 216 229
41 25 25 158 216 229
41 25 26 158 216 229
41 25 27 158 216 229
41 25 28 158 216 229
41 25 29 158 216 229
41 25 30 158 216 229
41 25 31 158 216 229
41 26 20 158 216 229
41 26 21 158 216 229
41 26 22 158 216 229
41 26 23 158 216 229
41 26 24 158 216 229
41 26 25 158 216 229
41 26 26 158 216 229
41 26 27 158 216 229
41 26 28 158 216 229
41 26 29 158 216 229
41 26 30 158 216 229
41 26 31 158 216 229
41 27 22 158 216 229
41 27 23 158 216 229
41 27 24 158 216 229
41 27 25 158 216 229
41 27 26 158 216 229
41 27 27 158 216 229
41 27 28 158 216 229
41 27 29 158 216 229
41 27 30 158 216 229
41 27 31 158 216 229
41 28 24 158 216 229
41 28 25 158 216 229
41 28 26 158 216 229
41 28 27 158 216 229
41 28 28 158 216 229
41 28 29 158 216 229
41 28 30 158 216 229
41 28 31 158 216 229
41 29 25 158 216 229
41 29 26 158 216 229
41 29 27 158 216 229
41 29 28 158 216 229
41 29 29 158 216 229
41 29 30 158 216 229
41 29 31 158 216 229
41 30 27 158 216 229
41 30 28 158 216 229
41 30 29 158 216 229
41 30 30 158 216 229
41 30 31 158 216 229
41 31 29 158 216 229
41 31 30 158 216 229
41 31 31 158 216 229
41 32 30 158 216 229
41 32 31 158 216 229
