ply
format ascii 1.0
element vertex 1377
property float x
property float y
property float z
property uchar red
property uchar green
property uchar blue
end_header
24 6 6 158 216 229
25 4 7 158 216 229
25 5 7 158 216 229
25 6 6 158 216 229
25 6 7 158 216 229
25 7 6 158 216 229
25 7 7 158 216 229
25 8 6 158 216 229
25 8 7 158 216 229
25 9 6 158 216 229
25 9 7 158 216 229
25 10 6 158 216 229
25 10 7 158 216 229
25 11 7 158 216 229
25 12 7 158 216 229
26 2 9 158 216 229
26 3 8 158 216 229
26 3 9 158 216 229
26 4 7 158 216 229
26 4 8 158 216 229
26 4 9 158 216 229
26 5 7 158 216 229
26 5 8 158 216 229
26 5 9 158 216 229
26 6 7 158 216 229
26 6 8 158 216 229
26 6 9 158 216 229
26 7 7 158 216 229
26 7 8 158 216 229
26 7 9 158 216 229
26 8 7 158 216 229
26 8 8 158 216 229
26 8 9 158 216 229
26 9 7 158 216 229
26 9 8 158 216 229
26 9 9 158 216 229
26 10 7 158 216 229
26 10 8 158 216 229
26 10 9 158 216 229
26 11 7 158 216 229
26 11 8 158 216 229
26 11 9 158 216 229
26 12 7 158 216 229
26 12 8 158 216 229
26 12 9 158 216 229
26 13 7 158 216 229
26 13 8 158 216 229
27 1 10 158 216 229
27 2 9 158 216 229
27 2 10 158 216 229
27 3 9 158 216 229
27 3 10 158 216 229
27 4 9 158 216 229
27 4 10 158 216 229
27 5 9 158 216 229
27 5 10 158 216 229
27 6 9 158 216 229
27 6 10 158 216 229
27 7 9 158 216 229
27 7 10 158 216 229
27 8 9 158 216 229
27 8 10 158 216 229
27 9 9 158 216 229
27 9 10 158 216 229
27 10 9 158 216 229
27 10 10 158 216 229
27 11 9 158 216 229
27 11 10 158 216 229
27 12 9 158 216 229
27 12 10 158 216 229
28 0 11 114 158 206
28 0 12 114 158 206
28 1 10 158 216 229
28 1 11 158 216 229
28 1 12 114 158 206
28 1 13 114 158 206
28 2 10 158 216 229
28 2 11 158 216 229
28 2 12 114 158 206
28 2 13 114 158 206
28 3 10 158 216 229
28 3 11 158 216 229
28 3 12 114 158 206
28 3 13 114 158 206
28 4 10 158 216 229
28 4 11 158 216 229
28 4 12 114 158 206
28 4 13 114 158 206
28 5 10 158 216 229
28 5 11 158 216 229
28 5 12 114 158 206
28 5 13 114 158 206
28 6 10 158 216 229
28 6 11 158 216 229
28 6 12 114 158 206
28 6 13 114 158 206
28 7 10 158 216 229
28 7 11 158 216 229
28 7 12 114 158 206
28 7 13 114 158 206
28 8 10 158 216 229
28 8 11 158 216 229
28 8 12 114 158 206
28 8 13 114 158 206
28 9 10 158 216 229
28 9 11 158 216 229
28 9 12 114 158 206
28 9 13 114 158 206
28 10 10 158 216 229
28 10 11 158 216 229
28 10 12 114 158 206
28 10 13 114 158 206
28 11 10 158 216 229
28 11 11 158 216 229
28 11 12 114 158 206
28 11 13 114 158 206
28 12 10 158 216 229
28 12 11 158 216 229
28 12 12 114 158 206
28 12 13 114 158 206
29 0 11 43 160 4
29 0 12 114 158 206
29 0 13 114 158 206
29 0 14 114 158 206
29 1 11 114 158 206
29 1 12 114 158 206
29 1 13 114 158 206
29 1 14 114 158 206
29 2 11 114 158 206
29 2 12 114 158 206
29 2 13 114 158 206
29 2 14 114 158 206
29 3 11 114 158 206
29 3 12 114 158 206
29 3 13 114 158 206
29 3 14 114 158 206
29 4 11 114 158 206
29 4 12 114 158 206
29 4 13 114 158 206
29 4 14 114 158 206
29 5 11 114 158 206
29 5 12 114 158 206
29 5 13 114 158 206
29 5 14 114 158 206
29 6 11 114 158 206
29 6 12 114 158 206
29 6 13 114 158 206
29 6 14 114 158 206
29 7 11 114 158 206
29 7 12 114 158 206
29 7 13 114 158 206
29 7 14 114 158 206
29 8 11 114 158 206
29 8 12 114 158 206
29 8 13 114 158 206
29 8 14 114 158 206
29 9 11 114 158 206
29 9 12 114 158 206
29 9 13 114 158 206
29 9 14 114 158 206
29 10 11 114 158 206
29 10 12 114 158 206
29 10 13 114 158 206
29 10 14 114 158 206
29 11 11 114 158 206
29 11 12 114 158 206
29 11 13 114 158 206
29 11 14 114 158 206
29 12 11 114 158 206
29 12 12 114 158 206
29 12 13 114 158 206
29 12 14 114 158 206
30 0 11 43 160 4
30 0 12 43 160 4
30 0 13 114 158 206
30 0 14 114 158 206
30 0 15 114 158 206
30 1 12 114 158 206
30 1 13 114 158 206
30 1 14 114 158 206
30 1 15 114 158 206
30 1 16 114 158 206
30 2 12 114 158 206
30 2 13 114 158 206
30 2 14 114 158 206
30 2 15 114 158 206
30 2 16 114 158 206
30 3 12 114 158 206
30 3 13 114 158 206
30 3 14 114 158 206
30 3 15 114 158 206
30 3 16 114 158 206
30 4 12 114 158 206
30 4 13 114 158 206
30 4 14 114 158 206
30 4 15 114 158 206
30 4 16 114 158 206
30 5 12 114 158 206
30 5 13 114 158 206
30 5 14 114 158 206
30 5 15 114 158 206
30 5 16 114 158 206
30 6 12 114 158 206
30 6 13 114 158 206
30 6 14 114 158 206
30 6 15 114 158 206
30 6 16 114 158 206
30 7 12 114 158 206
30 7 13 114 158 206
30 7 14 114 158 206
30 7 15 114 158 206
30 7 16 114 158 206
30 8 12 114 158 206
30 8 13 114 158 206
30 8 14 114 158 206
30 8 15 114 158 206
30 8 16 114 158 206
30 9 12 114 158 206
30 9 13 114 158 206
30 9 14 114 158 206
30 9 15 114 158 206
30 9 16 114 158 206
30 10 12 114 158 206
30 10 13 114 158 206
30 10 14 114 158 206
30 10 15 114 158 206
30 10 16 114 158 206
30 11 12 114 158 206
30 11 13 114 158 206
30 11 14 114 158 206
30 11 15 114 158 206
30 11 16 114 158 206
30 12 12 114 158 206
30 12 13 114 158 206
30 12 14 114 158 206
30 12 15 114 158 206
30 12 16 114 158 206
31 0 11 43 160 4
31 0 12 43 160 4
31 0 13 43 160 4
31 0 14 43 160 4
31 0 15 114 158 206
31 0 16 114 158 206
31 0 17 114 158 206
31 1 14 114 158 206
31 1 15 114 158 206
31 1 16 114 158 206
31 1 17 114 158 206
31 2 14 114 158 206
31 2 15 114 158 206
31 2 16 114 158 206
31 2 17 114 158 206
31 3 14 114 158 206
31 3 15 114 158 206
31 3 16 114 158 206
31 3 17 114 158 206
31 4 14 114 158 206
31 4 15 114 158 206
31 4 16 114 158 206
31 4 17 114 158 206
31 5 14 114 158 206
31 5 15 114 158 206
31 5 16 114 158 206
31 5 17 114 158 206
31 6 14 114 158 206
31 6 15 114 158 206
31 6 16 114 158 206
31 6 17 114 158 206
31 7 14 114 158 206
31 7 15 114 158 206
31 7 16 114 158 206
31 7 17 114 158 206
31 8 14 114 158 206
31 8 15 114 158 206
31 8 16 114 158 206
31 8 17 114 158 206
31 9 14 114 158 206
31 9 15 114 158 206
31 9 16 114 158 206
31 9 17 114 158 206
31 10 14 114 158 206
31 10 15 114 158 206
31 10 16 114 158 206
31 10 17 114 158 206
31 11 14 114 158 206
31 11 15 114 158 206
31 11 16 114 158 206
31 11 17 114 158 206
31 12 14 114 158 206
31 12 15 114 158 206
31 12 16 114 158 206
31 12 17 114 158 206
32 0 11 43 160 4
32 0 12 43 160 4
32 0 13 43 160 4
32 0 14 43 160 4
32 0 15 43 160 4
32 0 16 114 158 206
32 0 17 114 158 206
32 0 18 114 158 206
32 1 15 114 158 206
32 1 16 114 158 206
32 1 17 114 158 206
32 1 18 114 158 206
32 1 19 114 158 206
32 2 15 114 158 206
32 2 16 114 158 206
32 2 17 114 158 206
32 2 18 114 158 206
32 2 19 114 158 206
32 3 15 114 158 206
32 3 16 114 158 206
32 3 17 114 158 206
32 3 18 114 158 206
32 3 19 114 158 206
32 4 15 114 158 206
32 4 16 114 158 206
32 4 17 114 158 206
32 4 18 114 158 206
32 4 19 114 158 206
32 5 15 114 158 206
32 5 16 114 158 206
32 5 17 114 158 206
32 5 18 114 158 206
32 5 19 114 158 206
32 6 6 255 186 119
32 6 15 114 158 206
32 6 16 114 158 206
32 6 17 114 158 206
32 6 18 114 158 206
32 6 19 114 158 206
32 7 5 255 186 119
32 7 15 114 158 206
32 7 16 114 158 206
32 7 17 114 158 206
32 7 18 114 158 206
32 7 19 114 158 206
32 8 15 114 158 206
32 8 16 114 158 206
32 8 17 114 158 206
32 8 18 114 158 206
32 8 19 114 158 206
32 9 15 114 158 206
32 9 16 114 158 206
32 9 17 114 158 206
32 9 18 114 158 206
32 9 19 114 158 206
32 10 15 114 158 206
32 10 16 114 158 206
32 10 17 114 158 206
32 10 18 114 158 206
32 10 19 114 158 206
32 11 15 114 158 206
32 11 16 114 158 206
32 11 17 114 158 206
32 11 18 114 158 206
32 11 19 114 158 206
32 12 15 114 158 206
32 12 16 114 158 206
32 12 17 114 158 206
32 12 18 114 158 206
32 12 19 114 158 206
33 0 11 43 160 4
33 0 12 43 160 4
33 0 13 43 160 4
33 0 14 43 160 4
33 0 15 43 160 4
33 0 16 43 160 4
33 0 17 43 160 4
33 0 18 114 158 206
33 0 19 114 158 206
33 1 16 114 158 206
33 1 17 114 158 206
33 1 18 114 158 206
33 1 19 114 158 206
33 1 20 114 158 206
33 2 16 114 158 206
33 2 17 114 158 206
33 2 18 114 158 206
33 2 19 114 158 206
33 2 20 114 158 206
33 3 16 114 158 206
33 3 17 114 158 206
33 3 18 114 158 206
33 3 19 114 158 206
33 3 20 114 158 206
33 4 7 255 186 119
33 4 16 114 158 206
33 4 17 114 158 206
33 4 18 114 158 206
33 4 19 114 158 206
33 4 20 114 158 206
33 5 7 255 186 119
33 5 16 114 158 206
33 5 17 114 158 206
33 5 18 114 158 206
33 5 19 114 158 206
33 5 20 114 158 206
33 6 6 255 186 119
33 6 7 255 186 119
33 6 16 114 158 206
33 6 17 114 158 206
33 6 18 114 158 206
33 6 19 114 158 206
33 6 20 114 158 206
33 7 5 255 186 119
33 7 6 255 186 119
33 7 7 255 186 119
33 7 16 114 158 206
33 7 17 114 158 206
33 7 18 114 158 206
33 7 19 114 158 206
33 7 20 114 158 206
33 8 16 114 158 206
33 8 17 114 158 206
33 8 18 114 158 206
33 8 19 114 158 206
33 8 20 114 158 206
33 9 16 114 158 206
33 9 17 114 158 206
33 9 18 114 158 206
33 9 19 114 158 206
33 9 20 114 158 206
33 10 16 114 158 206
33 10 17 114 158 206
33 10 18 114 158 206
33 10 19 114 158 206
33 10 20 114 158 206
33 11 16 114 158 206
33 11 17 114 158 206
33 11 18 114 158 206
33 11 19 114 158 206
33 11 20 114 158 206
33 12 16 114 158 206
33 12 17 114 158 206
33 12 18 114 158 206
33 12 19 114 158 206
33 12 20 114 158 206
34 0 11 43 160 4
34 0 12 43 160 4
34 0 13 43 160 4
34 0 14 43 160 4
34 0 15 43 160 4
34 0 16 43 160 4
34 0 17 43 160 4
34 0 18 43 160 4
34 0 19 43 160 4
34 0 20 114 158 206
34 0 21 114 158 206
34 1 18 114 158 206
34 1 19 114 158 206
34 1 20 114 158 206
34 1 21 114 158 206
34 2 9 255 186 119
34 2 18 114 158 206
34 2 19 114 158 206
34 2 20 114 158 206
34 2 21 114 158 206
34 3 8 255 186 119
34 3 9 255 186 119
34 3 18 114 158 206
34 3 19 114 158 206
34 3 20 114 158 206
34 3 21 114 158 206
34 4 7 255 186 119
34 4 8 255 186 119
34 4 9 255 186 119
34 4 18 114 158 206
34 4 19 114 158 206
34 4 20 114 158 206
34 4 21 114 158 206
34 5 7 255 186 119
34 5 8 255 186 119
34 5 9 255 186 119
34 5 18 114 158 206
34 5 19 114 158 206
34 5 20 114 158 206
34 5 21 114 158 206
34 6 6 255 186 119
34 6 7 255 186 119
34 6 8 255 186 119
34 6 9 255 186 119
34 6 18 114 158 206
34 6 19 114 158 206
34 6 20 114 158 206
34 6 21 114 158 206
34 7 5 255 186 119
34 7 6 255 186 119
34 7 7 255 186 119
34 7 8 255 186 119
34 7 18 114 158 206
34 7 19 114 158 206
34 7 20 114 158 206
34 7 21 114 158 206
34 8 18 114 158 206
34 8 19 114 158 206
34 8 20 114 158 206
34 8 21 114 158 206
34 9 18 114 158 206
34 9 19 114 158 206
34 9 20 114 158 206
34 9 21 114 158 206
34 10 18 114 158 206
34 10 19 114 158 206
34 10 20 114 158 206
34 10 21 114 158 206
34 11 18 114 158 206
34 11 19 114 158 206
34 11 20 114 158 206
34 11 21 114 158 206
34 12 18 114 158 206
34 12 19 114 158 206
34 12 20 114 158 206
34 12 21 114 158 206
35 0 11 43 160 4
35 0 12 43 160 4
35 0 13 43 160 4
35 0 14 43 160 4
35 0 15 43 160 4
35 0 16 43 160 4
35 0 17 43 160 4
35 0 18 43 160 4
35 0 19 43 160 4
35 0 20 43 160 4
35 0 21 114 158 206
35 0 22 114 158 206
35 1 10 255 186 119
35 1 19 114 158 206
35 1 20 114 158 206
35 1 21 114 158 206
35 1 22 114 158 206
35 1 23 114 158 206
35 2 9 255 186 119
35 2 10 255 186 119
35 2 19 114 158 206
35 2 20 114 158 206
35 2 21 114 158 206
35 2 22 114 158 206
35 2 23 114 158 206
35 3 8 255 186 119
35 3 9 255 186 119
35 3 10 255 186 119
35 3 19 114 158 206
35 3 20 114 158 206
35 3 21 114 158 206
35 3 22 114 158 206
35 3 23 114 158 206
35 4 7 255 186 119
35 4 8 255 186 119
35 4 9 255 186 119
35 4 10 255 186 119
35 4 19 114 158 206
35 4 20 114 158 206
35 4 21 114 158 206
35 4 22 114 158 206
35 4 23 114 158 206
35 5 7 255 186 119
35 5 8 255 186 119
35 5 9 255 186 119
35 5 10 255 186 119
35 5 19 114 158 206
35 5 20 114 158 206
35 5 21 114 158 206
35 5 22 114 158 206
35 5 23 114 158 206
35 6 6 255 186 119
35 6 7 255 186 119
35 6 8 255 186 119
35 6 9 255 186 119
35 6 10 255 186 119
35 6 19 114 158 206
35 6 20 114 158 206
35 6 21 114 158 206
35 6 22 114 158 206
35 6 23 114 158 206
35 7 7 255 186 119
35 7 8 255 186 119
35 7 9 255 186 119
35 7 10 255 186 119
35 7 19 114 158 206
35 7 20 114 158 206
35 7 21 114 158 206
35 7 22 114 158 206
35 7 23 114 158 206
35 8 19 114 158 206
35 8 20 114 158 206
35 8 21 114 158 206
35 8 22 114 158 206
35 8 23 114 158 206
35 9 19 114 158 206
35 9 20 114 158 206
35 9 21 114 158 206
35 9 22 114 158 206
35 9 23 114 158 206
35 10 19 114 158 206
35 10 20 114 158 206
35 10 21 114 158 206
35 10 22 114 158 206
35 10 23 114 158 206
35 11 19 114 158 206
35 11 20 114 158 206
35 11 21 114 158 206
35 11 22 114 158 206
35 11 23 114 158 206
35 12 19 114 158 206
35 12 20 114 158 206
35 12 21 114 158 206
35 12 22 114 158 206
35 12 23 114 158 206
36 0 11 43 160 4
36 0 12 43 160 4
36 0 13 43 160 4
36 0 14 43 160 4
36 0 15 43 160 4
36 0 16 43 160 4
36 0 17 43 160 4
36 0 18 43 160 4
36 0 19 43 160 4
36 0 20 43 160 4
36 0 21 43 160 4
36 0 22 43 160 4
36 0 23 114 158 206
36 1 10 255 186 119
36 1 11 255 186 119
36 1 21 114 158 206
36 1 22 114 158 206
36 1 23 114 158 206
36 1 24 158 216 229
36 2 9 255 186 119
36 2 10 255 186 119
36 2 11 255 186 119
36 2 21 114 158 206
36 2 22 114 158 206
36 2 23 114 158 206
36 2 24 158 216 229
36 3 8 255 186 119
36 3 9 255 186 119
36 3 10 255 186 119
36 3 11 255 186 119
36 3 21 114 158 206
36 3 22 114 158 206
36 3 23 114 158 206
36 3 24 158 216 229
36 4 7 255 186 119
36 4 8 255 186 119
36 4 9 255 186 119
36 4 10 255 186 119
36 4 11 255 186 119
36 4 21 114 158 206
36 4 22 114 158 206
36 4 23 114 158 206
36 4 24 158 216 229
36 5 8 255 186 119
36 5 9 255 186 119
36 5 10 255 186 119
36 5 11 255 186 119
36 5 21 114 158 206
36 5 22 114 158 206
36 5 23 114 158 206
36 5 24 158 216 229
36 6 8 255 186 119
36 6 9 255 186 119
36 6 10 255 186 119
36 6 11 255 186 119
36 6 21 114 158 206
36 6 22 114 158 206
36 6 23 114 158 206
36 6 24 158 216 229
36 7 9 255 186 119
36 7 10 255 186 119
36 7 11 255 186 119
36 7 21 114 158 206
36 7 22 114 158 206
36 7 23 114 158 206
36 7 24 158 216 229
36 8 21 114 158 206
36 8 22 114 158 206
36 8 23 114 158 206
36 8 24 158 216 229
36 9 21 114 158 206
36 9 22 114 158 206
36 9 23 114 158 206
36 9 24 158 216 229
36 10 21 114 158 206
36 10 22 114 158 206
36 10 23 114 158 206
36 10 24 158 216 229
36 11 21 114 158 206
36 11 22 114 158 206
36 11 23 114 158 206
36 11 24 158 216 229
36 12 21 114 158 206
36 12 22 114 158 206
36 12 23 114 158 206
36 12 24 158 216 229
37 0 11 43 160 4
37 0 12 43 160 4
37 0 13 43 160 4
37 0 14 43 160 4
37 0 15 43 160 4
37 0 16 43 160 4
37 0 17 43 160 4
37 0 18 43 160 4
37 0 19 43 160 4
37 0 20 43 160 4
37 0 21 43 160 4
37 0 22 43 160 4
37 0 23 255 127 12
37 0 24 43 160 4
37 0 25 158 216 229
37 1 10 255 186 119
37 1 11 255 186 119
37 1 12 255 186 119
37 1 13 255 186 119
37 1 22 114 158 206
37 1 23 255 127 12
37 1 24 158 216 229
37 1 25 158 216 229
37 2 9 255 186 119
37 2 10 255 186 119
37 2 11 255 186 119
37 2 12 255 186 119
37 2 13 255 186 119
37 2 22 114 158 206
37 2 23 255 127 12
37 2 24 158 216 229
37 2 25 158 216 229
37 3 9 255 186 119
37 3 10 255 186 119
37 3 11 255 186 119
37 3 12 255 186 119
37 3 13 255 186 119
37 3 22 114 158 206
37 3 23 255 127 12
37 3 24 158 216 229
37 3 25 158 216 229
37 4 9 255 186 119
37 4 10 255 186 119
37 4 11 255 186 119
37 4 12 255 186 119
37 4 13 255 186 119
37 4 22 114 158 206
37 4 23 255 127 12
37 4 24 158 216 229
37 4 25 158 216 229
37 5 10 255 186 119
37 5 11 255 186 119
37 5 12 255 186 119
37 5 13 255 186 119
37 5 22 114 158 206
37 5 23 255 127 12
37 5 24 158 216 229
37 5 25 158 216 229
37 6 10 255 186 119
37 6 11 255 186 119
37 6 12 255 186 119
37 6 13 255 186 119
37 6 22 114 158 206
37 6 23 255 127 12
37 6 24 158 216 229
37 6 25 158 216 229
37 7 11 255 186 119
37 7 12 255 186 119
37 7 13 255 186 119
37 7 22 114 158 206
37 7 23 158 216 229
37 7 24 158 216 229
37 7 25 158 216 229
37 8 22 114 158 206
37 8 23 158 216 229
37 8 24 158 216 229
37 8 25 158 216 229
37 9 22 114 158 206
37 9 23 158 216 229
37 9 24 158 216 229
37 9 25 158 216 229
37 10 22 114 158 206
37 10 23 158 216 229
37 10 24 158 216 229
37 10 25 158 216 229
37 11 22 114 158 206
37 11 23 158 216 229
37 11 24 158 216 229
37 11 25 158 216 229
37 12 22 114 158 206
37 12 23 158 216 229
37 12 24 158 216 229
37 12 25 158 216 229
38 0 11 43 160 4
38 0 12 43 160 4
38 0 13 43 160 4
38 0 14 43 160 4
38 0 15 43 160 4
38 0 16 43 160 4
38 0 17 43 160 4
38 0 18 43 160 4
38 0 19 43 160 4
38 0 20 43 160 4
38 0 21 43 160 4
38 0 22 255 127 12
38 0 23 255 127 12
38 0 24 43 160 4
38 0 25 43 160 4
38 0 26 158 216 229
38 1 10 255 186 119
38 1 11 255 186 119
38 1 12 255 186 119
38 1 13 255 186 119
38 1 14 255 186 119
38 1 22 255 127 12
38 1 23 255 127 12
38 1 24 255 127 12
38 1 25 158 216 229
38 1 26 158 216 229
38 2 10 255 186 119
38 2 11 255 186 119
38 2 12 255 186 119
38 2 13 255 186 119
38 2 14 255 186 119
38 2 22 255 127 12
38 2 23 255 127 12
38 2 24 255 127 12
38 2 25 158 216 229
38 2 26 158 216 229
38 3 10 255 186 119
38 3 11 255 186 119
38 3 12 255 186 119
38 3 13 255 186 119
38 3 14 255 186 119
38 3 22 255 127 12
38 3 23 255 127 12
38 3 24 255 127 12
38 3 25 158 216 229
38 3 26 158 216 229
38 4 11 255 186 119
38 4 12 255 186 119
38 4 13 255 186 119
38 4 14 255 186 119
38 4 22 255 127 12
38 4 23 255 127 12
38 4 24 255 127 12
38 4 25 158 216 229
38 4 26 158 216 229
38 5 11 255 186 119
38 5 12 255 186 119
38 5 13 255 186 119
38 5 14 255 186 119
38 5 22 255 127 12
38 5 23 255 127 12
38 5 24 255 127 12
38 5 25 158 216 229
38 5 26 158 216 229
38 6 12 255 186 119
38 6 13 255 186 119
38 6 14 255 186 119
38 6 22 255 127 12
38 6 23 255 127 12
38 6 24 255 127 12
38 6 25 158 216 229
38 6 26 158 216 229
38 7 13 255 186 119
38 7 14 255 186 119
38 7 24 196 175 214
38 7 25 196 175 214
38 7 26 158 216 229
38 8 24 196 175 214
38 8 25 196 175 214
38 8 26 158 216 229
38 9 24 196 175 214
38 9 25 196 175 214
38 9 26 158 216 229
38 10 24 196 175 214
38 10 25 196 175 214
38 10 26 158 216 229
38 11 25 158 216 229
38 11 26 158 216 229
38 12 25 158 216 229
38 12 26 158 216 229
39 0 11 43 160 4
39 0 12 43 160 4
39 0 13 43 160 4
39 0 14 43 160 4
39 0 15 43 160 4
39 0 16 43 160 4
39 0 17 43 160 4
39 0 18 43 160 4
39 0 19 43 160 4
39 0 20 43 160 4
39 0 21 43 160 4
39 0 22 255 127 12
39 0 23 255 127 12
39 0 24 43 160 4
39 0 25 43 160 4
39 0 26 43 160 4
39 0 27 158 216 229
39 1 11 255 186 119
39 1 12 255 186 119
39 1 13 255 186 119
39 1 14 255 186 119
39 1 15 255 186 119
39 1 16 255 186 119
39 1 21 255 127 12
39 1 22 255 127 12
39 1 23 255 127 12
39 1 24 255 127 12
39 1 25 255 127 12
39 1 26 255 127 12
39 1 27 158 216 229
39 2 12 255 186 119
39 2 13 255 186 119
39 2 14 255 186 119
39 2 15 255 186 119
39 2 16 255 186 119
39 2 21 255 127 12
39 2 22 255 127 12
39 2 23 255 127 12
39 2 24 255 127 12
39 2 25 255 127 12
39 2 26 255 127 12
39 2 27 158 216 229
39 3 12 255 186 119
39 3 13 255 186 119
39 3 14 255 186 119
39 3 15 255 186 119
39 3 16 255 186 119
39 3 21 255 127 12
39 3 22 255 127 12
39 3 23 255 127 12
39 3 24 255 127 12
39 3 25 255 127 12
39 3 26 255 127 12
39 3 27 158 216 229
39 4 13 255 186 119
39 4 14 255 186 119
39 4 15 255 186 119
39 4 16 255 186 119
39 4 21 255 127 12
39 4 22 255 127 12
39 4 23 255 127 12
39 4 24 255 127 12
39 4 25 255 127 12
39 4 26 255 127 12
39 4 27 158 216 229
39 5 13 255 186 119
39 5 14 255 186 119
39 5 15 255 186 119
39 5 16 255 186 119
39 5 21 255 127 12
39 5 22 255 127 12
39 5 23 255 127 12
39 5 24 255 127 12
39 5 25 255 127 12
39 5 26 255 127 12
39 5 27 158 216 229
39 6 14 255 186 119
39 6 15 255 186 119
39 6 16 255 186 119
39 6 21 255 127 12
39 6 22 255 127 12
39 6 23 255 127 12
39 6 24 255 127 12
39 6 25 255 127 12
39 6 26 255 127 12
39 6 27 158 216 229
39 7 14 255 186 119
39 7 15 255 186 119
39 7 24 196 175 214
39 7 25 196 175 214
39 7 26 196 175 214
39 7 27 158 216 229
39 8 24 196 175 214
39 8 25 196 175 214
39 8 26 196 175 214
39 8 27 158 216 229
39 9 24 196 175 214
39 9 25 196 175 214
39 9 26 196 175 214
39 9 27 158 216 229
39 10 24 196 175 214
39 10 25 196 175 214
39 10 26 196 175 214
39 10 27 158 216 229
39 11 24 196 175 214
39 11 25 196 175 214
39 11 26 196 175 214
39 11 27 158 216 229
39 12 26 158 216 229
39 12 27 158 216 229
40 0 13 43 160 4
40 0 14 43 160 4
40 0 15 43 160 4
40 0 16 43 160 4
40 0 17 43 160 4
40 0 18 43 160 4
40 0 19 43 160 4
40 0 20 43 160 4
40 0 21 255 127 12
40 0 22 255 127 12
40 0 23 255 127 12
40 0 24 43 160 4
40 0 25 43 160 4
40 0 26 43 160 4
40 0 27 158 216 229
40 1 13 255 186 119
40 1 14 255 186 119
40 1 15 255 186 119
40 1 16 255 186 119
40 1 17 255 186 119
40 1 20 255 127 12
40 1 21 255 127 12
40 1 22 255 127 12
40 1 23 255 127 12
40 1 24 255 127 12
40 1 25 255 127 12
40 1 26 255 127 12
40 1 27 158 216 229
40 2 14 255 186 119
40 2 15 255 186 119
40 2 16 255 186 119
40 2 17 255 186 119
40 2 20 255 127 12
40 2 21 255 127 12
40 2 22 255 127 12
40 2 23 255 127 12
40 2 24 255 127 12
40 2 25 255 127 12
40 2 26 255 127 12
40 2 27 158 216 229
40 3 14 255 186 119
40 3 15 255 186 119
40 3 16 255 186 119
40 3 17 255 186 119
40 3 20 255 127 12
40 3 21 255 127 12
40 3 22 255 127 12
40 3 23 255 127 12
40 3 24 255 127 12
40 3 25 255 127 12
40 3 26 255 127 12
40 3 27 158 216 229
40 4 15 255 186 119
40 4 16 255 186 119
40 4 17 255 186 119
40 4 20 255 127 12
40 4 21 255 127 12
40 4 22 255 127 12
40 4 23 255 127 12
40 4 24 255 127 12
40 4 25 255 127 12
40 4 26 255 127 12
40 4 27 158 216 229
40 5 15 255 186 119
40 5 16 255 186 119
40 5 17 255 186 119
40 5 20 255 127 12
40 5 21 255 127 12
40 5 22 255 127 12
40 5 23 255 127 12
40 5 24 255 127 12
40 5 25 255 127 12
40 5 26 255 127 12
40 5 27 158 216 229
40 6 16 255 186 119
40 6 17 255 186 119
40 6 21 255 127 12
40 6 22 255 127 12
40 6 23 255 127 12
40 6 24 255 127 12
40 6 25 255 127 12
40 6 26 255 127 12
40 6 27 158 216 229
40 7 16 255 186 119
40 7 17 255 186 119
40 7 23 196 175 214
40 7 24 196 175 214
40 7 25 196 175 214
40 7 26 196 175 214
40 7 27 158 216 229
40 8 23 196 175 214
40 8 24 196 175 214
40 8 25 196 175 214
40 8 26 196 175 214
40 8 27 158 216 229
40 9 23 196 175 214
40 9 24 196 175 214
40 9 25 196 175 214
40 9 26 196 175 214
40 9 27 158 216 229
40 10 23 196 175 214
40 10 24 196 175 214
40 10 25 196 175 214
40 10 26 196 175 214
40 10 27 158 216 229
40 11 23 196 175 214
40 11 24 196 175 214
40 11 25 196 175 214
40 11 26 158 216 229
40 11 27 158 216 229
40 12 26 158 216 229
40 12 27 158 216 229
41 0 14 43 160 4
41 0 15 43 160 4
41 0 16 43 160 4
41 0 17 43 160 4
41 0 18 43 160 4
41 0 19 43 160 4
41 0 20 255 127 12
41 0 21 255 127 12
41 0 22 255 127 12
41 0 23 255 127 12
41 0 24 43 160 4
41 0 25 43 160 4
41 0 26 43 160 4
41 1 15 255 186 119
41 1 16 255 186 119
41 1 17 255 186 119
41 1 18 255 186 119
41 1 19 255 186 119
41 1 20 255 127 12
41 1 21 255 127 12
41 1 22 255 127 12
41 1 23 255 127 12
41 1 24 255 127 12
41 1 25 255 127 12
41 1 26 158 216 229
41 2 15 255 186 119
41 2 16 255 186 119
41 2 17 255 186 119
41 2 18 255 186 119
41 2 19 255 186 119
41 2 20 255 127 12
41 2 21 255 127 12
41 2 22 255 127 12
41 2 23 255 127 12
41 2 24 255 127 12
41 2 25 255 127 12
41 2 26 158 216 229
41 3 16 255 186 119
41 3 17 255 186 119
41 3 18 255 186 119
41 3 19 255 186 119
41 3 20 255 127 12
41 3 21 255 127 12
41 3 22 255 127 12
41 3 23 255 127 12
41 3 24 255 127 12
41 3 25 255 127 12
41 3 26 158 216 229
41 4 17 255 186 119
41 4 18 255 186 119
41 4 19 255 186 119
41 4 20 255 127 12
41 4 21 255 127 12
41 4 22 255 127 12
41 4 23 255 127 12
41 4 24 255 127 12
41 4 25 255 127 12
41 4 26 158 216 229
41 5 17 255 186 119
41 5 18 255 186 119
41 5 19 255 186 119
41 5 20 255 127 12
41 5 21 255 127 12
41 5 22 255 127 12
41 5 23 255 127 12
41 5 24 255 127 12
41 5 25 255 127 12
41 5 26 158 216 229
41 6 18 255 186 119
41 6 19 255 186 119
41 6 20 255 127 12
41 6 21 255 127 12
41 6 22 255 127 12
41 6 23 255 127 12
41 6 24 255 127 12
41 6 25 255 127 12
41 6 26 158 216 229
41 7 18 255 186 119
41 7 23 196 175 214
41 7 24 196 175 214
41 7 25 196 175 214
41 7 26 158 216 229
41 8 23 196 175 214
41 8 24 196 175 214
41 8 25 196 175 214
41 8 26 158 216 229
41 9 23 196 175 214
41 9 24 196 175 214
41 9 25 196 175 214
41 9 26 158 216 229
41 10 23 196 175 214
41 10 24 196 175 214
41 10 25 196 175 214
41 10 26 158 216 229
41 11 23 196 175 214
41 11 24 196 175 214
41 11 25 196 175 214
41 11 26 158 216 229
41 12 26 158 216 229
42 0 16 43 160 4
42 0 17 43 160 4
42 0 18 43 160 4
42 0 19 43 160 4
42 0 20 255 127 12
42 0 21 255 127 12
42 0 22 255 127 12
42 0 23 255 127 12
42 0 24 43 160 4
42 0 25 43 160 4
42 1 17 255 186 119
42 1 18 255 186 119
42 1 19 255 186 119
42 1 20 255 127 12
42 1 21 255 127 12
42 1 22 255 127 12
42 1 23 255 127 12
42 1 24 255 127 12
42 1 25 158 216 229
42 1 26 158 216 229
42 2 17 255 186 119
42 2 18 255 186 119
42 2 19 255 186 119
42 2 20 255 127 12
42 2 21 255 127 12
42 2 22 255 127 12
42 2 23 255 127 12
42 2 24 255 127 12
42 2 25 158 216 229
42 2 26 158 216 229
42 3 18 255 186 119
42 3 19 255 186 119
42 3 20 255 127 12
42 3 21 255 127 12
42 3 22 255 127 12
42 3 23 255 127 12
42 3 24 255 127 12
42 3 25 158 216 229
42 3 26 158 216 229
42 4 18 255 186 119
42 4 19 255 186 119
42 4 20 255 127 12
42 4 21 255 127 12
42 4 22 255 127 12
42 4 23 255 127 12
42 4 24 255 127 12
42 4 25 158 216 229
42 4 26 158 216 229
42 5 19 255 186 119
42 5 20 255 127 12
42 5 21 255 127 12
42 5 22 255 127 12
42 5 23 255 127 12
42 5 24 255 127 12
42 5 25 158 216 229
42 5 26 158 216 229
42 6 19 255 186 119
42 6 20 255 127 12
42 6 21 255 127 12
42 6 22 255 127 12
42 6 23 255 127 12
42 6 24 255 127 12
42 6 25 158 216 229
42 6 26 158 216 229
42 7 20 255 186 119
42 7 22 196 175 214
42 7 23 196 175 214
42 7 24 196 175 214
42 7 25 196 175 214
42 7 26 158 216 229
42 8 22 196 175 214
42 8 23 196 175 214
42 8 24 196 175 214
42 8 25 158 216 229
42 8 26 158 216 229
42 9 24 196 175 214
42 9 25 158 216 229
42 9 26 158 216 229
42 10 24 196 175 214
42 10 25 158 216 229
42 10 26 158 216 229
42 11 25 158 216 229
42 11 26 158 216 229
42 12 25 158 216 229
42 12 26 158 216 229
43 0 18 43 160 4
43 0 19 43 160 4
43 0 20 43 160 4
43 0 21 255 127 12
43 0 22 255 127 12
43 0 23 255 127 12
43 0 24 43 160 4
43 0 25 158 216 229
43 1 19 255 186 119
43 1 20 255 186 119
43 1 21 255 186 119
43 1 22 255 127 12
43 1 23 255 127 12
43 1 24 255 127 12
43 1 25 158 216 229
43 2 19 255 186 119
43 2 20 255 186 119
43 2 21 255 186 119
43 2 22 255 127 12
43 2 23 255 127 12
43 2 24 255 127 12
43 2 25 158 216 229
43 3 20 255 186 119
43 3 21 255 186 119
43 3 22 255 127 12
43 3 23 255 127 12
43 3 24 255 127 12
43 3 25 158 216 229
43 4 20 255 186 119
43 4 21 255 186 119
43 4 22 255 127 12
43 4 23 255 127 12
43 4 24 255 127 12
43 4 25 158 216 229
43 5 21 255 186 119
43 5 22 255 127 12
43 5 23 255 127 12
43 5 24 255 127 12
43 5 25 158 216 229
43 6 21 255 186 119
43 6 22 255 127 12
43 6 23 255 127 12
43 6 24 255 127 12
43 6 25 158 216 229
43 7 23 196 175 214
43 7 24 196 175 214
43 7 25 158 216 229
43 8 23 196 175 214
43 8 24 196 175 214
43 8 25 158 216 229
43 9 24 158 216 229
43 9 25 158 216 229
43 10 24 158 216 229
43 10 25 158 216 229
43 11 24 158 216 229
43 11 25 158 216 229
43 12 24 158 216 229
43 12 25 158 216 229
44 0 20 43 160 4
44 0 21 43 160 4
44 0 22 43 160 4
44 0 23 255 127 12
44 0 24 43 160 4
44 1 21 255 186 119
44 1 22 255 186 119
44 1 23 255 127 12
44 1 24 158 216 229
44 2 21 255 186 119
44 2 22 255 186 119
44 2 23 255 127 12
44 2 24 158 216 229
44 3 22 255 186 119
44 3 23 255 127 12
44 3 24 158 216 229
44 4 22 255 186 119
44 4 23 255 127 12
44 4 24 158 216 229
44 5 23 255 127 12
44 5 24 158 216 229
44 6 23 255 127 12
44 6 24 158 216 229
44 7 24 158 216 229
44 8 24 158 216 229
45 0 22 43 160 4
45 0 23 255 186 119
45 1 22 255 186 119
45 1 23 255 186 119
45 1 24 158 216 229
45 2 23 255 186 119
45 2 24 158 216 229
45 3 23 255 186 119
45 3 24 158 216 229
45 4 24 158 216 229
