ply
format ascii 1.0
element vertex 1926
property float x
property float y
property float z
property uchar red
property uchar green
property uchar blue
end_header
12 0 26 158 216 229
13 0 26 158 216 229
13 1 25 255 186 119
13 1 26 158 216 229
13 2 25 255 186 119
13 2 26 158 216 229
13 3 25 255 186 119
13 3 26 158 216 229
13 4 25 255 186 119
13 4 26 158 216 229
13 5 26 158 216 229
13 6 26 158 216 229
13 7 26 158 216 229
13 8 26 158 216 229
13 9 26 158 216 229
13 10 26 158 216 229
13 11 26 158 216 229
13 12 26 158 216 229
13 13 26 158 216 229
14 0 26 158 216 229
14 1 24 255 186 119
14 1 25 255 186 119
14 1 26 158 216 229
14 2 24 255 186 119
14 2 25 255 186 119
14 2 26 158 216 229
14 3 24 255 186 119
14 3 25 255 186 119
14 3 26 158 216 229
14 4 24 255 186 119
14 4 25 255 186 119
14 4 26 158 216 229
14 5 24 255 186 119
14 5 25 255 186 119
14 5 26 158 216 229
14 6 24 255 186 119
14 6 25 255 186 119
14 6 26 158 216 229
14 7 24 255 186 119
14 7 25 255 186 119
14 7 26 158 216 229
14 8 24 196 175 214
14 8 25 196 175 214
14 8 26 158 216 229
14 9 24 196 175 214
14 9 25 196 175 214
14 9 26 158 216 229
14 10 25 196 175 214
14 10 26 158 216 229
14 11 26 158 216 229
14 12 26 158 216 229
14 13 26 158 216 229
14 14 26 158 216 229
14 15 26 158 216 229
14 16 26 158 216 229
14 17 26 158 216 229
14 18 26 158 216 229
14 19 26 158 216 229
14 20 26 158 216 229
14 21 26 158 216 229
14 22 26 158 216 229
14 23 26 158 216 229
14 24 26 158 216 229
15 0 26 158 216 229
15 1 24 255 186 119
15 1 25 255 186 119
15 1 26 158 216 229
15 2 22 255 186 119
15 2 23 255 186 119
15 2 24 255 186 119
15 2 25 255 186 119
15 2 26 158 216 229
15 3 22 255 186 119
15 3 23 255 186 119
15 3 24 255 186 119
15 3 25 255 186 119
15 3 26 158 216 229
15 4 22 255 186 119
15 4 23 255 186 119
15 4 24 255 186 119
15 4 25 255 186 119
15 4 26 158 216 229
15 5 22 255 186 119
15 5 23 255 186 119
15 5 24 255 186 119
15 5 25 255 186 119
15 5 26 158 216 229
15 6 22 255 186 119
15 6 23 255 186 119
15 6 24 255 186 119
15 6 25 255 186 119
15 6 26 158 216 229
15 7 23 255 186 119
15 7 24 255 186 119
15 7 25 255 186 119
15 7 26 158 216 229
15 8 23 196 175 214
15 8 24 196 175 214
15 8 25 196 175 214
15 8 26 158 216 229
15 9 23 196 175 214
15 9 24 196 175 214
15 9 25 196 175 214
15 9 26 158 216 229
15 10 23 196 175 214
15 10 24 196 175 214
15 10 25 196 175 214
15 10 26 158 216 229
15 11 26 158 216 229
15 12 26 158 216 229
15 13 26 158 216 229
15 14 26 158 216 229
15 15 26 158 216 229
15 16 26 158 216 229
15 17 26 158 216 229
15 18 26 158 216 229
15 19 26 158 216 229
15 20 26 158 216 229
15 21 26 158 216 229
15 22 26 158 216 229
15 23 26 158 216 229
15 24 26 158 216 229
16 0 26 158 216 229
16 1 24 255 186 119
16 1 25 255 186 119
16 1 26 158 216 229
16 2 22 255 186 119
16 2 23 255 186 119
16 2 24 255 186 119
16 2 25 255 186 119
16 2 26 158 216 229
16 3 20 255 186 119
16 3 21 255 186 119
16 3 22 255 186 119
16 3 23 255 186 119
16 3 24 255 186 119
16 3 25 255 186 119
16 3 26 158 216 229
16 4 21 255 186 119
16 4 22 255 186 119
16 4 23 255 186 119
16 4 24 255 186 119
16 4 25 255 186 119
16 4 26 158 216 229
16 5 21 255 186 119
16 5 22 255 186 119
16 5 23 255 186 119
16 5 24 255 186 119
16 5 25 255 186 119
16 5 26 158 216 229
16 6 21 255 186 119
16 6 22 255 186 119
16 6 23 255 186 119
16 6 24 255 186 119
16 6 25 255 186 119
16 6 26 158 216 229
16 7 21 255 186 119
16 7 22 255 186 119
16 7 23 255 186 119
16 7 24 255 186 119
16 7 25 255 186 119
16 7 26 158 216 229
16 8 23 196 175 214
16 8 24 196 175 214
16 8 25 196 175 214
16 8 26 158 216 229
16 9 23 196 175 214
16 9 24 196 175 214
16 9 25 196 175 214
16 9 26 158 216 229
16 10 23 196 175 214
16 10 24 196 175 214
16 10 25 196 175 214
16 10 26 158 216 229
16 11 25 158 216 229
16 11 26 158 216 229
16 12 25 158 216 229
16 12 26 158 216 229
16 13 25 158 216 229
16 13 26 158 216 229
16 14 25 158 216 229
16 14 26 158 216 229
16 15 25 158 216 229
16 15 26 158 216 229
16 16 25 158 216 229
16 16 26 158 216 229
16 17 25 158 216 229
16 17 26 158 216 229
16 18 25 158 216 229
16 18 26 158 216 229
16 19 25 158 216 229
16 19 26 158 216 229
16 20 25 158 216 229
16 20 26 158 216 229
16 21 25 158 216 229
16 21 26 158 216 229
16 22 25 158 216 229
16 22 26 158 216 229
16 23 25 158 216 229
16 23 26 158 216 229
16 24 26 158 216 229
17 0 26 158 216 229
17 1 24 255 186 119
17 1 25 255 186 119
17 1 26 158 216 229
17 2 22 255 186 119
17 2 23 255 186 119
17 2 24 255 186 119
17 2 25 255 186 119
17 2 26 158 216 229
17 3 20 255 186 119
17 3 21 255 186 119
17 3 22 255 186 119
17 3 23 255 186 119
17 3 24 255 186 119
17 3 25 255 186 119
17 3 26 158 216 229
17 4 19 255 186 119
17 4 20 255 186 119
17 4 21 255 186 119
17 4 22 255 186 119
17 4 23 255 186 119
17 4 24 255 186 119
17 4 25 255 186 119
17 4 26 158 216 229
17 5 19 255 186 119
17 5 20 255 186 119
17 5 21 255 186 119
17 5 22 255 186 119
17 5 23 255 186 119
17 5 24 255 186 119
17 5 25 255 186 119
17 5 26 158 216 229
17 6 19 255 186 119
17 6 20 255 186 119
17 6 21 255 186 119
17 6 22 255 186 119
17 6 23 255 186 119
17 6 24 255 186 119
17 6 25 255 186 119
17 6 26 158 216 229
17 7 19 255 186 119
17 7 20 255 186 119
17 7 21 255 186 119
17 7 22 255 186 119
17 7 23 255 186 119
17 7 24 255 186 119
17 7 25 158 216 229
17 7 26 158 216 229
17 8 23 196 175 214
17 8 24 196 175 214
17 8 25 196 175 214
17 8 26 158 216 229
17 9 23 196 175 214
17 9 24 196 175 214
17 9 25 196 175 214
17 9 26 158 216 229
17 10 23 196 175 214
17 10 24 196 175 214
17 10 25 158 216 229
17 10 26 158 216 229
17 11 25 158 216 229
17 11 26 158 216 229
17 12 25 158 216 229
17 12 26 158 216 229
17 13 25 158 216 229
17 13 26 158 216 229
17 14 25 158 216 229
17 14 26 158 216 229
17 15 25 158 216 229
17 15 26 158 216 229
17 16 25 158 216 229
17 16 26 158 216 229
17 17 25 158 216 229
17 17 26 158 216 229
17 18 25 158 216 229
17 18 26 158 216 229
17 19 25 158 216 229
17 19 26 158 216 229
17 20 25 158 216 229
17 20 26 158 216 229
17 21 25 158 216 229
17 21 26 158 216 229
17 22 25 158 216 229
17 22 26 158 216 229
17 23 25 158 216 229
17 23 26 158 216 229
17 24 26 158 216 229
18 0 26 158 216 229
18 1 24 255 186 119
18 1 25 255 186 119
18 1 26 158 216 229
18 2 22 255 186 119
18 2 23 255 186 119
18 2 24 255 186 119
18 2 25 255 186 119
18 2 26 158 216 229
18 3 20 255 186 119
18 3 21 255 186 119
18 3 22 255 186 119
18 3 23 255 186 119
18 3 24 255 186 119
18 3 25 255 186 119
18 3 26 158 216 229
18 4 18 255 186 119
18 4 19 255 186 119
18 4 20 255 186 119
18 4 21 255 186 119
18 4 22 255 186 119
18 4 23 255 186 119
18 4 24 255 186 119
18 4 25 255 186 119
18 4 26 158 216 229
18 5 17 255 186 119
18 5 18 255 186 119
18 5 19 255 186 119
18 5 20 255 186 119
18 5 21 255 186 119
18 5 22 255 186 119
18 5 23 255 186 119
18 5 24 255 186 119
18 5 25 255 186 119
18 5 26 158 216 229
18 6 18 255 186 119
18 6 19 255 186 119
18 6 20 255 186 119
18 6 21 255 186 119
18 6 22 255 186 119
18 6 23 255 186 119
18 6 24 255 186 119
18 6 25 255 186 119
18 6 26 158 216 229
18 7 18 255 186 119
18 7 19 255 186 119
18 7 20 255 186 119
18 7 21 255 186 119
18 7 22 255 186 119
18 7 23 255 186 119
18 7 24 255 186 119
18 7 25 158 216 229
18 7 26 158 216 229
18 8 23 196 175 214
18 8 24 196 175 214
18 8 25 196 175 214
18 8 26 158 216 229
18 9 23 196 175 214
18 9 24 196 175 214
18 9 25 196 175 214
18 9 26 158 216 229
18 10 23 196 175 214
18 10 24 196 175 214
18 10 25 158 216 229
18 10 26 158 216 229
18 11 25 158 216 229
18 11 26 158 216 229
18 12 25 158 216 229
18 12 26 158 216 229
18 13 25 158 216 229
18 13 26 158 216 229
18 14 25 158 216 229
18 14 26 158 216 229
18 15 25 158 216 229
18 15 26 158 216 229
18 16 25 158 216 229
18 16 26 158 216 229
18 17 25 158 216 229
18 17 26 158 216 229
18 18 25 158 216 229
18 18 26 158 216 229
18 19 25 158 216 229
18 19 26 158 216 229
18 20 25 158 216 229
18 20 26 158 216 229
18 21 25 158 216 229
18 21 26 158 216 229
18 22 25 158 216 229
18 22 26 158 216 229
18 23 25 158 216 229
18 23 26 158 216 229
18 24 26 158 216 229
19 0 26 158 216 229
19 1 24 255 186 119
19 1 25 255 186 119
19 1 26 158 216 229
19 2 22 255 186 119
19 2 23 255 186 119
19 2 24 255 186 119
19 2 25 255 186 119
19 2 26 158 216 229
19 3 20 255 186 119
19 3 21 255 186 119
19 3 22 255 186 119
19 3 23 255 186 119
19 3 24 255 186 119
19 3 25 255 186 119
19 3 26 158 216 229
19 4 18 255 186 119
19 4 19 255 186 119
19 4 20 255 186 119
19 4 21 255 186 119
19 4 22 255 186 119
19 4 23 255 186 119
19 4 24 255 186 119
19 4 25 255 186 119
19 4 26 158 216 229
19 5 16 255 186 119
19 5 17 255 186 119
19 5 18 255 186 119
19 5 19 255 186 119
19 5 20 255 186 119
19 5 21 255 186 119
19 5 22 255 186 119
19 5 23 255 186 119
19 5 24 255 186 119
19 5 25 255 186 119
19 5 26 158 216 229
19 6 16 255 186 119
19 6 17 255 186 119
19 6 18 255 186 119
19 6 19 255 186 119
19 6 20 255 186 119
19 6 21 255 186 119
19 6 22 255 186 119
19 6 23 255 186 119
19 6 24 255 186 119
19 6 25 255 186 119
19 6 26 158 216 229
19 7 16 255 186 119
19 7 17 255 186 119
19 7 18 255 186 119
19 7 19 255 186 119
19 7 20 255 186 119
19 7 21 255 186 119
19 7 22 255 186 119
19 7 23 255 186 119
19 7 24 255 186 119
19 7 25 158 216 229
19 7 26 158 216 229
19 8 22 196 175 214
19 8 23 196 175 214
19 8 24 196 175 214
19 8 25 158 216 229
19 8 26 158 216 229
19 9 22 196 175 214
19 9 23 196 175 214
19 9 24 196 175 214
19 9 25 158 216 229
19 9 26 158 216 229
19 10 22 196 175 214
19 10 23 196 175 214
19 10 24 196 175 214
19 10 25 158 216 229
19 10 26 158 216 229
19 11 25 158 216 229
19 11 26 158 216 229
19 12 25 158 216 229
19 12 26 158 216 229
19 13 25 158 216 229
19 13 26 158 216 229
19 14 25 158 216 229
19 14 26 158 216 229
19 15 25 158 216 229
19 15 26 158 216 229
19 16 25 158 216 229
19 16 26 158 216 229
19 17 25 158 216 229
19 17 26 158 216 229
19 18 25 158 216 229
19 18 26 158 216 229
19 19 25 158 216 229
19 19 26 158 216 229
19 20 25 158 216 229
19 20 26 158 216 229
19 21 25 158 216 229
19 21 26 158 216 229
19 22 25 158 216 229
19 22 26 158 216 229
19 23 25 158 216 229
19 23 26 158 216 229
19 24 26 158 216 229
20 0 26 158 216 229
20 1 24 255 186 119
20 1 25 158 216 229
20 1 26 158 216 229
20 2 22 255 186 119
20 2 23 255 186 119
20 2 24 255 186 119
20 2 25 158 216 229
20 2 26 158 216 229
20 3 20 255 186 119
20 3 21 255 186 119
20 3 22 255 186 119
20 3 23 255 186 119
20 3 24 255 186 119
20 3 25 158 216 229
20 3 26 158 216 229
20 4 18 255 186 119
20 4 19 255 186 119
20 4 20 255 186 119
20 4 21 255 186 119
20 4 22 255 186 119
20 4 23 255 186 119
20 4 24 255 186 119
20 4 25 158 216 229
20 4 26 158 216 229
20 5 16 255 186 119
20 5 17 255 186 119
20 5 18 255 186 119
20 5 19 255 186 119
20 5 20 255 186 119
20 5 21 255 186 119
20 5 22 255 186 119
20 5 23 255 186 119
20 5 24 255 186 119
20 5 25 158 216 229
20 5 26 158 216 229
20 6 14 255 186 119
20 6 15 255 186 119
20 6 16 255 186 119
20 6 17 255 186 119
20 6 18 255 186 119
20 6 19 255 186 119
20 6 20 255 186 119
20 6 21 255 186 119
20 6 22 255 186 119
20 6 23 255 186 119
20 6 24 255 186 119
20 6 25 158 216 229
20 6 26 158 216 229
20 7 15 255 186 119
20 7 16 255 186 119
20 7 17 255 186 119
20 7 18 255 186 119
20 7 19 255 186 119
20 7 20 255 186 119
20 7 21 255 186 119
20 7 22 255 186 119
20 7 23 255 186 119
20 7 24 255 186 119
20 7 25 158 216 229
20 7 26 158 216 229
20 8 22 196 175 214
20 8 23 196 175 214
20 8 24 196 175 214
20 8 25 158 216 229
20 8 26 158 216 229
20 9 22 196 175 214
20 9 23 196 175 214
20 9 24 196 175 214
20 9 25 158 216 229
20 9 26 158 216 229
20 10 22 196 175 214
20 10 23 196 175 214
20 10 24 196 175 214
20 10 25 158 216 229
20 10 26 158 216 229
20 11 25 158 216 229
20 11 26 158 216 229
20 12 25 158 216 229
20 12 26 158 216 229
20 13 25 158 216 229
20 13 26 158 216 229
20 14 25 158 216 229
20 14 26 158 216 229
20 15 25 158 216 229
20 15 26 158 216 229
20 16 25 158 216 229
20 16 26 158 216 229
20 17 25 158 216 229
20 17 26 158 216 229
20 18 25 158 216 229
20 18 26 158 216 229
20 19 25 158 216 229
20 19 26 158 216 229
20 20 25 158 216 229
20 20 26 158 216 229
20 21 25 158 216 229
20 21 26 158 216 229
20 22 25 158 216 229
20 22 26 158 216 229
20 23 25 158 216 229
20 23 26 158 216 229
20 24 26 158 216 229
21 0 26 158 216 229
21 1 24 255 186 119
21 1 25 158 216 229
21 1 26 158 216 229
21 2 22 255 186 119
21 2 23 255 186 119
21 2 24 255 186 119
21 2 25 158 216 229
21 2 26 158 216 229
21 3 20 255 186 119
21 3 21 255 186 119
21 3 22 255 186 119
21 3 23 255 186 119
21 3 24 255 186 119
21 3 25 158 216 229
21 3 26 158 216 229
21 4 18 255 186 119
21 4 19 255 186 119
21 4 20 255 186 119
21 4 21 255 186 119
21 4 22 255 186 119
21 4 23 255 186 119
21 4 24 255 186 119
21 4 25 158 216 229
21 4 26 158 216 229
21 5 16 255 186 119
21 5 17 255 186 119
21 5 18 255 186 119
21 5 19 255 186 119
21 5 20 255 186 119
21 5 21 255 186 119
21 5 22 255 186 119
21 5 23 255 186 119
21 5 24 255 186 119
21 5 25 158 216 229
21 5 26 158 216 229
21 6 14 255 186 119
21 6 15 255 186 119
21 6 16 255 186 119
21 6 17 255 186 119
21 6 18 255 186 119
21 6 19 255 186 119
21 6 20 255 186 119
21 6 21 255 186 119
21 6 22 255 186 119
21 6 23 255 186 119
21 6 24 255 186 119
21 6 25 158 216 229
21 6 26 158 216 229
21 7 13 255 186 119
21 7 14 255 186 119
21 7 15 255 186 119
21 7 16 255 186 119
21 7 17 255 186 119
21 7 18 255 186 119
21 7 19 255 186 119
21 7 20 255 186 119
21 7 21 255 186 119
21 7 22 255 186 119
21 7 23 255 186 119
21 7 24 255 186 119
21 7 25 158 216 229
21 7 26 158 216 229
21 8 22 196 175 214
21 8 23 196 175 214
21 8 24 196 175 214
21 8 25 158 216 229
21 8 26 158 216 229
21 9 22 196 175 214
21 9 23 196 175 214
21 9 24 196 175 214
21 9 25 158 216 229
21 9 26 158 216 229
21 10 22 196 175 214
21 10 23 196 175 214
21 10 24 196 175 214
21 10 25 158 216 229
21 10 26 158 216 229
21 11 25 158 216 229
21 11 26 158 216 229
21 12 25 158 216 229
21 12 26 158 216 229
21 13 25 158 216 229
21 13 26 158 216 229
21 14 25 158 216 229
21 14 26 158 216 229
21 15 25 158 216 229
21 15 26 158 216 229
21 16 25 158 216 229
21 16 26 158 216 229
21 17 25 158 216 229
21 17 26 158 216 229
21 18 25 158 216 229
21 18 26 158 216 229
21 19 25 158 216 229
21 19 26 158 216 229
21 20 25 158 216 229
21 20 26 158 216 229
21 21 25 158 216 229
21 21 26 158 216 229
21 22 25 158 216 229
21 22 26 158 216 229
21 23 25 158 216 229
21 23 26 158 216 229
21 24 26 158 216 229
22 1 24 255 186 119
22 1 25 158 216 229
22 2 22 255 186 119
22 2 23 255 186 119
22 2 24 255 186 119
22 2 25 158 216 229
22 3 20 255 186 119
22 3 21 255 186 119
22 3 22 255 186 119
22 3 23 255 186 119
22 3 24 255 186 119
22 3 25 158 216 229
22 4 18 255 186 119
22 4 19 255 186 119
22 4 20 255 186 119
22 4 21 255 186 119
22 4 22 255 186 119
22 4 23 255 186 119
22 4 24 255 186 119
22 4 25 158 216 229
22 5 16 255 186 119
22 5 17 255 186 119
22 5 18 255 186 119
22 5 19 255 186 119
22 5 20 255 186 119
22 5 21 255 186 119
22 5 22 255 186 119
22 5 23 255 186 119
22 5 24 255 186 119
22 5 25 158 216 229
22 6 14 255 186 119
22 6 15 255 186 119
22 6 16 255 186 119
22 6 17 255 186 119
22 6 18 255 186 119
22 6 19 255 186 119
22 6 20 255 186 119
22 6 21 255 186 119
22 6 22 255 186 119
22 6 23 255 186 119
22 6 24 255 186 119
22 6 25 158 216 229
22 7 12 255 186 119
22 7 13 255 186 119
22 7 14 255 186 119
22 7 15 255 186 119
22 7 16 255 186 119
22 7 17 255 186 119
22 7 18 255 186 119
22 7 19 255 186 119
22 7 20 255 186 119
22 7 21 255 186 119
22 7 22 255 186 119
22 7 23 255 186 119
22 7 24 255 186 119
22 7 25 158 216 229
22 8 22 196 175 214
22 8 23 196 175 214
22 8 24 196 175 214
22 8 25 158 216 229
22 9 22 196 175 214
22 9 23 196 175 214
22 9 24 196 175 214
22 9 25 158 216 229
22 10 22 196 175 214
22 10 23 196 175 214
22 10 24 196 175 214
22 10 25 158 216 229
22 11 25 158 216 229
22 12 25 158 216 229
22 13 25 158 216 229
22 14 25 158 216 229
22 15 25 158 216 229
22 16 25 158 216 229
22 17 25 158 216 229
22 18 25 158 216 229
22 19 25 158 216 229
22 20 25 158 216 229
22 21 25 158 216 229
22 22 25 158 216 229
22 23 25 158 216 229
23 0 25 43 160 4
23 1 24 255 186 119
23 1 25 158 216 229
23 2 22 255 186 119
23 2 23 255 186 119
23 2 24 255 186 119
23 2 25 158 216 229
23 3 20 255 186 119
23 3 21 255 186 119
23 3 22 255 186 119
23 3 23 255 186 119
23 3 24 255 186 119
23 3 25 158 216 229
23 4 18 255 186 119
23 4 19 255 186 119
23 4 20 255 186 119
23 4 21 255 186 119
23 4 22 255 186 119
23 4 23 255 186 119
23 4 24 255 186 119
23 4 25 158 216 229
23 5 16 255 186 119
23 5 17 255 186 119
23 5 18 255 186 119
23 5 19 255 186 119
23 5 20 255 186 119
23 5 21 255 186 119
23 5 22 255 186 119
23 5 23 255 186 119
23 5 24 255 186 119
23 5 25 158 216 229
23 6 14 255 186 119
23 6 15 255 186 119
23 6 16 255 186 119
23 6 17 255 186 119
23 6 18 255 186 119
23 6 19 255 186 119
23 6 20 255 186 119
23 6 21 255 186 119
23 6 22 255 186 119
23 6 23 255 186 119
23 6 24 255 186 119
23 6 25 158 216 229
23 7 12 255 186 119
23 7 13 255 186 119
23 7 14 255 186 119
23 7 15 255 186 119
23 7 16 255 186 119
23 7 17 255 186 119
23 7 18 255 186 119
23 7 19 255 186 119
23 7 20 255 186 119
23 7 21 255 186 119
23 7 22 255 186 119
23 7 23 255 186 119
23 7 24 255 186 119
23 7 25 158 216 229
23 8 22 196 175 214
23 8 23 196 175 214
23 8 24 196 175 214
23 8 25 158 216 229
23 9 22 196 175 214
23 9 23 196 175 214
23 9 24 196 175 214
23 9 25 158 216 229
23 10 22 196 175 214
23 10 23 196 175 214
23 10 24 196 175 214
23 10 25 158 216 229
23 11 25 158 216 229
23 12 25 158 216 229
23 13 25 158 216 229
23 14 25 158 216 229
23 15 25 158 216 229
23 16 25 158 216 229
23 17 25 158 216 229
23 18 25 158 216 229
23 19 25 158 216 229
23 20 25 158 216 229
23 21 25 158 216 229
23 22 25 158 216 229
23 23 25 158 216 229
24 0 25 43 160 4
24 1 23 255 186 119
24 1 24 255 186 119
24 1 25 158 216 229
24 2 21 255 186 119
24 2 22 255 186 119
24 2 23 255 186 119
24 2 24 255 186 119
24 2 25 158 216 229
24 3 20 255 186 119
24 3 21 255 186 119
24 3 22 255 186 119
24 3 23 255 186 119
24 3 24 255 186 119
24 3 25 158 216 229
24 4 18 255 186 119
24 4 19 255 186 119
24 4 20 255 186 119
24 4 21 255 186 119
24 4 22 255 186 119
24 4 23 255 186 119
24 4 24 255 186 119
24 4 25 158 216 229
24 5 16 255 186 119
24 5 17 255 186 119
24 5 18 255 186 119
24 5 19 255 186 119
24 5 20 255 186 119
24 5 21 255 186 119
24 5 22 255 186 119
24 5 23 255 186 119
24 5 24 255 186 119
24 5 25 158 216 229
24 6 14 255 186 119
24 6 15 255 186 119
24 6 16 255 186 119
24 6 17 255 186 119
24 6 18 255 186 119
24 6 19 255 186 119
24 6 20 255 186 119
24 6 21 255 186 119
24 6 22 255 186 119
24 6 23 255 186 119
24 6 24 255 186 119
24 6 25 158 216 229
24 7 12 255 186 119
24 7 13 255 186 119
24 7 14 255 186 119
24 7 15 255 186 119
24 7 16 255 186 119
24 7 17 255 186 119
24 7 18 255 186 119
24 7 19 255 186 119
24 7 20 255 186 119
24 7 21 255 186 119
24 7 22 255 186 119
24 7 23 255 186 119
24 7 24 255 186 119
24 7 25 158 216 229
24 8 22 196 175 214
24 8 23 196 175 214
24 8 24 196 175 214
24 8 25 158 216 229
24 9 22 196 175 214
24 9 23 196 175 214
24 9 24 196 175 214
24 9 25 158 216 229
24 10 23 196 175 214
24 10 24 196 175 214
24 10 25 158 216 229
24 11 25 158 216 229
24 12 25 158 216 229
24 13 25 158 216 229
24 14 25 158 216 229
24 15 25 158 216 229
24 16 25 158 216 229
24 17 25 158 216 229
24 18 25 158 216 229
24 19 25 158 216 229
24 20 25 158 216 229
24 21 25 158 216 229
24 22 25 158 216 229
24 23 25 158 216 229
25 0 25 43 160 4
25 1 23 255 186 119
25 1 24 255 186 119
25 1 25 158 216 229
25 2 21 255 186 119
25 2 22 255 186 119
25 2 23 255 186 119
25 2 24 255 186 119
25 2 25 158 216 229
25 3 19 255 186 119
25 3 20 255 186 119
25 3 21 255 186 119
25 3 22 255 186 119
25 3 23 255 186 119
25 3 24 255 186 119
25 3 25 158 216 229
25 4 17 255 186 119
25 4 18 255 186 119
25 4 19 255 186 119
25 4 20 255 186 119
25 4 21 255 186 119
25 4 22 255 186 119
25 4 23 255 186 119
25 4 24 255 186 119
25 4 25 158 216 229
25 5 16 255 186 119
25 5 17 255 186 119
25 5 18 255 186 119
25 5 19 255 186 119
25 5 20 255 186 119
25 5 21 255 186 119
25 5 22 255 186 119
25 5 23 255 186 119
25 5 24 255 186 119
25 5 25 158 216 229
25 6 14 255 186 119
25 6 15 255 186 119
25 6 16 255 186 119
25 6 17 255 186 119
25 6 18 255 186 119
25 6 19 255 186 119
25 6 20 255 186 119
25 6 21 255 186 119
25 6 22 255 186 119
25 6 23 255 186 119
25 6 24 255 186 119
25 6 25 158 216 229
25 7 12 255 186 119
25 7 13 255 186 119
25 7 14 255 186 119
25 7 15 255 186 119
25 7 16 255 186 119
25 7 17 255 186 119
25 7 18 255 186 119
25 7 19 255 186 119
25 7 20 255 186 119
25 7 21 255 186 119
25 7 22 255 186 119
25 7 23 255 186 119
25 7 24 255 186 119
25 7 25 158 216 229
25 8 25 158 216 229
25 9 25 158 216 229
25 10 25 158 216 229
25 11 25 158 216 229
25 12 25 158 216 229
25 13 25 158 216 229
25 14 25 158 216 229
25 15 25 158 216 229
25 16 25 158 216 229
25 17 25 158 216 229
25 18 25 158 216 229
25 19 25 158 216 229
25 20 25 158 216 229
25 21 25 158 216 229
25 22 25 158 216 229
25 23 25 158 216 229
26 0 25 43 160 4
26 1 23 255 186 119
26 1 24 255 186 119
26 1 25 158 216 229
26 2 21 255 186 119
26 2 22 255 186 119
26 2 23 255 186 119
26 2 24 255 186 119
26 2 25 158 216 229
26 3 19 255 186 119
26 3 20 255 186 119
26 3 21 255 186 119
26 3 22 255 186 119
26 3 23 255 186 119
26 3 24 255 186 119
26 3 25 158 216 229
26 4 17 255 186 119
26 4 18 255 186 119
26 4 19 255 186 119
26 4 20 255 186 119
26 4 21 255 186 119
26 4 22 255 186 119
26 4 23 255 186 119
26 4 24 255 186 119
26 4 25 158 216 229
26 5 15 255 186 119
26 5 16 255 186 119
26 5 17 255 186 119
26 5 18 255 186 119
26 5 19 255 186 119
26 5 20 255 186 119
26 5 21 255 186 119
26 5 22 255 186 119
26 5 23 255 186 119
26 5 24 255 186 119
26 5 25 158 216 229
26 6 13 255 186 119
26 6 14 255 186 119
26 6 15 255 186 119
26 6 16 255 186 119
26 6 17 255 186 119
26 6 18 255 186 119
26 6 19 255 186 119
26 6 20 255 186 119
26 6 21 255 186 119
26 6 22 255 186 119
26 6 23 255 186 119
26 6 24 255 186 119
26 6 25 158 216 229
26 7 12 255 186 119
26 7 13 255 186 119
26 7 14 255 186 119
26 7 15 255 186 119
26 7 16 255 186 119
26 7 17 255 186 119
26 7 18 255 186 119
26 7 19 255 186 119
26 7 20 255 186 119
26 7 21 255 186 119
26 7 22 255 186 119
26 7 23 255 186 119
26 7 24 255 186 119
26 7 25 158 216 229
26 8 25 158 216 229
26 9 25 158 216 229
26 10 25 158 216 229
26 11 25 158 216 229
26 12 25 158 216 229
26 13 25 158 216 229
26 14 25 158 216 229
26 15 25 158 216 229
26 16 25 158 216 229
26 17 25 158 216 229
26 18 25 158 216 229
26 19 25 158 216 229
26 20 25 158 216 229
26 21 25 158 216 229
26 22 25 158 216 229
26 23 25 158 216 229
27 0 25 43 160 4
27 1 23 255 186 119
27 1 24 255 186 119
27 1 25 158 216 229
27 2 21 196 175 214
27 2 22 196 175 214
27 2 23 255 186 119
27 2 24 255 186 119
27 2 25 158 216 229
27 3 19 196 175 214
27 3 20 196 175 214
27 3 21 196 175 214
27 3 22 196 175 214
27 3 23 255 186 119
27 3 24 255 186 119
27 3 25 158 216 229
27 4 17 255 186 119
27 4 18 255 186 119
27 4 19 196 175 214
27 4 20 196 175 214
27 4 21 196 175 214
27 4 22 196 175 214
27 4 23 255 186 119
27 4 24 255 186 119
27 4 25 158 216 229
27 5 17 255 186 119
27 5 18 255 186 119
27 5 19 196 175 214
27 5 20 196 175 214
27 5 21 196 175 214
27 5 22 255 186 119
27 5 23 255 186 119
27 5 24 255 186 119
27 5 25 158 216 229
27 6 17 255 186 119
27 6 18 255 186 119
27 6 19 255 186 119
27 6 20 255 186 119
27 6 21 255 186 119
27 6 22 255 186 119
27 6 23 255 186 119
27 6 24 255 186 119
27 6 25 158 216 229
27 7 18 255 186 119
27 7 19 255 186 119
27 7 20 255 186 119
27 7 21 255 186 119
27 7 22 255 186 119
27 7 23 255 186 119
27 7 24 255 186 119
27 7 25 158 216 229
27 8 25 158 216 229
27 9 25 158 216 229
27 10 25 158 216 229
27 11 25 158 216 229
27 12 25 158 216 229
27 13 25 158 216 229
27 14 25 158 216 229
27 15 25 158 216 229
27 16 25 158 216 229
27 17 25 158 216 229
27 18 25 158 216 229
27 19 25 158 216 229
27 20 25 158 216 229
27 21 25 158 216 229
27 22 25 158 216 229
27 23 25 158 216 229
28 0 25 158 216 229
28 1 23 196 175 214
28 1 24 196 175 214
28 1 25 158 216 229
28 2 21 196 175 214
28 2 22 196 175 214
28 2 23 196 175 214
28 2 24 196 175 214
28 2 25 158 216 229
28 3 19 196 175 214
28 3 20 196 175 214
28 3 21 196 175 214
28 3 22 196 175 214
28 3 23 196 175 214
28 3 24 196 175 214
28 3 25 158 216 229
28 4 19 196 175 214
28 4 20 196 175 214
28 4 21 196 175 214
28 4 22 196 175 214
28 4 23 196 175 214
28 4 24 196 175 214
28 4 25 158 216 229
28 5 19 196 175 214
28 5 20 196 175 214
28 5 21 196 175 214
28 5 22 196 175 214
28 5 23 196 175 214
28 5 24 196 175 214
28 5 25 158 216 229
28 6 25 158 216 229
28 7 25 158 216 229
28 8 25 158 216 229
28 9 25 158 216 229
28 10 25 158 216 229
28 11 25 158 216 229
28 12 25 158 216 229
28 13 25 158 216 229
28 14 25 158 216 229
28 15 25 158 216 229
28 16 25 158 216 229
28 17 25 158 216 229
28 18 25 158 216 229
28 19 25 158 216 229
28 20 25 158 216 229
28 21 25 158 216 229
28 22 25 158 216 229
28 23 25 158 216 229
29 0 25 158 216 229
29 1 23 196 175 214
29 1 24 196 175 214
29 1 25 158 216 229
29 2 21 196 175 214
29 2 22 196 175 214
29 2 23 196 175 214
29 2 24 196 175 214
29 2 25 158 216 229
29 3 19 196 175 214
29 3 20 196 175 214
29 3 21 196 175 214
29 3 22 196 175 214
29 3 23 196 175 214
29 3 24 196 175 214
29 3 25 158 216 229
29 4 19 196 175 214
29 4 20 196 175 214
29 4 21 196 175 214
29 4 22 196 175 214
29 4 23 196 175 214
29 4 24 196 175 214
29 4 25 158 216 229
29 5 19 196 175 214
29 5 20 196 175 214
29 5 21 196 175 214
29 5 22 196 175 214
29 5 23 196 175 214
29 5 24 196 175 214
29 5 25 158 216 229
29 6 25 158 216 229
29 7 25 158 216 229
29 8 25 158 216 229
29 9 25 158 216 229
29 10 25 158 216 229
29 11 25 158 216 229
29 12 25 158 216 229
29 13 25 158 216 229
29 14 25 158 216 229
29 15 25 158 216 229
29 16 25 158 216 229
29 17 25 158 216 229
29 18 25 158 216 229
29 19 25 158 216 229
29 20 25 158 216 229
29 21 25 158 216 229
29 22 25 158 216 229
29 23 25 158 216 229
30 0 25 43 160 4
30 1 23 196 175 214
30 1 24 196 175 214
30 1 25 158 216 229
30 2 21 196 175 214
30 2 22 196 175 214
30 2 23 196 175 214
30 2 24 196 175 214
30 2 25 158 216 229
30 3 19 196 175 214
30 3 20 196 175 214
30 3 21 196 175 214
30 3 22 196 175 214
30 3 23 196 175 214
30 3 24 196 175 214
30 3 25 158 216 229
30 4 18 196 175 214
30 4 19 196 175 214
30 4 20 196 175 214
30 4 21 196 175 214
30 4 22 196 175 214
30 4 23 196 175 214
30 4 24 196 175 214
30 4 25 158 216 229
30 5 18 196 175 214
30 5 19 196 175 214
30 5 20 196 175 214
30 5 21 196 175 214
30 5 22 196 175 214
30 5 23 196 175 214
30 5 24 196 175 214
30 5 25 158 216 229
30 6 25 158 216 229
30 7 25 158 216 229
30 8 25 158 216 229
30 9 25 158 216 229
30 10 25 158 216 229
30 11 25 158 216 229
30 12 25 158 216 229
30 13 25 158 216 229
30 14 25 158 216 229
30 15 25 158 216 229
30 16 25 158 216 229
30 17 25 158 216 229
30 18 25 158 216 229
30 19 25 158 216 229
30 20 25 158 216 229
30 21 25 158 216 229
30 22 25 158 216 229
30 23 25 158 216 229
31 0 25 43 160 4
31 1 23 196 175 214
31 1 24 196 175 214
31 1 25 158 216 229
31 2 21 196 175 214
31 2 22 196 175 214
31 2 23 196 175 214
31 2 24 196 175 214
31 2 25 158 216 229
31 3 19 196 175 214
31 3 20 196 175 214
31 3 21 196 175 214
31 3 22 196 175 214
31 3 23 196 175 214
31 3 24 196 175 214
31 3 25 158 216 229
31 4 18 196 175 214
31 4 19 196 175 214
31 4 20 196 175 214
31 4 21 196 175 214
31 4 22 196 175 214
31 4 23 196 175 214
31 4 24 196 175 214
31 4 25 158 216 229
31 5 18 196 175 214
31 5 19 196 175 214
31 5 20 196 175 214
31 5 21 196 175 214
31 5 22 196 175 214
31 5 23 196 175 214
31 5 24 196 175 214
31 5 25 158 216 229
31 6 25 158 216 229
31 7 25 158 216 229
31 8 25 158 216 229
31 9 25 158 216 229
31 10 25 158 216 229
31 11 25 158 216 229
31 12 25 158 216 229
31 13 25 158 216 229
31 14 25 158 216 229
31 15 25 158 216 229
31 16 25 158 216 229
31 17 25 158 216 229
31 18 25 158 216 229
31 19 25 158 216 229
31 20 25 158 216 229
31 21 25 158 216 229
31 22 25 158 216 229
31 23 25 158 216 229
32 0 25 158 216 229
32 1 23 196 175 214
32 1 24 196 175 214
32 1 25 158 216 229
32 2 21 196 175 214
32 2 22 196 175 214
32 2 23 196 175 214
32 2 24 196 175 214
32 2 25 158 216 229
32 3 19 196 175 214
32 3 20 196 175 214
32 3 21 196 175 214
32 3 22 196 175 214
32 3 23 196 175 214
32 3 24 196 175 214
32 3 25 158 216 229
32 4 18 196 175 214
32 4 19 196 175 214
32 4 20 196 175 214
32 4 21 196 175 214
32 4 22 196 175 214
32 4 23 196 175 214
32 4 24 196 175 214
32 4 25 158 216 229
32 5 18 196 175 214
32 5 19 196 175 214
32 5 20 196 175 214
32 5 21 196 175 214
32 5 22 196 175 214
32 5 23 196 175 214
32 5 24 196 175 214
32 5 25 158 216 229
32 6 25 158 216 229
32 7 25 158 216 229
32 8 25 158 216 229
32 9 25 158 216 229
32 10 25 158 216 229
32 11 25 158 216 229
32 12 25 158 216 229
32 13 25 158 216 229
32 14 25 158 216 229
32 15 25 158 216 229
32 16 25 158 216 229
32 17 25 158 216 229
32 18 25 158 216 229
32 19 25 158 216 229
32 20 25 158 216 229
32 21 25 158 216 229
32 22 25 158 216 229
32 23 25 158 216 229
33 0 25 158 216 229
33 1 23 196 175 214
33 1 24 196 175 214
33 1 25 158 216 229
33 2 21 196 175 214
33 2 22 196 175 214
33 2 23 196 175 214
33 2 24 196 175 214
33 2 25 158 216 229
33 3 19 196 175 214
33 3 20 196 175 214
33 3 21 196 175 214
33 3 22 196 175 214
33 3 23 196 175 214
33 3 24 196 175 214
33 3 25 158 216 229
33 4 18 196 175 214
33 4 19 196 175 214
33 4 20 196 175 214
33 4 21 196 175 214
33 4 22 196 175 214
33 4 23 196 175 214
33 4 24 196 175 214
33 4 25 158 216 229
33 5 18 196 175 214
33 5 19 196 175 214
33 5 20 196 175 214
33 5 21 196 175 214
33 5 22 196 175 214
33 5 23 196 175 214
33 5 24 196 175 214
33 5 25 158 216 229
33 6 25 158 216 229
33 7 25 158 216 229
33 8 25 158 216 229
33 9 25 158 216 229
33 10 25 158 216 229
33 11 25 158 216 229
33 12 25 158 216 229
33 13 25 158 216 229
33 14 25 158 216 229
33 15 25 158 216 229
33 16 25 158 216 229
33 17 25 158 216 229
33 18 25 158 216 229
33 19 25 158 216 229
33 20 25 158 216 229
33 21 25 158 216 229
33 22 25 158 216 229
33 23 25 158 216 229
34 0 25 158 216 229
34 1 23 196 175 214
34 1 24 196 175 214
34 1 25 158 216 229
34 2 21 196 175 214
34 2 22 196 175 214
34 2 23 196 175 214
34 2 24 196 175 214
34 2 25 158 216 229
34 3 19 196 175 214
34 3 20 196 175 214
34 3 21 196 175 214
34 3 22 196 175 214
34 3 23 196 175 214
34 3 24 196 175 214
34 3 25 158 216 229
34 4 18 196 175 214
34 4 19 196 175 214
34 4 20 196 175 214
34 4 21 196 175 214
34 4 22 196 175 214
34 4 23 196 175 214
34 4 24 196 175 214
34 4 25 158 216 229
34 5 18 196 175 214
34 5 19 196 175 214
34 5 20 196 175 214
34 5 21 196 175 214
34 5 22 196 175 214
34 5 23 196 175 214
34 5 24 196 175 214
34 5 25 158 216 229
34 6 25 158 216 229
34 7 25 158 216 229
34 8 25 158 216 229
34 9 25 158 216 229
34 10 25 158 216 229
34 11 25 158 216 229
34 12 25 158 216 229
34 13 25 158 216 229
34 14 25 158 216 229
34 15 25 158 216 229
34 16 25 158 216 229
34 17 25 158 216 229
34 18 25 158 216 229
34 19 25 158 216 229
34 20 25 158 216 229
34 21 25 158 216 229
34 22 25 158 216 229
34 23 25 158 216 229
35 0 25 158 216 229
35 1 23 196 175 214
35 1 24 196 175 214
35 1 25 158 216 229
35 2 21 196 175 214
35 2 22 196 175 214
35 2 23 196 175 214
35 2 24 196 175 214
35 2 25 158 216 229
35 3 19 196 175 214
35 3 20 196 175 214
35 3 21 196 175 214
35 3 22 196 175 214
35 3 23 196 175 214
35 3 24 196 175 214
35 3 25 158 216 229
35 4 18 196 175 214
35 4 19 196 175 214
35 4 20 196 175 214
35 4 21 196 175 214
35 4 22 196 175 214
35 4 23 196 175 214
35 4 24 196 175 214
35 4 25 158 216 229
35 5 18 196 175 214
35 5 19 196 175 214
35 5 20 196 175 214
35 5 21 196 175 214
35 5 22 196 175 214
35 5 23 196 175 214
35 5 24 196 175 214
35 5 25 158 216 229
35 6 25 158 216 229
35 7 25 158 216 229
35 8 25 158 216 229
35 9 25 158 216 229
35 10 25 158 216 229
35 11 25 158 216 229
35 12 25 158 216 229
35 13 25 158 216 229
35 14 25 158 216 229
35 15 25 158 216 229
35 16 25 158 216 229
35 17 25 158 216 229
35 18 25 158 216 229
35 19 25 158 216 229
35 20 25 158 216 229
35 21 25 158 216 229
35 22 25 158 216 229
35 23 25 158 216 229
36 0 24 43 160 4
36 0 25 158 216 229
36 1 22 196 175 214
36 1 23 196 175 214
36 1 24 196 175 214
36 1 25 158 216 229
36 2 21 196 175 214
36 2 22 196 175 214
36 2 23 196 175 214
36 2 24 196 175 214
36 2 25 158 216 229
36 3 19 196 175 214
36 3 20 196 175 214
36 3 21 196 175 214
36 3 22 196 175 214
36 3 23 196 175 214
36 3 24 196 175 214
36 3 25 158 216 229
36 4 19 196 175 214
36 4 20 196 175 214
36 4 21 196 175 214
36 4 22 196 175 214
36 4 23 196 175 214
36 4 24 196 175 214
36 4 25 158 216 229
36 5 19 196 175 214
36 5 20 196 175 214
36 5 21 196 175 214
36 5 22 196 175 214
36 5 23 196 175 214
36 5 24 196 175 214
36 5 25 158 216 229
36 6 25 158 216 229
36 7 25 158 216 229
36 8 25 158 216 229
36 9 25 158 216 229
36 10 25 158 216 229
36 11 25 158 216 229
36 12 25 158 216 229
36 13 25 158 216 229
36 14 25 158 216 229
36 15 25 158 216 229
36 16 25 158 216 229
36 17 25 158 216 229
36 18 25 158 216 229
36 19 25 158 216 229
36 20 25 158 216 229
36 21 25 158 216 229
36 22 25 158 216 229
36 23 25 158 216 229
37 0 24 43 160 4
37 0 25 158 216 229
37 1 24 158 216 229
37 1 25 158 216 229
37 2 24 158 216 229
37 2 25 158 216 229
37 3 24 158 216 229
37 3 25 158 216 229
37 4 24 158 216 229
37 4 25 158 216 229
37 5 24 158 216 229
37 5 25 158 216 229
37 6 24 158 216 229
37 6 25 158 216 229
37 7 24 158 216 229
37 7 25 158 216 229
37 8 24 158 216 229
37 8 25 158 216 229
37 9 24 158 216 229
37 9 25 158 216 229
37 10 24 158 216 229
37 10 25 158 216 229
37 11 24 158 216 229
37 11 25 158 216 229
37 12 24 158 216 229
37 12 25 158 216 229
37 13 24 158 216 229
37 13 25 158 216 229
37 14 24 158 216 229
37 14 25 158 216 229
37 15 24 158 216 229
37 15 25 158 216 229
37 16 24 158 216 229
37 16 25 158 216 229
37 17 24 158 216 229
37 17 25 158 216 229
37 18 24 158 216 229
37 18 25 158 216 229
37 19 24 158 216 229
37 19 25 158 216 229
37 20 24 158 216 229
37 20 25 158 216 229
37 21 24 158 216 229
37 21 25 158 216 229
37 22 24 158 216 229
37 22 25 158 216 229
37 23 25 158 216 229
38 0 24 43 160 4
38 0 25 158 216 229
38 1 24 158 216 229
38 1 25 158 216 229
38 2 24 158 216 229
38 2 25 158 216 229
38 3 24 158 216 229
38 3 25 158 216 229
38 4 24 158 216 229
38 4 25 158 216 229
38 5 24 158 216 229
38 5 25 158 216 229
38 6 24 158 216 229
38 6 25 158 216 229
38 7 24 158 216 229
38 7 25 158 216 229
38 8 24 158 216 229
38 8 25 158 216 229
38 9 24 158 216 229
38 9 25 158 216 229
38 10 24 158 216 229
38 10 25 158 216 229
38 11 24 158 216 229
38 11 25 158 216 229
38 12 24 158 216 229
38 12 25 158 216 229
38 13 24 158 216 229
38 13 25 158 216 229
38 14 24 158 216 229
38 14 25 158 216 229
38 15 24 158 216 229
38 15 25 158 216 229
38 16 24 158 216 229
38 16 25 158 216 229
38 17 24 158 216 229
38 17 25 158 216 229
38 18 24 158 216 229
38 18 25 158 216 229
38 19 24 158 216 229
38 19 25 158 216 229
38 20 24 158 216 229
38 20 25 158 216 229
38 21 24 158 216 229
38 21 25 158 216 229
38 22 24 158 216 229
38 22 25 158 216 229
38 23 25 158 216 229
39 0 24 43 160 4
39 0 25 158 216 229
39 1 24 158 216 229
39 1 25 158 216 229
39 2 24 158 216 229
39 2 25 158 216 229
39 3 24 158 216 229
39 3 25 158 216 229
39 4 24 158 216 229
39 4 25 158 216 229
39 5 24 158 216 229
39 5 25 158 216 229
39 6 24 158 216 229
39 6 25 158 216 229
39 7 24 158 216 229
39 7 25 158 216 229
39 8 24 158 216 229
39 8 25 158 216 229
39 9 24 158 216 229
39 9 25 158 216 229
39 10 24 158 216 229
39 10 25 158 216 229
39 11 24 158 216 229
39 11 25 158 216 229
39 12 24 158 216 229
39 12 25 158 216 229
39 13 24 158 216 229
39 13 25 158 216 229
39 14 24 158 216 229
39 14 25 158 216 229
39 15 24 158 216 229
39 15 25 158 216 229
39 16 24 158 216 229
39 16 25 158 216 229
39 17 24 158 216 229
39 17 25 158 216 229
39 18 24 158 216 229
39 18 25 158 216 229
39 19 24 158 216 229
39 19 25 158 216 229
39 20 24 158 216 229
39 20 25 158 216 229
39 21 24 158 216 229
39 21 25 158 216 229
39 22 24 158 216 229
39 22 25 158 216 229
40 0 24 43 160 4
40 0 25 158 216 229
40 1 24 158 216 229
40 1 25 158 216 229
40 2 24 158 216 229
40 2 25 158 216 229
40 3 24 158 216 229
40 3 25 158 216 229
40 4 24 158 216 229
40 4 25 158 216 229
40 5 24 158 216 229
40 5 25 158 216 229
40 6 24 158 216 229
40 6 25 158 216 229
40 7 24 158 216 229
40 7 25 158 216 229
40 8 24 158 216 229
40 8 25 158 216 229
40 9 24 158 216 229
40 9 25 158 216 229
40 10 24 158 216 229
40 10 25 158 216 229
40 11 24 158 216 229
40 11 25 158 216 229
40 12 24 158 216 229
40 12 25 158 216 229
40 13 24 158 216 229
40 13 25 158 216 229
40 14 24 158 216 229
40 14 25 158 216 229
40 15 24 158 216 229
40 15 25 158 216 229
40 16 24 158 216 229
40 16 25 158 216 229
40 17 24 158 216 229
40 17 25 158 216 229
40 18 24 158 216 229
40 18 25 158 216 229
40 19 24 158 216 229
40 19 25 158 216 229
40 20 24 158 216 229
40 20 25 158 216 229
40 21 24 158 216 229
40 21 25 158 216 229
40 22 24 158 216 229
40 22 25 158 216 229
41 0 24 43 160 4
41 0 25 158 216 229
41 1 24 158 216 229
41 1 25 158 216 229
41 2 24 158 216 229
41 2 25 158 216 229
41 3 24 158 216 229
41 3 25 158 216 229
41 4 24 158 216 229
41 4 25 158 216 229
41 5 24 158 216 229
41 5 25 158 216 229
41 6 24 158 216 229
41 6 25 158 216 229
41 7 24 158 216 229
41 7 25 158 216 229
41 8 24 158 216 229
41 8 25 158 216 229
41 9 24 158 216 229
41 9 25 158 216 229
41 10 24 158 216 229
41 10 25 158 216 229
41 11 24 158 216 229
41 11 25 158 216 229
41 12 24 158 216 229
41 12 25 158 216 229
41 13 24 158 216 229
41 13 25 158 216 229
41 14 24 158 216 229
41 14 25 158 216 229
41 15 24 158 216 229
41 15 25 158 216 229
41 16 24 158 216 229
41 16 25 158 216 229
41 17 24 158 216 229
41 17 25 158 216 229
41 18 24 158 216 229
41 18 25 158 216 229
41 19 24 158 216 229
41 19 25 158 216 229
41 20 24 158 216 229
41 20 25 158 216 229
41 21 24 158 216 229
41 21 25 158 216 229
41 22 24 158 216 229
41 22 25 158 216 229
42 0 24 43 160 4
42 1 24 158 216 229
42 1 25 158 216 229
42 2 24 158 216 229
42 2 25 158 216 229
42 3 24 158 216 229
42 3 25 158 216 229
42 4 24 158 216 229
42 4 25 158 216 229
42 5 24 158 216 229
42 5 25 158 216 229
42 6 24 158 216 229
42 6 25 158 216 229
42 7 24 158 216 229
42 7 25 158 216 229
42 8 24 158 216 229
42 8 25 158 216 229
42 9 24 158 216 229
42 9 25 158 216 229
42 10 24 158 216 229
42 10 25 158 216 229
42 11 24 158 216 229
42 11 25 158 216 229
42 12 24 158 216 229
42 12 25 158 216 229
42 13 24 158 216 229
42 13 25 158 216 229
42 14 24 158 216 229
42 14 25 158 216 229
42 15 24 158 216 229
42 15 25 158 216 229
42 16 24 158 216 229
42 16 25 158 216 229
42 17 24 158 216 229
42 17 25 158 216 229
42 18 24 158 216 229
42 18 25 158 216 229
42 19 24 158 216 229
42 19 25 158 216 229
42 20 24 158 216 229
42 20 25 158 216 229
42 21 24 158 216 229
42 21 25 158 216 229
42 22 24 158 216 229
42 22 25 158 216 229
43 0 24 43 160 4
43 1 24 158 216 229
43 2 24 158 216 229
43 3 24 158 216 229
43 4 24 158 216 229
43 5 24 158 216 229
43 6 24 158 216 229
43 7 24 158 216 229
43 8 24 158 216 229
43 9 24 158 216 229
43 10 24 158 216 229
43 11 24 158 216 229
43 12 24 158 216 229
43 13 24 158 216 229
43 14 24 158 216 229
43 15 24 158 216 229
43 16 24 158 216 229
43 17 24 158 216 229
43 18 24 158 216 229
43 19 24 158 216 229
43 20 24 158 216 229
43 21 24 158 216 229
43 22 24 158 216 229
44 0 24 43 160 4
44 1 24 158 216 229
44 2 24 158 216 229
44 3 24 158 216 229
44 4 24 158 216 229
44 5 24 158 216 229
44 6 24 158 216 229
44 7 24 158 216 229
44 8 24 158 216 229
44 9 24 158 216 229
44 10 24 158 216 229
44 11 24 158 216 229
44 12 24 158 216 229
44 13 24 158 216 229
44 14 24 158 216 229
44 15 24 158 216 229
44 16 24 158 216 229
44 17 24 158 216 229
44 18 24 158 216 229
44 19 24 158 216 229
44 20 24 158 216 229
44 21 24 158 216 229
44 22 24 158 216 229
