ply
format ascii 1.0
element vertex 1621
property float x
property float y
property float z
property uchar red
property uchar green
property uchar blue
end_header
15 11 22 158 216 229
15 12 22 158 216 229
15 13 22 158 216 229
15 14 22 158 216 229
15 15 22 158 216 229
15 16 22 158 216 229
16 0 21 158 216 229
16 1 21 158 216 229
16 2 21 158 216 229
16 3 21 158 216 229
16 4 21 158 216 229
16 5 21 158 216 229
16 5 22 158 216 229
16 6 21 158 216 229
16 6 22 158 216 229
16 7 21 158 216 229
16 7 22 158 216 229
16 8 21 158 216 229
16 8 22 158 216 229
16 9 21 158 216 229
16 9 22 158 216 229
16 10 21 158 216 229
16 10 22 158 216 229
16 11 21 158 216 229
16 11 22 158 216 229
16 12 21 158 216 229
16 12 22 158 216 229
16 13 21 158 216 229
16 13 22 158 216 229
16 14 21 158 216 229
16 14 22 158 216 229
16 15 21 158 216 229
16 15 22 158 216 229
16 16 22 158 216 229
17 0 20 255 186 119
17 0 21 158 216 229
17 1 20 255 186 119
17 1 21 158 216 229
17 2 20 255 186 119
17 2 21 158 216 229
17 3 20 255 186 119
17 3 21 158 216 229
17 4 20 255 186 119
17 4 21 158 216 229
17 4 22 158 216 229
17 5 19 255 186 119
17 5 20 255 186 119
17 5 21 158 216 229
17 5 22 158 216 229
17 6 19 255 186 119
17 6 20 255 186 119
17 6 21 158 216 229
17 6 22 158 216 229
17 7 19 196 175 214
17 7 20 196 175 214
17 7 21 158 216 229
17 7 22 158 216 229
17 8 19 196 175 214
17 8 20 196 175 214
17 8 21 158 216 229
17 8 22 158 216 229
17 9 19 196 175 214
17 9 20 196 175 214
17 9 21 158 216 229
17 9 22 158 216 229
17 10 21 158 216 229
17 10 22 158 216 229
17 11 21 158 216 229
17 11 22 158 216 229
17 12 21 158 216 229
17 12 22 158 216 229
17 13 21 158 216 229
17 13 22 158 216 229
17 14 21 158 216 229
17 14 22 158 216 229
17 15 21 158 216 229
17 15 22 158 216 229
17 16 22 158 216 229
18 0 18 255 186 119
18 0 19 255 186 119
18 0 20 255 186 119
18 0 21 158 216 229
18 1 18 255 186 119
18 1 19 255 186 119
18 1 20 255 186 119
18 1 21 158 216 229
18 2 18 255 186 119
18 2 19 255 186 119
18 2 20 255 186 119
18 2 21 158 216 229
18 3 18 255 186 119
18 3 19 255 186 119
18 3 20 255 186 119
18 3 21 158 216 229
18 3 22 158 216 229
18 4 18 255 186 119
18 4 19 255 186 119
18 4 20 255 186 119
18 4 21 158 216 229
18 4 22 158 216 229
18 5 18 255 186 119
18 5 19 255 186 119
18 5 20 255 186 119
18 5 21 158 216 229
18 5 22 158 216 229
18 6 18 255 186 119
18 6 19 255 186 119
18 6 20 255 186 119
18 6 21 158 216 229
18 6 22 158 216 229
18 7 18 196 175 214
18 7 19 196 175 214
18 7 20 196 175 214
18 7 21 158 216 229
18 7 22 158 216 229
18 8 18 196 175 214
18 8 19 196 175 214
18 8 20 196 175 214
18 8 21 158 216 229
18 8 22 158 216 229
18 9 18 196 175 214
18 9 19 196 175 214
18 9 20 196 175 214
18 9 21 158 216 229
18 9 22 158 216 229
18 10 21 158 216 229
18 10 22 158 216 229
18 11 21 158 216 229
18 11 22 158 216 229
18 12 21 158 216 229
18 12 22 158 216 229
18 13 21 158 216 229
18 13 22 158 216 229
18 14 21 158 216 229
18 14 22 158 216 229
18 15 21 158 216 229
18 15 22 158 216 229
18 16 22 158 216 229
19 0 16 255 186 119
19 0 17 255 186 119
19 0 18 255 186 119
19 0 19 255 186 119
19 0 20 255 186 119
19 0 21 158 216 229
19 1 16 255 186 119
19 1 17 255 186 119
19 1 18 255 186 119
19 1 19 255 186 119
19 1 20 255 186 119
19 1 21 158 216 229
19 2 16 255 186 119
19 2 17 255 186 119
19 2 18 255 186 119
19 2 19 255 186 119
19 2 20 255 186 119
19 2 21 158 216 229
19 3 16 255 186 119
19 3 17 255 186 119
19 3 18 255 186 119
19 3 19 255 186 119
19 3 20 255 186 119
19 3 21 158 216 229
19 3 22 158 216 229
19 4 16 255 186 119
19 4 17 255 186 119
19 4 18 255 186 119
19 4 19 255 186 119
19 4 20 255 186 119
19 4 21 158 216 229
19 4 22 158 216 229
19 5 16 255 186 119
19 5 17 255 186 119
19 5 18 255 186 119
19 5 19 255 186 119
19 5 20 255 186 119
19 5 21 158 216 229
19 5 22 158 216 229
19 6 16 255 186 119
19 6 17 255 186 119
19 6 18 255 186 119
19 6 19 255 186 119
19 6 20 255 186 119
19 6 21 158 216 229
19 6 22 158 216 229
19 7 18 196 175 214
19 7 19 196 175 214
19 7 20 196 175 214
19 7 21 158 216 229
19 7 22 158 216 229
19 8 18 196 175 214
19 8 19 196 175 214
19 8 20 196 175 214
19 8 21 158 216 229
19 8 22 158 216 229
19 9 18 196 175 214
19 9 19 196 175 214
19 9 20 196 175 214
19 9 21 158 216 229
19 9 22 158 216 229
19 10 21 158 216 229
19 10 22 158 216 229
19 11 21 158 216 229
19 11 22 158 216 229
19 12 21 158 216 229
19 12 22 158 216 229
19 13 21 158 216 229
19 13 22 158 216 229
19 14 21 158 216 229
19 14 22 158 216 229
19 15 22 158 216 229
19 16 22 158 216 229
20 0 15 255 186 119
20 0 16 255 186 119
20 0 17 255 186 119
20 0 18 255 186 119
20 0 19 255 186 119
20 0 20 255 186 119
20 0 21 158 216 229
20 1 15 255 186 119
20 1 16 255 186 119
20 1 17 255 186 119
20 1 18 255 186 119
20 1 19 255 186 119
20 1 20 255 186 119
20 1 21 158 216 229
20 2 15 255 186 119
20 2 16 255 186 119
20 2 17 255 186 119
20 2 18 255 186 119
20 2 19 255 186 119
20 2 20 255 186 119
20 2 21 158 216 229
20 2 22 158 216 229
20 3 15 255 186 119
20 3 16 255 186 119
20 3 17 255 186 119
20 3 18 255 186 119
20 3 19 255 186 119
20 3 20 255 186 119
20 3 21 158 216 229
20 3 22 158 216 229
20 4 15 255 186 119
20 4 16 255 186 119
20 4 17 255 186 119
20 4 18 255 186 119
20 4 19 255 186 119
20 4 20 255 186 119
20 4 21 158 216 229
20 4 22 158 216 229
20 5 15 255 186 119
20 5 16 255 186 119
20 5 17 255 186 119
20 5 18 255 186 119
20 5 19 255 186 119
20 5 20 255 186 119
20 5 21 158 216 229
20 5 22 158 216 229
20 6 15 255 186 119
20 6 16 255 186 119
20 6 17 255 186 119
20 6 18 255 186 119
20 6 19 255 186 119
20 6 20 255 186 119
20 6 21 158 216 229
20 6 22 158 216 229
20 7 18 196 175 214
20 7 19 196 175 214
20 7 20 196 175 214
20 7 21 158 216 229
20 7 22 158 216 229
20 8 18 196 175 214
20 8 19 196 175 214
20 8 20 196 175 214
20 8 21 158 216 229
20 8 22 158 216 229
20 9 18 196 175 214
20 9 19 196 175 214
20 9 20 196 175 214
20 9 21 196 175 214
20 9 22 158 216 229
20 10 21 158 216 229
20 10 22 158 216 229
20 11 21 158 216 229
20 11 22 158 216 229
20 12 21 158 216 229
20 12 22 158 216 229
20 13 21 158 216 229
20 13 22 158 216 229
20 14 22 158 216 229
20 15 22 158 216 229
20 16 22 158 216 229
21 0 15 255 186 119
21 0 16 255 186 119
21 0 17 255 186 119
21 0 18 255 186 119
21 0 19 255 186 119
21 0 20 255 186 119
21 0 21 158 216 229
21 1 13 255 186 119
21 1 14 255 186 119
21 1 15 255 186 119
21 1 16 255 186 119
21 1 17 255 186 119
21 1 18 255 186 119
21 1 19 255 186 119
21 1 20 255 186 119
21 1 21 158 216 229
21 1 22 158 216 229
21 2 13 255 186 119
21 2 14 255 186 119
21 2 15 255 186 119
21 2 16 255 186 119
21 2 17 255 186 119
21 2 18 255 186 119
21 2 19 255 186 119
21 2 20 255 186 119
21 2 21 158 216 229
21 2 22 158 216 229
21 3 13 255 186 119
21 3 14 255 186 119
21 3 15 255 186 119
21 3 16 255 186 119
21 3 17 255 186 119
21 3 18 255 186 119
21 3 19 255 186 119
21 3 20 255 186 119
21 3 21 158 216 229
21 3 22 158 216 229
21 4 13 255 186 119
21 4 14 255 186 119
21 4 15 255 186 119
21 4 16 255 186 119
21 4 17 255 186 119
21 4 18 255 186 119
21 4 19 255 186 119
21 4 20 255 186 119
21 4 21 158 216 229
21 4 22 158 216 229
21 5 13 255 186 119
21 5 14 255 186 119
21 5 15 255 186 119
21 5 16 255 186 119
21 5 17 255 186 119
21 5 18 255 186 119
21 5 19 255 186 119
21 5 20 255 186 119
21 5 21 158 216 229
21 5 22 158 216 229
21 6 13 255 186 119
21 6 14 255 186 119
21 6 15 255 186 119
21 6 16 255 186 119
21 6 17 255 186 119
21 6 18 255 186 119
21 6 19 255 186 119
21 6 20 255 186 119
21 6 21 158 216 229
21 6 22 158 216 229
21 7 13 255 186 119
21 7 14 255 186 119
21 7 15 255 186 119
21 7 18 196 175 214
21 7 19 196 175 214
21 7 20 196 175 214
21 7 21 158 216 229
21 7 22 158 216 229
21 8 18 196 175 214
21 8 19 196 175 214
21 8 20 196 175 214
21 8 21 196 175 214
21 8 22 158 216 229
21 9 19 196 175 214
21 9 20 196 175 214
21 9 21 196 175 214
21 9 22 158 216 229
21 10 21 158 216 229
21 10 22 158 216 229
21 11 21 158 216 229
21 11 22 158 216 229
21 12 21 158 216 229
21 12 22 158 216 229
21 13 22 158 216 229
21 14 22 158 216 229
21 15 22 158 216 229
21 16 22 158 216 229
22 0 15 255 186 119
22 0 16 255 186 119
22 0 17 255 186 119
22 0 18 255 186 119
22 0 19 255 186 119
22 0 20 255 186 119
22 0 21 43 160 4
22 0 22 158 216 229
22 1 14 255 186 119
22 1 15 255 186 119
22 1 16 255 186 119
22 1 17 255 186 119
22 1 18 255 186 119
22 1 19 255 186 119
22 1 20 255 186 119
22 1 21 158 216 229
22 1 22 158 216 229
22 2 12 255 186 119
22 2 13 255 186 119
22 2 14 255 186 119
22 2 15 255 186 119
22 2 16 255 186 119
22 2 17 255 186 119
22 2 18 255 186 119
22 2 19 255 186 119
22 2 20 255 186 119
22 2 21 158 216 229
22 2 22 158 216 229
22 3 12 255 186 119
22 3 13 255 186 119
22 3 14 255 186 119
22 3 15 255 186 119
22 3 16 255 186 119
22 3 17 255 186 119
22 3 18 255 186 119
22 3 19 255 186 119
22 3 20 255 186 119
22 3 21 158 216 229
22 3 22 158 216 229
22 4 12 255 186 119
22 4 13 255 186 119
22 4 14 255 186 119
22 4 15 255 186 119
22 4 16 255 186 119
22 4 17 255 186 119
22 4 18 255 186 119
22 4 19 255 186 119
22 4 20 255 186 119
22 4 21 158 216 229
22 4 22 158 216 229
22 5 12 255 186 119
22 5 13 255 186 119
22 5 14 255 186 119
22 5 15 255 186 119
22 5 16 255 186 119
22 5 17 255 186 119
22 5 18 255 186 119
22 5 19 255 186 119
22 5 20 255 186 119
22 5 21 158 216 229
22 5 22 158 216 229
22 6 12 255 186 119
22 6 13 255 186 119
22 6 14 255 186 119
22 6 15 255 186 119
22 6 16 255 186 119
22 6 17 255 186 119
22 6 18 255 186 119
22 6 19 255 186 119
22 6 20 255 186 119
22 6 21 255 186 119
22 6 22 158 216 229
22 7 12 255 186 119
22 7 13 255 186 119
22 7 14 255 186 119
22 7 15 255 186 119
22 7 16 255 186 119
22 7 18 196 175 214
22 7 19 196 175 214
22 7 20 196 175 214
22 7 21 158 216 229
22 7 22 158 216 229
22 8 18 196 175 214
22 8 19 196 175 214
22 8 20 196 175 214
22 8 21 196 175 214
22 8 22 158 216 229
22 9 19 196 175 214
22 9 20 196 175 214
22 9 21 196 175 214
22 9 22 158 216 229
22 10 21 158 216 229
22 10 22 158 216 229
22 11 21 158 216 229
22 11 22 158 216 229
22 12 22 158 216 229
22 13 22 158 216 229
22 14 22 158 216 229
22 15 22 158 216 229
22 16 22 158 216 229
23 0 15 255 186 119
23 0 16 255 186 119
23 0 17 255 186 119
23 0 18 255 186 119
23 0 19 255 186 119
23 0 20 255 186 119
23 0 21 43 160 4
23 0 22 158 216 229
23 1 14 255 186 119
23 1 15 255 186 119
23 1 16 255 186 119
23 1 17 255 186 119
23 1 18 255 186 119
23 1 19 255 186 119
23 1 20 255 186 119
23 1 21 158 216 229
23 1 22 158 216 229
23 2 12 255 186 119
23 2 13 255 186 119
23 2 14 255 186 119
23 2 15 255 186 119
23 2 16 255 186 119
23 2 17 255 186 119
23 2 18 255 186 119
23 2 19 255 186 119
23 2 20 255 186 119
23 2 21 158 216 229
23 2 22 158 216 229
23 3 11 255 186 119
23 3 12 255 186 119
23 3 13 255 186 119
23 3 14 255 186 119
23 3 15 255 186 119
23 3 16 255 186 119
23 3 17 255 186 119
23 3 18 255 186 119
23 3 19 255 186 119
23 3 20 255 186 119
23 3 21 158 216 229
23 3 22 158 216 229
23 4 10 255 186 119
23 4 11 255 186 119
23 4 12 255 186 119
23 4 13 255 186 119
23 4 14 255 186 119
23 4 15 255 186 119
23 4 16 255 186 119
23 4 17 255 186 119
23 4 18 255 186 119
23 4 19 255 186 119
23 4 20 255 186 119
23 4 21 158 216 229
23 4 22 158 216 229
23 5 10 255 186 119
23 5 11 255 186 119
23 5 12 255 186 119
23 5 13 255 186 119
23 5 14 255 186 119
23 5 15 255 186 119
23 5 16 255 186 119
23 5 17 255 186 119
23 5 18 255 186 119
23 5 19 255 186 119
23 5 20 255 186 119
23 5 21 158 216 229
23 5 22 158 216 229
23 6 10 255 186 119
23 6 11 255 186 119
23 6 12 255 186 119
23 6 13 255 186 119
23 6 14 255 186 119
23 6 15 255 186 119
23 6 16 255 186 119
23 6 17 255 186 119
23 6 18 255 186 119
23 6 19 255 186 119
23 6 20 255 186 119
23 6 21 255 186 119
23 6 22 158 216 229
23 7 10 255 186 119
23 7 11 255 186 119
23 7 12 255 186 119
23 7 13 255 186 119
23 7 14 255 186 119
23 7 15 255 186 119
23 7 16 255 186 119
23 7 17 255 186 119
23 7 18 255 186 119
23 7 19 196 175 214
23 7 20 196 175 214
23 7 21 158 216 229
23 7 22 158 216 229
23 8 19 196 175 214
23 8 20 196 175 214
23 8 21 196 175 214
23 8 22 158 216 229
23 9 19 196 175 214
23 9 20 196 175 214
23 9 21 196 175 214
23 9 22 158 216 229
23 10 21 158 216 229
23 10 22 158 216 229
23 11 21 158 216 229
23 11 22 158 216 229
23 12 22 158 216 229
23 13 22 158 216 229
23 14 22 158 216 229
23 15 22 158 216 229
23 16 22 158 216 229
24 0 16 255 186 119
24 0 17 255 186 119
24 0 18 255 186 119
24 0 19 255 186 119
24 0 20 255 186 119
24 0 21 43 160 4
24 0 22 158 216 229
24 1 14 255 186 119
24 1 15 255 186 119
24 1 16 255 186 119
24 1 17 255 186 119
24 1 18 255 186 119
24 1 19 255 186 119
24 1 20 255 186 119
24 1 21 158 216 229
24 1 22 158 216 229
24 2 13 255 186 119
24 2 14 255 186 119
24 2 15 255 186 119
24 2 16 255 186 119
24 2 17 255 186 119
24 2 18 255 186 119
24 2 19 255 186 119
24 2 20 255 186 119
24 2 21 158 216 229
24 2 22 158 216 229
24 3 11 255 186 119
24 3 12 255 186 119
24 3 13 255 186 119
24 3 14 255 186 119
24 3 15 255 186 119
24 3 16 255 186 119
24 3 17 255 186 119
24 3 18 255 186 119
24 3 19 255 186 119
24 3 20 255 186 119
24 3 21 158 216 229
24 3 22 158 216 229
24 4 10 255 186 119
24 4 11 255 186 119
24 4 12 255 186 119
24 4 13 255 186 119
24 4 14 255 186 119
24 4 15 255 186 119
24 4 16 255 186 119
24 4 17 255 186 119
24 4 18 255 186 119
24 4 19 255 186 119
24 4 20 255 186 119
24 4 21 158 216 229
24 4 22 158 216 229
24 5 9 255 186 119
24 5 10 255 186 119
24 5 11 255 186 119
24 5 12 255 186 119
24 5 13 255 186 119
24 5 14 255 186 119
24 5 15 255 186 119
24 5 16 255 186 119
24 5 17 255 186 119
24 5 18 255 186 119
24 5 19 255 186 119
24 5 20 255 186 119
24 5 21 255 186 119
24 5 22 158 216 229
24 6 9 255 186 119
24 6 10 255 186 119
24 6 11 255 186 119
24 6 12 255 186 119
24 6 13 255 186 119
24 6 14 255 186 119
24 6 15 255 186 119
24 6 16 255 186 119
24 6 17 255 186 119
24 6 18 255 186 119
24 6 19 255 186 119
24 6 20 255 186 119
24 6 21 255 186 119
24 6 22 158 216 229
24 7 9 255 186 119
24 7 10 255 186 119
24 7 11 255 186 119
24 7 12 255 186 119
24 7 13 255 186 119
24 7 14 255 186 119
24 7 15 255 186 119
24 7 16 255 186 119
24 7 17 255 186 119
24 7 18 255 186 119
24 7 19 255 186 119
24 7 21 158 216 229
24 7 22 158 216 229
24 8 21 158 216 229
24 8 22 158 216 229
24 9 21 158 216 229
24 9 22 158 216 229
24 10 21 158 216 229
24 10 22 158 216 229
24 11 22 158 216 229
24 12 22 158 216 229
24 13 22 158 216 229
24 14 22 158 216 229
24 15 22 158 216 229
24 16 22 158 216 229
24 17 22 158 216 229
25 0 16 255 186 119
25 0 17 255 186 119
25 0 18 255 186 119
25 0 19 255 186 119
25 0 20 255 186 119
25 0 21 43 160 4
25 0 22 158 216 229
25 1 14 255 186 119
25 1 15 255 186 119
25 1 16 255 186 119
25 1 17 255 186 119
25 1 18 255 186 119
25 1 19 255 186 119
25 1 20 255 186 119
25 1 21 158 216 229
25 1 22 158 216 229
25 2 13 255 186 119
25 2 14 255 186 119
25 2 15 255 186 119
25 2 16 255 186 119
25 2 17 255 186 119
25 2 18 255 186 119
25 2 19 255 186 119
25 2 20 255 186 119
25 2 21 158 216 229
25 2 22 158 216 229
25 3 11 255 186 119
25 3 12 255 186 119
25 3 13 255 186 119
25 3 14 255 186 119
25 3 15 255 186 119
25 3 16 255 186 119
25 3 17 255 186 119
25 3 18 255 186 119
25 3 19 255 186 119
25 3 20 255 186 119
25 3 21 158 216 229
25 3 22 158 216 229
25 4 10 255 186 119
25 4 11 255 186 119
25 4 12 255 186 119
25 4 13 255 186 119
25 4 14 255 186 119
25 4 15 255 186 119
25 4 16 255 186 119
25 4 17 255 186 119
25 4 18 255 186 119
25 4 19 255 186 119
25 4 20 255 186 119
25 4 21 158 216 229
25 4 22 158 216 229
25 5 8 255 186 119
25 5 9 255 186 119
25 5 10 255 186 119
25 5 11 255 186 119
25 5 12 255 186 119
25 5 13 255 186 119
25 5 14 255 186 119
25 5 15 255 186 119
25 5 16 255 186 119
25 5 17 255 186 119
25 5 18 255 186 119
25 5 19 255 186 119
25 5 20 255 186 119
25 5 21 255 186 119
25 5 22 158 216 229
25 6 7 255 186 119
25 6 8 255 186 119
25 6 9 255 186 119
25 6 10 255 186 119
25 6 11 255 186 119
25 6 12 255 186 119
25 6 13 255 186 119
25 6 14 255 186 119
25 6 15 255 186 119
25 6 16 255 186 119
25 6 17 255 186 119
25 6 18 255 186 119
25 6 19 255 186 119
25 6 20 255 186 119
25 6 21 255 186 119
25 6 22 158 216 229
25 7 7 255 186 119
25 7 8 255 186 119
25 7 9 255 186 119
25 7 10 255 186 119
25 7 11 255 186 119
25 7 12 255 186 119
25 7 13 255 186 119
25 7 14 255 186 119
25 7 15 255 186 119
25 7 16 255 186 119
25 7 17 255 186 119
25 7 18 255 186 119
25 7 19 255 186 119
25 7 20 255 186 119
25 7 21 158 216 229
25 7 22 158 216 229
25 8 21 158 216 229
25 8 22 158 216 229
25 9 21 158 216 229
25 9 22 158 216 229
25 10 22 158 216 229
25 11 22 158 216 229
25 12 22 158 216 229
25 13 22 158 216 229
25 14 22 158 216 229
25 15 22 158 216 229
25 16 22 158 216 229
25 17 22 158 216 229
26 0 16 255 186 119
26 0 17 255 186 119
26 0 18 255 186 119
26 0 19 255 186 119
26 0 20 255 186 119
26 0 21 43 160 4
26 0 22 158 216 229
26 1 15 255 186 119
26 1 16 255 186 119
26 1 17 255 186 119
26 1 18 255 186 119
26 1 19 255 186 119
26 1 20 255 186 119
26 1 21 158 216 229
26 1 22 158 216 229
26 2 13 255 186 119
26 2 14 255 186 119
26 2 15 255 186 119
26 2 16 255 186 119
26 2 17 255 186 119
26 2 18 255 186 119
26 2 19 255 186 119
26 2 20 255 186 119
26 2 21 158 216 229
26 2 22 158 216 229
26 3 12 255 186 119
26 3 13 255 186 119
26 3 14 255 186 119
26 3 15 255 186 119
26 3 16 255 186 119
26 3 17 255 186 119
26 3 18 255 186 119
26 3 19 255 186 119
26 3 20 255 186 119
26 3 21 158 216 229
26 3 22 158 216 229
26 4 10 255 186 119
26 4 11 255 186 119
26 4 12 255 186 119
26 4 13 255 186 119
26 4 14 255 186 119
26 4 15 255 186 119
26 4 16 255 186 119
26 4 17 255 186 119
26 4 18 255 186 119
26 4 19 255 186 119
26 4 20 255 186 119
26 4 21 255 186 119
26 4 22 158 216 229
26 5 9 255 186 119
26 5 10 255 186 119
26 5 11 255 186 119
26 5 12 255 186 119
26 5 13 255 186 119
26 5 14 255 186 119
26 5 15 255 186 119
26 5 16 255 186 119
26 5 17 255 186 119
26 5 18 255 186 119
26 5 19 255 186 119
26 5 20 255 186 119
26 5 21 255 186 119
26 5 22 158 216 229
26 6 7 255 186 119
26 6 8 255 186 119
26 6 9 255 186 119
26 6 10 255 186 119
26 6 11 255 186 119
26 6 12 255 186 119
26 6 13 255 186 119
26 6 14 255 186 119
26 6 15 255 186 119
26 6 16 255 186 119
26 6 17 255 186 119
26 6 18 255 186 119
26 6 19 255 186 119
26 6 20 255 186 119
26 6 21 255 186 119
26 6 22 158 216 229
26 7 6 255 186 119
26 7 7 255 186 119
26 7 8 255 186 119
26 7 9 255 186 119
26 7 10 255 186 119
26 7 11 255 186 119
26 7 12 255 186 119
26 7 13 255 186 119
26 7 14 255 186 119
26 7 15 255 186 119
26 7 16 255 186 119
26 7 17 255 186 119
26 7 18 255 186 119
26 7 19 255 186 119
26 7 20 255 186 119
26 7 21 158 216 229
26 7 22 158 216 229
26 8 21 158 216 229
26 8 22 158 216 229
26 9 22 158 216 229
26 10 22 158 216 229
26 11 22 158 216 229
26 12 22 158 216 229
26 13 22 158 216 229
26 14 22 158 216 229
26 15 22 158 216 229
26 16 22 158 216 229
26 17 22 158 216 229
27 0 16 196 175 214
27 0 17 196 175 214
27 0 18 196 175 214
27 0 19 196 175 214
27 0 20 196 175 214
27 0 21 196 175 214
27 0 22 158 216 229
27 1 15 196 175 214
27 1 16 196 175 214
27 1 17 196 175 214
27 1 18 196 175 214
27 1 19 196 175 214
27 1 20 196 175 214
27 1 21 196 175 214
27 1 22 158 216 229
27 2 13 255 186 119
27 2 14 255 186 119
27 2 15 196 175 214
27 2 16 196 175 214
27 2 17 196 175 214
27 2 18 196 175 214
27 2 19 196 175 214
27 2 20 196 175 214
27 2 21 196 175 214
27 2 22 158 216 229
27 3 12 255 186 119
27 3 13 255 186 119
27 3 15 196 175 214
27 3 16 196 175 214
27 3 17 196 175 214
27 3 18 196 175 214
27 3 19 196 175 214
27 3 20 196 175 214
27 3 21 196 175 214
27 3 22 158 216 229
27 4 10 255 186 119
27 4 11 255 186 119
27 4 15 196 175 214
27 4 16 196 175 214
27 4 17 196 175 214
27 4 18 196 175 214
27 4 19 196 175 214
27 4 20 196 175 214
27 4 21 196 175 214
27 4 22 158 216 229
27 5 9 255 186 119
27 5 15 196 175 214
27 5 16 196 175 214
27 5 17 196 175 214
27 5 18 196 175 214
27 5 19 196 175 214
27 5 20 196 175 214
27 5 21 158 216 229
27 5 22 158 216 229
27 6 7 255 186 119
27 6 21 158 216 229
27 6 22 158 216 229
27 7 21 158 216 229
27 7 22 158 216 229
27 8 22 158 216 229
27 9 22 158 216 229
27 10 22 158 216 229
27 11 22 158 216 229
27 12 22 158 216 229
27 13 22 158 216 229
27 14 22 158 216 229
27 15 22 158 216 229
27 16 22 158 216 229
27 17 22 158 216 229
28 0 16 196 175 214
28 0 17 196 175 214
28 0 18 196 175 214
28 0 19 196 175 214
28 0 20 196 175 214
28 0 21 196 175 214
28 0 22 158 216 229
28 1 15 196 175 214
28 1 16 196 175 214
28 1 17 196 175 214
28 1 18 196 175 214
28 1 19 196 175 214
28 1 20 196 175 214
28 1 21 196 175 214
28 1 22 158 216 229
28 2 15 196 175 214
28 2 16 196 175 214
28 2 17 196 175 214
28 2 18 196 175 214
28 2 19 196 175 214
28 2 20 196 175 214
28 2 21 196 175 214
28 2 22 158 216 229
28 3 15 196 175 214
28 3 16 196 175 214
28 3 17 196 175 214
28 3 18 196 175 214
28 3 19 196 175 214
28 3 20 196 175 214
28 3 21 196 175 214
28 3 22 158 216 229
28 4 15 196 175 214
28 4 16 196 175 214
28 4 17 196 175 214
28 4 18 196 175 214
28 4 19 196 175 214
28 4 20 196 175 214
28 4 21 196 175 214
28 4 22 158 216 229
28 5 15 196 175 214
28 5 16 196 175 214
28 5 17 196 175 214
28 5 18 196 175 214
28 5 19 196 175 214
28 5 20 196 175 214
28 5 21 158 216 229
28 5 22 158 216 229
28 6 21 158 216 229
28 6 22 158 216 229
28 7 21 158 216 229
28 7 22 158 216 229
28 8 22 158 216 229
28 9 22 158 216 229
28 10 22 158 216 229
28 11 22 158 216 229
28 12 22 158 216 229
28 13 22 158 216 229
28 14 22 158 216 229
28 15 22 158 216 229
28 16 22 158 216 229
28 17 22 158 216 229
29 0 17 196 175 214
29 0 18 196 175 214
29 0 19 196 175 214
29 0 20 196 175 214
29 0 21 196 175 214
29 0 22 158 216 229
29 1 15 196 175 214
29 1 16 196 175 214
29 1 17 196 175 214
29 1 18 196 175 214
29 1 19 196 175 214
29 1 20 196 175 214
29 1 21 196 175 214
29 1 22 158 216 229
29 2 15 196 175 214
29 2 16 196 175 214
29 2 17 196 175 214
29 2 18 196 175 214
29 2 19 196 175 214
29 2 20 196 175 214
29 2 21 196 175 214
29 2 22 158 216 229
29 3 15 196 175 214
29 3 16 196 175 214
29 3 17 196 175 214
29 3 18 196 175 214
29 3 19 196 175 214
29 3 20 196 175 214
29 3 21 196 175 214
29 3 22 158 216 229
29 4 15 196 175 214
29 4 16 196 175 214
29 4 17 196 175 214
29 4 18 196 175 214
29 4 19 196 175 214
29 4 20 196 175 214
29 4 21 196 175 214
29 4 22 158 216 229
29 5 15 196 175 214
29 5 16 196 175 214
29 5 17 196 175 214
29 5 18 196 175 214
29 5 19 196 175 214
29 5 20 196 175 214
29 5 21 158 216 229
29 5 22 158 216 229
29 6 21 158 216 229
29 6 22 158 216 229
29 7 22 158 216 229
29 8 22 158 216 229
29 9 22 158 216 229
29 10 22 158 216 229
29 11 22 158 216 229
29 12 22 158 216 229
29 13 22 158 216 229
29 14 22 158 216 229
29 15 22 158 216 229
29 16 22 158 216 229
29 17 22 158 216 229
30 0 17 196 175 214
30 0 18 196 175 214
30 0 19 196 175 214
30 0 20 196 175 214
30 0 21 196 175 214
30 0 22 158 216 229
30 1 15 196 175 214
30 1 16 196 175 214
30 1 17 196 175 214
30 1 18 196 175 214
30 1 19 196 175 214
30 1 20 196 175 214
30 1 21 196 175 214
30 1 22 158 216 229
30 2 15 196 175 214
30 2 16 196 175 214
30 2 17 196 175 214
30 2 18 196 175 214
30 2 19 196 175 214
30 2 20 196 175 214
30 2 21 196 175 214
30 2 22 158 216 229
30 3 15 196 175 214
30 3 16 196 175 214
30 3 17 196 175 214
30 3 18 196 175 214
30 3 19 196 175 214
30 3 20 196 175 214
30 3 21 196 175 214
30 3 22 158 216 229
30 4 15 196 175 214
30 4 16 196 175 214
30 4 17 196 175 214
30 4 18 196 175 214
30 4 19 196 175 214
30 4 20 196 175 214
30 4 21 196 175 214
30 4 22 158 216 229
30 5 15 196 175 214
30 5 16 196 175 214
30 5 17 196 175 214
30 5 18 196 175 214
30 5 19 196 175 214
30 5 20 196 175 214
30 5 21 158 216 229
30 5 22 158 216 229
30 6 22 158 216 229
30 7 22 158 216 229
30 8 22 158 216 229
30 9 22 158 216 229
30 10 22 158 216 229
30 11 22 158 216 229
30 12 22 158 216 229
30 13 22 158 216 229
30 14 22 158 216 229
30 15 22 158 216 229
30 16 22 158 216 229
30 17 22 158 216 229
31 0 17 196 175 214
31 0 18 196 175 214
31 0 19 196 175 214
31 0 20 196 175 214
31 0 21 196 175 214
31 0 22 158 216 229
31 1 16 196 175 214
31 1 17 196 175 214
31 1 18 196 175 214
31 1 19 196 175 214
31 1 20 196 175 214
31 1 21 196 175 214
31 1 22 158 216 229
31 2 15 196 175 214
31 2 16 196 175 214
31 2 17 196 175 214
31 2 18 196 175 214
31 2 19 196 175 214
31 2 20 196 175 214
31 2 21 196 175 214
31 2 22 158 216 229
31 3 15 196 175 214
31 3 16 196 175 214
31 3 17 196 175 214
31 3 18 196 175 214
31 3 19 196 175 214
31 3 20 196 175 214
31 3 21 196 175 214
31 3 22 158 216 229
31 4 15 196 175 214
31 4 16 196 175 214
31 4 17 196 175 214
31 4 18 196 175 214
31 4 19 196 175 214
31 4 20 196 175 214
31 4 21 196 175 214
31 4 22 158 216 229
31 5 15 196 175 214
31 5 16 196 175 214
31 5 17 196 175 214
31 5 18 196 175 214
31 5 19 196 175 214
31 5 20 196 175 214
31 5 21 196 175 214
31 5 22 158 216 229
31 6 22 158 216 229
31 7 22 158 216 229
31 8 22 158 216 229
31 9 22 158 216 229
31 10 22 158 216 229
31 11 22 158 216 229
31 12 22 158 216 229
31 13 22 158 216 229
31 14 22 158 216 229
31 15 22 158 216 229
31 16 22 158 216 229
31 17 22 158 216 229
32 0 17 196 175 214
32 0 18 196 175 214
32 0 19 196 175 214
32 0 20 196 175 214
32 0 21 196 175 214
32 0 22 158 216 229
32 1 16 196 175 214
32 1 17 196 175 214
32 1 18 196 175 214
32 1 19 196 175 214
32 1 20 196 175 214
32 1 21 196 175 214
32 1 22 158 216 229
32 2 15 196 175 214
32 2 16 196 175 214
32 2 17 196 175 214
32 2 18 196 175 214
32 2 19 196 175 214
32 2 20 196 175 214
32 2 21 196 175 214
32 2 22 158 216 229
32 3 15 196 175 214
32 3 16 196 175 214
32 3 17 196 175 214
32 3 18 196 175 214
32 3 19 196 175 214
32 3 20 196 175 214
32 3 21 196 175 214
32 3 22 158 216 229
32 4 15 196 175 214
32 4 16 196 175 214
32 4 17 196 175 214
32 4 18 196 175 214
32 4 19 196 175 214
32 4 20 196 175 214
32 4 21 196 175 214
32 4 22 158 216 229
32 5 15 196 175 214
32 5 16 196 175 214
32 5 17 196 175 214
32 5 18 196 175 214
32 5 19 196 175 214
32 5 20 196 175 214
32 5 21 196 175 214
32 5 22 158 216 229
32 6 22 158 216 229
32 7 22 158 216 229
32 8 22 158 216 229
32 9 22 158 216 229
32 10 22 158 216 229
32 11 22 158 216 229
32 12 22 158 216 229
32 13 22 158 216 229
32 14 22 158 216 229
32 15 22 158 216 229
32 16 22 158 216 229
32 17 22 158 216 229
32 18 22 158 216 229
33 0 17 196 175 214
33 0 18 196 175 214
33 0 19 196 175 214
33 0 20 196 175 214
33 0 21 196 175 214
33 0 22 158 216 229
33 1 16 196 175 214
33 1 17 196 175 214
33 1 18 196 175 214
33 1 19 196 175 214
33 1 20 196 175 214
33 1 21 196 175 214
33 1 22 158 216 229
33 2 15 196 175 214
33 2 16 196 175 214
33 2 17 196 175 214
33 2 18 196 175 214
33 2 19 196 175 214
33 2 20 196 175 214
33 2 21 196 175 214
33 2 22 158 216 229
33 3 15 196 175 214
33 3 16 196 175 214
33 3 17 196 175 214
33 3 18 196 175 214
33 3 19 196 175 214
33 3 20 196 175 214
33 3 21 196 175 214
33 3 22 158 216 229
33 4 15 196 175 214
33 4 16 196 175 214
33 4 17 196 175 214
33 4 18 196 175 214
33 4 19 196 175 214
33 4 20 196 175 214
33 4 21 196 175 214
33 4 22 158 216 229
33 5 15 196 175 214
33 5 16 196 175 214
33 5 17 196 175 214
33 5 18 196 175 214
33 5 19 196 175 214
33 5 20 196 175 214
33 5 21 196 175 214
33 5 22 158 216 229
33 6 22 158 216 229
33 7 22 158 216 229
33 8 22 158 216 229
33 9 22 158 216 229
33 10 22 158 216 229
33 11 22 158 216 229
33 12 22 158 216 229
33 13 22 158 216 229
33 14 22 158 216 229
33 15 22 158 216 229
33 16 22 158 216 229
33 17 22 158 216 229
33 18 22 158 216 229
34 0 18 196 175 214
34 0 19 196 175 214
34 0 20 196 175 214
34 0 21 196 175 214
34 0 22 158 216 229
34 1 16 196 175 214
34 1 17 196 175 214
34 1 18 196 175 214
34 1 19 196 175 214
34 1 20 196 175 214
34 1 21 196 175 214
34 1 22 158 216 229
34 2 15 196 175 214
34 2 16 196 175 214
34 2 17 196 175 214
34 2 18 196 175 214
34 2 19 196 175 214
34 2 20 196 175 214
34 2 21 196 175 214
34 2 22 158 216 229
34 3 15 196 175 214
34 3 16 196 175 214
34 3 17 196 175 214
34 3 18 196 175 214
34 3 19 196 175 214
34 3 20 196 175 214
34 3 21 196 175 214
34 3 22 158 216 229
34 4 15 196 175 214
34 4 16 196 175 214
34 4 17 196 175 214
34 4 18 196 175 214
34 4 19 196 175 214
34 4 20 196 175 214
34 4 21 196 175 214
34 4 22 158 216 229
34 5 15 196 175 214
34 5 16 196 175 214
34 5 17 196 175 214
34 5 18 196 175 214
34 5 19 196 175 214
34 5 20 196 175 214
34 5 21 196 175 214
34 5 22 158 216 229
34 6 22 158 216 229
34 7 22 158 216 229
34 8 22 158 216 229
34 9 22 158 216 229
34 10 22 158 216 229
34 11 22 158 216 229
34 12 22 158 216 229
34 13 22 158 216 229
34 14 22 158 216 229
34 15 22 158 216 229
34 16 22 158 216 229
34 17 22 158 216 229
34 18 22 158 216 229
35 0 18 196 175 214
35 0 19 196 175 214
35 0 20 196 175 214
35 0 21 196 175 214
35 0 22 158 216 229
35 1 16 196 175 214
35 1 17 196 175 214
35 1 18 196 175 214
35 1 19 196 175 214
35 1 20 196 175 214
35 1 21 196 175 214
35 1 22 158 216 229
35 2 15 196 175 214
35 2 16 196 175 214
35 2 17 196 175 214
35 2 18 196 175 214
35 2 19 196 175 214
35 2 20 196 175 214
35 2 21 196 175 214
35 2 22 158 216 229
35 3 15 196 175 214
35 3 16 196 175 214
35 3 17 196 175 214
35 3 18 196 175 214
35 3 19 196 175 214
35 3 20 196 175 214
35 3 21 196 175 214
35 3 22 158 216 229
35 4 15 196 175 214
35 4 16 196 175 214
35 4 17 196 175 214
35 4 18 196 175 214
35 4 19 196 175 214
35 4 20 196 175 214
35 4 21 196 175 214
35 4 22 158 216 229
35 5 15 196 175 214
35 5 16 196 175 214
35 5 17 196 175 214
35 5 18 196 175 214
35 5 19 196 175 214
35 5 20 196 175 214
35 5 21 196 175 214
35 5 22 158 216 229
35 6 22 158 216 229
35 7 22 158 216 229
35 8 22 158 216 229
35 9 22 158 216 229
35 10 22 158 216 229
35 11 22 158 216 229
35 12 22 158 216 229
35 13 22 158 216 229
35 14 22 158 216 229
35 15 22 158 216 229
35 16 22 158 216 229
35 17 22 158 216 229
35 18 22 158 216 229
36 0 18 43 160 4
36 0 19 43 160 4
36 0 20 43 160 4
36 0 21 43 160 4
36 0 22 158 216 229
36 1 22 158 216 229
36 2 22 158 216 229
36 3 22 158 216 229
36 4 22 158 216 229
36 5 22 158 216 229
36 6 22 158 216 229
36 7 22 158 216 229
36 8 22 158 216 229
36 9 22 158 216 229
36 10 22 158 216 229
36 11 22 158 216 229
36 12 22 158 216 229
36 13 22 158 216 229
36 14 22 158 216 229
36 15 22 158 216 229
36 16 22 158 216 229
36 17 22 158 216 229
36 18 22 158 216 229
37 0 18 43 160 4
37 0 19 43 160 4
37 0 20 43 160 4
37 0 21 43 160 4
37 0 22 158 216 229
37 1 22 158 216 229
37 2 22 158 216 229
37 3 22 158 216 229
37 4 22 158 216 229
37 5 22 158 216 229
37 6 22 158 216 229
37 7 22 158 216 229
37 8 22 158 216 229
37 9 22 158 216 229
37 10 22 158 216 229
37 11 22 158 216 229
37 12 22 158 216 229
37 13 22 158 216 229
37 14 22 158 216 229
37 15 22 158 216 229
37 16 22 158 216 229
37 17 22 158 216 229
37 18 22 158 216 229
38 0 18 43 160 4
38 0 19 43 160 4
38 0 20 43 160 4
38 0 21 43 160 4
38 0 22 158 216 229
38 1 22 158 216 229
38 2 22 158 216 229
38 3 22 158 216 229
38 4 22 158 216 229
38 5 22 158 216 229
38 6 22 158 216 229
38 7 22 158 216 229
38 8 22 158 216 229
38 9 22 158 216 229
38 10 22 158 216 229
38 11 22 158 216 229
38 12 22 158 216 229
38 13 22 158 216 229
38 14 22 158 216 229
38 15 22 158 216 229
38 16 22 158 216 229
38 17 22 158 216 229
38 18 22 158 216 229
39 0 19 43 160 4
39 0 20 43 160 4
39 0 21 43 160 4
39 0 22 158 216 229
39 1 22 158 216 229
39 2 22 158 216 229
39 3 22 158 216 229
39 4 22 158 216 229
39 5 22 158 216 229
39 6 22 158 216 229
39 7 22 158 216 229
39 8 22 158 216 229
39 9 22 158 216 229
39 10 22 158 216 229
39 11 22 158 216 229
39 12 22 158 216 229
39 13 22 158 216 229
39 14 22 158 216 229
39 15 22 158 216 229
39 16 22 158 216 229
39 17 22 158 216 229
39 18 22 158 216 229
40 0 19 43 160 4
40 0 20 43 160 4
40 0 21 43 160 4
40 0 22 158 216 229
40 1 22 158 216 229
40 2 22 158 216 229
40 3 22 158 216 229
40 4 22 158 216 229
40 5 22 158 216 229
40 6 22 158 216 229
40 7 22 158 216 229
40 8 22 158 216 229
40 9 22 158 216 229
40 10 22 158 216 229
40 11 22 158 216 229
40 12 22 158 216 229
40 13 22 158 216 229
40 14 22 158 216 229
40 15 22 158 216 229
40 16 22 158 216 229
40 17 22 158 216 229
40 18 22 158 216 229
41 0 19 43 160 4
41 0 20 43 160 4
41 0 21 43 160 4
41 0 22 158 216 229
41 1 22 158 216 229
41 2 22 158 216 229
41 3 22 158 216 229
41 4 22 158 216 229
41 5 22 158 216 229
41 6 22 158 216 229
41 7 22 158 216 229
41 8 22 158 216 229
41 9 22 158 216 229
41 10 22 158 216 229
41 11 22 158 216 229
41 12 22 158 216 229
41 13 22 158 216 229
41 14 22 158 216 229
41 15 22 158 216 229
41 16 22 158 216 229
41 17 22 158 216 229
42 0 19 43 160 4
42 0 20 43 160 4
42 0 21 43 160 4
42 0 22 158 216 229
42 1 22 158 216 229
42 2 22 158 216 229
42 3 22 158 216 229
42 4 22 158 216 229
42 5 22 158 216 229
42 6 22 158 216 229
42 7 22 158 216 229
42 8 22 158 216 229
42 9 22 158 216 229
42 10 22 158 216 229
42 11 22 158 216 229
42 12 22 158 216 229
42 13 22 158 216 229
43 0 19 43 160 4
43 0 20 43 160 4
43 0 21 43 160 4
43 0 22 158 216 229
43 1 22 158 216 229
43 2 22 158 216 229
43 3 22 158 216 229
43 4 22 158 216 229
43 5 22 158 216 229
43 6 22 158 216 229
43 7 22 158 216 229
43 8 22 158 216 229
43 9 22 158 216 229
44 0 21 43 160 4
44 0 22 158 216 229
44 1 22 158 216 229
44 2 22 158 216 229
44 3 22 158 216 229
44 4 22 158 216 229
45 0 22 158 216 229
