ply
format ascii 1.0
element vertex 3839
property float x
property float y
property float z
property uchar red
property uchar green
property uchar blue
end_header
0 0 46 43 160 4
0 0 47 43 160 4
0 0 48 43 160 4
0 0 49 43 160 4
0 0 50 43 160 4
0 0 51 43 160 4
0 0 52 43 160 4
0 0 53 43 160 4
0 0 54 43 160 4
0 0 55 43 160 4
0 0 56 43 160 4
0 0 57 43 160 4
0 0 58 43 160 4
0 0 59 43 160 4
1 0 45 43 160 4
1 0 46 43 160 4
1 0 47 43 160 4
1 0 48 43 160 4
1 0 49 43 160 4
1 0 50 43 160 4
1 0 51 43 160 4
1 0 52 43 160 4
1 0 53 43 160 4
1 0 54 43 160 4
1 0 55 43 160 4
1 0 56 43 160 4
1 0 57 43 160 4
1 0 58 43 160 4
1 0 59 43 160 4
2 0 43 43 160 4
2 0 44 43 160 4
2 0 45 43 160 4
2 0 46 43 160 4
2 0 47 43 160 4
2 0 48 43 160 4
2 0 49 43 160 4
2 0 50 43 160 4
2 0 51 43 160 4
2 0 52 43 160 4
2 0 53 43 160 4
2 0 54 43 160 4
2 0 55 43 160 4
2 0 56 43 160 4
2 0 57 43 160 4
2 0 58 43 160 4
2 0 59 43 160 4
3 0 42 43 160 4
3 0 43 43 160 4
3 0 44 43 160 4
3 0 45 43 160 4
3 0 46 43 160 4
3 0 47 43 160 4
3 0 48 43 160 4
3 0 49 43 160 4
3 0 50 43 160 4
3 0 51 43 160 4
3 0 52 43 160 4
3 0 53 43 160 4
3 0 54 43 160 4
3 0 55 43 160 4
3 0 56 43 160 4
3 0 57 43 160 4
3 0 58 43 160 4
3 0 59 43 160 4
4 0 40 43 160 4
4 0 41 43 160 4
4 0 42 43 160 4
4 0 43 43 160 4
4 0 44 43 160 4
4 0 45 43 160 4
4 0 46 43 160 4
4 0 47 43 160 4
4 0 48 43 160 4
4 0 49 43 160 4
4 0 50 43 160 4
4 0 51 43 160 4
4 0 52 43 160 4
4 0 53 43 160 4
4 0 54 43 160 4
4 0 55 43 160 4
4 0 56 43 160 4
4 0 57 43 160 4
4 0 58 43 160 4
4 0 59 43 160 4
5 0 38 43 160 4
5 0 39 43 160 4
5 0 40 43 160 4
5 0 41 43 160 4
5 0 42 43 160 4
5 0 43 43 160 4
5 0 44 43 160 4
5 0 45 43 160 4
5 0 46 43 160 4
5 0 47 43 160 4
5 0 48 43 160 4
5 0 49 43 160 4
5 0 50 43 160 4
5 0 51 43 160 4
5 0 52 43 160 4
5 0 53 43 160 4
5 0 54 43 160 4
5 0 55 43 160 4
5 0 56 43 160 4
5 0 57 43 160 4
5 0 58 43 160 4
5 0 59 43 160 4
6 0 37 43 160 4
6 0 38 43 160 4
6 0 39 43 160 4
6 0 40 43 160 4
6 0 41 43 160 4
6 0 42 43 160 4
6 0 43 43 160 4
6 0 44 43 160 4
6 0 45 43 160 4
6 0 46 43 160 4
6 0 47 43 160 4
6 0 48 43 160 4
6 0 49 43 160 4
6 0 50 43 160 4
6 0 51 43 160 4
6 0 52 43 160 4
6 0 53 43 160 4
6 0 54 43 160 4
6 0 55 43 160 4
6 0 56 43 160 4
6 0 57 43 160 4
6 0 58 43 160 4
6 0 59 43 160 4
7 0 35 43 160 4
7 0 36 43 160 4
7 0 37 43 160 4
7 0 38 43 160 4
7 0 39 43 160 4
7 0 40 43 160 4
7 0 41 43 160 4
7 0 42 43 160 4
7 0 43 43 160 4
7 0 44 43 160 4
7 0 45 43 160 4
7 0 46 43 160 4
7 0 47 43 160 4
7 0 48 43 160 4
7 0 49 43 160 4
7 0 50 43 160 4
7 0 51 43 160 4
7 0 52 43 160 4
7 0 53 43 160 4
7 0 54 43 160 4
7 0 55 43 160 4
7 0 56 43 160 4
7 0 57 43 160 4
7 0 58 43 160 4
7 0 59 43 160 4
8 0 34 43 160 4
8 0 35 43 160 4
8 0 36 43 160 4
8 0 37 43 160 4
8 0 38 43 160 4
8 0 39 43 160 4
8 0 40 43 160 4
8 0 41 43 160 4
8 0 42 43 160 4
8 0 43 43 160 4
8 0 44 43 160 4
8 0 45 43 160 4
8 0 46 43 160 4
8 0 47 43 160 4
8 0 48 43 160 4
8 0 49 43 160 4
8 0 50 43 160 4
8 0 51 43 160 4
8 0 52 43 160 4
8 0 53 43 160 4
8 0 54 43 160 4
8 0 55 43 160 4
8 0 56 43 160 4
8 0 57 43 160 4
8 0 58 43 160 4
8 0 59 43 160 4
9 0 32 43 160 4
9 0 33 43 160 4
9 0 34 43 160 4
9 0 35 43 160 4
9 0 36 43 160 4
9 0 37 43 160 4
9 0 38 43 160 4
9 0 39 43 160 4
9 0 40 43 160 4
9 0 41 43 160 4
9 0 42 43 160 4
9 0 43 43 160 4
9 0 44 43 160 4
9 0 45 43 160 4
9 0 46 43 160 4
9 0 47 43 160 4
9 0 48 43 160 4
9 0 49 43 160 4
9 0 50 43 160 4
9 0 51 43 160 4
9 0 52 43 160 4
9 0 53 43 160 4
9 0 54 43 160 4
9 0 55 43 160 4
9 0 56 43 160 4
9 0 57 43 160 4
9 0 58 43 160 4
9 0 59 43 160 4
10 0 30 43 160 4
10 0 31 43 160 4
10 0 32 43 160 4
10 0 33 43 160 4
10 0 34 43 160 4
10 0 35 43 160 4
10 0 36 43 160 4
10 0 37 43 160 4
10 0 38 43 160 4
10 0 39 43 160 4
10 0 40 43 160 4
10 0 41 43 160 4
10 0 42 43 160 4
10 0 43 43 160 4
10 0 44 43 160 4
10 0 45 43 160 4
10 0 46 43 160 4
10 0 47 43 160 4
10 0 48 43 160 4
10 0 49 43 160 4
10 0 50 43 160 4
10 0 51 43 160 4
10 0 52 43 160 4
10 0 53 43 160 4
10 0 54 43 160 4
10 0 55 43 160 4
10 0 56 43 160 4
10 0 57 43 160 4
10 0 58 43 160 4
10 0 59 43 160 4
11 0 29 43 160 4
11 0 30 43 160 4
11 0 31 43 160 4
11 0 32 43 160 4
11 0 33 43 160 4
11 0 34 43 160 4
11 0 35 43 160 4
11 0 36 43 160 4
11 0 37 43 160 4
11 0 38 43 160 4
11 0 39 43 160 4
11 0 40 43 160 4
11 0 41 43 160 4
11 0 42 43 160 4
11 0 43 43 160 4
11 0 44 43 160 4
11 0 45 43 160 4
11 0 46 43 160 4
11 0 47 43 160 4
11 0 48 43 160 4
11 0 49 43 160 4
11 0 50 43 160 4
11 0 51 43 160 4
11 0 52 43 160 4
11 0 53 43 160 4
11 0 54 43 160 4
11 0 55 43 160 4
11 0 56 43 160 4
11 0 57 43 160 4
11 0 58 43 160 4
11 0 59 43 160 4
12 0 28 43 160 4
12 0 29 43 160 4
12 0 30 43 160 4
12 0 31 43 160 4
12 0 32 43 160 4
12 0 33 43 160 4
12 0 34 43 160 4
12 0 35 43 160 4
12 0 36 43 160 4
12 0 37 43 160 4
12 0 38 43 160 4
12 0 39 43 160 4
12 0 40 43 160 4
12 0 41 43 160 4
12 0 42 43 160 4
12 0 43 43 160 4
12 0 44 43 160 4
12 0 45 43 160 4
12 0 46 43 160 4
12 0 47 43 160 4
12 0 48 43 160 4
12 0 49 43 160 4
12 0 50 43 160 4
12 0 51 43 160 4
12 0 52 43 160 4
12 0 53 43 160 4
12 0 54 43 160 4
12 0 55 43 160 4
12 0 56 43 160 4
12 0 57 43 160 4
12 0 58 43 160 4
12 0 59 43 160 4
13 0 27 43 160 4
13 0 28 43 160 4
13 0 29 43 160 4
13 0 30 43 160 4
13 0 31 43 160 4
13 0 32 43 160 4
13 0 33 43 160 4
13 0 34 43 160 4
13 0 35 43 160 4
13 0 36 43 160 4
13 0 37 43 160 4
13 0 38 43 160 4
13 0 39 43 160 4
13 0 40 43 160 4
13 0 41 43 160 4
13 0 42 43 160 4
13 0 43 43 160 4
13 0 44 43 160 4
13 0 45 43 160 4
13 0 46 43 160 4
13 0 47 43 160 4
13 0 48 43 160 4
13 0 49 43 160 4
13 0 50 43 160 4
13 0 51 43 160 4
13 0 52 43 160 4
13 0 53 43 160 4
13 0 54 43 160 4
13 0 55 43 160 4
13 0 56 43 160 4
13 0 57 43 160 4
13 0 58 43 160 4
13 0 59 43 160 4
13 1 26 158 216 229
13 2 26 158 216 229
13 3 26 158 216 229
13 4 26 158 216 229
13 5 26 158 216 229
13 6 26 158 216 229
13 7 26 158 216 229
13 10 26 158 216 229
13 11 26 158 216 229
13 12 26 158 216 229
14 0 27 43 160 4
14 0 28 43 160 4
14 0 29 43 160 4
14 0 30 43 160 4
14 0 31 43 160 4
14 0 32 43 160 4
14 0 33 43 160 4
14 0 34 43 160 4
14 0 35 43 160 4
14 0 36 43 160 4
14 0 37 43 160 4
14 0 38 43 160 4
14 0 39 43 160 4
14 0 40 43 160 4
14 0 41 43 160 4
14 0 42 43 160 4
14 0 43 43 160 4
14 0 44 43 160 4
14 0 45 43 160 4
14 0 46 43 160 4
14 0 47 43 160 4
14 0 48 43 160 4
14 0 49 43 160 4
14 0 50 43 160 4
14 0 51 43 160 4
14 0 52 43 160 4
14 0 53 43 160 4
14 0 54 43 160 4
14 0 55 43 160 4
14 0 56 43 160 4
14 0 57 43 160 4
14 0 58 43 160 4
14 0 59 43 160 4
14 1 25 255 186 119
14 1 26 158 216 229
14 2 24 255 186 119
14 2 25 255 186 119
14 2 26 158 216 229
14 3 24 255 186 119
14 3 25 255 186 119
14 3 26 158 216 229
14 4 24 255 186 119
14 4 25 255 186 119
14 4 26 158 216 229
14 5 24 255 186 119
14 5 25 255 186 119
14 5 26 158 216 229
14 6 25 255 186 119
14 6 26 158 216 229
14 7 26 158 216 229
14 8 25 158 216 229
14 8 26 158 216 229
14 9 25 158 216 229
14 10 25 158 216 229
14 10 26 158 216 229
14 11 25 158 216 229
14 12 25 158 216 229
14 13 25 158 216 229
14 13 26 158 216 229
14 14 25 158 216 229
14 15 25 158 216 229
14 15 26 158 216 229
14 16 25 158 216 229
14 16 26 158 216 229
14 17 25 158 216 229
14 18 25 158 216 229
14 19 25 158 216 229
14 20 26 158 216 229
14 21 26 158 216 229
14 22 26 158 216 229
14 23 26 158 216 229
15 0 27 43 160 4
15 0 28 43 160 4
15 0 29 43 160 4
15 0 30 43 160 4
15 0 31 43 160 4
15 0 32 43 160 4
15 0 33 43 160 4
15 0 34 43 160 4
15 0 35 43 160 4
15 0 36 43 160 4
15 0 37 43 160 4
15 0 38 43 160 4
15 0 39 43 160 4
15 0 40 43 160 4
15 0 41 43 160 4
15 0 42 43 160 4
15 0 43 43 160 4
15 0 44 43 160 4
15 0 45 43 160 4
15 0 46 43 160 4
15 0 47 43 160 4
15 0 48 43 160 4
15 0 49 43 160 4
15 0 50 43 160 4
15 0 51 43 160 4
15 0 52 43 160 4
15 0 53 43 160 4
15 0 54 43 160 4
15 0 55 43 160 4
15 0 56 43 160 4
15 0 57 43 160 4
15 0 58 43 160 4
15 0 59 43 160 4
15 1 25 255 186 119
15 1 26 158 216 229
15 2 23 255 186 119
15 2 24 255 186 119
15 2 25 255 186 119
15 2 26 158 216 229
15 3 23 255 186 119
15 3 24 255 186 119
15 3 25 255 186 119
15 3 26 158 216 229
15 4 23 255 186 119
15 4 24 255 186 119
15 4 25 255 186 119
15 4 26 158 216 229
15 5 23 255 186 119
15 5 24 255 186 119
15 5 25 255 186 119
15 5 26 158 216 229
15 6 23 255 186 119
15 6 24 255 186 119
15 6 25 255 186 119
15 6 26 158 216 229
15 7 24 255 186 119
15 7 26 158 216 229
15 8 25 158 216 229
15 8 26 158 216 229
15 9 23 255 186 119
15 9 24 255 186 119
15 9 25 158 216 229
15 10 23 255 186 119
15 10 24 196 175 214
15 10 25 158 216 229
15 10 26 158 216 229
15 11 25 158 216 229
15 11 26 158 216 229
15 12 25 158 216 229
15 13 24 255 186 119
15 13 25 158 216 229
15 14 24 114 158 206
15 14 25 158 216 229
15 14 26 158 216 229
15 15 24 114 158 206
15 15 25 158 216 229
15 15 26 158 216 229
15 16 24 114 158 206
15 16 25 158 216 229
15 16 26 158 216 229
15 17 24 114 158 206
15 17 25 158 216 229
15 17 26 158 216 229
15 18 24 114 158 206
15 18 25 158 216 229
15 18 26 158 216 229
15 19 25 158 216 229
15 19 26 158 216 229
15 20 24 114 158 206
15 20 25 158 216 229
15 21 24 114 158 206
15 21 25 158 216 229
15 22 24 114 158 206
15 22 25 158 216 229
15 23 24 158 216 229
15 23 25 158 216 229
15 24 25 158 216 229
16 0 27 43 160 4
16 0 28 43 160 4
16 0 29 43 160 4
16 0 30 43 160 4
16 0 31 43 160 4
16 0 32 43 160 4
16 0 33 43 160 4
16 0 34 43 160 4
16 0 35 43 160 4
16 0 36 43 160 4
16 0 37 43 160 4
16 0 38 43 160 4
16 0 39 43 160 4
16 0 40 43 160 4
16 0 41 43 160 4
16 0 42 43 160 4
16 0 43 43 160 4
16 0 44 43 160 4
16 0 45 43 160 4
16 0 46 43 160 4
16 0 47 43 160 4
16 0 48 43 160 4
16 0 49 43 160 4
16 0 50 43 160 4
16 0 51 43 160 4
16 0 52 43 160 4
16 0 53 43 160 4
16 0 54 43 160 4
16 0 55 43 160 4
16 0 56 43 160 4
16 0 57 43 160 4
16 0 58 43 160 4
16 0 59 43 160 4
16 1 25 255 186 119
16 1 26 158 216 229
16 2 23 255 186 119
16 2 24 255 186 119
16 2 25 255 186 119
16 2 26 158 216 229
16 3 21 255 186 119
16 3 22 255 186 119
16 3 23 255 186 119
16 3 24 255 186 119
16 3 25 255 186 119
16 3 26 158 216 229
16 4 21 255 186 119
16 4 22 255 186 119
16 4 23 255 186 119
16 4 24 255 186 119
16 4 25 255 186 119
16 4 26 158 216 229
16 5 21 255 186 119
16 5 22 255 186 119
16 5 23 255 186 119
16 5 24 255 186 119
16 5 25 255 186 119
16 5 26 158 216 229
16 6 22 255 186 119
16 6 23 255 186 119
16 6 24 255 186 119
16 6 25 255 186 119
16 6 26 158 216 229
16 7 21 255 186 119
16 7 22 255 186 119
16 7 24 255 186 119
16 7 26 158 216 229
16 8 21 255 186 119
16 8 22 255 186 119
16 8 25 255 186 119
16 8 26 158 216 229
16 9 21 255 186 119
16 9 22 255 186 119
16 9 23 255 186 119
16 9 24 255 186 119
16 9 25 158 216 229
16 10 23 196 175 214
16 10 24 196 175 214
16 10 25 158 216 229
16 10 26 158 216 229
16 11 25 158 216 229
16 11 26 158 216 229
16 12 24 196 175 214
16 12 25 158 216 229
16 12 26 158 216 229
16 13 24 196 175 214
16 13 25 158 216 229
16 13 26 158 216 229
16 14 25 158 216 229
16 14 26 158 216 229
16 15 25 158 216 229
16 15 26 158 216 229
16 16 25 158 216 229
16 16 26 158 216 229
16 17 25 158 216 229
16 17 26 158 216 229
16 18 25 158 216 229
16 18 26 158 216 229
16 19 25 158 216 229
16 19 26 158 216 229
16 20 25 158 216 229
16 20 26 158 216 229
16 21 24 196 175 214
16 21 25 158 216 229
16 22 24 196 175 214
16 22 25 158 216 229
16 23 25 158 216 229
16 24 25 158 216 229
16 24 26 158 216 229
17 0 27 43 160 4
17 0 28 43 160 4
17 0 29 43 160 4
17 0 30 43 160 4
17 0 31 43 160 4
17 0 32 43 160 4
17 0 33 43 160 4
17 0 34 43 160 4
17 0 35 43 160 4
17 0 36 43 160 4
17 0 37 43 160 4
17 0 38 43 160 4
17 0 39 43 160 4
17 0 40 43 160 4
17 0 41 43 160 4
17 0 42 43 160 4
17 0 43 43 160 4
17 0 44 43 160 4
17 0 45 43 160 4
17 0 46 43 160 4
17 0 47 43 160 4
17 0 48 43 160 4
17 0 49 43 160 4
17 0 50 43 160 4
17 0 51 43 160 4
17 0 52 43 160 4
17 0 53 43 160 4
17 0 54 43 160 4
17 0 55 43 160 4
17 0 56 43 160 4
17 0 57 43 160 4
17 0 58 43 160 4
17 0 59 43 160 4
17 1 25 255 186 119
17 1 26 158 216 229
17 2 23 255 186 119
17 2 24 255 186 119
17 2 25 255 186 119
17 2 26 158 216 229
17 3 21 255 186 119
17 3 22 255 186 119
17 3 23 255 186 119
17 3 24 255 186 119
17 3 25 255 186 119
17 3 26 158 216 229
17 4 20 255 186 119
17 4 21 255 186 119
17 4 22 255 186 119
17 4 23 255 186 119
17 4 24 255 186 119
17 4 25 255 186 119
17 4 26 158 216 229
17 5 20 255 186 119
17 5 21 255 186 119
17 5 22 255 186 119
17 5 23 255 186 119
17 5 24 255 186 119
17 5 25 255 186 119
17 5 26 158 216 229
17 6 20 255 186 119
17 6 21 255 186 119
17 6 22 255 186 119
17 6 23 255 186 119
17 6 24 255 186 119
17 6 25 255 186 119
17 6 26 158 216 229
17 7 20 255 186 119
17 7 21 255 186 119
17 7 22 255 186 119
17 7 24 255 186 119
17 7 25 255 186 119
17 7 26 158 216 229
17 8 20 255 186 119
17 8 21 255 186 119
17 8 22 255 186 119
17 8 25 158 216 229
17 8 26 158 216 229
17 9 22 255 186 119
17 9 23 255 186 119
17 9 24 196 175 214
17 9 25 158 216 229
17 10 23 196 175 214
17 10 24 196 175 214
17 10 25 158 216 229
17 10 26 158 216 229
17 11 25 158 216 229
17 11 26 158 216 229
17 12 25 158 216 229
17 12 26 158 216 229
17 13 25 158 216 229
17 13 26 158 216 229
17 14 24 114 158 206
17 14 25 158 216 229
17 14 26 158 216 229
17 15 25 158 216 229
17 15 26 158 216 229
17 16 25 158 216 229
17 16 26 158 216 229
17 17 25 158 216 229
17 17 26 158 216 229
17 18 25 158 216 229
17 18 26 158 216 229
17 19 25 158 216 229
17 19 26 158 216 229
17 20 25 158 216 229
17 20 26 158 216 229
17 21 24 158 216 229
17 21 25 158 216 229
17 21 26 158 216 229
17 22 25 158 216 229
17 22 26 158 216 229
17 23 25 158 216 229
17 23 26 158 216 229
17 24 25 158 216 229
17 24 26 158 216 229
18 0 27 43 160 4
18 0 28 43 160 4
18 0 29 43 160 4
18 0 30 43 160 4
18 0 31 43 160 4
18 0 32 43 160 4
18 0 33 43 160 4
18 0 34 43 160 4
18 0 35 43 160 4
18 0 36 43 160 4
18 0 37 43 160 4
18 0 38 43 160 4
18 0 39 43 160 4
18 0 40 43 160 4
18 0 41 43 160 4
18 0 42 43 160 4
18 0 43 43 160 4
18 0 44 43 160 4
18 0 45 43 160 4
18 0 46 43 160 4
18 0 47 43 160 4
18 0 48 43 160 4
18 0 49 43 160 4
18 0 50 43 160 4
18 0 51 43 160 4
18 0 52 43 160 4
18 0 53 43 160 4
18 0 54 43 160 4
18 0 55 43 160 4
18 0 56 43 160 4
18 0 57 43 160 4
18 0 58 43 160 4
18 0 59 43 160 4
18 1 25 255 186 119
18 1 26 158 216 229
18 2 23 255 186 119
18 2 24 255 186 119
18 2 25 255 186 119
18 2 26 158 216 229
18 3 21 255 186 119
18 3 22 255 186 119
18 3 23 255 186 119
18 3 24 255 186 119
18 3 25 255 186 119
18 3 26 158 216 229
18 4 19 255 186 119
18 4 20 255 186 119
18 4 21 255 186 119
18 4 22 255 186 119
18 4 23 255 186 119
18 4 24 255 186 119
18 4 25 255 186 119
18 4 26 158 216 229
18 5 18 255 186 119
18 5 19 255 186 119
18 5 20 255 186 119
18 5 21 255 186 119
18 5 22 255 186 119
18 5 23 255 186 119
18 5 24 255 186 119
18 5 25 255 186 119
18 5 26 158 216 229
18 6 19 255 186 119
18 6 20 255 186 119
18 6 21 255 186 119
18 6 22 255 186 119
18 6 23 255 186 119
18 6 24 255 186 119
18 6 25 255 186 119
18 6 26 158 216 229
18 7 18 255 186 119
18 7 19 255 186 119
18 7 21 255 186 119
18 7 22 255 186 119
18 7 24 255 186 119
18 7 25 255 186 119
18 7 26 158 216 229
18 8 18 255 186 119
18 8 19 255 186 119
18 8 20 255 186 119
18 8 21 255 186 119
18 8 22 255 186 119
18 8 25 255 186 119
18 8 26 158 216 229
18 9 18 255 186 119
18 9 22 255 186 119
18 9 23 196 175 214
18 9 24 255 186 119
18 9 25 158 216 229
18 10 23 196 175 214
18 10 24 196 175 214
18 10 25 158 216 229
18 10 26 158 216 229
18 11 25 158 216 229
18 11 26 158 216 229
18 12 25 158 216 229
18 12 26 158 216 229
18 13 25 158 216 229
18 13 26 158 216 229
18 14 25 158 216 229
18 14 26 158 216 229
18 15 25 158 216 229
18 15 26 158 216 229
18 16 25 158 216 229
18 16 26 158 216 229
18 17 24 158 216 229
18 17 25 158 216 229
18 17 26 158 216 229
18 18 25 158 216 229
18 18 26 158 216 229
18 19 25 158 216 229
18 19 26 158 216 229
18 20 25 158 216 229
18 20 26 158 216 229
18 21 25 158 216 229
18 21 26 158 216 229
18 22 25 158 216 229
18 22 26 158 216 229
18 23 25 158 216 229
18 23 26 158 216 229
18 24 25 158 216 229
18 24 26 158 216 229
19 0 27 43 160 4
19 0 28 43 160 4
19 0 29 43 160 4
19 0 30 43 160 4
19 0 31 43 160 4
19 0 32 43 160 4
19 0 33 43 160 4
19 0 34 43 160 4
19 0 35 43 160 4
19 0 36 43 160 4
19 0 37 43 160 4
19 0 38 43 160 4
19 0 39 43 160 4
19 0 40 43 160 4
19 0 41 43 160 4
19 0 42 43 160 4
19 0 43 43 160 4
19 0 44 43 160 4
19 0 45 43 160 4
19 0 46 43 160 4
19 0 47 43 160 4
19 0 48 43 160 4
19 0 49 43 160 4
19 0 50 43 160 4
19 0 51 43 160 4
19 0 52 43 160 4
19 0 53 43 160 4
19 0 54 43 160 4
19 0 55 43 160 4
19 0 56 43 160 4
19 0 57 43 160 4
19 0 58 43 160 4
19 0 59 43 160 4
19 1 25 255 186 119
19 1 26 158 216 229
19 2 23 255 186 119
19 2 24 255 186 119
19 2 25 255 186 119
19 2 26 158 216 229
19 3 21 255 186 119
19 3 22 255 186 119
19 3 23 255 186 119
19 3 24 255 186 119
19 3 25 255 186 119
19 3 26 158 216 229
19 4 19 255 186 119
19 4 20 255 186 119
19 4 21 255 186 119
19 4 22 255 186 119
19 4 23 255 186 119
19 4 24 255 186 119
19 4 25 255 186 119
19 4 26 158 216 229
19 5 17 255 186 119
19 5 18 255 186 119
19 5 19 255 186 119
19 5 20 255 186 119
19 5 21 255 186 119
19 5 22 255 186 119
19 5 23 255 186 119
19 5 24 255 186 119
19 5 25 255 186 119
19 5 26 158 216 229
19 6 16 255 186 119
19 6 20 255 186 119
19 6 21 255 186 119
19 6 22 255 186 119
19 6 23 255 186 119
19 6 24 255 186 119
19 6 25 255 186 119
19 6 26 158 216 229
19 7 17 255 186 119
19 7 18 255 186 119
19 7 19 255 186 119
19 7 20 255 186 119
19 7 21 255 186 119
19 7 22 255 186 119
19 7 24 255 186 119
19 7 25 255 186 119
19 7 26 158 216 229
19 8 17 255 186 119
19 8 18 255 186 119
19 8 19 255 186 119
19 8 20 255 186 119
19 8 21 255 186 119
19 8 22 255 186 119
19 8 26 158 216 229
19 9 22 196 175 214
19 9 23 196 175 214
19 9 24 255 186 119
19 9 25 158 216 229
19 9 27 158 216 229
19 10 23 196 175 214
19 10 24 196 175 214
19 10 25 158 216 229
19 10 26 158 216 229
19 11 25 158 216 229
19 11 26 158 216 229
19 12 25 158 216 229
19 12 26 158 216 229
19 13 25 158 216 229
19 13 26 158 216 229
19 14 25 158 216 229
19 14 26 158 216 229
19 15 25 158 216 229
19 15 26 158 216 229
19 16 25 158 216 229
19 16 26 158 216 229
19 17 25 158 216 229
19 17 26 158 216 229
19 18 25 158 216 229
19 18 26 158 216 229
19 19 25 158 216 229
19 19 26 158 216 229
19 20 25 158 216 229
19 20 26 158 216 229
19 21 25 158 216 229
19 21 26 158 216 229
19 22 25 158 216 229
19 22 26 158 216 229
19 23 25 158 216 229
19 23 26 158 216 229
19 24 25 158 216 229
19 24 26 158 216 229
20 0 27 43 160 4
20 0 28 43 160 4
20 0 29 43 160 4
20 0 30 43 160 4
20 0 31 43 160 4
20 0 32 43 160 4
20 0 33 43 160 4
20 0 34 43 160 4
20 0 35 43 160 4
20 0 36 43 160 4
20 0 37 43 160 4
20 0 38 43 160 4
20 0 39 43 160 4
20 0 40 43 160 4
20 0 41 43 160 4
20 0 42 43 160 4
20 0 43 43 160 4
20 0 44 43 160 4
20 0 45 43 160 4
20 0 46 43 160 4
20 0 47 43 160 4
20 0 48 43 160 4
20 0 49 43 160 4
20 0 50 43 160 4
20 0 51 43 160 4
20 0 52 43 160 4
20 0 53 43 160 4
20 0 54 43 160 4
20 0 55 43 160 4
20 0 56 43 160 4
20 0 57 43 160 4
20 0 58 43 160 4
20 0 59 43 160 4
20 1 25 255 186 119
20 1 26 158 216 229
20 2 23 255 186 119
20 2 24 255 186 119
20 2 25 255 186 119
20 2 26 158 216 229
20 3 21 255 186 119
20 3 22 255 186 119
20 3 23 255 186 119
20 3 24 255 186 119
20 3 25 255 186 119
20 3 26 158 216 229
20 4 19 255 186 119
20 4 20 255 186 119
20 4 21 255 186 119
20 4 22 255 186 119
20 4 23 255 186 119
20 4 24 255 186 119
20 4 25 255 186 119
20 4 26 255 186 119
20 5 17 255 186 119
20 5 18 255 186 119
20 5 19 255 186 119
20 5 20 255 186 119
20 5 21 255 186 119
20 5 22 255 186 119
20 5 23 255 186 119
20 5 24 255 186 119
20 5 25 255 186 119
20 5 26 158 216 229
20 6 23 255 186 119
20 6 24 255 186 119
20 6 25 255 186 119
20 6 26 158 216 229
20 7 15 255 186 119
20 7 16 255 186 119
20 7 17 255 186 119
20 7 18 255 186 119
20 7 19 255 186 119
20 7 20 255 186 119
20 7 21 255 186 119
20 7 22 255 186 119
20 7 26 158 216 229
20 8 15 255 186 119
20 8 16 255 186 119
20 8 17 255 186 119
20 8 18 255 186 119
20 8 19 255 186 119
20 8 20 255 186 119
20 8 21 255 186 119
20 8 22 255 186 119
20 8 23 255 186 119
20 9 22 196 175 214
20 9 23 196 175 214
20 9 24 255 186 119
20 9 25 158 216 229
20 9 26 158 216 229
20 9 27 158 216 229
20 10 23 196 175 214
20 10 24 255 186 119
20 10 25 158 216 229
20 10 26 158 216 229
20 11 25 158 216 229
20 11 26 158 216 229
20 12 25 158 216 229
20 12 26 158 216 229
20 13 25 158 216 229
20 13 26 158 216 229
20 14 25 158 216 229
20 14 26 158 216 229
20 15 24 158 216 229
20 15 25 158 216 229
20 15 26 158 216 229
20 16 25 158 216 229
20 16 26 158 216 229
20 17 25 158 216 229
20 17 26 158 216 229
20 18 25 158 216 229
20 18 26 158 216 229
20 19 25 158 216 229
20 19 26 158 216 229
20 20 25 158 216 229
20 20 26 158 216 229
20 21 25 158 216 229
20 21 26 158 216 229
20 22 25 158 216 229
20 22 26 158 216 229
20 23 25 158 216 229
20 23 26 158 216 229
20 24 25 158 216 229
21 0 27 43 160 4
21 0 28 43 160 4
21 0 29 43 160 4
21 0 30 43 160 4
21 0 31 43 160 4
21 0 32 43 160 4
21 0 33 43 160 4
21 0 34 43 160 4
21 0 35 43 160 4
21 0 36 43 160 4
21 0 37 43 160 4
21 0 38 43 160 4
21 0 39 43 160 4
21 0 40 43 160 4
21 0 41 43 160 4
21 0 42 43 160 4
21 0 43 43 160 4
21 0 44 43 160 4
21 0 45 43 160 4
21 0 46 43 160 4
21 0 47 43 160 4
21 0 48 43 160 4
21 0 49 43 160 4
21 0 50 43 160 4
21 0 51 43 160 4
21 0 52 43 160 4
21 0 53 43 160 4
21 0 54 43 160 4
21 0 55 43 160 4
21 0 56 43 160 4
21 0 57 43 160 4
21 0 58 43 160 4
21 0 59 43 160 4
21 1 25 255 186 119
21 1 26 158 216 229
21 2 23 255 186 119
21 2 24 255 186 119
21 2 25 255 186 119
21 2 26 158 216 229
21 3 21 255 186 119
21 3 22 255 186 119
21 3 23 255 186 119
21 3 24 255 186 119
21 3 25 255 186 119
21 3 26 158 216 229
21 4 19 255 186 119
21 4 20 255 186 119
21 4 21 255 186 119
21 4 22 255 186 119
21 4 23 255 186 119
21 4 24 255 186 119
21 4 25 255 186 119
21 4 26 158 216 229
21 5 17 255 186 119
21 5 18 255 186 119
21 5 19 255 186 119
21 5 20 255 186 119
21 5 21 255 186 119
21 5 22 255 186 119
21 5 23 255 186 119
21 5 24 255 186 119
21 5 25 255 186 119
21 5 26 158 216 229
21 6 14 255 186 119
21 6 25 255 186 119
21 6 26 158 216 229
21 7 13 255 186 119
21 7 14 255 186 119
21 7 15 255 186 119
21 7 16 255 186 119
21 7 17 255 186 119
21 7 18 255 186 119
21 7 19 255 186 119
21 7 20 255 186 119
21 7 21 255 186 119
21 7 22 255 186 119
21 7 23 255 186 119
21 7 24 255 186 119
21 8 13 255 186 119
21 8 14 255 186 119
21 8 15 255 186 119
21 8 16 255 186 119
21 8 17 255 186 119
21 8 18 255 186 119
21 8 19 255 186 119
21 8 20 255 186 119
21 8 21 255 186 119
21 8 22 255 186 119
21 8 23 255 186 119
21 8 24 255 186 119
21 8 25 158 216 229
21 8 26 158 216 229
21 9 23 255 186 119
21 9 24 255 186 119
21 9 25 158 216 229
21 9 26 158 216 229
21 9 27 158 216 229
21 10 25 158 216 229
21 10 26 158 216 229
21 11 25 158 216 229
21 11 26 158 216 229
21 12 24 158 216 229
21 12 25 158 216 229
21 12 26 158 216 229
21 12 27 158 216 229
21 13 25 158 216 229
21 13 26 158 216 229
21 13 27 158 216 229
21 14 25 158 216 229
21 14 26 158 216 229
21 15 25 158 216 229
21 15 26 158 216 229
21 16 25 158 216 229
21 16 26 158 216 229
21 17 25 158 216 229
21 17 26 158 216 229
21 18 25 158 216 229
21 18 26 158 216 229
21 19 25 158 216 229
21 19 26 158 216 229
21 20 25 158 216 229
21 20 26 158 216 229
21 21 25 158 216 229
21 21 26 158 216 229
21 21 27 158 216 229
21 22 25 158 216 229
21 22 26 158 216 229
21 23 25 158 216 229
21 23 26 158 216 229
21 24 25 158 216 229
21 24 26 158 216 229
22 0 27 43 160 4
22 0 28 43 160 4
22 0 29 43 160 4
22 0 30 43 160 4
22 0 31 43 160 4
22 0 32 43 160 4
22 0 33 43 160 4
22 0 34 43 160 4
22 0 35 43 160 4
22 0 36 43 160 4
22 0 37 43 160 4
22 0 38 43 160 4
22 0 39 43 160 4
22 0 40 43 160 4
22 0 41 43 160 4
22 0 42 43 160 4
22 0 43 43 160 4
22 0 44 43 160 4
22 0 45 43 160 4
22 0 46 43 160 4
22 0 47 43 160 4
22 0 48 43 160 4
22 0 49 43 160 4
22 0 50 43 160 4
22 0 51 43 160 4
22 0 52 43 160 4
22 0 53 43 160 4
22 0 54 43 160 4
22 0 55 43 160 4
22 0 56 43 160 4
22 0 57 43 160 4
22 0 58 43 160 4
22 0 59 43 160 4
22 1 25 255 186 119
22 1 26 158 216 229
22 2 23 255 186 119
22 2 24 255 186 119
22 2 25 255 186 119
22 2 26 158 216 229
22 3 21 255 186 119
22 3 22 255 186 119
22 3 23 255 186 119
22 3 24 255 186 119
22 3 25 255 186 119
22 3 26 158 216 229
22 4 19 255 186 119
22 4 20 255 186 119
22 4 21 255 186 119
22 4 22 255 186 119
22 4 23 255 186 119
22 4 24 255 186 119
22 4 25 255 186 119
22 4 26 158 216 229
22 5 17 255 186 119
22 5 18 255 186 119
22 5 19 255 186 119
22 5 20 255 186 119
22 5 21 255 186 119
22 5 22 255 186 119
22 5 23 255 186 119
22 5 24 255 186 119
22 5 25 255 186 119
22 5 26 158 216 229
22 6 14 255 186 119
22 6 26 158 216 229
22 7 13 255 186 119
22 7 14 255 186 119
22 7 15 255 186 119
22 7 16 255 186 119
22 7 17 255 186 119
22 7 18 255 186 119
22 7 19 255 186 119
22 7 20 255 186 119
22 7 21 255 186 119
22 7 22 255 186 119
22 7 23 255 186 119
22 7 24 255 186 119
22 7 25 158 216 229
22 8 12 255 186 119
22 8 13 255 186 119
22 8 14 255 186 119
22 8 15 255 186 119
22 8 16 255 186 119
22 8 17 255 186 119
22 8 18 255 186 119
22 8 19 255 186 119
22 8 20 255 186 119
22 8 21 255 186 119
22 8 22 255 186 119
22 8 23 255 186 119
22 8 24 255 186 119
22 8 25 158 216 229
22 8 26 158 216 229
22 8 27 158 216 229
22 9 25 158 216 229
22 9 26 158 216 229
22 10 25 158 216 229
22 10 26 158 216 229
22 11 25 158 216 229
22 11 26 158 216 229
22 12 25 158 216 229
22 12 26 158 216 229
22 13 25 158 216 229
22 13 26 158 216 229
22 13 27 158 216 229
22 14 24 158 216 229
22 14 25 158 216 229
22 14 26 158 216 229
22 15 25 158 216 229
22 15 26 158 216 229
22 16 25 158 216 229
22 16 26 158 216 229
22 17 25 158 216 229
22 17 26 158 216 229
22 18 25 158 216 229
22 18 26 158 216 229
22 19 25 158 216 229
22 19 26 158 216 229
22 20 25 158 216 229
22 20 26 158 216 229
22 21 25 158 216 229
22 21 26 158 216 229
22 22 25 158 216 229
22 22 26 158 216 229
22 23 25 158 216 229
22 23 26 158 216 229
22 24 25 158 216 229
22 24 26 158 216 229
23 0 27 43 160 4
23 0 28 43 160 4
23 0 29 43 160 4
23 0 30 43 160 4
23 0 31 43 160 4
23 0 32 43 160 4
23 0 33 43 160 4
23 0 34 43 160 4
23 0 35 43 160 4
23 0 36 43 160 4
23 0 37 43 160 4
23 0 38 43 160 4
23 0 39 43 160 4
23 0 40 43 160 4
23 0 41 43 160 4
23 0 42 43 160 4
23 0 43 43 160 4
23 0 44 43 160 4
23 0 45 43 160 4
23 0 46 43 160 4
23 0 47 43 160 4
23 0 48 43 160 4
23 0 49 43 160 4
23 0 50 43 160 4
23 0 51 43 160 4
23 0 52 43 160 4
23 0 53 43 160 4
23 0 54 43 160 4
23 0 55 43 160 4
23 0 56 43 160 4
23 0 57 43 160 4
23 0 58 43 160 4
23 0 59 43 160 4
23 1 25 255 186 119
23 1 26 158 216 229
23 2 23 255 186 119
23 2 24 255 186 119
23 2 25 255 186 119
23 2 26 158 216 229
23 3 21 255 186 119
23 3 22 255 186 119
23 3 23 255 186 119
23 3 24 255 186 119
23 3 25 255 186 119
23 3 26 158 216 229
23 4 20 255 186 119
23 4 21 255 186 119
23 4 22 255 186 119
23 4 23 255 186 119
23 4 24 255 186 119
23 4 25 255 186 119
23 4 26 158 216 229
23 6 14 255 186 119
23 7 13 255 186 119
23 7 14 255 186 119
23 7 15 255 186 119
23 7 16 255 186 119
23 7 17 255 186 119
23 7 18 255 186 119
23 7 19 255 186 119
23 7 20 255 186 119
23 7 21 255 186 119
23 7 22 255 186 119
23 7 23 255 186 119
23 7 24 255 186 119
23 7 25 158 216 229
23 7 27 158 216 229
23 8 12 255 186 119
23 8 13 255 186 119
23 8 14 255 186 119
23 8 15 255 186 119
23 8 16 255 186 119
23 8 17 255 186 119
23 8 18 255 186 119
23 8 19 255 186 119
23 8 20 255 186 119
23 8 21 255 186 119
23 8 22 255 186 119
23 8 23 255 186 119
23 8 24 255 186 119
23 8 25 158 216 229
23 8 26 158 216 229
23 9 25 158 216 229
23 9 26 158 216 229
23 10 25 158 216 229
23 10 26 158 216 229
23 11 25 158 216 229
23 11 26 158 216 229
23 12 25 158 216 229
23 12 26 158 216 229
23 13 25 158 216 229
23 13 26 158 216 229
23 14 25 158 216 229
23 14 26 158 216 229
23 15 25 158 216 229
23 15 26 158 216 229
23 16 25 158 216 229
23 16 26 158 216 229
23 17 25 158 216 229
23 17 26 158 216 229
23 18 25 158 216 229
23 18 26 158 216 229
23 19 25 158 216 229
23 19 26 158 216 229
23 20 25 158 216 229
23 20 26 158 216 229
23 21 25 158 216 229
23 21 26 158 216 229
23 22 25 158 216 229
23 22 26 158 216 229
23 23 25 158 216 229
23 23 26 158 216 229
23 24 25 158 216 229
23 24 26 158 216 229
23 25 27 158 216 229
24 0 27 43 160 4
24 0 28 43 160 4
24 0 29 43 160 4
24 0 30 43 160 4
24 0 31 43 160 4
24 0 32 43 160 4
24 0 33 43 160 4
24 0 34 43 160 4
24 0 35 43 160 4
24 0 36 43 160 4
24 0 37 43 160 4
24 0 38 43 160 4
24 0 39 43 160 4
24 0 40 43 160 4
24 0 41 43 160 4
24 0 42 43 160 4
24 0 43 43 160 4
24 0 44 43 160 4
24 0 45 43 160 4
24 0 46 43 160 4
24 0 47 43 160 4
24 0 48 43 160 4
24 0 49 43 160 4
24 0 50 43 160 4
24 0 51 43 160 4
24 0 52 43 160 4
24 0 53 43 160 4
24 0 54 43 160 4
24 0 55 43 160 4
24 0 56 43 160 4
24 0 57 43 160 4
24 0 58 43 160 4
24 0 59 43 160 4
24 1 25 255 186 119
24 1 26 158 216 229
24 2 23 255 186 119
24 2 24 255 186 119
24 2 25 255 186 119
24 2 26 158 216 229
24 3 21 255 186 119
24 3 22 255 186 119
24 3 23 255 186 119
24 3 24 255 186 119
24 3 25 255 186 119
24 3 26 158 216 229
24 4 19 255 186 119
24 4 25 255 186 119
24 4 26 158 216 229
24 5 17 255 186 119
24 5 18 255 186 119
24 5 19 255 186 119
24 5 20 255 186 119
24 5 21 255 186 119
24 5 22 255 186 119
24 5 23 255 186 119
24 5 24 255 186 119
24 5 25 255 186 119
24 5 27 158 216 229
24 6 15 255 186 119
24 6 16 255 186 119
24 6 17 255 186 119
24 6 18 255 186 119
24 6 19 255 186 119
24 6 20 255 186 119
24 6 21 255 186 119
24 6 22 255 186 119
24 6 23 255 186 119
24 6 24 255 186 119
24 6 25 255 186 119
24 6 26 158 216 229
24 7 12 255 186 119
24 7 13 255 186 119
24 7 14 255 186 119
24 7 15 255 186 119
24 7 16 255 186 119
24 7 17 255 186 119
24 7 18 255 186 119
24 7 19 255 186 119
24 7 20 255 186 119
24 7 21 255 186 119
24 7 22 255 186 119
24 7 23 255 186 119
24 7 24 255 186 119
24 7 25 158 216 229
24 7 26 158 216 229
24 8 25 158 216 229
24 8 26 158 216 229
24 9 25 158 216 229
24 9 26 158 216 229
24 10 25 158 216 229
24 10 26 158 216 229
24 11 25 158 216 229
24 11 26 158 216 229
24 12 25 158 216 229
24 12 26 158 216 229
24 13 25 158 216 229
24 13 26 158 216 229
24 14 25 158 216 229
24 14 26 158 216 229
24 15 24 158 216 229
24 15 25 158 216 229
24 15 26 158 216 229
24 16 25 158 216 229
24 16 26 158 216 229
24 17 25 158 216 229
24 17 26 158 216 229
24 18 25 158 216 229
24 18 26 158 216 229
24 19 25 158 216 229
24 19 26 158 216 229
24 20 25 158 216 229
24 20 26 158 216 229
24 21 25 158 216 229
24 21 26 158 216 229
24 22 25 158 216 229
24 22 26 158 216 229
24 23 25 158 216 229
24 23 26 158 216 229
24 24 25 158 216 229
24 24 26 158 216 229
25 0 27 43 160 4
25 0 28 43 160 4
25 0 29 43 160 4
25 0 30 43 160 4
25 0 31 43 160 4
25 0 32 43 160 4
25 0 33 43 160 4
25 0 34 43 160 4
25 0 35 43 160 4
25 0 36 43 160 4
25 0 37 43 160 4
25 0 38 43 160 4
25 0 39 43 160 4
25 0 40 43 160 4
25 0 41 43 160 4
25 0 42 43 160 4
25 0 43 43 160 4
25 0 44 43 160 4
25 0 45 43 160 4
25 0 46 43 160 4
25 0 47 43 160 4
25 0 48 43 160 4
25 0 49 43 160 4
25 0 50 43 160 4
25 0 51 43 160 4
25 0 52 43 160 4
25 0 53 43 160 4
25 0 54 43 160 4
25 0 55 43 160 4
25 0 56 43 160 4
25 0 57 43 160 4
25 0 58 43 160 4
25 0 59 43 160 4
25 1 25 255 186 119
25 1 26 158 216 229
25 2 23 255 186 119
25 2 24 255 186 119
25 2 25 255 186 119
25 2 26 158 216 229
25 3 20 255 186 119
25 3 21 255 186 119
25 3 22 255 186 119
25 3 23 255 186 119
25 3 24 255 186 119
25 3 25 255 186 119
25 3 26 158 216 229
25 4 18 255 186 119
25 4 19 255 186 119
25 4 20 255 186 119
25 5 17 255 186 119
25 5 18 255 186 119
25 5 19 255 186 119
25 5 20 255 186 119
25 5 21 255 186 119
25 5 22 255 186 119
25 5 23 255 186 119
25 5 24 255 186 119
25 5 25 158 216 229
25 5 26 158 216 229
25 6 15 255 186 119
25 6 16 255 186 119
25 6 17 255 186 119
25 6 18 255 186 119
25 6 19 255 186 119
25 6 20 255 186 119
25 6 21 255 186 119
25 6 22 255 186 119
25 6 23 255 186 119
25 6 24 255 186 119
25 6 25 158 216 229
25 6 26 158 216 229
25 7 12 255 186 119
25 7 13 255 186 119
25 7 15 255 186 119
25 7 25 158 216 229
25 7 26 158 216 229
25 8 25 158 216 229
25 8 26 158 216 229
25 9 25 158 216 229
25 9 26 158 216 229
25 9 27 158 216 229
25 10 25 158 216 229
25 10 26 158 216 229
25 11 25 158 216 229
25 11 26 158 216 229
25 12 25 158 216 229
25 12 26 158 216 229
25 13 25 158 216 229
25 13 26 158 216 229
25 14 25 158 216 229
25 14 26 158 216 229
25 15 25 158 216 229
25 15 26 158 216 229
25 16 25 158 216 229
25 16 26 158 216 229
25 17 25 158 216 229
25 17 26 158 216 229
25 18 25 158 216 229
25 18 26 158 216 229
25 19 25 158 216 229
25 19 26 158 216 229
25 20 25 158 216 229
25 20 26 158 216 229
25 21 25 158 216 229
25 21 26 158 216 229
25 22 25 158 216 229
25 22 26 158 216 229
25 23 25 158 216 229
25 23 26 158 216 229
25 24 25 158 216 229
25 24 26 158 216 229
26 0 27 43 160 4
26 0 28 43 160 4
26 0 29 43 160 4
26 0 30 43 160 4
26 0 31 43 160 4
26 0 32 43 160 4
26 0 33 43 160 4
26 0 34 43 160 4
26 0 35 43 160 4
26 0 36 43 160 4
26 0 37 43 160 4
26 0 38 43 160 4
26 0 39 43 160 4
26 0 40 43 160 4
26 0 41 43 160 4
26 0 42 43 160 4
26 0 43 43 160 4
26 0 44 43 160 4
26 0 45 43 160 4
26 0 46 43 160 4
26 0 47 43 160 4
26 0 48 43 160 4
26 0 49 43 160 4
26 0 50 43 160 4
26 0 51 43 160 4
26 0 52 43 160 4
26 0 53 43 160 4
26 0 54 43 160 4
26 0 55 43 160 4
26 0 56 43 160 4
26 0 57 43 160 4
26 0 58 43 160 4
26 0 59 43 160 4
26 1 25 255 127 12
26 1 26 158 216 229
26 2 23 255 186 119
26 2 24 255 186 119
26 2 25 255 127 12
26 2 26 158 216 229
26 3 20 30 119 181
26 3 22 255 186 119
26 3 23 255 127 12
26 3 24 255 127 12
26 3 25 255 127 12
26 3 26 158 216 229
26 4 18 255 186 119
26 4 19 196 175 214
26 4 20 196 175 214
26 5 19 196 175 214
26 5 20 196 175 214
26 5 21 196 175 214
26 5 22 196 175 214
26 5 23 196 175 214
26 5 24 196 175 214
26 5 25 196 175 214
26 5 26 158 216 229
26 6 20 196 175 214
26 6 21 196 175 214
26 6 22 196 175 214
26 6 23 196 175 214
26 6 24 196 175 214
26 6 25 158 216 229
26 6 26 158 216 229
26 7 25 158 216 229
26 7 26 158 216 229
26 8 25 158 216 229
26 8 26 158 216 229
26 9 25 158 216 229
26 9 26 158 216 229
26 9 27 158 216 229
26 10 25 158 216 229
26 10 26 158 216 229
26 10 27 158 216 229
26 11 25 158 216 229
26 11 26 158 216 229
26 12 25 158 216 229
26 12 26 158 216 229
26 13 25 158 216 229
26 13 26 158 216 229
26 14 25 158 216 229
26 14 26 158 216 229
26 15 25 158 216 229
26 15 26 158 216 229
26 16 25 158 216 229
26 16 26 158 216 229
26 17 25 158 216 229
26 17 26 158 216 229
26 18 25 158 216 229
26 18 26 158 216 229
26 19 25 158 216 229
26 19 26 158 216 229
26 20 25 158 216 229
26 20 26 158 216 229
26 21 25 158 216 229
26 21 26 158 216 229
26 22 25 158 216 229
26 22 26 158 216 229
26 23 25 158 216 229
26 23 26 158 216 229
26 24 25 158 216 229
26 24 26 158 216 229
27 0 27 43 160 4
27 0 28 43 160 4
27 0 29 43 160 4
27 0 30 43 160 4
27 0 31 43 160 4
27 0 32 43 160 4
27 0 33 43 160 4
27 0 34 43 160 4
27 0 35 43 160 4
27 0 36 43 160 4
27 0 37 43 160 4
27 0 38 43 160 4
27 0 39 43 160 4
27 0 40 43 160 4
27 0 41 43 160 4
27 0 42 43 160 4
27 0 43 43 160 4
27 0 44 43 160 4
27 0 45 43 160 4
27 0 46 43 160 4
27 0 47 43 160 4
27 0 48 43 160 4
27 0 49 43 160 4
27 0 50 43 160 4
27 0 51 43 160 4
27 0 52 43 160 4
27 0 53 43 160 4
27 0 54 43 160 4
27 0 55 43 160 4
27 0 56 43 160 4
27 0 57 43 160 4
27 0 58 43 160 4
27 0 59 43 160 4
27 1 25 255 127 12
27 1 26 158 216 229
27 2 23 255 127 12
27 2 24 255 127 12
27 2 25 255 127 12
27 2 26 158 216 229
27 3 20 30 119 181
27 3 22 255 127 12
27 3 23 255 127 12
27 4 19 196 175 214
27 4 20 196 175 214
27 4 24 196 175 214
27 4 25 255 127 12
27 4 26 158 216 229
27 5 19 196 175 214
27 5 20 196 175 214
27 5 21 196 175 214
27 5 22 196 175 214
27 5 23 196 175 214
27 5 24 196 175 214
27 5 25 196 175 214
27 5 26 158 216 229
27 6 20 196 175 214
27 6 21 196 175 214
27 6 22 196 175 214
27 6 23 196 175 214
27 6 24 196 175 214
27 6 25 158 216 229
27 6 26 158 216 229
27 7 25 158 216 229
27 7 26 158 216 229
27 8 25 158 216 229
27 8 26 158 216 229
27 9 25 158 216 229
27 9 26 158 216 229
27 10 25 158 216 229
27 10 26 158 216 229
27 11 25 158 216 229
27 11 26 158 216 229
27 12 25 158 216 229
27 12 26 158 216 229
27 13 25 158 216 229
27 13 26 158 216 229
27 14 25 158 216 229
27 14 26 158 216 229
27 15 25 158 216 229
27 15 26 158 216 229
27 16 25 158 216 229
27 16 26 158 216 229
27 17 25 158 216 229
27 17 26 158 216 229
27 18 25 158 216 229
27 18 26 158 216 229
27 19 25 158 216 229
27 19 26 158 216 229
27 20 25 158 216 229
27 20 26 158 216 229
27 21 25 158 216 229
27 21 26 158 216 229
27 22 25 158 216 229
27 22 26 158 216 229
27 23 25 158 216 229
27 23 26 158 216 229
27 24 25 158 216 229
27 24 26 158 216 229
28 0 27 43 160 4
28 0 28 43 160 4
28 0 29 43 160 4
28 0 30 43 160 4
28 0 31 43 160 4
28 0 32 43 160 4
28 0 33 43 160 4
28 0 34 43 160 4
28 0 35 43 160 4
28 0 36 43 160 4
28 0 37 43 160 4
28 0 38 43 160 4
28 0 39 43 160 4
28 0 40 43 160 4
28 0 41 43 160 4
28 0 42 43 160 4
28 0 43 43 160 4
28 0 44 43 160 4
28 0 45 43 160 4
28 0 46 43 160 4
28 0 47 43 160 4
28 0 48 43 160 4
28 0 49 43 160 4
28 0 50 43 160 4
28 0 51 43 160 4
28 0 52 43 160 4
28 0 53 43 160 4
28 0 54 43 160 4
28 0 55 43 160 4
28 0 56 43 160 4
28 0 57 43 160 4
28 0 58 43 160 4
28 0 59 43 160 4
28 1 25 255 127 12
28 1 26 158 216 229
28 2 23 255 127 12
28 2 24 255 127 12
28 2 25 255 127 12
28 2 26 158 216 229
28 3 20 255 127 12
28 3 22 255 127 12
28 3 23 255 127 12
28 4 19 196 175 214
28 4 20 196 175 214
28 4 24 196 175 214
28 4 25 196 175 214
28 4 26 158 216 229
28 4 27 158 216 229
28 5 19 196 175 214
28 5 20 196 175 214
28 5 21 196 175 214
28 5 22 196 175 214
28 5 23 196 175 214
28 5 24 196 175 214
28 5 25 196 175 214
28 5 26 158 216 229
28 6 20 196 175 214
28 6 25 196 175 214
28 6 26 158 216 229
28 7 25 158 216 229
28 7 26 158 216 229
28 8 25 158 216 229
28 8 26 158 216 229
28 9 25 158 216 229
28 9 26 158 216 229
28 10 25 158 216 229
28 10 26 158 216 229
28 11 25 158 216 229
28 11 26 158 216 229
28 12 25 158 216 229
28 12 26 158 216 229
28 13 25 158 216 229
28 13 26 158 216 229
28 14 25 158 216 229
28 14 26 158 216 229
28 15 25 158 216 229
28 15 26 158 216 229
28 16 25 158 216 229
28 16 26 158 216 229
28 17 25 158 216 229
28 17 26 158 216 229
28 18 25 158 216 229
28 18 26 158 216 229
28 19 25 158 216 229
28 19 26 158 216 229
28 20 25 158 216 229
28 20 26 158 216 229
28 21 25 158 216 229
28 21 26 158 216 229
28 22 25 158 216 229
28 22 26 158 216 229
28 23 25 158 216 229
28 23 26 158 216 229
28 24 25 158 216 229
28 24 26 158 216 229
29 0 27 43 160 4
29 0 28 43 160 4
29 0 29 43 160 4
29 0 30 43 160 4
29 0 31 43 160 4
29 0 32 43 160 4
29 0 33 43 160 4
29 0 34 43 160 4
29 0 35 43 160 4
29 0 36 43 160 4
29 0 37 43 160 4
29 0 38 43 160 4
29 0 39 43 160 4
29 0 40 43 160 4
29 0 41 43 160 4
29 0 42 43 160 4
29 0 43 43 160 4
29 0 44 43 160 4
29 0 45 43 160 4
29 0 46 43 160 4
29 0 47 43 160 4
29 0 48 43 160 4
29 0 49 43 160 4
29 0 50 43 160 4
29 0 51 43 160 4
29 0 52 43 160 4
29 0 53 43 160 4
29 0 54 43 160 4
29 0 55 43 160 4
29 0 56 43 160 4
29 0 57 43 160 4
29 0 58 43 160 4
29 0 59 43 160 4
29 1 25 255 127 12
29 1 26 158 216 229
29 2 23 255 127 12
29 2 24 255 127 12
29 2 25 255 127 12
29 2 26 158 216 229
29 3 20 255 127 12
29 3 22 255 127 12
29 3 23 255 127 12
29 4 19 196 175 214
29 4 20 196 175 214
29 4 24 255 127 12
29 4 25 255 127 12
29 4 26 158 216 229
29 5 19 196 175 214
29 5 20 196 175 214
29 5 21 196 175 214
29 5 22 196 175 214
29 5 23 196 175 214
29 5 24 196 175 214
29 5 25 196 175 214
29 5 26 158 216 229
29 6 20 196 175 214
29 6 25 158 216 229
29 6 26 158 216 229
29 7 25 158 216 229
29 7 26 158 216 229
29 7 27 158 216 229
29 8 25 158 216 229
29 8 26 158 216 229
29 8 27 158 216 229
29 9 25 158 216 229
29 9 26 158 216 229
29 10 25 158 216 229
29 10 26 158 216 229
29 11 25 158 216 229
29 11 26 158 216 229
29 12 25 158 216 229
29 12 26 158 216 229
29 12 27 158 216 229
29 13 25 158 216 229
29 13 26 158 216 229
29 14 25 158 216 229
29 14 26 158 216 229
29 15 25 158 216 229
29 15 26 158 216 229
29 16 25 158 216 229
29 16 26 158 216 229
29 17 25 158 216 229
29 17 26 158 216 229
29 18 25 158 216 229
29 18 26 158 216 229
29 19 25 158 216 229
29 19 26 158 216 229
29 20 25 158 216 229
29 20 26 158 216 229
29 21 26 158 216 229
29 22 25 158 216 229
29 22 26 158 216 229
29 23 25 158 216 229
29 23 26 158 216 229
29 24 25 158 216 229
29 24 26 158 216 229
30 0 27 43 160 4
30 0 28 43 160 4
30 0 29 43 160 4
30 0 30 43 160 4
30 0 31 43 160 4
30 0 32 43 160 4
30 0 33 43 160 4
30 0 34 43 160 4
30 0 35 43 160 4
30 0 36 43 160 4
30 0 37 43 160 4
30 0 38 43 160 4
30 0 39 43 160 4
30 0 40 43 160 4
30 0 41 43 160 4
30 0 42 43 160 4
30 0 43 43 160 4
30 0 44 43 160 4
30 0 45 43 160 4
30 0 46 43 160 4
30 0 47 43 160 4
30 0 48 43 160 4
30 0 49 43 160 4
30 0 50 43 160 4
30 0 51 43 160 4
30 0 52 43 160 4
30 0 53 43 160 4
30 0 54 43 160 4
30 0 55 43 160 4
30 0 56 43 160 4
30 0 57 43 160 4
30 0 58 43 160 4
30 0 59 43 160 4
30 1 25 255 127 12
30 1 26 158 216 229
30 2 23 255 127 12
30 2 26 158 216 229
30 3 20 255 127 12
30 3 21 255 127 12
30 3 23 255 127 12
30 3 24 255 127 12
30 3 25 255 127 12
30 4 20 196 175 214
30 4 21 196 175 214
30 4 22 196 175 214
30 4 23 255 127 12
30 4 24 255 127 12
30 4 25 255 127 12
30 4 26 158 216 229
30 4 27 158 216 229
30 5 20 196 175 214
30 5 21 196 175 214
30 5 22 196 175 214
30 5 23 196 175 214
30 5 24 196 175 214
30 5 25 158 216 229
30 5 26 158 216 229
30 6 20 196 175 214
30 6 22 196 175 214
30 6 23 196 175 214
30 6 24 196 175 214
30 6 25 158 216 229
30 6 26 158 216 229
30 7 25 158 216 229
30 7 26 158 216 229
30 7 27 158 216 229
30 8 25 158 216 229
30 8 26 158 216 229
30 9 25 158 216 229
30 9 26 158 216 229
30 10 25 158 216 229
30 10 26 158 216 229
30 11 25 158 216 229
30 11 26 158 216 229
30 12 25 158 216 229
30 12 26 158 216 229
30 12 27 158 216 229
30 13 26 158 216 229
30 14 26 158 216 229
30 15 26 158 216 229
30 16 25 158 216 229
30 16 26 158 216 229
30 17 25 158 216 229
30 17 26 158 216 229
30 18 25 158 216 229
30 18 26 158 216 229
30 19 25 158 216 229
30 19 26 158 216 229
30 20 25 158 216 229
30 20 26 158 216 229
30 21 25 158 216 229
30 21 26 158 216 229
30 22 25 158 216 229
30 22 26 158 216 229
30 23 25 158 216 229
30 23 26 158 216 229
30 24 26 158 216 229
31 0 26 43 160 4
31 0 27 43 160 4
31 0 28 43 160 4
31 0 29 43 160 4
31 0 30 43 160 4
31 0 31 43 160 4
31 0 32 43 160 4
31 0 33 43 160 4
31 0 34 43 160 4
31 0 35 43 160 4
31 0 36 43 160 4
31 0 37 43 160 4
31 0 38 43 160 4
31 0 39 43 160 4
31 0 40 43 160 4
31 0 41 43 160 4
31 0 42 43 160 4
31 0 43 43 160 4
31 0 44 43 160 4
31 0 45 43 160 4
31 0 46 43 160 4
31 0 47 43 160 4
31 0 48 43 160 4
31 0 49 43 160 4
31 0 50 43 160 4
31 0 51 43 160 4
31 0 52 43 160 4
31 0 53 43 160 4
31 0 54 43 160 4
31 0 55 43 160 4
31 0 56 43 160 4
31 0 57 43 160 4
31 0 58 43 160 4
31 0 59 43 160 4
31 1 25 255 127 12
31 1 26 158 216 229
31 2 22 255 127 12
31 2 26 158 216 229
31 3 20 255 127 12
31 3 21 255 127 12
31 3 22 255 127 12
31 3 23 255 127 12
31 3 24 255 127 12
31 3 25 255 127 12
31 4 21 196 175 214
31 4 22 196 175 214
31 4 23 196 175 214
31 4 24 255 127 12
31 4 25 255 127 12
31 4 26 158 216 229
31 5 23 196 175 214
31 5 24 196 175 214
31 5 25 196 175 214
31 5 26 158 216 229
31 6 26 158 216 229
31 6 27 158 216 229
31 7 26 158 216 229
31 7 27 158 216 229
31 8 26 158 216 229
31 8 27 158 216 229
31 9 26 158 216 229
31 10 25 158 216 229
31 10 26 158 216 229
31 11 25 158 216 229
31 11 26 158 216 229
31 12 25 158 216 229
31 12 26 158 216 229
31 13 25 158 216 229
31 13 26 158 216 229
31 14 26 158 216 229
31 14 27 158 216 229
31 15 25 158 216 229
31 15 26 158 216 229
31 16 25 158 216 229
31 16 26 158 216 229
31 17 25 158 216 229
31 17 26 158 216 229
31 18 25 158 216 229
31 18 26 158 216 229
31 19 25 158 216 229
31 19 26 158 216 229
31 20 25 158 216 229
31 20 26 158 216 229
31 21 25 158 216 229
31 21 26 158 216 229
31 22 25 158 216 229
31 22 26 158 216 229
31 23 25 158 216 229
31 23 26 158 216 229
31 24 26 158 216 229
32 0 27 43 160 4
32 0 28 43 160 4
32 0 29 43 160 4
32 0 30 43 160 4
32 0 31 43 160 4
32 0 32 43 160 4
32 0 33 43 160 4
32 0 34 43 160 4
32 0 35 43 160 4
32 0 36 43 160 4
32 0 37 43 160 4
32 0 38 43 160 4
32 0 39 43 160 4
32 0 40 43 160 4
32 0 41 43 160 4
32 0 42 43 160 4
32 0 43 43 160 4
32 0 44 43 160 4
32 0 45 43 160 4
32 0 46 43 160 4
32 0 47 43 160 4
32 0 48 43 160 4
32 0 49 43 160 4
32 0 50 43 160 4
32 0 51 43 160 4
32 0 52 43 160 4
32 0 53 43 160 4
32 0 54 43 160 4
32 0 55 43 160 4
32 0 56 43 160 4
32 0 57 43 160 4
32 0 58 43 160 4
32 0 59 43 160 4
32 1 24 255 127 12
32 1 26 158 216 229
32 2 22 255 127 12
32 2 23 255 127 12
32 2 26 158 216 229
32 3 20 255 127 12
32 3 21 255 127 12
32 3 22 255 127 12
32 3 23 255 127 12
32 3 24 255 127 12
32 4 21 255 127 12
32 4 22 255 127 12
32 4 23 255 127 12
32 4 24 255 127 12
32 4 25 255 127 12
32 4 26 158 216 229
32 5 23 196 175 214
32 5 24 196 175 214
32 5 25 196 175 214
32 5 26 158 216 229
32 6 26 158 216 229
32 6 27 158 216 229
32 7 26 158 216 229
32 7 27 158 216 229
32 8 25 158 216 229
32 8 26 158 216 229
32 9 25 158 216 229
32 9 26 158 216 229
32 10 26 158 216 229
32 11 25 158 216 229
32 11 26 158 216 229
32 12 25 158 216 229
32 12 26 158 216 229
32 13 26 158 216 229
32 13 27 158 216 229
32 14 26 158 216 229
32 14 27 158 216 229
32 15 26 158 216 229
32 16 26 158 216 229
32 17 25 158 216 229
32 17 26 158 216 229
32 18 25 158 216 229
32 18 26 158 216 229
32 19 26 158 216 229
32 20 26 158 216 229
32 21 25 158 216 229
32 21 26 158 216 229
32 22 25 158 216 229
32 22 26 158 216 229
32 23 25 158 216 229
32 23 26 158 216 229
32 24 26 158 216 229
33 0 26 43 160 4
33 0 27 43 160 4
33 0 28 43 160 4
33 0 29 43 160 4
33 0 30 43 160 4
33 0 31 43 160 4
33 0 32 43 160 4
33 0 33 43 160 4
33 0 34 43 160 4
33 0 35 43 160 4
33 0 36 43 160 4
33 0 37 43 160 4
33 0 38 43 160 4
33 0 39 43 160 4
33 0 40 43 160 4
33 0 41 43 160 4
33 0 42 43 160 4
33 0 43 43 160 4
33 0 44 43 160 4
33 0 45 43 160 4
33 0 46 43 160 4
33 0 47 43 160 4
33 0 48 43 160 4
33 0 49 43 160 4
33 0 50 43 160 4
33 0 51 43 160 4
33 0 52 43 160 4
33 0 53 43 160 4
33 0 54 43 160 4
33 0 55 43 160 4
33 0 56 43 160 4
33 0 57 43 160 4
33 0 58 43 160 4
33 0 59 43 160 4
33 1 24 255 127 12
33 1 25 255 127 12
33 2 22 255 127 12
33 2 23 255 127 12
33 2 24 255 127 12
33 2 25 255 127 12
33 3 22 255 127 12
33 3 23 255 127 12
33 3 24 255 127 12
33 3 25 255 127 12
33 3 26 158 216 229
33 4 23 255 127 12
33 4 24 255 127 12
33 4 25 255 127 12
33 4 26 158 216 229
33 5 24 196 175 214
33 5 25 196 175 214
33 5 26 158 216 229
33 5 27 158 216 229
33 6 25 158 216 229
33 6 26 158 216 229
33 6 27 158 216 229
33 7 26 158 216 229
33 7 27 158 216 229
33 8 26 158 216 229
33 8 27 158 216 229
33 9 25 158 216 229
33 9 26 158 216 229
33 10 25 158 216 229
33 10 26 158 216 229
33 11 25 158 216 229
33 11 26 158 216 229
33 12 26 158 216 229
33 13 26 158 216 229
33 13 27 158 216 229
33 14 26 158 216 229
33 14 27 158 216 229
33 15 26 158 216 229
33 15 27 158 216 229
33 16 26 158 216 229
33 16 27 158 216 229
33 17 26 158 216 229
33 18 25 158 216 229
33 18 26 158 216 229
33 19 25 158 216 229
33 19 26 158 216 229
33 20 25 158 216 229
33 20 26 158 216 229
33 21 25 158 216 229
33 21 26 158 216 229
33 22 25 158 216 229
33 22 26 158 216 229
33 23 25 158 216 229
33 23 26 158 216 229
33 24 26 158 216 229
34 0 26 43 160 4
34 0 28 43 160 4
34 0 29 43 160 4
34 0 30 43 160 4
34 0 31 43 160 4
34 0 32 43 160 4
34 0 33 43 160 4
34 0 34 43 160 4
34 0 35 43 160 4
34 0 36 43 160 4
34 0 37 43 160 4
34 0 38 43 160 4
34 0 39 43 160 4
34 0 40 43 160 4
34 0 41 43 160 4
34 0 42 43 160 4
34 0 43 43 160 4
34 0 44 43 160 4
34 0 45 43 160 4
34 0 46 43 160 4
34 0 47 43 160 4
34 0 48 43 160 4
34 0 49 43 160 4
34 0 50 43 160 4
34 0 51 43 160 4
34 0 52 43 160 4
34 0 53 43 160 4
34 0 54 43 160 4
34 0 55 43 160 4
34 0 56 43 160 4
34 0 57 43 160 4
34 0 58 43 160 4
34 0 59 43 160 4
34 1 24 255 127 12
34 1 25 255 127 12
34 1 26 158 216 229
34 2 24 255 127 12
34 2 25 255 127 12
34 2 26 158 216 229
34 3 25 255 127 12
34 3 26 158 216 229
34 4 25 255 127 12
34 4 26 158 216 229
34 5 25 255 127 12
34 5 26 158 216 229
34 6 26 158 216 229
34 6 27 158 216 229
34 7 26 158 216 229
34 7 27 158 216 229
34 8 26 158 216 229
34 8 27 158 216 229
34 9 26 158 216 229
34 9 27 158 216 229
34 10 25 158 216 229
34 10 26 158 216 229
34 11 25 158 216 229
34 11 26 158 216 229
34 12 26 158 216 229
34 13 25 158 216 229
34 13 26 158 216 229
34 14 26 158 216 229
34 14 27 158 216 229
34 15 26 158 216 229
34 15 27 158 216 229
34 16 26 158 216 229
34 17 26 158 216 229
34 18 25 158 216 229
34 18 26 158 216 229
34 19 25 158 216 229
34 19 26 158 216 229
34 20 25 158 216 229
34 20 26 158 216 229
34 21 25 158 216 229
34 21 26 158 216 229
34 22 26 158 216 229
34 23 26 158 216 229
34 24 26 158 216 229
35 0 26 43 160 4
35 0 28 43 160 4
35 0 29 43 160 4
35 0 30 43 160 4
35 0 31 43 160 4
35 0 32 43 160 4
35 0 33 43 160 4
35 0 34 43 160 4
35 0 35 43 160 4
35 0 36 43 160 4
35 0 37 43 160 4
35 0 38 43 160 4
35 0 39 43 160 4
35 0 40 43 160 4
35 0 41 43 160 4
35 0 42 43 160 4
35 0 43 43 160 4
35 0 44 43 160 4
35 0 45 43 160 4
35 0 46 43 160 4
35 0 47 43 160 4
35 0 48 43 160 4
35 0 49 43 160 4
35 0 50 43 160 4
35 0 51 43 160 4
35 0 52 43 160 4
35 0 53 43 160 4
35 0 54 43 160 4
35 0 55 43 160 4
35 0 56 43 160 4
35 0 57 43 160 4
35 0 58 43 160 4
35 0 59 43 160 4
35 1 24 255 127 12
35 1 25 255 127 12
35 1 26 158 216 229
35 2 26 158 216 229
35 2 27 158 216 229
35 3 25 255 127 12
35 3 26 158 216 229
35 4 26 158 216 229
35 5 26 158 216 229
35 6 26 158 216 229
35 6 27 158 216 229
35 7 26 158 216 229
35 7 27 158 216 229
35 8 26 158 216 229
35 9 26 158 216 229
35 10 26 158 216 229
35 10 27 158 216 229
35 11 26 158 216 229
35 11 27 158 216 229
35 12 25 158 216 229
35 12 26 158 216 229
35 13 26 158 216 229
35 13 27 158 216 229
35 14 26 158 216 229
35 14 27 158 216 229
35 15 26 158 216 229
35 15 27 158 216 229
35 16 26 158 216 229
35 16 27 158 216 229
35 17 25 158 216 229
35 17 26 158 216 229
35 18 26 158 216 229
35 19 25 158 216 229
35 19 26 158 216 229
35 20 25 158 216 229
35 20 26 158 216 229
35 21 25 158 216 229
35 21 26 158 216 229
35 22 25 158 216 229
35 22 26 158 216 229
35 23 26 158 216 229
35 24 26 158 216 229
36 0 26 43 160 4
36 0 28 43 160 4
36 0 29 43 160 4
36 0 30 43 160 4
36 0 31 43 160 4
36 0 32 43 160 4
36 0 33 43 160 4
36 0 34 43 160 4
36 0 35 43 160 4
36 0 36 43 160 4
36 0 37 43 160 4
36 0 38 43 160 4
36 0 39 43 160 4
36 0 40 43 160 4
36 0 41 43 160 4
36 0 42 43 160 4
36 0 43 43 160 4
36 0 44 43 160 4
36 0 45 43 160 4
36 0 46 43 160 4
36 0 47 43 160 4
36 0 48 43 160 4
36 0 49 43 160 4
36 0 50 43 160 4
36 0 51 43 160 4
36 0 52 43 160 4
36 0 53 43 160 4
36 0 54 43 160 4
36 0 55 43 160 4
36 0 56 43 160 4
36 0 57 43 160 4
36 0 58 43 160 4
36 0 59 43 160 4
36 1 25 158 216 229
36 1 26 158 216 229
36 2 26 158 216 229
36 2 27 158 216 229
36 3 25 158 216 229
36 3 26 158 216 229
36 4 25 158 216 229
36 4 26 158 216 229
36 5 26 158 216 229
36 6 26 158 216 229
36 6 27 158 216 229
36 7 26 158 216 229
36 7 27 158 216 229
36 8 25 158 216 229
36 8 26 158 216 229
36 9 26 158 216 229
36 10 26 158 216 229
36 10 27 158 216 229
36 11 25 158 216 229
36 11 26 158 216 229
36 11 27 158 216 229
36 12 26 158 216 229
36 12 27 158 216 229
36 13 26 158 216 229
36 13 27 158 216 229
36 14 26 158 216 229
36 14 27 158 216 229
36 15 26 158 216 229
36 15 27 158 216 229
36 16 26 158 216 229
36 17 26 158 216 229
36 18 26 158 216 229
36 19 26 158 216 229
36 20 26 158 216 229
36 21 25 158 216 229
36 21 26 158 216 229
36 22 25 158 216 229
36 22 26 158 216 229
36 23 25 158 216 229
36 23 26 158 216 229
36 24 26 158 216 229
37 0 26 43 160 4
37 0 28 43 160 4
37 0 29 43 160 4
37 0 30 43 160 4
37 0 31 43 160 4
37 0 32 43 160 4
37 0 33 43 160 4
37 0 34 43 160 4
37 0 35 43 160 4
37 0 36 43 160 4
37 0 37 43 160 4
37 0 38 43 160 4
37 0 39 43 160 4
37 0 40 43 160 4
37 0 41 43 160 4
37 0 42 43 160 4
37 0 43 43 160 4
37 0 44 43 160 4
37 0 45 43 160 4
37 0 46 43 160 4
37 0 47 43 160 4
37 0 48 43 160 4
37 0 49 43 160 4
37 0 50 43 160 4
37 0 51 43 160 4
37 0 52 43 160 4
37 0 53 43 160 4
37 0 54 43 160 4
37 0 55 43 160 4
37 0 56 43 160 4
37 0 57 43 160 4
37 0 58 43 160 4
37 0 59 43 160 4
37 1 24 196 175 214
37 1 25 158 216 229
37 1 26 158 216 229
37 2 26 158 216 229
37 2 27 158 216 229
37 3 26 158 216 229
37 3 27 158 216 229
37 4 26 158 216 229
37 4 27 158 216 229
37 5 26 158 216 229
37 5 27 158 216 229
37 6 25 158 216 229
37 6 26 158 216 229
37 6 27 158 216 229
37 7 26 158 216 229
37 7 27 158 216 229
37 8 25 158 216 229
37 8 26 158 216 229
37 9 26 158 216 229
37 9 27 158 216 229
37 10 25 158 216 229
37 10 26 158 216 229
37 10 27 158 216 229
37 11 26 158 216 229
37 11 27 158 216 229
37 12 26 158 216 229
37 12 27 158 216 229
37 13 26 158 216 229
37 13 27 158 216 229
37 14 26 158 216 229
37 14 27 158 216 229
37 15 26 158 216 229
37 16 26 158 216 229
37 17 26 158 216 229
37 18 26 158 216 229
37 18 27 158 216 229
37 19 26 158 216 229
37 20 25 158 216 229
37 20 26 158 216 229
37 21 25 158 216 229
37 21 26 158 216 229
37 22 25 158 216 229
37 22 26 158 216 229
37 23 25 158 216 229
37 23 26 158 216 229
37 24 26 158 216 229
38 0 26 43 160 4
38 0 28 43 160 4
38 0 29 43 160 4
38 0 30 43 160 4
38 0 31 43 160 4
38 0 32 43 160 4
38 0 33 43 160 4
38 0 34 43 160 4
38 0 35 43 160 4
38 0 36 43 160 4
38 0 37 43 160 4
38 0 38 43 160 4
38 0 39 43 160 4
38 0 40 43 160 4
38 0 41 43 160 4
38 0 42 43 160 4
38 0 43 43 160 4
38 0 44 43 160 4
38 0 45 43 160 4
38 0 46 43 160 4
38 0 47 43 160 4
38 0 48 43 160 4
38 0 49 43 160 4
38 0 50 43 160 4
38 0 51 43 160 4
38 0 52 43 160 4
38 0 53 43 160 4
38 0 54 43 160 4
38 0 55 43 160 4
38 0 56 43 160 4
38 0 57 43 160 4
38 0 58 43 160 4
38 0 59 43 160 4
38 1 24 196 175 214
38 1 25 158 216 229
38 1 26 158 216 229
38 2 26 158 216 229
38 2 27 158 216 229
38 3 26 158 216 229
38 3 27 158 216 229
38 4 26 158 216 229
38 4 27 158 216 229
38 5 26 158 216 229
38 5 27 158 216 229
38 6 26 158 216 229
38 6 27 158 216 229
38 7 25 196 175 214
38 7 26 158 216 229
38 8 25 196 175 214
38 8 26 158 216 229
38 8 27 158 216 229
38 9 25 158 216 229
38 9 26 158 216 229
38 10 26 158 216 229
38 11 26 158 216 229
38 11 27 158 216 229
38 12 26 158 216 229
38 12 27 158 216 229
38 13 26 158 216 229
38 13 27 158 216 229
38 14 26 158 216 229
38 14 27 158 216 229
38 15 26 158 216 229
38 16 26 158 216 229
38 17 26 158 216 229
38 18 26 158 216 229
38 19 26 158 216 229
38 20 26 158 216 229
38 21 25 158 216 229
38 21 26 158 216 229
38 22 26 158 216 229
38 23 26 158 216 229
38 24 26 158 216 229
39 0 26 43 160 4
39 0 28 43 160 4
39 0 29 43 160 4
39 0 30 43 160 4
39 0 31 43 160 4
39 0 32 43 160 4
39 0 33 43 160 4
39 0 34 43 160 4
39 0 35 43 160 4
39 0 36 43 160 4
39 0 37 43 160 4
39 0 38 43 160 4
39 0 39 43 160 4
39 0 40 43 160 4
39 0 41 43 160 4
39 0 42 43 160 4
39 0 43 43 160 4
39 0 44 43 160 4
39 0 45 43 160 4
39 0 46 43 160 4
39 0 47 43 160 4
39 0 48 43 160 4
39 0 49 43 160 4
39 0 50 43 160 4
39 0 51 43 160 4
39 0 52 43 160 4
39 0 53 43 160 4
39 0 54 43 160 4
39 0 55 43 160 4
39 0 56 43 160 4
39 0 57 43 160 4
39 0 58 43 160 4
39 0 59 43 160 4
39 1 24 196 175 214
39 1 25 196 175 214
39 1 26 158 216 229
39 2 26 158 216 229
39 2 27 158 216 229
39 3 26 158 216 229
39 3 27 158 216 229
39 4 26 158 216 229
39 4 27 158 216 229
39 5 26 158 216 229
39 6 25 196 175 214
39 6 26 158 216 229
39 6 27 158 216 229
39 7 24 196 175 214
39 7 25 196 175 214
39 7 26 158 216 229
39 8 24 196 175 214
39 8 25 196 175 214
39 8 26 158 216 229
39 9 24 196 175 214
39 9 25 196 175 214
39 9 26 158 216 229
39 10 24 114 158 206
39 10 25 196 175 214
39 10 26 158 216 229
39 11 25 196 175 214
39 11 26 158 216 229
39 11 27 158 216 229
39 12 25 158 216 229
39 12 26 158 216 229
39 12 27 158 216 229
39 13 26 158 216 229
39 14 26 158 216 229
39 15 26 158 216 229
39 16 26 158 216 229
39 17 26 158 216 229
39 18 26 158 216 229
39 19 26 158 216 229
39 20 26 158 216 229
39 21 25 158 216 229
39 21 26 158 216 229
39 22 26 158 216 229
39 23 25 158 216 229
39 23 26 158 216 229
39 24 26 158 216 229
40 0 26 43 160 4
40 0 28 43 160 4
40 0 29 43 160 4
40 0 30 43 160 4
40 0 31 43 160 4
40 0 32 43 160 4
40 0 33 43 160 4
40 0 34 43 160 4
40 0 35 43 160 4
40 0 36 43 160 4
40 0 37 43 160 4
40 0 38 43 160 4
40 0 39 43 160 4
40 0 40 43 160 4
40 0 41 43 160 4
40 0 42 43 160 4
40 0 43 43 160 4
40 0 44 43 160 4
40 0 45 43 160 4
40 0 46 43 160 4
40 0 47 43 160 4
40 0 48 43 160 4
40 0 49 43 160 4
40 0 50 43 160 4
40 0 51 43 160 4
40 0 52 43 160 4
40 0 53 43 160 4
40 0 54 43 160 4
40 0 55 43 160 4
40 0 56 43 160 4
40 0 57 43 160 4
40 0 58 43 160 4
40 0 59 43 160 4
40 1 25 196 175 214
40 1 26 158 216 229
40 1 27 158 216 229
40 2 26 158 216 229
40 2 27 158 216 229
40 3 26 158 216 229
40 3 27 158 216 229
40 4 26 158 216 229
40 5 25 196 175 214
40 5 26 158 216 229
40 6 24 196 175 214
40 6 25 196 175 214
40 6 26 158 216 229
40 7 23 196 175 214
40 7 24 196 175 214
40 7 25 196 175 214
40 8 23 196 175 214
40 8 24 196 175 214
40 8 25 196 175 214
40 8 27 158 216 229
40 9 23 196 175 214
40 9 24 196 175 214
40 9 25 196 175 214
40 9 27 158 216 229
40 10 23 196 175 214
40 10 24 196 175 214
40 10 25 196 175 214
40 11 24 196 175 214
40 11 25 196 175 214
40 11 26 158 216 229
40 11 27 158 216 229
40 12 24 196 175 214
40 12 25 196 175 214
40 12 26 158 216 229
40 13 24 196 175 214
40 13 25 196 175 214
40 13 26 158 216 229
40 14 24 196 175 214
40 14 25 196 175 214
40 14 26 158 216 229
40 15 25 196 175 214
40 15 26 158 216 229
40 16 25 196 175 214
40 16 26 158 216 229
40 16 27 158 216 229
40 17 25 196 175 214
40 17 26 158 216 229
40 18 26 158 216 229
40 18 27 158 216 229
40 19 26 158 216 229
40 19 27 158 216 229
40 20 26 158 216 229
40 21 25 158 216 229
40 21 26 158 216 229
40 22 25 158 216 229
40 22 26 158 216 229
40 23 26 158 216 229
40 24 26 158 216 229
41 0 26 43 160 4
41 0 28 43 160 4
41 0 29 43 160 4
41 0 30 43 160 4
41 0 31 43 160 4
41 0 32 43 160 4
41 0 33 43 160 4
41 0 34 43 160 4
41 0 35 43 160 4
41 0 36 43 160 4
41 0 37 43 160 4
41 0 38 43 160 4
41 0 39 43 160 4
41 0 40 43 160 4
41 0 41 43 160 4
41 0 42 43 160 4
41 0 43 43 160 4
41 0 44 43 160 4
41 0 45 43 160 4
41 0 46 43 160 4
41 0 47 43 160 4
41 0 48 43 160 4
41 0 49 43 160 4
41 0 50 43 160 4
41 0 51 43 160 4
41 0 52 43 160 4
41 0 53 43 160 4
41 0 54 43 160 4
41 0 55 43 160 4
41 0 56 43 160 4
41 0 57 43 160 4
41 0 58 43 160 4
41 0 59 43 160 4
41 1 25 196 175 214
41 1 26 158 216 229
41 1 27 158 216 229
41 2 26 158 216 229
41 2 27 158 216 229
41 3 26 158 216 229
41 3 27 158 216 229
41 4 25 196 175 214
41 4 26 158 216 229
41 4 27 158 216 229
41 5 25 196 175 214
41 5 26 158 216 229
41 6 24 196 175 214
41 6 25 196 175 214
41 6 26 158 216 229
41 7 24 196 175 214
41 7 25 196 175 214
41 7 27 158 216 229
41 8 23 196 175 214
41 8 24 196 175 214
41 8 26 196 175 214
41 8 27 158 216 229
41 9 23 196 175 214
41 9 24 196 175 214
41 9 26 158 216 229
41 9 27 158 216 229
41 10 23 196 175 214
41 10 24 196 175 214
41 10 26 158 216 229
41 10 27 158 216 229
41 11 23 196 175 214
41 11 24 196 175 214
41 12 23 196 175 214
41 12 24 196 175 214
41 13 23 196 175 214
41 13 24 196 175 214
41 13 25 196 175 214
41 13 26 158 216 229
41 14 23 196 175 214
41 14 24 196 175 214
41 14 25 196 175 214
41 14 26 158 216 229
41 15 23 196 175 214
41 15 24 196 175 214
41 15 25 196 175 214
41 15 26 158 216 229
41 16 24 196 175 214
41 16 25 196 175 214
41 16 26 158 216 229
41 17 24 196 175 214
41 17 25 196 175 214
41 17 26 158 216 229
41 18 24 114 158 206
41 18 25 196 175 214
41 18 26 158 216 229
41 19 25 196 175 214
41 19 26 158 216 229
41 19 27 158 216 229
41 20 25 196 175 214
41 20 26 158 216 229
41 21 25 158 216 229
41 21 26 158 216 229
41 22 25 158 216 229
41 22 26 158 216 229
41 23 25 158 216 229
41 23 26 158 216 229
41 24 26 158 216 229
42 0 26 43 160 4
42 0 28 43 160 4
42 0 29 43 160 4
42 0 30 43 160 4
42 0 31 43 160 4
42 0 32 43 160 4
42 0 33 43 160 4
42 0 34 43 160 4
42 0 35 43 160 4
42 0 36 43 160 4
42 0 37 43 160 4
42 0 38 43 160 4
42 0 39 43 160 4
42 0 40 43 160 4
42 0 41 43 160 4
42 0 42 43 160 4
42 0 43 43 160 4
42 0 44 43 160 4
42 0 45 43 160 4
42 0 46 43 160 4
42 0 47 43 160 4
42 0 48 43 160 4
42 0 49 43 160 4
42 0 50 43 160 4
42 0 51 43 160 4
42 0 52 43 160 4
42 0 53 43 160 4
42 0 54 43 160 4
42 0 55 43 160 4
42 0 56 43 160 4
42 0 57 43 160 4
42 0 58 43 160 4
42 0 59 43 160 4
42 1 25 196 175 214
42 1 26 158 216 229
42 1 27 158 216 229
42 2 26 158 216 229
42 2 27 158 216 229
42 3 26 158 216 229
42 3 27 158 216 229
42 4 26 158 216 229
42 4 27 158 216 229
42 5 25 196 175 214
42 5 26 158 216 229
42 6 24 196 175 214
42 6 25 196 175 214
42 6 26 158 216 229
42 7 24 196 175 214
42 7 25 196 175 214
42 7 27 158 216 229
42 8 23 196 175 214
42 8 24 196 175 214
42 8 25 196 175 214
42 8 27 158 216 229
42 9 23 196 175 214
42 9 24 196 175 214
42 9 26 158 216 229
42 9 27 158 216 229
42 10 22 196 175 214
42 10 23 196 175 214
42 10 24 196 175 214
42 10 26 158 216 229
42 10 27 158 216 229
42 11 23 196 175 214
42 11 24 196 175 214
42 11 25 196 175 214
42 11 26 158 216 229
42 11 27 158 216 229
42 12 23 196 175 214
42 12 24 196 175 214
42 12 26 158 216 229
42 12 27 158 216 229
42 13 23 196 175 214
42 13 24 196 175 214
42 13 26 158 216 229
42 13 27 158 216 229
42 14 23 196 175 214
42 14 24 196 175 214
42 14 27 158 216 229
42 15 23 196 175 214
42 15 24 196 175 214
42 15 27 158 216 229
42 16 24 196 175 214
42 16 25 196 175 214
42 16 27 158 216 229
42 17 24 196 175 214
42 17 25 196 175 214
42 18 24 196 175 214
42 18 25 196 175 214
42 18 26 158 216 229
42 19 24 196 175 214
42 19 25 196 175 214
42 19 26 158 216 229
42 20 24 196 175 214
42 20 25 196 175 214
42 20 26 158 216 229
42 21 24 196 175 214
42 21 25 158 216 229
42 21 26 158 216 229
42 22 24 196 175 214
42 22 25 158 216 229
42 22 26 158 216 229
42 23 24 196 175 214
42 23 25 158 216 229
42 23 26 158 216 229
42 24 26 158 216 229
43 0 26 43 160 4
43 0 28 43 160 4
43 0 29 43 160 4
43 0 30 43 160 4
43 0 31 43 160 4
43 0 32 43 160 4
43 0 33 43 160 4
43 0 34 43 160 4
43 0 35 43 160 4
43 0 36 43 160 4
43 0 37 43 160 4
43 0 38 43 160 4
43 0 39 43 160 4
43 0 40 43 160 4
43 0 41 43 160 4
43 0 42 43 160 4
43 0 43 43 160 4
43 0 44 43 160 4
43 0 45 43 160 4
43 0 46 43 160 4
43 0 47 43 160 4
43 0 48 43 160 4
43 0 49 43 160 4
43 0 50 43 160 4
43 0 51 43 160 4
43 0 52 43 160 4
43 0 53 43 160 4
43 0 54 43 160 4
43 0 55 43 160 4
43 0 56 43 160 4
43 0 57 43 160 4
43 0 58 43 160 4
43 0 59 43 160 4
43 1 25 196 175 214
43 1 26 158 216 229
43 1 27 158 216 229
43 2 26 158 216 229
43 2 27 158 216 229
43 3 26 158 216 229
43 3 27 158 216 229
43 4 26 158 216 229
43 4 27 158 216 229
43 5 26 158 216 229
43 5 27 158 216 229
43 6 22 196 175 214
43 6 23 196 175 214
43 6 24 196 175 214
43 6 25 196 175 214
43 6 26 158 216 229
43 7 22 196 175 214
43 7 23 196 175 214
43 7 24 196 175 214
43 7 25 196 175 214
43 7 26 158 216 229
43 8 22 196 175 214
43 8 23 196 175 214
43 8 24 196 175 214
43 8 25 196 175 214
43 8 27 158 216 229
43 9 22 196 175 214
43 9 23 196 175 214
43 9 24 196 175 214
43 9 26 158 216 229
43 9 27 158 216 229
43 10 22 196 175 214
43 10 23 196 175 214
43 10 25 196 175 214
43 10 26 158 216 229
43 10 27 158 216 229
43 11 22 196 175 214
43 11 23 196 175 214
43 11 25 196 175 214
43 11 26 158 216 229
43 11 27 158 216 229
43 12 22 196 175 214
43 12 23 196 175 214
43 12 24 196 175 214
43 12 25 196 175 214
43 12 26 158 216 229
43 12 27 158 216 229
43 13 23 196 175 214
43 13 24 196 175 214
43 13 26 158 216 229
43 13 27 158 216 229
43 14 23 196 175 214
43 14 24 196 175 214
43 14 26 158 216 229
43 14 27 158 216 229
43 15 23 196 175 214
43 15 24 196 175 214
43 15 26 158 216 229
43 15 27 158 216 229
43 16 24 196 175 214
43 16 26 158 216 229
43 16 27 158 216 229
43 17 24 196 175 214
43 17 25 196 175 214
43 17 27 158 216 229
43 18 24 196 175 214
43 18 25 196 175 214
43 18 27 158 216 229
43 19 24 196 175 214
43 19 25 196 175 214
43 19 27 158 216 229
43 20 24 196 175 214
43 20 25 196 175 214
43 20 27 158 216 229
43 21 24 196 175 214
43 21 25 158 216 229
43 22 24 196 175 214
43 22 25 158 216 229
43 23 24 196 175 214
43 23 25 158 216 229
43 23 26 158 216 229
43 24 26 158 216 229
44 0 26 43 160 4
44 0 28 43 160 4
44 0 29 43 160 4
44 0 30 43 160 4
44 0 31 43 160 4
44 0 32 43 160 4
44 0 33 43 160 4
44 0 34 43 160 4
44 0 35 43 160 4
44 0 36 43 160 4
44 0 37 43 160 4
44 0 38 43 160 4
44 0 39 43 160 4
44 0 40 43 160 4
44 0 41 43 160 4
44 0 42 43 160 4
44 0 43 43 160 4
44 0 44 43 160 4
44 0 45 43 160 4
44 0 46 43 160 4
44 0 47 43 160 4
44 0 48 43 160 4
44 0 49 43 160 4
44 0 50 43 160 4
44 0 51 43 160 4
44 0 52 43 160 4
44 0 53 43 160 4
44 0 54 43 160 4
44 0 55 43 160 4
44 0 56 43 160 4
44 0 57 43 160 4
44 0 58 43 160 4
44 0 59 43 160 4
44 1 25 158 216 229
44 1 26 158 216 229
44 1 27 158 216 229
44 2 26 158 216 229
44 2 27 158 216 229
44 3 26 158 216 229
44 3 27 158 216 229
44 4 26 158 216 229
44 4 27 158 216 229
44 5 24 196 175 214
44 5 25 196 175 214
44 5 26 158 216 229
44 5 27 158 216 229
44 6 24 196 175 214
44 6 25 196 175 214
44 6 26 158 216 229
44 7 24 196 175 214
44 8 26 158 216 229
44 8 27 158 216 229
44 9 25 196 175 214
44 9 26 158 216 229
44 9 27 158 216 229
44 10 25 158 216 229
44 10 26 158 216 229
44 10 27 158 216 229
44 11 26 158 216 229
44 11 27 158 216 229
44 12 24 196 175 214
44 12 25 158 216 229
44 12 26 158 216 229
44 12 27 158 216 229
44 13 24 196 175 214
44 13 26 158 216 229
44 13 27 158 216 229
44 14 24 114 158 206
44 14 26 158 216 229
44 14 27 158 216 229
44 15 24 196 175 214
44 15 26 158 216 229
44 15 27 158 216 229
44 16 24 196 175 214
44 16 25 158 216 229
44 16 27 158 216 229
44 17 24 196 175 214
44 17 25 158 216 229
44 17 27 158 216 229
44 18 24 196 175 214
44 18 25 158 216 229
44 19 24 196 175 214
44 19 25 158 216 229
44 19 26 158 216 229
44 20 24 196 175 214
44 20 25 158 216 229
44 20 26 158 216 229
44 21 24 114 158 206
44 21 25 158 216 229
44 21 26 158 216 229
44 22 24 114 158 206
44 22 25 158 216 229
44 22 26 158 216 229
44 23 24 158 216 229
44 23 25 158 216 229
44 23 26 158 216 229
44 24 26 158 216 229
45 0 26 43 160 4
45 0 28 43 160 4
45 0 29 43 160 4
45 0 30 43 160 4
45 0 31 43 160 4
45 0 32 43 160 4
45 0 33 43 160 4
45 0 34 43 160 4
45 0 35 43 160 4
45 0 36 43 160 4
45 0 37 43 160 4
45 0 38 43 160 4
45 0 39 43 160 4
45 0 40 43 160 4
45 0 41 43 160 4
45 0 42 43 160 4
45 0 43 43 160 4
45 0 44 43 160 4
45 0 45 43 160 4
45 0 46 43 160 4
45 0 47 43 160 4
45 0 48 43 160 4
45 0 49 43 160 4
45 0 50 43 160 4
45 0 51 43 160 4
45 0 52 43 160 4
45 0 53 43 160 4
45 0 54 43 160 4
45 0 55 43 160 4
45 0 56 43 160 4
45 0 57 43 160 4
45 0 58 43 160 4
45 0 59 43 160 4
45 1 25 158 216 229
45 1 26 158 216 229
45 1 27 158 216 229
45 2 25 158 216 229
45 2 26 158 216 229
45 2 27 158 216 229
45 3 25 158 216 229
45 3 26 158 216 229
45 3 27 158 216 229
45 3 28 158 216 229
45 4 25 158 216 229
45 4 26 158 216 229
45 4 27 158 216 229
45 5 25 196 175 214
45 5 26 158 216 229
45 5 27 158 216 229
45 6 25 196 175 214
45 7 25 196 175 214
45 7 27 158 216 229
45 8 26 158 216 229
45 8 27 158 216 229
45 9 26 158 216 229
45 9 27 158 216 229
45 10 26 158 216 229
45 10 27 158 216 229
45 11 26 158 216 229
45 11 27 158 216 229
45 12 26 158 216 229
45 12 27 158 216 229
45 13 26 158 216 229
45 13 27 158 216 229
45 14 26 158 216 229
45 14 27 158 216 229
45 15 25 158 216 229
45 15 27 158 216 229
45 16 25 158 216 229
45 16 26 158 216 229
45 17 26 158 216 229
45 18 26 158 216 229
45 19 26 158 216 229
45 20 26 158 216 229
45 21 26 158 216 229
45 21 27 158 216 229
45 22 26 158 216 229
45 22 27 158 216 229
45 23 26 158 216 229
45 24 26 158 216 229
46 0 27 43 160 4
46 0 28 43 160 4
46 0 29 43 160 4
46 0 30 43 160 4
46 0 31 43 160 4
46 0 32 43 160 4
46 0 33 43 160 4
46 0 34 43 160 4
46 0 35 43 160 4
46 0 36 43 160 4
46 0 37 43 160 4
46 0 38 43 160 4
46 0 39 43 160 4
46 0 40 43 160 4
46 0 41 43 160 4
46 0 42 43 160 4
46 0 43 43 160 4
46 0 44 43 160 4
46 0 45 43 160 4
46 0 46 43 160 4
46 0 47 43 160 4
46 0 48 43 160 4
46 0 49 43 160 4
46 0 50 43 160 4
46 0 51 43 160 4
46 0 52 43 160 4
46 0 53 43 160 4
46 0 54 43 160 4
46 0 55 43 160 4
46 0 56 43 160 4
46 0 57 43 160 4
46 0 58 43 160 4
46 0 59 43 160 4
46 1 27 158 216 229
46 1 28 158 216 229
46 2 27 158 216 229
46 3 27 158 216 229
46 3 28 158 216 229
46 4 27 158 216 229
46 5 27 158 216 229
46 7 27 158 216 229
46 8 27 158 216 229
46 9 27 158 216 229
46 10 27 158 216 229
46 11 27 158 216 229
46 12 27 158 216 229
46 13 27 158 216 229
46 14 27 158 216 229
46 18 27 158 216 229
46 19 27 158 216 229
46 20 27 158 216 229
46 21 27 158 216 229
46 22 27 158 216 229
46 23 27 158 216 229
46 24 27 158 216 229
47 0 29 43 160 4
47 0 30 43 160 4
47 0 31 43 160 4
47 0 32 43 160 4
47 0 33 43 160 4
47 0 34 43 160 4
47 0 35 43 160 4
47 0 36 43 160 4
47 0 37 43 160 4
47 0 38 43 160 4
47 0 39 43 160 4
47 0 40 43 160 4
47 0 41 43 160 4
47 0 42 43 160 4
47 0 43 43 160 4
47 0 44 43 160 4
47 0 45 43 160 4
47 0 46 43 160 4
47 0 47 43 160 4
47 0 48 43 160 4
47 0 49 43 160 4
47 0 50 43 160 4
47 0 51 43 160 4
47 0 52 43 160 4
47 0 53 43 160 4
47 0 54 43 160 4
47 0 55 43 160 4
47 0 56 43 160 4
47 0 57 43 160 4
47 0 58 43 160 4
47 0 59 43 160 4
48 0 31 43 160 4
48 0 32 43 160 4
48 0 33 43 160 4
48 0 34 43 160 4
48 0 35 43 160 4
48 0 36 43 160 4
48 0 37 43 160 4
48 0 38 43 160 4
48 0 39 43 160 4
48 0 40 43 160 4
48 0 41 43 160 4
48 0 42 43 160 4
48 0 43 43 160 4
48 0 44 43 160 4
48 0 45 43 160 4
48 0 46 43 160 4
48 0 47 43 160 4
48 0 48 43 160 4
48 0 49 43 160 4
48 0 50 43 160 4
48 0 51 43 160 4
48 0 52 43 160 4
48 0 53 43 160 4
48 0 54 43 160 4
48 0 55 43 160 4
48 0 56 43 160 4
48 0 57 43 160 4
48 0 58 43 160 4
48 0 59 43 160 4
49 0 32 43 160 4
49 0 33 43 160 4
49 0 34 43 160 4
49 0 35 43 160 4
49 0 36 43 160 4
49 0 37 43 160 4
49 0 38 43 160 4
49 0 39 43 160 4
49 0 40 43 160 4
49 0 41 43 160 4
49 0 42 43 160 4
49 0 43 43 160 4
49 0 44 43 160 4
49 0 45 43 160 4
49 0 46 43 160 4
49 0 47 43 160 4
49 0 48 43 160 4
49 0 49 43 160 4
49 0 50 43 160 4
49 0 51 43 160 4
49 0 52 43 160 4
49 0 53 43 160 4
49 0 54 43 160 4
49 0 55 43 160 4
49 0 56 43 160 4
49 0 57 43 160 4
49 0 58 43 160 4
49 0 59 43 160 4
50 0 34 43 160 4
50 0 35 43 160 4
50 0 36 43 160 4
50 0 37 43 160 4
50 0 38 43 160 4
50 0 39 43 160 4
50 0 40 43 160 4
50 0 41 43 160 4
50 0 42 43 160 4
50 0 43 43 160 4
50 0 44 43 160 4
50 0 45 43 160 4
50 0 46 43 160 4
50 0 47 43 160 4
50 0 48 43 160 4
50 0 49 43 160 4
50 0 50 43 160 4
50 0 51 43 160 4
50 0 52 43 160 4
50 0 53 43 160 4
50 0 54 43 160 4
50 0 55 43 160 4
50 0 56 43 160 4
50 0 57 43 160 4
50 0 58 43 160 4
50 0 59 43 160 4
51 0 35 43 160 4
51 0 36 43 160 4
51 0 37 43 160 4
51 0 38 43 160 4
51 0 39 43 160 4
51 0 40 43 160 4
51 0 41 43 160 4
51 0 42 43 160 4
51 0 43 43 160 4
51 0 44 43 160 4
51 0 45 43 160 4
51 0 46 43 160 4
51 0 47 43 160 4
51 0 48 43 160 4
51 0 49 43 160 4
51 0 50 43 160 4
51 0 51 43 160 4
51 0 52 43 160 4
51 0 53 43 160 4
51 0 54 43 160 4
51 0 55 43 160 4
51 0 56 43 160 4
51 0 57 43 160 4
51 0 58 43 160 4
51 0 59 43 160 4
51 1 35 158 216 229
51 2 35 158 216 229
51 3 35 158 216 229
52 0 37 43 160 4
52 0 38 43 160 4
52 0 39 43 160 4
52 0 40 43 160 4
52 0 41 43 160 4
52 0 42 43 160 4
52 0 43 43 160 4
52 0 44 43 160 4
52 0 45 43 160 4
52 0 46 43 160 4
52 0 47 43 160 4
52 0 48 43 160 4
52 0 49 43 160 4
52 0 50 43 160 4
52 0 51 43 160 4
52 0 52 43 160 4
52 0 53 43 160 4
52 0 54 43 160 4
52 0 55 43 160 4
52 0 56 43 160 4
52 0 57 43 160 4
52 0 58 43 160 4
52 0 59 43 160 4
53 0 39 43 160 4
53 0 40 43 160 4
53 0 41 43 160 4
53 0 42 43 160 4
53 0 43 43 160 4
53 0 44 43 160 4
53 0 45 43 160 4
53 0 46 43 160 4
53 0 47 43 160 4
53 0 48 43 160 4
53 0 49 43 160 4
53 0 50 43 160 4
53 0 51 43 160 4
53 0 52 43 160 4
53 0 53 43 160 4
53 0 54 43 160 4
53 0 55 43 160 4
53 0 56 43 160 4
53 0 57 43 160 4
53 0 58 43 160 4
53 0 59 43 160 4
54 0 40 43 160 4
54 0 41 43 160 4
54 0 42 43 160 4
54 0 43 43 160 4
54 0 44 43 160 4
54 0 45 43 160 4
54 0 46 43 160 4
54 0 47 43 160 4
54 0 48 43 160 4
54 0 49 43 160 4
54 0 50 43 160 4
54 0 51 43 160 4
54 0 52 43 160 4
54 0 53 43 160 4
54 0 54 43 160 4
54 0 55 43 160 4
54 0 56 43 160 4
54 0 57 43 160 4
54 0 58 43 160 4
54 0 59 43 160 4
55 0 42 43 160 4
55 0 43 43 160 4
55 0 44 43 160 4
55 0 45 43 160 4
55 0 46 43 160 4
55 0 47 43 160 4
55 0 48 43 160 4
55 0 49 43 160 4
55 0 50 43 160 4
55 0 51 43 160 4
55 0 52 43 160 4
55 0 53 43 160 4
55 0 54 43 160 4
55 0 55 43 160 4
55 0 56 43 160 4
55 0 57 43 160 4
55 0 58 43 160 4
55 0 59 43 160 4
56 0 44 43 160 4
56 0 45 43 160 4
56 0 46 43 160 4
56 0 47 43 160 4
56 0 48 43 160 4
56 0 49 43 160 4
56 0 50 43 160 4
56 0 51 43 160 4
56 0 52 43 160 4
56 0 53 43 160 4
56 0 54 43 160 4
56 0 55 43 160 4
56 0 56 43 160 4
56 0 57 43 160 4
56 0 58 43 160 4
56 0 59 43 160 4
57 0 45 43 160 4
57 0 46 43 160 4
57 0 47 43 160 4
57 0 48 43 160 4
57 0 49 43 160 4
57 0 50 43 160 4
57 0 51 43 160 4
57 0 52 43 160 4
57 0 53 43 160 4
57 0 54 43 160 4
57 0 55 43 160 4
57 0 56 43 160 4
57 0 57 43 160 4
57 0 58 43 160 4
57 0 59 43 160 4
58 0 47 43 160 4
58 0 48 43 160 4
58 0 49 43 160 4
58 0 50 43 160 4
58 0 51 43 160 4
58 0 52 43 160 4
58 0 53 43 160 4
58 0 54 43 160 4
58 0 55 43 160 4
58 0 56 43 160 4
58 0 57 43 160 4
58 0 58 43 160 4
58 0 59 43 160 4
59 0 49 43 160 4
59 0 50 43 160 4
59 0 51 43 160 4
59 0 52 43 160 4
59 0 53 43 160 4
59 0 54 43 160 4
59 0 55 43 160 4
59 0 56 43 160 4
59 0 57 43 160 4
59 0 58 43 160 4
59 0 59 43 160 4
