ply
format ascii 1.0
element vertex 3128
property float x
property float y
property float z
property uchar red
property uchar green
property uchar blue
end_header
0 0 47 43 160 4
0 0 48 43 160 4
0 0 49 43 160 4
0 0 50 43 160 4
0 0 51 43 160 4
0 0 52 43 160 4
0 0 53 43 160 4
0 0 54 43 160 4
0 0 55 43 160 4
0 0 56 43 160 4
0 0 57 43 160 4
0 0 58 43 160 4
0 0 59 43 160 4
1 0 45 43 160 4
1 0 46 43 160 4
1 0 47 43 160 4
1 0 48 43 160 4
1 0 49 43 160 4
1 0 50 43 160 4
1 0 51 43 160 4
1 0 52 43 160 4
1 0 53 43 160 4
1 0 54 43 160 4
1 0 55 43 160 4
1 0 56 43 160 4
1 0 57 43 160 4
1 0 58 43 160 4
1 0 59 43 160 4
2 0 43 43 160 4
2 0 44 43 160 4
2 0 45 43 160 4
2 0 46 43 160 4
2 0 47 43 160 4
2 0 48 43 160 4
2 0 49 43 160 4
2 0 50 43 160 4
2 0 51 43 160 4
2 0 52 43 160 4
2 0 53 43 160 4
2 0 54 43 160 4
2 0 55 43 160 4
2 0 56 43 160 4
2 0 57 43 160 4
2 0 58 43 160 4
2 0 59 43 160 4
3 0 42 43 160 4
3 0 43 43 160 4
3 0 44 43 160 4
3 0 45 43 160 4
3 0 46 43 160 4
3 0 47 43 160 4
3 0 48 43 160 4
3 0 49 43 160 4
3 0 50 43 160 4
3 0 51 43 160 4
3 0 52 43 160 4
3 0 53 43 160 4
3 0 54 43 160 4
3 0 55 43 160 4
3 0 56 43 160 4
3 0 57 43 160 4
3 0 58 43 160 4
3 0 59 43 160 4
4 0 40 43 160 4
4 0 41 43 160 4
4 0 42 43 160 4
4 0 43 43 160 4
4 0 44 43 160 4
4 0 45 43 160 4
4 0 46 43 160 4
4 0 47 43 160 4
4 0 48 43 160 4
4 0 49 43 160 4
4 0 50 43 160 4
4 0 51 43 160 4
4 0 52 43 160 4
4 0 53 43 160 4
4 0 54 43 160 4
4 0 55 43 160 4
4 0 56 43 160 4
4 0 57 43 160 4
4 0 58 43 160 4
4 0 59 43 160 4
5 0 39 43 160 4
5 0 40 43 160 4
5 0 41 43 160 4
5 0 42 43 160 4
5 0 43 43 160 4
5 0 44 43 160 4
5 0 45 43 160 4
5 0 46 43 160 4
5 0 47 43 160 4
5 0 48 43 160 4
5 0 49 43 160 4
5 0 50 43 160 4
5 0 51 43 160 4
5 0 52 43 160 4
5 0 53 43 160 4
5 0 54 43 160 4
5 0 55 43 160 4
5 0 56 43 160 4
5 0 57 43 160 4
5 0 58 43 160 4
5 0 59 43 160 4
6 0 37 43 160 4
6 0 38 43 160 4
6 0 39 43 160 4
6 0 40 43 160 4
6 0 41 43 160 4
6 0 42 43 160 4
6 0 43 43 160 4
6 0 44 43 160 4
6 0 45 43 160 4
6 0 46 43 160 4
6 0 47 43 160 4
6 0 48 43 160 4
6 0 49 43 160 4
6 0 50 43 160 4
6 0 51 43 160 4
6 0 52 43 160 4
6 0 53 43 160 4
6 0 54 43 160 4
6 0 55 43 160 4
6 0 56 43 160 4
6 0 57 43 160 4
6 0 58 43 160 4
6 0 59 43 160 4
7 0 36 43 160 4
7 0 37 43 160 4
7 0 38 43 160 4
7 0 39 43 160 4
7 0 40 43 160 4
7 0 41 43 160 4
7 0 42 43 160 4
7 0 43 43 160 4
7 0 44 43 160 4
7 0 45 43 160 4
7 0 46 43 160 4
7 0 47 43 160 4
7 0 48 43 160 4
7 0 49 43 160 4
7 0 50 43 160 4
7 0 51 43 160 4
7 0 52 43 160 4
7 0 53 43 160 4
7 0 54 43 160 4
7 0 55 43 160 4
7 0 56 43 160 4
7 0 57 43 160 4
7 0 58 43 160 4
7 0 59 43 160 4
8 0 34 43 160 4
8 0 35 43 160 4
8 0 36 43 160 4
8 0 37 43 160 4
8 0 38 43 160 4
8 0 39 43 160 4
8 0 40 43 160 4
8 0 41 43 160 4
8 0 42 43 160 4
8 0 43 43 160 4
8 0 44 43 160 4
8 0 45 43 160 4
8 0 46 43 160 4
8 0 47 43 160 4
8 0 48 43 160 4
8 0 49 43 160 4
8 0 50 43 160 4
8 0 51 43 160 4
8 0 52 43 160 4
8 0 53 43 160 4
8 0 54 43 160 4
8 0 55 43 160 4
8 0 56 43 160 4
8 0 57 43 160 4
8 0 58 43 160 4
8 0 59 43 160 4
9 0 32 43 160 4
9 0 33 43 160 4
9 0 34 43 160 4
9 0 35 43 160 4
9 0 36 43 160 4
9 0 37 43 160 4
9 0 38 43 160 4
9 0 39 43 160 4
9 0 40 43 160 4
9 0 41 43 160 4
9 0 42 43 160 4
9 0 43 43 160 4
9 0 44 43 160 4
9 0 45 43 160 4
9 0 46 43 160 4
9 0 47 43 160 4
9 0 48 43 160 4
9 0 49 43 160 4
9 0 50 43 160 4
9 0 51 43 160 4
9 0 52 43 160 4
9 0 53 43 160 4
9 0 54 43 160 4
9 0 55 43 160 4
9 0 56 43 160 4
9 0 57 43 160 4
9 0 58 43 160 4
9 0 59 43 160 4
10 0 31 43 160 4
10 0 32 43 160 4
10 0 33 43 160 4
10 0 34 43 160 4
10 0 35 43 160 4
10 0 36 43 160 4
10 0 37 43 160 4
10 0 38 43 160 4
10 0 39 43 160 4
10 0 40 43 160 4
10 0 41 43 160 4
10 0 42 43 160 4
10 0 43 43 160 4
10 0 44 43 160 4
10 0 45 43 160 4
10 0 46 43 160 4
10 0 47 43 160 4
10 0 48 43 160 4
10 0 49 43 160 4
10 0 50 43 160 4
10 0 51 43 160 4
10 0 52 43 160 4
10 0 53 43 160 4
10 0 54 43 160 4
10 0 55 43 160 4
10 0 56 43 160 4
10 0 57 43 160 4
10 0 58 43 160 4
10 0 59 43 160 4
11 0 29 43 160 4
11 0 30 43 160 4
11 0 31 43 160 4
11 0 32 43 160 4
11 0 33 43 160 4
11 0 34 43 160 4
11 0 35 43 160 4
11 0 36 43 160 4
11 0 37 43 160 4
11 0 38 43 160 4
11 0 39 43 160 4
11 0 40 43 160 4
11 0 41 43 160 4
11 0 42 43 160 4
11 0 43 43 160 4
11 0 44 43 160 4
11 0 45 43 160 4
11 0 46 43 160 4
11 0 47 43 160 4
11 0 48 43 160 4
11 0 49 43 160 4
11 0 50 43 160 4
11 0 51 43 160 4
11 0 52 43 160 4
11 0 53 43 160 4
11 0 54 43 160 4
11 0 55 43 160 4
11 0 56 43 160 4
11 0 57 43 160 4
11 0 58 43 160 4
11 0 59 43 160 4
12 0 28 43 160 4
12 0 29 43 160 4
12 0 30 43 160 4
12 0 31 43 160 4
12 0 32 43 160 4
12 0 33 43 160 4
12 0 34 43 160 4
12 0 35 43 160 4
12 0 36 43 160 4
12 0 37 43 160 4
12 0 38 43 160 4
12 0 39 43 160 4
12 0 40 43 160 4
12 0 41 43 160 4
12 0 42 43 160 4
12 0 43 43 160 4
12 0 44 43 160 4
12 0 45 43 160 4
12 0 46 43 160 4
12 0 47 43 160 4
12 0 48 43 160 4
12 0 49 43 160 4
12 0 50 43 160 4
12 0 51 43 160 4
12 0 52 43 160 4
12 0 53 43 160 4
12 0 54 43 160 4
12 0 55 43 160 4
12 0 56 43 160 4
12 0 57 43 160 4
12 0 58 43 160 4
12 0 59 43 160 4
12 10 28 158 216 229
12 10 29 158 216 229
12 11 28 158 216 229
13 0 26 43 160 4
13 0 27 43 160 4
13 0 28 43 160 4
13 0 29 43 160 4
13 0 30 43 160 4
13 0 31 43 160 4
13 0 32 43 160 4
13 0 33 43 160 4
13 0 34 43 160 4
13 0 35 43 160 4
13 0 36 43 160 4
13 0 37 43 160 4
13 0 38 43 160 4
13 0 39 43 160 4
13 0 40 43 160 4
13 0 41 43 160 4
13 0 42 43 160 4
13 0 43 43 160 4
13 0 44 43 160 4
13 0 45 43 160 4
13 0 46 43 160 4
13 0 47 43 160 4
13 0 48 43 160 4
13 0 49 43 160 4
13 0 50 43 160 4
13 0 51 43 160 4
13 0 52 43 160 4
13 0 53 43 160 4
13 0 54 43 160 4
13 0 55 43 160 4
13 0 56 43 160 4
13 0 57 43 160 4
13 0 58 43 160 4
13 0 59 43 160 4
13 8 27 158 216 229
13 9 27 158 216 229
13 9 30 158 216 229
13 10 27 158 216 229
13 10 28 158 216 229
13 11 27 158 216 229
13 11 28 158 216 229
13 11 29 158 216 229
13 12 28 158 216 229
13 12 29 158 216 229
13 13 31 158 216 229
13 13 33 158 216 229
14 0 25 43 160 4
14 0 26 43 160 4
14 0 27 43 160 4
14 0 28 43 160 4
14 0 29 43 160 4
14 0 30 43 160 4
14 0 31 43 160 4
14 0 32 43 160 4
14 0 33 43 160 4
14 0 34 43 160 4
14 0 35 43 160 4
14 0 36 43 160 4
14 0 37 43 160 4
14 0 38 43 160 4
14 0 39 43 160 4
14 0 40 43 160 4
14 0 41 43 160 4
14 0 42 43 160 4
14 0 43 43 160 4
14 0 44 43 160 4
14 0 45 43 160 4
14 0 46 43 160 4
14 0 47 43 160 4
14 0 48 43 160 4
14 0 49 43 160 4
14 0 50 43 160 4
14 0 51 43 160 4
14 0 52 43 160 4
14 0 53 43 160 4
14 0 54 43 160 4
14 0 55 43 160 4
14 0 56 43 160 4
14 0 57 43 160 4
14 0 58 43 160 4
14 0 59 43 160 4
14 3 30 158 216 229
14 4 28 158 216 229
14 4 30 158 216 229
14 9 27 158 216 229
14 9 28 158 216 229
14 10 27 158 216 229
14 10 28 158 216 229
14 10 29 158 216 229
14 10 30 158 216 229
14 10 31 158 216 229
14 11 28 158 216 229
14 11 29 158 216 229
14 11 30 158 216 229
14 11 31 158 216 229
14 11 32 158 216 229
14 11 33 158 216 229
14 12 27 158 216 229
14 12 28 158 216 229
14 12 29 158 216 229
14 12 30 158 216 229
14 12 31 158 216 229
14 12 32 158 216 229
14 13 31 158 216 229
14 13 32 158 216 229
15 0 23 43 160 4
15 0 24 43 160 4
15 0 25 43 160 4
15 0 26 43 160 4
15 0 27 43 160 4
15 0 28 43 160 4
15 0 29 43 160 4
15 0 30 43 160 4
15 0 31 43 160 4
15 0 32 43 160 4
15 0 33 43 160 4
15 0 34 43 160 4
15 0 35 43 160 4
15 0 36 43 160 4
15 0 37 43 160 4
15 0 38 43 160 4
15 0 39 43 160 4
15 0 40 43 160 4
15 0 41 43 160 4
15 0 42 43 160 4
15 0 43 43 160 4
15 0 44 43 160 4
15 0 45 43 160 4
15 0 46 43 160 4
15 0 47 43 160 4
15 0 48 43 160 4
15 0 49 43 160 4
15 0 50 43 160 4
15 0 51 43 160 4
15 0 52 43 160 4
15 0 53 43 160 4
15 0 54 43 160 4
15 0 55 43 160 4
15 0 56 43 160 4
15 0 57 43 160 4
15 0 58 43 160 4
15 0 59 43 160 4
15 3 31 158 216 229
15 4 28 158 216 229
15 8 30 158 216 229
15 8 31 158 216 229
15 9 27 158 216 229
15 9 28 158 216 229
15 9 29 158 216 229
15 9 30 158 216 229
15 9 31 158 216 229
15 10 28 158 216 229
15 10 29 158 216 229
15 10 30 158 216 229
15 10 31 158 216 229
15 10 32 158 216 229
15 10 33 158 216 229
15 11 29 158 216 229
15 11 30 158 216 229
15 11 31 158 216 229
15 11 32 158 216 229
15 11 33 158 216 229
15 12 29 158 216 229
15 12 30 158 216 229
15 12 31 158 216 229
15 12 32 158 216 229
15 12 33 158 216 229
15 12 34 158 216 229
15 13 31 158 216 229
15 13 32 158 216 229
15 13 33 158 216 229
15 13 34 158 216 229
15 14 34 158 216 229
16 0 22 43 160 4
16 0 23 43 160 4
16 0 24 43 160 4
16 0 25 43 160 4
16 0 26 43 160 4
16 0 27 43 160 4
16 0 28 43 160 4
16 0 29 43 160 4
16 0 30 43 160 4
16 0 31 43 160 4
16 0 32 43 160 4
16 0 33 43 160 4
16 0 34 43 160 4
16 0 35 43 160 4
16 0 36 43 160 4
16 0 37 43 160 4
16 0 38 43 160 4
16 0 39 43 160 4
16 0 40 43 160 4
16 0 41 43 160 4
16 0 42 43 160 4
16 0 43 43 160 4
16 0 44 43 160 4
16 0 45 43 160 4
16 0 46 43 160 4
16 0 47 43 160 4
16 0 48 43 160 4
16 0 49 43 160 4
16 0 50 43 160 4
16 0 51 43 160 4
16 0 52 43 160 4
16 0 53 43 160 4
16 0 54 43 160 4
16 0 55 43 160 4
16 0 56 43 160 4
16 0 57 43 160 4
16 0 58 43 160 4
16 0 59 43 160 4
16 9 22 255 127 12
16 9 26 158 216 229
16 9 27 158 216 229
16 9 28 158 216 229
16 10 31 158 216 229
16 10 32 158 216 229
16 11 32 158 216 229
16 11 33 158 216 229
16 12 32 158 216 229
16 12 33 158 216 229
16 12 34 158 216 229
16 13 33 158 216 229
16 13 34 158 216 229
16 14 34 158 216 229
17 0 21 43 160 4
17 0 22 43 160 4
17 0 23 43 160 4
17 0 24 43 160 4
17 0 25 43 160 4
17 0 26 43 160 4
17 0 27 43 160 4
17 0 28 43 160 4
17 0 29 43 160 4
17 0 30 43 160 4
17 0 31 43 160 4
17 0 32 43 160 4
17 0 33 43 160 4
17 0 34 43 160 4
17 0 35 43 160 4
17 0 36 43 160 4
17 0 37 43 160 4
17 0 38 43 160 4
17 0 39 43 160 4
17 0 40 43 160 4
17 0 41 43 160 4
17 0 42 43 160 4
17 0 43 43 160 4
17 0 44 43 160 4
17 0 45 43 160 4
17 0 46 43 160 4
17 0 47 43 160 4
17 0 48 43 160 4
17 0 49 43 160 4
17 0 50 43 160 4
17 0 51 43 160 4
17 0 52 43 160 4
17 0 53 43 160 4
17 0 54 43 160 4
17 0 55 43 160 4
17 0 56 43 160 4
17 0 57 43 160 4
17 0 58 43 160 4
17 0 59 43 160 4
17 9 23 255 127 12
17 9 25 158 216 229
17 9 26 158 216 229
17 9 31 158 216 229
17 10 30 158 216 229
17 10 31 158 216 229
17 10 32 158 216 229
17 11 31 158 216 229
17 11 32 158 216 229
17 11 33 158 216 229
17 12 32 158 216 229
17 12 33 158 216 229
17 12 34 158 216 229
17 13 33 158 216 229
17 13 34 158 216 229
17 14 34 158 216 229
18 0 18 43 160 4
18 0 19 43 160 4
18 0 20 43 160 4
18 0 22 43 160 4
18 0 23 43 160 4
18 0 24 43 160 4
18 0 25 43 160 4
18 0 26 43 160 4
18 0 27 43 160 4
18 0 28 43 160 4
18 0 29 43 160 4
18 0 30 43 160 4
18 0 31 43 160 4
18 0 32 43 160 4
18 0 33 43 160 4
18 0 34 43 160 4
18 0 35 43 160 4
18 0 36 43 160 4
18 0 37 43 160 4
18 0 38 43 160 4
18 0 39 43 160 4
18 0 40 43 160 4
18 0 41 43 160 4
18 0 42 43 160 4
18 0 43 43 160 4
18 0 44 43 160 4
18 0 45 43 160 4
18 0 46 43 160 4
18 0 47 43 160 4
18 0 48 43 160 4
18 0 49 43 160 4
18 0 50 43 160 4
18 0 51 43 160 4
18 0 52 43 160 4
18 0 53 43 160 4
18 0 54 43 160 4
18 0 55 43 160 4
18 0 56 43 160 4
18 0 57 43 160 4
18 0 58 43 160 4
18 0 59 43 160 4
18 1 18 196 175 214
18 1 19 196 175 214
18 1 20 158 216 229
18 9 25 158 216 229
18 9 26 158 216 229
18 9 30 158 216 229
18 9 31 158 216 229
18 10 30 158 216 229
18 10 31 158 216 229
18 10 32 158 216 229
18 11 31 158 216 229
18 11 32 158 216 229
18 11 34 158 216 229
18 12 31 158 216 229
18 12 32 158 216 229
18 12 33 158 216 229
18 13 32 158 216 229
18 13 33 158 216 229
18 13 34 158 216 229
18 14 34 158 216 229
19 0 16 43 160 4
19 0 17 43 160 4
19 0 18 43 160 4
19 0 19 43 160 4
19 0 20 43 160 4
19 0 22 43 160 4
19 0 23 43 160 4
19 0 24 43 160 4
19 0 25 43 160 4
19 0 26 43 160 4
19 0 27 43 160 4
19 0 28 43 160 4
19 0 29 43 160 4
19 0 30 43 160 4
19 0 31 43 160 4
19 0 32 43 160 4
19 0 33 43 160 4
19 0 34 43 160 4
19 0 35 43 160 4
19 0 36 43 160 4
19 0 37 43 160 4
19 0 38 43 160 4
19 0 39 43 160 4
19 0 40 43 160 4
19 0 41 43 160 4
19 0 42 43 160 4
19 0 43 43 160 4
19 0 44 43 160 4
19 0 45 43 160 4
19 0 46 43 160 4
19 0 47 43 160 4
19 0 48 43 160 4
19 0 49 43 160 4
19 0 50 43 160 4
19 0 51 43 160 4
19 0 52 43 160 4
19 0 53 43 160 4
19 0 54 43 160 4
19 0 55 43 160 4
19 0 56 43 160 4
19 0 57 43 160 4
19 0 58 43 160 4
19 0 59 43 160 4
19 1 17 147 102 188
19 1 18 147 102 188
19 1 19 196 175 214
19 1 20 196 175 214
19 7 17 158 216 229
19 8 17 255 127 12
19 8 31 158 216 229
19 9 17 158 216 229
19 9 25 158 216 229
19 9 31 158 216 229
19 9 32 158 216 229
19 10 30 158 216 229
19 10 31 158 216 229
19 10 32 158 216 229
19 11 31 158 216 229
19 11 32 158 216 229
19 12 31 158 216 229
19 12 32 158 216 229
19 12 34 158 216 229
19 13 32 158 216 229
19 13 33 158 216 229
19 14 33 158 216 229
20 0 15 43 160 4
20 0 16 43 160 4
20 0 17 43 160 4
20 0 18 43 160 4
20 0 19 43 160 4
20 0 25 43 160 4
20 0 26 43 160 4
20 0 27 43 160 4
20 0 28 43 160 4
20 0 29 43 160 4
20 0 30 43 160 4
20 0 31 43 160 4
20 0 32 43 160 4
20 0 33 43 160 4
20 0 34 43 160 4
20 0 35 43 160 4
20 0 36 43 160 4
20 0 37 43 160 4
20 0 38 43 160 4
20 0 39 43 160 4
20 0 40 43 160 4
20 0 41 43 160 4
20 0 42 43 160 4
20 0 43 43 160 4
20 0 44 43 160 4
20 0 45 43 160 4
20 0 46 43 160 4
20 0 47 43 160 4
20 0 48 43 160 4
20 0 49 43 160 4
20 0 50 43 160 4
20 0 51 43 160 4
20 0 52 43 160 4
20 0 53 43 160 4
20 0 54 43 160 4
20 0 55 43 160 4
20 0 56 43 160 4
20 0 57 43 160 4
20 0 58 43 160 4
20 0 59 43 160 4
20 1 15 147 102 188
20 1 16 147 102 188
20 1 17 147 102 188
20 1 18 147 102 188
20 1 19 147 102 188
20 1 20 147 102 188
20 2 15 147 102 188
20 3 15 147 102 188
20 7 15 147 102 188
20 8 16 196 175 214
20 8 17 255 127 12
20 8 18 255 127 12
20 8 31 158 216 229
20 9 24 158 216 229
20 9 25 147 102 188
20 9 30 158 216 229
20 9 31 158 216 229
20 10 30 196 175 214
20 10 31 158 216 229
20 10 32 158 216 229
20 11 30 158 216 229
20 11 31 158 216 229
20 11 32 158 216 229
20 12 31 158 216 229
20 12 32 158 216 229
20 13 32 158 216 229
20 13 33 158 216 229
20 14 33 158 216 229
21 0 13 43 160 4
21 0 14 43 160 4
21 0 15 43 160 4
21 0 16 43 160 4
21 0 17 43 160 4
21 0 18 43 160 4
21 0 19 43 160 4
21 0 24 43 160 4
21 0 25 43 160 4
21 0 26 43 160 4
21 0 27 43 160 4
21 0 28 43 160 4
21 0 29 43 160 4
21 0 30 43 160 4
21 0 31 43 160 4
21 0 32 43 160 4
21 0 33 43 160 4
21 0 34 43 160 4
21 0 35 43 160 4
21 0 36 43 160 4
21 0 37 43 160 4
21 0 38 43 160 4
21 0 39 43 160 4
21 0 40 43 160 4
21 0 41 43 160 4
21 0 42 43 160 4
21 0 43 43 160 4
21 0 44 43 160 4
21 0 45 43 160 4
21 0 46 43 160 4
21 0 47 43 160 4
21 0 48 43 160 4
21 0 49 43 160 4
21 0 50 43 160 4
21 0 51 43 160 4
21 0 52 43 160 4
21 0 53 43 160 4
21 0 54 43 160 4
21 0 55 43 160 4
21 0 56 43 160 4
21 0 57 43 160 4
21 0 58 43 160 4
21 0 59 43 160 4
21 1 13 147 102 188
21 1 14 147 102 188
21 1 15 147 102 188
21 1 16 147 102 188
21 1 17 147 102 188
21 1 18 147 102 188
21 1 19 147 102 188
21 1 20 147 102 188
21 2 14 147 102 188
21 2 15 147 102 188
21 2 16 147 102 188
21 3 14 147 102 188
21 3 16 147 102 188
21 4 15 147 102 188
21 7 14 147 102 188
21 7 15 147 102 188
21 8 14 196 175 214
21 8 15 196 175 214
21 8 16 255 127 12
21 8 17 255 127 12
21 8 18 255 127 12
21 8 29 147 102 188
21 9 25 158 216 229
21 9 27 147 102 188
21 9 28 147 102 188
21 9 29 158 216 229
21 9 30 158 216 229
21 9 31 158 216 229
21 10 30 158 216 229
21 10 31 158 216 229
21 11 30 158 216 229
21 11 31 158 216 229
21 11 32 158 216 229
21 12 31 158 216 229
21 12 32 158 216 229
21 13 31 158 216 229
21 13 32 158 216 229
21 13 33 158 216 229
21 14 33 158 216 229
22 0 12 43 160 4
22 0 13 43 160 4
22 0 14 43 160 4
22 0 15 43 160 4
22 0 16 43 160 4
22 0 17 43 160 4
22 0 18 43 160 4
22 0 19 43 160 4
22 0 21 43 160 4
22 0 22 43 160 4
22 0 23 43 160 4
22 0 24 43 160 4
22 0 25 43 160 4
22 0 26 43 160 4
22 0 27 43 160 4
22 0 28 43 160 4
22 0 29 43 160 4
22 0 30 43 160 4
22 0 31 43 160 4
22 0 32 43 160 4
22 0 33 43 160 4
22 0 34 43 160 4
22 0 35 43 160 4
22 0 36 43 160 4
22 0 37 43 160 4
22 0 38 43 160 4
22 0 39 43 160 4
22 0 40 43 160 4
22 0 41 43 160 4
22 0 42 43 160 4
22 0 43 43 160 4
22 0 44 43 160 4
22 0 45 43 160 4
22 0 46 43 160 4
22 0 47 43 160 4
22 0 48 43 160 4
22 0 49 43 160 4
22 0 50 43 160 4
22 0 51 43 160 4
22 0 52 43 160 4
22 0 53 43 160 4
22 0 54 43 160 4
22 0 55 43 160 4
22 0 56 43 160 4
22 0 57 43 160 4
22 0 58 43 160 4
22 0 59 43 160 4
22 1 12 147 102 188
22 1 13 147 102 188
22 1 14 147 102 188
22 1 15 147 102 188
22 1 16 147 102 188
22 1 17 147 102 188
22 1 18 147 102 188
22 2 12 147 102 188
22 2 13 147 102 188
22 2 14 147 102 188
22 2 15 147 102 188
22 2 16 147 102 188
22 3 12 147 102 188
22 3 13 147 102 188
22 4 12 147 102 188
22 4 13 147 102 188
22 4 15 147 102 188
22 5 12 147 102 188
22 5 14 147 102 188
22 6 12 147 102 188
22 6 13 147 102 188
22 7 12 147 102 188
22 7 13 147 102 188
22 7 14 147 102 188
22 8 12 196 175 214
22 8 14 196 175 214
22 8 15 196 175 214
22 8 17 255 127 12
22 8 18 255 127 12
22 8 29 147 102 188
22 8 31 158 216 229
22 9 27 158 216 229
22 9 28 158 216 229
22 9 29 158 216 229
22 9 30 158 216 229
22 9 31 158 216 229
22 10 30 158 216 229
22 10 31 158 216 229
22 10 32 158 216 229
22 11 31 158 216 229
22 11 32 158 216 229
22 12 31 158 216 229
22 12 32 158 216 229
22 13 30 158 216 229
22 13 31 158 216 229
22 13 32 158 216 229
22 14 33 158 216 229
23 0 10 43 160 4
23 0 11 43 160 4
23 0 12 43 160 4
23 0 13 43 160 4
23 0 14 43 160 4
23 0 15 43 160 4
23 0 16 43 160 4
23 0 17 43 160 4
23 0 18 43 160 4
23 0 19 43 160 4
23 0 21 43 160 4
23 0 22 43 160 4
23 0 23 43 160 4
23 0 24 43 160 4
23 0 25 43 160 4
23 0 26 43 160 4
23 0 27 43 160 4
23 0 28 43 160 4
23 0 29 43 160 4
23 0 30 43 160 4
23 0 31 43 160 4
23 0 32 43 160 4
23 0 33 43 160 4
23 0 34 43 160 4
23 0 35 43 160 4
23 0 36 43 160 4
23 0 37 43 160 4
23 0 38 43 160 4
23 0 39 43 160 4
23 0 40 43 160 4
23 0 41 43 160 4
23 0 42 43 160 4
23 0 43 43 160 4
23 0 44 43 160 4
23 0 45 43 160 4
23 0 46 43 160 4
23 0 47 43 160 4
23 0 48 43 160 4
23 0 49 43 160 4
23 0 50 43 160 4
23 0 51 43 160 4
23 0 52 43 160 4
23 0 53 43 160 4
23 0 54 43 160 4
23 0 55 43 160 4
23 0 56 43 160 4
23 0 57 43 160 4
23 0 58 43 160 4
23 0 59 43 160 4
23 1 10 147 102 188
23 1 11 147 102 188
23 1 12 147 102 188
23 1 13 147 102 188
23 1 14 147 102 188
23 1 15 147 102 188
23 1 16 147 102 188
23 1 17 147 102 188
23 1 18 147 102 188
23 1 19 147 102 188
23 2 12 147 102 188
23 2 14 147 102 188
23 2 15 147 102 188
23 3 11 147 102 188
23 3 12 147 102 188
23 3 13 147 102 188
23 3 15 147 102 188
23 3 16 147 102 188
23 4 11 147 102 188
23 4 12 147 102 188
23 4 14 147 102 188
23 4 15 147 102 188
23 5 11 147 102 188
23 5 12 147 102 188
23 5 14 147 102 188
23 6 12 147 102 188
23 6 13 147 102 188
23 7 12 147 102 188
23 7 13 147 102 188
23 7 14 147 102 188
23 8 14 196 175 214
23 8 15 196 175 214
23 8 16 196 175 214
23 8 17 255 127 12
23 8 18 255 127 12
23 8 29 147 102 188
23 8 31 158 216 229
23 9 27 158 216 229
23 9 28 158 216 229
23 9 29 158 216 229
23 9 30 158 216 229
23 10 30 158 216 229
23 10 31 158 216 229
23 10 32 158 216 229
23 11 31 158 216 229
23 11 32 158 216 229
23 12 31 158 216 229
23 12 32 158 216 229
23 13 30 158 216 229
23 13 31 158 216 229
23 13 32 158 216 229
23 14 32 158 216 229
24 0 9 43 160 4
24 0 10 43 160 4
24 0 11 43 160 4
24 0 12 43 160 4
24 0 13 43 160 4
24 0 14 43 160 4
24 0 15 43 160 4
24 0 16 43 160 4
24 0 17 43 160 4
24 0 18 43 160 4
24 0 21 43 160 4
24 0 22 43 160 4
24 0 23 43 160 4
24 0 24 43 160 4
24 0 25 43 160 4
24 0 26 43 160 4
24 0 27 43 160 4
24 0 28 43 160 4
24 0 29 43 160 4
24 0 30 43 160 4
24 0 31 43 160 4
24 0 32 43 160 4
24 0 33 43 160 4
24 0 34 43 160 4
24 0 35 43 160 4
24 0 36 43 160 4
24 0 37 43 160 4
24 0 38 43 160 4
24 0 39 43 160 4
24 0 40 43 160 4
24 0 41 43 160 4
24 0 42 43 160 4
24 0 43 43 160 4
24 0 44 43 160 4
24 0 45 43 160 4
24 0 46 43 160 4
24 0 47 43 160 4
24 0 48 43 160 4
24 0 49 43 160 4
24 0 50 43 160 4
24 0 51 43 160 4
24 0 52 43 160 4
24 0 53 43 160 4
24 0 54 43 160 4
24 0 55 43 160 4
24 0 56 43 160 4
24 0 57 43 160 4
24 0 58 43 160 4
24 0 59 43 160 4
24 1 9 147 102 188
24 1 10 147 102 188
24 1 11 147 102 188
24 1 12 147 102 188
24 1 13 147 102 188
24 1 14 147 102 188
24 1 15 147 102 188
24 1 16 147 102 188
24 1 17 147 102 188
24 1 18 147 102 188
24 2 14 147 102 188
24 2 15 147 102 188
24 3 10 147 102 188
24 3 11 147 102 188
24 3 12 147 102 188
24 3 14 147 102 188
24 3 15 147 102 188
24 3 16 147 102 188
24 4 10 147 102 188
24 4 11 147 102 188
24 4 12 147 102 188
24 4 14 147 102 188
24 5 11 147 102 188
24 5 12 147 102 188
24 5 14 147 102 188
24 5 15 147 102 188
24 6 12 147 102 188
24 6 13 147 102 188
24 7 12 147 102 188
24 7 13 147 102 188
24 7 14 147 102 188
24 7 15 147 102 188
24 8 14 196 175 214
24 8 15 196 175 214
24 8 16 147 102 188
24 8 17 147 102 188
24 8 18 147 102 188
24 9 26 158 216 229
24 9 27 147 102 188
24 9 28 158 216 229
24 9 29 158 216 229
24 9 30 158 216 229
24 10 29 158 216 229
24 10 30 158 216 229
24 10 31 158 216 229
24 10 32 158 216 229
24 11 30 158 216 229
24 11 31 158 216 229
24 11 32 158 216 229
24 12 30 158 216 229
24 12 31 158 216 229
24 12 32 158 216 229
24 13 30 158 216 229
24 13 31 158 216 229
24 14 32 158 216 229
25 0 8 43 160 4
25 0 9 43 160 4
25 0 10 43 160 4
25 0 11 43 160 4
25 0 12 43 160 4
25 0 13 43 160 4
25 0 14 43 160 4
25 0 15 43 160 4
25 0 16 43 160 4
25 0 17 43 160 4
25 0 18 43 160 4
25 0 20 43 160 4
25 0 21 43 160 4
25 0 22 43 160 4
25 0 23 43 160 4
25 0 24 43 160 4
25 0 25 43 160 4
25 0 26 43 160 4
25 0 27 43 160 4
25 0 28 43 160 4
25 0 29 43 160 4
25 0 30 43 160 4
25 0 31 43 160 4
25 0 32 43 160 4
25 0 33 43 160 4
25 0 34 43 160 4
25 0 35 43 160 4
25 0 36 43 160 4
25 0 37 43 160 4
25 0 38 43 160 4
25 0 39 43 160 4
25 0 40 43 160 4
25 0 41 43 160 4
25 0 42 43 160 4
25 0 43 43 160 4
25 0 44 43 160 4
25 0 45 43 160 4
25 0 46 43 160 4
25 0 47 43 160 4
25 0 48 43 160 4
25 0 49 43 160 4
25 0 50 43 160 4
25 0 51 43 160 4
25 0 52 43 160 4
25 0 53 43 160 4
25 0 54 43 160 4
25 0 55 43 160 4
25 0 56 43 160 4
25 0 57 43 160 4
25 0 58 43 160 4
25 0 59 43 160 4
25 1 7 147 102 188
25 1 8 147 102 188
25 1 9 147 102 188
25 1 10 147 102 188
25 1 11 147 102 188
25 1 12 147 102 188
25 1 13 147 102 188
25 1 14 147 102 188
25 1 15 147 102 188
25 1 16 147 102 188
25 1 17 147 102 188
25 1 18 147 102 188
25 2 13 147 102 188
25 2 14 147 102 188
25 3 10 147 102 188
25 3 11 147 102 188
25 3 12 147 102 188
25 3 14 147 102 188
25 3 15 147 102 188
25 3 16 147 102 188
25 4 10 147 102 188
25 4 11 147 102 188
25 4 13 147 102 188
25 4 14 147 102 188
25 4 15 147 102 188
25 5 10 147 102 188
25 5 11 147 102 188
25 5 12 147 102 188
25 5 14 147 102 188
25 5 15 147 102 188
25 5 16 147 102 188
25 6 11 147 102 188
25 6 12 147 102 188
25 7 12 147 102 188
25 7 13 147 102 188
25 7 14 147 102 188
25 8 18 147 102 188
25 9 25 158 216 229
25 9 26 158 216 229
25 9 27 147 102 188
25 9 28 158 216 229
25 9 29 158 216 229
25 9 30 158 216 229
25 10 29 158 216 229
25 10 30 158 216 229
25 10 31 158 216 229
25 11 30 158 216 229
25 11 31 158 216 229
25 12 30 158 216 229
25 12 31 158 216 229
25 13 30 158 216 229
25 13 31 158 216 229
26 0 8 43 160 4
26 0 9 43 160 4
26 0 10 43 160 4
26 0 11 43 160 4
26 0 12 43 160 4
26 0 13 43 160 4
26 0 14 43 160 4
26 0 15 43 160 4
26 0 16 43 160 4
26 0 17 43 160 4
26 0 18 43 160 4
26 0 20 43 160 4
26 0 21 43 160 4
26 0 22 43 160 4
26 0 23 43 160 4
26 0 24 43 160 4
26 0 25 43 160 4
26 0 26 43 160 4
26 0 27 43 160 4
26 0 28 43 160 4
26 0 29 43 160 4
26 0 30 43 160 4
26 0 31 43 160 4
26 0 32 43 160 4
26 0 33 43 160 4
26 0 34 43 160 4
26 0 35 43 160 4
26 0 36 43 160 4
26 0 37 43 160 4
26 0 38 43 160 4
26 0 39 43 160 4
26 0 40 43 160 4
26 0 41 43 160 4
26 0 42 43 160 4
26 0 43 43 160 4
26 0 44 43 160 4
26 0 45 43 160 4
26 0 46 43 160 4
26 0 47 43 160 4
26 0 48 43 160 4
26 0 49 43 160 4
26 0 50 43 160 4
26 0 51 43 160 4
26 0 52 43 160 4
26 0 53 43 160 4
26 0 54 43 160 4
26 0 55 43 160 4
26 0 56 43 160 4
26 0 57 43 160 4
26 0 58 43 160 4
26 0 59 43 160 4
26 1 8 147 102 188
26 1 9 147 102 188
26 1 10 147 102 188
26 1 11 147 102 188
26 1 12 147 102 188
26 1 13 147 102 188
26 1 14 147 102 188
26 1 15 147 102 188
26 1 16 147 102 188
26 1 17 147 102 188
26 2 11 147 102 188
26 2 12 147 102 188
26 2 13 147 102 188
26 3 10 147 102 188
26 3 11 147 102 188
26 3 12 147 102 188
26 3 14 147 102 188
26 3 15 147 102 188
26 4 9 147 102 188
26 4 10 147 102 188
26 4 11 147 102 188
26 4 13 147 102 188
26 4 14 147 102 188
26 4 15 147 102 188
26 5 10 147 102 188
26 5 11 147 102 188
26 5 13 147 102 188
26 5 14 147 102 188
26 5 15 147 102 188
26 6 11 147 102 188
26 6 12 147 102 188
26 6 14 147 102 188
26 6 15 147 102 188
26 7 11 147 102 188
26 7 12 147 102 188
26 7 13 147 102 188
26 8 18 147 102 188
26 9 25 158 216 229
26 9 26 158 216 229
26 9 27 158 216 229
26 9 28 158 216 229
26 9 29 158 216 229
26 9 30 158 216 229
26 10 29 158 216 229
26 10 30 158 216 229
26 10 31 158 216 229
26 11 29 158 216 229
26 11 30 158 216 229
26 12 29 158 216 229
26 12 30 158 216 229
26 12 31 158 216 229
26 13 29 158 216 229
26 13 30 158 216 229
26 13 31 158 216 229
27 0 8 43 160 4
27 0 9 43 160 4
27 0 10 43 160 4
27 0 11 43 160 4
27 0 12 43 160 4
27 0 13 43 160 4
27 0 14 43 160 4
27 0 15 43 160 4
27 0 16 43 160 4
27 0 17 43 160 4
27 0 19 43 160 4
27 0 20 43 160 4
27 0 21 43 160 4
27 0 22 43 160 4
27 0 23 43 160 4
27 0 24 43 160 4
27 0 25 43 160 4
27 0 26 43 160 4
27 0 27 43 160 4
27 0 28 43 160 4
27 0 29 43 160 4
27 0 30 43 160 4
27 0 31 43 160 4
27 0 32 43 160 4
27 0 33 43 160 4
27 0 34 43 160 4
27 0 35 43 160 4
27 0 36 43 160 4
27 0 37 43 160 4
27 0 38 43 160 4
27 0 39 43 160 4
27 0 40 43 160 4
27 0 41 43 160 4
27 0 42 43 160 4
27 0 43 43 160 4
27 0 44 43 160 4
27 0 45 43 160 4
27 0 46 43 160 4
27 0 47 43 160 4
27 0 48 43 160 4
27 0 49 43 160 4
27 0 50 43 160 4
27 0 51 43 160 4
27 0 52 43 160 4
27 0 53 43 160 4
27 0 54 43 160 4
27 0 55 43 160 4
27 0 56 43 160 4
27 0 57 43 160 4
27 0 58 43 160 4
27 0 59 43 160 4
27 1 9 147 102 188
27 1 10 147 102 188
27 1 11 147 102 188
27 1 12 147 102 188
27 1 13 147 102 188
27 1 14 147 102 188
27 1 15 147 102 188
27 1 16 147 102 188
27 1 17 147 102 188
27 2 11 147 102 188
27 2 12 147 102 188
27 2 13 147 102 188
27 2 15 147 102 188
27 3 9 147 102 188
27 3 10 147 102 188
27 3 11 147 102 188
27 3 13 147 102 188
27 3 14 147 102 188
27 3 15 147 102 188
27 4 9 147 102 188
27 4 10 147 102 188
27 4 13 147 102 188
27 4 14 147 102 188
27 4 15 147 102 188
27 5 9 147 102 188
27 5 10 147 102 188
27 5 11 147 102 188
27 5 13 147 102 188
27 5 14 147 102 188
27 5 15 147 102 188
27 6 10 147 102 188
27 6 11 147 102 188
27 6 12 147 102 188
27 6 14 147 102 188
27 6 15 147 102 188
27 7 11 147 102 188
27 7 12 147 102 188
27 7 13 147 102 188
27 8 17 147 102 188
27 8 18 147 102 188
27 9 26 158 216 229
27 9 27 158 216 229
27 9 28 114 158 206
27 9 29 158 216 229
27 9 30 158 216 229
27 10 28 114 158 206
27 10 29 158 216 229
27 10 30 158 216 229
27 11 29 158 216 229
27 11 30 158 216 229
27 12 29 158 216 229
27 12 30 158 216 229
27 13 29 158 216 229
27 13 30 158 216 229
27 14 31 158 216 229
28 0 8 43 160 4
28 0 9 43 160 4
28 0 10 43 160 4
28 0 11 43 160 4
28 0 12 43 160 4
28 0 13 43 160 4
28 0 14 43 160 4
28 0 15 43 160 4
28 0 16 43 160 4
28 0 17 43 160 4
28 0 20 43 160 4
28 0 21 43 160 4
28 0 22 43 160 4
28 0 23 43 160 4
28 0 24 43 160 4
28 0 25 43 160 4
28 0 26 43 160 4
28 0 27 43 160 4
28 0 28 43 160 4
28 0 29 43 160 4
28 0 30 43 160 4
28 0 31 43 160 4
28 0 32 43 160 4
28 0 33 43 160 4
28 0 34 43 160 4
28 0 35 43 160 4
28 0 36 43 160 4
28 0 37 43 160 4
28 0 38 43 160 4
28 0 39 43 160 4
28 0 40 43 160 4
28 0 41 43 160 4
28 0 42 43 160 4
28 0 43 43 160 4
28 0 44 43 160 4
28 0 45 43 160 4
28 0 46 43 160 4
28 0 47 43 160 4
28 0 48 43 160 4
28 0 49 43 160 4
28 0 50 43 160 4
28 0 51 43 160 4
28 0 52 43 160 4
28 0 53 43 160 4
28 0 54 43 160 4
28 0 55 43 160 4
28 0 56 43 160 4
28 0 57 43 160 4
28 0 58 43 160 4
28 0 59 43 160 4
28 1 11 147 102 188
28 1 12 147 102 188
28 1 13 147 102 188
28 1 14 147 102 188
28 1 15 147 102 188
28 1 16 147 102 188
28 2 10 147 102 188
28 2 11 147 102 188
28 2 12 147 102 188
28 2 14 147 102 188
28 2 15 147 102 188
28 3 9 147 102 188
28 3 10 147 102 188
28 3 11 147 102 188
28 3 13 147 102 188
28 3 14 147 102 188
28 4 9 147 102 188
28 4 10 147 102 188
28 4 12 147 102 188
28 5 9 147 102 188
28 5 10 147 102 188
28 5 11 147 102 188
28 5 13 147 102 188
28 5 14 147 102 188
28 5 15 147 102 188
28 6 9 147 102 188
28 6 10 147 102 188
28 6 11 147 102 188
28 6 12 147 102 188
28 6 14 147 102 188
28 6 15 147 102 188
28 7 11 147 102 188
28 7 12 147 102 188
28 7 13 147 102 188
28 8 18 147 102 188
28 8 19 147 102 188
28 9 26 158 216 229
28 9 27 114 158 206
28 9 28 114 158 206
28 9 29 158 216 229
28 10 28 114 158 206
28 10 29 158 216 229
28 10 30 158 216 229
28 11 28 114 158 206
28 11 29 158 216 229
28 11 30 158 216 229
28 12 29 158 216 229
28 12 30 158 216 229
28 13 29 158 216 229
28 13 30 158 216 229
28 14 31 158 216 229
29 0 8 43 160 4
29 0 9 43 160 4
29 0 10 43 160 4
29 0 11 43 160 4
29 0 12 43 160 4
29 0 13 43 160 4
29 0 14 43 160 4
29 0 15 43 160 4
29 0 16 43 160 4
29 0 18 43 160 4
29 0 19 43 160 4
29 0 20 43 160 4
29 0 21 43 160 4
29 0 22 43 160 4
29 0 23 43 160 4
29 0 24 43 160 4
29 0 25 43 160 4
29 0 26 43 160 4
29 0 27 43 160 4
29 0 28 43 160 4
29 0 29 43 160 4
29 0 30 43 160 4
29 0 31 43 160 4
29 0 32 43 160 4
29 0 33 43 160 4
29 0 34 43 160 4
29 0 35 43 160 4
29 0 36 43 160 4
29 0 37 43 160 4
29 0 38 43 160 4
29 0 39 43 160 4
29 0 40 43 160 4
29 0 41 43 160 4
29 0 42 43 160 4
29 0 43 43 160 4
29 0 44 43 160 4
29 0 45 43 160 4
29 0 46 43 160 4
29 0 47 43 160 4
29 0 48 43 160 4
29 0 49 43 160 4
29 0 50 43 160 4
29 0 51 43 160 4
29 0 52 43 160 4
29 0 53 43 160 4
29 0 54 43 160 4
29 0 55 43 160 4
29 0 56 43 160 4
29 0 57 43 160 4
29 0 58 43 160 4
29 0 59 43 160 4
29 1 11 147 102 188
29 1 12 147 102 188
29 1 13 147 102 188
29 1 14 147 102 188
29 1 15 147 102 188
29 1 16 147 102 188
29 2 10 147 102 188
29 2 11 147 102 188
29 2 12 147 102 188
29 2 14 147 102 188
29 2 15 147 102 188
29 3 9 147 102 188
29 3 10 147 102 188
29 3 11 147 102 188
29 3 13 147 102 188
29 3 14 147 102 188
29 4 8 196 175 214
29 4 9 196 175 214
29 4 10 196 175 214
29 4 12 147 102 188
29 5 8 147 102 188
29 5 9 147 102 188
29 5 10 147 102 188
29 5 12 147 102 188
29 5 13 147 102 188
29 5 14 147 102 188
29 5 15 147 102 188
29 6 9 147 102 188
29 6 10 147 102 188
29 6 11 147 102 188
29 6 14 147 102 188
29 7 10 147 102 188
29 7 11 196 175 214
29 7 12 147 102 188
29 7 13 147 102 188
29 8 18 147 102 188
29 8 19 147 102 188
29 9 26 158 216 229
29 9 27 114 158 206
29 9 28 114 158 206
29 9 29 158 216 229
29 10 28 114 158 206
29 10 29 114 158 206
29 10 30 158 216 229
29 11 28 114 158 206
29 11 29 114 158 206
29 12 28 114 158 206
29 12 29 158 216 229
29 12 30 158 216 229
29 13 28 114 158 206
29 13 29 158 216 229
29 13 30 158 216 229
29 14 31 114 158 206
30 0 8 43 160 4
30 0 9 43 160 4
30 0 10 43 160 4
30 0 11 43 160 4
30 0 12 43 160 4
30 0 13 43 160 4
30 0 14 43 160 4
30 0 15 43 160 4
30 0 16 43 160 4
30 0 19 43 160 4
30 0 20 43 160 4
30 0 21 43 160 4
30 0 22 43 160 4
30 0 23 43 160 4
30 0 24 43 160 4
30 0 25 43 160 4
30 0 26 43 160 4
30 0 27 43 160 4
30 0 28 43 160 4
30 0 29 43 160 4
30 0 30 43 160 4
30 0 31 43 160 4
30 0 32 43 160 4
30 0 33 43 160 4
30 0 34 43 160 4
30 0 35 43 160 4
30 0 36 43 160 4
30 0 37 43 160 4
30 0 38 43 160 4
30 0 39 43 160 4
30 0 40 43 160 4
30 0 41 43 160 4
30 0 42 43 160 4
30 0 43 43 160 4
30 0 44 43 160 4
30 0 45 43 160 4
30 0 46 43 160 4
30 0 47 43 160 4
30 0 48 43 160 4
30 0 49 43 160 4
30 0 50 43 160 4
30 0 51 43 160 4
30 0 52 43 160 4
30 0 53 43 160 4
30 0 54 43 160 4
30 0 55 43 160 4
30 0 56 43 160 4
30 0 57 43 160 4
30 0 58 43 160 4
30 0 59 43 160 4
30 1 12 147 102 188
30 1 13 147 102 188
30 1 14 147 102 188
30 1 15 147 102 188
30 1 16 147 102 188
30 2 10 147 102 188
30 2 11 147 102 188
30 2 12 147 102 188
30 2 14 147 102 188
30 3 9 196 175 214
30 3 10 147 102 188
30 3 12 147 102 188
30 4 8 196 175 214
30 4 9 196 175 214
30 4 10 196 175 214
30 5 8 196 175 214
30 5 9 196 175 214
30 6 9 196 175 214
30 6 10 147 102 188
30 7 10 196 175 214
30 7 11 196 175 214
30 7 12 147 102 188
30 8 19 147 102 188
30 8 26 147 102 188
30 9 26 158 216 229
30 9 27 114 158 206
30 9 28 114 158 206
30 9 29 158 216 229
30 10 27 114 158 206
30 10 28 114 158 206
30 10 29 158 216 229
30 11 28 114 158 206
30 11 29 158 216 229
30 12 28 114 158 206
30 12 29 158 216 229
30 13 27 158 216 229
30 13 28 114 158 206
30 13 29 158 216 229
31 0 9 43 160 4
31 0 10 43 160 4
31 0 11 43 160 4
31 0 12 43 160 4
31 0 13 43 160 4
31 0 14 43 160 4
31 0 15 43 160 4
31 0 16 43 160 4
31 0 18 43 160 4
31 0 19 43 160 4
31 0 20 43 160 4
31 0 21 43 160 4
31 0 22 43 160 4
31 0 23 43 160 4
31 0 24 43 160 4
31 0 25 43 160 4
31 0 26 43 160 4
31 0 27 43 160 4
31 0 28 43 160 4
31 0 29 43 160 4
31 0 30 43 160 4
31 0 31 43 160 4
31 0 32 43 160 4
31 0 33 43 160 4
31 0 34 43 160 4
31 0 35 43 160 4
31 0 36 43 160 4
31 0 37 43 160 4
31 0 38 43 160 4
31 0 39 43 160 4
31 0 40 43 160 4
31 0 41 43 160 4
31 0 42 43 160 4
31 0 43 43 160 4
31 0 44 43 160 4
31 0 45 43 160 4
31 0 46 43 160 4
31 0 47 43 160 4
31 0 48 43 160 4
31 0 49 43 160 4
31 0 50 43 160 4
31 0 51 43 160 4
31 0 52 43 160 4
31 0 53 43 160 4
31 0 54 43 160 4
31 0 55 43 160 4
31 0 56 43 160 4
31 0 57 43 160 4
31 0 58 43 160 4
31 0 59 43 160 4
31 1 9 147 102 188
31 1 10 147 102 188
31 1 12 147 102 188
31 1 13 147 102 188
31 1 14 147 102 188
31 1 15 147 102 188
31 1 16 147 102 188
31 2 9 147 102 188
31 2 10 147 102 188
31 2 11 147 102 188
31 3 8 196 175 214
31 3 9 196 175 214
31 3 10 147 102 188
31 3 12 147 102 188
31 4 8 196 175 214
31 4 9 196 175 214
31 4 10 196 175 214
31 5 8 196 175 214
31 5 9 196 175 214
31 6 8 196 175 214
31 6 9 196 175 214
31 6 10 147 102 188
31 7 9 196 175 214
31 7 10 196 175 214
31 7 11 196 175 214
31 7 12 147 102 188
31 8 18 147 102 188
31 8 19 147 102 188
31 8 28 158 216 229
31 9 25 147 102 188
31 9 26 158 216 229
31 9 27 158 216 229
31 9 28 158 216 229
31 10 27 158 216 229
31 10 28 158 216 229
31 10 29 158 216 229
31 11 27 158 216 229
31 11 28 158 216 229
31 11 29 158 216 229
31 12 27 158 216 229
31 12 28 158 216 229
31 12 29 158 216 229
31 13 27 158 216 229
31 13 28 158 216 229
31 13 29 158 216 229
31 14 30 158 216 229
32 0 9 43 160 4
32 0 10 43 160 4
32 0 11 43 160 4
32 0 12 43 160 4
32 0 13 43 160 4
32 0 14 43 160 4
32 0 15 43 160 4
32 0 16 43 160 4
32 0 18 43 160 4
32 0 19 43 160 4
32 0 20 43 160 4
32 0 21 43 160 4
32 0 22 43 160 4
32 0 23 43 160 4
32 0 24 43 160 4
32 0 25 43 160 4
32 0 26 43 160 4
32 0 27 43 160 4
32 0 28 43 160 4
32 0 29 43 160 4
32 0 30 43 160 4
32 0 31 43 160 4
32 0 32 43 160 4
32 0 33 43 160 4
32 0 34 43 160 4
32 0 35 43 160 4
32 0 36 43 160 4
32 0 37 43 160 4
32 0 38 43 160 4
32 0 39 43 160 4
32 0 40 43 160 4
32 0 41 43 160 4
32 0 42 43 160 4
32 0 43 43 160 4
32 0 44 43 160 4
32 0 45 43 160 4
32 0 46 43 160 4
32 0 47 43 160 4
32 0 48 43 160 4
32 0 49 43 160 4
32 0 50 43 160 4
32 0 51 43 160 4
32 0 52 43 160 4
32 0 53 43 160 4
32 0 54 43 160 4
32 0 55 43 160 4
32 0 56 43 160 4
32 0 57 43 160 4
32 0 58 43 160 4
32 0 59 43 160 4
32 1 9 147 102 188
32 1 10 147 102 188
32 1 11 147 102 188
32 1 14 147 102 188
32 1 15 147 102 188
32 2 9 196 175 214
32 2 10 147 102 188
32 3 8 196 175 214
32 3 9 196 175 214
32 3 10 196 175 214
32 3 11 147 102 188
32 4 8 196 175 214
32 4 9 196 175 214
32 5 8 196 175 214
32 5 9 196 175 214
32 6 8 196 175 214
32 6 9 196 175 214
32 6 10 196 175 214
32 7 9 196 175 214
32 7 10 196 175 214
32 7 11 196 175 214
32 7 12 147 102 188
32 8 19 147 102 188
32 8 25 147 102 188
32 9 24 147 102 188
32 9 25 158 216 229
32 9 26 158 216 229
32 9 27 158 216 229
32 10 26 158 216 229
32 10 27 158 216 229
32 10 28 158 216 229
32 11 27 158 216 229
32 11 28 158 216 229
32 12 27 158 216 229
32 12 28 158 216 229
32 13 27 158 216 229
32 13 28 158 216 229
33 0 9 43 160 4
33 0 10 43 160 4
33 0 11 43 160 4
33 0 12 43 160 4
33 0 13 43 160 4
33 0 14 43 160 4
33 0 15 43 160 4
33 0 18 43 160 4
33 0 19 43 160 4
33 0 20 43 160 4
33 0 21 43 160 4
33 0 22 43 160 4
33 0 23 43 160 4
33 0 24 43 160 4
33 0 25 43 160 4
33 0 26 43 160 4
33 0 27 43 160 4
33 0 28 43 160 4
33 0 29 43 160 4
33 0 30 43 160 4
33 0 31 43 160 4
33 0 32 43 160 4
33 0 33 43 160 4
33 0 34 43 160 4
33 0 35 43 160 4
33 0 36 43 160 4
33 0 37 43 160 4
33 0 38 43 160 4
33 0 39 43 160 4
33 0 40 43 160 4
33 0 41 43 160 4
33 0 42 43 160 4
33 0 43 43 160 4
33 0 44 43 160 4
33 0 45 43 160 4
33 0 46 43 160 4
33 0 47 43 160 4
33 0 48 43 160 4
33 0 49 43 160 4
33 0 50 43 160 4
33 0 51 43 160 4
33 0 52 43 160 4
33 0 53 43 160 4
33 0 54 43 160 4
33 0 55 43 160 4
33 0 56 43 160 4
33 0 57 43 160 4
33 0 58 43 160 4
33 0 59 43 160 4
33 1 9 147 102 188
33 1 10 147 102 188
33 1 11 147 102 188
33 1 12 147 102 188
33 1 13 147 102 188
33 4 8 196 175 214
33 4 9 196 175 214
33 4 10 196 175 214
33 5 8 196 175 214
33 5 9 196 175 214
33 6 8 196 175 214
33 6 9 196 175 214
33 6 10 147 102 188
33 8 19 147 102 188
33 8 24 147 102 188
33 8 27 158 216 229
33 9 24 147 102 188
33 9 25 158 216 229
33 9 26 158 216 229
33 9 27 158 216 229
33 10 26 158 216 229
33 10 27 158 216 229
33 11 27 158 216 229
33 11 28 158 216 229
33 12 27 158 216 229
33 12 28 158 216 229
33 13 26 158 216 229
33 13 27 158 216 229
33 13 28 158 216 229
34 0 9 43 160 4
34 0 10 43 160 4
34 0 11 43 160 4
34 0 12 43 160 4
34 0 13 43 160 4
34 0 14 43 160 4
34 0 15 43 160 4
34 0 16 43 160 4
34 0 19 43 160 4
34 0 20 43 160 4
34 0 21 43 160 4
34 0 22 43 160 4
34 0 23 43 160 4
34 0 24 43 160 4
34 0 25 43 160 4
34 0 26 43 160 4
34 0 27 43 160 4
34 0 28 43 160 4
34 0 29 43 160 4
34 0 30 43 160 4
34 0 31 43 160 4
34 0 32 43 160 4
34 0 33 43 160 4
34 0 34 43 160 4
34 0 35 43 160 4
34 0 36 43 160 4
34 0 37 43 160 4
34 0 38 43 160 4
34 0 39 43 160 4
34 0 40 43 160 4
34 0 41 43 160 4
34 0 42 43 160 4
34 0 43 43 160 4
34 0 44 43 160 4
34 0 45 43 160 4
34 0 46 43 160 4
34 0 47 43 160 4
34 0 48 43 160 4
34 0 49 43 160 4
34 0 50 43 160 4
34 0 51 43 160 4
34 0 52 43 160 4
34 0 53 43 160 4
34 0 54 43 160 4
34 0 55 43 160 4
34 0 56 43 160 4
34 0 57 43 160 4
34 0 58 43 160 4
34 0 59 43 160 4
34 1 7 147 102 188
34 1 13 147 102 188
34 1 16 147 102 188
34 4 9 196 175 214
34 5 7 196 175 214
34 5 10 196 175 214
34 8 20 147 102 188
34 8 24 147 102 188
34 8 27 158 216 229
34 9 24 158 216 229
34 9 25 158 216 229
34 9 26 158 216 229
34 9 27 158 216 229
34 10 26 158 216 229
34 10 27 158 216 229
34 11 27 158 216 229
34 12 26 158 216 229
34 12 27 158 216 229
34 12 28 158 216 229
34 13 26 158 216 229
34 13 27 158 216 229
34 13 28 158 216 229
35 0 9 43 160 4
35 0 10 43 160 4
35 0 11 43 160 4
35 0 12 43 160 4
35 0 13 43 160 4
35 0 14 43 160 4
35 0 15 43 160 4
35 0 16 43 160 4
35 0 20 43 160 4
35 0 22 43 160 4
35 0 23 43 160 4
35 0 24 43 160 4
35 0 25 43 160 4
35 0 26 43 160 4
35 0 27 43 160 4
35 0 28 43 160 4
35 0 29 43 160 4
35 0 30 43 160 4
35 0 31 43 160 4
35 0 32 43 160 4
35 0 33 43 160 4
35 0 34 43 160 4
35 0 35 43 160 4
35 0 36 43 160 4
35 0 37 43 160 4
35 0 38 43 160 4
35 0 39 43 160 4
35 0 40 43 160 4
35 0 41 43 160 4
35 0 42 43 160 4
35 0 43 43 160 4
35 0 44 43 160 4
35 0 45 43 160 4
35 0 46 43 160 4
35 0 47 43 160 4
35 0 48 43 160 4
35 0 49 43 160 4
35 0 50 43 160 4
35 0 51 43 160 4
35 0 52 43 160 4
35 0 53 43 160 4
35 0 54 43 160 4
35 0 55 43 160 4
35 0 56 43 160 4
35 0 57 43 160 4
35 0 58 43 160 4
35 0 59 43 160 4
35 1 15 147 102 188
35 1 16 147 102 188
35 2 17 147 102 188
35 8 24 147 102 188
35 8 25 158 216 229
35 8 26 158 216 229
35 9 25 158 216 229
35 9 26 158 216 229
35 9 27 158 216 229
35 10 26 158 216 229
35 10 27 158 216 229
35 11 26 158 216 229
35 11 27 158 216 229
35 12 26 158 216 229
35 12 27 158 216 229
35 13 26 158 216 229
35 13 27 158 216 229
36 0 9 43 160 4
36 0 10 43 160 4
36 0 11 43 160 4
36 0 12 43 160 4
36 0 13 43 160 4
36 0 14 43 160 4
36 0 15 43 160 4
36 0 16 43 160 4
36 0 17 43 160 4
36 0 18 43 160 4
36 0 19 43 160 4
36 0 25 43 160 4
36 0 26 43 160 4
36 0 27 43 160 4
36 0 28 43 160 4
36 0 29 43 160 4
36 0 30 43 160 4
36 0 31 43 160 4
36 0 32 43 160 4
36 0 33 43 160 4
36 0 34 43 160 4
36 0 35 43 160 4
36 0 36 43 160 4
36 0 37 43 160 4
36 0 38 43 160 4
36 0 39 43 160 4
36 0 40 43 160 4
36 0 41 43 160 4
36 0 42 43 160 4
36 0 43 43 160 4
36 0 44 43 160 4
36 0 45 43 160 4
36 0 46 43 160 4
36 0 47 43 160 4
36 0 48 43 160 4
36 0 49 43 160 4
36 0 50 43 160 4
36 0 51 43 160 4
36 0 52 43 160 4
36 0 53 43 160 4
36 0 54 43 160 4
36 0 55 43 160 4
36 0 56 43 160 4
36 0 57 43 160 4
36 0 58 43 160 4
36 0 59 43 160 4
36 1 18 147 102 188
36 1 19 147 102 188
36 1 20 147 102 188
36 2 18 147 102 188
36 2 19 147 102 188
36 2 20 147 102 188
36 6 17 147 102 188
36 6 18 255 127 12
36 6 19 255 127 12
36 7 19 255 127 12
36 8 24 158 216 229
36 8 25 158 216 229
36 8 26 158 216 229
36 9 25 158 216 229
36 9 26 158 216 229
36 9 27 158 216 229
36 10 25 158 216 229
36 10 26 158 216 229
36 10 27 158 216 229
36 11 26 158 216 229
36 11 27 158 216 229
36 12 26 158 216 229
36 12 27 158 216 229
36 13 26 158 216 229
36 13 27 158 216 229
37 0 11 43 160 4
37 0 12 43 160 4
37 0 13 43 160 4
37 0 14 43 160 4
37 0 15 43 160 4
37 0 16 43 160 4
37 0 17 43 160 4
37 0 18 43 160 4
37 0 19 43 160 4
37 0 23 43 160 4
37 0 28 43 160 4
37 0 29 43 160 4
37 0 30 43 160 4
37 0 31 43 160 4
37 0 32 43 160 4
37 0 33 43 160 4
37 0 34 43 160 4
37 0 35 43 160 4
37 0 36 43 160 4
37 0 37 43 160 4
37 0 38 43 160 4
37 0 39 43 160 4
37 0 40 43 160 4
37 0 41 43 160 4
37 0 42 43 160 4
37 0 43 43 160 4
37 0 44 43 160 4
37 0 45 43 160 4
37 0 46 43 160 4
37 0 47 43 160 4
37 0 48 43 160 4
37 0 49 43 160 4
37 0 50 43 160 4
37 0 51 43 160 4
37 0 52 43 160 4
37 0 53 43 160 4
37 0 54 43 160 4
37 0 55 43 160 4
37 0 56 43 160 4
37 0 57 43 160 4
37 0 58 43 160 4
37 0 59 43 160 4
37 1 11 43 160 4
37 1 18 147 102 188
37 1 19 147 102 188
37 1 20 147 102 188
37 1 21 196 175 214
37 2 18 147 102 188
37 2 19 147 102 188
37 2 20 255 127 12
37 3 18 147 102 188
37 3 19 255 127 12
37 4 17 147 102 188
37 4 18 147 102 188
37 5 17 147 102 188
37 5 18 255 127 12
37 5 19 255 127 12
37 6 19 255 127 12
37 6 20 255 127 12
37 6 21 255 127 12
37 7 25 158 216 229
37 8 25 158 216 229
37 8 26 158 216 229
37 8 27 158 216 229
37 9 25 158 216 229
37 9 26 158 216 229
37 10 25 158 216 229
37 10 26 158 216 229
37 11 25 158 216 229
37 11 26 158 216 229
37 12 25 158 216 229
37 12 26 158 216 229
37 13 25 158 216 229
37 13 26 158 216 229
38 0 13 43 160 4
38 0 14 43 160 4
38 0 15 43 160 4
38 0 16 43 160 4
38 0 17 43 160 4
38 0 18 43 160 4
38 0 19 43 160 4
38 0 22 43 160 4
38 0 23 43 160 4
38 0 24 43 160 4
38 0 25 43 160 4
38 0 26 43 160 4
38 0 27 43 160 4
38 0 28 43 160 4
38 0 29 43 160 4
38 0 30 43 160 4
38 0 31 43 160 4
38 0 32 43 160 4
38 0 33 43 160 4
38 0 34 43 160 4
38 0 35 43 160 4
38 0 36 43 160 4
38 0 37 43 160 4
38 0 38 43 160 4
38 0 39 43 160 4
38 0 40 43 160 4
38 0 41 43 160 4
38 0 42 43 160 4
38 0 43 43 160 4
38 0 44 43 160 4
38 0 45 43 160 4
38 0 46 43 160 4
38 0 47 43 160 4
38 0 48 43 160 4
38 0 49 43 160 4
38 0 50 43 160 4
38 0 51 43 160 4
38 0 52 43 160 4
38 0 53 43 160 4
38 0 54 43 160 4
38 0 55 43 160 4
38 0 56 43 160 4
38 0 57 43 160 4
38 0 58 43 160 4
38 0 59 43 160 4
38 1 13 43 160 4
38 1 18 147 102 188
38 1 19 196 175 214
38 2 18 147 102 188
38 2 19 147 102 188
38 3 18 147 102 188
38 3 19 255 127 12
38 3 21 255 127 12
38 4 18 147 102 188
38 4 19 255 127 12
38 5 18 147 102 188
38 5 19 255 127 12
38 5 20 255 127 12
38 5 21 255 127 12
38 5 22 255 127 12
38 5 24 158 216 229
38 6 19 255 127 12
38 6 20 255 127 12
38 6 22 255 127 12
38 6 23 196 175 214
38 6 25 158 216 229
38 7 24 158 216 229
38 8 25 158 216 229
38 8 26 158 216 229
38 9 25 158 216 229
38 9 26 158 216 229
38 10 25 158 216 229
38 10 26 158 216 229
38 11 25 158 216 229
38 11 26 158 216 229
38 12 25 158 216 229
38 12 26 158 216 229
38 13 25 158 216 229
38 13 26 158 216 229
39 0 14 43 160 4
39 0 15 43 160 4
39 0 16 43 160 4
39 0 17 43 160 4
39 0 18 43 160 4
39 0 19 43 160 4
39 0 20 43 160 4
39 0 23 43 160 4
39 0 24 43 160 4
39 0 25 43 160 4
39 0 26 43 160 4
39 0 27 43 160 4
39 0 28 43 160 4
39 0 29 43 160 4
39 0 30 43 160 4
39 0 31 43 160 4
39 0 32 43 160 4
39 0 33 43 160 4
39 0 34 43 160 4
39 0 35 43 160 4
39 0 36 43 160 4
39 0 37 43 160 4
39 0 38 43 160 4
39 0 39 43 160 4
39 0 40 43 160 4
39 0 41 43 160 4
39 0 42 43 160 4
39 0 43 43 160 4
39 0 44 43 160 4
39 0 45 43 160 4
39 0 46 43 160 4
39 0 47 43 160 4
39 0 48 43 160 4
39 0 49 43 160 4
39 0 50 43 160 4
39 0 51 43 160 4
39 0 52 43 160 4
39 0 53 43 160 4
39 0 54 43 160 4
39 0 55 43 160 4
39 0 56 43 160 4
39 0 57 43 160 4
39 0 58 43 160 4
39 0 59 43 160 4
39 1 17 196 175 214
39 1 18 147 102 188
39 1 19 196 175 214
39 1 20 196 175 214
39 1 21 196 175 214
39 2 18 147 102 188
39 2 19 196 175 214
39 2 20 196 175 214
39 3 18 147 102 188
39 3 19 255 127 12
39 3 20 255 127 12
39 4 18 147 102 188
39 4 19 255 127 12
39 5 18 255 127 12
39 5 19 255 127 12
39 5 20 255 127 12
39 5 21 255 127 12
39 5 22 255 127 12
39 5 23 255 127 12
39 5 24 158 216 229
39 6 18 255 127 12
39 6 19 255 127 12
39 6 20 196 175 214
39 6 21 196 175 214
39 6 22 196 175 214
39 6 23 196 175 214
39 6 24 158 216 229
39 6 25 158 216 229
39 7 24 158 216 229
39 7 25 158 216 229
39 7 26 158 216 229
39 8 25 158 216 229
39 8 26 158 216 229
39 8 27 158 216 229
39 9 24 158 216 229
39 9 25 158 216 229
39 9 26 158 216 229
39 10 24 158 216 229
39 10 25 158 216 229
39 10 26 158 216 229
39 11 24 158 216 229
39 11 25 158 216 229
39 12 24 158 216 229
39 12 25 158 216 229
39 12 26 158 216 229
39 13 25 158 216 229
39 13 26 158 216 229
40 0 16 43 160 4
40 0 17 43 160 4
40 0 18 43 160 4
40 0 19 43 160 4
40 0 20 43 160 4
40 0 21 43 160 4
40 0 22 43 160 4
40 0 24 43 160 4
40 0 25 43 160 4
40 0 26 43 160 4
40 0 27 43 160 4
40 0 28 43 160 4
40 0 29 43 160 4
40 0 30 43 160 4
40 0 31 43 160 4
40 0 32 43 160 4
40 0 33 43 160 4
40 0 34 43 160 4
40 0 35 43 160 4
40 0 36 43 160 4
40 0 37 43 160 4
40 0 38 43 160 4
40 0 39 43 160 4
40 0 40 43 160 4
40 0 41 43 160 4
40 0 42 43 160 4
40 0 43 43 160 4
40 0 44 43 160 4
40 0 45 43 160 4
40 0 46 43 160 4
40 0 47 43 160 4
40 0 48 43 160 4
40 0 49 43 160 4
40 0 50 43 160 4
40 0 51 43 160 4
40 0 52 43 160 4
40 0 53 43 160 4
40 0 54 43 160 4
40 0 55 43 160 4
40 0 56 43 160 4
40 0 57 43 160 4
40 0 58 43 160 4
40 0 59 43 160 4
40 1 16 196 175 214
40 1 17 196 175 214
40 1 18 196 175 214
40 1 19 196 175 214
40 1 20 196 175 214
40 1 21 196 175 214
40 1 22 196 175 214
40 2 17 196 175 214
40 2 18 196 175 214
40 2 19 196 175 214
40 2 20 196 175 214
40 2 21 196 175 214
40 3 17 196 175 214
40 3 18 196 175 214
40 3 19 196 175 214
40 3 20 196 175 214
40 4 17 255 127 12
40 4 18 196 175 214
40 4 19 196 175 214
40 5 18 255 127 12
40 5 19 196 175 214
40 5 20 196 175 214
40 5 21 196 175 214
40 5 22 196 175 214
40 5 23 196 175 214
40 5 24 158 216 229
40 5 25 158 216 229
40 6 18 255 127 12
40 6 19 196 175 214
40 6 20 196 175 214
40 6 21 196 175 214
40 6 22 196 175 214
40 6 23 158 216 229
40 6 24 158 216 229
40 6 25 158 216 229
40 7 24 158 216 229
40 7 25 158 216 229
40 8 24 158 216 229
40 8 25 158 216 229
40 9 24 158 216 229
40 9 25 158 216 229
40 10 24 158 216 229
40 10 25 158 216 229
40 11 24 158 216 229
40 11 25 158 216 229
40 12 24 158 216 229
40 12 25 158 216 229
40 13 25 158 216 229
41 0 18 43 160 4
41 0 24 43 160 4
41 0 25 43 160 4
41 0 26 43 160 4
41 0 27 43 160 4
41 0 28 43 160 4
41 0 29 43 160 4
41 0 30 43 160 4
41 0 31 43 160 4
41 0 32 43 160 4
41 0 33 43 160 4
41 0 34 43 160 4
41 0 35 43 160 4
41 0 36 43 160 4
41 0 37 43 160 4
41 0 38 43 160 4
41 0 39 43 160 4
41 0 40 43 160 4
41 0 41 43 160 4
41 0 42 43 160 4
41 0 43 43 160 4
41 0 44 43 160 4
41 0 45 43 160 4
41 0 46 43 160 4
41 0 47 43 160 4
41 0 48 43 160 4
41 0 49 43 160 4
41 0 50 43 160 4
41 0 51 43 160 4
41 0 52 43 160 4
41 0 53 43 160 4
41 0 54 43 160 4
41 0 55 43 160 4
41 0 56 43 160 4
41 0 57 43 160 4
41 0 58 43 160 4
41 0 59 43 160 4
41 1 18 196 175 214
41 1 21 255 127 12
41 1 22 158 216 229
41 2 18 196 175 214
41 4 20 196 175 214
41 4 21 196 175 214
41 5 19 255 127 12
41 5 21 196 175 214
41 5 22 196 175 214
41 5 23 196 175 214
41 5 24 158 216 229
41 6 20 196 175 214
41 6 21 196 175 214
41 6 22 158 216 229
41 6 23 158 216 229
41 6 24 158 216 229
41 6 25 158 216 229
41 7 23 158 216 229
41 7 24 158 216 229
41 7 25 158 216 229
41 8 23 158 216 229
41 8 24 158 216 229
41 8 25 158 216 229
41 9 23 158 216 229
41 9 24 158 216 229
41 9 25 158 216 229
41 10 23 158 216 229
41 10 24 158 216 229
41 10 25 158 216 229
41 10 26 158 216 229
41 11 24 158 216 229
41 11 25 158 216 229
41 12 24 158 216 229
41 12 25 158 216 229
41 13 24 158 216 229
41 13 25 158 216 229
42 0 20 43 160 4
42 0 21 43 160 4
42 0 22 43 160 4
42 0 23 43 160 4
42 0 24 43 160 4
42 0 25 43 160 4
42 0 26 43 160 4
42 0 27 43 160 4
42 0 28 43 160 4
42 0 29 43 160 4
42 0 30 43 160 4
42 0 31 43 160 4
42 0 32 43 160 4
42 0 35 43 160 4
42 0 36 43 160 4
42 0 37 43 160 4
42 0 38 43 160 4
42 0 39 43 160 4
42 0 40 43 160 4
42 0 41 43 160 4
42 0 42 43 160 4
42 0 43 43 160 4
42 0 44 43 160 4
42 0 45 43 160 4
42 0 46 43 160 4
42 0 47 43 160 4
42 0 48 43 160 4
42 0 49 43 160 4
42 0 50 43 160 4
42 0 51 43 160 4
42 0 52 43 160 4
42 0 53 43 160 4
42 0 54 43 160 4
42 0 55 43 160 4
42 0 56 43 160 4
42 0 57 43 160 4
42 0 58 43 160 4
42 0 59 43 160 4
42 5 21 255 127 12
42 5 22 158 216 229
42 5 23 158 216 229
42 6 21 158 216 229
42 6 22 158 216 229
42 6 23 158 216 229
42 6 24 158 216 229
42 7 23 158 216 229
42 7 24 158 216 229
42 8 23 158 216 229
42 8 24 158 216 229
42 9 22 158 216 229
42 9 23 158 216 229
42 9 24 158 216 229
42 10 23 158 216 229
42 10 24 158 216 229
42 11 23 158 216 229
42 11 24 158 216 229
42 12 23 158 216 229
42 12 24 158 216 229
42 13 24 158 216 229
43 0 21 43 160 4
43 0 22 43 160 4
43 0 23 43 160 4
43 0 24 43 160 4
43 0 25 43 160 4
43 0 26 43 160 4
43 0 27 43 160 4
43 0 28 43 160 4
43 0 29 43 160 4
43 0 30 43 160 4
43 0 31 43 160 4
43 0 32 43 160 4
43 0 33 43 160 4
43 0 34 43 160 4
43 0 35 43 160 4
43 0 37 43 160 4
43 0 38 43 160 4
43 0 39 43 160 4
43 0 40 43 160 4
43 0 41 43 160 4
43 0 42 43 160 4
43 0 43 43 160 4
43 0 44 43 160 4
43 0 45 43 160 4
43 0 46 43 160 4
43 0 47 43 160 4
43 0 48 43 160 4
43 0 49 43 160 4
43 0 50 43 160 4
43 0 51 43 160 4
43 0 52 43 160 4
43 0 53 43 160 4
43 0 54 43 160 4
43 0 55 43 160 4
43 0 56 43 160 4
43 0 57 43 160 4
43 0 58 43 160 4
43 0 59 43 160 4
43 5 23 158 216 229
43 6 23 158 216 229
43 6 24 158 216 229
43 7 23 158 216 229
43 7 24 158 216 229
43 8 24 158 216 229
43 9 24 158 216 229
43 10 24 158 216 229
44 0 23 43 160 4
44 0 24 43 160 4
44 0 25 43 160 4
44 0 26 43 160 4
44 0 27 43 160 4
44 0 28 43 160 4
44 0 29 43 160 4
44 0 30 43 160 4
44 0 31 43 160 4
44 0 32 43 160 4
44 0 33 43 160 4
44 0 34 43 160 4
44 0 35 43 160 4
44 0 36 43 160 4
44 0 37 43 160 4
44 0 38 43 160 4
44 0 39 43 160 4
44 0 40 43 160 4
44 0 41 43 160 4
44 0 42 43 160 4
44 0 43 43 160 4
44 0 44 43 160 4
44 0 45 43 160 4
44 0 46 43 160 4
44 0 47 43 160 4
44 0 48 43 160 4
44 0 49 43 160 4
44 0 50 43 160 4
44 0 51 43 160 4
44 0 52 43 160 4
44 0 53 43 160 4
44 0 54 43 160 4
44 0 55 43 160 4
44 0 56 43 160 4
44 0 57 43 160 4
44 0 58 43 160 4
44 0 59 43 160 4
45 0 25 43 160 4
45 0 26 43 160 4
45 0 27 43 160 4
45 0 28 43 160 4
45 0 29 43 160 4
45 0 30 43 160 4
45 0 31 43 160 4
45 0 32 43 160 4
45 0 33 43 160 4
45 0 34 43 160 4
45 0 35 43 160 4
45 0 36 43 160 4
45 0 37 43 160 4
45 0 38 43 160 4
45 0 39 43 160 4
45 0 40 43 160 4
45 0 41 43 160 4
45 0 42 43 160 4
45 0 43 43 160 4
45 0 44 43 160 4
45 0 45 43 160 4
45 0 46 43 160 4
45 0 47 43 160 4
45 0 48 43 160 4
45 0 49 43 160 4
45 0 50 43 160 4
45 0 51 43 160 4
45 0 52 43 160 4
45 0 53 43 160 4
45 0 54 43 160 4
45 0 55 43 160 4
45 0 56 43 160 4
45 0 57 43 160 4
45 0 58 43 160 4
45 0 59 43 160 4
46 0 26 43 160 4
46 0 27 43 160 4
46 0 28 43 160 4
46 0 29 43 160 4
46 0 30 43 160 4
46 0 31 43 160 4
46 0 32 43 160 4
46 0 33 43 160 4
46 0 34 43 160 4
46 0 35 43 160 4
46 0 36 43 160 4
46 0 37 43 160 4
46 0 38 43 160 4
46 0 39 43 160 4
46 0 40 43 160 4
46 0 41 43 160 4
46 0 42 43 160 4
46 0 43 43 160 4
46 0 44 43 160 4
46 0 45 43 160 4
46 0 46 43 160 4
46 0 47 43 160 4
46 0 48 43 160 4
46 0 49 43 160 4
46 0 50 43 160 4
46 0 51 43 160 4
46 0 52 43 160 4
46 0 53 43 160 4
46 0 54 43 160 4
46 0 55 43 160 4
46 0 56 43 160 4
46 0 57 43 160 4
46 0 58 43 160 4
46 0 59 43 160 4
47 0 28 43 160 4
47 0 29 43 160 4
47 0 30 43 160 4
47 0 31 43 160 4
47 0 32 43 160 4
47 0 33 43 160 4
47 0 34 43 160 4
47 0 35 43 160 4
47 0 36 43 160 4
47 0 37 43 160 4
47 0 38 43 160 4
47 0 39 43 160 4
47 0 40 43 160 4
47 0 41 43 160 4
47 0 42 43 160 4
47 0 43 43 160 4
47 0 44 43 160 4
47 0 45 43 160 4
47 0 46 43 160 4
47 0 47 43 160 4
47 0 48 43 160 4
47 0 49 43 160 4
47 0 50 43 160 4
47 0 51 43 160 4
47 0 52 43 160 4
47 0 53 43 160 4
47 0 54 43 160 4
47 0 55 43 160 4
47 0 56 43 160 4
47 0 57 43 160 4
47 0 58 43 160 4
47 0 59 43 160 4
48 0 30 43 160 4
48 0 31 43 160 4
48 0 32 43 160 4
48 0 33 43 160 4
48 0 34 43 160 4
48 0 35 43 160 4
48 0 36 43 160 4
48 0 37 43 160 4
48 0 38 43 160 4
48 0 39 43 160 4
48 0 40 43 160 4
48 0 41 43 160 4
48 0 42 43 160 4
48 0 43 43 160 4
48 0 44 43 160 4
48 0 45 43 160 4
48 0 46 43 160 4
48 0 47 43 160 4
48 0 48 43 160 4
48 0 49 43 160 4
48 0 50 43 160 4
48 0 51 43 160 4
48 0 52 43 160 4
48 0 53 43 160 4
48 0 54 43 160 4
48 0 55 43 160 4
48 0 56 43 160 4
48 0 57 43 160 4
48 0 58 43 160 4
48 0 59 43 160 4
49 0 32 43 160 4
49 0 33 43 160 4
49 0 34 43 160 4
49 0 35 43 160 4
49 0 36 43 160 4
49 0 37 43 160 4
49 0 38 43 160 4
49 0 39 43 160 4
49 0 40 43 160 4
49 0 41 43 160 4
49 0 42 43 160 4
49 0 43 43 160 4
49 0 44 43 160 4
49 0 45 43 160 4
49 0 46 43 160 4
49 0 47 43 160 4
49 0 48 43 160 4
49 0 49 43 160 4
49 0 50 43 160 4
49 0 51 43 160 4
49 0 52 43 160 4
49 0 53 43 160 4
49 0 54 43 160 4
49 0 55 43 160 4
49 0 56 43 160 4
49 0 57 43 160 4
49 0 58 43 160 4
49 0 59 43 160 4
50 0 33 43 160 4
50 0 34 43 160 4
50 0 35 43 160 4
50 0 36 43 160 4
50 0 37 43 160 4
50 0 38 43 160 4
50 0 39 43 160 4
50 0 40 43 160 4
50 0 41 43 160 4
50 0 42 43 160 4
50 0 43 43 160 4
50 0 44 43 160 4
50 0 45 43 160 4
50 0 46 43 160 4
50 0 47 43 160 4
50 0 48 43 160 4
50 0 49 43 160 4
50 0 50 43 160 4
50 0 51 43 160 4
50 0 52 43 160 4
50 0 53 43 160 4
50 0 54 43 160 4
50 0 55 43 160 4
50 0 56 43 160 4
50 0 57 43 160 4
50 0 58 43 160 4
50 0 59 43 160 4
51 0 35 43 160 4
51 0 36 43 160 4
51 0 37 43 160 4
51 0 38 43 160 4
51 0 39 43 160 4
51 0 40 43 160 4
51 0 41 43 160 4
51 0 42 43 160 4
51 0 43 43 160 4
51 0 44 43 160 4
51 0 45 43 160 4
51 0 46 43 160 4
51 0 47 43 160 4
51 0 48 43 160 4
51 0 49 43 160 4
51 0 50 43 160 4
51 0 51 43 160 4
51 0 52 43 160 4
51 0 53 43 160 4
51 0 54 43 160 4
51 0 55 43 160 4
51 0 56 43 160 4
51 0 57 43 160 4
51 0 58 43 160 4
51 0 59 43 160 4
52 0 37 43 160 4
52 0 38 43 160 4
52 0 39 43 160 4
52 0 40 43 160 4
52 0 41 43 160 4
52 0 42 43 160 4
52 0 43 43 160 4
52 0 44 43 160 4
52 0 45 43 160 4
52 0 46 43 160 4
52 0 47 43 160 4
52 0 48 43 160 4
52 0 49 43 160 4
52 0 50 43 160 4
52 0 51 43 160 4
52 0 52 43 160 4
52 0 53 43 160 4
52 0 54 43 160 4
52 0 55 43 160 4
52 0 56 43 160 4
52 0 57 43 160 4
52 0 58 43 160 4
52 0 59 43 160 4
53 0 38 43 160 4
53 0 39 43 160 4
53 0 40 43 160 4
53 0 41 43 160 4
53 0 42 43 160 4
53 0 43 43 160 4
53 0 44 43 160 4
53 0 45 43 160 4
53 0 46 43 160 4
53 0 47 43 160 4
53 0 48 43 160 4
53 0 49 43 160 4
53 0 50 43 160 4
53 0 51 43 160 4
53 0 52 43 160 4
53 0 53 43 160 4
53 0 54 43 160 4
53 0 55 43 160 4
53 0 56 43 160 4
53 0 57 43 160 4
53 0 58 43 160 4
53 0 59 43 160 4
54 0 40 43 160 4
54 0 41 43 160 4
54 0 42 43 160 4
54 0 43 43 160 4
54 0 44 43 160 4
54 0 45 43 160 4
54 0 46 43 160 4
54 0 47 43 160 4
54 0 48 43 160 4
54 0 49 43 160 4
54 0 50 43 160 4
54 0 51 43 160 4
54 0 52 43 160 4
54 0 53 43 160 4
54 0 54 43 160 4
54 0 55 43 160 4
54 0 56 43 160 4
54 0 57 43 160 4
54 0 58 43 160 4
54 0 59 43 160 4
55 0 42 43 160 4
55 0 43 43 160 4
55 0 44 43 160 4
55 0 45 43 160 4
55 0 46 43 160 4
55 0 47 43 160 4
55 0 48 43 160 4
55 0 49 43 160 4
55 0 50 43 160 4
55 0 51 43 160 4
55 0 52 43 160 4
55 0 53 43 160 4
55 0 54 43 160 4
55 0 55 43 160 4
55 0 56 43 160 4
55 0 57 43 160 4
55 0 58 43 160 4
55 0 59 43 160 4
56 0 44 43 160 4
56 0 45 43 160 4
56 0 46 43 160 4
56 0 47 43 160 4
56 0 48 43 160 4
56 0 49 43 160 4
56 0 50 43 160 4
56 0 51 43 160 4
56 0 52 43 160 4
56 0 53 43 160 4
56 0 54 43 160 4
56 0 55 43 160 4
56 0 56 43 160 4
56 0 57 43 160 4
56 0 58 43 160 4
56 0 59 43 160 4
57 0 45 43 160 4
57 0 46 43 160 4
57 0 47 43 160 4
57 0 48 43 160 4
57 0 49 43 160 4
57 0 50 43 160 4
57 0 51 43 160 4
57 0 52 43 160 4
57 0 53 43 160 4
57 0 54 43 160 4
57 0 55 43 160 4
57 0 56 43 160 4
57 0 57 43 160 4
57 0 58 43 160 4
57 0 59 43 160 4
58 0 47 43 160 4
58 0 48 43 160 4
58 0 49 43 160 4
58 0 50 43 160 4
58 0 51 43 160 4
58 0 52 43 160 4
58 0 53 43 160 4
58 0 54 43 160 4
58 0 55 43 160 4
58 0 56 43 160 4
58 0 57 43 160 4
58 0 58 43 160 4
58 0 59 43 160 4
59 0 49 43 160 4
59 0 50 43 160 4
59 0 51 43 160 4
59 0 52 43 160 4
59 0 53 43 160 4
59 0 54 43 160 4
59 0 55 43 160 4
59 0 56 43 160 4
59 0 57 43 160 4
59 0 58 43 160 4
59 0 59 43 160 4
