ply
format ascii 1.0
element vertex 3691
property float x
property float y
property float z
property uchar red
property uchar green
property uchar blue
end_header
0 0 46 43 160 4
0 0 47 43 160 4
0 0 48 43 160 4
0 0 49 43 160 4
0 0 50 43 160 4
0 0 51 43 160 4
0 0 52 43 160 4
0 0 53 43 160 4
0 0 54 43 160 4
0 0 55 43 160 4
0 0 56 43 160 4
0 0 57 43 160 4
0 0 58 43 160 4
0 0 59 43 160 4
1 0 45 43 160 4
1 0 46 43 160 4
1 0 47 43 160 4
1 0 48 43 160 4
1 0 49 43 160 4
1 0 50 43 160 4
1 0 51 43 160 4
1 0 52 43 160 4
1 0 53 43 160 4
1 0 54 43 160 4
1 0 55 43 160 4
1 0 56 43 160 4
1 0 57 43 160 4
1 0 58 43 160 4
1 0 59 43 160 4
2 0 43 43 160 4
2 0 44 43 160 4
2 0 45 43 160 4
2 0 46 43 160 4
2 0 47 43 160 4
2 0 48 43 160 4
2 0 49 43 160 4
2 0 50 43 160 4
2 0 51 43 160 4
2 0 52 43 160 4
2 0 53 43 160 4
2 0 54 43 160 4
2 0 55 43 160 4
2 0 56 43 160 4
2 0 57 43 160 4
2 0 58 43 160 4
2 0 59 43 160 4
3 0 42 43 160 4
3 0 43 43 160 4
3 0 44 43 160 4
3 0 45 43 160 4
3 0 46 43 160 4
3 0 47 43 160 4
3 0 48 43 160 4
3 0 49 43 160 4
3 0 50 43 160 4
3 0 51 43 160 4
3 0 52 43 160 4
3 0 53 43 160 4
3 0 54 43 160 4
3 0 55 43 160 4
3 0 56 43 160 4
3 0 57 43 160 4
3 0 58 43 160 4
3 0 59 43 160 4
4 0 40 43 160 4
4 0 41 43 160 4
4 0 42 43 160 4
4 0 43 43 160 4
4 0 44 43 160 4
4 0 45 43 160 4
4 0 46 43 160 4
4 0 47 43 160 4
4 0 48 43 160 4
4 0 49 43 160 4
4 0 50 43 160 4
4 0 51 43 160 4
4 0 52 43 160 4
4 0 53 43 160 4
4 0 54 43 160 4
4 0 55 43 160 4
4 0 56 43 160 4
4 0 57 43 160 4
4 0 58 43 160 4
4 0 59 43 160 4
5 0 39 43 160 4
5 0 40 43 160 4
5 0 41 43 160 4
5 0 42 43 160 4
5 0 43 43 160 4
5 0 44 43 160 4
5 0 45 43 160 4
5 0 46 43 160 4
5 0 47 43 160 4
5 0 48 43 160 4
5 0 49 43 160 4
5 0 50 43 160 4
5 0 51 43 160 4
5 0 52 43 160 4
5 0 53 43 160 4
5 0 54 43 160 4
5 0 55 43 160 4
5 0 56 43 160 4
5 0 57 43 160 4
5 0 58 43 160 4
5 0 59 43 160 4
6 0 37 43 160 4
6 0 38 43 160 4
6 0 39 43 160 4
6 0 40 43 160 4
6 0 41 43 160 4
6 0 42 43 160 4
6 0 43 43 160 4
6 0 44 43 160 4
6 0 45 43 160 4
6 0 46 43 160 4
6 0 47 43 160 4
6 0 48 43 160 4
6 0 49 43 160 4
6 0 50 43 160 4
6 0 51 43 160 4
6 0 52 43 160 4
6 0 53 43 160 4
6 0 54 43 160 4
6 0 55 43 160 4
6 0 56 43 160 4
6 0 57 43 160 4
6 0 58 43 160 4
6 0 59 43 160 4
7 0 35 43 160 4
7 0 36 43 160 4
7 0 37 43 160 4
7 0 38 43 160 4
7 0 39 43 160 4
7 0 40 43 160 4
7 0 41 43 160 4
7 0 42 43 160 4
7 0 43 43 160 4
7 0 44 43 160 4
7 0 45 43 160 4
7 0 46 43 160 4
7 0 47 43 160 4
7 0 48 43 160 4
7 0 49 43 160 4
7 0 50 43 160 4
7 0 51 43 160 4
7 0 52 43 160 4
7 0 53 43 160 4
7 0 54 43 160 4
7 0 55 43 160 4
7 0 56 43 160 4
7 0 57 43 160 4
7 0 58 43 160 4
7 0 59 43 160 4
8 0 34 43 160 4
8 0 35 43 160 4
8 0 36 43 160 4
8 0 37 43 160 4
8 0 38 43 160 4
8 0 39 43 160 4
8 0 40 43 160 4
8 0 41 43 160 4
8 0 42 43 160 4
8 0 43 43 160 4
8 0 44 43 160 4
8 0 45 43 160 4
8 0 46 43 160 4
8 0 47 43 160 4
8 0 48 43 160 4
8 0 49 43 160 4
8 0 50 43 160 4
8 0 51 43 160 4
8 0 52 43 160 4
8 0 53 43 160 4
8 0 54 43 160 4
8 0 55 43 160 4
8 0 56 43 160 4
8 0 57 43 160 4
8 0 58 43 160 4
8 0 59 43 160 4
9 0 32 43 160 4
9 0 33 43 160 4
9 0 34 43 160 4
9 0 35 43 160 4
9 0 36 43 160 4
9 0 37 43 160 4
9 0 38 43 160 4
9 0 39 43 160 4
9 0 40 43 160 4
9 0 41 43 160 4
9 0 42 43 160 4
9 0 43 43 160 4
9 0 44 43 160 4
9 0 45 43 160 4
9 0 46 43 160 4
9 0 47 43 160 4
9 0 48 43 160 4
9 0 49 43 160 4
9 0 50 43 160 4
9 0 51 43 160 4
9 0 52 43 160 4
9 0 53 43 160 4
9 0 54 43 160 4
9 0 55 43 160 4
9 0 56 43 160 4
9 0 57 43 160 4
9 0 58 43 160 4
9 0 59 43 160 4
10 0 31 43 160 4
10 0 32 43 160 4
10 0 33 43 160 4
10 0 34 43 160 4
10 0 35 43 160 4
10 0 36 43 160 4
10 0 37 43 160 4
10 0 38 43 160 4
10 0 39 43 160 4
10 0 40 43 160 4
10 0 41 43 160 4
10 0 42 43 160 4
10 0 43 43 160 4
10 0 44 43 160 4
10 0 45 43 160 4
10 0 46 43 160 4
10 0 47 43 160 4
10 0 48 43 160 4
10 0 49 43 160 4
10 0 50 43 160 4
10 0 51 43 160 4
10 0 52 43 160 4
10 0 53 43 160 4
10 0 54 43 160 4
10 0 55 43 160 4
10 0 56 43 160 4
10 0 57 43 160 4
10 0 58 43 160 4
10 0 59 43 160 4
11 0 29 43 160 4
11 0 30 43 160 4
11 0 31 43 160 4
11 0 32 43 160 4
11 0 33 43 160 4
11 0 34 43 160 4
11 0 35 43 160 4
11 0 36 43 160 4
11 0 37 43 160 4
11 0 38 43 160 4
11 0 39 43 160 4
11 0 40 43 160 4
11 0 41 43 160 4
11 0 42 43 160 4
11 0 43 43 160 4
11 0 44 43 160 4
11 0 45 43 160 4
11 0 46 43 160 4
11 0 47 43 160 4
11 0 48 43 160 4
11 0 49 43 160 4
11 0 50 43 160 4
11 0 51 43 160 4
11 0 52 43 160 4
11 0 53 43 160 4
11 0 54 43 160 4
11 0 55 43 160 4
11 0 56 43 160 4
11 0 57 43 160 4
11 0 58 43 160 4
11 0 59 43 160 4
12 0 28 43 160 4
12 0 29 43 160 4
12 0 30 43 160 4
12 0 31 43 160 4
12 0 32 43 160 4
12 0 33 43 160 4
12 0 34 43 160 4
12 0 35 43 160 4
12 0 36 43 160 4
12 0 37 43 160 4
12 0 38 43 160 4
12 0 39 43 160 4
12 0 40 43 160 4
12 0 41 43 160 4
12 0 42 43 160 4
12 0 43 43 160 4
12 0 44 43 160 4
12 0 45 43 160 4
12 0 46 43 160 4
12 0 47 43 160 4
12 0 48 43 160 4
12 0 49 43 160 4
12 0 50 43 160 4
12 0 51 43 160 4
12 0 52 43 160 4
12 0 53 43 160 4
12 0 54 43 160 4
12 0 55 43 160 4
12 0 56 43 160 4
12 0 57 43 160 4
12 0 58 43 160 4
12 0 59 43 160 4
13 0 26 43 160 4
13 0 27 43 160 4
13 0 28 43 160 4
13 0 29 43 160 4
13 0 30 43 160 4
13 0 31 43 160 4
13 0 32 43 160 4
13 0 33 43 160 4
13 0 34 43 160 4
13 0 35 43 160 4
13 0 36 43 160 4
13 0 37 43 160 4
13 0 38 43 160 4
13 0 39 43 160 4
13 0 40 43 160 4
13 0 41 43 160 4
13 0 42 43 160 4
13 0 43 43 160 4
13 0 44 43 160 4
13 0 45 43 160 4
13 0 46 43 160 4
13 0 47 43 160 4
13 0 48 43 160 4
13 0 49 43 160 4
13 0 50 43 160 4
13 0 51 43 160 4
13 0 52 43 160 4
13 0 53 43 160 4
13 0 54 43 160 4
13 0 55 43 160 4
13 0 56 43 160 4
13 0 57 43 160 4
13 0 58 43 160 4
13 0 59 43 160 4
14 0 25 43 160 4
14 0 26 43 160 4
14 0 27 43 160 4
14 0 28 43 160 4
14 0 29 43 160 4
14 0 30 43 160 4
14 0 31 43 160 4
14 0 32 43 160 4
14 0 33 43 160 4
14 0 34 43 160 4
14 0 35 43 160 4
14 0 36 43 160 4
14 0 37 43 160 4
14 0 38 43 160 4
14 0 39 43 160 4
14 0 40 43 160 4
14 0 41 43 160 4
14 0 42 43 160 4
14 0 43 43 160 4
14 0 44 43 160 4
14 0 45 43 160 4
14 0 46 43 160 4
14 0 47 43 160 4
14 0 48 43 160 4
14 0 49 43 160 4
14 0 50 43 160 4
14 0 51 43 160 4
14 0 52 43 160 4
14 0 53 43 160 4
14 0 54 43 160 4
14 0 55 43 160 4
14 0 56 43 160 4
14 0 57 43 160 4
14 0 58 43 160 4
14 0 59 43 160 4
15 0 23 43 160 4
15 0 24 43 160 4
15 0 25 43 160 4
15 0 26 43 160 4
15 0 27 43 160 4
15 0 28 43 160 4
15 0 29 43 160 4
15 0 30 43 160 4
15 0 31 43 160 4
15 0 32 43 160 4
15 0 33 43 160 4
15 0 34 43 160 4
15 0 35 43 160 4
15 0 36 43 160 4
15 0 37 43 160 4
15 0 38 43 160 4
15 0 39 43 160 4
15 0 40 43 160 4
15 0 41 43 160 4
15 0 42 43 160 4
15 0 43 43 160 4
15 0 44 43 160 4
15 0 45 43 160 4
15 0 46 43 160 4
15 0 47 43 160 4
15 0 48 43 160 4
15 0 49 43 160 4
15 0 50 43 160 4
15 0 51 43 160 4
15 0 52 43 160 4
15 0 53 43 160 4
15 0 54 43 160 4
15 0 55 43 160 4
15 0 56 43 160 4
15 0 57 43 160 4
15 0 58 43 160 4
15 0 59 43 160 4
15 1 23 158 216 229
15 2 23 158 216 229
15 3 23 158 216 229
15 4 23 158 216 229
15 5 23 158 216 229
15 6 23 158 216 229
15 7 23 158 216 229
15 11 23 158 216 229
16 0 21 43 160 4
16 0 22 43 160 4
16 0 23 43 160 4
16 0 24 43 160 4
16 0 25 43 160 4
16 0 26 43 160 4
16 0 27 43 160 4
16 0 28 43 160 4
16 0 29 43 160 4
16 0 30 43 160 4
16 0 31 43 160 4
16 0 32 43 160 4
16 0 33 43 160 4
16 0 34 43 160 4
16 0 35 43 160 4
16 0 36 43 160 4
16 0 37 43 160 4
16 0 38 43 160 4
16 0 39 43 160 4
16 0 40 43 160 4
16 0 41 43 160 4
16 0 42 43 160 4
16 0 43 43 160 4
16 0 44 43 160 4
16 0 45 43 160 4
16 0 46 43 160 4
16 0 47 43 160 4
16 0 48 43 160 4
16 0 49 43 160 4
16 0 50 43 160 4
16 0 51 43 160 4
16 0 52 43 160 4
16 0 53 43 160 4
16 0 54 43 160 4
16 0 55 43 160 4
16 0 56 43 160 4
16 0 57 43 160 4
16 0 58 43 160 4
16 0 59 43 160 4
16 1 21 255 186 119
16 1 22 255 186 119
16 1 23 158 216 229
16 2 21 255 186 119
16 2 22 255 186 119
16 2 23 158 216 229
16 3 21 255 186 119
16 3 22 255 186 119
16 3 23 158 216 229
16 4 21 255 186 119
16 4 22 255 186 119
16 5 21 255 186 119
16 5 22 255 186 119
16 6 22 255 186 119
16 7 22 158 216 229
16 8 21 255 186 119
16 8 23 158 216 229
16 9 21 255 186 119
16 9 22 158 216 229
16 10 21 158 216 229
16 10 22 158 216 229
16 11 21 158 216 229
16 11 22 158 216 229
16 12 21 158 216 229
16 12 22 158 216 229
16 12 23 158 216 229
16 13 21 158 216 229
16 13 22 158 216 229
16 14 21 158 216 229
16 14 22 158 216 229
16 15 21 158 216 229
16 15 22 158 216 229
16 16 22 158 216 229
16 16 23 158 216 229
17 0 20 43 160 4
17 0 21 43 160 4
17 0 22 43 160 4
17 0 23 43 160 4
17 0 24 43 160 4
17 0 25 43 160 4
17 0 26 43 160 4
17 0 27 43 160 4
17 0 28 43 160 4
17 0 29 43 160 4
17 0 30 43 160 4
17 0 31 43 160 4
17 0 32 43 160 4
17 0 33 43 160 4
17 0 34 43 160 4
17 0 35 43 160 4
17 0 36 43 160 4
17 0 37 43 160 4
17 0 38 43 160 4
17 0 39 43 160 4
17 0 40 43 160 4
17 0 41 43 160 4
17 0 42 43 160 4
17 0 43 43 160 4
17 0 44 43 160 4
17 0 45 43 160 4
17 0 46 43 160 4
17 0 47 43 160 4
17 0 48 43 160 4
17 0 49 43 160 4
17 0 50 43 160 4
17 0 51 43 160 4
17 0 52 43 160 4
17 0 53 43 160 4
17 0 54 43 160 4
17 0 55 43 160 4
17 0 56 43 160 4
17 0 57 43 160 4
17 0 58 43 160 4
17 0 59 43 160 4
17 1 20 255 186 119
17 1 21 255 186 119
17 1 22 255 186 119
17 1 23 158 216 229
17 2 20 255 186 119
17 2 21 255 186 119
17 2 22 255 186 119
17 2 23 158 216 229
17 3 20 255 186 119
17 3 21 255 186 119
17 3 22 255 186 119
17 3 23 158 216 229
17 4 20 255 186 119
17 4 21 255 186 119
17 4 22 255 186 119
17 4 23 158 216 229
17 5 20 255 186 119
17 5 21 255 186 119
17 5 22 255 186 119
17 5 23 158 216 229
17 6 20 255 186 119
17 6 21 255 186 119
17 6 22 255 186 119
17 7 21 255 186 119
17 7 22 158 216 229
17 8 20 196 175 214
17 8 21 255 186 119
17 8 23 158 216 229
17 9 20 255 186 119
17 9 21 255 186 119
17 9 22 158 216 229
17 10 21 158 216 229
17 10 22 158 216 229
17 11 21 158 216 229
17 11 22 158 216 229
17 12 22 158 216 229
17 12 23 158 216 229
17 13 22 158 216 229
17 14 22 158 216 229
17 15 22 158 216 229
17 15 23 158 216 229
17 16 21 158 216 229
17 16 22 158 216 229
18 0 18 43 160 4
18 0 19 43 160 4
18 0 20 43 160 4
18 0 21 43 160 4
18 0 22 43 160 4
18 0 23 43 160 4
18 0 24 43 160 4
18 0 25 43 160 4
18 0 26 43 160 4
18 0 27 43 160 4
18 0 28 43 160 4
18 0 29 43 160 4
18 0 30 43 160 4
18 0 31 43 160 4
18 0 32 43 160 4
18 0 33 43 160 4
18 0 34 43 160 4
18 0 35 43 160 4
18 0 36 43 160 4
18 0 37 43 160 4
18 0 38 43 160 4
18 0 39 43 160 4
18 0 40 43 160 4
18 0 41 43 160 4
18 0 42 43 160 4
18 0 43 43 160 4
18 0 44 43 160 4
18 0 45 43 160 4
18 0 46 43 160 4
18 0 47 43 160 4
18 0 48 43 160 4
18 0 49 43 160 4
18 0 50 43 160 4
18 0 51 43 160 4
18 0 52 43 160 4
18 0 53 43 160 4
18 0 54 43 160 4
18 0 55 43 160 4
18 0 56 43 160 4
18 0 57 43 160 4
18 0 58 43 160 4
18 0 59 43 160 4
18 1 18 255 186 119
18 1 19 255 186 119
18 1 20 255 186 119
18 1 21 255 186 119
18 1 22 255 186 119
18 1 23 158 216 229
18 2 18 255 186 119
18 2 19 255 186 119
18 2 20 255 186 119
18 2 21 255 186 119
18 2 22 255 186 119
18 2 23 158 216 229
18 3 18 255 186 119
18 3 19 255 186 119
18 3 20 255 186 119
18 3 21 255 186 119
18 3 22 255 186 119
18 3 23 158 216 229
18 4 18 255 186 119
18 4 19 255 186 119
18 4 20 255 186 119
18 4 21 255 186 119
18 4 22 255 186 119
18 4 23 158 216 229
18 5 19 255 186 119
18 5 20 255 186 119
18 5 21 255 186 119
18 5 22 255 186 119
18 5 23 158 216 229
18 6 18 255 186 119
18 6 20 255 186 119
18 6 21 255 186 119
18 6 22 255 186 119
18 6 23 158 216 229
18 7 18 255 186 119
18 7 19 255 186 119
18 7 21 255 186 119
18 7 22 158 216 229
18 7 23 158 216 229
18 8 18 196 175 214
18 8 19 196 175 214
18 8 20 196 175 214
18 9 19 196 175 214
18 9 20 196 175 214
18 9 21 255 186 119
18 9 22 158 216 229
18 10 21 158 216 229
18 10 22 158 216 229
18 11 21 158 216 229
18 11 22 158 216 229
18 11 23 158 216 229
18 12 22 158 216 229
18 12 23 158 216 229
18 13 22 158 216 229
18 14 22 158 216 229
18 15 22 158 216 229
18 16 21 158 216 229
18 16 22 158 216 229
18 16 23 158 216 229
19 0 17 43 160 4
19 0 18 43 160 4
19 0 19 43 160 4
19 0 20 43 160 4
19 0 21 43 160 4
19 0 22 43 160 4
19 0 23 43 160 4
19 0 24 43 160 4
19 0 25 43 160 4
19 0 26 43 160 4
19 0 27 43 160 4
19 0 28 43 160 4
19 0 29 43 160 4
19 0 30 43 160 4
19 0 31 43 160 4
19 0 32 43 160 4
19 0 33 43 160 4
19 0 34 43 160 4
19 0 35 43 160 4
19 0 36 43 160 4
19 0 37 43 160 4
19 0 38 43 160 4
19 0 39 43 160 4
19 0 40 43 160 4
19 0 41 43 160 4
19 0 42 43 160 4
19 0 43 43 160 4
19 0 44 43 160 4
19 0 45 43 160 4
19 0 46 43 160 4
19 0 47 43 160 4
19 0 48 43 160 4
19 0 49 43 160 4
19 0 50 43 160 4
19 0 51 43 160 4
19 0 52 43 160 4
19 0 53 43 160 4
19 0 54 43 160 4
19 0 55 43 160 4
19 0 56 43 160 4
19 0 57 43 160 4
19 0 58 43 160 4
19 0 59 43 160 4
19 1 17 255 186 119
19 1 18 255 186 119
19 1 19 255 186 119
19 1 20 255 186 119
19 1 21 255 186 119
19 1 22 255 186 119
19 1 23 158 216 229
19 2 17 255 186 119
19 2 18 255 186 119
19 2 19 255 186 119
19 2 20 255 186 119
19 2 21 255 186 119
19 2 22 255 186 119
19 2 23 158 216 229
19 3 17 255 186 119
19 3 18 255 186 119
19 3 19 255 186 119
19 3 20 255 186 119
19 3 21 255 186 119
19 3 22 255 186 119
19 3 23 158 216 229
19 4 17 255 186 119
19 4 18 255 186 119
19 4 19 255 186 119
19 4 20 255 186 119
19 4 21 255 186 119
19 4 22 255 186 119
19 4 23 158 216 229
19 5 17 255 186 119
19 5 18 255 186 119
19 5 19 255 186 119
19 5 20 255 186 119
19 5 21 255 186 119
19 5 22 255 186 119
19 5 23 158 216 229
19 6 20 255 186 119
19 6 21 255 186 119
19 6 22 255 186 119
19 6 23 158 216 229
19 7 17 255 186 119
19 7 18 196 175 214
19 7 19 196 175 214
19 7 21 255 186 119
19 7 22 158 216 229
19 7 23 158 216 229
19 8 18 196 175 214
19 8 19 196 175 214
19 8 20 196 175 214
19 8 23 158 216 229
19 9 19 196 175 214
19 9 20 196 175 214
19 9 21 255 186 119
19 9 22 158 216 229
19 10 21 255 186 119
19 10 22 158 216 229
19 11 22 158 216 229
19 11 23 158 216 229
19 12 22 158 216 229
19 12 23 158 216 229
19 13 22 158 216 229
19 13 23 158 216 229
19 14 22 158 216 229
19 15 22 158 216 229
19 16 21 158 216 229
19 16 22 158 216 229
19 16 23 158 216 229
20 0 15 43 160 4
20 0 16 43 160 4
20 0 17 43 160 4
20 0 18 43 160 4
20 0 19 43 160 4
20 0 20 43 160 4
20 0 21 43 160 4
20 0 22 43 160 4
20 0 23 43 160 4
20 0 24 43 160 4
20 0 25 43 160 4
20 0 26 43 160 4
20 0 27 43 160 4
20 0 28 43 160 4
20 0 29 43 160 4
20 0 30 43 160 4
20 0 31 43 160 4
20 0 32 43 160 4
20 0 33 43 160 4
20 0 34 43 160 4
20 0 35 43 160 4
20 0 36 43 160 4
20 0 37 43 160 4
20 0 38 43 160 4
20 0 39 43 160 4
20 0 40 43 160 4
20 0 41 43 160 4
20 0 42 43 160 4
20 0 43 43 160 4
20 0 44 43 160 4
20 0 45 43 160 4
20 0 46 43 160 4
20 0 47 43 160 4
20 0 48 43 160 4
20 0 49 43 160 4
20 0 50 43 160 4
20 0 51 43 160 4
20 0 52 43 160 4
20 0 53 43 160 4
20 0 54 43 160 4
20 0 55 43 160 4
20 0 56 43 160 4
20 0 57 43 160 4
20 0 58 43 160 4
20 0 59 43 160 4
20 1 15 255 186 119
20 1 16 255 186 119
20 1 17 255 186 119
20 1 18 255 186 119
20 1 19 255 186 119
20 1 20 255 186 119
20 1 21 255 186 119
20 1 22 255 186 119
20 1 23 158 216 229
20 2 15 255 186 119
20 2 16 255 186 119
20 2 17 255 186 119
20 2 18 255 186 119
20 2 19 255 186 119
20 2 20 255 186 119
20 2 21 255 186 119
20 2 22 255 186 119
20 2 23 158 216 229
20 3 15 255 186 119
20 3 16 255 186 119
20 3 17 255 186 119
20 3 18 255 186 119
20 3 19 255 186 119
20 3 20 255 186 119
20 3 21 255 186 119
20 3 22 255 186 119
20 3 23 158 216 229
20 4 15 255 186 119
20 4 16 255 186 119
20 4 17 255 186 119
20 4 18 255 186 119
20 4 19 255 186 119
20 4 20 255 186 119
20 4 21 255 186 119
20 4 22 255 186 119
20 4 23 158 216 229
20 5 16 255 186 119
20 5 17 255 186 119
20 5 18 255 186 119
20 5 19 255 186 119
20 5 20 255 186 119
20 5 21 255 186 119
20 5 22 255 186 119
20 5 23 158 216 229
20 6 15 255 186 119
20 6 20 255 186 119
20 6 21 255 186 119
20 6 22 255 186 119
20 7 15 255 186 119
20 7 16 255 186 119
20 7 17 255 186 119
20 7 18 196 175 214
20 7 19 196 175 214
20 7 21 255 186 119
20 7 22 158 216 229
20 7 23 158 216 229
20 8 15 196 175 214
20 8 16 196 175 214
20 8 18 196 175 214
20 8 19 196 175 214
20 8 20 196 175 214
20 9 19 196 175 214
20 9 20 196 175 214
20 9 21 196 175 214
20 9 22 158 216 229
20 10 21 255 186 119
20 10 22 158 216 229
20 11 22 158 216 229
20 11 23 158 216 229
20 12 22 158 216 229
20 12 23 158 216 229
20 13 22 158 216 229
20 13 23 158 216 229
20 14 22 158 216 229
20 15 22 158 216 229
20 16 22 158 216 229
20 16 23 158 216 229
20 17 23 158 216 229
21 0 15 43 160 4
21 0 16 43 160 4
21 0 17 43 160 4
21 0 18 43 160 4
21 0 19 43 160 4
21 0 20 43 160 4
21 0 21 43 160 4
21 0 22 43 160 4
21 0 23 43 160 4
21 0 24 43 160 4
21 0 25 43 160 4
21 0 26 43 160 4
21 0 27 43 160 4
21 0 28 43 160 4
21 0 29 43 160 4
21 0 30 43 160 4
21 0 31 43 160 4
21 0 32 43 160 4
21 0 33 43 160 4
21 0 34 43 160 4
21 0 35 43 160 4
21 0 36 43 160 4
21 0 37 43 160 4
21 0 38 43 160 4
21 0 39 43 160 4
21 0 40 43 160 4
21 0 41 43 160 4
21 0 42 43 160 4
21 0 43 43 160 4
21 0 44 43 160 4
21 0 45 43 160 4
21 0 46 43 160 4
21 0 47 43 160 4
21 0 48 43 160 4
21 0 49 43 160 4
21 0 50 43 160 4
21 0 51 43 160 4
21 0 52 43 160 4
21 0 53 43 160 4
21 0 54 43 160 4
21 0 55 43 160 4
21 0 56 43 160 4
21 0 57 43 160 4
21 0 58 43 160 4
21 0 59 43 160 4
21 1 14 255 186 119
21 1 15 255 186 119
21 1 16 255 186 119
21 1 17 255 186 119
21 1 18 255 186 119
21 1 19 255 186 119
21 1 20 255 186 119
21 1 21 255 186 119
21 1 22 255 186 119
21 1 23 158 216 229
21 2 14 255 186 119
21 2 15 255 186 119
21 2 16 255 186 119
21 2 17 255 186 119
21 2 18 255 186 119
21 2 19 255 186 119
21 2 20 255 186 119
21 2 21 255 186 119
21 2 22 255 186 119
21 2 23 158 216 229
21 3 14 255 186 119
21 3 15 255 186 119
21 3 16 255 186 119
21 3 17 255 186 119
21 3 18 255 186 119
21 3 19 255 186 119
21 3 20 255 186 119
21 3 21 255 186 119
21 3 22 255 186 119
21 3 23 158 216 229
21 4 14 255 186 119
21 4 15 255 186 119
21 4 16 255 186 119
21 4 17 255 186 119
21 4 18 255 186 119
21 4 19 255 186 119
21 4 20 255 186 119
21 4 21 255 186 119
21 4 22 255 186 119
21 4 23 158 216 229
21 5 14 255 186 119
21 5 15 255 186 119
21 5 16 255 186 119
21 5 17 255 186 119
21 5 18 255 186 119
21 5 19 255 186 119
21 5 20 255 186 119
21 5 21 255 186 119
21 5 22 255 186 119
21 5 23 158 216 229
21 6 20 255 186 119
21 6 21 255 186 119
21 6 22 255 186 119
21 6 23 158 216 229
21 7 14 255 186 119
21 7 15 255 186 119
21 7 16 255 186 119
21 7 17 255 186 119
21 7 18 255 186 119
21 7 19 255 186 119
21 7 21 255 186 119
21 7 22 158 216 229
21 7 23 158 216 229
21 8 16 196 175 214
21 8 17 196 175 214
21 8 18 196 175 214
21 8 19 196 175 214
21 8 20 196 175 214
21 9 19 196 175 214
21 9 20 196 175 214
21 9 21 196 175 214
21 9 22 158 216 229
21 9 23 158 216 229
21 10 22 158 216 229
21 10 23 158 216 229
21 11 22 158 216 229
21 11 23 158 216 229
21 12 22 158 216 229
21 12 23 158 216 229
21 13 22 158 216 229
21 13 23 158 216 229
21 14 22 158 216 229
21 14 23 158 216 229
21 15 22 158 216 229
21 15 23 158 216 229
21 16 22 158 216 229
21 16 23 158 216 229
21 17 23 158 216 229
22 0 16 43 160 4
22 0 17 43 160 4
22 0 18 43 160 4
22 0 19 43 160 4
22 0 20 43 160 4
22 0 21 43 160 4
22 0 22 43 160 4
22 0 23 43 160 4
22 0 24 43 160 4
22 0 25 43 160 4
22 0 26 43 160 4
22 0 27 43 160 4
22 0 28 43 160 4
22 0 29 43 160 4
22 0 30 43 160 4
22 0 31 43 160 4
22 0 32 43 160 4
22 0 33 43 160 4
22 0 34 43 160 4
22 0 35 43 160 4
22 0 36 43 160 4
22 0 37 43 160 4
22 0 38 43 160 4
22 0 39 43 160 4
22 0 40 43 160 4
22 0 41 43 160 4
22 0 42 43 160 4
22 0 43 43 160 4
22 0 44 43 160 4
22 0 45 43 160 4
22 0 46 43 160 4
22 0 47 43 160 4
22 0 48 43 160 4
22 0 49 43 160 4
22 0 50 43 160 4
22 0 51 43 160 4
22 0 52 43 160 4
22 0 53 43 160 4
22 0 54 43 160 4
22 0 55 43 160 4
22 0 56 43 160 4
22 0 57 43 160 4
22 0 58 43 160 4
22 0 59 43 160 4
22 1 14 255 186 119
22 1 15 255 186 119
22 1 16 255 186 119
22 1 17 255 186 119
22 1 18 255 186 119
22 1 19 255 186 119
22 1 20 255 186 119
22 1 21 255 186 119
22 1 22 255 186 119
22 1 23 158 216 229
22 2 13 255 186 119
22 2 14 255 186 119
22 2 15 255 186 119
22 2 16 255 186 119
22 2 17 255 186 119
22 2 18 255 186 119
22 2 19 255 186 119
22 2 20 255 186 119
22 2 21 255 186 119
22 2 22 255 186 119
22 2 23 158 216 229
22 3 12 255 186 119
22 3 13 255 186 119
22 3 14 255 186 119
22 3 15 255 186 119
22 3 16 255 186 119
22 3 17 255 186 119
22 3 18 255 186 119
22 3 19 255 186 119
22 3 20 255 186 119
22 3 21 255 186 119
22 3 22 255 186 119
22 3 23 158 216 229
22 4 12 255 186 119
22 4 13 255 186 119
22 4 14 255 186 119
22 4 15 255 186 119
22 4 16 255 186 119
22 4 17 255 186 119
22 4 18 255 186 119
22 4 19 255 186 119
22 4 20 255 186 119
22 4 21 255 186 119
22 4 22 255 186 119
22 4 23 158 216 229
22 5 12 255 186 119
22 5 13 255 186 119
22 5 14 255 186 119
22 5 15 255 186 119
22 5 16 255 186 119
22 5 17 255 186 119
22 5 18 255 186 119
22 5 19 255 186 119
22 5 20 255 186 119
22 5 21 255 186 119
22 5 22 255 186 119
22 5 23 158 216 229
22 6 12 255 186 119
22 6 21 255 186 119
22 6 22 255 186 119
22 6 23 158 216 229
22 7 12 255 186 119
22 7 13 255 186 119
22 7 14 255 186 119
22 7 15 255 186 119
22 7 16 255 186 119
22 7 17 255 186 119
22 7 18 255 186 119
22 7 19 255 186 119
22 8 12 255 186 119
22 8 19 196 175 214
22 8 20 196 175 214
22 8 21 196 175 214
22 8 22 158 216 229
22 9 19 196 175 214
22 9 20 196 175 214
22 9 21 196 175 214
22 9 22 158 216 229
22 9 23 158 216 229
22 10 22 158 216 229
22 10 23 158 216 229
22 11 22 158 216 229
22 11 23 158 216 229
22 12 22 158 216 229
22 12 23 158 216 229
22 13 22 158 216 229
22 13 23 158 216 229
22 14 22 158 216 229
22 14 23 158 216 229
22 15 22 158 216 229
22 15 23 158 216 229
22 16 22 158 216 229
22 16 23 158 216 229
22 17 23 158 216 229
23 0 16 43 160 4
23 0 17 43 160 4
23 0 18 43 160 4
23 0 19 43 160 4
23 0 20 43 160 4
23 0 21 43 160 4
23 0 22 43 160 4
23 0 23 43 160 4
23 0 24 43 160 4
23 0 25 43 160 4
23 0 26 43 160 4
23 0 27 43 160 4
23 0 28 43 160 4
23 0 29 43 160 4
23 0 30 43 160 4
23 0 31 43 160 4
23 0 32 43 160 4
23 0 33 43 160 4
23 0 34 43 160 4
23 0 35 43 160 4
23 0 36 43 160 4
23 0 37 43 160 4
23 0 38 43 160 4
23 0 39 43 160 4
23 0 40 43 160 4
23 0 41 43 160 4
23 0 42 43 160 4
23 0 43 43 160 4
23 0 44 43 160 4
23 0 45 43 160 4
23 0 46 43 160 4
23 0 47 43 160 4
23 0 48 43 160 4
23 0 49 43 160 4
23 0 50 43 160 4
23 0 51 43 160 4
23 0 52 43 160 4
23 0 53 43 160 4
23 0 54 43 160 4
23 0 55 43 160 4
23 0 56 43 160 4
23 0 57 43 160 4
23 0 58 43 160 4
23 0 59 43 160 4
23 1 14 255 186 119
23 1 15 255 186 119
23 1 16 255 186 119
23 1 17 255 186 119
23 1 18 255 186 119
23 1 19 255 186 119
23 1 20 255 186 119
23 1 21 255 186 119
23 1 22 255 186 119
23 1 23 158 216 229
23 2 13 255 186 119
23 2 14 255 186 119
23 2 15 255 186 119
23 2 16 255 186 119
23 2 17 255 186 119
23 2 18 255 186 119
23 2 19 255 186 119
23 2 20 255 186 119
23 2 21 255 186 119
23 2 22 255 186 119
23 2 23 158 216 229
23 3 11 255 186 119
23 3 12 255 186 119
23 3 13 255 186 119
23 3 14 255 186 119
23 3 15 255 186 119
23 3 16 255 186 119
23 3 17 255 186 119
23 3 18 255 186 119
23 3 19 255 186 119
23 3 20 255 186 119
23 3 21 255 186 119
23 3 22 255 186 119
23 3 23 158 216 229
23 4 11 255 186 119
23 4 12 255 186 119
23 4 13 255 186 119
23 4 14 255 186 119
23 4 15 255 186 119
23 4 16 255 186 119
23 4 17 255 186 119
23 4 18 255 186 119
23 4 19 255 186 119
23 4 20 255 186 119
23 4 21 255 186 119
23 4 22 255 186 119
23 4 23 158 216 229
23 5 11 255 186 119
23 5 12 255 186 119
23 5 13 255 186 119
23 5 14 255 186 119
23 5 15 255 186 119
23 5 16 255 186 119
23 5 17 255 186 119
23 5 18 255 186 119
23 5 19 255 186 119
23 5 20 255 186 119
23 5 21 255 186 119
23 5 22 255 186 119
23 5 23 158 216 229
23 6 10 255 186 119
23 6 23 158 216 229
23 7 10 255 186 119
23 7 11 255 186 119
23 7 12 255 186 119
23 7 13 255 186 119
23 7 14 255 186 119
23 7 15 255 186 119
23 7 16 255 186 119
23 7 17 255 186 119
23 7 18 255 186 119
23 7 19 255 186 119
23 7 20 255 186 119
23 7 21 255 186 119
23 7 22 158 216 229
23 8 10 255 186 119
23 8 19 196 175 214
23 8 20 255 186 119
23 8 21 255 186 119
23 8 22 158 216 229
23 8 23 158 216 229
23 9 20 255 186 119
23 9 21 255 186 119
23 9 22 158 216 229
23 10 22 158 216 229
23 10 23 158 216 229
23 11 22 158 216 229
23 11 23 158 216 229
23 12 22 158 216 229
23 12 23 158 216 229
23 13 22 158 216 229
23 13 23 158 216 229
23 14 22 158 216 229
23 14 23 158 216 229
23 15 22 158 216 229
23 15 23 158 216 229
23 16 22 158 216 229
23 16 23 158 216 229
23 17 22 158 216 229
23 17 23 158 216 229
24 0 16 43 160 4
24 0 17 43 160 4
24 0 18 43 160 4
24 0 19 43 160 4
24 0 20 43 160 4
24 0 21 43 160 4
24 0 22 43 160 4
24 0 23 43 160 4
24 0 24 43 160 4
24 0 25 43 160 4
24 0 26 43 160 4
24 0 27 43 160 4
24 0 28 43 160 4
24 0 29 43 160 4
24 0 30 43 160 4
24 0 31 43 160 4
24 0 32 43 160 4
24 0 33 43 160 4
24 0 34 43 160 4
24 0 35 43 160 4
24 0 36 43 160 4
24 0 37 43 160 4
24 0 38 43 160 4
24 0 39 43 160 4
24 0 40 43 160 4
24 0 41 43 160 4
24 0 42 43 160 4
24 0 43 43 160 4
24 0 44 43 160 4
24 0 45 43 160 4
24 0 46 43 160 4
24 0 47 43 160 4
24 0 48 43 160 4
24 0 49 43 160 4
24 0 50 43 160 4
24 0 51 43 160 4
24 0 52 43 160 4
24 0 53 43 160 4
24 0 54 43 160 4
24 0 55 43 160 4
24 0 56 43 160 4
24 0 57 43 160 4
24 0 58 43 160 4
24 0 59 43 160 4
24 1 15 255 186 119
24 1 16 255 186 119
24 1 17 255 186 119
24 1 18 255 186 119
24 1 19 255 186 119
24 1 20 255 186 119
24 1 21 255 186 119
24 1 22 255 186 119
24 1 23 158 216 229
24 2 13 255 186 119
24 2 14 255 186 119
24 2 15 255 186 119
24 2 16 255 186 119
24 2 17 255 186 119
24 2 18 255 186 119
24 2 19 255 186 119
24 2 20 255 186 119
24 2 21 255 186 119
24 2 22 255 186 119
24 2 23 158 216 229
24 3 12 255 186 119
24 3 13 255 186 119
24 3 14 255 186 119
24 3 15 255 186 119
24 3 16 255 186 119
24 3 17 255 186 119
24 3 18 255 186 119
24 3 19 255 186 119
24 3 20 255 186 119
24 3 21 255 186 119
24 3 22 255 186 119
24 3 23 158 216 229
24 4 10 255 186 119
24 4 11 255 186 119
24 4 12 255 186 119
24 4 13 255 186 119
24 4 14 255 186 119
24 4 15 255 186 119
24 4 16 255 186 119
24 4 17 255 186 119
24 4 18 255 186 119
24 4 19 255 186 119
24 4 20 255 186 119
24 4 21 255 186 119
24 4 22 255 186 119
24 4 23 158 216 229
24 5 10 255 186 119
24 5 11 255 186 119
24 5 12 255 186 119
24 5 13 255 186 119
24 5 14 255 186 119
24 5 15 255 186 119
24 5 16 255 186 119
24 5 17 255 186 119
24 5 18 255 186 119
24 5 19 255 186 119
24 5 20 255 186 119
24 5 21 255 186 119
24 5 22 255 186 119
24 5 23 158 216 229
24 7 9 255 186 119
24 7 10 255 186 119
24 7 11 255 186 119
24 7 12 255 186 119
24 7 13 255 186 119
24 7 14 255 186 119
24 7 15 255 186 119
24 7 16 255 186 119
24 7 17 255 186 119
24 7 18 255 186 119
24 7 19 255 186 119
24 7 20 255 186 119
24 7 21 255 186 119
24 7 22 158 216 229
24 7 23 158 216 229
24 8 20 255 186 119
24 8 21 255 186 119
24 8 22 158 216 229
24 8 23 158 216 229
24 9 22 158 216 229
24 9 23 158 216 229
24 10 22 158 216 229
24 10 23 158 216 229
24 11 22 158 216 229
24 11 23 158 216 229
24 12 22 158 216 229
24 12 23 158 216 229
24 13 22 158 216 229
24 13 23 158 216 229
24 14 22 158 216 229
24 14 23 158 216 229
24 15 22 158 216 229
24 15 23 158 216 229
24 16 22 158 216 229
24 16 23 158 216 229
24 17 22 158 216 229
24 17 23 158 216 229
25 0 18 43 160 4
25 0 19 43 160 4
25 0 20 43 160 4
25 0 21 43 160 4
25 0 22 43 160 4
25 0 23 43 160 4
25 0 24 43 160 4
25 0 25 43 160 4
25 0 26 43 160 4
25 0 27 43 160 4
25 0 28 43 160 4
25 0 29 43 160 4
25 0 30 43 160 4
25 0 31 43 160 4
25 0 32 43 160 4
25 0 33 43 160 4
25 0 34 43 160 4
25 0 35 43 160 4
25 0 36 43 160 4
25 0 37 43 160 4
25 0 38 43 160 4
25 0 39 43 160 4
25 0 40 43 160 4
25 0 41 43 160 4
25 0 42 43 160 4
25 0 43 43 160 4
25 0 44 43 160 4
25 0 45 43 160 4
25 0 46 43 160 4
25 0 47 43 160 4
25 0 48 43 160 4
25 0 49 43 160 4
25 0 50 43 160 4
25 0 51 43 160 4
25 0 52 43 160 4
25 0 53 43 160 4
25 0 54 43 160 4
25 0 55 43 160 4
25 0 56 43 160 4
25 0 57 43 160 4
25 0 58 43 160 4
25 0 59 43 160 4
25 1 18 255 186 119
25 1 19 255 186 119
25 1 20 255 186 119
25 1 21 255 186 119
25 1 22 255 186 119
25 1 23 158 216 229
25 2 14 255 186 119
25 2 17 255 186 119
25 2 18 255 186 119
25 2 19 255 186 119
25 2 20 255 186 119
25 2 21 255 186 119
25 2 22 255 186 119
25 2 23 158 216 229
25 3 12 255 186 119
25 3 13 255 186 119
25 3 14 255 186 119
25 3 16 255 186 119
25 3 17 255 186 119
25 3 18 255 186 119
25 3 19 255 186 119
25 3 20 255 186 119
25 3 21 255 186 119
25 3 22 255 186 119
25 3 23 158 216 229
25 4 11 255 186 119
25 4 12 255 186 119
25 4 16 255 186 119
25 4 17 255 186 119
25 4 21 255 186 119
25 4 22 255 186 119
25 4 23 158 216 229
25 5 10 255 186 119
25 5 23 158 216 229
25 6 10 255 186 119
25 6 12 255 186 119
25 6 13 255 186 119
25 6 14 255 186 119
25 6 15 255 186 119
25 6 17 255 186 119
25 6 18 255 186 119
25 6 19 255 186 119
25 6 20 255 186 119
25 6 21 255 186 119
25 6 22 255 186 119
25 7 7 255 186 119
25 7 8 255 186 119
25 7 9 255 186 119
25 7 10 255 186 119
25 7 11 255 186 119
25 7 12 255 186 119
25 7 13 255 186 119
25 7 14 255 186 119
25 7 15 255 186 119
25 7 16 255 186 119
25 7 17 255 186 119
25 7 18 255 186 119
25 7 19 255 186 119
25 7 20 255 186 119
25 7 21 255 186 119
25 7 22 158 216 229
25 8 7 255 186 119
25 8 22 158 216 229
25 8 23 158 216 229
25 8 24 158 216 229
25 9 22 158 216 229
25 9 23 158 216 229
25 10 22 158 216 229
25 10 23 158 216 229
25 11 21 158 216 229
25 11 22 158 216 229
25 11 23 158 216 229
25 12 22 158 216 229
25 12 23 158 216 229
25 13 22 158 216 229
25 13 23 158 216 229
25 14 22 158 216 229
25 14 23 158 216 229
25 15 22 158 216 229
25 15 23 158 216 229
25 16 22 158 216 229
25 16 23 158 216 229
25 17 21 158 216 229
25 17 22 158 216 229
25 17 23 158 216 229
26 0 19 43 160 4
26 0 20 43 160 4
26 0 21 43 160 4
26 0 22 43 160 4
26 0 23 43 160 4
26 0 24 43 160 4
26 0 25 43 160 4
26 0 26 43 160 4
26 0 27 43 160 4
26 0 28 43 160 4
26 0 29 43 160 4
26 0 30 43 160 4
26 0 31 43 160 4
26 0 32 43 160 4
26 0 33 43 160 4
26 0 34 43 160 4
26 0 35 43 160 4
26 0 36 43 160 4
26 0 37 43 160 4
26 0 38 43 160 4
26 0 39 43 160 4
26 0 40 43 160 4
26 0 41 43 160 4
26 0 42 43 160 4
26 0 43 43 160 4
26 0 44 43 160 4
26 0 45 43 160 4
26 0 46 43 160 4
26 0 47 43 160 4
26 0 48 43 160 4
26 0 49 43 160 4
26 0 50 43 160 4
26 0 51 43 160 4
26 0 52 43 160 4
26 0 53 43 160 4
26 0 54 43 160 4
26 0 55 43 160 4
26 0 56 43 160 4
26 0 57 43 160 4
26 0 58 43 160 4
26 0 59 43 160 4
26 1 16 255 186 119
26 1 19 255 186 119
26 1 20 255 186 119
26 1 21 255 186 119
26 1 22 255 186 119
26 1 23 158 216 229
26 2 14 255 186 119
26 2 15 255 186 119
26 2 16 255 186 119
26 2 18 255 186 119
26 2 19 255 186 119
26 2 20 255 186 119
26 2 21 255 186 119
26 2 22 255 186 119
26 2 23 158 216 229
26 3 12 255 186 119
26 3 13 255 186 119
26 3 14 255 186 119
26 3 15 255 186 119
26 3 16 255 186 119
26 3 21 255 186 119
26 3 22 255 186 119
26 3 23 255 186 119
26 4 10 255 186 119
26 4 11 255 186 119
26 4 12 255 186 119
26 4 13 255 186 119
26 4 14 255 186 119
26 4 15 255 186 119
26 4 17 255 186 119
26 4 19 255 186 119
26 4 23 255 186 119
26 5 9 255 186 119
26 5 10 255 186 119
26 5 11 255 186 119
26 5 12 255 186 119
26 5 13 255 186 119
26 5 14 255 186 119
26 5 15 255 186 119
26 5 16 255 186 119
26 5 17 255 186 119
26 5 18 255 186 119
26 5 19 255 186 119
26 5 20 255 186 119
26 5 21 255 186 119
26 5 22 255 186 119
26 6 7 255 186 119
26 6 8 255 186 119
26 6 9 255 186 119
26 6 10 255 186 119
26 6 11 255 186 119
26 6 12 255 186 119
26 6 13 255 186 119
26 6 14 255 186 119
26 6 15 255 186 119
26 6 16 255 186 119
26 6 17 255 186 119
26 6 18 255 186 119
26 6 19 255 186 119
26 6 20 255 186 119
26 6 21 255 186 119
26 6 22 255 186 119
26 7 6 255 186 119
26 7 7 255 186 119
26 7 8 255 186 119
26 7 9 255 186 119
26 7 10 255 186 119
26 7 11 255 186 119
26 7 12 255 186 119
26 7 13 255 186 119
26 7 14 255 186 119
26 7 15 255 186 119
26 7 16 255 186 119
26 7 17 255 186 119
26 7 18 255 186 119
26 7 19 255 186 119
26 7 20 255 186 119
26 7 21 255 186 119
26 7 22 158 216 229
26 7 23 158 216 229
26 8 22 158 216 229
26 8 23 158 216 229
26 9 22 158 216 229
26 9 23 158 216 229
26 10 22 158 216 229
26 10 23 158 216 229
26 11 22 158 216 229
26 11 23 158 216 229
26 12 22 158 216 229
26 12 23 158 216 229
26 13 22 158 216 229
26 13 23 158 216 229
26 14 22 158 216 229
26 14 23 158 216 229
26 15 22 158 216 229
26 15 23 158 216 229
26 16 22 158 216 229
26 16 23 158 216 229
26 17 21 158 216 229
26 17 22 158 216 229
26 17 23 158 216 229
27 0 18 43 160 4
27 0 19 43 160 4
27 0 20 43 160 4
27 0 21 43 160 4
27 0 22 43 160 4
27 0 23 43 160 4
27 0 24 43 160 4
27 0 25 43 160 4
27 0 26 43 160 4
27 0 27 43 160 4
27 0 28 43 160 4
27 0 29 43 160 4
27 0 30 43 160 4
27 0 31 43 160 4
27 0 32 43 160 4
27 0 33 43 160 4
27 0 34 43 160 4
27 0 35 43 160 4
27 0 36 43 160 4
27 0 37 43 160 4
27 0 38 43 160 4
27 0 39 43 160 4
27 0 40 43 160 4
27 0 41 43 160 4
27 0 42 43 160 4
27 0 43 43 160 4
27 0 44 43 160 4
27 0 45 43 160 4
27 0 46 43 160 4
27 0 47 43 160 4
27 0 48 43 160 4
27 0 49 43 160 4
27 0 50 43 160 4
27 0 51 43 160 4
27 0 52 43 160 4
27 0 53 43 160 4
27 0 54 43 160 4
27 0 55 43 160 4
27 0 56 43 160 4
27 0 57 43 160 4
27 0 58 43 160 4
27 0 59 43 160 4
27 1 15 255 186 119
27 1 16 255 186 119
27 1 18 255 186 119
27 1 19 255 186 119
27 1 20 255 186 119
27 1 21 255 186 119
27 1 22 255 186 119
27 1 23 158 216 229
27 2 14 255 186 119
27 2 15 255 186 119
27 2 16 255 186 119
27 2 18 255 186 119
27 2 19 255 186 119
27 2 20 255 186 119
27 2 21 255 186 119
27 2 22 255 186 119
27 2 23 158 216 229
27 3 12 255 186 119
27 3 13 255 186 119
27 3 14 255 186 119
27 3 15 255 186 119
27 3 16 255 186 119
27 3 21 255 186 119
27 3 22 255 186 119
27 3 23 158 216 229
27 4 11 255 186 119
27 4 12 255 186 119
27 4 13 255 186 119
27 4 14 255 186 119
27 4 15 255 186 119
27 4 16 255 186 119
27 4 17 255 186 119
27 4 18 255 186 119
27 4 19 255 186 119
27 4 20 255 186 119
27 4 21 255 186 119
27 5 9 255 186 119
27 5 10 255 186 119
27 5 11 255 186 119
27 5 12 255 186 119
27 5 13 255 186 119
27 5 14 255 186 119
27 5 15 255 186 119
27 5 16 255 186 119
27 5 17 255 186 119
27 5 18 255 186 119
27 5 19 255 186 119
27 5 20 255 186 119
27 5 21 255 186 119
27 5 22 255 186 119
27 5 23 158 216 229
27 6 8 255 186 119
27 6 9 255 186 119
27 6 10 255 186 119
27 6 11 255 186 119
27 6 12 255 186 119
27 6 13 255 186 119
27 6 14 255 186 119
27 6 15 255 186 119
27 6 16 255 186 119
27 6 17 255 186 119
27 6 18 255 186 119
27 6 19 255 186 119
27 6 20 255 186 119
27 6 21 255 186 119
27 6 22 158 216 229
27 6 23 158 216 229
27 7 6 255 186 119
27 7 8 255 186 119
27 7 12 255 186 119
27 7 15 255 186 119
27 7 22 158 216 229
27 7 23 158 216 229
27 8 22 158 216 229
27 8 23 158 216 229
27 9 22 158 216 229
27 9 23 158 216 229
27 10 22 158 216 229
27 10 23 158 216 229
27 11 22 158 216 229
27 11 23 158 216 229
27 12 22 158 216 229
27 12 23 158 216 229
27 13 22 158 216 229
27 13 23 158 216 229
27 14 22 158 216 229
27 14 23 158 216 229
27 15 22 158 216 229
27 15 23 158 216 229
27 16 22 158 216 229
27 16 23 158 216 229
27 17 21 158 216 229
27 17 22 158 216 229
27 17 23 158 216 229
28 0 17 43 160 4
28 0 18 43 160 4
28 0 20 43 160 4
28 0 21 43 160 4
28 0 22 43 160 4
28 0 23 43 160 4
28 0 24 43 160 4
28 0 25 43 160 4
28 0 26 43 160 4
28 0 27 43 160 4
28 0 28 43 160 4
28 0 29 43 160 4
28 0 30 43 160 4
28 0 31 43 160 4
28 0 32 43 160 4
28 0 33 43 160 4
28 0 34 43 160 4
28 0 35 43 160 4
28 0 36 43 160 4
28 0 37 43 160 4
28 0 38 43 160 4
28 0 39 43 160 4
28 0 40 43 160 4
28 0 41 43 160 4
28 0 42 43 160 4
28 0 43 43 160 4
28 0 44 43 160 4
28 0 45 43 160 4
28 0 46 43 160 4
28 0 47 43 160 4
28 0 48 43 160 4
28 0 49 43 160 4
28 0 50 43 160 4
28 0 51 43 160 4
28 0 52 43 160 4
28 0 53 43 160 4
28 0 54 43 160 4
28 0 55 43 160 4
28 0 56 43 160 4
28 0 57 43 160 4
28 0 58 43 160 4
28 0 59 43 160 4
28 1 15 255 186 119
28 1 16 255 186 119
28 1 17 255 186 119
28 1 18 255 186 119
28 1 20 255 186 119
28 1 21 255 186 119
28 1 22 255 186 119
28 1 23 158 216 229
28 2 15 255 186 119
28 2 16 255 186 119
28 2 17 255 186 119
28 2 20 255 186 119
28 2 21 255 186 119
28 2 22 255 186 119
28 2 23 158 216 229
28 3 15 255 186 119
28 3 16 255 186 119
28 3 20 255 186 119
28 3 21 255 186 119
28 3 22 255 186 119
28 3 23 158 216 229
28 4 15 255 186 119
28 4 16 255 186 119
28 4 17 255 186 119
28 4 18 255 186 119
28 5 9 255 186 119
28 5 16 255 186 119
28 5 17 255 186 119
28 5 18 255 186 119
28 5 19 255 186 119
28 5 20 255 186 119
28 5 21 255 186 119
28 5 22 255 186 119
28 5 23 158 216 229
28 6 17 255 186 119
28 6 18 255 186 119
28 6 19 255 186 119
28 6 20 255 186 119
28 6 22 158 216 229
28 6 23 158 216 229
28 7 22 158 216 229
28 7 23 158 216 229
28 8 22 158 216 229
28 8 23 158 216 229
28 8 24 158 216 229
28 9 22 158 216 229
28 9 23 158 216 229
28 10 22 158 216 229
28 10 23 158 216 229
28 11 22 158 216 229
28 11 23 158 216 229
28 12 21 158 216 229
28 12 22 158 216 229
28 12 23 158 216 229
28 13 22 158 216 229
28 13 23 158 216 229
28 14 22 158 216 229
28 14 23 158 216 229
28 15 22 158 216 229
28 15 23 158 216 229
28 16 22 158 216 229
28 16 23 158 216 229
28 17 22 158 216 229
28 17 23 158 216 229
29 0 17 43 160 4
29 0 18 43 160 4
29 0 19 43 160 4
29 0 21 43 160 4
29 0 22 43 160 4
29 0 23 43 160 4
29 0 24 43 160 4
29 0 25 43 160 4
29 0 26 43 160 4
29 0 27 43 160 4
29 0 28 43 160 4
29 0 29 43 160 4
29 0 30 43 160 4
29 0 31 43 160 4
29 0 32 43 160 4
29 0 33 43 160 4
29 0 34 43 160 4
29 0 35 43 160 4
29 0 36 43 160 4
29 0 37 43 160 4
29 0 38 43 160 4
29 0 39 43 160 4
29 0 40 43 160 4
29 0 41 43 160 4
29 0 42 43 160 4
29 0 43 43 160 4
29 0 44 43 160 4
29 0 45 43 160 4
29 0 46 43 160 4
29 0 47 43 160 4
29 0 48 43 160 4
29 0 49 43 160 4
29 0 50 43 160 4
29 0 51 43 160 4
29 0 52 43 160 4
29 0 53 43 160 4
29 0 54 43 160 4
29 0 55 43 160 4
29 0 56 43 160 4
29 0 57 43 160 4
29 0 58 43 160 4
29 0 59 43 160 4
29 1 15 255 186 119
29 1 16 255 186 119
29 1 17 255 186 119
29 1 18 255 186 119
29 1 19 255 186 119
29 1 21 255 186 119
29 1 22 158 216 229
29 1 23 158 216 229
29 2 16 255 186 119
29 2 17 255 186 119
29 2 18 255 186 119
29 2 20 255 186 119
29 2 21 255 186 119
29 2 22 158 216 229
29 2 23 158 216 229
29 3 15 255 186 119
29 3 16 255 186 119
29 3 17 255 186 119
29 3 18 255 186 119
29 3 20 255 186 119
29 3 23 158 216 229
29 4 16 255 186 119
29 4 17 255 186 119
29 5 16 255 186 119
29 5 17 255 186 119
29 5 18 255 186 119
29 5 19 255 186 119
29 5 20 255 186 119
29 5 21 255 186 119
29 5 22 158 216 229
29 5 23 158 216 229
29 6 17 255 186 119
29 6 18 255 186 119
29 6 19 255 186 119
29 6 20 255 186 119
29 6 21 255 186 119
29 6 22 158 216 229
29 6 23 158 216 229
29 7 22 158 216 229
29 7 23 158 216 229
29 8 22 158 216 229
29 8 23 158 216 229
29 9 22 158 216 229
29 9 23 158 216 229
29 10 22 158 216 229
29 10 23 158 216 229
29 11 22 158 216 229
29 11 23 158 216 229
29 12 22 158 216 229
29 12 23 158 216 229
29 13 22 158 216 229
29 13 23 158 216 229
29 14 22 158 216 229
29 14 23 158 216 229
29 15 22 158 216 229
29 15 23 158 216 229
29 16 22 158 216 229
29 16 23 158 216 229
29 17 22 158 216 229
29 17 23 158 216 229
29 18 23 158 216 229
30 0 17 43 160 4
30 0 20 43 160 4
30 0 21 43 160 4
30 0 22 43 160 4
30 0 23 43 160 4
30 0 24 43 160 4
30 0 25 43 160 4
30 0 26 43 160 4
30 0 27 43 160 4
30 0 28 43 160 4
30 0 29 43 160 4
30 0 30 43 160 4
30 0 31 43 160 4
30 0 32 43 160 4
30 0 33 43 160 4
30 0 34 43 160 4
30 0 35 43 160 4
30 0 36 43 160 4
30 0 37 43 160 4
30 0 38 43 160 4
30 0 39 43 160 4
30 0 40 43 160 4
30 0 41 43 160 4
30 0 42 43 160 4
30 0 43 43 160 4
30 0 44 43 160 4
30 0 45 43 160 4
30 0 46 43 160 4
30 0 47 43 160 4
30 0 48 43 160 4
30 0 49 43 160 4
30 0 50 43 160 4
30 0 51 43 160 4
30 0 52 43 160 4
30 0 53 43 160 4
30 0 54 43 160 4
30 0 55 43 160 4
30 0 56 43 160 4
30 0 57 43 160 4
30 0 58 43 160 4
30 0 59 43 160 4
30 1 16 196 175 214
30 1 17 196 175 214
30 1 18 255 127 12
30 1 20 255 127 12
30 1 21 255 127 12
30 1 22 158 216 229
30 1 23 158 216 229
30 2 16 196 175 214
30 2 17 255 127 12
30 2 20 255 127 12
30 2 21 255 127 12
30 2 23 158 216 229
30 3 16 255 127 12
30 3 17 255 127 12
30 3 22 158 216 229
30 4 16 255 127 12
30 4 17 255 127 12
30 4 19 255 127 12
30 4 20 255 127 12
30 4 21 255 127 12
30 4 22 158 216 229
30 5 16 255 127 12
30 5 17 255 127 12
30 5 18 255 127 12
30 5 19 255 127 12
30 5 20 255 127 12
30 5 21 255 127 12
30 5 22 158 216 229
30 5 23 158 216 229
30 6 16 255 186 119
30 6 22 158 216 229
30 6 23 158 216 229
30 6 24 158 216 229
30 7 22 158 216 229
30 7 23 158 216 229
30 8 22 158 216 229
30 8 23 158 216 229
30 9 22 158 216 229
30 9 23 158 216 229
30 10 22 158 216 229
30 10 23 158 216 229
30 11 22 158 216 229
30 11 23 158 216 229
30 12 22 158 216 229
30 12 23 158 216 229
30 13 22 158 216 229
30 13 23 158 216 229
30 14 22 158 216 229
30 14 23 158 216 229
30 15 22 158 216 229
30 15 23 158 216 229
30 16 22 158 216 229
30 16 23 158 216 229
30 17 22 158 216 229
30 17 23 158 216 229
30 18 23 158 216 229
31 0 17 43 160 4
31 0 18 43 160 4
31 0 19 43 160 4
31 0 20 43 160 4
31 0 21 43 160 4
31 0 22 43 160 4
31 0 23 43 160 4
31 0 24 43 160 4
31 0 25 43 160 4
31 0 26 43 160 4
31 0 27 43 160 4
31 0 28 43 160 4
31 0 29 43 160 4
31 0 30 43 160 4
31 0 31 43 160 4
31 0 32 43 160 4
31 0 33 43 160 4
31 0 34 43 160 4
31 0 35 43 160 4
31 0 36 43 160 4
31 0 37 43 160 4
31 0 38 43 160 4
31 0 39 43 160 4
31 0 40 43 160 4
31 0 41 43 160 4
31 0 42 43 160 4
31 0 43 43 160 4
31 0 44 43 160 4
31 0 45 43 160 4
31 0 46 43 160 4
31 0 47 43 160 4
31 0 48 43 160 4
31 0 49 43 160 4
31 0 50 43 160 4
31 0 51 43 160 4
31 0 52 43 160 4
31 0 53 43 160 4
31 0 54 43 160 4
31 0 55 43 160 4
31 0 56 43 160 4
31 0 57 43 160 4
31 0 58 43 160 4
31 0 59 43 160 4
31 1 16 196 175 214
31 1 19 255 127 12
31 1 20 255 127 12
31 1 21 255 127 12
31 1 22 158 216 229
31 1 23 158 216 229
31 2 16 196 175 214
31 2 18 255 127 12
31 2 19 255 127 12
31 2 20 255 127 12
31 2 21 255 127 12
31 2 23 158 216 229
31 3 16 255 127 12
31 3 19 255 127 12
31 3 22 158 216 229
31 4 16 255 127 12
31 4 17 255 127 12
31 4 20 255 127 12
31 4 21 255 127 12
31 4 22 255 127 12
31 5 16 255 127 12
31 5 17 255 127 12
31 5 18 255 127 12
31 5 21 255 127 12
31 5 22 158 216 229
31 5 23 158 216 229
31 6 16 255 127 12
31 6 22 158 216 229
31 6 23 158 216 229
31 7 22 158 216 229
31 7 23 158 216 229
31 8 22 158 216 229
31 8 23 158 216 229
31 9 22 158 216 229
31 9 23 158 216 229
31 10 22 158 216 229
31 10 23 158 216 229
31 11 22 158 216 229
31 11 23 158 216 229
31 12 22 158 216 229
31 12 23 158 216 229
31 13 22 158 216 229
31 13 23 158 216 229
31 14 22 158 216 229
31 14 23 158 216 229
31 15 22 158 216 229
31 15 23 158 216 229
31 16 22 158 216 229
31 16 23 158 216 229
31 17 22 158 216 229
31 17 23 158 216 229
31 18 23 158 216 229
32 0 19 43 160 4
32 0 20 43 160 4
32 0 21 43 160 4
32 0 22 43 160 4
32 0 23 43 160 4
32 0 24 43 160 4
32 0 25 43 160 4
32 0 26 43 160 4
32 0 27 43 160 4
32 0 28 43 160 4
32 0 29 43 160 4
32 0 30 43 160 4
32 0 31 43 160 4
32 0 32 43 160 4
32 0 33 43 160 4
32 0 34 43 160 4
32 0 35 43 160 4
32 0 36 43 160 4
32 0 37 43 160 4
32 0 38 43 160 4
32 0 39 43 160 4
32 0 40 43 160 4
32 0 41 43 160 4
32 0 42 43 160 4
32 0 43 43 160 4
32 0 44 43 160 4
32 0 45 43 160 4
32 0 46 43 160 4
32 0 47 43 160 4
32 0 48 43 160 4
32 0 49 43 160 4
32 0 50 43 160 4
32 0 51 43 160 4
32 0 52 43 160 4
32 0 53 43 160 4
32 0 54 43 160 4
32 0 55 43 160 4
32 0 56 43 160 4
32 0 57 43 160 4
32 0 58 43 160 4
32 0 59 43 160 4
32 1 16 196 175 214
32 1 17 196 175 214
32 1 19 255 127 12
32 1 20 255 127 12
32 1 21 255 127 12
32 1 22 255 127 12
32 1 23 158 216 229
32 2 16 196 175 214
32 2 17 255 127 12
32 2 19 255 127 12
32 2 23 158 216 229
32 3 16 255 127 12
32 3 17 255 127 12
32 3 21 255 127 12
32 3 22 255 127 12
32 4 16 255 127 12
32 4 17 255 127 12
32 4 18 255 127 12
32 4 19 255 127 12
32 4 20 255 127 12
32 4 21 255 127 12
32 4 22 255 127 12
32 5 16 255 127 12
32 5 17 255 127 12
32 5 18 255 127 12
32 5 19 255 127 12
32 5 20 255 127 12
32 5 21 255 127 12
32 5 22 158 216 229
32 5 23 158 216 229
32 6 16 196 175 214
32 6 17 255 127 12
32 6 22 158 216 229
32 6 23 158 216 229
32 7 22 158 216 229
32 7 23 158 216 229
32 8 22 158 216 229
32 8 23 158 216 229
32 9 22 158 216 229
32 9 23 158 216 229
32 10 22 158 216 229
32 10 23 158 216 229
32 11 22 158 216 229
32 11 23 158 216 229
32 12 22 158 216 229
32 12 23 158 216 229
32 13 22 158 216 229
32 13 23 158 216 229
32 14 22 158 216 229
32 14 23 158 216 229
32 15 22 158 216 229
32 15 23 158 216 229
32 16 22 158 216 229
32 16 23 158 216 229
32 17 22 158 216 229
32 17 23 158 216 229
32 18 22 158 216 229
32 18 23 158 216 229
33 0 19 43 160 4
33 0 20 43 160 4
33 0 21 43 160 4
33 0 22 43 160 4
33 0 23 43 160 4
33 0 24 43 160 4
33 0 25 43 160 4
33 0 26 43 160 4
33 0 27 43 160 4
33 0 28 43 160 4
33 0 29 43 160 4
33 0 30 43 160 4
33 0 31 43 160 4
33 0 32 43 160 4
33 0 33 43 160 4
33 0 34 43 160 4
33 0 35 43 160 4
33 0 36 43 160 4
33 0 37 43 160 4
33 0 38 43 160 4
33 0 39 43 160 4
33 0 40 43 160 4
33 0 41 43 160 4
33 0 42 43 160 4
33 0 43 43 160 4
33 0 44 43 160 4
33 0 45 43 160 4
33 0 46 43 160 4
33 0 47 43 160 4
33 0 48 43 160 4
33 0 49 43 160 4
33 0 50 43 160 4
33 0 51 43 160 4
33 0 52 43 160 4
33 0 53 43 160 4
33 0 54 43 160 4
33 0 55 43 160 4
33 0 56 43 160 4
33 0 57 43 160 4
33 0 58 43 160 4
33 0 59 43 160 4
33 1 16 196 175 214
33 1 17 196 175 214
33 1 18 255 127 12
33 1 19 255 127 12
33 1 20 255 127 12
33 1 21 255 127 12
33 1 22 255 127 12
33 1 23 158 216 229
33 2 17 255 127 12
33 2 18 255 127 12
33 2 22 255 127 12
33 3 17 255 127 12
33 3 18 255 127 12
33 3 19 255 127 12
33 3 20 255 127 12
33 3 21 255 127 12
33 3 22 255 127 12
33 4 17 255 127 12
33 4 18 255 127 12
33 4 19 255 127 12
33 4 20 255 127 12
33 4 21 255 127 12
33 4 22 255 127 12
33 5 18 255 127 12
33 5 19 255 127 12
33 5 20 255 127 12
33 5 21 255 127 12
33 5 22 158 216 229
33 5 23 158 216 229
33 6 22 158 216 229
33 6 23 158 216 229
33 6 24 158 216 229
33 7 22 158 216 229
33 7 23 158 216 229
33 8 22 158 216 229
33 8 23 158 216 229
33 9 22 158 216 229
33 9 23 158 216 229
33 10 22 158 216 229
33 10 23 158 216 229
33 11 22 158 216 229
33 11 23 158 216 229
33 12 22 158 216 229
33 12 23 158 216 229
33 13 22 158 216 229
33 13 23 158 216 229
33 14 22 158 216 229
33 14 23 158 216 229
33 15 22 158 216 229
33 15 23 158 216 229
33 16 22 158 216 229
33 16 23 158 216 229
33 17 22 158 216 229
33 17 23 158 216 229
33 18 22 158 216 229
33 18 23 158 216 229
34 0 18 43 160 4
34 0 20 43 160 4
34 0 21 43 160 4
34 0 22 43 160 4
34 0 23 43 160 4
34 0 24 43 160 4
34 0 25 43 160 4
34 0 26 43 160 4
34 0 27 43 160 4
34 0 28 43 160 4
34 0 29 43 160 4
34 0 30 43 160 4
34 0 31 43 160 4
34 0 32 43 160 4
34 0 33 43 160 4
34 0 34 43 160 4
34 0 35 43 160 4
34 0 36 43 160 4
34 0 37 43 160 4
34 0 38 43 160 4
34 0 39 43 160 4
34 0 40 43 160 4
34 0 41 43 160 4
34 0 42 43 160 4
34 0 43 43 160 4
34 0 44 43 160 4
34 0 45 43 160 4
34 0 46 43 160 4
34 0 47 43 160 4
34 0 48 43 160 4
34 0 49 43 160 4
34 0 50 43 160 4
34 0 51 43 160 4
34 0 52 43 160 4
34 0 53 43 160 4
34 0 54 43 160 4
34 0 55 43 160 4
34 0 56 43 160 4
34 0 57 43 160 4
34 0 58 43 160 4
34 0 59 43 160 4
34 1 16 196 175 214
34 1 17 255 127 12
34 1 18 255 127 12
34 1 21 255 127 12
34 1 22 255 127 12
34 2 17 255 127 12
34 2 18 255 127 12
34 3 17 255 127 12
34 3 18 255 127 12
34 3 19 255 127 12
34 3 20 255 127 12
34 3 21 255 127 12
34 3 22 255 127 12
34 4 17 255 127 12
34 4 18 255 127 12
34 4 19 255 127 12
34 4 20 255 127 12
34 4 21 255 127 12
34 4 22 255 127 12
34 4 23 158 216 229
34 5 21 255 127 12
34 5 22 158 216 229
34 5 23 158 216 229
34 6 22 158 216 229
34 6 23 158 216 229
34 7 22 158 216 229
34 7 23 158 216 229
34 8 22 158 216 229
34 8 23 158 216 229
34 9 22 158 216 229
34 9 23 158 216 229
34 10 22 158 216 229
34 10 23 158 216 229
34 11 22 158 216 229
34 11 23 158 216 229
34 12 22 158 216 229
34 12 23 158 216 229
34 13 22 158 216 229
34 13 23 158 216 229
34 14 22 158 216 229
34 14 23 158 216 229
34 15 22 158 216 229
34 15 23 158 216 229
34 16 22 158 216 229
34 16 23 158 216 229
34 17 22 158 216 229
34 17 23 158 216 229
34 18 22 158 216 229
34 18 23 158 216 229
35 0 18 43 160 4
35 0 19 43 160 4
35 0 22 43 160 4
35 0 23 43 160 4
35 0 24 43 160 4
35 0 25 43 160 4
35 0 26 43 160 4
35 0 27 43 160 4
35 0 28 43 160 4
35 0 29 43 160 4
35 0 30 43 160 4
35 0 31 43 160 4
35 0 32 43 160 4
35 0 33 43 160 4
35 0 34 43 160 4
35 0 35 43 160 4
35 0 36 43 160 4
35 0 37 43 160 4
35 0 38 43 160 4
35 0 39 43 160 4
35 0 40 43 160 4
35 0 41 43 160 4
35 0 42 43 160 4
35 0 43 43 160 4
35 0 44 43 160 4
35 0 45 43 160 4
35 0 46 43 160 4
35 0 47 43 160 4
35 0 48 43 160 4
35 0 49 43 160 4
35 0 50 43 160 4
35 0 51 43 160 4
35 0 52 43 160 4
35 0 53 43 160 4
35 0 54 43 160 4
35 0 55 43 160 4
35 0 56 43 160 4
35 0 57 43 160 4
35 0 58 43 160 4
35 0 59 43 160 4
35 1 17 255 127 12
35 1 18 255 127 12
35 1 19 255 127 12
35 1 20 255 127 12
35 1 23 158 216 229
35 2 17 255 127 12
35 2 18 255 127 12
35 2 19 255 127 12
35 2 20 255 127 12
35 2 21 255 127 12
35 3 18 255 127 12
35 3 19 255 127 12
35 3 20 255 127 12
35 3 21 255 127 12
35 4 18 255 127 12
35 4 19 255 127 12
35 4 20 255 127 12
35 4 21 255 127 12
35 4 22 255 127 12
35 5 21 255 127 12
35 5 22 158 216 229
35 5 23 158 216 229
35 6 22 158 216 229
35 6 23 158 216 229
35 7 22 158 216 229
35 7 23 158 216 229
35 8 22 158 216 229
35 8 23 158 216 229
35 9 22 158 216 229
35 9 23 158 216 229
35 10 22 158 216 229
35 10 23 158 216 229
35 11 22 158 216 229
35 11 23 158 216 229
35 12 22 158 216 229
35 12 23 158 216 229
35 13 22 158 216 229
35 13 23 158 216 229
35 14 22 158 216 229
35 14 23 158 216 229
35 15 22 158 216 229
35 15 23 158 216 229
35 16 22 158 216 229
35 16 23 158 216 229
35 17 22 158 216 229
35 17 23 158 216 229
35 18 22 158 216 229
35 18 23 158 216 229
36 0 18 43 160 4
36 0 19 43 160 4
36 0 20 43 160 4
36 0 21 43 160 4
36 0 22 43 160 4
36 0 24 43 160 4
36 0 25 43 160 4
36 0 26 43 160 4
36 0 27 43 160 4
36 0 28 43 160 4
36 0 29 43 160 4
36 0 30 43 160 4
36 0 31 43 160 4
36 0 32 43 160 4
36 0 33 43 160 4
36 0 34 43 160 4
36 0 35 43 160 4
36 0 36 43 160 4
36 0 37 43 160 4
36 0 38 43 160 4
36 0 39 43 160 4
36 0 40 43 160 4
36 0 41 43 160 4
36 0 42 43 160 4
36 0 43 43 160 4
36 0 44 43 160 4
36 0 45 43 160 4
36 0 46 43 160 4
36 0 47 43 160 4
36 0 48 43 160 4
36 0 49 43 160 4
36 0 50 43 160 4
36 0 51 43 160 4
36 0 52 43 160 4
36 0 53 43 160 4
36 0 54 43 160 4
36 0 55 43 160 4
36 0 56 43 160 4
36 0 57 43 160 4
36 0 58 43 160 4
36 0 59 43 160 4
36 1 19 255 127 12
36 1 20 255 127 12
36 1 21 255 127 12
36 1 22 158 216 229
36 2 19 255 127 12
36 2 20 255 127 12
36 2 21 255 127 12
36 2 22 158 216 229
36 2 23 158 216 229
36 3 20 255 127 12
36 3 21 255 127 12
36 3 22 158 216 229
36 3 23 158 216 229
36 4 21 255 127 12
36 4 22 158 216 229
36 4 23 158 216 229
36 5 22 158 216 229
36 5 23 158 216 229
36 6 22 158 216 229
36 6 23 158 216 229
36 7 22 158 216 229
36 7 23 158 216 229
36 8 22 158 216 229
36 8 23 158 216 229
36 9 22 158 216 229
36 9 23 158 216 229
36 10 22 158 216 229
36 10 23 158 216 229
36 11 22 158 216 229
36 11 23 158 216 229
36 12 22 158 216 229
36 12 23 158 216 229
36 13 22 158 216 229
36 13 23 158 216 229
36 14 22 158 216 229
36 14 23 158 216 229
36 15 22 158 216 229
36 15 23 158 216 229
36 16 22 158 216 229
36 16 23 158 216 229
36 17 22 158 216 229
36 17 23 158 216 229
36 18 22 158 216 229
36 18 23 158 216 229
37 0 19 43 160 4
37 0 20 43 160 4
37 0 21 43 160 4
37 0 22 43 160 4
37 0 23 43 160 4
37 0 25 43 160 4
37 0 26 43 160 4
37 0 27 43 160 4
37 0 28 43 160 4
37 0 29 43 160 4
37 0 30 43 160 4
37 0 31 43 160 4
37 0 32 43 160 4
37 0 33 43 160 4
37 0 34 43 160 4
37 0 35 43 160 4
37 0 36 43 160 4
37 0 37 43 160 4
37 0 38 43 160 4
37 0 39 43 160 4
37 0 40 43 160 4
37 0 41 43 160 4
37 0 42 43 160 4
37 0 43 43 160 4
37 0 44 43 160 4
37 0 45 43 160 4
37 0 46 43 160 4
37 0 47 43 160 4
37 0 48 43 160 4
37 0 49 43 160 4
37 0 50 43 160 4
37 0 51 43 160 4
37 0 52 43 160 4
37 0 53 43 160 4
37 0 54 43 160 4
37 0 55 43 160 4
37 0 56 43 160 4
37 0 57 43 160 4
37 0 58 43 160 4
37 0 59 43 160 4
37 1 21 255 127 12
37 1 22 158 216 229
37 1 23 158 216 229
37 2 22 158 216 229
37 2 23 158 216 229
37 3 22 158 216 229
37 3 23 158 216 229
37 4 22 158 216 229
37 4 23 158 216 229
37 5 22 158 216 229
37 5 23 158 216 229
37 6 22 158 216 229
37 6 23 158 216 229
37 7 22 158 216 229
37 7 23 158 216 229
37 8 22 158 216 229
37 8 23 158 216 229
37 9 22 158 216 229
37 9 23 158 216 229
37 10 22 158 216 229
37 10 23 158 216 229
37 11 22 158 216 229
37 11 23 158 216 229
37 12 22 158 216 229
37 12 23 158 216 229
37 13 22 158 216 229
37 13 23 158 216 229
37 14 22 158 216 229
37 14 23 158 216 229
37 15 22 158 216 229
37 15 23 158 216 229
37 16 22 158 216 229
37 16 23 158 216 229
37 17 22 158 216 229
37 17 23 158 216 229
37 18 22 158 216 229
37 18 23 158 216 229
38 0 19 43 160 4
38 0 20 43 160 4
38 0 21 43 160 4
38 0 22 43 160 4
38 0 24 43 160 4
38 0 25 43 160 4
38 0 26 43 160 4
38 0 27 43 160 4
38 0 28 43 160 4
38 0 29 43 160 4
38 0 30 43 160 4
38 0 31 43 160 4
38 0 32 43 160 4
38 0 33 43 160 4
38 0 34 43 160 4
38 0 35 43 160 4
38 0 36 43 160 4
38 0 37 43 160 4
38 0 38 43 160 4
38 0 39 43 160 4
38 0 40 43 160 4
38 0 41 43 160 4
38 0 42 43 160 4
38 0 43 43 160 4
38 0 44 43 160 4
38 0 45 43 160 4
38 0 46 43 160 4
38 0 47 43 160 4
38 0 48 43 160 4
38 0 49 43 160 4
38 0 50 43 160 4
38 0 51 43 160 4
38 0 52 43 160 4
38 0 53 43 160 4
38 0 54 43 160 4
38 0 55 43 160 4
38 0 56 43 160 4
38 0 57 43 160 4
38 0 58 43 160 4
38 0 59 43 160 4
38 1 22 158 216 229
38 1 23 158 216 229
38 2 22 158 216 229
38 2 23 158 216 229
38 3 22 158 216 229
38 3 23 158 216 229
38 4 22 158 216 229
38 4 23 158 216 229
38 5 22 158 216 229
38 5 23 158 216 229
38 6 22 158 216 229
38 6 23 158 216 229
38 7 22 158 216 229
38 7 23 158 216 229
38 8 22 158 216 229
38 8 23 158 216 229
38 9 22 158 216 229
38 9 23 158 216 229
38 10 22 158 216 229
38 10 23 158 216 229
38 11 22 158 216 229
38 11 23 158 216 229
38 12 22 158 216 229
38 12 23 158 216 229
38 13 22 158 216 229
38 13 23 158 216 229
38 14 22 158 216 229
38 14 23 158 216 229
38 15 22 158 216 229
38 15 23 158 216 229
38 16 22 158 216 229
38 16 23 158 216 229
38 17 22 158 216 229
38 17 23 158 216 229
38 18 22 158 216 229
38 18 23 158 216 229
38 19 23 158 216 229
39 0 19 43 160 4
39 0 20 43 160 4
39 0 21 43 160 4
39 0 22 43 160 4
39 0 24 43 160 4
39 0 25 43 160 4
39 0 26 43 160 4
39 0 27 43 160 4
39 0 28 43 160 4
39 0 29 43 160 4
39 0 30 43 160 4
39 0 31 43 160 4
39 0 32 43 160 4
39 0 33 43 160 4
39 0 34 43 160 4
39 0 35 43 160 4
39 0 36 43 160 4
39 0 37 43 160 4
39 0 38 43 160 4
39 0 39 43 160 4
39 0 40 43 160 4
39 0 41 43 160 4
39 0 42 43 160 4
39 0 43 43 160 4
39 0 44 43 160 4
39 0 45 43 160 4
39 0 46 43 160 4
39 0 47 43 160 4
39 0 48 43 160 4
39 0 49 43 160 4
39 0 50 43 160 4
39 0 51 43 160 4
39 0 52 43 160 4
39 0 53 43 160 4
39 0 54 43 160 4
39 0 55 43 160 4
39 0 56 43 160 4
39 0 57 43 160 4
39 0 58 43 160 4
39 0 59 43 160 4
39 1 17 255 127 12
39 1 22 158 216 229
39 1 23 158 216 229
39 2 22 158 216 229
39 2 23 158 216 229
39 3 22 158 216 229
39 3 23 158 216 229
39 4 22 158 216 229
39 4 23 158 216 229
39 5 22 158 216 229
39 5 23 158 216 229
39 6 22 158 216 229
39 6 23 158 216 229
39 7 22 158 216 229
39 7 23 158 216 229
39 8 22 158 216 229
39 8 23 158 216 229
39 9 22 158 216 229
39 9 23 158 216 229
39 10 22 158 216 229
39 10 23 158 216 229
39 11 22 158 216 229
39 11 23 158 216 229
39 12 22 158 216 229
39 12 23 158 216 229
39 13 22 158 216 229
39 13 23 158 216 229
39 14 22 158 216 229
39 14 23 158 216 229
39 15 22 158 216 229
39 15 23 158 216 229
39 16 22 158 216 229
39 16 23 158 216 229
39 17 22 158 216 229
39 17 23 158 216 229
39 18 22 158 216 229
39 18 23 158 216 229
39 19 23 158 216 229
40 0 19 43 160 4
40 0 20 43 160 4
40 0 21 43 160 4
40 0 22 43 160 4
40 0 24 43 160 4
40 0 25 43 160 4
40 0 26 43 160 4
40 0 27 43 160 4
40 0 28 43 160 4
40 0 29 43 160 4
40 0 30 43 160 4
40 0 31 43 160 4
40 0 32 43 160 4
40 0 33 43 160 4
40 0 34 43 160 4
40 0 35 43 160 4
40 0 36 43 160 4
40 0 37 43 160 4
40 0 38 43 160 4
40 0 39 43 160 4
40 0 40 43 160 4
40 0 41 43 160 4
40 0 42 43 160 4
40 0 43 43 160 4
40 0 44 43 160 4
40 0 45 43 160 4
40 0 46 43 160 4
40 0 47 43 160 4
40 0 48 43 160 4
40 0 49 43 160 4
40 0 50 43 160 4
40 0 51 43 160 4
40 0 52 43 160 4
40 0 53 43 160 4
40 0 54 43 160 4
40 0 55 43 160 4
40 0 56 43 160 4
40 0 57 43 160 4
40 0 58 43 160 4
40 0 59 43 160 4
40 1 22 158 216 229
40 1 23 158 216 229
40 1 24 158 216 229
40 2 22 158 216 229
40 2 23 158 216 229
40 3 22 158 216 229
40 3 23 158 216 229
40 4 22 158 216 229
40 4 23 158 216 229
40 5 22 158 216 229
40 5 23 158 216 229
40 6 22 196 175 214
40 6 23 158 216 229
40 7 22 196 175 214
40 7 23 158 216 229
40 8 22 196 175 214
40 8 23 158 216 229
40 9 22 196 175 214
40 9 23 158 216 229
40 10 22 158 216 229
40 10 23 158 216 229
40 11 22 196 175 214
40 11 23 158 216 229
40 12 22 196 175 214
40 12 23 158 216 229
40 13 22 196 175 214
40 13 23 158 216 229
40 14 22 196 175 214
40 14 23 158 216 229
40 15 22 196 175 214
40 15 23 158 216 229
40 16 22 196 175 214
40 16 23 158 216 229
40 17 22 196 175 214
40 17 23 158 216 229
40 18 22 196 175 214
40 18 23 158 216 229
40 19 22 196 175 214
40 19 23 158 216 229
41 0 19 43 160 4
41 0 20 43 160 4
41 0 21 43 160 4
41 0 22 43 160 4
41 0 24 43 160 4
41 0 25 43 160 4
41 0 26 43 160 4
41 0 27 43 160 4
41 0 28 43 160 4
41 0 29 43 160 4
41 0 30 43 160 4
41 0 31 43 160 4
41 0 32 43 160 4
41 0 33 43 160 4
41 0 34 43 160 4
41 0 35 43 160 4
41 0 36 43 160 4
41 0 37 43 160 4
41 0 38 43 160 4
41 0 39 43 160 4
41 0 40 43 160 4
41 0 41 43 160 4
41 0 42 43 160 4
41 0 43 43 160 4
41 0 44 43 160 4
41 0 45 43 160 4
41 0 46 43 160 4
41 0 47 43 160 4
41 0 48 43 160 4
41 0 49 43 160 4
41 0 50 43 160 4
41 0 51 43 160 4
41 0 52 43 160 4
41 0 53 43 160 4
41 0 54 43 160 4
41 0 55 43 160 4
41 0 56 43 160 4
41 0 57 43 160 4
41 0 58 43 160 4
41 0 59 43 160 4
41 1 21 196 175 214
41 1 22 158 216 229
41 1 23 158 216 229
41 1 24 158 216 229
41 2 22 158 216 229
41 2 23 158 216 229
41 2 24 158 216 229
41 3 22 158 216 229
41 3 23 158 216 229
41 4 22 158 216 229
41 4 23 158 216 229
41 4 24 158 216 229
41 5 22 158 216 229
41 5 23 158 216 229
41 6 21 196 175 214
41 6 22 196 175 214
41 6 23 158 216 229
41 7 21 196 175 214
41 7 22 196 175 214
41 7 23 158 216 229
41 8 21 196 175 214
41 8 22 196 175 214
41 8 23 158 216 229
41 9 21 196 175 214
41 9 22 196 175 214
41 9 23 158 216 229
41 10 21 196 175 214
41 10 22 196 175 214
41 10 23 158 216 229
41 10 24 158 216 229
41 11 21 196 175 214
41 11 22 196 175 214
41 11 23 158 216 229
41 12 22 196 175 214
41 12 23 158 216 229
41 13 22 196 175 214
41 13 23 158 216 229
41 14 22 196 175 214
41 14 23 158 216 229
41 15 22 196 175 214
41 15 23 158 216 229
41 16 22 196 175 214
41 16 23 158 216 229
41 17 22 196 175 214
41 17 23 158 216 229
41 18 22 196 175 214
41 18 23 158 216 229
41 19 23 158 216 229
42 0 20 43 160 4
42 0 21 43 160 4
42 0 22 43 160 4
42 0 23 43 160 4
42 0 24 43 160 4
42 0 25 43 160 4
42 0 26 43 160 4
42 0 27 43 160 4
42 0 28 43 160 4
42 0 29 43 160 4
42 0 30 43 160 4
42 0 31 43 160 4
42 0 32 43 160 4
42 0 33 43 160 4
42 0 34 43 160 4
42 0 35 43 160 4
42 0 36 43 160 4
42 0 37 43 160 4
42 0 38 43 160 4
42 0 39 43 160 4
42 0 40 43 160 4
42 0 41 43 160 4
42 0 42 43 160 4
42 0 43 43 160 4
42 0 44 43 160 4
42 0 45 43 160 4
42 0 46 43 160 4
42 0 47 43 160 4
42 0 48 43 160 4
42 0 49 43 160 4
42 0 50 43 160 4
42 0 51 43 160 4
42 0 52 43 160 4
42 0 53 43 160 4
42 0 54 43 160 4
42 0 55 43 160 4
42 0 56 43 160 4
42 0 57 43 160 4
42 0 58 43 160 4
42 0 59 43 160 4
42 1 22 158 216 229
42 1 23 158 216 229
42 2 22 158 216 229
42 2 23 158 216 229
42 3 22 158 216 229
42 3 23 158 216 229
42 4 22 158 216 229
42 4 23 158 216 229
42 5 22 158 216 229
42 5 23 158 216 229
42 6 19 196 175 214
42 6 20 196 175 214
42 6 21 196 175 214
42 6 22 158 216 229
42 6 23 158 216 229
42 7 20 196 175 214
42 7 21 196 175 214
42 7 22 196 175 214
42 7 24 158 216 229
42 8 20 196 175 214
42 8 21 196 175 214
42 9 21 196 175 214
42 9 22 196 175 214
42 10 21 196 175 214
42 10 22 158 216 229
42 11 21 196 175 214
42 11 22 158 216 229
42 11 23 158 216 229
42 12 22 158 216 229
42 12 23 158 216 229
42 13 22 158 216 229
42 13 23 158 216 229
42 14 23 158 216 229
42 15 23 158 216 229
42 16 23 158 216 229
43 0 20 43 160 4
43 0 21 43 160 4
43 0 22 43 160 4
43 0 23 43 160 4
43 0 25 43 160 4
43 0 26 43 160 4
43 0 27 43 160 4
43 0 28 43 160 4
43 0 29 43 160 4
43 0 30 43 160 4
43 0 31 43 160 4
43 0 32 43 160 4
43 0 33 43 160 4
43 0 34 43 160 4
43 0 35 43 160 4
43 0 36 43 160 4
43 0 37 43 160 4
43 0 38 43 160 4
43 0 39 43 160 4
43 0 40 43 160 4
43 0 41 43 160 4
43 0 42 43 160 4
43 0 43 43 160 4
43 0 44 43 160 4
43 0 45 43 160 4
43 0 46 43 160 4
43 0 47 43 160 4
43 0 48 43 160 4
43 0 49 43 160 4
43 0 50 43 160 4
43 0 51 43 160 4
43 0 52 43 160 4
43 0 53 43 160 4
43 0 54 43 160 4
43 0 55 43 160 4
43 0 56 43 160 4
43 0 57 43 160 4
43 0 58 43 160 4
43 0 59 43 160 4
43 1 19 196 175 214
43 1 22 158 216 229
43 1 23 158 216 229
43 2 22 158 216 229
43 2 23 158 216 229
43 3 22 158 216 229
43 3 23 158 216 229
43 4 22 158 216 229
43 4 23 158 216 229
43 4 24 158 216 229
43 5 21 196 175 214
43 5 22 158 216 229
43 5 23 158 216 229
43 5 24 158 216 229
43 6 21 196 175 214
43 6 22 158 216 229
43 8 23 158 216 229
43 9 23 158 216 229
44 0 21 43 160 4
44 0 22 43 160 4
44 0 23 43 160 4
44 0 25 43 160 4
44 0 26 43 160 4
44 0 27 43 160 4
44 0 28 43 160 4
44 0 29 43 160 4
44 0 30 43 160 4
44 0 31 43 160 4
44 0 32 43 160 4
44 0 33 43 160 4
44 0 34 43 160 4
44 0 35 43 160 4
44 0 36 43 160 4
44 0 37 43 160 4
44 0 38 43 160 4
44 0 39 43 160 4
44 0 40 43 160 4
44 0 41 43 160 4
44 0 42 43 160 4
44 0 43 43 160 4
44 0 44 43 160 4
44 0 45 43 160 4
44 0 46 43 160 4
44 0 47 43 160 4
44 0 48 43 160 4
44 0 49 43 160 4
44 0 50 43 160 4
44 0 51 43 160 4
44 0 52 43 160 4
44 0 53 43 160 4
44 0 54 43 160 4
44 0 55 43 160 4
44 0 56 43 160 4
44 0 57 43 160 4
44 0 58 43 160 4
44 0 59 43 160 4
44 1 21 158 216 229
44 1 22 158 216 229
44 1 23 158 216 229
44 2 21 158 216 229
44 2 22 158 216 229
44 2 23 158 216 229
44 3 22 158 216 229
44 3 23 158 216 229
44 4 22 158 216 229
44 4 23 158 216 229
44 5 23 158 216 229
45 0 22 43 160 4
45 0 24 43 160 4
45 0 25 43 160 4
45 0 26 43 160 4
45 0 27 43 160 4
45 0 28 43 160 4
45 0 29 43 160 4
45 0 30 43 160 4
45 0 31 43 160 4
45 0 32 43 160 4
45 0 33 43 160 4
45 0 34 43 160 4
45 0 35 43 160 4
45 0 36 43 160 4
45 0 37 43 160 4
45 0 38 43 160 4
45 0 39 43 160 4
45 0 40 43 160 4
45 0 41 43 160 4
45 0 42 43 160 4
45 0 43 43 160 4
45 0 44 43 160 4
45 0 45 43 160 4
45 0 46 43 160 4
45 0 47 43 160 4
45 0 48 43 160 4
45 0 49 43 160 4
45 0 50 43 160 4
45 0 51 43 160 4
45 0 52 43 160 4
45 0 53 43 160 4
45 0 54 43 160 4
45 0 55 43 160 4
45 0 56 43 160 4
45 0 57 43 160 4
45 0 58 43 160 4
45 0 59 43 160 4
45 1 23 158 216 229
45 2 23 158 216 229
45 3 23 158 216 229
46 0 24 43 160 4
46 0 25 43 160 4
46 0 26 43 160 4
46 0 27 43 160 4
46 0 28 43 160 4
46 0 29 43 160 4
46 0 30 43 160 4
46 0 31 43 160 4
46 0 32 43 160 4
46 0 33 43 160 4
46 0 34 43 160 4
46 0 35 43 160 4
46 0 36 43 160 4
46 0 37 43 160 4
46 0 38 43 160 4
46 0 39 43 160 4
46 0 40 43 160 4
46 0 41 43 160 4
46 0 42 43 160 4
46 0 43 43 160 4
46 0 44 43 160 4
46 0 45 43 160 4
46 0 46 43 160 4
46 0 47 43 160 4
46 0 48 43 160 4
46 0 49 43 160 4
46 0 50 43 160 4
46 0 51 43 160 4
46 0 52 43 160 4
46 0 53 43 160 4
46 0 54 43 160 4
46 0 55 43 160 4
46 0 56 43 160 4
46 0 57 43 160 4
46 0 58 43 160 4
46 0 59 43 160 4
47 0 26 43 160 4
47 0 27 43 160 4
47 0 28 43 160 4
47 0 29 43 160 4
47 0 30 43 160 4
47 0 31 43 160 4
47 0 32 43 160 4
47 0 33 43 160 4
47 0 34 43 160 4
47 0 35 43 160 4
47 0 36 43 160 4
47 0 37 43 160 4
47 0 38 43 160 4
47 0 39 43 160 4
47 0 40 43 160 4
47 0 41 43 160 4
47 0 42 43 160 4
47 0 43 43 160 4
47 0 44 43 160 4
47 0 45 43 160 4
47 0 46 43 160 4
47 0 47 43 160 4
47 0 48 43 160 4
47 0 49 43 160 4
47 0 50 43 160 4
47 0 51 43 160 4
47 0 52 43 160 4
47 0 53 43 160 4
47 0 54 43 160 4
47 0 55 43 160 4
47 0 56 43 160 4
47 0 57 43 160 4
47 0 58 43 160 4
47 0 59 43 160 4
48 0 28 43 160 4
48 0 29 43 160 4
48 0 30 43 160 4
48 0 31 43 160 4
48 0 32 43 160 4
48 0 33 43 160 4
48 0 34 43 160 4
48 0 35 43 160 4
48 0 36 43 160 4
48 0 37 43 160 4
48 0 38 43 160 4
48 0 39 43 160 4
48 0 40 43 160 4
48 0 41 43 160 4
48 0 42 43 160 4
48 0 43 43 160 4
48 0 44 43 160 4
48 0 45 43 160 4
48 0 46 43 160 4
48 0 47 43 160 4
48 0 48 43 160 4
48 0 49 43 160 4
48 0 50 43 160 4
48 0 51 43 160 4
48 0 52 43 160 4
48 0 53 43 160 4
48 0 54 43 160 4
48 0 55 43 160 4
48 0 56 43 160 4
48 0 57 43 160 4
48 0 58 43 160 4
48 0 59 43 160 4
49 0 29 43 160 4
49 0 30 43 160 4
49 0 31 43 160 4
49 0 32 43 160 4
49 0 33 43 160 4
49 0 34 43 160 4
49 0 35 43 160 4
49 0 36 43 160 4
49 0 37 43 160 4
49 0 38 43 160 4
49 0 39 43 160 4
49 0 40 43 160 4
49 0 41 43 160 4
49 0 42 43 160 4
49 0 43 43 160 4
49 0 44 43 160 4
49 0 45 43 160 4
49 0 46 43 160 4
49 0 47 43 160 4
49 0 48 43 160 4
49 0 49 43 160 4
49 0 50 43 160 4
49 0 51 43 160 4
49 0 52 43 160 4
49 0 53 43 160 4
49 0 54 43 160 4
49 0 55 43 160 4
49 0 56 43 160 4
49 0 57 43 160 4
49 0 58 43 160 4
49 0 59 43 160 4
50 0 31 43 160 4
50 0 32 43 160 4
50 0 33 43 160 4
50 0 34 43 160 4
50 0 35 43 160 4
50 0 36 43 160 4
50 0 37 43 160 4
50 0 38 43 160 4
50 0 39 43 160 4
50 0 40 43 160 4
50 0 41 43 160 4
50 0 42 43 160 4
50 0 43 43 160 4
50 0 44 43 160 4
50 0 45 43 160 4
50 0 46 43 160 4
50 0 47 43 160 4
50 0 48 43 160 4
50 0 49 43 160 4
50 0 50 43 160 4
50 0 51 43 160 4
50 0 52 43 160 4
50 0 53 43 160 4
50 0 54 43 160 4
50 0 55 43 160 4
50 0 56 43 160 4
50 0 57 43 160 4
50 0 58 43 160 4
50 0 59 43 160 4
50 6 33 158 216 229
51 0 33 43 160 4
51 0 34 43 160 4
51 0 35 43 160 4
51 0 36 43 160 4
51 0 37 43 160 4
51 0 38 43 160 4
51 0 39 43 160 4
51 0 40 43 160 4
51 0 41 43 160 4
51 0 42 43 160 4
51 0 43 43 160 4
51 0 44 43 160 4
51 0 45 43 160 4
51 0 46 43 160 4
51 0 47 43 160 4
51 0 48 43 160 4
51 0 49 43 160 4
51 0 50 43 160 4
51 0 51 43 160 4
51 0 52 43 160 4
51 0 53 43 160 4
51 0 54 43 160 4
51 0 55 43 160 4
51 0 56 43 160 4
51 0 57 43 160 4
51 0 58 43 160 4
51 0 59 43 160 4
51 2 33 158 216 229
52 0 34 43 160 4
52 0 35 43 160 4
52 0 36 43 160 4
52 0 37 43 160 4
52 0 38 43 160 4
52 0 39 43 160 4
52 0 40 43 160 4
52 0 41 43 160 4
52 0 42 43 160 4
52 0 43 43 160 4
52 0 44 43 160 4
52 0 45 43 160 4
52 0 46 43 160 4
52 0 47 43 160 4
52 0 48 43 160 4
52 0 49 43 160 4
52 0 50 43 160 4
52 0 51 43 160 4
52 0 52 43 160 4
52 0 53 43 160 4
52 0 54 43 160 4
52 0 55 43 160 4
52 0 56 43 160 4
52 0 57 43 160 4
52 0 58 43 160 4
52 0 59 43 160 4
53 0 36 43 160 4
53 0 37 43 160 4
53 0 38 43 160 4
53 0 39 43 160 4
53 0 40 43 160 4
53 0 41 43 160 4
53 0 42 43 160 4
53 0 43 43 160 4
53 0 44 43 160 4
53 0 45 43 160 4
53 0 46 43 160 4
53 0 47 43 160 4
53 0 48 43 160 4
53 0 49 43 160 4
53 0 50 43 160 4
53 0 51 43 160 4
53 0 52 43 160 4
53 0 53 43 160 4
53 0 54 43 160 4
53 0 55 43 160 4
53 0 56 43 160 4
53 0 57 43 160 4
53 0 58 43 160 4
53 0 59 43 160 4
54 0 38 43 160 4
54 0 39 43 160 4
54 0 40 43 160 4
54 0 41 43 160 4
54 0 42 43 160 4
54 0 43 43 160 4
54 0 44 43 160 4
54 0 45 43 160 4
54 0 46 43 160 4
54 0 47 43 160 4
54 0 48 43 160 4
54 0 49 43 160 4
54 0 50 43 160 4
54 0 51 43 160 4
54 0 52 43 160 4
54 0 53 43 160 4
54 0 54 43 160 4
54 0 55 43 160 4
54 0 56 43 160 4
54 0 57 43 160 4
54 0 58 43 160 4
54 0 59 43 160 4
54 4 39 255 127 12
55 0 40 43 160 4
55 0 41 43 160 4
55 0 42 43 160 4
55 0 43 43 160 4
55 0 44 43 160 4
55 0 45 43 160 4
55 0 46 43 160 4
55 0 47 43 160 4
55 0 48 43 160 4
55 0 49 43 160 4
55 0 50 43 160 4
55 0 51 43 160 4
55 0 52 43 160 4
55 0 53 43 160 4
55 0 54 43 160 4
55 0 55 43 160 4
55 0 56 43 160 4
55 0 57 43 160 4
55 0 58 43 160 4
55 0 59 43 160 4
56 0 41 43 160 4
56 0 42 43 160 4
56 0 43 43 160 4
56 0 44 43 160 4
56 0 45 43 160 4
56 0 46 43 160 4
56 0 47 43 160 4
56 0 48 43 160 4
56 0 49 43 160 4
56 0 50 43 160 4
56 0 51 43 160 4
56 0 52 43 160 4
56 0 53 43 160 4
56 0 54 43 160 4
56 0 55 43 160 4
56 0 56 43 160 4
56 0 57 43 160 4
56 0 58 43 160 4
56 0 59 43 160 4
57 0 43 43 160 4
57 0 44 43 160 4
57 0 45 43 160 4
57 0 46 43 160 4
57 0 47 43 160 4
57 0 48 43 160 4
57 0 49 43 160 4
57 0 50 43 160 4
57 0 51 43 160 4
57 0 52 43 160 4
57 0 53 43 160 4
57 0 54 43 160 4
57 0 55 43 160 4
57 0 56 43 160 4
57 0 57 43 160 4
57 0 58 43 160 4
57 0 59 43 160 4
58 0 45 43 160 4
58 0 46 43 160 4
58 0 47 43 160 4
58 0 48 43 160 4
58 0 49 43 160 4
58 0 50 43 160 4
58 0 51 43 160 4
58 0 52 43 160 4
58 0 53 43 160 4
58 0 54 43 160 4
58 0 55 43 160 4
58 0 56 43 160 4
58 0 57 43 160 4
58 0 58 43 160 4
58 0 59 43 160 4
59 0 47 43 160 4
59 0 48 43 160 4
59 0 49 43 160 4
59 0 50 43 160 4
59 0 51 43 160 4
59 0 52 43 160 4
59 0 53 43 160 4
59 0 54 43 160 4
59 0 55 43 160 4
59 0 56 43 160 4
59 0 57 43 160 4
59 0 58 43 160 4
59 0 59 43 160 4
