ply
format ascii 1.0
element vertex 3944
property float x
property float y
property float z
property uchar red
property uchar green
property uchar blue
end_header
12 0 27 158 216 229
12 0 28 158 216 229
12 0 29 158 216 229
12 0 30 158 216 229
12 1 27 158 216 229
12 1 28 158 216 229
12 1 29 158 216 229
12 1 30 158 216 229
12 2 27 255 186 119
12 2 28 158 216 229
12 2 29 158 216 229
12 2 30 158 216 229
12 3 27 255 186 119
12 3 28 158 216 229
12 3 29 158 216 229
12 3 30 158 216 229
12 4 28 158 216 229
12 4 29 158 216 229
12 4 30 158 216 229
12 5 28 158 216 229
12 5 29 158 216 229
12 5 30 158 216 229
12 6 28 158 216 229
12 6 29 158 216 229
12 6 30 158 216 229
12 7 28 158 216 229
12 7 29 158 216 229
12 7 30 158 216 229
12 8 28 158 216 229
12 8 29 158 216 229
12 8 30 158 216 229
12 9 28 158 216 229
12 9 29 158 216 229
12 9 30 158 216 229
12 9 31 158 216 229
12 10 28 158 216 229
12 10 29 158 216 229
12 10 30 158 216 229
12 10 31 158 216 229
12 11 28 158 216 229
12 11 29 158 216 229
12 11 30 158 216 229
12 11 31 158 216 229
12 12 30 158 216 229
12 12 31 114 158 206
13 0 26 255 186 119
13 0 27 255 186 119
13 0 28 255 186 119
13 0 29 255 186 119
13 0 30 158 216 229
13 0 31 158 216 229
13 0 32 158 216 229
13 1 26 255 186 119
13 1 27 255 186 119
13 1 28 255 186 119
13 1 29 255 186 119
13 1 30 158 216 229
13 1 31 158 216 229
13 1 32 158 216 229
13 2 26 255 186 119
13 2 27 255 186 119
13 2 28 255 186 119
13 2 29 255 186 119
13 2 30 158 216 229
13 2 31 158 216 229
13 2 32 158 216 229
13 2 33 158 216 229
13 3 26 255 186 119
13 3 27 255 186 119
13 3 28 255 186 119
13 3 29 255 186 119
13 3 30 158 216 229
13 3 31 158 216 229
13 3 32 158 216 229
13 3 33 158 216 229
13 4 26 255 186 119
13 4 27 255 186 119
13 4 28 255 186 119
13 4 29 255 186 119
13 4 30 158 216 229
13 4 31 158 216 229
13 4 32 158 216 229
13 4 33 158 216 229
13 5 26 255 186 119
13 5 27 255 186 119
13 5 28 255 186 119
13 5 29 255 186 119
13 5 30 158 216 229
13 5 31 158 216 229
13 5 32 158 216 229
13 5 33 158 216 229
13 6 26 255 186 119
13 6 27 255 186 119
13 6 28 255 186 119
13 6 29 255 186 119
13 6 30 158 216 229
13 6 31 158 216 229
13 6 32 158 216 229
13 6 33 158 216 229
13 7 26 196 175 214
13 7 27 196 175 214
13 7 28 196 175 214
13 7 29 196 175 214
13 7 30 158 216 229
13 7 31 158 216 229
13 7 32 158 216 229
13 7 33 158 216 229
13 8 26 196 175 214
13 8 27 196 175 214
13 8 28 196 175 214
13 8 29 196 175 214
13 8 30 158 216 229
13 8 31 158 216 229
13 8 32 158 216 229
13 8 33 158 216 229
13 9 27 196 175 214
13 9 28 196 175 214
13 9 30 158 216 229
13 9 31 158 216 229
13 9 32 158 216 229
13 9 33 158 216 229
13 10 30 158 216 229
13 10 31 158 216 229
13 10 32 158 216 229
13 10 33 158 216 229
13 11 30 158 216 229
13 11 31 158 216 229
13 11 32 158 216 229
13 11 33 158 216 229
13 12 30 114 158 206
13 12 31 158 216 229
13 12 32 158 216 229
13 12 33 158 216 229
14 0 24 255 186 119
14 0 25 255 186 119
14 0 26 255 186 119
14 0 27 255 186 119
14 0 28 255 186 119
14 0 29 255 186 119
14 0 30 255 186 119
14 0 31 255 186 119
14 0 32 158 216 229
14 0 33 158 216 229
14 0 34 158 216 229
14 1 24 255 186 119
14 1 25 255 186 119
14 1 26 255 186 119
14 1 27 255 186 119
14 1 28 255 186 119
14 1 29 255 186 119
14 1 30 255 186 119
14 1 31 255 186 119
14 1 32 158 216 229
14 1 33 158 216 229
14 1 34 158 216 229
14 2 24 255 186 119
14 2 25 255 186 119
14 2 26 255 186 119
14 2 27 255 186 119
14 2 28 255 186 119
14 2 29 255 186 119
14 2 30 255 186 119
14 2 31 255 186 119
14 2 32 158 216 229
14 2 33 158 216 229
14 2 34 158 216 229
14 3 24 255 186 119
14 3 25 255 186 119
14 3 26 255 186 119
14 3 27 255 186 119
14 3 28 255 186 119
14 3 29 255 186 119
14 3 30 255 186 119
14 3 31 255 186 119
14 3 32 255 186 119
14 3 33 158 216 229
14 3 34 158 216 229
14 4 24 255 186 119
14 4 25 255 186 119
14 4 26 255 186 119
14 4 27 255 186 119
14 4 28 255 186 119
14 4 29 255 186 119
14 4 30 255 186 119
14 4 31 255 186 119
14 4 32 255 186 119
14 4 33 158 216 229
14 4 34 158 216 229
14 5 25 255 186 119
14 5 26 255 186 119
14 5 27 255 186 119
14 5 28 255 186 119
14 5 29 255 186 119
14 5 30 255 186 119
14 5 31 255 186 119
14 5 32 255 186 119
14 5 33 158 216 229
14 5 34 158 216 229
14 6 25 255 186 119
14 6 26 255 186 119
14 6 27 255 186 119
14 6 28 255 186 119
14 6 29 255 186 119
14 6 30 255 186 119
14 6 31 255 186 119
14 6 32 255 186 119
14 6 33 158 216 229
14 6 34 158 216 229
14 7 25 196 175 214
14 7 26 196 175 214
14 7 27 196 175 214
14 7 28 196 175 214
14 7 29 196 175 214
14 7 30 196 175 214
14 7 31 196 175 214
14 7 32 158 216 229
14 7 33 158 216 229
14 7 34 158 216 229
14 8 25 196 175 214
14 8 26 196 175 214
14 8 27 196 175 214
14 8 28 196 175 214
14 8 29 196 175 214
14 8 30 196 175 214
14 8 31 196 175 214
14 8 32 158 216 229
14 8 33 158 216 229
14 8 34 158 216 229
14 9 25 196 175 214
14 9 26 196 175 214
14 9 27 196 175 214
14 9 28 196 175 214
14 9 29 196 175 214
14 9 30 196 175 214
14 9 33 158 216 229
14 9 34 158 216 229
14 10 33 158 216 229
14 10 34 158 216 229
14 11 33 158 216 229
14 11 34 158 216 229
14 12 33 158 216 229
14 12 34 158 216 229
14 13 33 158 216 229
14 13 34 158 216 229
15 0 22 255 186 119
15 0 23 255 186 119
15 0 24 255 186 119
15 0 25 255 186 119
15 0 26 255 186 119
15 0 27 255 186 119
15 0 28 255 186 119
15 0 29 255 186 119
15 0 30 255 186 119
15 0 31 255 186 119
15 0 32 255 186 119
15 0 33 255 186 119
15 0 34 158 216 229
15 1 22 255 186 119
15 1 23 255 186 119
15 1 24 255 186 119
15 1 25 255 186 119
15 1 26 255 186 119
15 1 27 255 186 119
15 1 28 255 186 119
15 1 29 255 186 119
15 1 30 255 186 119
15 1 31 255 186 119
15 1 32 255 186 119
15 1 33 255 186 119
15 1 34 158 216 229
15 2 23 255 186 119
15 2 24 255 186 119
15 2 25 255 186 119
15 2 26 255 186 119
15 2 27 255 186 119
15 2 28 255 186 119
15 2 29 255 186 119
15 2 30 255 186 119
15 2 31 255 186 119
15 2 32 255 186 119
15 2 33 255 186 119
15 2 34 158 216 229
15 3 23 255 186 119
15 3 24 255 186 119
15 3 25 255 186 119
15 3 26 255 186 119
15 3 27 255 186 119
15 3 28 255 186 119
15 3 29 255 186 119
15 3 30 255 186 119
15 3 31 255 186 119
15 3 32 255 186 119
15 3 33 255 186 119
15 3 34 158 216 229
15 4 23 255 186 119
15 4 24 255 186 119
15 4 25 255 186 119
15 4 26 255 186 119
15 4 27 255 186 119
15 4 28 255 186 119
15 4 29 255 186 119
15 4 30 255 186 119
15 4 31 255 186 119
15 4 32 255 186 119
15 4 33 255 186 119
15 4 34 158 216 229
15 5 23 255 186 119
15 5 24 255 186 119
15 5 25 255 186 119
15 5 26 255 186 119
15 5 27 255 186 119
15 5 28 255 186 119
15 5 29 255 186 119
15 5 30 255 186 119
15 5 31 255 186 119
15 5 32 255 186 119
15 5 33 255 186 119
15 5 34 158 216 229
15 6 23 255 186 119
15 6 24 255 186 119
15 6 25 255 186 119
15 6 26 255 186 119
15 6 27 255 186 119
15 6 28 255 186 119
15 6 29 255 186 119
15 6 30 255 186 119
15 6 31 255 186 119
15 6 32 255 186 119
15 6 33 255 186 119
15 6 34 158 216 229
15 7 23 196 175 214
15 7 24 196 175 214
15 7 25 196 175 214
15 7 26 196 175 214
15 7 27 196 175 214
15 7 28 196 175 214
15 7 29 196 175 214
15 7 30 196 175 214
15 7 31 196 175 214
15 7 32 196 175 214
15 7 33 196 175 214
15 7 34 158 216 229
15 8 23 196 175 214
15 8 24 196 175 214
15 8 25 196 175 214
15 8 26 196 175 214
15 8 27 196 175 214
15 8 28 196 175 214
15 8 29 196 175 214
15 8 30 196 175 214
15 8 31 196 175 214
15 8 32 196 175 214
15 8 33 196 175 214
15 8 34 158 216 229
15 9 23 196 175 214
15 9 24 196 175 214
15 9 25 196 175 214
15 9 26 196 175 214
15 9 27 196 175 214
15 9 28 196 175 214
15 9 29 196 175 214
15 9 30 196 175 214
15 9 31 196 175 214
15 9 32 196 175 214
15 9 33 196 175 214
15 9 34 158 216 229
15 10 32 196 175 214
15 10 33 196 175 214
15 10 34 158 216 229
15 11 32 196 175 214
15 11 33 196 175 214
15 11 34 158 216 229
15 12 32 196 175 214
15 12 33 196 175 214
15 12 34 158 216 229
15 13 34 158 216 229
16 0 21 255 186 119
16 0 22 255 186 119
16 0 23 255 186 119
16 0 24 255 186 119
16 0 25 255 186 119
16 0 26 255 186 119
16 0 27 255 186 119
16 0 28 255 186 119
16 0 29 255 186 119
16 0 30 255 186 119
16 0 31 255 186 119
16 0 32 255 186 119
16 0 33 158 216 229
16 1 21 255 186 119
16 1 22 255 186 119
16 1 23 255 186 119
16 1 24 255 186 119
16 1 25 255 186 119
16 1 26 255 186 119
16 1 27 255 186 119
16 1 28 255 186 119
16 1 29 255 186 119
16 1 30 255 186 119
16 1 31 255 186 119
16 1 32 255 186 119
16 1 33 158 216 229
16 2 21 255 186 119
16 2 22 255 186 119
16 2 23 255 186 119
16 2 24 255 186 119
16 2 25 255 186 119
16 2 26 255 186 119
16 2 27 255 186 119
16 2 28 255 186 119
16 2 29 255 186 119
16 2 30 255 186 119
16 2 31 255 186 119
16 2 32 255 186 119
16 2 33 158 216 229
16 3 21 255 186 119
16 3 22 255 186 119
16 3 23 255 186 119
16 3 24 255 186 119
16 3 25 255 186 119
16 3 26 255 186 119
16 3 27 255 186 119
16 3 28 255 186 119
16 3 29 255 186 119
16 3 30 255 186 119
16 3 31 255 186 119
16 3 32 255 186 119
16 3 33 158 216 229
16 3 34 158 216 229
16 4 21 255 186 119
16 4 22 255 186 119
16 4 23 255 186 119
16 4 24 255 186 119
16 4 25 255 186 119
16 4 26 255 186 119
16 4 27 255 186 119
16 4 28 255 186 119
16 4 29 255 186 119
16 4 30 255 186 119
16 4 31 255 186 119
16 4 32 255 186 119
16 4 33 158 216 229
16 4 34 158 216 229
16 5 21 255 186 119
16 5 22 255 186 119
16 5 23 255 186 119
16 5 24 255 186 119
16 5 25 255 186 119
16 5 26 255 186 119
16 5 27 255 186 119
16 5 28 255 186 119
16 5 29 255 186 119
16 5 30 255 186 119
16 5 31 255 186 119
16 5 32 255 186 119
16 5 33 158 216 229
16 5 34 158 216 229
16 6 21 255 186 119
16 6 22 255 186 119
16 6 23 255 186 119
16 6 24 255 186 119
16 6 25 255 186 119
16 6 26 255 186 119
16 6 27 255 186 119
16 6 28 255 186 119
16 6 29 255 186 119
16 6 30 255 186 119
16 6 31 255 186 119
16 6 32 255 186 119
16 6 33 158 216 229
16 6 34 158 216 229
16 7 23 196 175 214
16 7 24 196 175 214
16 7 25 196 175 214
16 7 26 196 175 214
16 7 27 196 175 214
16 7 28 196 175 214
16 7 29 196 175 214
16 7 30 196 175 214
16 7 31 196 175 214
16 7 32 196 175 214
16 7 33 196 175 214
16 7 34 158 216 229
16 8 24 196 175 214
16 8 25 196 175 214
16 8 26 196 175 214
16 8 27 196 175 214
16 8 28 196 175 214
16 8 29 196 175 214
16 8 30 196 175 214
16 8 31 196 175 214
16 8 32 196 175 214
16 8 33 196 175 214
16 8 34 158 216 229
16 9 24 196 175 214
16 9 25 196 175 214
16 9 26 196 175 214
16 9 27 196 175 214
16 9 28 196 175 214
16 9 29 196 175 214
16 9 30 196 175 214
16 9 31 196 175 214
16 9 32 196 175 214
16 9 33 196 175 214
16 9 34 158 216 229
16 10 31 196 175 214
16 10 32 196 175 214
16 10 33 196 175 214
16 10 34 158 216 229
16 11 31 196 175 214
16 11 32 196 175 214
16 11 33 196 175 214
16 11 34 158 216 229
16 12 31 196 175 214
16 12 32 196 175 214
16 12 33 158 216 229
16 12 34 158 216 229
16 13 33 158 216 229
16 13 34 158 216 229
17 0 19 255 186 119
17 0 20 255 186 119
17 0 21 255 186 119
17 0 22 255 186 119
17 0 23 255 186 119
17 0 24 255 186 119
17 0 25 255 186 119
17 0 26 255 186 119
17 0 27 255 186 119
17 0 28 255 186 119
17 0 29 255 186 119
17 0 30 255 186 119
17 0 31 255 186 119
17 0 32 255 186 119
17 0 33 158 216 229
17 1 19 255 186 119
17 1 20 255 186 119
17 1 21 255 186 119
17 1 22 255 186 119
17 1 23 255 186 119
17 1 24 255 186 119
17 1 25 255 186 119
17 1 26 255 186 119
17 1 27 255 186 119
17 1 28 255 186 119
17 1 29 255 186 119
17 1 30 255 186 119
17 1 31 255 186 119
17 1 32 255 186 119
17 1 33 158 216 229
17 2 19 255 186 119
17 2 20 255 186 119
17 2 21 255 186 119
17 2 22 255 186 119
17 2 23 255 186 119
17 2 24 255 186 119
17 2 25 255 186 119
17 2 26 255 186 119
17 2 27 255 186 119
17 2 28 255 186 119
17 2 29 255 186 119
17 2 30 255 186 119
17 2 31 255 186 119
17 2 32 255 186 119
17 2 33 158 216 229
17 3 20 255 186 119
17 3 21 255 186 119
17 3 22 255 186 119
17 3 23 255 186 119
17 3 24 255 186 119
17 3 25 255 186 119
17 3 26 255 186 119
17 3 27 255 186 119
17 3 28 255 186 119
17 3 29 255 186 119
17 3 30 255 186 119
17 3 31 255 186 119
17 3 32 255 186 119
17 3 33 158 216 229
17 4 20 255 186 119
17 4 21 255 186 119
17 4 22 255 186 119
17 4 23 255 186 119
17 4 24 255 186 119
17 4 25 255 186 119
17 4 26 255 186 119
17 4 27 255 186 119
17 4 28 255 186 119
17 4 29 255 186 119
17 4 30 255 186 119
17 4 31 255 186 119
17 4 32 255 186 119
17 4 33 158 216 229
17 5 20 255 186 119
17 5 21 255 186 119
17 5 22 255 186 119
17 5 23 255 186 119
17 5 24 255 186 119
17 5 25 255 186 119
17 5 26 255 186 119
17 5 27 255 186 119
17 5 28 255 186 119
17 5 29 255 186 119
17 5 30 255 186 119
17 5 31 255 186 119
17 5 32 255 186 119
17 5 33 158 216 229
17 6 20 255 186 119
17 6 21 255 186 119
17 6 22 255 186 119
17 6 23 255 186 119
17 6 24 255 186 119
17 6 25 255 186 119
17 6 26 255 186 119
17 6 27 255 186 119
17 6 28 255 186 119
17 6 29 255 186 119
17 6 30 255 186 119
17 6 31 255 186 119
17 6 32 196 175 214
17 6 33 158 216 229
17 7 26 196 175 214
17 7 27 196 175 214
17 7 28 196 175 214
17 7 29 196 175 214
17 7 30 196 175 214
17 7 31 196 175 214
17 7 32 196 175 214
17 7 33 158 216 229
17 8 26 196 175 214
17 8 27 196 175 214
17 8 28 196 175 214
17 8 29 196 175 214
17 8 30 196 175 214
17 8 31 196 175 214
17 8 32 196 175 214
17 8 33 158 216 229
17 9 27 196 175 214
17 9 28 196 175 214
17 9 29 196 175 214
17 9 30 196 175 214
17 9 31 196 175 214
17 9 32 196 175 214
17 9 33 158 216 229
17 10 31 196 175 214
17 10 32 196 175 214
17 10 33 158 216 229
17 11 31 196 175 214
17 11 32 196 175 214
17 11 33 158 216 229
17 12 31 196 175 214
17 12 32 196 175 214
17 12 33 158 216 229
17 13 33 158 216 229
18 0 18 255 186 119
18 0 19 255 186 119
18 0 20 255 186 119
18 0 21 255 186 119
18 0 22 255 186 119
18 0 23 255 186 119
18 0 24 255 186 119
18 0 25 255 186 119
18 0 26 255 186 119
18 0 27 255 186 119
18 0 28 255 186 119
18 0 29 255 186 119
18 0 30 255 186 119
18 0 31 255 186 119
18 0 32 158 216 229
18 0 33 158 216 229
18 1 18 255 186 119
18 1 19 255 186 119
18 1 20 255 186 119
18 1 21 255 186 119
18 1 22 255 186 119
18 1 23 255 186 119
18 1 24 255 186 119
18 1 25 255 186 119
18 1 26 255 186 119
18 1 27 255 186 119
18 1 28 255 186 119
18 1 29 255 186 119
18 1 30 255 186 119
18 1 31 255 186 119
18 1 32 158 216 229
18 1 33 158 216 229
18 2 18 255 186 119
18 2 19 255 186 119
18 2 20 255 186 119
18 2 21 255 186 119
18 2 22 255 186 119
18 2 23 255 186 119
18 2 24 255 186 119
18 2 25 255 186 119
18 2 26 255 186 119
18 2 27 255 186 119
18 2 28 255 186 119
18 2 29 255 186 119
18 2 30 255 186 119
18 2 31 255 186 119
18 2 32 158 216 229
18 2 33 158 216 229
18 3 18 255 186 119
18 3 19 255 186 119
18 3 20 255 186 119
18 3 21 255 186 119
18 3 22 255 186 119
18 3 23 255 186 119
18 3 24 255 186 119
18 3 25 255 186 119
18 3 26 255 186 119
18 3 27 255 186 119
18 3 28 255 186 119
18 3 29 255 186 119
18 3 30 255 186 119
18 3 31 255 186 119
18 3 32 158 216 229
18 3 33 158 216 229
18 4 18 255 186 119
18 4 19 255 186 119
18 4 20 255 186 119
18 4 21 255 186 119
18 4 22 255 186 119
18 4 23 255 186 119
18 4 24 255 186 119
18 4 25 255 186 119
18 4 26 255 186 119
18 4 27 255 186 119
18 4 28 255 186 119
18 4 29 255 186 119
18 4 30 255 186 119
18 4 31 255 186 119
18 4 32 255 186 119
18 4 33 158 216 229
18 5 18 255 186 119
18 5 19 255 186 119
18 5 20 255 186 119
18 5 21 255 186 119
18 5 22 255 186 119
18 5 23 255 186 119
18 5 24 255 186 119
18 5 25 255 186 119
18 5 26 255 186 119
18 5 27 255 186 119
18 5 28 255 186 119
18 5 29 255 186 119
18 5 30 255 186 119
18 5 31 255 186 119
18 5 32 255 186 119
18 5 33 158 216 229
18 6 18 255 186 119
18 6 19 255 186 119
18 6 20 255 186 119
18 6 21 255 186 119
18 6 22 255 186 119
18 6 23 255 186 119
18 6 24 255 186 119
18 6 25 255 186 119
18 6 26 255 186 119
18 6 27 255 186 119
18 6 28 255 186 119
18 6 29 255 186 119
18 6 30 255 186 119
18 6 31 255 186 119
18 6 32 196 175 214
18 6 33 158 216 229
18 7 28 196 175 214
18 7 29 196 175 214
18 7 30 196 175 214
18 7 31 196 175 214
18 7 32 196 175 214
18 7 33 158 216 229
18 8 29 196 175 214
18 8 30 196 175 214
18 8 31 196 175 214
18 8 32 196 175 214
18 8 33 158 216 229
18 9 29 196 175 214
18 9 30 196 175 214
18 9 31 196 175 214
18 9 32 196 175 214
18 9 33 158 216 229
18 10 30 196 175 214
18 10 31 196 175 214
18 10 32 196 175 214
18 10 33 158 216 229
18 11 30 196 175 214
18 11 31 196 175 214
18 11 32 196 175 214
18 11 33 158 216 229
18 12 31 196 175 214
18 12 32 196 175 214
18 12 33 158 216 229
18 13 32 158 216 229
18 13 33 158 216 229
19 0 16 255 186 119
19 0 17 255 186 119
19 0 18 255 186 119
19 0 19 255 186 119
19 0 20 255 186 119
19 0 21 255 186 119
19 0 22 255 186 119
19 0 23 255 186 119
19 0 24 255 186 119
19 0 25 255 186 119
19 0 26 255 186 119
19 0 27 255 186 119
19 0 28 255 186 119
19 0 29 255 186 119
19 0 30 255 186 119
19 0 31 255 186 119
19 0 32 158 216 229
19 1 16 255 186 119
19 1 17 255 186 119
19 1 18 255 186 119
19 1 19 255 186 119
19 1 20 255 186 119
19 1 21 255 186 119
19 1 22 255 186 119
19 1 23 255 186 119
19 1 24 255 186 119
19 1 25 255 186 119
19 1 26 255 186 119
19 1 27 255 186 119
19 1 28 255 186 119
19 1 29 255 186 119
19 1 30 255 186 119
19 1 31 255 186 119
19 1 32 158 216 229
19 2 16 255 186 119
19 2 17 255 186 119
19 2 18 255 186 119
19 2 19 255 186 119
19 2 20 255 186 119
19 2 21 255 186 119
19 2 22 255 186 119
19 2 23 255 186 119
19 2 24 255 186 119
19 2 25 255 186 119
19 2 26 255 186 119
19 2 27 255 186 119
19 2 28 255 186 119
19 2 29 255 186 119
19 2 30 255 186 119
19 2 31 255 186 119
19 2 32 158 216 229
19 3 16 255 186 119
19 3 17 255 186 119
19 3 18 255 186 119
19 3 19 255 186 119
19 3 20 255 186 119
19 3 21 255 186 119
19 3 22 255 186 119
19 3 23 255 186 119
19 3 24 255 186 119
19 3 25 255 186 119
19 3 26 255 186 119
19 3 27 255 186 119
19 3 28 255 186 119
19 3 29 255 186 119
19 3 30 255 186 119
19 3 31 255 186 119
19 3 32 158 216 229
19 4 16 255 186 119
19 4 17 255 186 119
19 4 18 255 186 119
19 4 19 255 186 119
19 4 20 255 186 119
19 4 21 255 186 119
19 4 22 255 186 119
19 4 23 255 186 119
19 4 24 255 186 119
19 4 25 255 186 119
19 4 26 255 186 119
19 4 27 255 186 119
19 4 28 255 186 119
19 4 29 255 186 119
19 4 30 255 186 119
19 4 31 255 186 119
19 4 32 158 216 229
19 5 17 255 186 119
19 5 18 255 186 119
19 5 19 255 186 119
19 5 20 255 186 119
19 5 21 255 186 119
19 5 22 255 186 119
19 5 23 255 186 119
19 5 24 255 186 119
19 5 25 255 186 119
19 5 26 255 186 119
19 5 27 255 186 119
19 5 28 255 186 119
19 5 29 255 186 119
19 5 30 255 186 119
19 5 31 255 186 119
19 5 32 158 216 229
19 6 17 255 186 119
19 6 18 255 186 119
19 6 19 255 186 119
19 6 20 255 186 119
19 6 21 255 186 119
19 6 22 255 186 119
19 6 23 255 186 119
19 6 24 255 186 119
19 6 25 255 186 119
19 6 26 255 186 119
19 6 27 255 186 119
19 6 28 255 186 119
19 6 29 255 186 119
19 6 30 255 186 119
19 6 31 255 186 119
19 6 32 158 216 229
19 7 29 196 175 214
19 7 30 196 175 214
19 7 31 196 175 214
19 7 32 158 216 229
19 8 29 196 175 214
19 8 30 196 175 214
19 8 31 196 175 214
19 8 32 158 216 229
19 9 29 196 175 214
19 9 30 196 175 214
19 9 31 196 175 214
19 9 32 158 216 229
19 10 30 196 175 214
19 10 31 196 175 214
19 10 32 158 216 229
19 11 30 196 175 214
19 11 31 196 175 214
19 11 32 196 175 214
19 12 30 196 175 214
19 12 31 196 175 214
19 12 32 158 216 229
19 12 33 158 216 229
19 13 32 158 216 229
19 13 33 158 216 229
20 0 14 255 186 119
20 0 15 255 186 119
20 0 16 255 186 119
20 0 17 255 186 119
20 0 18 255 186 119
20 0 19 255 186 119
20 0 20 255 186 119
20 0 21 255 186 119
20 0 22 255 186 119
20 0 23 255 186 119
20 0 24 255 186 119
20 0 25 255 186 119
20 0 26 255 186 119
20 0 27 255 186 119
20 0 28 255 186 119
20 0 29 255 186 119
20 0 30 255 186 119
20 0 31 255 186 119
20 0 32 158 216 229
20 1 15 255 186 119
20 1 16 255 186 119
20 1 17 255 186 119
20 1 18 255 186 119
20 1 19 255 186 119
20 1 20 255 186 119
20 1 21 255 186 119
20 1 22 255 186 119
20 1 23 255 186 119
20 1 24 255 186 119
20 1 25 255 186 119
20 1 26 255 186 119
20 1 27 255 186 119
20 1 28 255 186 119
20 1 29 255 186 119
20 1 30 255 186 119
20 1 31 255 186 119
20 1 32 158 216 229
20 2 15 255 186 119
20 2 16 255 186 119
20 2 17 255 186 119
20 2 18 255 186 119
20 2 19 255 186 119
20 2 20 255 186 119
20 2 21 255 186 119
20 2 22 255 186 119
20 2 23 255 186 119
20 2 24 255 186 119
20 2 25 255 186 119
20 2 26 255 186 119
20 2 27 255 186 119
20 2 28 255 186 119
20 2 29 255 186 119
20 2 30 255 186 119
20 2 31 255 186 119
20 2 32 158 216 229
20 3 15 255 186 119
20 3 16 255 186 119
20 3 17 255 186 119
20 3 18 255 186 119
20 3 19 255 186 119
20 3 20 255 186 119
20 3 21 255 186 119
20 3 22 255 186 119
20 3 23 255 186 119
20 3 24 255 186 119
20 3 25 255 186 119
20 3 26 255 186 119
20 3 27 255 186 119
20 3 28 255 186 119
20 3 29 255 186 119
20 3 30 255 186 119
20 3 31 255 186 119
20 3 32 158 216 229
20 4 15 255 186 119
20 4 16 255 186 119
20 4 17 255 186 119
20 4 18 255 186 119
20 4 19 255 186 119
20 4 20 255 186 119
20 4 21 255 186 119
20 4 22 255 186 119
20 4 23 255 186 119
20 4 24 255 186 119
20 4 25 255 186 119
20 4 26 255 186 119
20 4 27 255 186 119
20 4 28 255 186 119
20 4 29 255 186 119
20 4 30 255 186 119
20 4 31 255 186 119
20 4 32 158 216 229
20 5 15 255 186 119
20 5 16 255 186 119
20 5 17 255 186 119
20 5 18 255 186 119
20 5 19 255 186 119
20 5 20 255 186 119
20 5 21 255 186 119
20 5 22 255 186 119
20 5 23 255 186 119
20 5 24 255 186 119
20 5 25 255 186 119
20 5 26 255 186 119
20 5 27 255 186 119
20 5 28 255 186 119
20 5 29 255 186 119
20 5 30 255 186 119
20 5 31 255 186 119
20 5 32 158 216 229
20 6 15 255 186 119
20 6 16 255 186 119
20 6 17 255 186 119
20 6 18 255 186 119
20 6 19 255 186 119
20 6 20 255 186 119
20 6 21 255 186 119
20 6 22 255 186 119
20 6 23 255 186 119
20 6 24 255 186 119
20 6 25 255 186 119
20 6 26 255 186 119
20 6 27 255 186 119
20 6 28 255 186 119
20 6 29 255 186 119
20 6 30 255 186 119
20 6 31 255 186 119
20 6 32 158 216 229
20 7 15 255 186 119
20 7 28 196 175 214
20 7 29 196 175 214
20 7 30 196 175 214
20 7 31 196 175 214
20 7 32 158 216 229
20 8 28 196 175 214
20 8 29 196 175 214
20 8 30 196 175 214
20 8 31 196 175 214
20 8 32 158 216 229
20 9 28 196 175 214
20 9 29 196 175 214
20 9 30 196 175 214
20 9 31 196 175 214
20 9 32 158 216 229
20 10 30 196 175 214
20 10 31 196 175 214
20 10 32 158 216 229
20 11 30 196 175 214
20 11 31 196 175 214
20 11 32 158 216 229
20 12 30 196 175 214
20 12 31 196 175 214
20 12 32 158 216 229
20 13 32 158 216 229
21 0 13 255 186 119
21 0 14 255 186 119
21 0 15 255 186 119
21 0 16 255 186 119
21 0 17 255 186 119
21 0 18 255 186 119
21 0 19 255 186 119
21 0 20 255 186 119
21 0 21 255 186 119
21 0 22 255 186 119
21 0 23 255 186 119
21 0 24 255 186 119
21 0 25 255 186 119
21 0 26 255 186 119
21 0 27 255 186 119
21 0 28 255 186 119
21 0 29 255 186 119
21 0 30 255 186 119
21 0 31 158 216 229
21 1 13 255 186 119
21 1 14 255 186 119
21 1 15 255 186 119
21 1 16 255 186 119
21 1 17 255 186 119
21 1 18 255 186 119
21 1 19 255 186 119
21 1 20 255 186 119
21 1 21 255 186 119
21 1 22 255 186 119
21 1 23 255 186 119
21 1 24 255 186 119
21 1 25 255 186 119
21 1 26 255 186 119
21 1 27 255 186 119
21 1 28 255 186 119
21 1 29 255 186 119
21 1 30 255 186 119
21 1 31 158 216 229
21 2 13 255 186 119
21 2 14 255 186 119
21 2 15 255 186 119
21 2 16 255 186 119
21 2 17 255 186 119
21 2 18 255 186 119
21 2 19 255 186 119
21 2 20 255 186 119
21 2 21 255 186 119
21 2 22 255 186 119
21 2 23 255 186 119
21 2 24 255 186 119
21 2 25 255 186 119
21 2 26 255 186 119
21 2 27 255 186 119
21 2 28 255 186 119
21 2 29 255 186 119
21 2 30 255 186 119
21 2 31 158 216 229
21 3 13 255 186 119
21 3 14 255 186 119
21 3 15 255 186 119
21 3 16 255 186 119
21 3 17 255 186 119
21 3 18 255 186 119
21 3 19 255 186 119
21 3 20 255 186 119
21 3 21 255 186 119
21 3 22 255 186 119
21 3 23 255 186 119
21 3 24 255 186 119
21 3 25 255 186 119
21 3 26 255 186 119
21 3 27 255 186 119
21 3 28 255 186 119
21 3 29 255 186 119
21 3 30 255 186 119
21 3 31 158 216 229
21 3 32 158 216 229
21 4 13 255 186 119
21 4 14 255 186 119
21 4 15 255 186 119
21 4 16 255 186 119
21 4 17 255 186 119
21 4 18 255 186 119
21 4 19 255 186 119
21 4 20 255 186 119
21 4 21 255 186 119
21 4 22 255 186 119
21 4 23 255 186 119
21 4 24 255 186 119
21 4 25 255 186 119
21 4 26 255 186 119
21 4 27 255 186 119
21 4 28 255 186 119
21 4 29 255 186 119
21 4 30 255 186 119
21 4 31 158 216 229
21 4 32 158 216 229
21 5 13 255 186 119
21 5 14 255 186 119
21 5 15 255 186 119
21 5 16 255 186 119
21 5 17 255 186 119
21 5 18 255 186 119
21 5 19 255 186 119
21 5 20 255 186 119
21 5 21 255 186 119
21 5 22 255 186 119
21 5 23 255 186 119
21 5 24 255 186 119
21 5 25 255 186 119
21 5 26 255 186 119
21 5 27 255 186 119
21 5 28 255 186 119
21 5 29 255 186 119
21 5 30 255 186 119
21 5 31 158 216 229
21 5 32 158 216 229
21 6 14 255 186 119
21 6 15 255 186 119
21 6 16 255 186 119
21 6 17 255 186 119
21 6 18 255 186 119
21 6 19 255 186 119
21 6 20 255 186 119
21 6 21 255 186 119
21 6 22 255 186 119
21 6 23 255 186 119
21 6 24 255 186 119
21 6 25 255 186 119
21 6 26 255 186 119
21 6 27 255 186 119
21 6 28 255 186 119
21 6 29 255 186 119
21 6 30 255 186 119
21 6 31 158 216 229
21 6 32 158 216 229
21 7 14 255 186 119
21 7 15 255 186 119
21 7 16 255 186 119
21 7 28 196 175 214
21 7 29 196 175 214
21 7 30 196 175 214
21 7 31 158 216 229
21 7 32 158 216 229
21 8 28 196 175 214
21 8 29 196 175 214
21 8 30 196 175 214
21 8 31 158 216 229
21 8 32 158 216 229
21 9 28 196 175 214
21 9 29 196 175 214
21 9 30 196 175 214
21 9 31 158 216 229
21 9 32 158 216 229
21 10 30 196 175 214
21 10 31 158 216 229
21 10 32 158 216 229
21 11 30 196 175 214
21 11 31 196 175 214
21 11 32 158 216 229
21 12 31 158 216 229
21 12 32 158 216 229
21 13 31 158 216 229
21 13 32 158 216 229
22 0 11 43 160 4
22 0 12 255 186 119
22 0 13 255 186 119
22 0 14 255 186 119
22 0 15 255 186 119
22 0 16 255 186 119
22 0 17 255 186 119
22 0 18 255 186 119
22 0 19 255 186 119
22 0 20 255 186 119
22 0 21 255 186 119
22 0 22 255 186 119
22 0 23 255 186 119
22 0 24 255 186 119
22 0 25 255 186 119
22 0 26 255 186 119
22 0 27 255 186 119
22 0 28 255 186 119
22 0 29 255 186 119
22 0 30 255 186 119
22 0 31 158 216 229
22 1 12 255 186 119
22 1 13 255 186 119
22 1 14 255 186 119
22 1 15 255 186 119
22 1 16 255 186 119
22 1 17 255 186 119
22 1 18 255 186 119
22 1 19 255 186 119
22 1 20 255 186 119
22 1 21 255 186 119
22 1 22 255 186 119
22 1 23 255 186 119
22 1 24 255 186 119
22 1 25 255 186 119
22 1 26 255 186 119
22 1 27 255 186 119
22 1 28 255 186 119
22 1 29 255 186 119
22 1 30 255 186 119
22 1 31 158 216 229
22 2 12 255 186 119
22 2 13 255 186 119
22 2 14 255 186 119
22 2 15 255 186 119
22 2 16 255 186 119
22 2 17 255 186 119
22 2 18 255 186 119
22 2 19 255 186 119
22 2 20 255 186 119
22 2 21 255 186 119
22 2 22 255 186 119
22 2 23 255 186 119
22 2 24 255 186 119
22 2 25 255 186 119
22 2 26 255 186 119
22 2 27 255 186 119
22 2 28 255 186 119
22 2 29 255 186 119
22 2 30 255 186 119
22 2 31 158 216 229
22 3 12 255 186 119
22 3 13 255 186 119
22 3 14 255 186 119
22 3 15 255 186 119
22 3 16 255 186 119
22 3 17 255 186 119
22 3 18 255 186 119
22 3 19 255 186 119
22 3 20 255 186 119
22 3 21 255 186 119
22 3 22 255 186 119
22 3 23 255 186 119
22 3 24 255 186 119
22 3 25 255 186 119
22 3 26 255 186 119
22 3 27 255 186 119
22 3 28 255 186 119
22 3 29 255 186 119
22 3 30 255 186 119
22 3 31 158 216 229
22 4 12 255 186 119
22 4 13 255 186 119
22 4 14 255 186 119
22 4 15 255 186 119
22 4 16 255 186 119
22 4 17 255 186 119
22 4 18 255 186 119
22 4 19 255 186 119
22 4 20 255 186 119
22 4 21 255 186 119
22 4 22 255 186 119
22 4 23 255 186 119
22 4 24 255 186 119
22 4 25 255 186 119
22 4 26 255 186 119
22 4 27 255 186 119
22 4 28 255 186 119
22 4 29 255 186 119
22 4 30 255 186 119
22 4 31 158 216 229
22 5 12 255 186 119
22 5 13 255 186 119
22 5 14 255 186 119
22 5 15 255 186 119
22 5 16 255 186 119
22 5 17 255 186 119
22 5 18 255 186 119
22 5 19 255 186 119
22 5 20 255 186 119
22 5 21 255 186 119
22 5 22 255 186 119
22 5 23 255 186 119
22 5 24 255 186 119
22 5 25 255 186 119
22 5 26 255 186 119
22 5 27 255 186 119
22 5 28 255 186 119
22 5 29 255 186 119
22 5 30 255 186 119
22 5 31 158 216 229
22 6 12 255 186 119
22 6 13 255 186 119
22 6 14 255 186 119
22 6 15 255 186 119
22 6 16 255 186 119
22 6 17 255 186 119
22 6 18 255 186 119
22 6 19 255 186 119
22 6 20 255 186 119
22 6 21 255 186 119
22 6 22 255 186 119
22 6 23 255 186 119
22 6 24 255 186 119
22 6 25 255 186 119
22 6 26 255 186 119
22 6 27 255 186 119
22 6 28 255 186 119
22 6 29 255 186 119
22 6 30 255 186 119
22 6 31 158 216 229
22 7 12 255 186 119
22 7 13 255 186 119
22 7 14 255 186 119
22 7 15 255 186 119
22 7 16 255 186 119
22 7 28 196 175 214
22 7 29 196 175 214
22 7 30 196 175 214
22 7 31 158 216 229
22 8 28 196 175 214
22 8 29 196 175 214
22 8 30 196 175 214
22 8 31 158 216 229
22 9 28 196 175 214
22 9 29 196 175 214
22 9 30 196 175 214
22 9 31 158 216 229
22 10 31 158 216 229
22 11 31 158 216 229
22 12 31 158 216 229
22 13 31 158 216 229
23 0 10 43 160 4
23 0 11 43 160 4
23 0 12 255 186 119
23 0 13 255 186 119
23 0 14 255 186 119
23 0 15 255 186 119
23 0 16 255 186 119
23 0 17 255 186 119
23 0 18 255 186 119
23 0 19 255 186 119
23 0 20 255 186 119
23 0 21 255 186 119
23 0 22 255 186 119
23 0 23 255 186 119
23 0 24 255 186 119
23 0 25 255 186 119
23 0 26 255 186 119
23 0 27 255 186 119
23 0 28 255 186 119
23 0 29 255 186 119
23 0 30 158 216 229
23 0 31 158 216 229
23 1 12 255 186 119
23 1 13 255 186 119
23 1 14 255 186 119
23 1 15 255 186 119
23 1 16 255 186 119
23 1 17 255 186 119
23 1 18 255 186 119
23 1 19 255 186 119
23 1 20 255 186 119
23 1 21 255 186 119
23 1 22 255 186 119
23 1 23 255 186 119
23 1 24 255 186 119
23 1 25 255 186 119
23 1 26 255 186 119
23 1 27 255 186 119
23 1 28 255 186 119
23 1 29 255 186 119
23 1 30 158 216 229
23 1 31 158 216 229
23 2 12 255 186 119
23 2 13 255 186 119
23 2 14 255 186 119
23 2 15 255 186 119
23 2 16 255 186 119
23 2 17 255 186 119
23 2 18 255 186 119
23 2 19 255 186 119
23 2 20 255 186 119
23 2 21 255 186 119
23 2 22 255 186 119
23 2 23 255 186 119
23 2 24 255 186 119
23 2 25 255 186 119
23 2 26 255 186 119
23 2 27 255 186 119
23 2 28 255 186 119
23 2 29 255 186 119
23 2 30 158 216 229
23 2 31 158 216 229
23 3 12 255 186 119
23 3 13 255 186 119
23 3 14 255 186 119
23 3 15 255 186 119
23 3 16 255 186 119
23 3 17 255 186 119
23 3 18 255 186 119
23 3 19 255 186 119
23 3 20 255 186 119
23 3 21 255 186 119
23 3 22 255 186 119
23 3 23 255 186 119
23 3 24 255 186 119
23 3 25 255 186 119
23 3 26 255 186 119
23 3 27 255 186 119
23 3 28 255 186 119
23 3 29 255 186 119
23 3 30 158 216 229
23 3 31 158 216 229
23 4 12 255 186 119
23 4 13 255 186 119
23 4 14 255 186 119
23 4 15 255 186 119
23 4 16 255 186 119
23 4 17 255 186 119
23 4 18 255 186 119
23 4 19 255 186 119
23 4 20 255 186 119
23 4 21 255 186 119
23 4 22 255 186 119
23 4 23 255 186 119
23 4 24 255 186 119
23 4 25 255 186 119
23 4 26 255 186 119
23 4 27 255 186 119
23 4 28 255 186 119
23 4 29 255 186 119
23 4 30 158 216 229
23 4 31 158 216 229
23 5 12 255 186 119
23 5 13 255 186 119
23 5 14 255 186 119
23 5 15 255 186 119
23 5 16 255 186 119
23 5 17 255 186 119
23 5 18 255 186 119
23 5 19 255 186 119
23 5 20 255 186 119
23 5 21 255 186 119
23 5 22 255 186 119
23 5 23 255 186 119
23 5 24 255 186 119
23 5 25 255 186 119
23 5 26 255 186 119
23 5 27 255 186 119
23 5 28 255 186 119
23 5 29 255 186 119
23 5 30 255 186 119
23 5 31 158 216 229
23 6 12 255 186 119
23 6 13 255 186 119
23 6 14 255 186 119
23 6 15 255 186 119
23 6 16 255 186 119
23 6 17 255 186 119
23 6 18 255 186 119
23 6 19 255 186 119
23 6 20 255 186 119
23 6 21 255 186 119
23 6 22 255 186 119
23 6 23 255 186 119
23 6 24 255 186 119
23 6 25 255 186 119
23 6 26 255 186 119
23 6 27 255 186 119
23 6 28 255 186 119
23 6 29 255 186 119
23 6 30 158 216 229
23 6 31 158 216 229
23 7 12 255 186 119
23 7 13 255 186 119
23 7 14 255 186 119
23 7 15 255 186 119
23 7 16 255 186 119
23 7 17 255 186 119
23 7 27 196 175 214
23 7 28 196 175 214
23 7 29 196 175 214
23 7 30 196 175 214
23 7 31 158 216 229
23 8 27 196 175 214
23 8 28 196 175 214
23 8 29 196 175 214
23 8 30 196 175 214
23 8 31 158 216 229
23 9 27 196 175 214
23 9 28 196 175 214
23 9 29 196 175 214
23 9 30 158 216 229
23 9 31 158 216 229
23 10 30 158 216 229
23 10 31 158 216 229
23 11 30 158 216 229
23 11 31 158 216 229
23 12 30 158 216 229
23 12 31 158 216 229
23 13 31 158 216 229
24 0 8 43 160 4
24 0 9 43 160 4
24 0 10 43 160 4
24 0 11 43 160 4
24 0 12 255 186 119
24 0 13 255 186 119
24 0 14 255 186 119
24 0 15 255 186 119
24 0 16 255 186 119
24 0 17 255 186 119
24 0 18 255 186 119
24 0 19 255 186 119
24 0 20 255 186 119
24 0 21 255 186 119
24 0 22 255 186 119
24 0 23 255 186 119
24 0 24 255 186 119
24 0 25 255 186 119
24 0 26 255 186 119
24 0 27 255 186 119
24 0 28 255 186 119
24 0 29 255 186 119
24 0 30 158 216 229
24 1 11 255 186 119
24 1 12 255 186 119
24 1 13 255 186 119
24 1 14 255 186 119
24 1 15 255 186 119
24 1 16 255 186 119
24 1 17 255 186 119
24 1 18 255 186 119
24 1 19 255 186 119
24 1 20 255 186 119
24 1 21 255 186 119
24 1 22 255 186 119
24 1 23 255 186 119
24 1 24 255 186 119
24 1 25 255 186 119
24 1 26 255 186 119
24 1 27 255 186 119
24 1 28 255 186 119
24 1 29 255 186 119
24 1 30 158 216 229
24 2 11 255 186 119
24 2 12 255 186 119
24 2 13 255 186 119
24 2 14 255 186 119
24 2 15 255 186 119
24 2 16 255 186 119
24 2 17 255 186 119
24 2 18 255 186 119
24 2 19 255 186 119
24 2 20 255 186 119
24 2 21 255 186 119
24 2 22 255 186 119
24 2 23 255 186 119
24 2 24 255 186 119
24 2 25 255 186 119
24 2 26 255 186 119
24 2 27 255 186 119
24 2 28 255 186 119
24 2 29 255 186 119
24 2 30 158 216 229
24 3 11 255 186 119
24 3 12 255 186 119
24 3 13 255 186 119
24 3 14 255 186 119
24 3 15 255 186 119
24 3 16 255 186 119
24 3 17 255 186 119
24 3 18 255 186 119
24 3 19 255 186 119
24 3 20 255 186 119
24 3 21 255 186 119
24 3 22 255 186 119
24 3 23 255 186 119
24 3 24 255 186 119
24 3 25 255 186 119
24 3 26 255 186 119
24 3 27 255 186 119
24 3 28 255 186 119
24 3 29 255 186 119
24 3 30 158 216 229
24 4 11 255 186 119
24 4 12 255 186 119
24 4 13 255 186 119
24 4 14 255 186 119
24 4 15 255 186 119
24 4 16 255 186 119
24 4 17 255 186 119
24 4 18 255 186 119
24 4 19 255 186 119
24 4 20 255 186 119
24 4 21 255 186 119
24 4 22 255 186 119
24 4 23 255 186 119
24 4 24 255 186 119
24 4 25 255 186 119
24 4 26 255 186 119
24 4 27 255 186 119
24 4 28 255 186 119
24 4 29 255 186 119
24 4 30 158 216 229
24 5 11 255 186 119
24 5 12 255 186 119
24 5 13 255 186 119
24 5 14 255 186 119
24 5 15 255 186 119
24 5 16 255 186 119
24 5 17 255 186 119
24 5 18 255 186 119
24 5 19 255 186 119
24 5 20 255 186 119
24 5 21 255 186 119
24 5 22 255 186 119
24 5 23 255 186 119
24 5 24 255 186 119
24 5 25 255 186 119
24 5 26 255 186 119
24 5 27 255 186 119
24 5 28 255 186 119
24 5 29 255 186 119
24 5 30 158 216 229
24 6 11 255 186 119
24 6 12 255 186 119
24 6 13 255 186 119
24 6 14 255 186 119
24 6 15 255 186 119
24 6 16 255 186 119
24 6 17 255 186 119
24 6 18 255 186 119
24 6 19 255 186 119
24 6 20 255 186 119
24 6 21 255 186 119
24 6 22 255 186 119
24 6 23 255 186 119
24 6 24 255 186 119
24 6 25 255 186 119
24 6 26 255 186 119
24 6 27 255 186 119
24 6 28 255 186 119
24 6 29 255 186 119
24 6 30 158 216 229
24 7 11 255 186 119
24 7 12 255 186 119
24 7 13 255 186 119
24 7 14 255 186 119
24 7 15 255 186 119
24 7 16 255 186 119
24 7 17 255 186 119
24 7 27 196 175 214
24 7 28 196 175 214
24 7 29 196 175 214
24 7 30 158 216 229
24 8 27 196 175 214
24 8 28 196 175 214
24 8 29 196 175 214
24 8 30 158 216 229
24 9 27 196 175 214
24 9 28 196 175 214
24 9 29 196 175 214
24 9 30 158 216 229
24 10 30 158 216 229
24 11 30 158 216 229
24 12 30 158 216 229
24 12 31 158 216 229
24 13 31 158 216 229
25 0 8 43 160 4
25 0 9 43 160 4
25 0 10 43 160 4
25 0 11 255 186 119
25 0 12 255 186 119
25 0 13 255 186 119
25 0 14 255 186 119
25 0 15 255 186 119
25 0 16 255 186 119
25 0 17 255 186 119
25 0 18 255 186 119
25 0 19 255 186 119
25 0 20 255 186 119
25 0 21 255 186 119
25 0 22 255 186 119
25 0 23 255 186 119
25 0 24 255 186 119
25 0 25 255 186 119
25 0 26 255 186 119
25 0 27 255 186 119
25 0 28 255 186 119
25 0 29 255 186 119
25 0 30 158 216 229
25 1 11 255 186 119
25 1 12 255 186 119
25 1 13 255 186 119
25 1 14 255 186 119
25 1 15 255 186 119
25 1 16 255 186 119
25 1 17 255 186 119
25 1 18 255 186 119
25 1 19 255 186 119
25 1 20 255 186 119
25 1 21 255 186 119
25 1 22 255 186 119
25 1 23 255 186 119
25 1 24 255 186 119
25 1 25 255 186 119
25 1 26 255 186 119
25 1 27 255 186 119
25 1 28 255 186 119
25 1 29 255 186 119
25 1 30 158 216 229
25 2 11 255 186 119
25 2 12 255 186 119
25 2 13 255 186 119
25 2 14 255 186 119
25 2 15 255 186 119
25 2 16 255 186 119
25 2 17 255 186 119
25 2 18 255 186 119
25 2 19 255 186 119
25 2 20 255 186 119
25 2 21 255 186 119
25 2 22 255 186 119
25 2 23 255 186 119
25 2 24 255 186 119
25 2 25 255 186 119
25 2 26 255 186 119
25 2 27 255 186 119
25 2 28 255 186 119
25 2 29 255 186 119
25 2 30 158 216 229
25 3 11 255 186 119
25 3 12 255 186 119
25 3 13 255 186 119
25 3 14 255 186 119
25 3 15 255 186 119
25 3 16 255 186 119
25 3 17 255 186 119
25 3 18 255 186 119
25 3 19 255 186 119
25 3 20 255 186 119
25 3 21 255 186 119
25 3 22 255 186 119
25 3 23 255 186 119
25 3 24 255 186 119
25 3 25 255 186 119
25 3 26 255 186 119
25 3 27 255 186 119
25 3 28 255 186 119
25 3 29 255 186 119
25 3 30 158 216 229
25 4 11 255 186 119
25 4 12 255 186 119
25 4 13 255 186 119
25 4 14 255 186 119
25 4 15 255 186 119
25 4 16 255 186 119
25 4 17 255 186 119
25 4 18 255 186 119
25 4 19 255 186 119
25 4 20 255 186 119
25 4 21 255 186 119
25 4 22 255 186 119
25 4 23 255 186 119
25 4 24 255 186 119
25 4 25 255 186 119
25 4 26 255 186 119
25 4 27 255 186 119
25 4 28 255 186 119
25 4 29 255 186 119
25 4 30 158 216 229
25 5 11 255 186 119
25 5 12 255 186 119
25 5 13 255 186 119
25 5 14 255 186 119
25 5 15 255 186 119
25 5 16 255 186 119
25 5 17 255 186 119
25 5 18 255 186 119
25 5 19 255 186 119
25 5 20 255 186 119
25 5 21 255 186 119
25 5 22 255 186 119
25 5 23 255 186 119
25 5 24 255 186 119
25 5 25 255 186 119
25 5 26 255 186 119
25 5 27 255 186 119
25 5 28 255 186 119
25 5 29 255 186 119
25 5 30 158 216 229
25 6 11 255 186 119
25 6 12 255 186 119
25 6 13 255 186 119
25 6 14 255 186 119
25 6 15 255 186 119
25 6 16 255 186 119
25 6 17 255 186 119
25 6 18 255 186 119
25 6 19 255 186 119
25 6 20 255 186 119
25 6 21 255 186 119
25 6 22 255 186 119
25 6 23 255 186 119
25 6 24 255 186 119
25 6 25 255 186 119
25 6 26 255 186 119
25 6 27 255 186 119
25 6 28 255 186 119
25 6 29 255 186 119
25 6 30 158 216 229
25 7 11 255 186 119
25 7 12 255 186 119
25 7 13 255 186 119
25 7 14 255 186 119
25 7 15 255 186 119
25 7 16 255 186 119
25 7 17 255 186 119
25 7 18 255 186 119
25 7 26 196 175 214
25 7 27 196 175 214
25 7 28 196 175 214
25 7 29 196 175 214
25 7 30 158 216 229
25 8 26 196 175 214
25 8 27 196 175 214
25 8 28 196 175 214
25 8 29 196 175 214
25 8 30 158 216 229
25 9 26 196 175 214
25 9 27 196 175 214
25 9 28 196 175 214
25 9 29 196 175 214
25 9 30 158 216 229
25 10 29 158 216 229
25 10 30 158 216 229
25 11 30 158 216 229
25 12 30 158 216 229
25 13 30 158 216 229
26 0 8 43 160 4
26 0 9 43 160 4
26 0 10 43 160 4
26 0 11 255 186 119
26 0 12 255 186 119
26 0 13 255 186 119
26 0 14 255 186 119
26 0 15 255 186 119
26 0 16 255 186 119
26 0 17 255 186 119
26 0 18 255 186 119
26 0 19 255 186 119
26 0 20 255 186 119
26 0 21 255 186 119
26 0 22 255 186 119
26 0 23 255 186 119
26 0 24 255 186 119
26 0 25 255 186 119
26 0 26 255 186 119
26 0 27 255 186 119
26 0 28 255 186 119
26 0 29 158 216 229
26 1 10 255 186 119
26 1 11 255 186 119
26 1 12 255 186 119
26 1 13 255 186 119
26 1 14 255 186 119
26 1 15 255 186 119
26 1 16 255 186 119
26 1 17 255 186 119
26 1 18 255 186 119
26 1 19 255 186 119
26 1 20 255 186 119
26 1 21 255 186 119
26 1 22 255 186 119
26 1 23 255 186 119
26 1 24 255 186 119
26 1 25 255 186 119
26 1 26 255 186 119
26 1 27 255 186 119
26 1 28 255 186 119
26 1 29 158 216 229
26 2 10 255 186 119
26 2 11 255 186 119
26 2 12 255 186 119
26 2 13 255 186 119
26 2 14 255 186 119
26 2 15 255 186 119
26 2 16 255 186 119
26 2 17 255 186 119
26 2 18 255 186 119
26 2 19 255 186 119
26 2 20 255 186 119
26 2 21 255 186 119
26 2 22 255 186 119
26 2 23 255 186 119
26 2 24 255 186 119
26 2 25 255 186 119
26 2 26 255 186 119
26 2 27 255 186 119
26 2 28 255 186 119
26 2 29 158 216 229
26 3 10 255 186 119
26 3 11 255 186 119
26 3 12 255 186 119
26 3 13 255 186 119
26 3 14 255 186 119
26 3 15 255 186 119
26 3 16 255 186 119
26 3 17 255 186 119
26 3 18 255 186 119
26 3 19 255 186 119
26 3 20 255 186 119
26 3 21 255 186 119
26 3 22 255 186 119
26 3 23 255 186 119
26 3 24 255 186 119
26 3 25 255 186 119
26 3 26 255 186 119
26 3 27 255 186 119
26 3 28 255 186 119
26 3 29 158 216 229
26 3 30 158 216 229
26 4 10 255 186 119
26 4 11 255 186 119
26 4 12 255 186 119
26 4 13 255 186 119
26 4 14 255 186 119
26 4 15 255 186 119
26 4 16 255 186 119
26 4 17 255 186 119
26 4 18 255 186 119
26 4 19 255 186 119
26 4 20 255 186 119
26 4 21 255 186 119
26 4 22 255 186 119
26 4 23 255 186 119
26 4 24 255 186 119
26 4 25 255 186 119
26 4 26 255 186 119
26 4 27 255 186 119
26 4 28 255 186 119
26 4 29 158 216 229
26 4 30 158 216 229
26 5 10 255 186 119
26 5 11 255 186 119
26 5 12 255 186 119
26 5 13 255 186 119
26 5 14 255 186 119
26 5 15 255 186 119
26 5 16 255 186 119
26 5 17 255 186 119
26 5 18 255 186 119
26 5 19 255 186 119
26 5 20 255 186 119
26 5 21 255 186 119
26 5 22 255 186 119
26 5 23 255 186 119
26 5 24 255 186 119
26 5 25 255 186 119
26 5 26 255 186 119
26 5 27 255 186 119
26 5 28 255 186 119
26 5 29 158 216 229
26 5 30 158 216 229
26 6 10 255 186 119
26 6 11 255 186 119
26 6 12 255 186 119
26 6 13 255 186 119
26 6 14 255 186 119
26 6 15 255 186 119
26 6 16 255 186 119
26 6 17 255 186 119
26 6 18 255 186 119
26 6 19 255 186 119
26 6 20 255 186 119
26 6 21 255 186 119
26 6 22 255 186 119
26 6 23 255 186 119
26 6 24 255 186 119
26 6 25 255 186 119
26 6 26 255 186 119
26 6 27 255 186 119
26 6 28 255 186 119
26 6 29 158 216 229
26 6 30 158 216 229
26 7 11 255 186 119
26 7 12 255 186 119
26 7 13 255 186 119
26 7 14 255 186 119
26 7 15 255 186 119
26 7 16 255 186 119
26 7 17 255 186 119
26 7 18 255 186 119
26 7 26 196 175 214
26 7 27 196 175 214
26 7 28 196 175 214
26 7 29 158 216 229
26 7 30 158 216 229
26 8 26 196 175 214
26 8 27 196 175 214
26 8 28 196 175 214
26 8 29 158 216 229
26 8 30 158 216 229
26 9 26 196 175 214
26 9 27 196 175 214
26 9 28 196 175 214
26 9 29 158 216 229
26 9 30 158 216 229
26 10 29 158 216 229
26 10 30 158 216 229
26 11 29 158 216 229
26 11 30 158 216 229
26 12 29 158 216 229
26 12 30 158 216 229
26 13 30 158 216 229
27 0 8 43 160 4
27 0 9 43 160 4
27 0 10 43 160 4
27 0 11 255 186 119
27 0 12 255 186 119
27 0 13 255 186 119
27 0 14 255 186 119
27 0 15 255 186 119
27 0 16 255 186 119
27 0 17 255 186 119
27 0 18 255 186 119
27 0 19 255 186 119
27 0 20 255 186 119
27 0 21 255 186 119
27 0 22 255 186 119
27 0 23 255 186 119
27 0 24 255 186 119
27 0 25 255 186 119
27 0 26 255 186 119
27 0 27 255 186 119
27 0 28 255 186 119
27 0 29 158 216 229
27 1 10 255 186 119
27 1 11 255 186 119
27 1 12 255 186 119
27 1 13 255 186 119
27 1 14 255 186 119
27 1 15 255 186 119
27 1 16 255 186 119
27 1 17 255 186 119
27 1 18 255 186 119
27 1 19 255 186 119
27 1 20 255 186 119
27 1 21 255 186 119
27 1 22 255 186 119
27 1 23 255 186 119
27 1 24 255 186 119
27 1 25 255 186 119
27 1 26 255 186 119
27 1 27 255 186 119
27 1 28 255 186 119
27 1 29 158 216 229
27 2 10 255 186 119
27 2 11 255 186 119
27 2 12 255 186 119
27 2 13 255 186 119
27 2 14 255 186 119
27 2 15 255 186 119
27 2 16 255 186 119
27 2 17 255 186 119
27 2 18 255 186 119
27 2 19 255 186 119
27 2 20 255 186 119
27 2 21 255 186 119
27 2 22 255 186 119
27 2 23 255 186 119
27 2 24 255 186 119
27 2 25 255 186 119
27 2 26 255 186 119
27 2 27 255 186 119
27 2 28 255 186 119
27 2 29 158 216 229
27 3 10 255 186 119
27 3 11 255 186 119
27 3 12 255 186 119
27 3 13 255 186 119
27 3 14 255 186 119
27 3 15 255 186 119
27 3 16 255 186 119
27 3 17 255 186 119
27 3 18 255 186 119
27 3 19 255 186 119
27 3 20 255 186 119
27 3 21 255 186 119
27 3 22 255 186 119
27 3 23 255 186 119
27 3 24 255 186 119
27 3 25 255 186 119
27 3 26 255 186 119
27 3 27 255 186 119
27 3 28 255 186 119
27 3 29 158 216 229
27 4 10 255 186 119
27 4 11 255 186 119
27 4 12 255 186 119
27 4 13 255 186 119
27 4 14 255 186 119
27 4 15 255 186 119
27 4 16 255 186 119
27 4 17 255 186 119
27 4 18 255 186 119
27 4 19 255 186 119
27 4 20 255 186 119
27 4 21 255 186 119
27 4 22 255 186 119
27 4 23 255 186 119
27 4 24 255 186 119
27 4 25 255 186 119
27 4 26 255 186 119
27 4 27 255 186 119
27 4 28 255 186 119
27 4 29 158 216 229
27 5 10 255 186 119
27 5 11 255 186 119
27 5 12 255 186 119
27 5 13 255 186 119
27 5 14 255 186 119
27 5 15 255 186 119
27 5 16 255 186 119
27 5 17 255 186 119
27 5 18 255 186 119
27 5 19 255 186 119
27 5 20 255 186 119
27 5 21 255 186 119
27 5 22 255 186 119
27 5 23 255 186 119
27 5 24 255 186 119
27 5 25 255 186 119
27 5 26 255 186 119
27 5 27 255 186 119
27 5 28 255 186 119
27 5 29 158 216 229
27 6 10 255 186 119
27 6 11 255 186 119
27 6 12 255 186 119
27 6 13 255 186 119
27 6 14 255 186 119
27 6 15 255 186 119
27 6 16 255 186 119
27 6 17 255 186 119
27 6 18 255 186 119
27 6 19 255 186 119
27 6 20 255 186 119
27 6 21 255 186 119
27 6 22 255 186 119
27 6 23 255 186 119
27 6 24 255 186 119
27 6 25 255 186 119
27 6 26 255 186 119
27 6 27 255 186 119
27 6 28 255 186 119
27 6 29 158 216 229
27 7 10 255 186 119
27 7 11 255 186 119
27 7 12 255 186 119
27 7 13 255 186 119
27 7 14 255 186 119
27 7 15 255 186 119
27 7 16 255 186 119
27 7 17 255 186 119
27 7 18 255 186 119
27 7 19 255 186 119
27 7 26 196 175 214
27 7 27 196 175 214
27 7 28 196 175 214
27 7 29 158 216 229
27 8 26 196 175 214
27 8 27 196 175 214
27 8 28 196 175 214
27 8 29 158 216 229
27 9 26 196 175 214
27 9 27 196 175 214
27 9 28 196 175 214
27 9 29 158 216 229
27 10 29 158 216 229
27 11 29 158 216 229
27 12 29 158 216 229
28 0 8 43 160 4
28 0 9 43 160 4
28 0 10 255 186 119
28 0 11 255 186 119
28 0 12 255 186 119
28 0 13 255 186 119
28 0 14 255 186 119
28 0 15 255 186 119
28 0 16 255 186 119
28 0 17 255 186 119
28 0 18 255 186 119
28 0 19 255 186 119
28 0 20 255 186 119
28 0 21 255 186 119
28 0 22 255 186 119
28 0 23 255 186 119
28 0 24 255 186 119
28 0 25 255 186 119
28 0 26 255 186 119
28 0 27 255 186 119
28 0 28 158 216 229
28 0 29 158 216 229
28 1 9 255 186 119
28 1 10 255 186 119
28 1 11 255 186 119
28 1 12 255 186 119
28 1 13 255 186 119
28 1 14 255 186 119
28 1 15 255 186 119
28 1 16 255 186 119
28 1 17 255 186 119
28 1 18 255 186 119
28 1 19 255 186 119
28 1 20 255 186 119
28 1 21 255 186 119
28 1 22 255 186 119
28 1 23 255 186 119
28 1 24 255 186 119
28 1 25 255 186 119
28 1 26 255 186 119
28 1 27 255 186 119
28 1 28 158 216 229
28 1 29 158 216 229
28 2 10 255 186 119
28 2 11 255 186 119
28 2 12 255 186 119
28 2 13 255 186 119
28 2 14 255 186 119
28 2 15 255 186 119
28 2 16 255 186 119
28 2 17 255 186 119
28 2 18 255 186 119
28 2 19 255 186 119
28 2 20 255 186 119
28 2 21 255 186 119
28 2 22 255 186 119
28 2 23 255 186 119
28 2 24 255 186 119
28 2 25 255 186 119
28 2 26 255 186 119
28 2 27 255 186 119
28 2 28 158 216 229
28 2 29 158 216 229
28 3 10 255 186 119
28 3 11 255 186 119
28 3 12 255 186 119
28 3 13 255 186 119
28 3 14 255 186 119
28 3 15 255 186 119
28 3 16 255 186 119
28 3 17 255 186 119
28 3 18 255 186 119
28 3 19 255 186 119
28 3 20 255 186 119
28 3 21 255 186 119
28 3 22 255 186 119
28 3 23 255 186 119
28 3 24 255 186 119
28 3 25 255 186 119
28 3 26 255 186 119
28 3 27 255 186 119
28 3 28 158 216 229
28 3 29 158 216 229
28 4 10 255 186 119
28 4 11 255 186 119
28 4 12 255 186 119
28 4 13 255 186 119
28 4 14 255 186 119
28 4 15 255 186 119
28 4 16 255 186 119
28 4 17 255 186 119
28 4 18 255 186 119
28 4 19 255 186 119
28 4 20 255 186 119
28 4 21 255 186 119
28 4 22 255 186 119
28 4 23 255 186 119
28 4 24 255 186 119
28 4 25 255 186 119
28 4 26 255 186 119
28 4 27 255 186 119
28 4 28 158 216 229
28 4 29 158 216 229
28 5 10 255 186 119
28 5 11 255 186 119
28 5 12 255 186 119
28 5 13 255 186 119
28 5 14 255 186 119
28 5 15 255 186 119
28 5 16 255 186 119
28 5 17 255 186 119
28 5 18 255 186 119
28 5 19 255 186 119
28 5 20 255 186 119
28 5 21 255 186 119
28 5 22 255 186 119
28 5 23 255 186 119
28 5 24 255 186 119
28 5 25 255 186 119
28 5 26 255 186 119
28 5 27 255 186 119
28 5 28 255 186 119
28 5 29 158 216 229
28 6 10 255 186 119
28 6 11 255 186 119
28 6 12 255 186 119
28 6 13 255 186 119
28 6 14 255 186 119
28 6 15 255 186 119
28 6 16 255 186 119
28 6 17 255 186 119
28 6 18 255 186 119
28 6 19 255 186 119
28 6 20 255 186 119
28 6 21 255 186 119
28 6 22 255 186 119
28 6 23 255 186 119
28 6 24 255 186 119
28 6 25 255 186 119
28 6 26 255 186 119
28 6 27 255 186 119
28 6 28 255 186 119
28 6 29 158 216 229
28 7 10 255 186 119
28 7 11 255 186 119
28 7 12 255 186 119
28 7 13 255 186 119
28 7 14 255 186 119
28 7 15 255 186 119
28 7 16 255 186 119
28 7 17 255 186 119
28 7 18 255 186 119
28 7 19 255 186 119
28 7 25 196 175 214
28 7 26 196 175 214
28 7 27 196 175 214
28 7 28 196 175 214
28 7 29 158 216 229
28 8 25 196 175 214
28 8 26 196 175 214
28 8 27 196 175 214
28 8 28 196 175 214
28 8 29 158 216 229
28 9 25 196 175 214
28 9 26 196 175 214
28 9 27 196 175 214
28 9 28 196 175 214
28 9 29 158 216 229
28 10 28 158 216 229
28 10 29 158 216 229
28 11 28 158 216 229
28 11 29 158 216 229
28 12 28 158 216 229
28 12 29 158 216 229
29 0 8 43 160 4
29 0 9 43 160 4
29 0 10 255 186 119
29 0 11 255 186 119
29 0 12 255 186 119
29 0 13 255 186 119
29 0 14 255 186 119
29 0 15 255 186 119
29 0 16 255 186 119
29 0 17 255 186 119
29 0 18 255 186 119
29 0 19 255 186 119
29 0 20 255 186 119
29 0 21 255 186 119
29 0 22 255 186 119
29 0 23 255 186 119
29 0 24 255 186 119
29 0 25 255 186 119
29 0 26 255 186 119
29 0 27 255 186 119
29 0 28 158 216 229
29 1 9 255 186 119
29 1 10 255 186 119
29 1 11 255 186 119
29 1 12 255 186 119
29 1 13 255 186 119
29 1 14 255 186 119
29 1 15 255 186 119
29 1 16 255 186 119
29 1 17 255 186 119
29 1 18 255 186 119
29 1 19 255 186 119
29 1 20 255 186 119
29 1 21 255 186 119
29 1 22 255 186 119
29 1 23 255 186 119
29 1 24 255 186 119
29 1 25 255 186 119
29 1 26 255 186 119
29 1 27 255 186 119
29 1 28 158 216 229
29 2 9 255 186 119
29 2 10 255 186 119
29 2 11 255 186 119
29 2 12 255 186 119
29 2 13 255 186 119
29 2 14 255 186 119
29 2 15 255 186 119
29 2 16 255 186 119
29 2 17 255 186 119
29 2 18 255 186 119
29 2 19 255 186 119
29 2 20 255 186 119
29 2 21 255 186 119
29 2 22 255 186 119
29 2 23 255 186 119
29 2 24 255 186 119
29 2 25 255 186 119
29 2 26 255 186 119
29 2 27 255 186 119
29 2 28 158 216 229
29 3 9 255 186 119
29 3 10 255 186 119
29 3 11 255 186 119
29 3 12 255 186 119
29 3 13 255 186 119
29 3 14 255 186 119
29 3 15 255 186 119
29 3 16 255 186 119
29 3 17 255 186 119
29 3 18 255 186 119
29 3 19 255 186 119
29 3 20 255 186 119
29 3 21 255 186 119
29 3 22 255 186 119
29 3 23 255 186 119
29 3 24 255 186 119
29 3 25 255 186 119
29 3 26 255 186 119
29 3 27 255 186 119
29 3 28 158 216 229
29 4 9 255 186 119
29 4 10 255 186 119
29 4 11 255 186 119
29 4 12 255 186 119
29 4 13 255 186 119
29 4 14 255 186 119
29 4 15 255 186 119
29 4 16 255 186 119
29 4 17 255 186 119
29 4 18 255 186 119
29 4 19 255 186 119
29 4 20 255 186 119
29 4 21 255 186 119
29 4 22 255 186 119
29 4 23 255 186 119
29 4 24 255 186 119
29 4 25 255 186 119
29 4 26 255 186 119
29 4 27 255 186 119
29 4 28 158 216 229
29 5 9 255 186 119
29 5 10 255 186 119
29 5 11 255 186 119
29 5 12 255 186 119
29 5 13 255 186 119
29 5 14 255 186 119
29 5 15 255 186 119
29 5 16 255 186 119
29 5 17 255 186 119
29 5 18 255 186 119
29 5 19 255 186 119
29 5 20 255 186 119
29 5 21 255 186 119
29 5 22 255 186 119
29 5 23 255 186 119
29 5 24 255 186 119
29 5 25 255 186 119
29 5 26 255 186 119
29 5 27 255 186 119
29 5 28 158 216 229
29 6 9 255 186 119
29 6 10 255 186 119
29 6 11 255 186 119
29 6 12 255 186 119
29 6 13 255 186 119
29 6 14 255 186 119
29 6 15 255 186 119
29 6 16 255 186 119
29 6 17 255 186 119
29 6 18 255 186 119
29 6 19 255 186 119
29 6 20 255 186 119
29 6 21 255 186 119
29 6 22 255 186 119
29 6 23 255 186 119
29 6 24 255 186 119
29 6 25 255 186 119
29 6 26 255 186 119
29 6 27 255 186 119
29 6 28 158 216 229
29 7 9 255 186 119
29 7 10 255 186 119
29 7 11 255 186 119
29 7 12 255 186 119
29 7 13 255 186 119
29 7 14 255 186 119
29 7 15 255 186 119
29 7 16 255 186 119
29 7 17 255 186 119
29 7 18 255 186 119
29 7 19 255 186 119
29 7 20 255 186 119
29 7 25 196 175 214
29 7 26 196 175 214
29 7 27 196 175 214
29 7 28 158 216 229
29 8 25 196 175 214
29 8 26 196 175 214
29 8 27 196 175 214
29 8 28 158 216 229
29 9 25 196 175 214
29 9 26 196 175 214
29 9 27 196 175 214
29 9 28 158 216 229
29 10 28 158 216 229
29 11 28 158 216 229
29 12 28 158 216 229
29 12 29 158 216 229
29 13 29 158 216 229
30 0 8 43 160 4
30 0 9 255 186 119
30 0 10 255 186 119
30 0 11 255 186 119
30 0 12 255 186 119
30 0 13 255 186 119
30 0 14 255 186 119
30 0 15 255 186 119
30 0 16 255 186 119
30 0 17 255 186 119
30 0 18 255 186 119
30 0 19 255 186 119
30 0 20 255 186 119
30 0 21 255 186 119
30 0 22 255 186 119
30 0 23 255 186 119
30 0 24 255 186 119
30 0 25 255 186 119
30 0 26 255 186 119
30 0 27 255 186 119
30 0 28 158 216 229
30 1 9 255 186 119
30 1 10 255 186 119
30 1 11 255 186 119
30 1 12 255 186 119
30 1 13 255 186 119
30 1 14 255 186 119
30 1 15 255 186 119
30 1 16 255 186 119
30 1 17 255 186 119
30 1 18 255 186 119
30 1 19 255 186 119
30 1 20 255 186 119
30 1 21 255 186 119
30 1 22 255 186 119
30 1 23 255 186 119
30 1 24 255 186 119
30 1 25 255 186 119
30 1 26 255 186 119
30 1 27 255 186 119
30 1 28 158 216 229
30 2 9 255 186 119
30 2 10 255 186 119
30 2 11 255 186 119
30 2 12 255 186 119
30 2 13 255 186 119
30 2 14 255 186 119
30 2 15 255 186 119
30 2 16 255 186 119
30 2 17 255 186 119
30 2 18 255 186 119
30 2 19 255 186 119
30 2 20 255 186 119
30 2 21 255 186 119
30 2 22 255 186 119
30 2 23 255 186 119
30 2 24 255 186 119
30 2 25 255 186 119
30 2 26 255 186 119
30 2 27 255 186 119
30 2 28 158 216 229
30 3 9 255 186 119
30 3 10 255 186 119
30 3 11 255 186 119
30 3 12 255 186 119
30 3 13 255 186 119
30 3 14 255 186 119
30 3 15 255 186 119
30 3 16 255 186 119
30 3 17 255 186 119
30 3 18 255 186 119
30 3 19 255 186 119
30 3 20 255 186 119
30 3 21 255 186 119
30 3 22 255 186 119
30 3 23 255 186 119
30 3 24 255 186 119
30 3 25 255 186 119
30 3 26 255 186 119
30 3 27 255 186 119
30 3 28 158 216 229
30 4 9 255 186 119
30 4 10 255 186 119
30 4 11 255 186 119
30 4 12 255 186 119
30 4 13 255 186 119
30 4 14 255 186 119
30 4 15 255 186 119
30 4 16 255 186 119
30 4 17 255 186 119
30 4 18 255 186 119
30 4 19 255 186 119
30 4 20 255 186 119
30 4 21 255 186 119
30 4 22 255 186 119
30 4 23 255 186 119
30 4 24 255 186 119
30 4 25 255 186 119
30 4 26 255 186 119
30 4 27 255 186 119
30 4 28 158 216 229
30 5 9 255 186 119
30 5 10 255 186 119
30 5 11 255 186 119
30 5 12 255 186 119
30 5 13 255 186 119
30 5 14 255 186 119
30 5 15 255 186 119
30 5 16 255 186 119
30 5 17 255 186 119
30 5 18 255 186 119
30 5 19 255 186 119
30 5 20 255 186 119
30 5 21 255 186 119
30 5 22 255 186 119
30 5 23 255 186 119
30 5 24 255 186 119
30 5 25 255 186 119
30 5 26 255 186 119
30 5 27 255 186 119
30 5 28 158 216 229
30 6 9 255 186 119
30 6 10 255 186 119
30 6 11 255 186 119
30 6 12 255 186 119
30 6 13 255 186 119
30 6 14 255 186 119
30 6 15 255 186 119
30 6 16 255 186 119
30 6 17 255 186 119
30 6 18 255 186 119
30 6 19 255 186 119
30 6 20 255 186 119
30 6 21 255 186 119
30 6 22 255 186 119
30 6 23 255 186 119
30 6 24 255 186 119
30 6 25 255 186 119
30 6 26 255 186 119
30 6 27 255 186 119
30 6 28 158 216 229
30 7 9 255 186 119
30 7 10 255 186 119
30 7 11 255 186 119
30 7 12 255 186 119
30 7 13 255 186 119
30 7 14 255 186 119
30 7 15 255 186 119
30 7 16 255 186 119
30 7 17 255 186 119
30 7 18 255 186 119
30 7 19 255 186 119
30 7 20 255 186 119
30 7 24 196 175 214
30 7 25 196 175 214
30 7 26 196 175 214
30 7 27 196 175 214
30 7 28 158 216 229
30 8 24 196 175 214
30 8 25 196 175 214
30 8 26 196 175 214
30 8 27 196 175 214
30 8 28 158 216 229
30 9 24 196 175 214
30 9 25 196 175 214
30 9 26 196 175 214
30 9 27 196 175 214
30 9 28 158 216 229
30 10 28 158 216 229
30 11 28 158 216 229
30 12 28 158 216 229
31 0 8 43 160 4
31 0 9 255 186 119
31 0 10 255 186 119
31 0 11 255 186 119
31 0 12 255 186 119
31 0 13 255 186 119
31 0 14 255 186 119
31 0 15 255 186 119
31 0 16 255 186 119
31 0 17 255 186 119
31 0 18 255 186 119
31 0 19 255 186 119
31 0 20 255 186 119
31 0 21 255 186 119
31 0 22 255 186 119
31 0 23 255 186 119
31 0 24 255 186 119
31 0 25 255 186 119
31 0 26 255 186 119
31 0 27 158 216 229
31 1 8 255 186 119
31 1 9 255 186 119
31 1 10 255 186 119
31 1 11 255 186 119
31 1 12 255 186 119
31 1 13 255 186 119
31 1 14 255 186 119
31 1 15 255 186 119
31 1 16 255 186 119
31 1 17 255 186 119
31 1 18 255 186 119
31 1 19 255 186 119
31 1 20 255 186 119
31 1 21 255 186 119
31 1 22 255 186 119
31 1 23 255 186 119
31 1 24 255 186 119
31 1 25 255 186 119
31 1 26 255 186 119
31 1 27 158 216 229
31 2 8 255 186 119
31 2 9 255 186 119
31 2 10 255 186 119
31 2 11 255 186 119
31 2 12 255 186 119
31 2 13 255 186 119
31 2 14 255 186 119
31 2 15 255 186 119
31 2 16 255 186 119
31 2 17 255 186 119
31 2 18 255 186 119
31 2 19 255 186 119
31 2 20 255 186 119
31 2 21 255 186 119
31 2 22 255 186 119
31 2 23 255 186 119
31 2 24 255 186 119
31 2 25 255 186 119
31 2 26 255 186 119
31 2 27 158 216 229
31 3 8 255 186 119
31 3 9 255 186 119
31 3 10 255 186 119
31 3 11 255 186 119
31 3 12 255 186 119
31 3 13 255 186 119
31 3 14 255 186 119
31 3 15 255 186 119
31 3 16 255 186 119
31 3 17 255 186 119
31 3 18 255 186 119
31 3 19 255 186 119
31 3 20 255 186 119
31 3 21 255 186 119
31 3 22 255 186 119
31 3 23 255 186 119
31 3 24 255 186 119
31 3 25 255 186 119
31 3 26 255 186 119
31 3 27 158 216 229
31 3 28 158 216 229
31 4 8 255 186 119
31 4 9 255 186 119
31 4 10 255 186 119
31 4 11 255 186 119
31 4 12 255 186 119
31 4 13 255 186 119
31 4 14 255 186 119
31 4 15 255 186 119
31 4 16 255 186 119
31 4 17 255 186 119
31 4 18 255 186 119
31 4 19 255 186 119
31 4 20 255 186 119
31 4 21 255 186 119
31 4 22 255 186 119
31 4 23 255 186 119
31 4 24 255 186 119
31 4 25 255 186 119
31 4 26 255 186 119
31 4 27 158 216 229
31 4 28 158 216 229
31 5 8 255 186 119
31 5 9 255 186 119
31 5 10 255 186 119
31 5 11 255 186 119
31 5 12 255 186 119
31 5 13 255 186 119
31 5 14 255 186 119
31 5 15 255 186 119
31 5 16 255 186 119
31 5 17 255 186 119
31 5 18 255 186 119
31 5 19 255 186 119
31 5 20 255 186 119
31 5 21 255 186 119
31 5 22 255 186 119
31 5 23 255 186 119
31 5 24 255 186 119
31 5 25 255 186 119
31 5 26 255 186 119
31 5 27 158 216 229
31 5 28 158 216 229
31 6 8 255 186 119
31 6 9 255 186 119
31 6 10 255 186 119
31 6 11 255 186 119
31 6 12 255 186 119
31 6 13 255 186 119
31 6 14 255 186 119
31 6 15 255 186 119
31 6 16 255 186 119
31 6 17 255 186 119
31 6 18 255 186 119
31 6 19 255 186 119
31 6 20 255 186 119
31 6 21 255 186 119
31 6 22 255 186 119
31 6 23 255 186 119
31 6 24 255 186 119
31 6 25 255 186 119
31 6 26 255 186 119
31 6 27 158 216 229
31 6 28 158 216 229
31 7 9 255 186 119
31 7 10 255 186 119
31 7 11 255 186 119
31 7 12 255 186 119
31 7 13 255 186 119
31 7 14 255 186 119
31 7 15 255 186 119
31 7 16 255 186 119
31 7 17 255 186 119
31 7 18 255 186 119
31 7 19 255 186 119
31 7 20 255 186 119
31 7 21 255 186 119
31 7 24 196 175 214
31 7 25 196 175 214
31 7 26 196 175 214
31 7 27 158 216 229
31 7 28 158 216 229
31 8 24 196 175 214
31 8 25 196 175 214
31 8 26 196 175 214
31 8 27 158 216 229
31 8 28 158 216 229
31 9 24 196 175 214
31 9 25 196 175 214
31 9 26 196 175 214
31 9 27 158 216 229
31 9 28 158 216 229
31 10 27 158 216 229
31 10 28 158 216 229
31 11 27 158 216 229
31 11 28 158 216 229
31 12 27 158 216 229
31 12 28 158 216 229
32 0 8 43 160 4
32 0 9 43 160 4
32 0 10 255 186 119
32 0 11 255 186 119
32 0 12 255 186 119
32 0 13 255 186 119
32 0 14 255 186 119
32 0 15 255 186 119
32 0 16 255 186 119
32 0 17 255 186 119
32 0 18 255 186 119
32 0 19 255 186 119
32 0 20 255 186 119
32 0 21 255 186 119
32 0 22 255 186 119
32 0 23 255 186 119
32 0 24 255 186 119
32 0 25 255 186 119
32 0 26 255 186 119
32 0 27 158 216 229
32 1 8 255 186 119
32 1 9 255 186 119
32 1 10 255 186 119
32 1 11 255 186 119
32 1 12 255 186 119
32 1 13 255 186 119
32 1 14 255 186 119
32 1 15 255 186 119
32 1 16 255 186 119
32 1 17 255 186 119
32 1 18 255 186 119
32 1 19 255 186 119
32 1 20 255 186 119
32 1 21 255 186 119
32 1 22 255 186 119
32 1 23 255 186 119
32 1 24 255 186 119
32 1 25 255 186 119
32 1 26 255 186 119
32 1 27 158 216 229
32 2 8 255 186 119
32 2 9 255 186 119
32 2 10 255 186 119
32 2 11 255 186 119
32 2 12 255 186 119
32 2 13 255 186 119
32 2 14 255 186 119
32 2 15 255 186 119
32 2 16 255 186 119
32 2 17 255 186 119
32 2 18 255 186 119
32 2 19 255 186 119
32 2 20 255 186 119
32 2 21 255 186 119
32 2 22 255 186 119
32 2 23 255 186 119
32 2 24 255 186 119
32 2 25 255 186 119
32 2 26 255 186 119
32 2 27 158 216 229
32 3 8 255 186 119
32 3 9 255 186 119
32 3 10 255 186 119
32 3 11 255 186 119
32 3 12 255 186 119
32 3 13 255 186 119
32 3 14 255 186 119
32 3 15 255 186 119
32 3 16 255 186 119
32 3 17 255 186 119
32 3 18 255 186 119
32 3 19 255 186 119
32 3 20 255 186 119
32 3 21 255 186 119
32 3 22 255 186 119
32 3 23 255 186 119
32 3 24 255 186 119
32 3 25 255 186 119
32 3 26 255 186 119
32 3 27 158 216 229
32 4 8 255 186 119
32 4 9 255 186 119
32 4 10 255 186 119
32 4 11 255 186 119
32 4 12 255 186 119
32 4 13 255 186 119
32 4 14 255 186 119
32 4 15 255 186 119
32 4 16 255 186 119
32 4 17 255 186 119
32 4 18 255 186 119
32 4 19 255 186 119
32 4 20 255 186 119
32 4 21 255 186 119
32 4 22 255 186 119
32 4 23 255 186 119
32 4 24 255 186 119
32 4 25 255 186 119
32 4 26 255 186 119
32 4 27 158 216 229
32 5 8 255 186 119
32 5 9 255 186 119
32 5 10 255 186 119
32 5 11 255 186 119
32 5 12 255 186 119
32 5 13 255 186 119
32 5 14 255 186 119
32 5 15 255 186 119
32 5 16 255 186 119
32 5 17 255 186 119
32 5 18 255 186 119
32 5 19 255 186 119
32 5 20 255 186 119
32 5 21 255 186 119
32 5 22 255 186 119
32 5 23 255 186 119
32 5 24 255 186 119
32 5 25 255 186 119
32 5 26 255 186 119
32 5 27 158 216 229
32 6 8 255 186 119
32 6 9 255 186 119
32 6 10 255 186 119
32 6 11 255 186 119
32 6 12 255 186 119
32 6 13 255 186 119
32 6 14 255 186 119
32 6 15 255 186 119
32 6 16 255 186 119
32 6 17 255 186 119
32 6 18 255 186 119
32 6 19 255 186 119
32 6 20 255 186 119
32 6 21 255 186 119
32 6 22 255 186 119
32 6 23 255 186 119
32 6 24 255 186 119
32 6 25 255 186 119
32 6 26 255 186 119
32 6 27 158 216 229
32 7 9 255 186 119
32 7 10 255 186 119
32 7 11 255 186 119
32 7 12 255 186 119
32 7 13 255 186 119
32 7 14 255 186 119
32 7 15 255 186 119
32 7 16 255 186 119
32 7 17 255 186 119
32 7 18 255 186 119
32 7 19 255 186 119
32 7 20 255 186 119
32 7 21 255 186 119
32 7 24 196 175 214
32 7 25 196 175 214
32 7 26 196 175 214
32 7 27 158 216 229
32 8 24 196 175 214
32 8 25 196 175 214
32 8 26 196 175 214
32 8 27 158 216 229
32 9 24 196 175 214
32 9 25 196 175 214
32 9 26 196 175 214
32 9 27 158 216 229
32 10 27 158 216 229
32 11 27 158 216 229
32 12 27 158 216 229
33 0 8 43 160 4
33 0 9 43 160 4
33 0 10 43 160 4
33 0 11 43 160 4
33 0 12 255 186 119
33 0 13 255 186 119
33 0 14 255 186 119
33 0 15 255 186 119
33 0 16 255 186 119
33 0 17 255 186 119
33 0 18 255 186 119
33 0 19 255 186 119
33 0 20 255 186 119
33 0 21 255 186 119
33 0 22 255 186 119
33 0 23 255 186 119
33 0 24 255 186 119
33 0 25 255 186 119
33 0 26 43 160 4
33 0 27 158 216 229
33 1 11 255 186 119
33 1 12 255 186 119
33 1 13 255 186 119
33 1 14 255 186 119
33 1 15 255 186 119
33 1 16 255 186 119
33 1 17 255 186 119
33 1 18 255 186 119
33 1 19 255 186 119
33 1 20 255 186 119
33 1 21 255 186 119
33 1 22 255 186 119
33 1 23 255 186 119
33 1 24 255 186 119
33 1 25 255 186 119
33 1 26 158 216 229
33 1 27 158 216 229
33 2 11 255 186 119
33 2 12 255 186 119
33 2 13 255 186 119
33 2 14 255 186 119
33 2 15 255 186 119
33 2 16 255 186 119
33 2 17 255 186 119
33 2 18 255 186 119
33 2 19 255 186 119
33 2 20 255 186 119
33 2 21 255 186 119
33 2 22 255 186 119
33 2 23 255 186 119
33 2 24 255 186 119
33 2 25 255 186 119
33 2 26 158 216 229
33 2 27 158 216 229
33 3 11 255 186 119
33 3 12 255 186 119
33 3 13 255 186 119
33 3 14 255 186 119
33 3 15 255 186 119
33 3 16 255 186 119
33 3 17 255 186 119
33 3 18 255 186 119
33 3 19 255 186 119
33 3 20 255 186 119
33 3 21 255 186 119
33 3 22 255 186 119
33 3 23 255 186 119
33 3 24 255 186 119
33 3 25 255 186 119
33 3 26 158 216 229
33 3 27 158 216 229
33 4 11 255 186 119
33 4 12 255 186 119
33 4 13 255 186 119
33 4 14 255 186 119
33 4 15 255 186 119
33 4 16 255 186 119
33 4 17 255 186 119
33 4 18 255 186 119
33 4 19 255 186 119
33 4 20 255 186 119
33 4 21 255 186 119
33 4 22 255 186 119
33 4 23 255 186 119
33 4 24 255 186 119
33 4 25 255 186 119
33 4 26 158 216 229
33 4 27 158 216 229
33 5 11 255 186 119
33 5 12 255 186 119
33 5 13 255 186 119
33 5 14 255 186 119
33 5 15 255 186 119
33 5 16 255 186 119
33 5 17 255 186 119
33 5 18 255 186 119
33 5 19 255 186 119
33 5 20 255 186 119
33 5 21 255 186 119
33 5 22 255 186 119
33 5 23 255 186 119
33 5 24 255 186 119
33 5 25 255 186 119
33 5 26 158 216 229
33 5 27 158 216 229
33 6 11 255 186 119
33 6 12 255 186 119
33 6 13 255 186 119
33 6 14 255 186 119
33 6 15 255 186 119
33 6 16 255 186 119
33 6 17 255 186 119
33 6 18 255 186 119
33 6 19 255 186 119
33 6 20 255 186 119
33 6 21 255 186 119
33 6 22 255 186 119
33 6 23 255 186 119
33 6 24 255 186 119
33 6 25 255 186 119
33 6 26 255 186 119
33 6 27 158 216 229
33 7 11 255 186 119
33 7 12 255 186 119
33 7 13 255 186 119
33 7 14 255 186 119
33 7 15 255 186 119
33 7 16 255 186 119
33 7 17 255 186 119
33 7 18 255 186 119
33 7 19 255 186 119
33 7 20 255 186 119
33 7 21 255 186 119
33 7 22 255 186 119
33 7 23 196 175 214
33 7 24 196 175 214
33 7 25 196 175 214
33 7 26 158 216 229
33 7 27 158 216 229
33 8 23 196 175 214
33 8 24 196 175 214
33 8 25 196 175 214
33 8 26 196 175 214
33 8 27 158 216 229
33 9 23 196 175 214
33 9 24 196 175 214
33 9 25 196 175 214
33 9 26 196 175 214
33 9 27 158 216 229
33 10 26 158 216 229
33 10 27 158 216 229
33 11 26 158 216 229
33 11 27 158 216 229
33 12 26 158 216 229
33 12 27 158 216 229
34 0 9 43 160 4
34 0 10 43 160 4
34 0 11 43 160 4
34 0 12 43 160 4
34 0 13 43 160 4
34 0 14 43 160 4
34 0 15 255 186 119
34 0 16 255 186 119
34 0 17 255 186 119
34 0 18 255 186 119
34 0 19 255 186 119
34 0 20 255 186 119
34 0 21 255 186 119
34 0 22 255 186 119
34 0 23 255 186 119
34 0 24 255 186 119
34 0 25 255 186 119
34 0 26 158 216 229
34 1 13 255 186 119
34 1 14 255 186 119
34 1 15 255 186 119
34 1 16 255 186 119
34 1 17 255 186 119
34 1 18 255 186 119
34 1 19 255 186 119
34 1 20 255 186 119
34 1 21 255 186 119
34 1 22 255 186 119
34 1 23 255 186 119
34 1 24 255 186 119
34 1 25 255 186 119
34 1 26 158 216 229
34 2 13 255 186 119
34 2 14 255 186 119
34 2 15 255 186 119
34 2 16 255 186 119
34 2 17 255 186 119
34 2 18 255 186 119
34 2 19 255 186 119
34 2 20 255 186 119
34 2 21 255 186 119
34 2 22 255 186 119
34 2 23 255 186 119
34 2 24 255 186 119
34 2 25 255 186 119
34 2 26 158 216 229
34 3 13 255 186 119
34 3 14 255 186 119
34 3 15 255 186 119
34 3 16 255 186 119
34 3 17 255 186 119
34 3 18 255 186 119
34 3 19 255 186 119
34 3 20 255 186 119
34 3 21 255 186 119
34 3 22 255 186 119
34 3 23 255 186 119
34 3 24 255 186 119
34 3 25 255 186 119
34 3 26 158 216 229
34 4 13 255 186 119
34 4 14 255 186 119
34 4 15 255 186 119
34 4 16 255 186 119
34 4 17 255 186 119
34 4 18 255 186 119
34 4 19 255 186 119
34 4 20 255 186 119
34 4 21 255 186 119
34 4 22 255 186 119
34 4 23 255 186 119
34 4 24 255 186 119
34 4 25 255 186 119
34 4 26 158 216 229
34 5 13 255 186 119
34 5 14 255 186 119
34 5 15 255 186 119
34 5 16 255 186 119
34 5 17 255 186 119
34 5 18 255 186 119
34 5 19 255 186 119
34 5 20 255 186 119
34 5 21 255 186 119
34 5 22 255 186 119
34 5 23 255 186 119
34 5 24 255 186 119
34 5 25 255 186 119
34 5 26 158 216 229
34 6 13 255 186 119
34 6 14 255 186 119
34 6 15 255 186 119
34 6 16 255 186 119
34 6 17 255 186 119
34 6 18 255 186 119
34 6 19 255 186 119
34 6 20 255 186 119
34 6 21 255 186 119
34 6 22 255 186 119
34 6 23 255 186 119
34 6 24 255 186 119
34 6 25 255 186 119
34 6 26 158 216 229
34 7 14 255 186 119
34 7 15 255 186 119
34 7 16 255 186 119
34 7 17 255 186 119
34 7 18 255 186 119
34 7 19 255 186 119
34 7 20 255 186 119
34 7 21 255 186 119
34 7 22 255 186 119
34 7 23 196 175 214
34 7 24 196 175 214
34 7 25 196 175 214
34 7 26 158 216 229
34 8 23 196 175 214
34 8 24 196 175 214
34 8 25 196 175 214
34 8 26 158 216 229
34 9 23 196 175 214
34 9 24 196 175 214
34 9 25 196 175 214
34 9 26 158 216 229
34 10 26 158 216 229
34 11 26 158 216 229
34 12 26 158 216 229
34 12 27 158 216 229
35 0 9 43 160 4
35 0 10 43 160 4
35 0 11 43 160 4
35 0 12 43 160 4
35 0 13 43 160 4
35 0 14 43 160 4
35 0 15 43 160 4
35 0 16 43 160 4
35 0 17 255 186 119
35 0 18 255 186 119
35 0 19 255 186 119
35 0 20 255 186 119
35 0 21 255 186 119
35 0 22 255 186 119
35 0 23 255 186 119
35 0 24 255 186 119
35 0 25 43 160 4
35 0 26 158 216 229
35 1 16 255 186 119
35 1 17 255 186 119
35 1 18 255 186 119
35 1 19 255 186 119
35 1 20 255 186 119
35 1 21 255 186 119
35 1 22 255 186 119
35 1 23 255 186 119
35 1 24 255 186 119
35 1 25 255 186 119
35 1 26 158 216 229
35 2 16 255 186 119
35 2 17 255 186 119
35 2 18 255 186 119
35 2 19 255 186 119
35 2 20 255 186 119
35 2 21 255 186 119
35 2 22 255 186 119
35 2 23 255 186 119
35 2 24 255 186 119
35 2 25 255 186 119
35 2 26 158 216 229
35 3 16 255 186 119
35 3 17 255 186 119
35 3 18 255 186 119
35 3 19 255 186 119
35 3 20 255 186 119
35 3 21 255 186 119
35 3 22 255 186 119
35 3 23 255 186 119
35 3 24 255 186 119
35 3 25 255 186 119
35 3 26 158 216 229
35 4 16 255 186 119
35 4 17 255 186 119
35 4 18 255 186 119
35 4 19 255 186 119
35 4 20 255 186 119
35 4 21 255 186 119
35 4 22 255 186 119
35 4 23 255 186 119
35 4 24 255 186 119
35 4 25 255 186 119
35 4 26 158 216 229
35 5 16 255 186 119
35 5 17 255 186 119
35 5 18 255 186 119
35 5 19 255 186 119
35 5 20 255 186 119
35 5 21 255 186 119
35 5 22 255 186 119
35 5 23 255 186 119
35 5 24 255 186 119
35 5 25 255 186 119
35 5 26 158 216 229
35 6 16 255 186 119
35 6 17 255 186 119
35 6 18 255 186 119
35 6 19 255 186 119
35 6 20 255 186 119
35 6 21 255 186 119
35 6 22 255 186 119
35 6 23 255 186 119
35 6 24 255 186 119
35 6 25 255 186 119
35 6 26 158 216 229
35 7 16 255 186 119
35 7 17 255 186 119
35 7 18 255 186 119
35 7 19 255 186 119
35 7 20 255 186 119
35 7 21 255 186 119
35 7 22 255 186 119
35 7 23 255 186 119
35 7 25 196 175 214
35 7 26 158 216 229
35 8 24 196 175 214
35 8 25 196 175 214
35 8 26 158 216 229
35 9 24 196 175 214
35 9 25 196 175 214
35 9 26 158 216 229
35 10 26 158 216 229
35 11 26 158 216 229
35 12 26 158 216 229
36 0 9 43 160 4
36 0 10 43 160 4
36 0 11 43 160 4
36 0 12 43 160 4
36 0 13 43 160 4
36 0 14 43 160 4
36 0 15 43 160 4
36 0 16 43 160 4
36 0 17 43 160 4
36 0 18 43 160 4
36 0 19 255 186 119
36 0 20 255 186 119
36 0 21 255 186 119
36 0 22 255 186 119
36 0 23 255 186 119
36 0 24 255 186 119
36 0 25 158 216 229
36 1 18 196 175 214
36 1 19 255 186 119
36 1 20 255 186 119
36 1 21 255 186 119
36 1 22 255 186 119
36 1 23 255 186 119
36 1 24 255 186 119
36 1 25 158 216 229
36 2 18 196 175 214
36 2 19 255 186 119
36 2 20 255 186 119
36 2 21 255 186 119
36 2 22 255 186 119
36 2 23 255 186 119
36 2 24 255 186 119
36 2 25 158 216 229
36 3 18 196 175 214
36 3 19 255 186 119
36 3 20 255 186 119
36 3 21 255 186 119
36 3 22 255 186 119
36 3 23 255 186 119
36 3 24 255 186 119
36 3 25 158 216 229
36 3 26 158 216 229
36 4 18 196 175 214
36 4 19 255 186 119
36 4 20 255 186 119
36 4 21 255 186 119
36 4 22 255 186 119
36 4 23 255 186 119
36 4 24 255 186 119
36 4 25 158 216 229
36 4 26 158 216 229
36 5 18 255 186 119
36 5 19 255 186 119
36 5 20 255 186 119
36 5 21 255 186 119
36 5 22 255 186 119
36 5 23 255 186 119
36 5 24 255 186 119
36 5 25 158 216 229
36 5 26 158 216 229
36 6 18 255 186 119
36 6 19 255 186 119
36 6 20 255 186 119
36 6 21 255 186 119
36 6 22 255 186 119
36 6 23 255 186 119
36 6 24 255 186 119
36 6 25 158 216 229
36 6 26 158 216 229
36 7 19 255 186 119
36 7 20 255 186 119
36 7 21 255 186 119
36 7 22 255 186 119
36 7 23 255 186 119
36 7 25 158 216 229
36 7 26 158 216 229
36 8 25 158 216 229
36 8 26 158 216 229
36 9 25 158 216 229
36 9 26 158 216 229
36 10 25 158 216 229
36 10 26 158 216 229
36 11 25 158 216 229
36 11 26 158 216 229
36 12 25 158 216 229
36 12 26 158 216 229
37 0 11 43 160 4
37 0 12 43 160 4
37 0 13 43 160 4
37 0 14 43 160 4
37 0 15 43 160 4
37 0 16 43 160 4
37 0 17 43 160 4
37 0 18 196 175 214
37 0 19 196 175 214
37 0 20 196 175 214
37 0 21 255 186 119
37 0 22 255 186 119
37 0 23 255 186 119
37 0 24 255 186 119
37 0 25 158 216 229
37 1 18 196 175 214
37 1 19 196 175 214
37 1 20 196 175 214
37 1 21 196 175 214
37 1 22 255 186 119
37 1 23 255 186 119
37 1 24 255 186 119
37 1 25 158 216 229
37 2 18 196 175 214
37 2 19 196 175 214
37 2 20 196 175 214
37 2 21 196 175 214
37 2 22 255 186 119
37 2 23 255 186 119
37 2 24 255 186 119
37 2 25 158 216 229
37 3 18 196 175 214
37 3 19 196 175 214
37 3 20 196 175 214
37 3 21 196 175 214
37 3 22 255 186 119
37 3 23 255 186 119
37 3 24 255 186 119
37 3 25 158 216 229
37 4 18 196 175 214
37 4 19 196 175 214
37 4 20 196 175 214
37 4 21 196 175 214
37 4 22 255 186 119
37 4 23 255 186 119
37 4 24 255 186 119
37 4 25 158 216 229
37 5 18 196 175 214
37 5 19 196 175 214
37 5 20 196 175 214
37 5 21 255 186 119
37 5 22 255 186 119
37 5 23 255 186 119
37 5 24 255 186 119
37 5 25 158 216 229
37 6 21 255 186 119
37 6 22 255 186 119
37 6 23 255 186 119
37 6 24 255 186 119
37 6 25 158 216 229
37 7 21 255 186 119
37 7 22 255 186 119
37 7 23 255 186 119
37 7 24 255 186 119
37 7 25 158 216 229
37 8 25 158 216 229
37 9 25 158 216 229
37 10 25 158 216 229
37 11 25 158 216 229
37 12 25 158 216 229
38 0 13 43 160 4
38 0 14 43 160 4
38 0 15 43 160 4
38 0 16 43 160 4
38 0 17 43 160 4
38 0 18 196 175 214
38 0 19 196 175 214
38 0 20 196 175 214
38 0 21 196 175 214
38 0 22 196 175 214
38 0 23 196 175 214
38 0 24 43 160 4
38 0 25 158 216 229
38 1 17 196 175 214
38 1 18 196 175 214
38 1 19 196 175 214
38 1 20 196 175 214
38 1 21 196 175 214
38 1 22 196 175 214
38 1 23 196 175 214
38 1 24 158 216 229
38 1 25 158 216 229
38 2 17 196 175 214
38 2 18 196 175 214
38 2 19 196 175 214
38 2 20 196 175 214
38 2 21 196 175 214
38 2 22 196 175 214
38 2 23 196 175 214
38 2 24 158 216 229
38 2 25 158 216 229
38 3 17 196 175 214
38 3 18 196 175 214
38 3 19 196 175 214
38 3 20 196 175 214
38 3 21 196 175 214
38 3 22 196 175 214
38 3 23 196 175 214
38 3 24 158 216 229
38 3 25 158 216 229
38 4 17 196 175 214
38 4 18 196 175 214
38 4 19 196 175 214
38 4 20 196 175 214
38 4 21 196 175 214
38 4 22 196 175 214
38 4 23 196 175 214
38 4 24 158 216 229
38 4 25 158 216 229
38 5 17 196 175 214
38 5 18 196 175 214
38 5 19 196 175 214
38 5 20 196 175 214
38 5 21 196 175 214
38 5 22 196 175 214
38 5 23 196 175 214
38 5 24 158 216 229
38 5 25 158 216 229
38 6 23 255 186 119
38 6 24 158 216 229
38 6 25 158 216 229
38 7 24 158 216 229
38 7 25 158 216 229
38 8 24 158 216 229
38 8 25 158 216 229
38 9 24 158 216 229
38 9 25 158 216 229
38 10 24 158 216 229
38 10 25 158 216 229
38 11 24 158 216 229
38 11 25 158 216 229
38 12 24 158 216 229
38 12 25 158 216 229
39 0 14 43 160 4
39 0 15 43 160 4
39 0 16 43 160 4
39 0 17 43 160 4
39 0 18 196 175 214
39 0 19 196 175 214
39 0 20 196 175 214
39 0 21 196 175 214
39 0 22 196 175 214
39 0 23 196 175 214
39 0 24 158 216 229
39 1 17 196 175 214
39 1 18 196 175 214
39 1 19 196 175 214
39 1 20 196 175 214
39 1 21 196 175 214
39 1 22 196 175 214
39 1 23 196 175 214
39 1 24 158 216 229
39 2 17 196 175 214
39 2 18 196 175 214
39 2 19 196 175 214
39 2 20 196 175 214
39 2 21 196 175 214
39 2 22 196 175 214
39 2 23 196 175 214
39 2 24 158 216 229
39 3 17 196 175 214
39 3 18 196 175 214
39 3 19 196 175 214
39 3 20 196 175 214
39 3 21 196 175 214
39 3 22 196 175 214
39 3 23 196 175 214
39 3 24 158 216 229
39 4 17 196 175 214
39 4 18 196 175 214
39 4 19 196 175 214
39 4 20 196 175 214
39 4 21 196 175 214
39 4 22 196 175 214
39 4 23 196 175 214
39 4 24 158 216 229
39 5 17 196 175 214
39 5 18 196 175 214
39 5 19 196 175 214
39 5 20 196 175 214
39 5 21 196 175 214
39 5 22 196 175 214
39 5 23 196 175 214
39 5 24 158 216 229
39 6 24 158 216 229
39 7 24 158 216 229
39 8 24 158 216 229
39 9 24 158 216 229
39 10 24 158 216 229
39 11 24 158 216 229
39 12 24 158 216 229
39 12 25 158 216 229
40 0 16 43 160 4
40 0 17 196 175 214
40 0 18 196 175 214
40 0 19 196 175 214
40 0 20 196 175 214
40 0 21 196 175 214
40 0 22 196 175 214
40 0 23 196 175 214
40 0 24 158 216 229
40 1 17 196 175 214
40 1 18 196 175 214
40 1 19 196 175 214
40 1 20 196 175 214
40 1 21 196 175 214
40 1 22 196 175 214
40 1 23 196 175 214
40 1 24 158 216 229
40 2 17 196 175 214
40 2 18 196 175 214
40 2 19 196 175 214
40 2 20 196 175 214
40 2 21 196 175 214
40 2 22 196 175 214
40 2 23 196 175 214
40 2 24 158 216 229
40 3 17 196 175 214
40 3 18 196 175 214
40 3 19 196 175 214
40 3 20 196 175 214
40 3 21 196 175 214
40 3 22 196 175 214
40 3 23 196 175 214
40 3 24 158 216 229
40 4 18 196 175 214
40 4 19 196 175 214
40 4 20 196 175 214
40 4 21 196 175 214
40 4 22 196 175 214
40 4 23 196 175 214
40 4 24 158 216 229
40 5 18 196 175 214
40 5 19 196 175 214
40 5 20 196 175 214
40 5 21 196 175 214
40 5 22 196 175 214
40 5 23 196 175 214
40 5 24 158 216 229
40 6 23 158 216 229
40 6 24 158 216 229
40 7 23 158 216 229
40 7 24 158 216 229
40 8 23 158 216 229
40 8 24 158 216 229
40 9 23 158 216 229
40 9 24 158 216 229
40 10 24 158 216 229
40 11 24 158 216 229
40 12 24 158 216 229
41 0 18 196 175 214
41 0 19 196 175 214
41 0 20 196 175 214
41 0 21 196 175 214
41 0 22 196 175 214
41 0 23 158 216 229
41 1 18 196 175 214
41 1 19 196 175 214
41 1 20 196 175 214
41 1 21 196 175 214
41 1 22 196 175 214
41 1 23 158 216 229
41 2 19 196 175 214
41 2 20 196 175 214
41 2 21 196 175 214
41 2 22 196 175 214
41 2 23 158 216 229
41 3 19 196 175 214
41 3 20 196 175 214
41 3 21 196 175 214
41 3 22 196 175 214
41 3 23 158 216 229
41 3 24 158 216 229
41 4 19 196 175 214
41 4 20 196 175 214
41 4 21 196 175 214
41 4 22 196 175 214
41 4 23 158 216 229
41 4 24 158 216 229
41 5 20 196 175 214
41 5 21 196 175 214
41 5 22 196 175 214
41 5 23 158 216 229
41 5 24 158 216 229
41 6 23 158 216 229
41 6 24 158 216 229
41 7 23 158 216 229
41 7 24 158 216 229
41 8 23 158 216 229
41 8 24 158 216 229
41 9 23 158 216 229
41 9 24 158 216 229
41 10 23 158 216 229
41 10 24 158 216 229
41 11 23 158 216 229
41 11 24 158 216 229
41 12 23 158 216 229
41 12 24 158 216 229
42 0 20 196 175 214
42 0 21 196 175 214
42 0 22 196 175 214
42 0 23 158 216 229
42 1 20 196 175 214
42 1 21 196 175 214
42 1 22 196 175 214
42 1 23 158 216 229
42 2 20 196 175 214
42 2 21 196 175 214
42 2 22 196 175 214
42 2 23 158 216 229
42 3 21 196 175 214
42 3 22 196 175 214
42 3 23 158 216 229
42 4 21 196 175 214
42 4 22 196 175 214
42 4 23 158 216 229
42 5 21 196 175 214
42 5 22 196 175 214
42 5 23 158 216 229
42 6 23 158 216 229
42 7 23 158 216 229
42 8 23 158 216 229
42 9 23 158 216 229
42 10 23 158 216 229
42 11 23 158 216 229
43 0 21 196 175 214
43 0 22 43 160 4
43 0 23 158 216 229
43 1 22 196 175 214
43 1 23 158 216 229
43 2 22 196 175 214
43 2 23 158 216 229
43 3 22 196 175 214
43 3 23 158 216 229
43 4 23 158 216 229
43 5 23 158 216 229
43 6 23 158 216 229
