ply
format ascii 1.0
element vertex 3876
property float x
property float y
property float z
property uchar red
property uchar green
property uchar blue
end_header
0 0 49 43 160 4
0 0 50 43 160 4
0 0 51 43 160 4
0 0 52 43 160 4
0 0 53 43 160 4
0 0 54 43 160 4
0 0 55 43 160 4
0 0 56 43 160 4
0 0 57 43 160 4
0 0 58 43 160 4
0 0 59 43 160 4
1 0 49 43 160 4
1 0 50 43 160 4
1 0 51 43 160 4
1 0 52 43 160 4
1 0 53 43 160 4
1 0 54 43 160 4
1 0 55 43 160 4
1 0 56 43 160 4
1 0 57 43 160 4
1 0 58 43 160 4
1 0 59 43 160 4
2 0 48 43 160 4
2 0 49 43 160 4
2 0 50 43 160 4
2 0 51 43 160 4
2 0 52 43 160 4
2 0 53 43 160 4
2 0 54 43 160 4
2 0 55 43 160 4
2 0 56 43 160 4
2 0 57 43 160 4
2 0 58 43 160 4
2 0 59 43 160 4
2 1 45 255 127 12
3 0 48 43 160 4
3 0 49 43 160 4
3 0 50 43 160 4
3 0 51 43 160 4
3 0 52 43 160 4
3 0 53 43 160 4
3 0 54 43 160 4
3 0 55 43 160 4
3 0 56 43 160 4
3 0 57 43 160 4
3 0 58 43 160 4
3 0 59 43 160 4
4 0 48 43 160 4
4 0 49 43 160 4
4 0 50 43 160 4
4 0 51 43 160 4
4 0 52 43 160 4
4 0 53 43 160 4
4 0 54 43 160 4
4 0 55 43 160 4
4 0 56 43 160 4
4 0 57 43 160 4
4 0 58 43 160 4
4 0 59 43 160 4
5 0 48 43 160 4
5 0 49 43 160 4
5 0 50 43 160 4
5 0 51 43 160 4
5 0 52 43 160 4
5 0 53 43 160 4
5 0 54 43 160 4
5 0 55 43 160 4
5 0 56 43 160 4
5 0 57 43 160 4
5 0 58 43 160 4
5 0 59 43 160 4
6 0 48 43 160 4
6 0 49 43 160 4
6 0 50 43 160 4
6 0 51 43 160 4
6 0 52 43 160 4
6 0 53 43 160 4
6 0 54 43 160 4
6 0 55 43 160 4
6 0 56 43 160 4
6 0 57 43 160 4
6 0 58 43 160 4
6 0 59 43 160 4
7 0 47 43 160 4
7 0 48 43 160 4
7 0 49 43 160 4
7 0 50 43 160 4
7 0 51 43 160 4
7 0 52 43 160 4
7 0 53 43 160 4
7 0 54 43 160 4
7 0 55 43 160 4
7 0 56 43 160 4
7 0 57 43 160 4
7 0 58 43 160 4
7 0 59 43 160 4
8 0 47 43 160 4
8 0 48 43 160 4
8 0 49 43 160 4
8 0 50 43 160 4
8 0 51 43 160 4
8 0 52 43 160 4
8 0 53 43 160 4
8 0 54 43 160 4
8 0 55 43 160 4
8 0 56 43 160 4
8 0 57 43 160 4
8 0 58 43 160 4
8 0 59 43 160 4
9 0 47 43 160 4
9 0 48 43 160 4
9 0 49 43 160 4
9 0 50 43 160 4
9 0 51 43 160 4
9 0 52 43 160 4
9 0 53 43 160 4
9 0 54 43 160 4
9 0 55 43 160 4
9 0 56 43 160 4
9 0 57 43 160 4
9 0 58 43 160 4
9 0 59 43 160 4
10 0 47 43 160 4
10 0 48 43 160 4
10 0 49 43 160 4
10 0 50 43 160 4
10 0 51 43 160 4
10 0 52 43 160 4
10 0 53 43 160 4
10 0 54 43 160 4
10 0 55 43 160 4
10 0 56 43 160 4
10 0 57 43 160 4
10 0 58 43 160 4
10 0 59 43 160 4
10 5 32 158 216 229
10 6 31 158 216 229
10 7 31 158 216 229
10 10 31 158 216 229
10 11 31 158 216 229
10 12 31 158 216 229
10 13 31 158 216 229
10 14 31 158 216 229
10 15 31 158 216 229
10 16 31 158 216 229
10 17 31 158 216 229
10 18 31 158 216 229
10 19 31 158 216 229
10 20 31 158 216 229
10 21 31 158 216 229
10 22 31 158 216 229
10 23 31 158 216 229
10 24 31 158 216 229
10 25 31 158 216 229
10 26 31 158 216 229
10 27 31 158 216 229
11 0 47 43 160 4
11 0 48 43 160 4
11 0 49 43 160 4
11 0 50 43 160 4
11 0 51 43 160 4
11 0 52 43 160 4
11 0 53 43 160 4
11 0 54 43 160 4
11 0 55 43 160 4
11 0 56 43 160 4
11 0 57 43 160 4
11 0 58 43 160 4
11 0 59 43 160 4
11 5 32 158 216 229
11 6 31 158 216 229
11 7 29 255 127 12
11 7 31 158 216 229
11 8 29 255 127 12
11 8 30 255 127 12
11 8 32 158 216 229
11 9 29 255 127 12
11 9 30 255 127 12
11 9 31 158 216 229
11 10 29 255 127 12
11 10 30 158 216 229
11 10 31 158 216 229
11 10 32 158 216 229
11 11 29 255 127 12
11 11 30 158 216 229
11 11 31 158 216 229
11 11 32 158 216 229
11 12 29 158 216 229
11 12 30 158 216 229
11 12 31 158 216 229
11 12 32 158 216 229
11 13 29 158 216 229
11 13 30 158 216 229
11 13 31 158 216 229
11 14 29 158 216 229
11 14 30 158 216 229
11 14 31 158 216 229
11 15 29 158 216 229
11 15 30 158 216 229
11 15 31 158 216 229
11 16 30 158 216 229
11 16 31 158 216 229
11 17 30 158 216 229
11 18 30 158 216 229
11 18 31 158 216 229
11 19 30 158 216 229
11 20 30 158 216 229
11 20 31 158 216 229
11 21 30 158 216 229
11 21 31 158 216 229
11 22 30 158 216 229
11 22 31 158 216 229
11 23 30 158 216 229
11 24 30 158 216 229
11 24 31 158 216 229
11 25 30 158 216 229
11 25 31 158 216 229
11 26 30 158 216 229
11 26 31 158 216 229
11 27 30 158 216 229
11 27 31 158 216 229
11 29 30 158 216 229
12 0 47 43 160 4
12 0 48 43 160 4
12 0 49 43 160 4
12 0 50 43 160 4
12 0 51 43 160 4
12 0 52 43 160 4
12 0 53 43 160 4
12 0 54 43 160 4
12 0 55 43 160 4
12 0 56 43 160 4
12 0 57 43 160 4
12 0 58 43 160 4
12 0 59 43 160 4
12 5 32 158 216 229
12 6 29 255 127 12
12 7 28 255 186 119
12 7 29 255 127 12
12 7 30 255 127 12
12 8 28 196 175 214
12 8 29 255 127 12
12 8 30 255 127 12
12 8 31 158 216 229
12 8 32 158 216 229
12 9 29 255 127 12
12 9 30 255 127 12
12 9 31 158 216 229
12 10 30 158 216 229
12 10 31 158 216 229
12 11 30 158 216 229
12 11 31 158 216 229
12 12 30 158 216 229
12 12 31 158 216 229
12 13 30 158 216 229
12 13 31 158 216 229
12 14 30 158 216 229
12 14 31 158 216 229
12 15 30 158 216 229
12 15 31 158 216 229
12 16 30 158 216 229
12 16 31 158 216 229
12 17 30 158 216 229
12 17 31 158 216 229
12 18 30 158 216 229
12 18 31 158 216 229
12 19 30 158 216 229
12 20 30 158 216 229
12 20 31 158 216 229
12 21 30 158 216 229
12 21 31 158 216 229
12 22 30 158 216 229
12 22 31 158 216 229
12 23 30 158 216 229
12 23 31 158 216 229
12 24 30 158 216 229
12 24 31 158 216 229
12 25 30 158 216 229
12 25 31 158 216 229
12 26 30 158 216 229
12 27 28 114 158 206
12 27 29 158 216 229
12 27 30 158 216 229
12 28 28 114 158 206
12 28 29 114 158 206
12 29 28 214 38 40
12 29 30 158 216 229
12 30 28 214 38 40
12 31 28 214 38 40
12 32 28 158 216 229
13 0 46 43 160 4
13 0 47 43 160 4
13 0 48 43 160 4
13 0 49 43 160 4
13 0 50 43 160 4
13 0 51 43 160 4
13 0 52 43 160 4
13 0 53 43 160 4
13 0 54 43 160 4
13 0 55 43 160 4
13 0 56 43 160 4
13 0 57 43 160 4
13 0 58 43 160 4
13 0 59 43 160 4
13 5 32 158 216 229
13 6 29 255 127 12
13 6 30 255 127 12
13 7 27 255 186 119
13 7 28 255 186 119
13 7 29 255 127 12
13 7 30 255 127 12
13 7 32 158 216 229
13 8 26 196 175 214
13 8 29 255 127 12
13 8 30 255 127 12
13 8 32 158 216 229
13 9 29 255 127 12
13 9 30 255 127 12
13 9 31 158 216 229
13 10 29 255 127 12
13 10 30 255 127 12
13 10 32 158 216 229
13 11 29 255 127 12
13 11 30 158 216 229
13 12 29 158 216 229
13 12 30 158 216 229
13 13 30 158 216 229
13 13 31 158 216 229
13 14 30 158 216 229
13 14 31 158 216 229
13 15 30 158 216 229
13 15 31 158 216 229
13 15 32 158 216 229
13 16 30 158 216 229
13 16 31 158 216 229
13 17 30 158 216 229
13 17 31 158 216 229
13 18 30 158 216 229
13 18 31 158 216 229
13 19 30 158 216 229
13 20 30 158 216 229
13 20 31 158 216 229
13 21 30 158 216 229
13 21 31 158 216 229
13 22 30 158 216 229
13 22 31 158 216 229
13 23 30 158 216 229
13 23 31 158 216 229
13 24 30 158 216 229
13 24 31 158 216 229
13 25 30 158 216 229
13 26 29 158 216 229
13 26 30 158 216 229
13 27 28 114 158 206
13 27 29 114 158 206
13 27 30 158 216 229
13 28 27 114 158 206
13 28 28 114 158 206
13 28 29 114 158 206
13 29 27 196 175 214
13 29 28 196 175 214
13 29 30 158 216 229
13 30 26 214 38 40
13 30 27 214 38 40
13 30 28 196 175 214
13 30 30 158 216 229
13 31 27 214 38 40
13 31 28 214 38 40
13 32 27 214 38 40
13 32 28 214 38 40
14 0 46 43 160 4
14 0 47 43 160 4
14 0 48 43 160 4
14 0 49 43 160 4
14 0 50 43 160 4
14 0 51 43 160 4
14 0 52 43 160 4
14 0 53 43 160 4
14 0 54 43 160 4
14 0 55 43 160 4
14 0 56 43 160 4
14 0 57 43 160 4
14 0 58 43 160 4
14 0 59 43 160 4
14 5 32 158 216 229
14 6 29 255 127 12
14 6 31 158 216 229
14 6 32 158 216 229
14 7 26 255 186 119
14 7 27 255 186 119
14 7 28 255 186 119
14 7 29 255 127 12
14 7 31 158 216 229
14 7 32 158 216 229
14 8 28 255 186 119
14 8 29 255 127 12
14 8 30 255 127 12
14 8 32 158 216 229
14 9 29 255 127 12
14 9 30 255 127 12
14 10 29 255 127 12
14 10 30 255 127 12
14 11 29 196 175 214
14 11 30 158 216 229
14 12 29 196 175 214
14 12 30 158 216 229
14 13 29 196 175 214
14 13 30 158 216 229
14 13 31 158 216 229
14 14 30 158 216 229
14 14 31 158 216 229
14 15 30 158 216 229
14 15 31 158 216 229
14 16 30 158 216 229
14 16 31 158 216 229
14 17 30 158 216 229
14 17 31 158 216 229
14 18 30 158 216 229
14 18 31 158 216 229
14 19 30 158 216 229
14 19 31 158 216 229
14 20 30 158 216 229
14 20 31 158 216 229
14 21 30 158 216 229
14 21 31 158 216 229
14 22 30 158 216 229
14 22 31 158 216 229
14 23 30 158 216 229
14 23 31 158 216 229
14 24 30 158 216 229
14 24 31 158 216 229
14 25 30 158 216 229
14 26 29 158 216 229
14 26 30 158 216 229
14 26 31 158 216 229
14 27 28 114 158 206
14 27 29 114 158 206
14 27 30 158 216 229
14 28 27 114 158 206
14 28 28 114 158 206
14 28 29 114 158 206
14 28 31 158 216 229
14 29 27 196 175 214
14 29 28 196 175 214
14 30 27 214 38 40
14 30 28 196 175 214
14 31 26 214 38 40
14 31 27 214 38 40
14 31 28 214 38 40
14 32 27 214 38 40
14 32 28 214 38 40
14 33 29 158 216 229
15 0 46 43 160 4
15 0 47 43 160 4
15 0 48 43 160 4
15 0 49 43 160 4
15 0 50 43 160 4
15 0 51 43 160 4
15 0 52 43 160 4
15 0 53 43 160 4
15 0 54 43 160 4
15 0 55 43 160 4
15 0 56 43 160 4
15 0 57 43 160 4
15 0 58 43 160 4
15 0 59 43 160 4
15 5 31 255 127 12
15 5 32 158 216 229
15 6 28 255 186 119
15 6 30 255 127 12
15 6 31 158 216 229
15 6 32 158 216 229
15 7 26 255 186 119
15 7 27 255 186 119
15 7 28 255 186 119
15 7 31 158 216 229
15 7 32 158 216 229
15 8 23 255 186 119
15 8 24 255 186 119
15 8 25 255 186 119
15 8 26 255 186 119
15 8 27 255 186 119
15 8 28 255 186 119
15 8 29 255 186 119
15 8 31 255 127 12
15 8 32 158 216 229
15 9 28 255 186 119
15 9 29 255 186 119
15 9 31 255 127 12
15 9 32 158 216 229
15 10 28 255 127 12
15 10 29 255 186 119
15 10 31 158 216 229
15 11 29 255 127 12
15 11 31 158 216 229
15 12 29 196 175 214
15 12 30 158 216 229
15 13 29 255 127 12
15 13 30 158 216 229
15 13 31 158 216 229
15 14 30 158 216 229
15 14 31 158 216 229
15 15 30 158 216 229
15 15 31 158 216 229
15 16 30 158 216 229
15 16 31 158 216 229
15 17 30 158 216 229
15 17 31 158 216 229
15 18 30 158 216 229
15 18 31 158 216 229
15 19 30 158 216 229
15 19 31 158 216 229
15 20 30 158 216 229
15 20 31 158 216 229
15 21 30 158 216 229
15 21 31 158 216 229
15 22 30 158 216 229
15 22 31 158 216 229
15 23 30 158 216 229
15 23 31 158 216 229
15 24 30 158 216 229
15 24 31 158 216 229
15 25 30 158 216 229
15 25 31 158 216 229
15 26 30 158 216 229
15 26 31 158 216 229
15 27 29 196 175 214
15 27 30 158 216 229
15 27 31 158 216 229
15 28 27 196 175 214
15 28 28 114 158 206
15 28 29 196 175 214
15 29 27 196 175 214
15 29 28 196 175 214
15 30 27 196 175 214
15 30 28 196 175 214
15 31 26 214 38 40
15 31 27 214 38 40
15 31 28 196 175 214
15 31 29 214 38 40
15 32 27 214 38 40
15 32 28 214 38 40
16 0 46 43 160 4
16 0 47 43 160 4
16 0 48 43 160 4
16 0 49 43 160 4
16 0 50 43 160 4
16 0 51 43 160 4
16 0 52 43 160 4
16 0 53 43 160 4
16 0 54 43 160 4
16 0 55 43 160 4
16 0 56 43 160 4
16 0 57 43 160 4
16 0 58 43 160 4
16 0 59 43 160 4
16 5 31 255 127 12
16 5 32 158 216 229
16 6 29 255 186 119
16 6 30 255 127 12
16 6 31 158 216 229
16 6 32 158 216 229
16 7 25 255 186 119
16 7 26 255 186 119
16 7 29 255 186 119
16 7 30 255 127 12
16 7 31 255 127 12
16 7 32 158 216 229
16 8 23 255 186 119
16 8 24 255 186 119
16 8 25 255 186 119
16 8 26 255 186 119
16 8 27 255 186 119
16 8 28 255 186 119
16 8 31 255 127 12
16 8 32 158 216 229
16 9 26 255 186 119
16 9 27 255 186 119
16 9 28 255 186 119
16 9 29 255 186 119
16 9 31 255 127 12
16 10 28 255 186 119
16 10 29 255 186 119
16 10 31 255 127 12
16 11 28 255 127 12
16 11 29 255 127 12
16 11 31 158 216 229
16 12 29 255 127 12
16 12 30 255 186 119
16 12 32 158 216 229
16 13 29 196 175 214
16 13 30 158 216 229
16 13 31 158 216 229
16 14 30 158 216 229
16 14 31 158 216 229
16 15 30 158 216 229
16 15 31 158 216 229
16 16 30 158 216 229
16 16 31 158 216 229
16 17 30 158 216 229
16 17 31 158 216 229
16 18 30 158 216 229
16 18 31 158 216 229
16 19 30 158 216 229
16 19 31 158 216 229
16 20 30 158 216 229
16 20 31 158 216 229
16 21 30 158 216 229
16 21 31 158 216 229
16 22 30 158 216 229
16 22 31 158 216 229
16 23 30 158 216 229
16 23 31 158 216 229
16 24 30 158 216 229
16 24 31 158 216 229
16 25 30 158 216 229
16 25 31 158 216 229
16 26 30 158 216 229
16 26 31 158 216 229
16 27 29 196 175 214
16 27 30 158 216 229
16 27 31 158 216 229
16 28 28 196 175 214
16 28 29 196 175 214
16 29 27 196 175 214
16 29 28 196 175 214
16 29 29 196 175 214
16 30 27 196 175 214
16 30 28 196 175 214
16 30 30 158 216 229
16 31 26 214 38 40
16 31 27 214 38 40
16 31 28 196 175 214
16 31 29 196 175 214
16 32 27 214 38 40
16 32 28 214 38 40
17 0 46 43 160 4
17 0 47 43 160 4
17 0 48 43 160 4
17 0 49 43 160 4
17 0 50 43 160 4
17 0 51 43 160 4
17 0 52 43 160 4
17 0 53 43 160 4
17 0 54 43 160 4
17 0 55 43 160 4
17 0 56 43 160 4
17 0 57 43 160 4
17 0 58 43 160 4
17 0 59 43 160 4
17 5 31 255 127 12
17 5 32 158 216 229
17 6 28 255 186 119
17 6 29 255 186 119
17 6 30 255 186 119
17 6 31 158 216 229
17 6 32 158 216 229
17 7 25 255 186 119
17 7 27 255 186 119
17 7 28 255 186 119
17 7 29 255 186 119
17 7 30 255 127 12
17 7 31 255 186 119
17 7 32 158 216 229
17 8 22 255 186 119
17 8 23 255 186 119
17 8 24 255 186 119
17 8 25 255 186 119
17 8 26 255 186 119
17 8 31 255 127 12
17 8 32 158 216 229
17 9 25 255 186 119
17 9 26 255 186 119
17 9 27 255 186 119
17 9 28 255 186 119
17 9 29 255 186 119
17 9 31 255 186 119
17 9 32 158 216 229
17 10 28 255 186 119
17 10 29 255 186 119
17 10 31 255 186 119
17 11 29 255 186 119
17 11 31 158 216 229
17 12 29 255 186 119
17 12 30 255 186 119
17 13 29 255 127 12
17 13 30 158 216 229
17 13 31 158 216 229
17 14 30 158 216 229
17 14 31 158 216 229
17 15 30 158 216 229
17 15 31 158 216 229
17 15 32 158 216 229
17 16 30 158 216 229
17 16 31 158 216 229
17 16 32 158 216 229
17 17 30 158 216 229
17 17 31 158 216 229
17 18 30 158 216 229
17 18 31 158 216 229
17 19 30 158 216 229
17 19 31 158 216 229
17 20 30 158 216 229
17 20 31 158 216 229
17 21 30 158 216 229
17 21 31 158 216 229
17 22 30 158 216 229
17 22 31 158 216 229
17 23 30 158 216 229
17 23 31 158 216 229
17 24 30 158 216 229
17 24 31 158 216 229
17 25 30 158 216 229
17 25 31 158 216 229
17 26 30 158 216 229
17 26 31 158 216 229
17 27 29 196 175 214
17 27 30 158 216 229
17 27 31 158 216 229
17 28 28 196 175 214
17 28 29 196 175 214
17 29 28 196 175 214
17 29 29 196 175 214
17 29 31 158 216 229
17 30 27 196 175 214
17 30 28 196 175 214
17 30 29 196 175 214
17 31 26 214 38 40
17 31 27 214 38 40
17 31 28 196 175 214
17 31 30 158 216 229
17 32 27 214 38 40
17 32 28 214 38 40
18 0 46 43 160 4
18 0 47 43 160 4
18 0 48 43 160 4
18 0 49 43 160 4
18 0 50 43 160 4
18 0 51 43 160 4
18 0 52 43 160 4
18 0 53 43 160 4
18 0 54 43 160 4
18 0 55 43 160 4
18 0 56 43 160 4
18 0 57 43 160 4
18 0 58 43 160 4
18 0 59 43 160 4
18 5 31 255 186 119
18 5 32 158 216 229
18 6 28 255 186 119
18 6 29 255 186 119
18 6 30 255 186 119
18 6 31 158 216 229
18 6 32 158 216 229
18 7 25 255 186 119
18 7 26 255 186 119
18 7 27 255 186 119
18 7 28 255 186 119
18 7 29 255 186 119
18 7 30 255 186 119
18 7 31 255 186 119
18 7 32 158 216 229
18 8 22 255 186 119
18 8 23 255 186 119
18 8 24 255 186 119
18 8 25 255 186 119
18 8 31 158 216 229
18 8 32 158 216 229
18 9 25 255 186 119
18 9 26 255 186 119
18 9 27 255 186 119
18 9 28 255 186 119
18 9 29 255 186 119
18 9 31 255 186 119
18 9 32 158 216 229
18 10 28 255 186 119
18 10 29 255 186 119
18 10 31 255 186 119
18 11 29 255 186 119
18 11 31 158 216 229
18 12 29 255 186 119
18 12 30 255 186 119
18 12 32 158 216 229
18 13 29 196 175 214
18 13 30 158 216 229
18 13 31 158 216 229
18 14 30 158 216 229
18 14 31 158 216 229
18 15 30 158 216 229
18 15 31 158 216 229
18 16 30 158 216 229
18 16 31 158 216 229
18 17 30 158 216 229
18 17 31 158 216 229
18 18 30 158 216 229
18 18 31 158 216 229
18 19 30 158 216 229
18 19 31 158 216 229
18 20 30 158 216 229
18 20 31 158 216 229
18 21 30 158 216 229
18 21 31 158 216 229
18 22 30 158 216 229
18 22 31 158 216 229
18 23 30 158 216 229
18 23 31 158 216 229
18 24 30 158 216 229
18 24 31 158 216 229
18 25 30 158 216 229
18 25 31 158 216 229
18 26 30 158 216 229
18 26 31 158 216 229
18 27 29 196 175 214
18 27 30 158 216 229
18 27 31 158 216 229
18 28 28 196 175 214
18 28 29 196 175 214
18 28 30 196 175 214
18 28 32 158 216 229
18 29 28 196 175 214
18 29 29 196 175 214
18 30 27 196 175 214
18 30 28 196 175 214
18 30 29 196 175 214
18 31 26 214 38 40
18 31 27 214 38 40
18 31 28 214 38 40
18 31 29 214 38 40
18 32 28 214 38 40
19 0 45 43 160 4
19 0 46 43 160 4
19 0 47 43 160 4
19 0 48 43 160 4
19 0 49 43 160 4
19 0 50 43 160 4
19 0 51 43 160 4
19 0 52 43 160 4
19 0 53 43 160 4
19 0 54 43 160 4
19 0 55 43 160 4
19 0 56 43 160 4
19 0 57 43 160 4
19 0 58 43 160 4
19 0 59 43 160 4
19 5 31 255 186 119
19 5 32 158 216 229
19 6 28 255 186 119
19 6 29 255 186 119
19 6 30 255 186 119
19 6 31 255 186 119
19 6 32 158 216 229
19 7 26 255 186 119
19 7 27 255 186 119
19 7 28 255 186 119
19 7 29 255 186 119
19 7 30 255 186 119
19 7 31 158 216 229
19 7 32 158 216 229
19 8 22 255 186 119
19 8 23 255 186 119
19 8 24 255 186 119
19 8 25 255 186 119
19 8 31 158 216 229
19 8 32 158 216 229
19 9 24 255 186 119
19 9 25 255 186 119
19 9 26 255 186 119
19 9 27 255 186 119
19 9 28 255 186 119
19 9 29 255 186 119
19 9 31 255 186 119
19 9 32 158 216 229
19 10 29 255 186 119
19 10 31 255 186 119
19 10 32 158 216 229
19 11 29 255 186 119
19 11 31 158 216 229
19 11 32 158 216 229
19 12 29 255 186 119
19 12 30 158 216 229
19 12 32 158 216 229
19 13 29 255 186 119
19 13 30 158 216 229
19 13 31 158 216 229
19 14 30 158 216 229
19 14 31 158 216 229
19 15 30 158 216 229
19 15 31 158 216 229
19 16 30 158 216 229
19 16 31 158 216 229
19 17 30 158 216 229
19 17 31 158 216 229
19 18 30 158 216 229
19 18 31 158 216 229
19 19 30 158 216 229
19 19 31 158 216 229
19 20 30 158 216 229
19 20 31 158 216 229
19 21 30 158 216 229
19 21 31 158 216 229
19 22 30 158 216 229
19 22 31 158 216 229
19 23 30 158 216 229
19 23 31 158 216 229
19 24 30 158 216 229
19 24 31 158 216 229
19 25 30 158 216 229
19 25 31 158 216 229
19 26 30 158 216 229
19 26 31 158 216 229
19 27 30 158 216 229
19 27 31 158 216 229
19 28 29 196 175 214
19 28 30 158 216 229
19 28 31 158 216 229
19 29 28 196 175 214
19 29 29 196 175 214
19 29 30 158 216 229
19 29 31 158 216 229
19 30 28 196 175 214
19 30 29 196 175 214
19 30 30 158 216 229
19 30 31 158 216 229
19 31 26 214 38 40
19 31 27 214 38 40
19 31 28 214 38 40
19 31 29 214 38 40
19 31 30 158 216 229
19 31 31 158 216 229
19 32 28 214 38 40
19 32 29 214 38 40
19 33 29 214 38 40
20 0 45 43 160 4
20 0 46 43 160 4
20 0 47 43 160 4
20 0 48 43 160 4
20 0 49 43 160 4
20 0 50 43 160 4
20 0 51 43 160 4
20 0 52 43 160 4
20 0 53 43 160 4
20 0 54 43 160 4
20 0 55 43 160 4
20 0 56 43 160 4
20 0 57 43 160 4
20 0 58 43 160 4
20 0 59 43 160 4
20 5 31 255 186 119
20 5 32 158 216 229
20 6 28 255 186 119
20 6 29 255 186 119
20 6 30 255 186 119
20 6 31 255 186 119
20 6 32 158 216 229
20 7 26 255 186 119
20 7 27 255 186 119
20 7 28 255 186 119
20 7 29 255 186 119
20 7 30 255 186 119
20 7 31 255 186 119
20 7 32 158 216 229
20 8 22 255 186 119
20 8 23 255 186 119
20 8 24 255 186 119
20 8 25 255 186 119
20 8 26 255 186 119
20 8 27 255 186 119
20 8 31 255 186 119
20 8 32 158 216 229
20 9 25 255 186 119
20 9 26 255 186 119
20 9 27 255 186 119
20 9 28 255 186 119
20 9 29 255 186 119
20 9 31 255 186 119
20 9 32 158 216 229
20 10 28 255 186 119
20 10 29 255 186 119
20 10 31 255 186 119
20 11 29 196 175 214
20 11 31 158 216 229
20 12 29 255 186 119
20 12 30 158 216 229
20 12 32 158 216 229
20 13 29 196 175 214
20 13 30 158 216 229
20 13 31 158 216 229
20 14 30 158 216 229
20 14 31 158 216 229
20 15 30 158 216 229
20 15 31 158 216 229
20 16 30 158 216 229
20 16 31 158 216 229
20 17 30 158 216 229
20 17 31 158 216 229
20 18 30 158 216 229
20 18 31 158 216 229
20 19 30 158 216 229
20 19 31 158 216 229
20 19 32 158 216 229
20 20 30 158 216 229
20 20 31 158 216 229
20 21 30 158 216 229
20 21 31 158 216 229
20 22 30 158 216 229
20 22 31 158 216 229
20 23 30 158 216 229
20 23 31 158 216 229
20 23 32 158 216 229
20 24 30 158 216 229
20 24 31 158 216 229
20 25 30 158 216 229
20 25 31 158 216 229
20 26 30 158 216 229
20 26 31 158 216 229
20 26 32 158 216 229
20 27 30 158 216 229
20 27 31 158 216 229
20 28 30 158 216 229
20 28 31 158 216 229
20 29 30 158 216 229
20 29 31 158 216 229
20 30 30 158 216 229
20 30 31 158 216 229
20 31 26 214 38 40
20 31 27 214 38 40
20 31 28 214 38 40
20 31 29 214 38 40
20 31 30 158 216 229
20 31 31 158 216 229
20 32 28 214 38 40
20 32 29 214 38 40
20 32 30 158 216 229
20 33 29 214 38 40
21 0 45 43 160 4
21 0 46 43 160 4
21 0 47 43 160 4
21 0 48 43 160 4
21 0 49 43 160 4
21 0 50 43 160 4
21 0 51 43 160 4
21 0 52 43 160 4
21 0 53 43 160 4
21 0 54 43 160 4
21 0 55 43 160 4
21 0 56 43 160 4
21 0 57 43 160 4
21 0 58 43 160 4
21 0 59 43 160 4
21 5 30 255 186 119
21 5 31 255 186 119
21 5 32 158 216 229
21 6 28 255 186 119
21 6 29 255 186 119
21 6 30 255 186 119
21 6 31 255 186 119
21 6 32 158 216 229
21 7 24 255 186 119
21 7 26 255 186 119
21 7 27 255 186 119
21 7 28 255 186 119
21 7 29 255 186 119
21 7 30 255 186 119
21 7 31 255 186 119
21 7 32 158 216 229
21 8 22 255 186 119
21 8 23 255 186 119
21 8 24 255 186 119
21 8 25 255 186 119
21 8 29 255 186 119
21 8 31 255 186 119
21 8 32 158 216 229
21 9 25 255 186 119
21 9 26 255 186 119
21 9 27 255 186 119
21 9 28 255 186 119
21 9 29 255 186 119
21 9 30 255 186 119
21 9 31 255 186 119
21 9 32 158 216 229
21 10 29 255 186 119
21 10 30 255 186 119
21 10 31 255 186 119
21 10 32 158 216 229
21 11 29 255 186 119
21 11 31 158 216 229
21 12 29 255 186 119
21 12 30 158 216 229
21 12 32 158 216 229
21 13 29 196 175 214
21 13 30 158 216 229
21 13 31 158 216 229
21 14 30 158 216 229
21 14 31 158 216 229
21 15 30 158 216 229
21 15 31 158 216 229
21 16 30 158 216 229
21 16 31 158 216 229
21 16 32 158 216 229
21 17 30 158 216 229
21 17 31 158 216 229
21 18 30 158 216 229
21 18 31 158 216 229
21 19 30 158 216 229
21 19 31 158 216 229
21 19 32 158 216 229
21 20 30 158 216 229
21 20 31 158 216 229
21 21 30 158 216 229
21 21 31 158 216 229
21 22 30 158 216 229
21 22 31 158 216 229
21 23 30 158 216 229
21 23 31 158 216 229
21 24 30 158 216 229
21 24 31 158 216 229
21 25 30 158 216 229
21 25 31 158 216 229
21 25 32 158 216 229
21 26 30 158 216 229
21 26 31 158 216 229
21 26 32 158 216 229
21 27 30 158 216 229
21 27 31 158 216 229
21 28 30 158 216 229
21 28 31 158 216 229
21 29 30 158 216 229
21 29 31 158 216 229
21 30 30 158 216 229
21 31 26 214 38 40
21 31 27 214 38 40
21 31 28 214 38 40
21 31 29 214 38 40
21 31 30 158 216 229
21 32 28 214 38 40
21 32 29 214 38 40
22 0 45 43 160 4
22 0 46 43 160 4
22 0 47 43 160 4
22 0 48 43 160 4
22 0 49 43 160 4
22 0 50 43 160 4
22 0 51 43 160 4
22 0 52 43 160 4
22 0 53 43 160 4
22 0 54 43 160 4
22 0 55 43 160 4
22 0 56 43 160 4
22 0 57 43 160 4
22 0 58 43 160 4
22 0 59 43 160 4
22 5 30 255 186 119
22 5 31 255 186 119
22 5 32 158 216 229
22 6 27 255 186 119
22 6 28 255 186 119
22 6 29 255 186 119
22 6 30 255 186 119
22 6 31 255 186 119
22 6 32 158 216 229
22 7 24 255 186 119
22 7 26 255 186 119
22 7 27 255 186 119
22 7 28 255 186 119
22 7 29 255 186 119
22 7 30 255 186 119
22 7 31 255 186 119
22 7 32 158 216 229
22 8 21 255 186 119
22 8 22 255 186 119
22 8 23 255 186 119
22 8 24 255 186 119
22 8 25 255 186 119
22 8 31 255 186 119
22 8 32 158 216 229
22 9 25 255 186 119
22 9 26 255 186 119
22 9 27 255 186 119
22 9 28 255 186 119
22 9 29 255 186 119
22 9 30 255 186 119
22 9 31 255 186 119
22 9 32 158 216 229
22 10 29 255 186 119
22 10 30 255 186 119
22 10 31 255 186 119
22 10 32 158 216 229
22 11 29 255 186 119
22 11 30 255 186 119
22 11 31 255 186 119
22 11 32 158 216 229
22 12 29 255 186 119
22 12 30 158 216 229
22 12 32 158 216 229
22 13 29 255 186 119
22 13 30 158 216 229
22 13 31 158 216 229
22 14 30 158 216 229
22 14 31 158 216 229
22 15 31 158 216 229
22 15 32 158 216 229
22 16 31 158 216 229
22 16 32 158 216 229
22 17 30 158 216 229
22 17 31 158 216 229
22 18 30 158 216 229
22 18 31 158 216 229
22 18 32 158 216 229
22 19 30 158 216 229
22 19 31 158 216 229
22 19 32 158 216 229
22 20 30 158 216 229
22 20 31 158 216 229
22 21 30 158 216 229
22 21 31 158 216 229
22 22 29 158 216 229
22 22 30 158 216 229
22 22 31 158 216 229
22 23 30 158 216 229
22 23 31 158 216 229
22 24 30 158 216 229
22 24 31 158 216 229
22 25 30 158 216 229
22 25 31 158 216 229
22 26 30 158 216 229
22 26 31 158 216 229
22 27 30 158 216 229
22 27 31 158 216 229
22 28 30 158 216 229
22 28 31 158 216 229
22 29 30 158 216 229
22 29 31 158 216 229
22 30 29 158 216 229
22 30 30 158 216 229
22 30 31 158 216 229
22 31 26 214 38 40
22 31 27 214 38 40
22 31 28 214 38 40
22 31 29 214 38 40
22 31 30 158 216 229
22 32 28 214 38 40
22 32 29 214 38 40
22 32 30 158 216 229
23 0 45 43 160 4
23 0 46 43 160 4
23 0 47 43 160 4
23 0 48 43 160 4
23 0 49 43 160 4
23 0 50 43 160 4
23 0 51 43 160 4
23 0 52 43 160 4
23 0 53 43 160 4
23 0 54 43 160 4
23 0 55 43 160 4
23 0 56 43 160 4
23 0 57 43 160 4
23 0 58 43 160 4
23 0 59 43 160 4
23 5 30 255 186 119
23 5 31 255 186 119
23 5 32 158 216 229
23 6 27 255 186 119
23 6 28 255 186 119
23 6 29 255 186 119
23 6 30 255 186 119
23 6 31 255 186 119
23 6 32 158 216 229
23 7 24 255 186 119
23 7 26 255 186 119
23 7 27 255 186 119
23 7 28 255 186 119
23 7 29 255 186 119
23 7 30 255 186 119
23 7 31 255 186 119
23 7 32 158 216 229
23 8 21 255 186 119
23 8 22 255 186 119
23 8 23 255 186 119
23 8 24 255 186 119
23 8 25 255 186 119
23 8 26 255 186 119
23 8 31 255 186 119
23 8 32 158 216 229
23 9 25 255 186 119
23 9 26 255 186 119
23 9 27 255 186 119
23 9 28 255 186 119
23 9 29 255 186 119
23 9 30 255 186 119
23 9 31 255 186 119
23 9 32 158 216 229
23 10 29 255 186 119
23 10 30 255 186 119
23 10 31 255 186 119
23 10 32 158 216 229
23 11 29 255 186 119
23 11 31 158 216 229
23 11 32 158 216 229
23 12 29 255 186 119
23 12 30 158 216 229
23 12 32 158 216 229
23 13 29 196 175 214
23 13 30 158 216 229
23 13 31 158 216 229
23 14 30 158 216 229
23 14 31 158 216 229
23 15 30 158 216 229
23 15 31 158 216 229
23 16 30 158 216 229
23 16 31 158 216 229
23 16 32 158 216 229
23 17 30 158 216 229
23 17 31 158 216 229
23 18 30 158 216 229
23 18 31 158 216 229
23 18 32 158 216 229
23 19 30 158 216 229
23 19 31 158 216 229
23 19 32 158 216 229
23 20 30 158 216 229
23 20 31 158 216 229
23 21 30 158 216 229
23 21 31 158 216 229
23 22 30 158 216 229
23 22 31 158 216 229
23 22 32 158 216 229
23 23 30 158 216 229
23 23 31 158 216 229
23 24 30 158 216 229
23 24 31 158 216 229
23 25 30 158 216 229
23 25 31 158 216 229
23 26 30 158 216 229
23 26 31 158 216 229
23 27 30 158 216 229
23 27 31 158 216 229
23 28 30 158 216 229
23 28 31 158 216 229
23 29 30 158 216 229
23 29 31 158 216 229
23 30 30 158 216 229
23 30 31 158 216 229
23 31 26 214 38 40
23 31 27 214 38 40
23 31 28 214 38 40
23 31 29 214 38 40
23 31 30 158 216 229
23 31 31 158 216 229
23 32 28 214 38 40
23 32 29 214 38 40
23 32 30 158 216 229
24 0 45 43 160 4
24 0 46 43 160 4
24 0 47 43 160 4
24 0 48 43 160 4
24 0 49 43 160 4
24 0 50 43 160 4
24 0 51 43 160 4
24 0 52 43 160 4
24 0 53 43 160 4
24 0 54 43 160 4
24 0 55 43 160 4
24 0 56 43 160 4
24 0 57 43 160 4
24 0 58 43 160 4
24 0 59 43 160 4
24 5 30 255 186 119
24 5 31 255 186 119
24 5 32 158 216 229
24 6 27 255 186 119
24 6 28 255 186 119
24 6 29 255 186 119
24 6 30 255 186 119
24 6 31 255 186 119
24 6 32 158 216 229
24 7 24 255 186 119
24 7 30 255 186 119
24 7 31 255 186 119
24 7 32 158 216 229
24 8 21 255 186 119
24 8 22 255 186 119
24 8 23 255 186 119
24 8 24 255 186 119
24 8 25 255 186 119
24 8 26 255 186 119
24 8 27 255 186 119
24 8 28 255 186 119
24 8 29 255 186 119
24 8 31 255 186 119
24 8 32 158 216 229
24 9 25 255 186 119
24 9 26 255 186 119
24 9 27 255 186 119
24 9 28 255 186 119
24 9 29 255 186 119
24 9 30 255 186 119
24 9 31 255 186 119
24 9 32 158 216 229
24 10 29 255 186 119
24 10 30 255 186 119
24 10 31 255 186 119
24 10 32 158 216 229
24 11 29 196 175 214
24 11 30 255 186 119
24 11 31 158 216 229
24 11 32 158 216 229
24 12 29 196 175 214
24 12 30 158 216 229
24 13 30 158 216 229
24 13 31 158 216 229
24 14 30 158 216 229
24 14 31 158 216 229
24 15 30 158 216 229
24 15 31 158 216 229
24 16 30 158 216 229
24 16 31 158 216 229
24 16 32 158 216 229
24 17 30 158 216 229
24 17 31 158 216 229
24 17 32 158 216 229
24 18 30 158 216 229
24 18 31 158 216 229
24 18 32 158 216 229
24 19 30 158 216 229
24 19 31 158 216 229
24 19 32 158 216 229
24 20 30 158 216 229
24 20 31 158 216 229
24 21 30 158 216 229
24 21 31 158 216 229
24 22 30 158 216 229
24 22 31 158 216 229
24 22 32 158 216 229
24 23 30 158 216 229
24 23 31 158 216 229
24 23 32 158 216 229
24 24 30 158 216 229
24 24 31 158 216 229
24 25 30 158 216 229
24 25 31 158 216 229
24 26 30 158 216 229
24 26 31 158 216 229
24 27 30 158 216 229
24 27 31 158 216 229
24 28 30 158 216 229
24 28 31 158 216 229
24 29 30 158 216 229
24 29 31 158 216 229
24 30 30 158 216 229
24 30 31 158 216 229
24 31 27 214 38 40
24 31 28 214 38 40
24 31 29 214 38 40
24 31 30 158 216 229
24 31 31 158 216 229
24 32 28 214 38 40
24 32 29 214 38 40
24 32 30 214 38 40
25 0 44 43 160 4
25 0 45 43 160 4
25 0 46 43 160 4
25 0 47 43 160 4
25 0 48 43 160 4
25 0 49 43 160 4
25 0 50 43 160 4
25 0 51 43 160 4
25 0 52 43 160 4
25 0 53 43 160 4
25 0 54 43 160 4
25 0 55 43 160 4
25 0 56 43 160 4
25 0 57 43 160 4
25 0 58 43 160 4
25 0 59 43 160 4
25 5 30 255 186 119
25 5 31 255 186 119
25 5 32 158 216 229
25 6 27 255 186 119
25 6 28 255 186 119
25 6 29 255 186 119
25 6 30 255 186 119
25 6 31 255 186 119
25 6 32 158 216 229
25 7 24 255 186 119
25 7 30 255 186 119
25 7 31 255 186 119
25 7 32 158 216 229
25 8 21 255 186 119
25 8 22 255 186 119
25 8 23 255 186 119
25 8 24 255 186 119
25 8 25 255 186 119
25 8 26 255 186 119
25 8 27 255 186 119
25 8 28 255 186 119
25 8 29 255 186 119
25 8 31 255 186 119
25 8 32 158 216 229
25 9 25 255 186 119
25 9 26 255 186 119
25 9 27 255 186 119
25 9 28 255 186 119
25 9 29 255 186 119
25 9 30 255 186 119
25 9 31 255 186 119
25 9 32 158 216 229
25 10 29 255 186 119
25 10 30 255 186 119
25 10 31 255 186 119
25 10 32 158 216 229
25 11 29 255 186 119
25 11 30 255 186 119
25 11 32 158 216 229
25 12 29 255 186 119
25 12 30 158 216 229
25 12 32 158 216 229
25 13 30 158 216 229
25 13 31 158 216 229
25 14 30 158 216 229
25 14 31 158 216 229
25 15 30 158 216 229
25 15 31 158 216 229
25 16 30 158 216 229
25 16 31 158 216 229
25 16 32 158 216 229
25 17 30 158 216 229
25 17 31 158 216 229
25 17 32 158 216 229
25 18 30 158 216 229
25 18 31 158 216 229
25 18 32 158 216 229
25 19 30 158 216 229
25 19 31 158 216 229
25 19 32 158 216 229
25 20 30 158 216 229
25 20 31 158 216 229
25 21 30 158 216 229
25 21 31 158 216 229
25 22 30 158 216 229
25 22 31 158 216 229
25 22 32 158 216 229
25 23 30 158 216 229
25 23 31 158 216 229
25 23 32 158 216 229
25 24 30 158 216 229
25 24 31 158 216 229
25 24 32 158 216 229
25 25 30 158 216 229
25 25 31 158 216 229
25 26 30 158 216 229
25 26 31 158 216 229
25 27 30 158 216 229
25 27 31 158 216 229
25 28 30 158 216 229
25 28 31 158 216 229
25 29 30 158 216 229
25 29 31 158 216 229
25 30 30 158 216 229
25 30 31 158 216 229
25 31 27 214 38 40
25 31 28 214 38 40
25 31 29 214 38 40
25 31 30 158 216 229
25 31 31 158 216 229
25 32 28 214 38 40
25 32 29 214 38 40
25 32 30 214 38 40
26 0 44 43 160 4
26 0 45 43 160 4
26 0 46 43 160 4
26 0 47 43 160 4
26 0 48 43 160 4
26 0 49 43 160 4
26 0 50 43 160 4
26 0 51 43 160 4
26 0 52 43 160 4
26 0 53 43 160 4
26 0 54 43 160 4
26 0 55 43 160 4
26 0 56 43 160 4
26 0 57 43 160 4
26 0 58 43 160 4
26 0 59 43 160 4
26 4 32 158 216 229
26 5 30 255 186 119
26 5 31 255 186 119
26 5 32 158 216 229
26 6 27 255 186 119
26 6 28 255 186 119
26 6 29 255 186 119
26 6 30 255 186 119
26 6 31 255 186 119
26 6 32 158 216 229
26 7 24 255 186 119
26 7 28 255 186 119
26 7 29 255 186 119
26 7 30 255 186 119
26 7 31 255 186 119
26 7 32 158 216 229
26 8 21 255 186 119
26 8 22 255 186 119
26 8 23 255 186 119
26 8 24 255 186 119
26 8 25 255 186 119
26 8 26 255 186 119
26 8 27 255 186 119
26 8 28 255 186 119
26 8 29 255 186 119
26 8 31 255 186 119
26 8 32 158 216 229
26 9 25 255 186 119
26 9 26 255 186 119
26 9 27 255 186 119
26 9 28 255 186 119
26 9 29 255 186 119
26 9 30 255 186 119
26 9 32 158 216 229
26 10 29 255 186 119
26 10 30 255 186 119
26 10 32 158 216 229
26 11 29 255 186 119
26 11 30 255 186 119
26 11 32 158 216 229
26 12 29 255 186 119
26 12 30 158 216 229
26 12 32 158 216 229
26 13 29 255 186 119
26 13 30 158 216 229
26 13 31 158 216 229
26 14 30 158 216 229
26 14 31 158 216 229
26 15 30 158 216 229
26 15 31 158 216 229
26 15 32 158 216 229
26 16 30 158 216 229
26 16 31 158 216 229
26 17 30 158 216 229
26 17 31 158 216 229
26 18 30 158 216 229
26 18 31 158 216 229
26 18 32 158 216 229
26 19 30 158 216 229
26 19 31 158 216 229
26 20 30 158 216 229
26 20 31 158 216 229
26 21 30 158 216 229
26 21 31 158 216 229
26 22 30 158 216 229
26 22 31 158 216 229
26 23 30 158 216 229
26 23 31 158 216 229
26 24 30 158 216 229
26 24 31 158 216 229
26 24 32 158 216 229
26 25 30 158 216 229
26 25 31 158 216 229
26 26 30 158 216 229
26 26 31 158 216 229
26 27 30 158 216 229
26 27 31 158 216 229
26 28 30 158 216 229
26 28 31 158 216 229
26 29 30 158 216 229
26 29 31 158 216 229
26 30 30 158 216 229
26 30 31 158 216 229
26 31 27 214 38 40
26 31 28 214 38 40
26 31 29 214 38 40
26 31 30 158 216 229
26 31 31 158 216 229
26 32 28 214 38 40
26 32 29 214 38 40
26 32 30 158 216 229
27 0 44 43 160 4
27 0 45 43 160 4
27 0 46 43 160 4
27 0 47 43 160 4
27 0 48 43 160 4
27 0 49 43 160 4
27 0 50 43 160 4
27 0 51 43 160 4
27 0 52 43 160 4
27 0 53 43 160 4
27 0 54 43 160 4
27 0 55 43 160 4
27 0 56 43 160 4
27 0 57 43 160 4
27 0 58 43 160 4
27 0 59 43 160 4
27 4 32 158 216 229
27 5 29 255 186 119
27 5 30 255 186 119
27 5 31 255 186 119
27 5 32 158 216 229
27 6 27 255 186 119
27 6 28 255 186 119
27 6 29 255 186 119
27 6 30 255 186 119
27 6 31 255 186 119
27 6 32 158 216 229
27 7 23 255 186 119
27 7 24 255 186 119
27 7 27 255 186 119
27 7 28 255 186 119
27 7 29 255 186 119
27 7 30 255 186 119
27 7 31 255 186 119
27 7 32 158 216 229
27 8 21 255 186 119
27 8 22 255 186 119
27 8 23 255 186 119
27 8 24 255 186 119
27 8 25 255 186 119
27 8 26 255 186 119
27 8 27 255 186 119
27 8 28 255 186 119
27 8 31 255 186 119
27 8 32 158 216 229
27 9 25 255 186 119
27 9 26 255 186 119
27 9 27 255 186 119
27 9 28 255 186 119
27 9 29 255 186 119
27 9 30 255 186 119
27 9 31 255 186 119
27 9 32 158 216 229
27 10 29 255 186 119
27 10 30 255 186 119
27 10 32 158 216 229
27 11 29 255 186 119
27 11 30 255 186 119
27 11 32 158 216 229
27 12 29 255 186 119
27 12 30 158 216 229
27 12 32 158 216 229
27 13 29 255 186 119
27 13 30 158 216 229
27 13 31 158 216 229
27 14 30 158 216 229
27 14 31 158 216 229
27 15 30 158 216 229
27 15 31 158 216 229
27 16 30 158 216 229
27 16 31 158 216 229
27 17 30 158 216 229
27 17 31 158 216 229
27 17 32 158 216 229
27 18 30 158 216 229
27 18 31 158 216 229
27 18 32 158 216 229
27 19 30 158 216 229
27 19 31 158 216 229
27 20 30 158 216 229
27 20 31 158 216 229
27 21 30 158 216 229
27 21 31 158 216 229
27 21 32 158 216 229
27 22 30 158 216 229
27 22 31 158 216 229
27 23 30 158 216 229
27 23 31 158 216 229
27 23 32 158 216 229
27 24 30 158 216 229
27 24 31 158 216 229
27 24 32 158 216 229
27 25 30 158 216 229
27 25 31 158 216 229
27 26 30 158 216 229
27 26 31 158 216 229
27 27 30 158 216 229
27 27 31 158 216 229
27 28 30 158 216 229
27 28 31 158 216 229
27 29 30 158 216 229
27 29 31 158 216 229
27 30 30 158 216 229
27 30 31 158 216 229
27 31 27 214 38 40
27 31 28 214 38 40
27 31 29 214 38 40
27 31 30 158 216 229
27 31 31 158 216 229
27 32 29 214 38 40
27 32 30 158 216 229
28 0 44 43 160 4
28 0 45 43 160 4
28 0 46 43 160 4
28 0 47 43 160 4
28 0 48 43 160 4
28 0 49 43 160 4
28 0 50 43 160 4
28 0 51 43 160 4
28 0 52 43 160 4
28 0 53 43 160 4
28 0 54 43 160 4
28 0 55 43 160 4
28 0 56 43 160 4
28 0 57 43 160 4
28 0 58 43 160 4
28 0 59 43 160 4
28 4 32 158 216 229
28 5 29 255 186 119
28 5 30 255 186 119
28 5 31 255 186 119
28 5 32 158 216 229
28 6 27 255 186 119
28 6 28 255 186 119
28 6 29 255 186 119
28 6 30 255 186 119
28 6 31 255 186 119
28 6 32 158 216 229
28 7 23 255 186 119
28 7 27 255 186 119
28 7 28 255 186 119
28 7 29 255 186 119
28 7 30 255 186 119
28 7 31 255 186 119
28 7 32 158 216 229
28 8 20 255 186 119
28 8 21 255 186 119
28 8 22 255 186 119
28 8 23 255 186 119
28 8 24 255 186 119
28 8 25 255 186 119
28 8 26 255 186 119
28 8 27 255 186 119
28 8 28 255 186 119
28 8 31 255 186 119
28 8 32 158 216 229
28 9 25 255 186 119
28 9 26 255 186 119
28 9 27 255 186 119
28 9 28 255 186 119
28 9 29 255 186 119
28 9 30 255 186 119
28 9 32 158 216 229
28 10 29 255 186 119
28 10 30 255 186 119
28 10 32 158 216 229
28 11 29 255 186 119
28 11 32 158 216 229
28 12 29 255 186 119
28 12 30 158 216 229
28 12 31 158 216 229
28 13 29 255 186 119
28 13 30 158 216 229
28 13 31 158 216 229
28 14 30 158 216 229
28 14 31 158 216 229
28 15 30 158 216 229
28 15 31 158 216 229
28 15 32 158 216 229
28 16 30 158 216 229
28 16 31 158 216 229
28 16 32 158 216 229
28 17 30 158 216 229
28 17 31 158 216 229
28 17 32 158 216 229
28 18 30 158 216 229
28 18 31 158 216 229
28 19 30 158 216 229
28 19 31 158 216 229
28 20 30 158 216 229
28 20 31 158 216 229
28 21 30 158 216 229
28 21 31 158 216 229
28 22 30 158 216 229
28 22 31 158 216 229
28 23 30 158 216 229
28 23 31 158 216 229
28 23 32 158 216 229
28 24 30 158 216 229
28 24 31 158 216 229
28 25 30 158 216 229
28 25 31 158 216 229
28 26 30 158 216 229
28 26 31 158 216 229
28 27 30 158 216 229
28 27 31 158 216 229
28 28 30 158 216 229
28 28 31 158 216 229
28 29 30 158 216 229
28 29 31 158 216 229
28 30 30 158 216 229
28 30 31 158 216 229
28 31 27 214 38 40
28 31 28 214 38 40
28 31 29 214 38 40
28 31 30 158 216 229
28 31 31 158 216 229
28 32 29 214 38 40
28 32 30 158 216 229
28 33 30 158 216 229
28 33 31 158 216 229
29 0 44 43 160 4
29 0 45 43 160 4
29 0 46 43 160 4
29 0 47 43 160 4
29 0 48 43 160 4
29 0 49 43 160 4
29 0 50 43 160 4
29 0 51 43 160 4
29 0 52 43 160 4
29 0 53 43 160 4
29 0 54 43 160 4
29 0 55 43 160 4
29 0 56 43 160 4
29 0 57 43 160 4
29 0 58 43 160 4
29 0 59 43 160 4
29 4 32 158 216 229
29 5 29 255 186 119
29 5 30 255 186 119
29 5 31 255 186 119
29 5 32 158 216 229
29 6 27 255 186 119
29 6 28 255 186 119
29 6 29 255 186 119
29 6 30 255 186 119
29 6 31 255 186 119
29 6 32 158 216 229
29 7 23 255 186 119
29 7 27 255 186 119
29 7 28 255 186 119
29 7 29 255 186 119
29 7 30 255 186 119
29 7 31 255 186 119
29 7 32 158 216 229
29 8 20 255 186 119
29 8 21 255 186 119
29 8 22 255 186 119
29 8 23 255 186 119
29 8 24 255 186 119
29 8 25 255 186 119
29 8 26 255 186 119
29 8 27 255 186 119
29 8 28 255 186 119
29 8 29 255 186 119
29 8 31 255 186 119
29 8 32 158 216 229
29 9 25 255 186 119
29 9 26 255 186 119
29 9 27 255 186 119
29 9 28 255 186 119
29 9 29 255 186 119
29 9 30 255 186 119
29 9 32 158 216 229
29 10 29 255 186 119
29 10 30 255 186 119
29 10 32 158 216 229
29 11 29 255 186 119
29 11 31 255 186 119
29 11 32 158 216 229
29 12 29 255 186 119
29 12 30 158 216 229
29 13 30 158 216 229
29 13 31 158 216 229
29 14 30 158 216 229
29 14 31 158 216 229
29 15 30 158 216 229
29 15 31 158 216 229
29 16 30 158 216 229
29 16 31 158 216 229
29 16 32 158 216 229
29 17 30 158 216 229
29 17 31 158 216 229
29 18 30 158 216 229
29 18 31 158 216 229
29 19 30 158 216 229
29 19 31 158 216 229
29 20 30 158 216 229
29 20 31 158 216 229
29 20 32 158 216 229
29 21 30 158 216 229
29 21 31 158 216 229
29 22 31 158 216 229
29 22 32 158 216 229
29 23 30 158 216 229
29 23 31 158 216 229
29 23 32 158 216 229
29 24 30 158 216 229
29 24 31 158 216 229
29 25 30 158 216 229
29 25 31 158 216 229
29 25 32 158 216 229
29 26 30 158 216 229
29 26 31 158 216 229
29 27 30 158 216 229
29 27 31 158 216 229
29 28 31 158 216 229
29 29 30 158 216 229
29 29 31 158 216 229
29 30 30 158 216 229
29 30 31 158 216 229
29 31 27 214 38 40
29 31 28 214 38 40
29 31 29 214 38 40
29 31 30 158 216 229
29 31 31 158 216 229
29 32 29 214 38 40
29 32 30 158 216 229
29 33 30 158 216 229
29 33 31 158 216 229
30 0 44 43 160 4
30 0 45 43 160 4
30 0 46 43 160 4
30 0 47 43 160 4
30 0 48 43 160 4
30 0 49 43 160 4
30 0 50 43 160 4
30 0 51 43 160 4
30 0 52 43 160 4
30 0 53 43 160 4
30 0 54 43 160 4
30 0 55 43 160 4
30 0 56 43 160 4
30 0 57 43 160 4
30 0 58 43 160 4
30 0 59 43 160 4
30 4 32 158 216 229
30 5 29 255 186 119
30 5 30 255 186 119
30 5 31 255 186 119
30 5 32 158 216 229
30 6 26 255 186 119
30 6 27 255 186 119
30 6 28 255 186 119
30 6 29 255 186 119
30 6 30 255 186 119
30 6 31 255 186 119
30 6 32 158 216 229
30 7 23 255 186 119
30 7 27 255 186 119
30 7 28 255 186 119
30 7 29 255 186 119
30 7 30 255 186 119
30 7 31 255 186 119
30 7 32 158 216 229
30 8 20 255 186 119
30 8 21 255 186 119
30 8 22 255 186 119
30 8 23 255 186 119
30 8 24 255 186 119
30 8 25 255 186 119
30 8 26 255 186 119
30 8 27 255 186 119
30 8 28 255 186 119
30 8 29 255 186 119
30 8 31 255 186 119
30 8 32 158 216 229
30 9 25 255 186 119
30 9 26 255 186 119
30 9 27 255 186 119
30 9 28 255 186 119
30 9 29 255 186 119
30 9 30 255 186 119
30 9 31 255 186 119
30 9 32 158 216 229
30 10 29 255 186 119
30 10 30 255 186 119
30 10 31 255 186 119
30 10 32 158 216 229
30 11 29 255 186 119
30 11 30 255 186 119
30 11 31 255 186 119
30 11 32 158 216 229
30 12 29 196 175 214
30 12 30 255 186 119
30 13 29 196 175 214
30 13 30 158 216 229
30 13 31 158 216 229
30 14 31 158 216 229
30 15 30 158 216 229
30 15 31 158 216 229
30 16 30 158 216 229
30 16 31 158 216 229
30 17 10 196 175 214
30 17 30 158 216 229
30 17 31 158 216 229
30 17 32 158 216 229
30 18 10 196 175 214
30 18 30 158 216 229
30 18 31 158 216 229
30 18 32 158 216 229
30 19 10 196 175 214
30 19 30 158 216 229
30 19 31 158 216 229
30 20 9 196 175 214
30 20 10 196 175 214
30 20 11 196 175 214
30 20 30 158 216 229
30 20 31 158 216 229
30 21 30 158 216 229
30 21 31 158 216 229
30 21 32 158 216 229
30 22 30 158 216 229
30 22 31 158 216 229
30 22 32 158 216 229
30 23 30 158 216 229
30 23 31 158 216 229
30 23 32 158 216 229
30 24 30 158 216 229
30 24 31 158 216 229
30 25 30 158 216 229
30 25 31 158 216 229
30 26 30 158 216 229
30 26 31 158 216 229
30 27 30 158 216 229
30 27 31 158 216 229
30 28 30 158 216 229
30 28 31 158 216 229
30 29 30 158 216 229
30 29 31 158 216 229
30 30 30 158 216 229
30 30 31 158 216 229
30 31 27 214 38 40
30 31 28 214 38 40
30 31 29 214 38 40
30 31 30 214 38 40
30 31 31 158 216 229
30 32 29 214 38 40
30 32 30 158 216 229
30 33 30 158 216 229
30 33 31 158 216 229
31 0 43 43 160 4
31 0 44 43 160 4
31 0 45 43 160 4
31 0 46 43 160 4
31 0 47 43 160 4
31 0 48 43 160 4
31 0 49 43 160 4
31 0 50 43 160 4
31 0 51 43 160 4
31 0 52 43 160 4
31 0 53 43 160 4
31 0 54 43 160 4
31 0 55 43 160 4
31 0 56 43 160 4
31 0 57 43 160 4
31 0 58 43 160 4
31 0 59 43 160 4
31 4 32 158 216 229
31 5 29 255 186 119
31 5 30 255 186 119
31 5 31 255 186 119
31 5 32 158 216 229
31 6 26 255 186 119
31 6 27 255 186 119
31 6 28 255 186 119
31 6 29 255 186 119
31 6 30 255 186 119
31 6 31 255 186 119
31 6 32 158 216 229
31 7 23 255 186 119
31 7 27 255 186 119
31 7 28 255 186 119
31 7 29 255 186 119
31 7 30 255 186 119
31 7 31 255 186 119
31 7 32 158 216 229
31 8 20 255 186 119
31 8 21 255 186 119
31 8 22 255 186 119
31 8 23 255 186 119
31 8 24 255 186 119
31 8 25 255 186 119
31 8 26 255 186 119
31 8 27 255 186 119
31 8 28 255 186 119
31 8 31 255 186 119
31 8 32 158 216 229
31 9 25 255 186 119
31 9 26 255 186 119
31 9 27 255 186 119
31 9 28 255 186 119
31 9 29 255 186 119
31 9 30 255 186 119
31 9 31 255 186 119
31 9 32 158 216 229
31 10 29 255 186 119
31 10 30 255 186 119
31 10 31 255 186 119
31 10 32 158 216 229
31 11 29 196 175 214
31 11 30 255 186 119
31 11 31 158 216 229
31 11 32 158 216 229
31 12 29 196 175 214
31 12 30 158 216 229
31 12 32 158 216 229
31 13 29 196 175 214
31 13 30 158 216 229
31 13 31 158 216 229
31 14 31 158 216 229
31 15 30 158 216 229
31 15 31 158 216 229
31 16 30 158 216 229
31 16 31 158 216 229
31 17 9 158 216 229
31 17 10 158 216 229
31 17 30 158 216 229
31 17 31 158 216 229
31 18 9 158 216 229
31 18 10 158 216 229
31 18 11 196 175 214
31 18 12 196 175 214
31 18 30 158 216 229
31 18 31 158 216 229
31 19 9 196 175 214
31 19 10 196 175 214
31 19 30 158 216 229
31 19 31 158 216 229
31 19 32 158 216 229
31 20 9 196 175 214
31 20 10 196 175 214
31 20 30 158 216 229
31 20 31 158 216 229
31 21 11 196 175 214
31 21 30 158 216 229
31 21 31 158 216 229
31 22 30 158 216 229
31 22 31 158 216 229
31 23 29 158 216 229
31 23 30 158 216 229
31 23 31 158 216 229
31 23 32 158 216 229
31 24 30 158 216 229
31 24 31 158 216 229
31 25 30 158 216 229
31 25 31 158 216 229
31 26 30 158 216 229
31 26 31 158 216 229
31 27 30 158 216 229
31 27 31 158 216 229
31 28 29 158 216 229
31 28 30 158 216 229
31 28 31 158 216 229
31 29 29 158 216 229
31 29 30 158 216 229
31 29 31 158 216 229
31 30 28 214 38 40
31 30 30 158 216 229
31 30 31 158 216 229
31 31 27 214 38 40
31 31 28 214 38 40
31 31 29 214 38 40
31 31 30 158 216 229
31 31 31 158 216 229
31 31 34 214 38 40
31 32 29 214 38 40
31 32 30 158 216 229
31 32 32 158 216 229
31 33 31 158 216 229
31 34 32 158 216 229
32 0 43 43 160 4
32 0 44 43 160 4
32 0 45 43 160 4
32 0 46 43 160 4
32 0 47 43 160 4
32 0 48 43 160 4
32 0 49 43 160 4
32 0 50 43 160 4
32 0 51 43 160 4
32 0 52 43 160 4
32 0 53 43 160 4
32 0 54 43 160 4
32 0 55 43 160 4
32 0 56 43 160 4
32 0 57 43 160 4
32 0 58 43 160 4
32 0 59 43 160 4
32 4 31 255 186 119
32 4 32 158 216 229
32 5 29 255 186 119
32 5 30 255 186 119
32 5 31 255 186 119
32 5 32 158 216 229
32 6 26 255 186 119
32 6 27 255 186 119
32 6 28 255 186 119
32 6 29 255 186 119
32 6 30 255 186 119
32 6 31 255 186 119
32 6 32 158 216 229
32 7 23 255 186 119
32 7 24 255 186 119
32 7 27 255 186 119
32 7 28 255 186 119
32 7 29 255 186 119
32 7 30 255 186 119
32 7 31 255 186 119
32 7 32 158 216 229
32 8 20 255 186 119
32 8 21 255 186 119
32 8 22 255 186 119
32 8 23 255 186 119
32 8 24 255 186 119
32 8 25 255 186 119
32 8 26 255 186 119
32 8 27 255 186 119
32 8 28 255 186 119
32 8 29 255 186 119
32 8 31 255 186 119
32 8 32 158 216 229
32 9 25 255 186 119
32 9 26 255 186 119
32 9 27 255 186 119
32 9 28 196 175 214
32 9 29 255 186 119
32 9 30 255 186 119
32 9 32 158 216 229
32 10 29 196 175 214
32 10 30 255 186 119
32 10 32 158 216 229
32 11 29 196 175 214
32 11 30 196 175 214
32 11 32 158 216 229
32 12 29 196 175 214
32 12 30 196 175 214
32 12 32 158 216 229
32 13 30 158 216 229
32 13 31 158 216 229
32 14 31 158 216 229
32 15 30 158 216 229
32 15 31 158 216 229
32 16 30 158 216 229
32 16 31 158 216 229
32 17 9 158 216 229
32 17 10 158 216 229
32 17 30 158 216 229
32 17 31 158 216 229
32 18 9 158 216 229
32 18 10 158 216 229
32 18 30 158 216 229
32 18 31 158 216 229
32 19 9 158 216 229
32 19 10 158 216 229
32 19 31 158 216 229
32 20 9 158 216 229
32 20 10 196 175 214
32 20 30 158 216 229
32 20 31 158 216 229
32 20 32 158 216 229
32 21 11 196 175 214
32 21 30 158 216 229
32 21 31 158 216 229
32 22 30 158 216 229
32 22 31 158 216 229
32 33 42 214 38 40
32 34 43 214 38 40
33 0 43 43 160 4
33 0 44 43 160 4
33 0 45 43 160 4
33 0 46 43 160 4
33 0 47 43 160 4
33 0 48 43 160 4
33 0 49 43 160 4
33 0 50 43 160 4
33 0 51 43 160 4
33 0 52 43 160 4
33 0 53 43 160 4
33 0 54 43 160 4
33 0 55 43 160 4
33 0 56 43 160 4
33 0 57 43 160 4
33 0 58 43 160 4
33 0 59 43 160 4
33 4 31 255 127 12
33 4 32 158 216 229
33 5 29 255 186 119
33 5 30 255 186 119
33 5 31 255 186 119
33 5 32 158 216 229
33 6 25 255 186 119
33 6 27 255 186 119
33 6 28 255 186 119
33 6 29 255 186 119
33 6 30 255 186 119
33 6 31 255 186 119
33 6 32 158 216 229
33 7 22 255 186 119
33 7 23 255 186 119
33 7 24 255 186 119
33 7 25 255 186 119
33 7 30 255 186 119
33 7 31 255 186 119
33 7 32 158 216 229
33 8 19 255 186 119
33 8 20 255 186 119
33 8 21 255 186 119
33 8 22 255 186 119
33 8 23 255 186 119
33 8 24 255 186 119
33 8 25 255 186 119
33 8 26 255 186 119
33 8 27 255 186 119
33 8 28 255 186 119
33 8 29 255 186 119
33 8 31 255 186 119
33 8 32 158 216 229
33 9 25 255 186 119
33 9 26 255 186 119
33 9 27 255 186 119
33 9 28 196 175 214
33 9 29 196 175 214
33 9 30 255 186 119
33 9 32 158 216 229
33 10 29 196 175 214
33 10 30 255 186 119
33 10 32 158 216 229
33 11 29 196 175 214
33 11 30 196 175 214
33 11 32 158 216 229
33 12 29 196 175 214
33 12 30 158 216 229
33 12 31 158 216 229
33 13 30 158 216 229
33 13 31 158 216 229
33 14 31 158 216 229
33 14 32 158 216 229
33 15 31 158 216 229
33 16 31 158 216 229
33 16 32 158 216 229
33 17 10 158 216 229
33 17 11 158 216 229
33 17 30 158 216 229
33 17 31 158 216 229
33 17 32 158 216 229
33 18 10 158 216 229
33 18 11 158 216 229
33 18 30 158 216 229
33 18 31 158 216 229
33 18 32 158 216 229
33 19 10 158 216 229
33 19 11 158 216 229
33 19 31 158 216 229
33 19 32 158 216 229
33 20 9 158 216 229
33 20 10 158 216 229
33 20 11 158 216 229
33 20 30 158 216 229
33 20 31 158 216 229
33 20 32 158 216 229
33 21 11 158 216 229
33 21 25 158 216 229
33 21 30 158 216 229
33 21 31 158 216 229
33 21 32 158 216 229
33 22 29 158 216 229
33 22 30 158 216 229
33 22 31 158 216 229
33 23 29 158 216 229
33 23 31 158 216 229
33 25 30 158 216 229
33 25 31 158 216 229
33 26 29 158 216 229
33 29 30 158 216 229
33 29 31 158 216 229
33 29 32 158 216 229
33 30 26 214 38 40
33 30 27 214 38 40
33 30 28 214 38 40
33 30 30 158 216 229
33 30 31 158 216 229
33 31 28 214 38 40
33 31 29 214 38 40
33 31 30 158 216 229
33 31 31 158 216 229
33 32 30 158 216 229
33 33 31 158 216 229
33 33 37 214 38 40
33 33 38 214 38 40
33 33 39 214 38 40
33 34 37 214 38 40
33 34 38 214 38 40
33 34 39 214 38 40
33 34 40 214 38 40
33 34 51 214 38 40
33 34 52 214 38 40
34 0 43 43 160 4
34 0 44 43 160 4
34 0 45 43 160 4
34 0 46 43 160 4
34 0 47 43 160 4
34 0 48 43 160 4
34 0 49 43 160 4
34 0 50 43 160 4
34 0 51 43 160 4
34 0 52 43 160 4
34 0 53 43 160 4
34 0 54 43 160 4
34 0 55 43 160 4
34 0 56 43 160 4
34 0 57 43 160 4
34 0 58 43 160 4
34 0 59 43 160 4
34 4 31 255 127 12
34 4 32 158 216 229
34 5 29 255 127 12
34 5 30 255 127 12
34 5 31 255 127 12
34 5 32 158 216 229
34 6 25 255 186 119
34 6 30 255 127 12
34 6 31 255 127 12
34 6 32 158 216 229
34 7 22 255 186 119
34 7 23 255 186 119
34 7 24 255 186 119
34 7 25 255 186 119
34 7 26 255 186 119
34 7 27 255 186 119
34 7 28 255 186 119
34 7 29 255 127 12
34 7 31 255 127 12
34 7 32 158 216 229
34 8 23 196 175 214
34 8 24 255 186 119
34 8 25 196 175 214
34 8 26 196 175 214
34 8 27 196 175 214
34 8 28 196 175 214
34 8 29 196 175 214
34 8 30 255 186 119
34 8 32 158 216 229
34 9 28 196 175 214
34 9 29 196 175 214
34 9 30 255 127 12
34 9 32 158 216 229
34 10 29 196 175 214
34 10 30 255 127 12
34 10 32 158 216 229
34 11 29 196 175 214
34 11 30 255 127 12
34 11 32 158 216 229
34 12 29 196 175 214
34 12 30 158 216 229
34 12 31 158 216 229
34 13 29 196 175 214
34 13 30 158 216 229
34 13 31 158 216 229
34 14 31 158 216 229
34 15 31 158 216 229
34 16 30 158 216 229
34 16 31 158 216 229
34 16 32 158 216 229
34 17 10 158 216 229
34 17 11 158 216 229
34 17 30 158 216 229
34 17 31 158 216 229
34 17 32 158 216 229
34 18 10 158 216 229
34 18 11 158 216 229
34 18 31 158 216 229
34 18 32 158 216 229
34 19 10 158 216 229
34 19 11 158 216 229
34 19 31 158 216 229
34 19 32 158 216 229
34 20 10 158 216 229
34 20 11 158 216 229
34 20 30 158 216 229
34 20 31 158 216 229
34 20 32 158 216 229
34 21 11 158 216 229
34 21 12 158 216 229
34 21 30 158 216 229
34 21 31 158 216 229
34 22 29 158 216 229
34 22 30 158 216 229
34 22 31 158 216 229
34 23 29 158 216 229
34 24 30 158 216 229
34 24 31 158 216 229
34 25 30 158 216 229
34 25 31 158 216 229
34 26 19 158 216 229
34 26 30 158 216 229
34 26 31 158 216 229
34 27 21 158 216 229
34 27 30 158 216 229
34 27 31 158 216 229
34 28 30 158 216 229
34 28 31 158 216 229
34 29 30 158 216 229
34 29 31 158 216 229
34 30 28 214 38 40
34 30 29 214 38 40
34 30 30 158 216 229
34 30 31 158 216 229
34 31 28 214 38 40
34 31 29 214 38 40
34 31 30 158 216 229
34 33 41 214 38 40
34 33 42 214 38 40
34 33 43 214 38 40
34 33 44 214 38 40
34 34 43 214 38 40
34 34 44 214 38 40
35 0 43 43 160 4
35 0 44 43 160 4
35 0 45 43 160 4
35 0 46 43 160 4
35 0 47 43 160 4
35 0 48 43 160 4
35 0 49 43 160 4
35 0 50 43 160 4
35 0 51 43 160 4
35 0 52 43 160 4
35 0 53 43 160 4
35 0 54 43 160 4
35 0 55 43 160 4
35 0 56 43 160 4
35 0 57 43 160 4
35 0 58 43 160 4
35 0 59 43 160 4
35 4 31 255 127 12
35 4 32 158 216 229
35 5 30 255 127 12
35 5 31 255 127 12
35 5 32 158 216 229
35 6 25 255 186 119
35 6 26 255 186 119
35 6 27 255 127 12
35 6 28 255 127 12
35 6 29 255 127 12
35 6 31 158 216 229
35 6 32 158 216 229
35 7 22 255 186 119
35 7 23 196 175 214
35 7 24 196 175 214
35 7 25 196 175 214
35 7 26 196 175 214
35 7 27 196 175 214
35 7 28 196 175 214
35 7 29 255 127 12
35 7 32 158 216 229
35 8 27 196 175 214
35 8 28 196 175 214
35 8 29 196 175 214
35 8 30 196 175 214
35 8 31 158 216 229
35 9 30 196 175 214
35 9 31 158 216 229
35 10 30 158 216 229
35 10 31 158 216 229
35 11 30 158 216 229
35 11 31 158 216 229
35 12 30 158 216 229
35 12 31 158 216 229
35 13 30 158 216 229
35 13 31 158 216 229
35 14 31 158 216 229
35 15 30 158 216 229
35 15 31 158 216 229
35 16 30 158 216 229
35 16 31 158 216 229
35 17 11 114 158 206
35 17 12 114 158 206
35 17 30 158 216 229
35 17 31 158 216 229
35 18 10 158 216 229
35 18 11 158 216 229
35 18 30 158 216 229
35 18 31 158 216 229
35 19 11 158 216 229
35 19 30 158 216 229
35 19 31 158 216 229
35 19 32 158 216 229
35 20 11 158 216 229
35 20 12 158 216 229
35 20 30 158 216 229
35 20 31 158 216 229
35 20 32 158 216 229
35 21 11 255 127 12
35 21 12 255 127 12
35 21 30 158 216 229
35 21 31 158 216 229
35 22 29 158 216 229
35 22 30 158 216 229
35 22 31 158 216 229
35 23 29 158 216 229
35 24 30 158 216 229
35 24 31 158 216 229
35 25 30 158 216 229
35 25 31 158 216 229
35 26 30 158 216 229
35 26 31 158 216 229
35 27 30 158 216 229
35 27 31 158 216 229
35 28 30 158 216 229
35 28 31 158 216 229
35 29 30 158 216 229
35 29 31 158 216 229
35 30 30 158 216 229
35 30 31 158 216 229
35 31 28 214 38 40
35 31 30 158 216 229
35 31 31 158 216 229
35 33 31 158 216 229
36 0 43 43 160 4
36 0 44 43 160 4
36 0 45 43 160 4
36 0 46 43 160 4
36 0 47 43 160 4
36 0 48 43 160 4
36 0 49 43 160 4
36 0 50 43 160 4
36 0 51 43 160 4
36 0 52 43 160 4
36 0 53 43 160 4
36 0 54 43 160 4
36 0 55 43 160 4
36 0 56 43 160 4
36 0 57 43 160 4
36 0 58 43 160 4
36 0 59 43 160 4
36 4 31 255 127 12
36 4 32 158 216 229
36 5 30 255 127 12
36 5 31 255 127 12
36 5 32 158 216 229
36 6 25 255 127 12
36 6 26 255 127 12
36 6 27 255 127 12
36 6 28 255 127 12
36 6 29 255 127 12
36 6 31 158 216 229
36 6 32 158 216 229
36 7 26 196 175 214
36 7 27 196 175 214
36 7 28 196 175 214
36 7 29 196 175 214
36 7 32 158 216 229
36 8 29 196 175 214
36 8 30 196 175 214
36 8 31 158 216 229
36 9 30 196 175 214
36 9 31 158 216 229
36 10 31 158 216 229
36 11 31 158 216 229
36 12 31 158 216 229
36 12 32 158 216 229
36 13 31 158 216 229
36 14 31 158 216 229
36 15 30 158 216 229
36 15 31 158 216 229
36 16 30 158 216 229
36 16 31 158 216 229
36 17 10 114 158 206
36 17 11 114 158 206
36 17 12 114 158 206
36 17 30 158 216 229
36 17 31 158 216 229
36 18 10 114 158 206
36 18 11 114 158 206
36 18 12 114 158 206
36 18 30 158 216 229
36 18 31 158 216 229
36 18 32 158 216 229
36 19 10 114 158 206
36 19 11 114 158 206
36 19 12 114 158 206
36 19 31 158 216 229
36 20 11 196 175 214
36 20 12 114 158 206
36 20 30 158 216 229
36 20 31 158 216 229
36 21 11 255 127 12
36 21 12 255 127 12
36 21 30 158 216 229
36 21 31 158 216 229
36 22 13 255 127 12
36 22 30 158 216 229
36 22 31 158 216 229
36 24 31 158 216 229
36 25 31 158 216 229
36 26 30 158 216 229
36 26 31 158 216 229
36 27 30 158 216 229
36 27 31 158 216 229
36 28 31 158 216 229
36 29 31 158 216 229
36 30 31 158 216 229
37 0 42 43 160 4
37 0 43 43 160 4
37 0 44 43 160 4
37 0 45 43 160 4
37 0 46 43 160 4
37 0 47 43 160 4
37 0 48 43 160 4
37 0 49 43 160 4
37 0 50 43 160 4
37 0 51 43 160 4
37 0 52 43 160 4
37 0 53 43 160 4
37 0 54 43 160 4
37 0 55 43 160 4
37 0 56 43 160 4
37 0 57 43 160 4
37 0 58 43 160 4
37 0 59 43 160 4
37 4 31 255 127 12
37 4 32 158 216 229
37 5 30 255 127 12
37 5 31 255 127 12
37 5 32 158 216 229
37 6 25 255 127 12
37 6 26 255 127 12
37 6 27 255 127 12
37 6 28 255 127 12
37 6 29 255 127 12
37 6 31 255 127 12
37 6 32 158 216 229
37 7 26 196 175 214
37 7 27 196 175 214
37 7 28 196 175 214
37 7 29 196 175 214
37 7 30 196 175 214
37 7 32 158 216 229
37 8 29 196 175 214
37 8 30 196 175 214
37 8 31 158 216 229
37 9 29 196 175 214
37 9 30 196 175 214
37 9 31 158 216 229
37 10 30 158 216 229
37 10 31 158 216 229
37 10 32 158 216 229
37 11 31 158 216 229
37 11 32 158 216 229
37 12 31 158 216 229
37 12 32 158 216 229
37 13 31 158 216 229
37 13 32 158 216 229
37 14 31 158 216 229
37 14 32 158 216 229
37 15 30 158 216 229
37 15 31 158 216 229
37 16 12 114 158 206
37 16 30 158 216 229
37 16 31 158 216 229
37 17 12 114 158 206
37 17 13 114 158 206
37 17 31 158 216 229
37 17 32 158 216 229
37 18 12 114 158 206
37 18 31 158 216 229
37 18 32 158 216 229
37 19 12 114 158 206
37 19 31 158 216 229
37 20 11 114 158 206
37 20 12 114 158 206
37 20 13 114 158 206
37 20 30 158 216 229
37 20 31 158 216 229
37 21 12 196 175 214
37 21 13 255 127 12
37 21 30 158 216 229
37 21 31 158 216 229
37 22 13 255 127 12
37 22 30 158 216 229
37 22 31 158 216 229
37 23 32 158 216 229
37 24 31 158 216 229
37 25 31 158 216 229
37 26 31 158 216 229
37 27 31 158 216 229
37 28 31 158 216 229
37 29 31 158 216 229
37 31 29 214 38 40
37 33 31 158 216 229
38 0 42 43 160 4
38 0 43 43 160 4
38 0 44 43 160 4
38 0 45 43 160 4
38 0 46 43 160 4
38 0 47 43 160 4
38 0 48 43 160 4
38 0 49 43 160 4
38 0 50 43 160 4
38 0 51 43 160 4
38 0 52 43 160 4
38 0 53 43 160 4
38 0 54 43 160 4
38 0 55 43 160 4
38 0 56 43 160 4
38 0 57 43 160 4
38 0 58 43 160 4
38 0 59 43 160 4
38 4 31 255 127 12
38 4 32 158 216 229
38 5 27 255 127 12
38 5 31 255 127 12
38 5 32 158 216 229
38 6 25 255 127 12
38 6 26 255 127 12
38 6 27 255 127 12
38 6 28 255 127 12
38 6 29 255 127 12
38 6 30 255 127 12
38 7 26 196 175 214
38 7 27 196 175 214
38 7 28 196 175 214
38 7 29 196 175 214
38 7 30 196 175 214
38 7 31 158 216 229
38 8 29 196 175 214
38 8 30 196 175 214
38 8 31 158 216 229
38 9 30 196 175 214
38 9 31 158 216 229
38 10 31 158 216 229
38 11 31 158 216 229
38 11 32 158 216 229
38 12 30 158 216 229
38 12 31 158 216 229
38 12 32 158 216 229
38 13 31 158 216 229
38 13 32 158 216 229
38 14 31 158 216 229
38 14 32 158 216 229
38 15 31 158 216 229
38 16 31 158 216 229
38 16 32 158 216 229
38 17 31 158 216 229
38 17 32 158 216 229
38 18 31 158 216 229
38 18 32 158 216 229
38 19 13 114 158 206
38 19 30 158 216 229
38 19 31 158 216 229
38 20 13 114 158 206
38 20 30 158 216 229
38 20 31 158 216 229
38 20 32 158 216 229
38 21 13 196 175 214
38 21 14 158 216 229
38 21 30 158 216 229
38 21 31 158 216 229
38 22 13 196 175 214
38 22 14 158 216 229
38 22 30 158 216 229
38 22 31 158 216 229
38 23 32 158 216 229
38 24 31 158 216 229
38 25 31 158 216 229
38 26 31 158 216 229
39 0 42 43 160 4
39 0 43 43 160 4
39 0 44 43 160 4
39 0 45 43 160 4
39 0 46 43 160 4
39 0 47 43 160 4
39 0 48 43 160 4
39 0 49 43 160 4
39 0 50 43 160 4
39 0 51 43 160 4
39 0 52 43 160 4
39 0 53 43 160 4
39 0 54 43 160 4
39 0 55 43 160 4
39 0 56 43 160 4
39 0 57 43 160 4
39 0 58 43 160 4
39 0 59 43 160 4
39 4 31 255 127 12
39 4 32 158 216 229
39 5 27 255 127 12
39 5 32 158 216 229
39 6 24 255 127 12
39 6 25 255 127 12
39 6 26 255 127 12
39 6 27 255 127 12
39 6 28 255 127 12
39 6 29 255 127 12
39 6 30 255 127 12
39 6 31 158 216 229
39 7 28 196 175 214
39 7 30 196 175 214
39 7 31 158 216 229
39 8 30 196 175 214
39 8 31 158 216 229
39 9 30 196 175 214
39 9 31 158 216 229
39 10 31 158 216 229
39 11 31 158 216 229
39 12 30 158 216 229
39 12 31 158 216 229
39 13 30 158 216 229
39 13 31 158 216 229
39 13 32 158 216 229
39 14 30 158 216 229
39 14 31 158 216 229
39 15 31 158 216 229
39 15 32 158 216 229
39 16 31 158 216 229
39 16 32 158 216 229
39 17 31 158 216 229
39 17 32 158 216 229
39 18 30 158 216 229
39 18 31 158 216 229
39 18 32 158 216 229
39 19 30 158 216 229
39 19 31 158 216 229
39 20 30 158 216 229
39 20 31 158 216 229
39 21 29 158 216 229
39 21 30 158 216 229
39 21 31 158 216 229
39 22 14 158 216 229
39 22 30 158 216 229
39 22 31 158 216 229
39 23 30 158 216 229
39 23 31 158 216 229
39 23 32 158 216 229
39 24 31 158 216 229
39 25 31 158 216 229
39 25 32 158 216 229
39 27 31 158 216 229
39 31 30 214 38 40
40 0 42 43 160 4
40 0 43 43 160 4
40 0 44 43 160 4
40 0 45 43 160 4
40 0 46 43 160 4
40 0 47 43 160 4
40 0 48 43 160 4
40 0 49 43 160 4
40 0 50 43 160 4
40 0 51 43 160 4
40 0 52 43 160 4
40 0 53 43 160 4
40 0 54 43 160 4
40 0 55 43 160 4
40 0 56 43 160 4
40 0 57 43 160 4
40 0 58 43 160 4
40 0 59 43 160 4
40 4 31 158 216 229
40 5 27 255 127 12
40 5 32 158 216 229
40 6 24 255 127 12
40 6 25 255 127 12
40 6 26 255 127 12
40 6 27 255 127 12
40 6 28 255 127 12
40 6 29 255 127 12
40 6 30 255 127 12
40 6 31 158 216 229
40 7 21 158 216 229
40 7 22 196 175 214
40 7 23 196 175 214
40 7 25 196 175 214
40 7 26 196 175 214
40 7 27 196 175 214
40 7 28 196 175 214
40 7 29 196 175 214
40 7 30 196 175 214
40 7 31 158 216 229
40 8 19 158 216 229
40 8 20 158 216 229
40 8 22 158 216 229
40 8 23 158 216 229
40 8 24 158 216 229
40 8 25 196 175 214
40 8 26 196 175 214
40 8 27 196 175 214
40 8 29 196 175 214
40 8 30 158 216 229
40 8 31 158 216 229
40 9 22 158 216 229
40 9 24 158 216 229
40 9 25 158 216 229
40 9 26 196 175 214
40 9 28 196 175 214
40 9 29 196 175 214
40 9 30 158 216 229
40 9 31 158 216 229
40 10 19 158 216 229
40 10 20 158 216 229
40 10 24 158 216 229
40 10 25 158 216 229
40 10 28 196 175 214
40 10 29 196 175 214
40 10 30 158 216 229
40 10 31 158 216 229
40 11 19 158 216 229
40 11 20 158 216 229
40 11 23 158 216 229
40 11 24 158 216 229
40 11 25 158 216 229
40 11 26 158 216 229
40 11 27 158 216 229
40 11 28 158 216 229
40 11 29 158 216 229
40 11 30 158 216 229
40 11 31 158 216 229
40 12 19 158 216 229
40 12 21 158 216 229
40 12 22 158 216 229
40 12 23 158 216 229
40 12 24 158 216 229
40 12 25 158 216 229
40 12 26 158 216 229
40 12 27 158 216 229
40 12 28 158 216 229
40 12 29 158 216 229
40 12 30 158 216 229
40 12 31 158 216 229
40 13 19 158 216 229
40 13 23 158 216 229
40 13 24 158 216 229
40 13 25 158 216 229
40 13 26 158 216 229
40 13 27 158 216 229
40 13 28 158 216 229
40 13 29 158 216 229
40 13 30 158 216 229
40 13 31 158 216 229
40 14 18 158 216 229
40 14 22 158 216 229
40 14 23 158 216 229
40 14 24 158 216 229
40 14 25 158 216 229
40 14 26 158 216 229
40 14 29 158 216 229
40 14 30 158 216 229
40 14 31 158 216 229
40 15 21 158 216 229
40 15 22 158 216 229
40 15 23 158 216 229
40 15 26 158 216 229
40 15 27 158 216 229
40 15 28 158 216 229
40 15 29 158 216 229
40 15 30 158 216 229
40 15 31 158 216 229
40 15 32 158 216 229
40 16 18 114 158 206
40 16 19 158 216 229
40 16 20 158 216 229
40 16 21 158 216 229
40 16 22 158 216 229
40 16 26 158 216 229
40 16 27 158 216 229
40 16 28 158 216 229
40 16 29 158 216 229
40 16 30 158 216 229
40 16 31 158 216 229
40 16 32 158 216 229
40 17 22 158 216 229
40 17 23 158 216 229
40 17 26 158 216 229
40 17 27 158 216 229
40 17 28 158 216 229
40 17 29 158 216 229
40 17 30 158 216 229
40 17 31 158 216 229
40 17 32 158 216 229
40 18 17 114 158 206
40 18 18 114 158 206
40 18 19 158 216 229
40 18 23 158 216 229
40 18 24 158 216 229
40 18 25 158 216 229
40 18 26 158 216 229
40 18 28 158 216 229
40 18 29 158 216 229
40 18 30 158 216 229
40 18 31 158 216 229
40 18 32 158 216 229
40 19 21 158 216 229
40 19 22 158 216 229
40 19 23 158 216 229
40 19 24 158 216 229
40 19 25 158 216 229
40 19 26 158 216 229
40 19 27 158 216 229
40 19 28 158 216 229
40 19 29 158 216 229
40 19 30 158 216 229
40 19 31 158 216 229
40 20 25 158 216 229
40 20 26 158 216 229
40 20 27 158 216 229
40 20 29 158 216 229
40 20 30 158 216 229
40 20 31 158 216 229
40 21 26 158 216 229
40 21 28 158 216 229
40 21 29 158 216 229
40 21 30 158 216 229
40 21 31 158 216 229
40 22 29 158 216 229
40 22 31 158 216 229
40 23 30 158 216 229
40 23 31 158 216 229
40 23 32 158 216 229
40 28 31 158 216 229
41 0 42 43 160 4
41 0 43 43 160 4
41 0 44 43 160 4
41 0 45 43 160 4
41 0 46 43 160 4
41 0 47 43 160 4
41 0 48 43 160 4
41 0 49 43 160 4
41 0 50 43 160 4
41 0 51 43 160 4
41 0 52 43 160 4
41 0 53 43 160 4
41 0 54 43 160 4
41 0 55 43 160 4
41 0 56 43 160 4
41 0 57 43 160 4
41 0 58 43 160 4
41 0 59 43 160 4
41 4 31 158 216 229
41 5 31 158 216 229
41 5 32 158 216 229
41 6 24 158 216 229
41 6 25 158 216 229
41 6 26 158 216 229
41 6 27 158 216 229
41 6 28 158 216 229
41 6 29 158 216 229
41 6 30 158 216 229
41 7 21 158 216 229
41 7 22 158 216 229
41 7 23 158 216 229
41 7 24 158 216 229
41 7 25 158 216 229
41 7 26 158 216 229
41 7 27 158 216 229
41 7 28 158 216 229
41 7 29 158 216 229
41 7 30 158 216 229
41 7 31 158 216 229
41 8 20 158 216 229
41 8 21 158 216 229
41 8 22 158 216 229
41 8 23 158 216 229
41 8 24 158 216 229
41 8 25 158 216 229
41 8 26 158 216 229
41 8 27 158 216 229
41 8 28 158 216 229
41 8 29 158 216 229
41 8 30 158 216 229
41 9 20 158 216 229
41 9 21 158 216 229
41 9 22 158 216 229
41 9 23 158 216 229
41 9 24 158 216 229
41 9 25 158 216 229
41 9 26 158 216 229
41 9 27 158 216 229
41 9 28 158 216 229
41 9 29 158 216 229
41 9 30 158 216 229
41 9 31 158 216 229
41 10 20 158 216 229
41 10 21 158 216 229
41 10 22 158 216 229
41 10 23 158 216 229
41 10 24 158 216 229
41 10 25 158 216 229
41 10 26 158 216 229
41 10 27 158 216 229
41 10 28 158 216 229
41 10 29 158 216 229
41 10 30 158 216 229
41 10 31 158 216 229
41 11 20 158 216 229
41 11 21 158 216 229
41 11 22 158 216 229
41 11 23 158 216 229
41 11 24 158 216 229
41 11 25 158 216 229
41 11 26 158 216 229
41 11 27 158 216 229
41 11 28 158 216 229
41 11 29 158 216 229
41 11 30 158 216 229
41 11 31 158 216 229
41 12 20 158 216 229
41 12 21 158 216 229
41 12 22 158 216 229
41 12 23 158 216 229
41 12 24 158 216 229
41 12 25 158 216 229
41 12 26 158 216 229
41 12 27 158 216 229
41 12 28 158 216 229
41 12 29 158 216 229
41 12 30 158 216 229
41 12 31 158 216 229
41 13 19 158 216 229
41 13 20 158 216 229
41 13 21 158 216 229
41 13 22 158 216 229
41 13 23 158 216 229
41 13 24 158 216 229
41 13 25 158 216 229
41 13 26 158 216 229
41 13 27 158 216 229
41 13 28 158 216 229
41 13 29 158 216 229
41 13 30 158 216 229
41 13 31 158 216 229
41 14 19 158 216 229
41 14 20 158 216 229
41 14 21 158 216 229
41 14 22 158 216 229
41 14 23 158 216 229
41 14 24 158 216 229
41 14 25 158 216 229
41 14 26 158 216 229
41 14 27 158 216 229
41 14 28 158 216 229
41 14 29 158 216 229
41 14 30 158 216 229
41 14 31 158 216 229
41 15 19 158 216 229
41 15 20 158 216 229
41 15 21 158 216 229
41 15 22 158 216 229
41 15 23 158 216 229
41 15 24 158 216 229
41 15 25 158 216 229
41 15 26 158 216 229
41 15 27 158 216 229
41 15 28 158 216 229
41 15 29 158 216 229
41 15 30 158 216 229
41 15 31 158 216 229
41 16 19 158 216 229
41 16 20 158 216 229
41 16 21 158 216 229
41 16 22 158 216 229
41 16 23 158 216 229
41 16 24 158 216 229
41 16 25 158 216 229
41 16 26 158 216 229
41 16 27 158 216 229
41 16 28 158 216 229
41 16 29 158 216 229
41 16 30 158 216 229
41 16 31 158 216 229
41 17 19 158 216 229
41 17 20 158 216 229
41 17 21 158 216 229
41 17 22 158 216 229
41 17 23 158 216 229
41 17 24 158 216 229
41 17 25 158 216 229
41 17 26 158 216 229
41 17 27 158 216 229
41 17 28 158 216 229
41 17 29 158 216 229
41 17 30 158 216 229
41 17 31 158 216 229
41 18 19 158 216 229
41 18 20 158 216 229
41 18 21 158 216 229
41 18 22 158 216 229
41 18 23 158 216 229
41 18 24 158 216 229
41 18 25 158 216 229
41 18 26 158 216 229
41 18 27 158 216 229
41 18 28 158 216 229
41 18 29 158 216 229
41 18 30 158 216 229
41 18 31 158 216 229
41 19 18 158 216 229
41 19 20 158 216 229
41 19 21 158 216 229
41 19 22 158 216 229
41 19 23 158 216 229
41 19 24 158 216 229
41 19 25 158 216 229
41 19 26 158 216 229
41 19 27 158 216 229
41 19 28 158 216 229
41 19 29 158 216 229
41 19 30 158 216 229
41 19 31 158 216 229
41 20 18 158 216 229
41 20 19 158 216 229
41 20 20 158 216 229
41 20 25 158 216 229
41 20 26 158 216 229
41 20 27 158 216 229
41 20 28 158 216 229
41 20 29 158 216 229
41 20 30 158 216 229
41 21 18 158 216 229
41 21 19 158 216 229
41 21 20 158 216 229
41 21 21 158 216 229
41 21 22 158 216 229
41 21 23 158 216 229
41 21 24 158 216 229
41 21 25 158 216 229
41 21 29 158 216 229
41 21 30 158 216 229
41 21 31 158 216 229
41 22 18 158 216 229
41 22 21 158 216 229
41 22 22 158 216 229
41 22 23 158 216 229
41 22 24 158 216 229
41 22 25 158 216 229
41 22 26 158 216 229
41 22 27 158 216 229
41 22 28 158 216 229
41 23 18 158 216 229
41 23 21 158 216 229
41 23 22 158 216 229
41 23 23 158 216 229
41 23 24 158 216 229
41 23 25 158 216 229
41 23 26 158 216 229
41 23 27 158 216 229
41 23 28 158 216 229
41 23 29 158 216 229
41 23 30 158 216 229
41 23 31 158 216 229
41 23 32 158 216 229
41 24 18 158 216 229
41 24 22 158 216 229
41 24 23 158 216 229
41 24 24 158 216 229
41 24 25 158 216 229
41 24 26 158 216 229
41 24 27 158 216 229
41 24 29 158 216 229
41 24 30 158 216 229
41 24 31 158 216 229
41 24 32 158 216 229
41 25 18 158 216 229
41 25 23 158 216 229
41 25 24 158 216 229
41 25 25 158 216 229
41 25 26 158 216 229
41 25 27 158 216 229
41 25 28 158 216 229
41 25 29 158 216 229
41 25 30 158 216 229
41 25 31 158 216 229
41 25 32 158 216 229
41 26 26 158 216 229
41 26 27 158 216 229
41 26 28 158 216 229
41 26 29 158 216 229
41 26 30 158 216 229
41 26 31 158 216 229
41 26 32 158 216 229
41 27 26 158 216 229
41 27 27 158 216 229
41 27 29 158 216 229
41 27 30 158 216 229
41 27 31 158 216 229
41 28 30 158 216 229
41 28 31 158 216 229
41 28 32 158 216 229
41 29 30 158 216 229
41 29 31 158 216 229
41 30 30 158 216 229
41 30 31 158 216 229
41 33 32 158 216 229
42 0 41 43 160 4
42 0 42 43 160 4
42 0 43 43 160 4
42 0 44 43 160 4
42 0 45 43 160 4
42 0 46 43 160 4
42 0 47 43 160 4
42 0 48 43 160 4
42 0 49 43 160 4
42 0 50 43 160 4
42 0 51 43 160 4
42 0 52 43 160 4
42 0 53 43 160 4
42 0 54 43 160 4
42 0 55 43 160 4
42 0 56 43 160 4
42 0 57 43 160 4
42 0 58 43 160 4
42 0 59 43 160 4
42 4 30 158 216 229
42 5 28 158 216 229
42 5 29 158 216 229
42 6 24 158 216 229
42 7 22 158 216 229
42 8 22 158 216 229
42 8 31 158 216 229
42 11 21 158 216 229
42 12 21 158 216 229
42 13 21 158 216 229
42 14 21 158 216 229
42 17 20 158 216 229
42 18 20 158 216 229
42 19 20 158 216 229
42 19 22 158 216 229
42 20 20 114 158 206
42 20 21 158 216 229
42 20 26 158 216 229
42 20 27 158 216 229
42 20 28 158 216 229
42 21 25 158 216 229
42 21 26 158 216 229
42 21 27 158 216 229
42 21 30 158 216 229
42 22 24 158 216 229
42 22 25 158 216 229
42 22 26 158 216 229
42 22 27 158 216 229
42 22 28 158 216 229
42 22 29 158 216 229
42 22 31 158 216 229
42 23 19 158 216 229
42 23 24 158 216 229
42 23 25 158 216 229
42 23 26 158 216 229
42 23 27 158 216 229
42 23 29 158 216 229
42 23 30 158 216 229
42 23 31 158 216 229
42 24 19 158 216 229
42 24 22 158 216 229
42 24 23 158 216 229
42 24 24 158 216 229
42 24 25 158 216 229
42 24 26 158 216 229
42 24 27 158 216 229
42 24 29 158 216 229
42 24 30 158 216 229
42 25 19 158 216 229
42 25 23 158 216 229
42 25 24 158 216 229
42 25 25 158 216 229
42 25 26 158 216 229
42 25 27 158 216 229
42 25 29 158 216 229
42 25 30 158 216 229
42 25 31 158 216 229
42 26 23 158 216 229
42 26 24 158 216 229
42 26 25 158 216 229
42 26 26 158 216 229
42 26 27 158 216 229
42 26 28 158 216 229
42 26 29 158 216 229
42 26 30 158 216 229
42 26 31 158 216 229
42 26 32 158 216 229
42 27 24 158 216 229
42 27 25 158 216 229
42 27 26 158 216 229
42 27 27 158 216 229
42 27 28 158 216 229
42 27 30 158 216 229
42 27 31 158 216 229
42 28 26 158 216 229
42 28 30 158 216 229
42 28 32 158 216 229
42 29 25 158 216 229
42 30 30 158 216 229
42 30 31 158 216 229
43 0 41 43 160 4
43 0 42 43 160 4
43 0 43 43 160 4
43 0 44 43 160 4
43 0 45 43 160 4
43 0 46 43 160 4
43 0 47 43 160 4
43 0 48 43 160 4
43 0 49 43 160 4
43 0 50 43 160 4
43 0 51 43 160 4
43 0 52 43 160 4
43 0 53 43 160 4
43 0 54 43 160 4
43 0 55 43 160 4
43 0 56 43 160 4
43 0 57 43 160 4
43 0 58 43 160 4
43 0 59 43 160 4
43 18 22 114 158 206
43 21 21 114 158 206
43 22 21 158 216 229
43 23 21 158 216 229
43 24 21 158 216 229
43 24 22 158 216 229
43 24 24 158 216 229
43 24 30 158 216 229
43 25 21 158 216 229
43 25 30 158 216 229
43 26 30 158 216 229
44 0 41 43 160 4
44 0 42 43 160 4
44 0 43 43 160 4
44 0 44 43 160 4
44 0 45 43 160 4
44 0 46 43 160 4
44 0 47 43 160 4
44 0 48 43 160 4
44 0 49 43 160 4
44 0 50 43 160 4
44 0 51 43 160 4
44 0 52 43 160 4
44 0 53 43 160 4
44 0 54 43 160 4
44 0 55 43 160 4
44 0 56 43 160 4
44 0 57 43 160 4
44 0 58 43 160 4
44 0 59 43 160 4
44 14 24 158 216 229
44 20 23 114 158 206
45 0 41 43 160 4
45 0 42 43 160 4
45 0 43 43 160 4
45 0 44 43 160 4
45 0 45 43 160 4
45 0 46 43 160 4
45 0 47 43 160 4
45 0 48 43 160 4
45 0 49 43 160 4
45 0 50 43 160 4
45 0 51 43 160 4
45 0 52 43 160 4
45 0 53 43 160 4
45 0 54 43 160 4
45 0 55 43 160 4
45 0 56 43 160 4
45 0 57 43 160 4
45 0 58 43 160 4
45 0 59 43 160 4
46 0 41 43 160 4
46 0 42 43 160 4
46 0 43 43 160 4
46 0 44 43 160 4
46 0 45 43 160 4
46 0 46 43 160 4
46 0 47 43 160 4
46 0 48 43 160 4
46 0 49 43 160 4
46 0 50 43 160 4
46 0 51 43 160 4
46 0 52 43 160 4
46 0 53 43 160 4
46 0 54 43 160 4
46 0 55 43 160 4
46 0 56 43 160 4
46 0 57 43 160 4
46 0 58 43 160 4
46 0 59 43 160 4
47 0 41 43 160 4
47 0 42 43 160 4
47 0 43 43 160 4
47 0 44 43 160 4
47 0 45 43 160 4
47 0 46 43 160 4
47 0 47 43 160 4
47 0 48 43 160 4
47 0 49 43 160 4
47 0 50 43 160 4
47 0 51 43 160 4
47 0 52 43 160 4
47 0 53 43 160 4
47 0 54 43 160 4
47 0 55 43 160 4
47 0 56 43 160 4
47 0 57 43 160 4
47 0 58 43 160 4
47 0 59 43 160 4
47 3 32 158 216 229
47 6 31 158 216 229
48 0 40 43 160 4
48 0 41 43 160 4
48 0 42 43 160 4
48 0 43 43 160 4
48 0 44 43 160 4
48 0 45 43 160 4
48 0 46 43 160 4
48 0 47 43 160 4
48 0 48 43 160 4
48 0 49 43 160 4
48 0 50 43 160 4
48 0 51 43 160 4
48 0 52 43 160 4
48 0 53 43 160 4
48 0 54 43 160 4
48 0 55 43 160 4
48 0 56 43 160 4
48 0 57 43 160 4
48 0 58 43 160 4
48 0 59 43 160 4
48 6 32 158 216 229
49 0 40 43 160 4
49 0 41 43 160 4
49 0 42 43 160 4
49 0 43 43 160 4
49 0 44 43 160 4
49 0 45 43 160 4
49 0 46 43 160 4
49 0 47 43 160 4
49 0 48 43 160 4
49 0 49 43 160 4
49 0 50 43 160 4
49 0 51 43 160 4
49 0 52 43 160 4
49 0 53 43 160 4
49 0 54 43 160 4
49 0 55 43 160 4
49 0 56 43 160 4
49 0 57 43 160 4
49 0 58 43 160 4
49 0 59 43 160 4
49 22 31 158 216 229
50 0 40 43 160 4
50 0 41 43 160 4
50 0 42 43 160 4
50 0 43 43 160 4
50 0 44 43 160 4
50 0 45 43 160 4
50 0 46 43 160 4
50 0 47 43 160 4
50 0 48 43 160 4
50 0 49 43 160 4
50 0 50 43 160 4
50 0 51 43 160 4
50 0 52 43 160 4
50 0 53 43 160 4
50 0 54 43 160 4
50 0 55 43 160 4
50 0 56 43 160 4
50 0 57 43 160 4
50 0 58 43 160 4
50 0 59 43 160 4
51 0 40 43 160 4
51 0 41 43 160 4
51 0 42 43 160 4
51 0 43 43 160 4
51 0 44 43 160 4
51 0 45 43 160 4
51 0 46 43 160 4
51 0 47 43 160 4
51 0 48 43 160 4
51 0 49 43 160 4
51 0 50 43 160 4
51 0 51 43 160 4
51 0 52 43 160 4
51 0 53 43 160 4
51 0 54 43 160 4
51 0 55 43 160 4
51 0 56 43 160 4
51 0 57 43 160 4
51 0 58 43 160 4
51 0 59 43 160 4
52 0 40 43 160 4
52 0 41 43 160 4
52 0 42 43 160 4
52 0 43 43 160 4
52 0 44 43 160 4
52 0 45 43 160 4
52 0 46 43 160 4
52 0 47 43 160 4
52 0 48 43 160 4
52 0 49 43 160 4
52 0 50 43 160 4
52 0 51 43 160 4
52 0 52 43 160 4
52 0 53 43 160 4
52 0 54 43 160 4
52 0 55 43 160 4
52 0 56 43 160 4
52 0 57 43 160 4
52 0 58 43 160 4
52 0 59 43 160 4
53 0 42 43 160 4
53 0 43 43 160 4
53 0 44 43 160 4
53 0 45 43 160 4
53 0 46 43 160 4
53 0 47 43 160 4
53 0 48 43 160 4
53 0 49 43 160 4
53 0 50 43 160 4
53 0 51 43 160 4
53 0 52 43 160 4
53 0 53 43 160 4
53 0 54 43 160 4
53 0 55 43 160 4
53 0 56 43 160 4
53 0 57 43 160 4
53 0 58 43 160 4
53 0 59 43 160 4
54 0 44 43 160 4
54 0 45 43 160 4
54 0 46 43 160 4
54 0 47 43 160 4
54 0 48 43 160 4
54 0 49 43 160 4
54 0 50 43 160 4
54 0 51 43 160 4
54 0 52 43 160 4
54 0 53 43 160 4
54 0 54 43 160 4
54 0 55 43 160 4
54 0 56 43 160 4
54 0 57 43 160 4
54 0 58 43 160 4
54 0 59 43 160 4
55 0 45 43 160 4
55 0 46 43 160 4
55 0 47 43 160 4
55 0 48 43 160 4
55 0 49 43 160 4
55 0 50 43 160 4
55 0 51 43 160 4
55 0 52 43 160 4
55 0 53 43 160 4
55 0 54 43 160 4
55 0 55 43 160 4
55 0 56 43 160 4
55 0 57 43 160 4
55 0 58 43 160 4
55 0 59 43 160 4
56 0 47 43 160 4
56 0 48 43 160 4
56 0 49 43 160 4
56 0 50 43 160 4
56 0 51 43 160 4
56 0 52 43 160 4
56 0 53 43 160 4
56 0 54 43 160 4
56 0 55 43 160 4
56 0 56 43 160 4
56 0 57 43 160 4
56 0 58 43 160 4
56 0 59 43 160 4
57 0 49 43 160 4
57 0 50 43 160 4
57 0 51 43 160 4
57 0 52 43 160 4
57 0 53 43 160 4
57 0 54 43 160 4
57 0 55 43 160 4
57 0 56 43 160 4
57 0 57 43 160 4
57 0 58 43 160 4
57 0 59 43 160 4
58 0 50 43 160 4
58 0 51 43 160 4
58 0 52 43 160 4
58 0 53 43 160 4
58 0 54 43 160 4
58 0 55 43 160 4
58 0 56 43 160 4
58 0 57 43 160 4
58 0 58 43 160 4
58 0 59 43 160 4
59 0 52 43 160 4
59 0 53 43 160 4
59 0 54 43 160 4
59 0 55 43 160 4
59 0 56 43 160 4
59 0 57 43 160 4
59 0 58 43 160 4
59 0 59 43 160 4
