ply
format ascii 1.0
element vertex 1771
property float x
property float y
property float z
property uchar red
property uchar green
property uchar blue
end_header
9 15 30 158 216 229
10 15 30 158 216 229
10 16 30 158 216 229
10 17 30 158 216 229
10 18 30 158 216 229
10 19 30 158 216 229
10 20 30 158 216 229
10 21 30 158 216 229
10 22 30 158 216 229
10 23 30 158 216 229
10 24 30 158 216 229
10 25 30 158 216 229
10 26 30 158 216 229
10 27 30 158 216 229
10 28 30 158 216 229
11 15 30 158 216 229
11 16 30 158 216 229
11 17 30 158 216 229
11 18 30 158 216 229
11 19 30 158 216 229
11 20 30 158 216 229
11 21 30 158 216 229
11 22 30 158 216 229
11 23 30 158 216 229
11 24 30 158 216 229
11 25 30 158 216 229
11 26 30 158 216 229
11 27 29 196 175 214
11 27 30 158 216 229
11 28 29 196 175 214
11 28 30 158 216 229
11 29 29 196 175 214
11 29 30 158 216 229
11 30 29 196 175 214
11 30 30 158 216 229
11 31 29 196 175 214
11 31 30 158 216 229
11 32 29 214 38 40
11 32 30 158 216 229
12 14 30 158 216 229
12 15 30 158 216 229
12 16 30 158 216 229
12 17 30 158 216 229
12 18 30 158 216 229
12 19 30 158 216 229
12 20 30 158 216 229
12 21 30 158 216 229
12 22 30 158 216 229
12 23 30 158 216 229
12 24 30 158 216 229
12 25 30 158 216 229
12 26 30 158 216 229
12 27 27 196 175 214
12 27 28 196 175 214
12 27 29 196 175 214
12 27 30 158 216 229
12 28 27 196 175 214
12 28 28 196 175 214
12 28 29 196 175 214
12 28 30 158 216 229
12 29 28 196 175 214
12 29 29 196 175 214
12 29 30 158 216 229
12 30 28 196 175 214
12 30 29 196 175 214
12 30 30 158 216 229
12 31 28 196 175 214
12 31 29 196 175 214
12 31 30 158 216 229
12 32 28 214 38 40
12 32 29 214 38 40
12 32 30 158 216 229
13 14 30 158 216 229
13 15 30 158 216 229
13 16 30 158 216 229
13 17 30 158 216 229
13 18 30 158 216 229
13 19 30 158 216 229
13 20 30 158 216 229
13 21 30 158 216 229
13 22 30 158 216 229
13 23 30 158 216 229
13 24 30 158 216 229
13 25 30 158 216 229
13 26 30 158 216 229
13 27 27 196 175 214
13 27 28 196 175 214
13 27 29 196 175 214
13 27 30 158 216 229
13 28 27 196 175 214
13 28 28 196 175 214
13 28 29 196 175 214
13 28 30 158 216 229
13 29 27 196 175 214
13 29 28 196 175 214
13 29 29 196 175 214
13 29 30 158 216 229
13 30 27 196 175 214
13 30 28 196 175 214
13 30 29 196 175 214
13 30 30 158 216 229
13 31 27 196 175 214
13 31 28 196 175 214
13 31 29 196 175 214
13 31 30 158 216 229
13 32 26 214 38 40
13 32 27 214 38 40
13 32 28 214 38 40
13 32 29 214 38 40
13 32 30 158 216 229
14 14 30 158 216 229
14 15 30 158 216 229
14 16 30 158 216 229
14 17 30 158 216 229
14 18 30 158 216 229
14 19 30 158 216 229
14 20 30 158 216 229
14 21 30 158 216 229
14 22 30 158 216 229
14 23 30 158 216 229
14 24 30 158 216 229
14 25 30 158 216 229
14 26 30 158 216 229
14 27 27 196 175 214
14 27 28 196 175 214
14 27 29 196 175 214
14 27 30 158 216 229
14 28 27 196 175 214
14 28 28 196 175 214
14 28 29 196 175 214
14 28 30 158 216 229
14 29 27 196 175 214
14 29 28 196 175 214
14 29 29 196 175 214
14 29 30 158 216 229
14 30 27 196 175 214
14 30 28 196 175 214
14 30 29 196 175 214
14 30 30 158 216 229
14 31 27 196 175 214
14 31 28 196 175 214
14 31 29 196 175 214
14 31 30 158 216 229
14 32 25 214 38 40
14 32 26 214 38 40
14 32 27 214 38 40
14 32 28 214 38 40
14 32 29 214 38 40
14 32 30 158 216 229
15 14 30 158 216 229
15 15 30 158 216 229
15 16 30 158 216 229
15 17 30 158 216 229
15 18 30 158 216 229
15 19 30 158 216 229
15 20 30 158 216 229
15 21 30 158 216 229
15 22 30 158 216 229
15 23 30 158 216 229
15 24 30 158 216 229
15 25 30 158 216 229
15 26 30 158 216 229
15 27 27 196 175 214
15 27 28 196 175 214
15 27 29 196 175 214
15 27 30 158 216 229
15 28 27 196 175 214
15 28 28 196 175 214
15 28 29 196 175 214
15 28 30 158 216 229
15 29 27 196 175 214
15 29 28 196 175 214
15 29 29 196 175 214
15 29 30 158 216 229
15 30 27 196 175 214
15 30 28 196 175 214
15 30 29 196 175 214
15 30 30 158 216 229
15 31 27 196 175 214
15 31 28 196 175 214
15 31 29 196 175 214
15 31 30 158 216 229
15 32 23 214 38 40
15 32 24 214 38 40
15 32 25 214 38 40
15 32 26 214 38 40
15 32 27 214 38 40
15 32 28 214 38 40
15 32 29 214 38 40
15 32 30 158 216 229
16 14 30 158 216 229
16 15 30 158 216 229
16 16 30 158 216 229
16 17 30 158 216 229
16 18 30 158 216 229
16 19 30 158 216 229
16 20 30 158 216 229
16 21 30 158 216 229
16 22 30 158 216 229
16 23 30 158 216 229
16 24 30 158 216 229
16 25 30 158 216 229
16 26 30 158 216 229
16 27 27 196 175 214
16 27 28 196 175 214
16 27 29 196 175 214
16 27 30 158 216 229
16 28 27 196 175 214
16 28 28 196 175 214
16 28 29 196 175 214
16 28 30 158 216 229
16 29 27 196 175 214
16 29 28 196 175 214
16 29 29 196 175 214
16 29 30 158 216 229
16 30 27 196 175 214
16 30 28 196 175 214
16 30 29 196 175 214
16 30 30 158 216 229
16 31 27 196 175 214
16 31 28 196 175 214
16 31 29 196 175 214
16 31 30 158 216 229
16 32 22 214 38 40
16 32 23 214 38 40
16 32 24 214 38 40
16 32 25 214 38 40
16 32 26 214 38 40
16 32 27 214 38 40
16 32 28 214 38 40
16 32 29 214 38 40
16 32 30 158 216 229
17 13 30 158 216 229
17 14 29 158 216 229
17 14 30 158 216 229
17 15 29 158 216 229
17 15 30 158 216 229
17 16 29 158 216 229
17 16 30 158 216 229
17 17 29 158 216 229
17 17 30 158 216 229
17 18 29 158 216 229
17 18 30 158 216 229
17 19 29 158 216 229
17 19 30 158 216 229
17 20 29 158 216 229
17 20 30 158 216 229
17 21 29 158 216 229
17 21 30 158 216 229
17 22 29 158 216 229
17 22 30 158 216 229
17 23 29 158 216 229
17 23 30 158 216 229
17 24 29 158 216 229
17 24 30 158 216 229
17 25 29 158 216 229
17 25 30 158 216 229
17 26 29 158 216 229
17 26 30 158 216 229
17 27 27 196 175 214
17 27 28 196 175 214
17 27 29 196 175 214
17 27 30 158 216 229
17 28 27 196 175 214
17 28 28 196 175 214
17 28 29 196 175 214
17 28 30 158 216 229
17 29 27 196 175 214
17 29 28 196 175 214
17 29 29 196 175 214
17 29 30 158 216 229
17 30 27 196 175 214
17 30 28 196 175 214
17 30 29 196 175 214
17 30 30 158 216 229
17 31 27 196 175 214
17 31 28 196 175 214
17 31 29 158 216 229
17 31 30 158 216 229
17 32 20 214 38 40
17 32 21 214 38 40
17 32 22 214 38 40
17 32 23 214 38 40
17 32 24 214 38 40
17 32 25 214 38 40
17 32 26 214 38 40
17 32 27 214 38 40
17 32 28 214 38 40
17 32 29 214 38 40
17 32 30 158 216 229
18 13 30 158 216 229
18 14 29 158 216 229
18 14 30 158 216 229
18 15 29 158 216 229
18 15 30 158 216 229
18 16 29 158 216 229
18 16 30 158 216 229
18 17 29 158 216 229
18 17 30 158 216 229
18 18 29 158 216 229
18 18 30 158 216 229
18 19 29 158 216 229
18 19 30 158 216 229
18 20 29 158 216 229
18 20 30 158 216 229
18 21 29 158 216 229
18 21 30 158 216 229
18 22 29 158 216 229
18 22 30 158 216 229
18 23 29 158 216 229
18 23 30 158 216 229
18 24 29 158 216 229
18 24 30 158 216 229
18 25 29 158 216 229
18 25 30 158 216 229
18 26 29 158 216 229
18 26 30 158 216 229
18 27 27 196 175 214
18 27 28 196 175 214
18 27 29 158 216 229
18 27 30 158 216 229
18 28 27 196 175 214
18 28 28 196 175 214
18 28 29 196 175 214
18 28 30 158 216 229
18 29 27 196 175 214
18 29 28 196 175 214
18 29 29 196 175 214
18 29 30 158 216 229
18 30 27 196 175 214
18 30 28 196 175 214
18 30 29 196 175 214
18 30 30 158 216 229
18 31 27 196 175 214
18 31 28 196 175 214
18 31 29 158 216 229
18 31 30 158 216 229
18 32 19 214 38 40
18 32 20 214 38 40
18 32 21 214 38 40
18 32 22 214 38 40
18 32 23 214 38 40
18 32 24 214 38 40
18 32 25 214 38 40
18 32 26 214 38 40
18 32 27 214 38 40
18 32 28 214 38 40
18 32 29 214 38 40
18 32 30 158 216 229
19 13 29 255 186 119
19 13 30 158 216 229
19 14 29 158 216 229
19 14 30 158 216 229
19 15 29 158 216 229
19 15 30 158 216 229
19 16 29 158 216 229
19 16 30 158 216 229
19 17 29 158 216 229
19 17 30 158 216 229
19 18 29 158 216 229
19 18 30 158 216 229
19 19 29 158 216 229
19 19 30 158 216 229
19 20 29 158 216 229
19 20 30 158 216 229
19 21 29 158 216 229
19 21 30 158 216 229
19 22 29 158 216 229
19 22 30 158 216 229
19 23 29 158 216 229
19 23 30 158 216 229
19 24 29 158 216 229
19 24 30 158 216 229
19 25 29 158 216 229
19 25 30 158 216 229
19 26 29 158 216 229
19 26 30 158 216 229
19 27 27 196 175 214
19 27 28 196 175 214
19 27 29 158 216 229
19 27 30 158 216 229
19 28 27 196 175 214
19 28 28 196 175 214
19 28 29 196 175 214
19 28 30 158 216 229
19 29 27 196 175 214
19 29 28 196 175 214
19 29 29 196 175 214
19 29 30 158 216 229
19 30 27 196 175 214
19 30 28 196 175 214
19 30 29 196 175 214
19 30 30 158 216 229
19 31 27 196 175 214
19 31 28 196 175 214
19 31 29 158 216 229
19 31 30 158 216 229
19 32 17 214 38 40
19 32 18 214 38 40
19 32 19 214 38 40
19 32 20 214 38 40
19 32 21 214 38 40
19 32 22 214 38 40
19 32 23 214 38 40
19 32 24 214 38 40
19 32 25 214 38 40
19 32 26 214 38 40
19 32 27 214 38 40
19 32 28 214 38 40
19 32 29 214 38 40
19 32 30 158 216 229
20 13 28 255 186 119
20 13 29 255 186 119
20 13 30 158 216 229
20 14 29 158 216 229
20 14 30 158 216 229
20 15 29 158 216 229
20 15 30 158 216 229
20 16 29 158 216 229
20 16 30 158 216 229
20 17 29 158 216 229
20 17 30 158 216 229
20 18 29 158 216 229
20 18 30 158 216 229
20 19 29 158 216 229
20 19 30 158 216 229
20 20 29 158 216 229
20 20 30 158 216 229
20 21 29 158 216 229
20 21 30 158 216 229
20 22 29 158 216 229
20 22 30 158 216 229
20 23 29 158 216 229
20 23 30 158 216 229
20 24 29 158 216 229
20 24 30 158 216 229
20 25 29 158 216 229
20 25 30 158 216 229
20 26 29 158 216 229
20 26 30 158 216 229
20 27 27 196 175 214
20 27 28 196 175 214
20 27 29 158 216 229
20 27 30 158 216 229
20 28 27 196 175 214
20 28 28 196 175 214
20 28 29 196 175 214
20 28 30 158 216 229
20 29 27 196 175 214
20 29 28 196 175 214
20 29 29 196 175 214
20 29 30 158 216 229
20 30 27 196 175 214
20 30 28 196 175 214
20 30 29 196 175 214
20 30 30 158 216 229
20 31 27 196 175 214
20 31 28 196 175 214
20 31 29 158 216 229
20 31 30 158 216 229
20 32 16 214 38 40
20 32 17 214 38 40
20 32 18 214 38 40
20 32 19 214 38 40
20 32 20 214 38 40
20 32 21 214 38 40
20 32 22 214 38 40
20 32 23 214 38 40
20 32 24 214 38 40
20 32 25 214 38 40
20 32 26 214 38 40
20 32 27 214 38 40
20 32 28 214 38 40
20 32 29 214 38 40
20 32 30 158 216 229
21 13 28 255 186 119
21 13 29 255 186 119
21 13 30 158 216 229
21 14 29 158 216 229
21 14 30 158 216 229
21 15 29 158 216 229
21 15 30 158 216 229
21 16 29 158 216 229
21 16 30 158 216 229
21 17 29 158 216 229
21 17 30 158 216 229
21 18 29 158 216 229
21 18 30 158 216 229
21 19 29 158 216 229
21 19 30 158 216 229
21 20 29 158 216 229
21 20 30 158 216 229
21 21 29 158 216 229
21 21 30 158 216 229
21 22 29 158 216 229
21 22 30 158 216 229
21 23 29 158 216 229
21 23 30 158 216 229
21 24 29 158 216 229
21 24 30 158 216 229
21 25 29 158 216 229
21 25 30 158 216 229
21 26 29 158 216 229
21 26 30 158 216 229
21 27 27 196 175 214
21 27 28 196 175 214
21 27 29 158 216 229
21 27 30 158 216 229
21 28 27 196 175 214
21 28 28 196 175 214
21 28 29 158 216 229
21 28 30 158 216 229
21 29 27 196 175 214
21 29 28 196 175 214
21 29 29 158 216 229
21 29 30 158 216 229
21 30 27 196 175 214
21 30 28 196 175 214
21 30 29 158 216 229
21 30 30 158 216 229
21 31 28 196 175 214
21 31 29 158 216 229
21 31 30 158 216 229
21 32 16 214 38 40
21 32 17 214 38 40
21 32 18 214 38 40
21 32 19 214 38 40
21 32 20 214 38 40
21 32 21 214 38 40
21 32 22 214 38 40
21 32 23 214 38 40
21 32 24 214 38 40
21 32 25 214 38 40
21 32 26 214 38 40
21 32 27 214 38 40
21 32 28 214 38 40
21 32 29 214 38 40
21 32 30 158 216 229
22 13 28 255 186 119
22 13 29 255 186 119
22 13 30 158 216 229
22 14 29 158 216 229
22 14 30 158 216 229
22 15 29 158 216 229
22 15 30 158 216 229
22 16 29 158 216 229
22 16 30 158 216 229
22 17 29 158 216 229
22 17 30 158 216 229
22 18 29 158 216 229
22 18 30 158 216 229
22 19 29 158 216 229
22 19 30 158 216 229
22 20 29 158 216 229
22 20 30 158 216 229
22 21 29 158 216 229
22 21 30 158 216 229
22 22 29 158 216 229
22 22 30 158 216 229
22 23 29 158 216 229
22 23 30 158 216 229
22 24 29 158 216 229
22 24 30 158 216 229
22 25 29 158 216 229
22 25 30 158 216 229
22 26 29 158 216 229
22 26 30 158 216 229
22 27 29 158 216 229
22 27 30 158 216 229
22 28 29 158 216 229
22 28 30 158 216 229
22 29 29 158 216 229
22 29 30 158 216 229
22 30 29 158 216 229
22 30 30 158 216 229
22 31 29 158 216 229
22 31 30 158 216 229
22 32 16 214 38 40
22 32 17 214 38 40
22 32 18 214 38 40
22 32 19 214 38 40
22 32 20 214 38 40
22 32 21 214 38 40
22 32 22 214 38 40
22 32 23 214 38 40
22 32 24 214 38 40
22 32 25 214 38 40
22 32 26 214 38 40
22 32 27 214 38 40
22 32 28 214 38 40
22 32 29 214 38 40
22 32 30 158 216 229
23 12 30 255 186 119
23 13 28 255 186 119
23 13 29 255 186 119
23 13 30 158 216 229
23 14 29 158 216 229
23 14 30 158 216 229
23 15 29 158 216 229
23 15 30 158 216 229
23 16 29 158 216 229
23 16 30 158 216 229
23 17 29 158 216 229
23 17 30 158 216 229
23 18 29 158 216 229
23 18 30 158 216 229
23 19 29 158 216 229
23 19 30 158 216 229
23 20 29 158 216 229
23 20 30 158 216 229
23 21 29 158 216 229
23 21 30 158 216 229
23 22 29 158 216 229
23 22 30 158 216 229
23 23 29 158 216 229
23 23 30 158 216 229
23 24 29 158 216 229
23 24 30 158 216 229
23 25 29 158 216 229
23 25 30 158 216 229
23 26 29 158 216 229
23 26 30 158 216 229
23 27 29 158 216 229
23 27 30 158 216 229
23 28 29 158 216 229
23 28 30 158 216 229
23 29 29 158 216 229
23 29 30 158 216 229
23 30 29 158 216 229
23 30 30 158 216 229
23 31 29 158 216 229
23 31 30 158 216 229
23 32 17 214 38 40
23 32 18 214 38 40
23 32 19 214 38 40
23 32 20 214 38 40
23 32 21 214 38 40
23 32 22 214 38 40
23 32 23 214 38 40
23 32 24 214 38 40
23 32 25 214 38 40
23 32 26 214 38 40
23 32 27 214 38 40
23 32 28 214 38 40
23 32 29 214 38 40
23 32 30 158 216 229
24 12 29 255 186 119
24 12 30 158 216 229
24 13 28 255 186 119
24 13 29 255 186 119
24 13 30 158 216 229
24 14 29 158 216 229
24 14 30 158 216 229
24 15 29 158 216 229
24 15 30 158 216 229
24 16 29 158 216 229
24 16 30 158 216 229
24 17 29 158 216 229
24 17 30 158 216 229
24 18 29 158 216 229
24 18 30 158 216 229
24 19 29 158 216 229
24 19 30 158 216 229
24 20 29 158 216 229
24 20 30 158 216 229
24 21 29 158 216 229
24 21 30 158 216 229
24 22 29 158 216 229
24 22 30 158 216 229
24 23 29 158 216 229
24 23 30 158 216 229
24 24 29 158 216 229
24 24 30 158 216 229
24 25 29 158 216 229
24 25 30 158 216 229
24 26 29 158 216 229
24 26 30 158 216 229
24 27 29 158 216 229
24 27 30 158 216 229
24 28 29 158 216 229
24 28 30 158 216 229
24 29 29 158 216 229
24 29 30 158 216 229
24 30 29 158 216 229
24 30 30 158 216 229
24 31 29 158 216 229
24 31 30 158 216 229
24 32 17 214 38 40
24 32 18 214 38 40
24 32 19 214 38 40
24 32 20 214 38 40
24 32 21 214 38 40
24 32 22 214 38 40
24 32 23 214 38 40
24 32 24 214 38 40
24 32 25 214 38 40
24 32 26 214 38 40
24 32 27 214 38 40
24 32 28 214 38 40
24 32 29 214 38 40
24 32 30 158 216 229
25 12 28 255 186 119
25 12 29 255 186 119
25 12 30 158 216 229
25 13 28 255 186 119
25 13 29 255 186 119
25 13 30 158 216 229
25 14 29 158 216 229
25 14 30 158 216 229
25 15 29 158 216 229
25 15 30 158 216 229
25 16 29 158 216 229
25 16 30 158 216 229
25 17 29 158 216 229
25 17 30 158 216 229
25 18 29 158 216 229
25 18 30 158 216 229
25 19 29 158 216 229
25 19 30 158 216 229
25 20 29 158 216 229
25 20 30 158 216 229
25 21 29 158 216 229
25 21 30 158 216 229
25 22 29 158 216 229
25 22 30 158 216 229
25 23 29 158 216 229
25 23 30 158 216 229
25 24 29 158 216 229
25 24 30 158 216 229
25 25 29 158 216 229
25 25 30 158 216 229
25 26 29 158 216 229
25 26 30 158 216 229
25 27 29 158 216 229
25 27 30 158 216 229
25 28 29 158 216 229
25 28 30 158 216 229
25 29 29 158 216 229
25 29 30 158 216 229
25 30 29 158 216 229
25 30 30 158 216 229
25 31 29 158 216 229
25 31 30 158 216 229
25 32 17 214 38 40
25 32 18 214 38 40
25 32 19 214 38 40
25 32 20 214 38 40
25 32 21 214 38 40
25 32 22 214 38 40
25 32 23 214 38 40
25 32 24 214 38 40
25 32 25 214 38 40
25 32 26 214 38 40
25 32 27 214 38 40
25 32 28 214 38 40
25 32 29 214 38 40
25 32 30 158 216 229
26 12 28 255 186 119
26 12 29 255 186 119
26 12 30 158 216 229
26 13 28 255 186 119
26 13 29 255 186 119
26 13 30 158 216 229
26 14 29 158 216 229
26 14 30 158 216 229
26 15 29 158 216 229
26 15 30 158 216 229
26 16 29 158 216 229
26 16 30 158 216 229
26 17 29 158 216 229
26 17 30 158 216 229
26 18 29 158 216 229
26 18 30 158 216 229
26 19 29 158 216 229
26 19 30 158 216 229
26 20 29 158 216 229
26 20 30 158 216 229
26 21 29 158 216 229
26 21 30 158 216 229
26 22 29 158 216 229
26 22 30 158 216 229
26 23 29 158 216 229
26 23 30 158 216 229
26 24 29 158 216 229
26 24 30 158 216 229
26 25 29 158 216 229
26 25 30 158 216 229
26 26 29 158 216 229
26 26 30 158 216 229
26 27 29 158 216 229
26 27 30 158 216 229
26 28 29 158 216 229
26 28 30 158 216 229
26 29 29 158 216 229
26 29 30 158 216 229
26 30 29 158 216 229
26 30 30 158 216 229
26 31 29 158 216 229
26 31 30 158 216 229
26 32 18 214 38 40
26 32 19 214 38 40
26 32 20 214 38 40
26 32 21 214 38 40
26 32 22 214 38 40
26 32 23 214 38 40
26 32 24 214 38 40
26 32 25 214 38 40
26 32 26 214 38 40
26 32 27 214 38 40
26 32 28 214 38 40
26 32 29 214 38 40
26 32 30 158 216 229
27 12 28 255 186 119
27 12 29 255 186 119
27 12 30 158 216 229
27 13 28 255 186 119
27 13 29 255 186 119
27 13 30 158 216 229
27 14 29 158 216 229
27 14 30 158 216 229
27 15 29 158 216 229
27 15 30 158 216 229
27 16 29 158 216 229
27 16 30 158 216 229
27 17 29 158 216 229
27 17 30 158 216 229
27 18 29 158 216 229
27 18 30 158 216 229
27 19 29 158 216 229
27 19 30 158 216 229
27 20 29 158 216 229
27 20 30 158 216 229
27 21 29 158 216 229
27 21 30 158 216 229
27 22 29 158 216 229
27 22 30 158 216 229
27 23 29 158 216 229
27 23 30 158 216 229
27 24 29 158 216 229
27 24 30 158 216 229
27 25 29 158 216 229
27 25 30 158 216 229
27 26 29 158 216 229
27 26 30 158 216 229
27 27 29 158 216 229
27 27 30 158 216 229
27 28 29 158 216 229
27 28 30 158 216 229
27 29 29 158 216 229
27 29 30 158 216 229
27 30 29 158 216 229
27 30 30 158 216 229
27 31 29 158 216 229
27 31 30 158 216 229
27 32 18 214 38 40
27 32 19 214 38 40
27 32 20 214 38 40
27 32 21 214 38 40
27 32 22 214 38 40
27 32 23 214 38 40
27 32 24 214 38 40
27 32 25 214 38 40
27 32 26 214 38 40
27 32 27 214 38 40
27 32 28 214 38 40
27 32 29 214 38 40
27 32 30 158 216 229
28 11 30 158 216 229
28 12 28 255 186 119
28 12 29 255 186 119
28 12 30 158 216 229
28 13 28 255 186 119
28 13 29 255 186 119
28 13 30 158 216 229
28 14 29 158 216 229
28 14 30 158 216 229
28 15 29 158 216 229
28 15 30 158 216 229
28 16 29 158 216 229
28 16 30 158 216 229
28 17 29 158 216 229
28 17 30 158 216 229
28 18 29 158 216 229
28 18 30 158 216 229
28 19 29 158 216 229
28 19 30 158 216 229
28 20 29 158 216 229
28 20 30 158 216 229
28 21 29 158 216 229
28 21 30 158 216 229
28 22 29 158 216 229
28 22 30 158 216 229
28 23 29 158 216 229
28 23 30 158 216 229
28 24 29 158 216 229
28 24 30 158 216 229
28 25 29 158 216 229
28 25 30 158 216 229
28 26 29 158 216 229
28 26 30 158 216 229
28 27 29 158 216 229
28 27 30 158 216 229
28 28 29 158 216 229
28 28 30 158 216 229
28 29 29 158 216 229
28 29 30 158 216 229
28 30 29 158 216 229
28 30 30 158 216 229
28 31 29 158 216 229
28 31 30 158 216 229
28 32 18 214 38 40
28 32 19 214 38 40
28 32 20 214 38 40
28 32 21 214 38 40
28 32 22 214 38 40
28 32 23 214 38 40
28 32 24 214 38 40
28 32 25 214 38 40
28 32 26 214 38 40
28 32 27 214 38 40
28 32 28 214 38 40
28 32 29 214 38 40
28 32 30 158 216 229
29 11 29 255 186 119
29 11 30 158 216 229
29 12 28 255 186 119
29 12 29 255 186 119
29 12 30 158 216 229
29 13 28 255 186 119
29 13 29 255 186 119
29 13 30 158 216 229
29 14 29 158 216 229
29 14 30 158 216 229
29 15 29 158 216 229
29 15 30 158 216 229
29 16 29 158 216 229
29 16 30 158 216 229
29 17 29 158 216 229
29 17 30 158 216 229
29 18 29 158 216 229
29 18 30 158 216 229
29 19 29 158 216 229
29 19 30 158 216 229
29 20 29 158 216 229
29 20 30 158 216 229
29 21 29 158 216 229
29 21 30 158 216 229
29 22 29 158 216 229
29 22 30 158 216 229
29 23 29 158 216 229
29 23 30 158 216 229
29 24 29 158 216 229
29 24 30 158 216 229
29 25 29 158 216 229
29 25 30 158 216 229
29 26 29 158 216 229
29 26 30 158 216 229
29 27 29 158 216 229
29 27 30 158 216 229
29 28 29 158 216 229
29 28 30 158 216 229
29 29 29 158 216 229
29 29 30 158 216 229
29 30 29 158 216 229
29 30 30 158 216 229
29 31 29 158 216 229
29 31 30 158 216 229
29 32 19 214 38 40
29 32 20 214 38 40
29 32 21 214 38 40
29 32 22 214 38 40
29 32 23 214 38 40
29 32 24 214 38 40
29 32 25 214 38 40
29 32 26 214 38 40
29 32 27 214 38 40
29 32 28 214 38 40
29 32 29 214 38 40
29 32 30 158 216 229
30 11 28 255 186 119
30 11 29 255 186 119
30 11 30 158 216 229
30 12 28 255 186 119
30 12 29 255 186 119
30 12 30 158 216 229
30 13 28 255 186 119
30 13 29 255 186 119
30 13 30 158 216 229
30 14 29 158 216 229
30 14 30 158 216 229
30 15 29 158 216 229
30 15 30 158 216 229
30 16 29 158 216 229
30 16 30 158 216 229
30 17 29 158 216 229
30 17 30 158 216 229
30 18 29 158 216 229
30 18 30 158 216 229
30 19 29 158 216 229
30 19 30 158 216 229
30 20 29 158 216 229
30 20 30 158 216 229
30 21 29 158 216 229
30 21 30 158 216 229
30 22 29 158 216 229
30 22 30 158 216 229
30 23 29 158 216 229
30 23 30 158 216 229
30 24 29 158 216 229
30 24 30 158 216 229
30 25 29 158 216 229
30 25 30 158 216 229
30 26 29 158 216 229
30 26 30 158 216 229
30 27 29 158 216 229
30 27 30 158 216 229
30 28 29 158 216 229
30 28 30 158 216 229
30 29 29 158 216 229
30 29 30 158 216 229
30 30 29 158 216 229
30 30 30 158 216 229
30 31 29 158 216 229
30 31 30 158 216 229
30 32 19 214 38 40
30 32 20 214 38 40
30 32 21 214 38 40
30 32 22 214 38 40
30 32 23 214 38 40
30 32 24 214 38 40
30 32 25 214 38 40
30 32 26 214 38 40
30 32 27 214 38 40
30 32 28 214 38 40
30 32 29 214 38 40
30 32 30 158 216 229
31 11 28 255 186 119
31 11 29 255 186 119
31 11 30 158 216 229
31 12 28 255 186 119
31 12 29 255 186 119
31 12 30 158 216 229
31 13 28 255 186 119
31 13 29 158 216 229
31 13 30 158 216 229
31 14 29 158 216 229
31 14 30 158 216 229
31 15 29 158 216 229
31 15 30 158 216 229
31 16 29 158 216 229
31 16 30 158 216 229
31 17 8 188 188 33
31 17 9 188 188 33
31 17 10 188 188 33
31 17 29 158 216 229
31 17 30 158 216 229
31 18 8 188 188 33
31 18 9 188 188 33
31 18 10 188 188 33
31 18 29 158 216 229
31 18 30 158 216 229
31 19 8 188 188 33
31 19 9 188 188 33
31 19 10 188 188 33
31 19 29 158 216 229
31 19 30 158 216 229
31 20 8 188 188 33
31 20 9 188 188 33
31 20 10 188 188 33
31 20 29 158 216 229
31 20 30 158 216 229
31 21 8 188 188 33
31 21 9 188 188 33
31 21 10 188 188 33
31 21 29 158 216 229
31 21 30 158 216 229
31 22 8 188 188 33
31 22 9 188 188 33
31 22 10 188 188 33
31 22 29 158 216 229
31 22 30 158 216 229
31 23 8 188 188 33
31 23 9 188 188 33
31 23 10 188 188 33
31 23 29 158 216 229
31 23 30 158 216 229
31 24 9 188 188 33
31 24 10 188 188 33
31 24 29 158 216 229
31 24 30 158 216 229
31 25 29 158 216 229
31 25 30 158 216 229
31 26 29 158 216 229
31 26 30 158 216 229
31 27 29 158 216 229
31 27 30 158 216 229
31 28 29 158 216 229
31 28 30 158 216 229
31 29 29 158 216 229
31 29 30 158 216 229
31 30 29 158 216 229
31 30 30 158 216 229
31 31 29 158 216 229
31 31 30 158 216 229
31 32 19 214 38 40
31 32 20 214 38 40
31 32 21 214 38 40
31 32 22 214 38 40
31 32 23 214 38 40
31 32 24 214 38 40
31 32 25 214 38 40
31 32 26 214 38 40
31 32 27 214 38 40
31 32 28 214 38 40
31 32 29 214 38 40
31 32 30 158 216 229
32 11 28 255 186 119
32 11 29 255 186 119
32 12 28 255 186 119
32 12 29 255 186 119
32 13 28 255 186 119
32 13 29 158 216 229
32 14 29 158 216 229
32 15 29 158 216 229
32 16 29 158 216 229
32 17 8 188 188 33
32 17 9 188 188 33
32 17 10 188 188 33
32 17 29 158 216 229
32 18 8 188 188 33
32 18 9 188 188 33
32 18 10 188 188 33
32 18 29 158 216 229
32 19 8 188 188 33
32 19 9 188 188 33
32 19 10 188 188 33
32 19 29 158 216 229
32 20 8 188 188 33
32 20 9 188 188 33
32 20 10 188 188 33
32 20 29 158 216 229
32 21 8 188 188 33
32 21 9 188 188 33
32 21 10 188 188 33
32 21 29 158 216 229
32 22 8 188 188 33
32 22 9 188 188 33
32 22 10 188 188 33
32 22 29 158 216 229
32 23 8 188 188 33
32 23 9 188 188 33
32 23 10 188 188 33
32 23 29 158 216 229
32 24 9 188 188 33
32 24 10 188 188 33
32 24 29 158 216 229
32 25 29 158 216 229
32 26 29 158 216 229
32 27 29 158 216 229
32 28 29 158 216 229
32 29 29 158 216 229
32 30 29 158 216 229
32 31 29 158 216 229
32 32 19 214 38 40
32 32 20 214 38 40
32 32 21 214 38 40
32 32 22 214 38 40
32 32 23 214 38 40
32 32 24 214 38 40
32 32 25 214 38 40
32 32 26 214 38 40
32 32 27 214 38 40
32 32 28 214 38 40
32 32 29 214 38 40
33 11 28 255 186 119
33 11 29 255 186 119
33 12 28 255 186 119
33 12 29 255 186 119
33 13 28 255 186 119
33 13 29 158 216 229
33 14 29 158 216 229
33 15 29 158 216 229
33 16 29 158 216 229
33 17 9 188 188 33
33 17 10 188 188 33
33 17 29 158 216 229
33 18 8 188 188 33
33 18 9 188 188 33
33 18 10 188 188 33
33 18 29 158 216 229
33 19 8 188 188 33
33 19 9 188 188 33
33 19 10 188 188 33
33 19 29 158 216 229
33 20 8 188 188 33
33 20 9 188 188 33
33 20 10 188 188 33
33 20 29 158 216 229
33 21 8 188 188 33
33 21 9 188 188 33
33 21 10 188 188 33
33 21 29 158 216 229
33 22 8 188 188 33
33 22 9 188 188 33
33 22 10 188 188 33
33 22 29 158 216 229
33 23 8 188 188 33
33 23 9 188 188 33
33 23 10 188 188 33
33 23 29 158 216 229
33 24 9 188 188 33
33 24 10 188 188 33
33 24 29 158 216 229
33 25 29 158 216 229
33 26 29 158 216 229
33 27 29 158 216 229
33 28 29 158 216 229
33 29 29 158 216 229
33 30 29 158 216 229
33 31 29 158 216 229
33 32 20 214 38 40
33 32 21 214 38 40
33 32 22 214 38 40
33 32 23 214 38 40
33 32 24 214 38 40
33 32 25 214 38 40
33 32 26 214 38 40
33 32 27 214 38 40
33 32 28 214 38 40
33 32 29 214 38 40
34 10 29 255 186 119
34 11 28 255 186 119
34 11 29 255 186 119
34 12 28 255 186 119
34 12 29 255 186 119
34 13 28 255 186 119
34 13 29 158 216 229
34 14 29 158 216 229
34 15 29 158 216 229
34 16 29 158 216 229
34 17 9 188 188 33
34 17 10 188 188 33
34 17 29 158 216 229
34 18 9 188 188 33
34 18 10 188 188 33
34 18 11 188 188 33
34 18 29 158 216 229
34 19 9 188 188 33
34 19 10 188 188 33
34 19 11 188 188 33
34 19 29 158 216 229
34 20 9 188 188 33
34 20 10 188 188 33
34 20 11 188 188 33
34 20 29 158 216 229
34 21 9 188 188 33
34 21 10 188 188 33
34 21 11 188 188 33
34 21 29 158 216 229
34 22 9 188 188 33
34 22 10 188 188 33
34 22 11 188 188 33
34 22 29 158 216 229
34 23 9 188 188 33
34 23 10 188 188 33
34 23 11 188 188 33
34 23 29 158 216 229
34 24 10 188 188 33
34 24 29 158 216 229
34 25 29 158 216 229
34 26 29 158 216 229
34 27 29 158 216 229
34 28 29 158 216 229
34 29 29 158 216 229
34 30 29 158 216 229
34 31 29 158 216 229
34 32 20 214 38 40
34 32 21 214 38 40
34 32 22 214 38 40
34 32 23 214 38 40
34 32 24 214 38 40
34 32 25 214 38 40
34 32 26 214 38 40
34 32 27 214 38 40
34 32 28 214 38 40
34 32 29 214 38 40
35 10 28 255 186 119
35 10 29 255 186 119
35 11 28 255 186 119
35 11 29 255 186 119
35 12 28 255 186 119
35 12 29 255 186 119
35 13 28 255 186 119
35 13 29 158 216 229
35 14 29 158 216 229
35 15 29 158 216 229
35 16 29 158 216 229
35 17 10 188 188 33
35 17 11 188 188 33
35 17 29 158 216 229
35 18 9 188 188 33
35 18 10 188 188 33
35 18 11 188 188 33
35 18 29 158 216 229
35 19 9 188 188 33
35 19 10 188 188 33
35 19 11 188 188 33
35 19 29 158 216 229
35 20 9 188 188 33
35 20 10 188 188 33
35 20 11 188 188 33
35 20 29 158 216 229
35 21 9 188 188 33
35 21 10 188 188 33
35 21 11 188 188 33
35 21 29 158 216 229
35 22 9 188 188 33
35 22 10 188 188 33
35 22 11 188 188 33
35 22 29 158 216 229
35 23 9 188 188 33
35 23 10 188 188 33
35 23 11 188 188 33
35 23 29 158 216 229
35 24 10 188 188 33
35 24 11 188 188 33
35 24 29 158 216 229
35 25 29 158 216 229
35 26 29 158 216 229
35 27 29 158 216 229
35 28 29 158 216 229
35 29 29 158 216 229
35 30 29 158 216 229
35 31 29 158 216 229
35 32 20 214 38 40
35 32 21 214 38 40
35 32 22 214 38 40
35 32 23 214 38 40
35 32 24 214 38 40
35 32 25 214 38 40
35 32 26 214 38 40
35 32 27 214 38 40
35 32 28 214 38 40
35 32 29 214 38 40
36 10 28 255 186 119
36 10 29 158 216 229
36 11 28 255 186 119
36 11 29 158 216 229
36 12 28 255 186 119
36 12 29 158 216 229
36 13 29 158 216 229
36 14 29 158 216 229
36 15 29 158 216 229
36 16 29 158 216 229
36 17 29 158 216 229
36 18 11 188 188 33
36 18 29 158 216 229
36 19 11 188 188 33
36 19 29 158 216 229
36 20 10 188 188 33
36 20 11 188 188 33
36 20 29 158 216 229
36 21 10 188 188 33
36 21 11 188 188 33
36 21 29 158 216 229
36 22 9 188 188 33
36 22 10 188 188 33
36 22 11 188 188 33
36 22 29 158 216 229
36 23 9 188 188 33
36 23 10 188 188 33
36 23 11 188 188 33
36 23 29 158 216 229
36 24 10 188 188 33
36 24 11 188 188 33
36 24 29 158 216 229
36 25 29 158 216 229
36 26 29 158 216 229
36 27 29 158 216 229
36 28 29 158 216 229
36 29 29 158 216 229
36 30 29 158 216 229
36 31 29 158 216 229
36 32 21 214 38 40
36 32 22 214 38 40
36 32 23 214 38 40
36 32 24 214 38 40
36 32 25 214 38 40
36 32 26 214 38 40
36 32 27 214 38 40
36 32 28 214 38 40
36 32 29 214 38 40
37 10 29 158 216 229
37 11 29 158 216 229
37 12 29 158 216 229
37 13 29 158 216 229
37 14 29 158 216 229
37 15 29 158 216 229
37 16 29 158 216 229
37 17 29 158 216 229
37 18 29 158 216 229
37 19 29 158 216 229
37 20 29 158 216 229
37 21 11 188 188 33
37 21 29 158 216 229
37 22 11 188 188 33
37 22 29 158 216 229
37 23 10 188 188 33
37 23 11 188 188 33
37 23 29 158 216 229
37 24 11 188 188 33
37 24 29 158 216 229
37 25 29 158 216 229
37 26 29 158 216 229
37 27 29 158 216 229
37 28 29 158 216 229
37 29 29 158 216 229
37 30 29 158 216 229
37 31 29 158 216 229
37 32 21 214 38 40
37 32 22 214 38 40
37 32 23 214 38 40
37 32 24 214 38 40
37 32 25 214 38 40
37 32 26 214 38 40
37 32 27 214 38 40
37 32 28 214 38 40
37 32 29 214 38 40
38 10 29 158 216 229
38 11 29 158 216 229
38 12 29 158 216 229
38 13 29 158 216 229
38 14 29 158 216 229
38 15 29 158 216 229
38 16 29 158 216 229
38 17 29 158 216 229
38 18 29 158 216 229
38 19 29 158 216 229
38 20 29 158 216 229
38 21 29 158 216 229
38 22 29 158 216 229
38 23 29 158 216 229
38 24 11 188 188 33
38 24 29 158 216 229
38 25 29 158 216 229
38 26 29 158 216 229
38 27 29 158 216 229
38 28 29 158 216 229
38 29 29 158 216 229
38 30 29 158 216 229
38 31 29 158 216 229
38 32 21 214 38 40
38 32 22 214 38 40
38 32 23 214 38 40
38 32 24 214 38 40
38 32 25 214 38 40
38 32 26 214 38 40
38 32 27 214 38 40
38 32 28 214 38 40
38 32 29 214 38 40
39 9 29 158 216 229
39 10 29 158 216 229
39 11 29 158 216 229
39 12 29 158 216 229
39 13 29 158 216 229
39 14 29 158 216 229
39 15 29 158 216 229
39 16 29 158 216 229
39 17 29 158 216 229
39 18 29 158 216 229
39 19 29 158 216 229
39 20 29 158 216 229
39 21 29 158 216 229
39 22 29 158 216 229
39 23 29 158 216 229
39 24 29 158 216 229
39 25 13 255 127 12
39 25 14 255 127 12
39 25 15 255 127 12
39 25 29 158 216 229
39 26 14 196 175 214
39 26 15 255 127 12
39 26 29 158 216 229
39 27 15 196 175 214
39 27 29 158 216 229
39 28 29 158 216 229
39 29 29 158 216 229
39 30 29 158 216 229
39 31 29 158 216 229
39 32 22 214 38 40
39 32 23 214 38 40
39 32 24 214 38 40
39 32 25 214 38 40
39 32 26 214 38 40
39 32 27 214 38 40
39 32 28 214 38 40
39 32 29 214 38 40
40 9 29 158 216 229
40 10 29 158 216 229
40 11 29 158 216 229
40 12 29 158 216 229
40 13 29 158 216 229
40 14 29 158 216 229
40 15 29 158 216 229
40 16 29 158 216 229
40 17 29 158 216 229
40 18 29 158 216 229
40 19 29 158 216 229
40 20 29 158 216 229
40 21 29 158 216 229
40 22 29 158 216 229
40 23 29 158 216 229
40 24 29 158 216 229
40 25 14 255 127 12
40 25 15 255 127 12
40 25 29 158 216 229
40 26 14 196 175 214
40 26 15 196 175 214
40 26 29 158 216 229
40 27 15 196 175 214
40 27 29 158 216 229
40 28 29 158 216 229
40 29 29 158 216 229
40 30 29 158 216 229
40 31 29 158 216 229
40 32 22 214 38 40
40 32 23 214 38 40
40 32 24 214 38 40
40 32 25 214 38 40
40 32 26 214 38 40
40 32 27 214 38 40
40 32 28 214 38 40
40 32 29 214 38 40
41 9 29 158 216 229
41 10 29 158 216 229
41 11 29 158 216 229
41 12 29 158 216 229
41 13 29 158 216 229
41 14 29 158 216 229
41 15 29 158 216 229
41 16 29 158 216 229
41 17 29 158 216 229
41 18 29 158 216 229
41 19 29 158 216 229
41 20 29 158 216 229
41 21 29 158 216 229
41 22 29 158 216 229
41 23 29 158 216 229
41 24 29 158 216 229
41 25 29 158 216 229
41 26 15 196 175 214
41 26 29 158 216 229
41 27 29 158 216 229
41 28 29 158 216 229
41 29 29 158 216 229
41 30 29 158 216 229
41 31 29 158 216 229
41 32 22 214 38 40
41 32 23 214 38 40
41 32 24 214 38 40
41 32 25 214 38 40
41 32 26 214 38 40
41 32 27 214 38 40
41 32 28 214 38 40
41 32 29 214 38 40
42 9 27 158 216 229
42 9 28 158 216 229
42 9 29 158 216 229
42 10 26 158 216 229
42 10 27 158 216 229
42 10 28 158 216 229
42 10 29 158 216 229
42 11 26 158 216 229
42 11 27 158 216 229
42 11 28 158 216 229
42 11 29 158 216 229
42 12 25 158 216 229
42 12 26 158 216 229
42 12 27 158 216 229
42 12 28 158 216 229
42 12 29 158 216 229
42 13 25 158 216 229
42 13 26 158 216 229
42 13 27 158 216 229
42 13 28 158 216 229
42 13 29 158 216 229
42 14 24 158 216 229
42 14 25 158 216 229
42 14 26 158 216 229
42 14 27 158 216 229
42 14 28 158 216 229
42 14 29 158 216 229
42 15 23 158 216 229
42 15 24 158 216 229
42 15 25 158 216 229
42 15 26 158 216 229
42 15 27 158 216 229
42 15 28 158 216 229
42 15 29 158 216 229
42 16 23 158 216 229
42 16 24 158 216 229
42 16 25 158 216 229
42 16 26 158 216 229
42 16 27 158 216 229
42 16 28 158 216 229
42 16 29 158 216 229
42 17 22 158 216 229
42 17 23 158 216 229
42 17 24 158 216 229
42 17 25 158 216 229
42 17 26 158 216 229
42 17 27 158 216 229
42 17 28 158 216 229
42 17 29 158 216 229
42 18 22 158 216 229
42 18 23 158 216 229
42 18 24 158 216 229
42 18 25 158 216 229
42 18 26 158 216 229
42 18 27 158 216 229
42 18 28 158 216 229
42 18 29 158 216 229
42 19 21 158 216 229
42 19 22 158 216 229
42 19 23 158 216 229
42 19 24 158 216 229
42 19 25 158 216 229
42 19 26 158 216 229
42 19 27 158 216 229
42 19 28 158 216 229
42 19 29 158 216 229
42 20 21 158 216 229
42 20 22 158 216 229
42 20 23 158 216 229
42 20 24 158 216 229
42 20 25 158 216 229
42 20 26 158 216 229
42 20 27 158 216 229
42 20 28 158 216 229
42 20 29 158 216 229
42 21 20 158 216 229
42 21 21 158 216 229
42 21 22 158 216 229
42 21 23 158 216 229
42 21 24 158 216 229
42 21 25 158 216 229
42 21 26 158 216 229
42 21 27 158 216 229
42 21 28 158 216 229
42 21 29 158 216 229
42 22 20 158 216 229
42 22 21 158 216 229
42 22 22 158 216 229
42 22 23 158 216 229
42 22 24 158 216 229
42 22 25 158 216 229
42 22 26 158 216 229
42 22 27 158 216 229
42 22 28 158 216 229
42 22 29 158 216 229
42 23 19 158 216 229
42 23 20 158 216 229
42 23 21 158 216 229
42 23 22 158 216 229
42 23 23 158 216 229
42 23 24 158 216 229
42 23 25 158 216 229
42 23 26 158 216 229
42 23 27 158 216 229
42 23 28 158 216 229
42 23 29 158 216 229
42 24 18 158 216 229
42 24 19 158 216 229
42 24 20 158 216 229
42 24 21 158 216 229
42 24 22 158 216 229
42 24 23 158 216 229
42 24 24 158 216 229
42 24 25 158 216 229
42 24 26 158 216 229
42 24 27 158 216 229
42 24 28 158 216 229
42 24 29 158 216 229
42 25 18 158 216 229
42 25 19 158 216 229
42 25 20 158 216 229
42 25 21 158 216 229
42 25 22 158 216 229
42 25 23 158 216 229
42 25 24 158 216 229
42 25 25 158 216 229
42 25 26 158 216 229
42 25 27 158 216 229
42 25 28 158 216 229
42 25 29 158 216 229
42 26 17 158 216 229
42 26 18 158 216 229
42 26 19 158 216 229
42 26 20 158 216 229
42 26 21 158 216 229
42 26 22 158 216 229
42 26 23 158 216 229
42 26 24 158 216 229
42 26 25 158 216 229
42 26 26 158 216 229
42 26 27 158 216 229
42 26 28 158 216 229
42 26 29 158 216 229
42 27 17 158 216 229
42 27 18 158 216 229
42 27 19 158 216 229
42 27 20 158 216 229
42 27 21 158 216 229
42 27 22 158 216 229
42 27 23 158 216 229
42 27 24 158 216 229
42 27 25 158 216 229
42 27 26 158 216 229
42 27 27 158 216 229
42 27 28 158 216 229
42 27 29 158 216 229
42 28 17 158 216 229
42 28 18 158 216 229
42 28 19 158 216 229
42 28 20 158 216 229
42 28 21 158 216 229
42 28 22 158 216 229
42 28 23 158 216 229
42 28 24 158 216 229
42 28 25 158 216 229
42 28 26 158 216 229
42 28 27 158 216 229
42 28 28 158 216 229
42 28 29 158 216 229
42 29 19 158 216 229
42 29 20 158 216 229
42 29 21 158 216 229
42 29 22 158 216 229
42 29 23 158 216 229
42 29 24 158 216 229
42 29 25 158 216 229
42 29 26 158 216 229
42 29 27 158 216 229
42 29 28 158 216 229
42 29 29 158 216 229
42 30 20 158 216 229
42 30 21 158 216 229
42 30 22 158 216 229
42 30 23 158 216 229
42 30 24 158 216 229
42 30 25 158 216 229
42 30 26 158 216 229
42 30 27 158 216 229
42 30 28 158 216 229
42 30 29 158 216 229
42 31 21 158 216 229
42 31 22 158 216 229
42 31 23 158 216 229
42 31 24 158 216 229
42 31 25 158 216 229
42 31 26 158 216 229
42 31 27 158 216 229
42 31 28 158 216 229
42 31 29 158 216 229
42 32 23 158 216 229
42 32 24 158 216 229
42 32 25 158 216 229
42 32 26 158 216 229
42 32 27 158 216 229
42 32 28 158 216 229
42 32 29 158 216 229
