ply
format ascii 1.0
element vertex 2849
property float x
property float y
property float z
property uchar red
property uchar green
property uchar blue
end_header
6 33 37 214 38 40
6 34 37 214 38 40
7 31 35 214 38 40
9 15 31 158 216 229
9 16 31 158 216 229
9 17 31 114 158 206
9 18 31 114 158 206
9 19 31 114 158 206
9 20 31 114 158 206
9 20 32 114 158 206
9 21 31 114 158 206
9 22 31 114 158 206
10 15 29 158 216 229
10 15 30 158 216 229
10 15 31 114 158 206
10 16 29 158 216 229
10 16 30 158 216 229
10 16 31 114 158 206
10 17 29 158 216 229
10 17 30 158 216 229
10 17 31 114 158 206
10 18 29 158 216 229
10 18 30 158 216 229
10 18 31 114 158 206
10 19 30 158 216 229
10 19 31 114 158 206
10 20 30 114 158 206
10 20 31 114 158 206
10 21 30 114 158 206
10 21 31 114 158 206
10 22 30 114 158 206
10 22 31 114 158 206
10 22 32 114 158 206
10 23 30 158 216 229
10 23 31 158 216 229
10 24 30 158 216 229
10 24 31 158 216 229
10 25 30 158 216 229
10 25 31 158 216 229
10 26 30 158 216 229
10 26 31 114 158 206
10 27 30 158 216 229
10 27 31 114 158 206
11 15 30 158 216 229
11 15 31 158 216 229
11 16 30 158 216 229
11 16 31 114 158 206
11 17 30 158 216 229
11 17 31 114 158 206
11 18 30 158 216 229
11 18 31 114 158 206
11 19 30 158 216 229
11 19 31 114 158 206
11 20 30 196 175 214
11 20 31 114 158 206
11 21 30 158 216 229
11 21 31 114 158 206
11 22 30 158 216 229
11 22 31 114 158 206
11 23 30 158 216 229
11 23 31 158 216 229
11 24 30 158 216 229
11 24 31 158 216 229
11 25 30 158 216 229
11 25 31 158 216 229
11 26 30 158 216 229
11 26 31 114 158 206
11 27 29 158 216 229
11 27 30 158 216 229
11 27 31 114 158 206
11 28 29 158 216 229
11 31 29 214 38 40
12 14 31 158 216 229
12 15 30 158 216 229
12 15 31 158 216 229
12 16 30 158 216 229
12 16 31 158 216 229
12 17 30 158 216 229
12 17 31 158 216 229
12 18 30 158 216 229
12 18 31 114 158 206
12 19 30 196 175 214
12 19 31 114 158 206
12 20 30 196 175 214
12 20 31 196 175 214
12 21 30 196 175 214
12 21 31 196 175 214
12 22 30 158 216 229
12 22 31 158 216 229
12 23 30 158 216 229
12 23 31 158 216 229
12 24 30 158 216 229
12 24 31 158 216 229
12 25 30 158 216 229
12 25 31 158 216 229
12 26 30 158 216 229
12 26 31 158 216 229
12 27 27 158 216 229
12 27 28 158 216 229
12 27 29 196 175 214
12 27 30 158 216 229
12 27 31 158 216 229
12 28 28 158 216 229
12 28 29 158 216 229
12 29 28 196 175 214
12 30 28 196 175 214
12 31 28 214 38 40
12 32 28 214 38 40
13 14 30 158 216 229
13 14 31 158 216 229
13 15 30 158 216 229
13 15 31 158 216 229
13 16 30 158 216 229
13 16 31 158 216 229
13 17 30 158 216 229
13 17 31 158 216 229
13 18 30 158 216 229
13 18 31 114 158 206
13 19 29 196 175 214
13 19 30 196 175 214
13 19 31 114 158 206
13 19 32 114 158 206
13 20 30 196 175 214
13 20 31 196 175 214
13 20 32 114 158 206
13 21 30 196 175 214
13 21 31 196 175 214
13 22 30 158 216 229
13 22 31 158 216 229
13 23 30 158 216 229
13 23 31 158 216 229
13 24 30 158 216 229
13 24 31 158 216 229
13 25 30 158 216 229
13 25 31 158 216 229
13 26 30 158 216 229
13 26 31 158 216 229
13 27 28 196 175 214
13 27 29 196 175 214
13 27 30 158 216 229
13 27 31 158 216 229
13 28 27 196 175 214
13 28 28 196 175 214
13 28 29 196 175 214
13 28 30 158 216 229
13 29 27 196 175 214
13 29 28 196 175 214
13 30 26 214 38 40
13 30 27 196 175 214
13 30 28 196 175 214
13 30 30 158 216 229
13 31 26 214 38 40
13 31 27 214 38 40
13 31 28 214 38 40
13 32 27 214 38 40
13 32 28 214 38 40
14 14 29 158 216 229
14 14 30 158 216 229
14 14 31 158 216 229
14 15 30 158 216 229
14 15 31 158 216 229
14 16 30 158 216 229
14 16 31 158 216 229
14 17 30 158 216 229
14 17 31 158 216 229
14 18 30 158 216 229
14 18 31 158 216 229
14 19 30 158 216 229
14 19 31 158 216 229
14 20 30 196 175 214
14 20 31 196 175 214
14 21 30 196 175 214
14 21 31 158 216 229
14 22 30 158 216 229
14 22 31 158 216 229
14 23 30 158 216 229
14 23 31 158 216 229
14 24 30 158 216 229
14 24 31 158 216 229
14 25 30 158 216 229
14 25 31 158 216 229
14 26 30 158 216 229
14 26 31 158 216 229
14 27 28 196 175 214
14 27 29 196 175 214
14 27 30 158 216 229
14 27 31 158 216 229
14 28 27 196 175 214
14 28 28 196 175 214
14 28 29 196 175 214
14 29 27 196 175 214
14 29 28 196 175 214
14 30 27 196 175 214
14 30 28 196 175 214
14 31 25 214 38 40
14 31 26 214 38 40
14 31 27 214 38 40
14 31 28 214 38 40
14 31 30 214 38 40
14 32 25 214 38 40
14 32 26 214 38 40
14 32 27 214 38 40
14 32 28 214 38 40
14 34 40 214 38 40
14 34 41 214 38 40
15 14 30 158 216 229
15 14 31 158 216 229
15 15 30 158 216 229
15 15 31 158 216 229
15 16 30 158 216 229
15 16 31 158 216 229
15 17 30 158 216 229
15 17 31 158 216 229
15 18 30 158 216 229
15 18 31 158 216 229
15 19 30 158 216 229
15 19 31 158 216 229
15 20 30 196 175 214
15 20 31 196 175 214
15 21 30 196 175 214
15 21 31 158 216 229
15 22 30 158 216 229
15 22 31 158 216 229
15 23 30 158 216 229
15 23 31 158 216 229
15 24 30 158 216 229
15 24 31 158 216 229
15 25 30 158 216 229
15 25 31 158 216 229
15 26 29 158 216 229
15 26 30 158 216 229
15 27 28 196 175 214
15 27 29 196 175 214
15 27 30 158 216 229
15 28 27 196 175 214
15 28 28 196 175 214
15 28 29 196 175 214
15 29 27 196 175 214
15 29 28 196 175 214
15 30 23 214 38 40
15 30 27 196 175 214
15 30 28 196 175 214
15 30 30 158 216 229
15 31 23 214 38 40
15 31 24 214 38 40
15 31 25 214 38 40
15 31 26 214 38 40
15 31 27 214 38 40
15 31 28 214 38 40
15 31 30 214 38 40
15 32 24 214 38 40
15 32 25 214 38 40
15 32 26 214 38 40
15 32 27 214 38 40
15 32 28 214 38 40
16 14 30 158 216 229
16 14 31 158 216 229
16 15 30 158 216 229
16 15 31 158 216 229
16 16 30 158 216 229
16 16 31 158 216 229
16 17 29 196 175 214
16 17 30 158 216 229
16 18 30 158 216 229
16 18 31 158 216 229
16 19 30 158 216 229
16 19 31 158 216 229
16 20 30 196 175 214
16 20 31 158 216 229
16 21 30 196 175 214
16 21 31 158 216 229
16 22 30 196 175 214
16 22 31 158 216 229
16 23 30 158 216 229
16 24 30 158 216 229
16 24 31 158 216 229
16 25 30 158 216 229
16 25 31 158 216 229
16 26 29 196 175 214
16 26 30 158 216 229
16 27 28 196 175 214
16 27 29 196 175 214
16 27 30 158 216 229
16 28 27 196 175 214
16 28 28 196 175 214
16 28 29 196 175 214
16 29 27 196 175 214
16 29 28 196 175 214
16 29 30 158 216 229
16 30 27 196 175 214
16 30 28 196 175 214
16 30 30 158 216 229
16 31 22 214 38 40
16 31 23 214 38 40
16 31 24 214 38 40
16 31 25 214 38 40
16 31 26 214 38 40
16 31 27 214 38 40
16 31 28 214 38 40
16 32 22 214 38 40
16 32 23 214 38 40
16 32 24 214 38 40
16 32 25 214 38 40
16 32 26 214 38 40
16 32 27 214 38 40
16 32 28 214 38 40
17 13 31 158 216 229
17 14 30 158 216 229
17 14 31 158 216 229
17 15 30 158 216 229
17 15 31 158 216 229
17 16 29 158 216 229
17 16 30 158 216 229
17 16 31 158 216 229
17 17 30 158 216 229
17 17 31 158 216 229
17 17 32 114 158 206
17 18 30 158 216 229
17 18 31 158 216 229
17 19 30 158 216 229
17 19 31 158 216 229
17 20 30 196 175 214
17 20 31 158 216 229
17 21 30 196 175 214
17 21 31 158 216 229
17 22 30 196 175 214
17 22 31 158 216 229
17 23 30 158 216 229
17 24 30 158 216 229
17 25 29 158 216 229
17 25 30 158 216 229
17 26 29 158 216 229
17 26 30 158 216 229
17 26 31 158 216 229
17 27 28 196 175 214
17 27 29 196 175 214
17 27 30 158 216 229
17 27 31 158 216 229
17 28 27 196 175 214
17 28 28 196 175 214
17 28 29 196 175 214
17 29 27 196 175 214
17 29 28 196 175 214
17 29 30 158 216 229
17 30 20 196 175 214
17 30 27 196 175 214
17 30 28 196 175 214
17 30 30 158 216 229
17 31 20 214 38 40
17 31 21 214 38 40
17 31 22 214 38 40
17 31 23 214 38 40
17 31 24 214 38 40
17 31 25 214 38 40
17 31 26 214 38 40
17 31 27 214 38 40
17 31 28 214 38 40
17 31 30 214 38 40
17 31 34 214 38 40
17 32 21 214 38 40
17 32 22 214 38 40
17 32 23 214 38 40
17 32 24 214 38 40
17 32 25 214 38 40
17 32 26 214 38 40
17 32 27 214 38 40
17 32 28 214 38 40
17 33 34 214 38 40
18 13 30 158 216 229
18 13 31 158 216 229
18 14 30 158 216 229
18 14 31 158 216 229
18 15 30 158 216 229
18 15 31 158 216 229
18 16 30 158 216 229
18 16 31 158 216 229
18 17 30 158 216 229
18 17 31 158 216 229
18 18 30 158 216 229
18 18 31 158 216 229
18 19 30 158 216 229
18 19 31 158 216 229
18 20 30 196 175 214
18 20 31 158 216 229
18 21 30 158 216 229
18 21 31 158 216 229
18 22 29 196 175 214
18 22 30 158 216 229
18 23 29 158 216 229
18 23 30 158 216 229
18 24 29 158 216 229
18 24 30 158 216 229
18 25 29 158 216 229
18 25 30 158 216 229
18 26 30 158 216 229
18 26 31 158 216 229
18 27 28 196 175 214
18 27 29 158 216 229
18 27 30 158 216 229
18 27 31 158 216 229
18 28 27 196 175 214
18 28 28 196 175 214
18 28 29 196 175 214
18 29 27 196 175 214
18 29 28 196 175 214
18 29 30 158 216 229
18 30 20 196 175 214
18 30 21 196 175 214
18 30 27 196 175 214
18 30 28 196 175 214
18 31 19 214 38 40
18 31 20 214 38 40
18 31 21 214 38 40
18 31 22 214 38 40
18 31 23 214 38 40
18 31 24 214 38 40
18 31 25 214 38 40
18 31 26 214 38 40
18 31 27 214 38 40
18 31 28 214 38 40
18 31 30 214 38 40
18 31 33 214 38 40
18 31 34 214 38 40
18 31 35 214 38 40
18 32 19 214 38 40
18 32 20 214 38 40
18 32 23 214 38 40
18 32 24 214 38 40
18 32 25 214 38 40
18 32 26 214 38 40
18 32 27 214 38 40
18 32 28 214 38 40
18 33 35 214 38 40
18 33 37 214 38 40
18 33 39 214 38 40
18 34 39 214 38 40
18 34 40 214 38 40
18 34 41 214 38 40
19 13 29 158 216 229
19 13 30 158 216 229
19 13 31 158 216 229
19 14 30 158 216 229
19 15 30 158 216 229
19 16 30 158 216 229
19 16 31 158 216 229
19 17 30 158 216 229
19 17 31 158 216 229
19 18 30 158 216 229
19 18 31 158 216 229
19 19 30 158 216 229
19 19 31 158 216 229
19 20 29 196 175 214
19 20 30 158 216 229
19 21 30 158 216 229
19 21 31 158 216 229
19 22 29 196 175 214
19 22 30 158 216 229
19 23 29 158 216 229
19 23 30 158 216 229
19 24 30 158 216 229
19 24 31 158 216 229
19 25 30 158 216 229
19 25 31 158 216 229
19 26 30 158 216 229
19 27 28 196 175 214
19 27 29 158 216 229
19 27 30 158 216 229
19 28 27 196 175 214
19 28 28 196 175 214
19 28 29 196 175 214
19 29 27 196 175 214
19 29 28 196 175 214
19 29 29 196 175 214
19 30 17 214 38 40
19 30 20 214 38 40
19 30 21 214 38 40
19 30 27 196 175 214
19 30 28 196 175 214
19 30 29 158 216 229
19 31 17 214 38 40
19 31 18 214 38 40
19 31 19 214 38 40
19 31 20 214 38 40
19 31 21 214 38 40
19 31 22 214 38 40
19 31 23 214 38 40
19 31 24 214 38 40
19 31 25 214 38 40
19 31 26 214 38 40
19 31 27 214 38 40
19 31 28 214 38 40
19 31 29 214 38 40
19 31 31 214 38 40
19 31 34 214 38 40
19 31 35 214 38 40
19 32 18 214 38 40
19 32 19 214 38 40
19 32 20 214 38 40
19 32 22 214 38 40
19 32 23 214 38 40
19 32 24 214 38 40
19 32 25 214 38 40
19 32 26 214 38 40
19 32 27 214 38 40
19 32 28 214 38 40
19 33 18 214 38 40
19 33 34 214 38 40
19 33 35 214 38 40
19 33 36 214 38 40
19 33 37 214 38 40
19 33 38 214 38 40
19 33 39 214 38 40
19 34 37 214 38 40
19 34 39 214 38 40
19 34 41 214 38 40
19 34 42 214 38 40
20 13 29 158 216 229
20 13 30 158 216 229
20 14 30 158 216 229
20 15 29 158 216 229
20 15 30 158 216 229
20 16 29 158 216 229
20 16 30 158 216 229
20 16 31 158 216 229
20 17 29 158 216 229
20 17 30 158 216 229
20 17 31 158 216 229
20 18 29 158 216 229
20 18 30 158 216 229
20 18 31 158 216 229
20 19 30 158 216 229
20 19 31 158 216 229
20 20 29 196 175 214
20 20 30 158 216 229
20 21 29 196 175 214
20 21 30 158 216 229
20 21 31 158 216 229
20 22 30 158 216 229
20 22 31 158 216 229
20 23 30 158 216 229
20 24 30 158 216 229
20 24 31 158 216 229
20 25 30 158 216 229
20 25 31 158 216 229
20 26 30 158 216 229
20 27 28 158 216 229
20 27 29 158 216 229
20 27 30 158 216 229
20 28 28 196 175 214
20 28 29 158 216 229
20 28 30 158 216 229
20 29 28 196 175 214
20 29 29 158 216 229
20 29 30 158 216 229
20 30 28 158 216 229
20 30 29 158 216 229
20 30 30 158 216 229
20 31 16 214 38 40
20 31 17 214 38 40
20 31 18 214 38 40
20 31 19 214 38 40
20 31 20 214 38 40
20 31 21 214 38 40
20 31 22 214 38 40
20 31 23 214 38 40
20 31 24 214 38 40
20 31 25 214 38 40
20 31 26 214 38 40
20 31 27 214 38 40
20 31 28 214 38 40
20 31 29 214 38 40
20 31 30 158 216 229
20 31 34 214 38 40
20 31 35 214 38 40
20 32 16 214 38 40
20 32 17 214 38 40
20 32 18 214 38 40
20 32 19 214 38 40
20 32 20 214 38 40
20 32 21 214 38 40
20 32 22 214 38 40
20 32 23 214 38 40
20 32 24 214 38 40
20 32 25 214 38 40
20 32 26 214 38 40
20 32 27 214 38 40
20 32 28 214 38 40
20 32 29 214 38 40
20 32 31 214 38 40
20 33 34 214 38 40
20 33 35 214 38 40
20 33 36 214 38 40
20 33 37 214 38 40
20 33 38 214 38 40
20 33 39 214 38 40
20 34 37 214 38 40
20 34 38 214 38 40
20 34 39 214 38 40
20 34 41 214 38 40
20 34 42 214 38 40
20 34 43 214 38 40
21 13 29 158 216 229
21 13 30 158 216 229
21 14 30 158 216 229
21 14 31 158 216 229
21 15 30 158 216 229
21 15 31 158 216 229
21 16 30 158 216 229
21 16 31 158 216 229
21 17 30 158 216 229
21 17 31 158 216 229
21 18 29 158 216 229
21 18 30 158 216 229
21 18 31 158 216 229
21 19 29 158 216 229
21 19 30 158 216 229
21 20 29 196 175 214
21 20 30 158 216 229
21 20 31 158 216 229
21 21 30 158 216 229
21 21 31 158 216 229
21 22 30 158 216 229
21 22 31 158 216 229
21 23 30 158 216 229
21 24 30 158 216 229
21 25 30 158 216 229
21 26 29 158 216 229
21 26 30 158 216 229
21 27 29 158 216 229
21 27 30 158 216 229
21 27 31 158 216 229
21 28 29 158 216 229
21 28 30 158 216 229
21 28 31 158 216 229
21 29 29 158 216 229
21 29 30 158 216 229
21 29 31 158 216 229
21 30 14 214 38 40
21 30 29 158 216 229
21 30 30 158 216 229
21 31 15 214 38 40
21 31 16 214 38 40
21 31 17 214 38 40
21 31 18 214 38 40
21 31 19 214 38 40
21 31 20 214 38 40
21 31 21 214 38 40
21 31 22 214 38 40
21 31 23 214 38 40
21 31 24 214 38 40
21 31 25 214 38 40
21 31 26 214 38 40
21 31 27 214 38 40
21 31 28 214 38 40
21 31 29 214 38 40
21 31 30 214 38 40
21 31 33 214 38 40
21 31 34 214 38 40
21 31 35 214 38 40
21 32 16 214 38 40
21 32 17 214 38 40
21 32 18 214 38 40
21 32 19 214 38 40
21 32 20 214 38 40
21 32 21 214 38 40
21 32 22 214 38 40
21 32 23 214 38 40
21 32 24 214 38 40
21 32 25 214 38 40
21 32 26 214 38 40
21 32 27 214 38 40
21 32 28 214 38 40
21 32 29 214 38 40
21 33 34 214 38 40
21 33 35 214 38 40
21 33 36 214 38 40
21 33 37 214 38 40
21 33 38 214 38 40
21 33 39 214 38 40
21 33 41 214 38 40
21 34 37 214 38 40
21 34 38 214 38 40
21 34 39 214 38 40
21 34 40 214 38 40
21 34 41 214 38 40
21 34 42 214 38 40
21 34 43 214 38 40
22 12 31 158 216 229
22 13 29 196 175 214
22 13 30 158 216 229
22 13 31 158 216 229
22 14 30 158 216 229
22 14 31 158 216 229
22 15 30 158 216 229
22 15 31 158 216 229
22 16 30 158 216 229
22 16 31 158 216 229
22 17 29 158 216 229
22 17 30 158 216 229
22 17 31 158 216 229
22 18 29 158 216 229
22 18 30 158 216 229
22 18 31 158 216 229
22 19 29 158 216 229
22 19 30 158 216 229
22 19 31 158 216 229
22 20 30 158 216 229
22 20 31 158 216 229
22 21 30 158 216 229
22 22 29 158 216 229
22 22 30 158 216 229
22 23 29 158 216 229
22 23 30 158 216 229
22 24 29 158 216 229
22 24 30 158 216 229
22 25 29 158 216 229
22 25 30 158 216 229
22 26 29 158 216 229
22 26 30 158 216 229
22 27 30 158 216 229
22 27 31 158 216 229
22 28 30 158 216 229
22 28 31 158 216 229
22 29 29 158 216 229
22 29 30 158 216 229
22 30 29 158 216 229
22 30 30 158 216 229
22 31 15 214 38 40
22 31 16 214 38 40
22 31 17 214 38 40
22 31 18 214 38 40
22 31 19 214 38 40
22 31 20 214 38 40
22 31 21 214 38 40
22 31 22 214 38 40
22 31 23 214 38 40
22 31 24 214 38 40
22 31 25 214 38 40
22 31 26 214 38 40
22 31 27 214 38 40
22 31 28 214 38 40
22 31 29 214 38 40
22 31 30 214 38 40
22 31 33 214 38 40
22 31 34 214 38 40
22 31 35 214 38 40
22 32 16 214 38 40
22 32 17 214 38 40
22 32 18 214 38 40
22 32 19 214 38 40
22 32 20 214 38 40
22 32 21 214 38 40
22 32 22 214 38 40
22 32 23 214 38 40
22 32 24 214 38 40
22 32 25 214 38 40
22 32 26 214 38 40
22 32 27 214 38 40
22 32 28 214 38 40
22 32 29 214 38 40
22 32 31 214 38 40
22 33 34 214 38 40
22 33 35 214 38 40
22 33 36 214 38 40
22 33 37 214 38 40
22 33 38 214 38 40
22 33 39 214 38 40
22 33 40 214 38 40
22 33 41 214 38 40
22 33 43 214 38 40
22 34 36 214 38 40
22 34 37 214 38 40
22 34 38 214 38 40
22 34 39 214 38 40
22 34 40 214 38 40
22 34 41 214 38 40
22 34 42 214 38 40
22 34 43 214 38 40
23 12 30 158 216 229
23 13 29 196 175 214
23 13 30 158 216 229
23 14 30 158 216 229
23 14 31 158 216 229
23 15 30 158 216 229
23 15 31 158 216 229
23 16 29 158 216 229
23 16 30 158 216 229
23 16 31 158 216 229
23 17 29 158 216 229
23 17 30 158 216 229
23 17 31 158 216 229
23 18 30 158 216 229
23 18 31 158 216 229
23 19 30 158 216 229
23 19 31 158 216 229
23 20 29 196 175 214
23 20 30 158 216 229
23 20 31 158 216 229
23 21 29 158 216 229
23 21 30 158 216 229
23 22 29 158 216 229
23 22 30 158 216 229
23 23 29 158 216 229
23 23 30 158 216 229
23 24 29 158 216 229
23 24 30 158 216 229
23 25 29 158 216 229
23 25 30 158 216 229
23 26 29 158 216 229
23 26 30 158 216 229
23 26 31 158 216 229
23 27 30 158 216 229
23 27 31 158 216 229
23 28 30 158 216 229
23 28 31 158 216 229
23 29 29 158 216 229
23 29 30 158 216 229
23 30 29 158 216 229
23 30 30 158 216 229
23 31 15 214 38 40
23 31 16 214 38 40
23 31 17 214 38 40
23 31 18 214 38 40
23 31 19 214 38 40
23 31 20 214 38 40
23 31 21 214 38 40
23 31 22 214 38 40
23 31 23 214 38 40
23 31 24 214 38 40
23 31 25 214 38 40
23 31 26 214 38 40
23 31 27 214 38 40
23 31 28 214 38 40
23 31 29 214 38 40
23 31 30 158 216 229
23 31 32 214 38 40
23 31 33 214 38 40
23 31 34 214 38 40
23 31 35 214 38 40
23 32 17 214 38 40
23 32 18 214 38 40
23 32 19 214 38 40
23 32 20 214 38 40
23 32 21 214 38 40
23 32 22 214 38 40
23 32 23 214 38 40
23 32 24 214 38 40
23 32 25 214 38 40
23 32 26 214 38 40
23 32 27 214 38 40
23 32 28 214 38 40
23 32 29 214 38 40
23 32 31 214 38 40
23 33 22 214 38 40
23 33 23 214 38 40
23 33 34 214 38 40
23 33 35 214 38 40
23 33 36 214 38 40
23 33 37 214 38 40
23 33 38 214 38 40
23 33 39 214 38 40
23 33 40 214 38 40
23 33 41 214 38 40
23 33 42 214 38 40
23 34 36 214 38 40
23 34 37 214 38 40
23 34 38 214 38 40
23 34 39 214 38 40
23 34 40 214 38 40
23 34 41 214 38 40
23 34 42 214 38 40
23 34 43 214 38 40
24 12 30 158 216 229
24 13 29 196 175 214
24 13 30 158 216 229
24 14 30 158 216 229
24 15 30 158 216 229
24 16 29 158 216 229
24 16 30 158 216 229
24 16 31 158 216 229
24 17 30 158 216 229
24 17 31 158 216 229
24 18 30 158 216 229
24 18 31 158 216 229
24 19 30 158 216 229
24 19 31 158 216 229
24 20 29 196 175 214
24 20 30 158 216 229
24 20 31 158 216 229
24 21 29 158 216 229
24 21 30 158 216 229
24 22 29 158 216 229
24 22 30 158 216 229
24 23 29 158 216 229
24 23 30 158 216 229
24 24 29 158 216 229
24 24 30 158 216 229
24 25 29 158 216 229
24 25 30 158 216 229
24 26 29 158 216 229
24 26 30 158 216 229
24 27 30 158 216 229
24 27 31 158 216 229
24 28 29 158 216 229
24 28 30 158 216 229
24 28 31 158 216 229
24 29 29 158 216 229
24 29 30 158 216 229
24 30 29 158 216 229
24 30 30 158 216 229
24 31 16 214 38 40
24 31 17 214 38 40
24 31 18 214 38 40
24 31 19 214 38 40
24 31 20 214 38 40
24 31 21 214 38 40
24 31 22 214 38 40
24 31 23 214 38 40
24 31 24 214 38 40
24 31 25 214 38 40
24 31 26 214 38 40
24 31 27 214 38 40
24 31 28 214 38 40
24 31 29 214 38 40
24 31 30 158 216 229
24 31 32 214 38 40
24 31 33 214 38 40
24 31 34 214 38 40
24 31 35 214 38 40
24 32 17 214 38 40
24 32 18 214 38 40
24 32 19 214 38 40
24 32 20 214 38 40
24 32 21 214 38 40
24 32 22 214 38 40
24 32 23 214 38 40
24 32 24 214 38 40
24 32 25 214 38 40
24 32 26 214 38 40
24 32 27 214 38 40
24 32 28 214 38 40
24 32 29 214 38 40
24 33 19 214 38 40
24 33 34 214 38 40
24 33 35 214 38 40
24 33 36 214 38 40
24 33 37 214 38 40
24 33 38 214 38 40
24 33 39 214 38 40
24 34 37 214 38 40
24 34 38 214 38 40
24 34 39 214 38 40
24 34 42 214 38 40
24 34 43 214 38 40
25 12 29 196 175 214
25 12 30 158 216 229
25 13 29 196 175 214
25 13 30 158 216 229
25 14 30 158 216 229
25 15 30 158 216 229
25 15 31 158 216 229
25 16 30 158 216 229
25 17 29 158 216 229
25 17 30 158 216 229
25 18 29 158 216 229
25 18 30 158 216 229
25 19 29 158 216 229
25 19 30 158 216 229
25 20 29 196 175 214
25 20 30 158 216 229
25 21 29 158 216 229
25 21 30 158 216 229
25 22 29 158 216 229
25 22 30 158 216 229
25 23 29 158 216 229
25 23 30 158 216 229
25 24 29 158 216 229
25 24 30 158 216 229
25 25 29 158 216 229
25 25 30 158 216 229
25 26 29 158 216 229
25 26 30 158 216 229
25 27 29 158 216 229
25 27 30 158 216 229
25 27 31 158 216 229
25 28 29 158 216 229
25 28 30 158 216 229
25 29 29 158 216 229
25 29 30 158 216 229
25 30 29 158 216 229
25 30 30 158 216 229
25 31 16 214 38 40
25 31 17 214 38 40
25 31 18 214 38 40
25 31 19 214 38 40
25 31 20 214 38 40
25 31 21 214 38 40
25 31 22 214 38 40
25 31 23 214 38 40
25 31 24 214 38 40
25 31 25 214 38 40
25 31 26 214 38 40
25 31 27 214 38 40
25 31 28 214 38 40
25 31 29 214 38 40
25 31 30 214 38 40
25 31 32 214 38 40
25 31 33 214 38 40
25 31 34 214 38 40
25 31 35 214 38 40
25 32 17 214 38 40
25 32 18 214 38 40
25 32 19 214 38 40
25 32 20 214 38 40
25 32 21 214 38 40
25 32 22 214 38 40
25 32 23 214 38 40
25 32 24 214 38 40
25 32 25 214 38 40
25 32 26 214 38 40
25 32 27 214 38 40
25 32 28 214 38 40
25 32 29 214 38 40
25 33 19 214 38 40
25 33 21 214 38 40
25 33 33 214 38 40
25 33 34 214 38 40
25 33 35 214 38 40
25 33 36 214 38 40
25 33 37 214 38 40
25 33 38 214 38 40
25 33 39 214 38 40
25 33 40 214 38 40
25 33 41 214 38 40
25 34 36 214 38 40
25 34 37 214 38 40
25 34 38 214 38 40
25 34 39 214 38 40
25 34 40 214 38 40
25 34 41 214 38 40
25 34 42 214 38 40
25 34 43 214 38 40
26 12 28 255 127 12
26 12 29 196 175 214
26 12 30 158 216 229
26 13 28 196 175 214
26 13 29 196 175 214
26 13 30 158 216 229
26 14 30 158 216 229
26 15 30 158 216 229
26 16 29 158 216 229
26 16 30 158 216 229
26 17 29 158 216 229
26 17 30 158 216 229
26 18 29 158 216 229
26 18 30 158 216 229
26 19 29 158 216 229
26 19 30 158 216 229
26 19 31 158 216 229
26 20 29 158 216 229
26 20 30 158 216 229
26 21 29 158 216 229
26 21 30 158 216 229
26 22 29 158 216 229
26 22 30 158 216 229
26 23 29 158 216 229
26 23 30 158 216 229
26 24 29 158 216 229
26 24 30 158 216 229
26 25 29 158 216 229
26 25 30 158 216 229
26 26 29 158 216 229
26 26 30 158 216 229
26 27 29 158 216 229
26 27 30 158 216 229
26 28 29 158 216 229
26 28 30 158 216 229
26 29 29 158 216 229
26 29 30 158 216 229
26 30 29 158 216 229
26 30 30 158 216 229
26 31 16 214 38 40
26 31 17 214 38 40
26 31 18 214 38 40
26 31 19 214 38 40
26 31 20 214 38 40
26 31 21 214 38 40
26 31 22 214 38 40
26 31 23 214 38 40
26 31 24 214 38 40
26 31 25 214 38 40
26 31 26 214 38 40
26 31 27 214 38 40
26 31 28 214 38 40
26 31 29 214 38 40
26 31 30 214 38 40
26 31 32 214 38 40
26 31 33 214 38 40
26 31 34 214 38 40
26 31 35 214 38 40
26 32 18 214 38 40
26 32 19 214 38 40
26 32 20 214 38 40
26 32 21 214 38 40
26 32 22 214 38 40
26 32 23 214 38 40
26 32 24 214 38 40
26 32 25 214 38 40
26 32 26 214 38 40
26 32 27 214 38 40
26 32 28 214 38 40
26 32 29 214 38 40
26 32 30 214 38 40
26 32 32 214 38 40
26 33 23 214 38 40
26 33 25 214 38 40
26 33 32 214 38 40
26 33 33 214 38 40
26 33 34 214 38 40
26 33 35 214 38 40
26 33 36 214 38 40
26 33 37 214 38 40
26 33 38 214 38 40
26 33 39 214 38 40
26 33 40 214 38 40
26 33 41 214 38 40
26 33 42 214 38 40
26 33 43 214 38 40
26 34 35 214 38 40
26 34 36 214 38 40
26 34 37 214 38 40
26 34 38 214 38 40
26 34 39 214 38 40
26 34 40 214 38 40
26 34 41 214 38 40
26 34 42 214 38 40
26 34 43 214 38 40
27 12 27 255 127 12
27 12 28 255 127 12
27 12 29 196 175 214
27 12 30 158 216 229
27 13 28 196 175 214
27 13 29 196 175 214
27 13 30 158 216 229
27 14 30 158 216 229
27 15 30 158 216 229
27 16 29 158 216 229
27 16 30 158 216 229
27 17 29 158 216 229
27 17 30 158 216 229
27 18 29 158 216 229
27 18 30 158 216 229
27 19 29 158 216 229
27 19 30 158 216 229
27 20 29 158 216 229
27 20 30 158 216 229
27 21 29 158 216 229
27 21 30 158 216 229
27 22 29 158 216 229
27 22 30 158 216 229
27 23 29 158 216 229
27 23 30 158 216 229
27 24 29 158 216 229
27 24 30 158 216 229
27 25 29 158 216 229
27 25 30 158 216 229
27 26 29 158 216 229
27 26 30 158 216 229
27 27 29 158 216 229
27 27 30 158 216 229
27 28 29 158 216 229
27 28 30 158 216 229
27 29 29 158 216 229
27 29 30 158 216 229
27 30 29 158 216 229
27 30 30 158 216 229
27 31 17 214 38 40
27 31 18 214 38 40
27 31 19 214 38 40
27 31 20 214 38 40
27 31 21 214 38 40
27 31 22 214 38 40
27 31 23 214 38 40
27 31 24 214 38 40
27 31 25 214 38 40
27 31 26 214 38 40
27 31 27 214 38 40
27 31 28 214 38 40
27 31 29 214 38 40
27 31 30 214 38 40
27 31 32 214 38 40
27 31 33 214 38 40
27 31 34 214 38 40
27 31 35 214 38 40
27 32 18 214 38 40
27 32 19 214 38 40
27 32 20 214 38 40
27 32 21 214 38 40
27 32 22 214 38 40
27 32 23 214 38 40
27 32 24 214 38 40
27 32 25 214 38 40
27 32 26 214 38 40
27 32 27 214 38 40
27 32 28 214 38 40
27 32 29 214 38 40
27 32 30 214 38 40
27 32 32 214 38 40
27 33 22 214 38 40
27 33 23 214 38 40
27 33 32 214 38 40
27 33 33 214 38 40
27 33 34 214 38 40
27 33 35 214 38 40
27 33 36 214 38 40
27 33 37 214 38 40
27 33 38 214 38 40
27 33 39 214 38 40
27 33 40 214 38 40
27 33 41 214 38 40
27 33 42 214 38 40
27 33 43 214 38 40
27 34 35 214 38 40
27 34 36 214 38 40
27 34 37 214 38 40
27 34 38 214 38 40
27 34 39 214 38 40
27 34 40 214 38 40
27 34 41 214 38 40
27 34 42 214 38 40
27 34 43 214 38 40
28 12 28 255 127 12
28 12 29 196 175 214
28 12 30 158 216 229
28 13 28 196 175 214
28 13 29 158 216 229
28 13 30 158 216 229
28 14 30 158 216 229
28 15 30 158 216 229
28 15 31 158 216 229
28 16 29 158 216 229
28 16 30 158 216 229
28 17 29 158 216 229
28 17 30 158 216 229
28 18 29 158 216 229
28 18 30 158 216 229
28 19 29 158 216 229
28 19 30 158 216 229
28 20 29 158 216 229
28 20 30 158 216 229
28 21 29 158 216 229
28 21 30 158 216 229
28 22 29 158 216 229
28 22 30 158 216 229
28 23 29 158 216 229
28 23 30 158 216 229
28 24 29 158 216 229
28 24 30 158 216 229
28 25 29 158 216 229
28 25 30 158 216 229
28 26 29 158 216 229
28 26 30 158 216 229
28 27 29 158 216 229
28 27 30 158 216 229
28 28 29 158 216 229
28 28 30 158 216 229
28 29 29 158 216 229
28 29 30 158 216 229
28 30 29 158 216 229
28 30 30 158 216 229
28 31 17 214 38 40
28 31 18 214 38 40
28 31 19 214 38 40
28 31 20 214 38 40
28 31 21 214 38 40
28 31 22 214 38 40
28 31 23 214 38 40
28 31 24 214 38 40
28 31 25 214 38 40
28 31 26 214 38 40
28 31 27 214 38 40
28 31 28 214 38 40
28 31 29 214 38 40
28 31 30 158 216 229
28 31 32 214 38 40
28 31 33 214 38 40
28 31 34 214 38 40
28 32 18 214 38 40
28 32 19 214 38 40
28 32 20 214 38 40
28 32 21 214 38 40
28 32 22 214 38 40
28 32 23 214 38 40
28 32 24 214 38 40
28 32 25 214 38 40
28 32 26 214 38 40
28 32 27 214 38 40
28 32 28 214 38 40
28 32 29 214 38 40
28 32 31 214 38 40
28 32 32 214 38 40
28 33 19 214 38 40
28 33 32 214 38 40
28 33 33 214 38 40
28 33 34 214 38 40
28 33 35 214 38 40
28 33 36 214 38 40
28 33 37 214 38 40
28 33 38 214 38 40
28 33 39 214 38 40
28 33 41 214 38 40
28 34 36 214 38 40
28 34 37 214 38 40
28 34 38 214 38 40
28 34 39 214 38 40
28 34 41 214 38 40
28 34 42 214 38 40
29 11 31 158 216 229
29 12 28 255 127 12
29 12 29 158 216 229
29 12 30 158 216 229
29 13 28 196 175 214
29 13 29 158 216 229
29 13 30 158 216 229
29 14 29 158 216 229
29 14 30 158 216 229
29 15 29 158 216 229
29 15 30 158 216 229
29 16 29 158 216 229
29 16 30 158 216 229
29 17 29 158 216 229
29 17 30 158 216 229
29 18 29 158 216 229
29 18 30 158 216 229
29 19 29 158 216 229
29 19 30 158 216 229
29 20 29 158 216 229
29 20 30 158 216 229
29 21 29 158 216 229
29 21 30 158 216 229
29 22 29 158 216 229
29 22 30 158 216 229
29 23 29 158 216 229
29 23 30 158 216 229
29 24 29 158 216 229
29 24 30 158 216 229
29 25 29 158 216 229
29 25 30 158 216 229
29 26 29 158 216 229
29 26 30 158 216 229
29 27 29 158 216 229
29 27 30 158 216 229
29 28 29 158 216 229
29 28 30 158 216 229
29 29 29 158 216 229
29 29 30 158 216 229
29 30 29 158 216 229
29 30 30 158 216 229
29 31 17 214 38 40
29 31 18 214 38 40
29 31 19 214 38 40
29 31 20 214 38 40
29 31 21 214 38 40
29 31 22 214 38 40
29 31 23 214 38 40
29 31 24 214 38 40
29 31 25 214 38 40
29 31 26 214 38 40
29 31 27 214 38 40
29 31 28 214 38 40
29 31 29 214 38 40
29 31 30 214 38 40
29 31 32 214 38 40
29 31 33 214 38 40
29 31 34 214 38 40
29 31 35 214 38 40
29 32 18 214 38 40
29 32 19 214 38 40
29 32 20 214 38 40
29 32 21 214 38 40
29 32 22 214 38 40
29 32 23 214 38 40
29 32 24 214 38 40
29 32 25 214 38 40
29 32 26 214 38 40
29 32 27 214 38 40
29 32 28 214 38 40
29 32 29 214 38 40
29 32 31 214 38 40
29 33 29 214 38 40
29 33 32 214 38 40
29 33 33 214 38 40
29 33 34 214 38 40
29 33 35 214 38 40
29 33 36 214 38 40
29 33 37 214 38 40
29 33 38 214 38 40
29 33 39 214 38 40
29 33 40 214 38 40
29 33 41 214 38 40
29 33 42 214 38 40
29 33 43 214 38 40
29 34 35 214 38 40
29 34 36 214 38 40
29 34 37 214 38 40
29 34 38 214 38 40
29 34 39 214 38 40
29 34 40 214 38 40
29 34 41 214 38 40
29 34 42 214 38 40
30 11 29 255 127 12
30 11 31 158 216 229
30 12 28 255 127 12
30 12 29 255 127 12
30 12 30 158 216 229
30 13 28 196 175 214
30 13 29 158 216 229
30 13 30 158 216 229
30 14 29 158 216 229
30 14 30 158 216 229
30 15 29 158 216 229
30 15 30 158 216 229
30 16 29 158 216 229
30 16 30 158 216 229
30 17 8 196 175 214
30 17 29 158 216 229
30 17 30 158 216 229
30 18 8 196 175 214
30 18 9 158 216 229
30 18 29 158 216 229
30 18 30 158 216 229
30 18 31 158 216 229
30 19 8 196 175 214
30 19 9 158 216 229
30 19 29 158 216 229
30 19 30 158 216 229
30 20 8 196 175 214
30 20 9 158 216 229
30 20 10 158 216 229
30 20 29 158 216 229
30 20 30 158 216 229
30 21 8 196 175 214
30 21 9 255 127 12
30 21 10 255 127 12
30 21 29 158 216 229
30 21 30 158 216 229
30 22 8 255 127 12
30 22 9 255 127 12
30 22 10 255 127 12
30 22 29 158 216 229
30 22 30 158 216 229
30 23 9 255 127 12
30 23 29 158 216 229
30 23 30 158 216 229
30 24 8 255 127 12
30 24 29 158 216 229
30 24 30 158 216 229
30 25 29 158 216 229
30 25 30 158 216 229
30 26 29 158 216 229
30 26 30 158 216 229
30 27 29 158 216 229
30 27 30 158 216 229
30 28 29 158 216 229
30 28 30 158 216 229
30 29 29 158 216 229
30 29 30 158 216 229
30 30 29 158 216 229
30 30 30 158 216 229
30 31 17 214 38 40
30 31 18 214 38 40
30 31 19 214 38 40
30 31 20 214 38 40
30 31 21 214 38 40
30 31 22 214 38 40
30 31 23 214 38 40
30 31 24 214 38 40
30 31 25 214 38 40
30 31 26 214 38 40
30 31 27 214 38 40
30 31 28 214 38 40
30 31 29 214 38 40
30 31 30 214 38 40
30 31 33 214 38 40
30 31 34 214 38 40
30 31 35 214 38 40
30 32 19 214 38 40
30 32 20 214 38 40
30 32 21 214 38 40
30 32 22 214 38 40
30 32 23 214 38 40
30 32 24 214 38 40
30 32 25 214 38 40
30 32 26 214 38 40
30 32 27 214 38 40
30 32 28 214 38 40
30 32 29 214 38 40
30 33 32 214 38 40
30 33 33 214 38 40
30 33 34 214 38 40
30 33 35 214 38 40
30 33 36 214 38 40
30 33 37 214 38 40
30 33 38 214 38 40
30 33 39 214 38 40
30 33 40 214 38 40
30 33 41 214 38 40
30 33 42 214 38 40
30 33 43 214 38 40
30 34 35 214 38 40
30 34 36 214 38 40
30 34 37 214 38 40
30 34 38 214 38 40
30 34 39 214 38 40
30 34 40 214 38 40
30 34 41 214 38 40
30 34 42 214 38 40
30 34 43 214 38 40
31 11 28 255 127 12
31 11 29 255 127 12
31 12 28 255 127 12
31 12 29 255 127 12
31 12 30 158 216 229
31 13 28 196 175 214
31 13 29 158 216 229
31 13 30 158 216 229
31 14 29 158 216 229
31 14 30 158 216 229
31 15 29 158 216 229
31 15 30 158 216 229
31 16 29 158 216 229
31 16 30 158 216 229
31 17 8 196 175 214
31 17 9 196 175 214
31 17 10 255 127 12
31 17 29 158 216 229
31 17 30 158 216 229
31 18 8 158 216 229
31 18 9 158 216 229
31 18 29 158 216 229
31 18 30 158 216 229
31 18 31 158 216 229
31 19 8 196 175 214
31 19 9 158 216 229
31 19 28 158 216 229
31 19 29 158 216 229
31 19 30 158 216 229
31 20 8 196 175 214
31 20 9 158 216 229
31 20 28 158 216 229
31 20 29 158 216 229
31 20 30 158 216 229
31 21 8 196 175 214
31 21 9 158 216 229
31 21 29 158 216 229
31 21 30 158 216 229
31 21 31 158 216 229
31 22 9 255 127 12
31 22 10 255 127 12
31 22 28 158 216 229
31 22 29 158 216 229
31 22 30 158 216 229
31 23 8 255 127 12
31 23 13 255 127 12
31 23 28 158 216 229
31 23 29 158 216 229
31 23 30 158 216 229
31 24 9 255 127 12
31 24 10 255 127 12
31 24 29 158 216 229
31 24 30 158 216 229
31 25 10 255 127 12
31 25 11 255 127 12
31 25 28 158 216 229
31 25 29 158 216 229
31 25 30 158 216 229
31 26 28 158 216 229
31 26 29 158 216 229
31 26 30 158 216 229
31 27 29 158 216 229
31 27 30 158 216 229
31 29 28 158 216 229
31 29 29 158 216 229
31 29 30 158 216 229
31 30 20 196 175 214
31 30 25 214 38 40
31 30 26 214 38 40
31 30 27 214 38 40
31 30 29 158 216 229
31 30 30 158 216 229
31 31 18 214 38 40
31 31 19 214 38 40
31 31 20 214 38 40
31 31 21 214 38 40
31 31 22 214 38 40
31 31 23 214 38 40
31 31 24 214 38 40
31 31 25 214 38 40
31 31 26 214 38 40
31 31 27 214 38 40
31 31 28 214 38 40
31 31 29 214 38 40
31 31 32 214 38 40
31 31 33 214 38 40
31 31 34 214 38 40
31 31 35 214 38 40
31 31 36 214 38 40
31 31 37 214 38 40
31 32 19 214 38 40
31 32 20 214 38 40
31 32 21 214 38 40
31 32 22 214 38 40
31 32 23 214 38 40
31 32 24 214 38 40
31 32 25 214 38 40
31 32 26 214 38 40
31 32 27 214 38 40
31 32 28 214 38 40
31 32 29 214 38 40
31 33 20 214 38 40
31 33 30 214 38 40
31 33 31 214 38 40
31 33 32 214 38 40
31 33 33 214 38 40
31 33 34 214 38 40
31 33 35 214 38 40
31 33 36 214 38 40
31 33 37 214 38 40
31 33 38 214 38 40
31 33 39 214 38 40
31 33 40 214 38 40
31 33 41 214 38 40
31 33 42 214 38 40
31 33 43 214 38 40
31 33 44 214 38 40
31 33 45 214 38 40
31 33 46 214 38 40
31 34 32 214 38 40
31 34 33 214 38 40
31 34 34 214 38 40
31 34 35 214 38 40
31 34 36 214 38 40
31 34 37 214 38 40
31 34 38 214 38 40
31 34 39 214 38 40
31 34 40 214 38 40
31 34 41 214 38 40
31 34 42 214 38 40
31 34 43 214 38 40
31 34 44 214 38 40
31 34 45 214 38 40
31 34 46 214 38 40
32 11 27 255 127 12
32 11 28 255 127 12
32 11 29 255 127 12
32 12 28 255 127 12
32 12 29 158 216 229
32 12 30 158 216 229
32 13 28 196 175 214
32 13 29 158 216 229
32 13 30 158 216 229
32 14 29 158 216 229
32 14 30 158 216 229
32 15 29 158 216 229
32 15 30 158 216 229
32 16 29 158 216 229
32 16 30 158 216 229
32 17 8 158 216 229
32 17 9 158 216 229
32 17 10 255 127 12
32 17 11 255 127 12
32 17 12 255 127 12
32 17 13 255 127 12
32 17 15 255 127 12
32 17 16 196 175 214
32 17 17 196 175 214
32 17 18 196 175 214
32 17 19 196 175 214
32 17 25 158 216 229
32 17 26 158 216 229
32 17 27 158 216 229
32 17 28 158 216 229
32 18 8 158 216 229
32 18 9 158 216 229
32 19 8 158 216 229
32 19 9 158 216 229
32 20 8 196 175 214
32 20 9 196 175 214
32 21 9 196 175 214
32 22 9 255 127 12
32 22 11 255 127 12
32 23 9 255 127 12
32 23 10 255 127 12
32 24 9 255 127 12
32 24 10 255 127 12
32 24 11 255 127 12
32 24 12 255 127 12
32 24 13 255 127 12
32 25 11 147 102 188
32 25 12 147 102 188
32 29 18 196 175 214
32 29 19 196 175 214
32 30 18 196 175 214
32 30 19 196 175 214
32 30 20 196 175 214
32 30 21 196 175 214
32 31 18 214 38 40
32 31 19 214 38 40
32 31 20 214 38 40
32 31 21 214 38 40
32 31 45 214 38 40
32 31 46 214 38 40
32 32 20 214 38 40
32 32 21 214 38 40
32 32 22 214 38 40
32 32 23 214 38 40
32 33 21 214 38 40
32 33 22 214 38 40
32 33 23 214 38 40
32 33 49 214 38 40
32 34 22 158 216 229
32 34 23 214 38 40
32 34 24 214 38 40
32 34 51 214 38 40
32 35 23 158 216 229
32 35 24 158 216 229
33 11 27 255 127 12
33 11 28 255 127 12
33 11 30 158 216 229
33 12 28 255 127 12
33 12 29 158 216 229
33 13 28 196 175 214
33 13 29 158 216 229
33 13 30 158 216 229
33 14 29 158 216 229
33 14 30 158 216 229
33 15 29 158 216 229
33 15 30 158 216 229
33 16 29 158 216 229
33 16 30 158 216 229
33 17 8 158 216 229
33 17 9 158 216 229
33 17 10 158 216 229
33 17 11 255 127 12
33 17 12 255 127 12
33 17 13 255 127 12
33 17 14 255 127 12
33 17 15 255 127 12
33 17 29 158 216 229
33 17 30 158 216 229
33 18 8 158 216 229
33 18 9 158 216 229
33 18 29 158 216 229
33 18 30 158 216 229
33 19 8 158 216 229
33 19 9 158 216 229
33 19 30 158 216 229
33 20 8 196 175 214
33 20 9 196 175 214
33 20 30 158 216 229
33 21 9 196 175 214
33 21 10 255 127 12
33 21 29 158 216 229
33 21 30 158 216 229
33 22 9 255 127 12
33 22 10 255 127 12
33 22 29 158 216 229
33 22 30 158 216 229
33 23 9 255 127 12
33 23 10 255 127 12
33 23 12 255 127 12
33 23 13 255 127 12
33 23 14 255 127 12
33 23 30 158 216 229
33 24 9 255 127 12
33 24 10 255 127 12
33 24 11 255 127 12
33 24 15 255 127 12
33 25 12 255 127 12
33 25 14 255 127 12
33 25 15 255 127 12
33 26 14 255 127 12
33 26 30 158 216 229
33 27 15 255 127 12
33 28 17 158 216 229
33 29 18 196 175 214
33 30 18 196 175 214
33 30 19 196 175 214
33 31 19 214 38 40
33 31 20 214 38 40
33 31 21 214 38 40
33 31 30 214 38 40
33 32 20 214 38 40
33 32 21 214 38 40
33 32 34 214 38 40
33 33 21 214 38 40
33 33 22 214 38 40
33 33 30 214 38 40
33 34 22 158 216 229
33 34 23 158 216 229
33 34 24 214 38 40
33 34 31 214 38 40
33 35 24 158 216 229
34 11 27 255 127 12
34 11 28 255 127 12
34 11 29 255 127 12
34 12 28 255 127 12
34 12 29 255 127 12
34 13 28 255 127 12
34 13 29 158 216 229
34 13 30 158 216 229
34 14 29 158 216 229
34 14 30 158 216 229
34 15 29 158 216 229
34 15 30 158 216 229
34 16 28 158 216 229
34 16 29 158 216 229
34 16 30 158 216 229
34 17 9 158 216 229
34 17 10 158 216 229
34 17 11 255 127 12
34 17 12 255 127 12
34 17 13 255 127 12
34 18 8 158 216 229
34 18 9 158 216 229
34 18 30 158 216 229
34 19 9 158 216 229
34 19 10 255 127 12
34 19 11 255 127 12
34 19 17 255 127 12
34 20 9 196 175 214
34 20 10 255 127 12
34 20 12 255 127 12
34 20 13 255 127 12
34 20 14 255 127 12
34 20 15 255 127 12
34 20 16 255 127 12
34 20 17 255 127 12
34 20 18 255 127 12
34 20 19 255 127 12
34 20 30 158 216 229
34 21 9 255 127 12
34 21 10 255 127 12
34 21 12 255 127 12
34 21 13 255 127 12
34 21 14 255 127 12
34 21 15 255 127 12
34 21 16 255 127 12
34 21 17 255 127 12
34 21 18 255 127 12
34 21 19 255 127 12
34 22 9 255 127 12
34 22 10 255 127 12
34 22 14 255 127 12
34 22 15 255 127 12
34 22 18 255 127 12
34 23 9 255 127 12
34 23 10 255 127 12
34 23 12 255 127 12
34 23 13 255 127 12
34 23 14 255 127 12
34 23 15 255 127 12
34 24 11 255 127 12
34 24 12 255 127 12
34 24 13 255 127 12
34 24 14 255 127 12
34 24 15 255 127 12
34 25 14 255 127 12
34 25 15 255 127 12
34 26 14 255 127 12
34 29 19 158 216 229
34 30 20 158 216 229
34 30 21 158 216 229
34 30 22 158 216 229
34 31 19 214 38 40
34 31 20 214 38 40
34 31 21 214 38 40
34 31 22 214 38 40
34 31 30 214 38 40
34 31 31 214 38 40
34 31 33 214 38 40
34 31 34 214 38 40
34 31 35 214 38 40
34 32 21 214 38 40
34 32 22 214 38 40
34 33 34 214 38 40
34 33 35 214 38 40
34 33 36 214 38 40
34 33 37 214 38 40
34 33 38 214 38 40
34 33 39 214 38 40
34 33 40 214 38 40
34 33 41 214 38 40
34 33 42 214 38 40
34 34 36 214 38 40
34 34 37 214 38 40
34 34 38 214 38 40
34 34 39 214 38 40
34 34 40 214 38 40
34 34 41 214 38 40
34 34 42 214 38 40
35 10 29 255 127 12
35 11 28 255 127 12
35 11 29 255 127 12
35 12 27 255 127 12
35 12 28 255 127 12
35 12 29 255 127 12
35 13 28 255 127 12
35 13 29 158 216 229
35 13 30 158 216 229
35 14 29 158 216 229
35 14 30 158 216 229
35 15 29 158 216 229
35 15 30 158 216 229
35 16 29 158 216 229
35 16 30 158 216 229
35 17 10 158 216 229
35 17 11 255 127 12
35 18 9 158 216 229
35 18 10 158 216 229
35 18 29 158 216 229
35 18 30 158 216 229
35 19 9 158 216 229
35 19 10 158 216 229
35 19 16 255 127 12
35 19 17 255 127 12
35 20 9 196 175 214
35 20 10 255 127 12
35 20 15 255 127 12
35 20 16 255 127 12
35 20 17 255 127 12
35 20 18 255 127 12
35 20 19 255 127 12
35 21 9 255 127 12
35 21 10 255 127 12
35 21 12 255 127 12
35 21 13 255 127 12
35 21 14 255 127 12
35 21 15 255 127 12
35 21 16 255 127 12
35 21 17 255 127 12
35 21 18 255 127 12
35 21 19 255 127 12
35 21 29 158 216 229
35 22 10 255 127 12
35 22 11 255 127 12
35 22 13 255 127 12
35 22 14 255 127 12
35 22 15 255 127 12
35 23 10 255 127 12
35 23 11 255 127 12
35 23 13 255 127 12
35 23 14 255 127 12
35 23 15 255 127 12
35 24 11 255 127 12
35 24 13 255 127 12
35 24 14 255 127 12
35 24 15 255 127 12
35 25 13 255 127 12
35 25 14 255 127 12
35 25 15 255 127 12
35 26 15 255 127 12
35 30 20 158 216 229
35 31 19 214 38 40
35 31 20 214 38 40
35 31 21 214 38 40
35 31 22 214 38 40
35 31 24 214 38 40
35 31 25 214 38 40
35 31 26 214 38 40
35 31 27 214 38 40
35 31 28 214 38 40
35 31 29 214 38 40
35 31 30 214 38 40
35 31 31 214 38 40
35 31 33 214 38 40
35 31 34 214 38 40
35 32 20 214 38 40
35 32 21 214 38 40
35 32 22 214 38 40
35 32 25 214 38 40
35 32 26 214 38 40
35 32 27 214 38 40
35 33 23 214 38 40
35 33 25 214 38 40
35 33 26 214 38 40
35 33 34 214 38 40
35 33 35 214 38 40
35 33 36 214 38 40
35 33 37 214 38 40
35 33 38 214 38 40
35 33 39 214 38 40
35 33 40 214 38 40
35 33 41 214 38 40
35 33 42 214 38 40
35 33 43 214 38 40
35 34 36 214 38 40
35 34 37 214 38 40
35 34 38 214 38 40
35 34 39 214 38 40
35 34 40 214 38 40
35 34 41 214 38 40
35 34 42 214 38 40
35 34 43 214 38 40
36 10 28 255 127 12
36 10 29 158 216 229
36 11 28 255 127 12
36 11 29 255 127 12
36 12 28 255 127 12
36 12 29 158 216 229
36 13 28 196 175 214
36 13 29 158 216 229
36 13 30 158 216 229
36 13 31 158 216 229
36 14 29 158 216 229
36 14 30 158 216 229
36 15 29 158 216 229
36 15 30 158 216 229
36 16 28 158 216 229
36 16 29 158 216 229
36 16 30 158 216 229
36 20 10 255 127 12
36 20 11 255 127 12
36 20 16 255 127 12
36 20 17 255 127 12
36 21 9 196 175 214
36 21 10 255 127 12
36 21 11 255 127 12
36 22 10 255 127 12
36 22 11 255 127 12
36 23 10 255 127 12
36 23 11 255 127 12
36 23 13 255 127 12
36 24 10 255 127 12
36 24 11 255 127 12
36 24 12 255 127 12
36 24 13 255 127 12
36 24 14 255 127 12
36 24 15 255 127 12
36 25 15 255 127 12
36 26 15 255 127 12
36 30 21 196 175 214
36 31 19 214 38 40
36 31 20 214 38 40
36 31 21 214 38 40
36 31 22 214 38 40
36 31 23 214 38 40
36 31 25 214 38 40
36 31 26 214 38 40
36 31 27 214 38 40
36 31 28 214 38 40
36 31 29 214 38 40
36 31 30 214 38 40
36 31 31 214 38 40
36 31 33 214 38 40
36 31 34 214 38 40
36 32 21 214 38 40
36 32 22 214 38 40
36 32 23 214 38 40
36 32 25 214 38 40
36 32 26 214 38 40
36 32 27 214 38 40
36 32 28 214 38 40
36 32 29 214 38 40
36 33 23 214 38 40
36 33 26 214 38 40
36 33 27 214 38 40
36 33 28 214 38 40
36 33 29 214 38 40
36 33 30 214 38 40
36 33 31 214 38 40
36 33 32 214 38 40
36 33 33 214 38 40
36 33 34 214 38 40
36 33 35 214 38 40
36 33 36 214 38 40
36 33 37 214 38 40
36 33 38 214 38 40
36 33 39 214 38 40
36 33 40 214 38 40
36 33 41 214 38 40
36 33 42 214 38 40
36 34 31 214 38 40
36 34 32 214 38 40
36 34 33 214 38 40
36 34 36 214 38 40
36 34 37 214 38 40
36 34 38 214 38 40
36 34 39 214 38 40
36 34 40 214 38 40
36 34 41 214 38 40
36 34 42 214 38 40
36 34 43 214 38 40
37 10 28 255 127 12
37 10 29 158 216 229
37 11 29 158 216 229
37 12 29 158 216 229
37 12 30 158 216 229
37 13 29 158 216 229
37 13 30 158 216 229
37 14 29 158 216 229
37 14 30 158 216 229
37 15 29 158 216 229
37 15 30 158 216 229
37 16 27 214 38 40
37 16 28 158 216 229
37 16 29 158 216 229
37 16 30 158 216 229
37 20 16 255 127 12
37 21 11 255 127 12
37 22 11 255 127 12
37 23 10 255 127 12
37 23 11 255 127 12
37 23 13 255 127 12
37 23 14 255 127 12
37 23 15 255 127 12
37 24 12 255 127 12
37 24 16 255 127 12
37 25 13 255 127 12
37 25 14 255 127 12
37 25 16 255 127 12
37 27 17 255 127 12
37 30 21 196 175 214
37 31 20 214 38 40
37 31 21 214 38 40
37 31 22 214 38 40
37 31 23 214 38 40
37 31 25 214 38 40
37 31 26 214 38 40
37 31 27 214 38 40
37 31 28 214 38 40
37 31 29 214 38 40
37 31 30 214 38 40
37 31 31 214 38 40
37 32 21 214 38 40
37 32 22 214 38 40
37 32 23 214 38 40
37 32 25 214 38 40
37 32 26 214 38 40
37 32 27 214 38 40
37 32 28 214 38 40
37 33 24 214 38 40
37 33 25 214 38 40
37 33 26 214 38 40
37 33 27 214 38 40
37 33 28 214 38 40
37 33 29 214 38 40
37 33 30 214 38 40
37 33 31 214 38 40
37 33 32 214 38 40
37 33 33 214 38 40
37 33 34 214 38 40
37 33 35 214 38 40
37 33 36 214 38 40
37 33 37 214 38 40
37 33 38 214 38 40
37 33 39 214 38 40
37 33 40 214 38 40
37 33 41 214 38 40
37 33 42 214 38 40
37 33 43 214 38 40
37 34 31 214 38 40
37 34 32 214 38 40
37 34 33 214 38 40
37 34 34 214 38 40
37 34 35 214 38 40
37 34 36 214 38 40
37 34 37 214 38 40
37 34 38 214 38 40
37 34 39 214 38 40
37 34 40 214 38 40
37 34 41 214 38 40
37 34 42 214 38 40
37 34 43 214 38 40
38 10 29 158 216 229
38 10 30 158 216 229
38 11 29 158 216 229
38 11 30 158 216 229
38 12 29 158 216 229
38 12 30 158 216 229
38 13 29 158 216 229
38 13 30 158 216 229
38 14 29 158 216 229
38 14 30 158 216 229
38 15 29 158 216 229
38 15 30 158 216 229
38 16 27 214 38 40
38 16 28 158 216 229
38 16 29 158 216 229
38 16 30 158 216 229
38 20 16 255 127 12
38 21 13 255 127 12
38 22 12 255 127 12
38 23 12 255 127 12
38 23 13 255 127 12
38 23 14 255 127 12
38 23 15 255 127 12
38 23 16 255 127 12
38 24 11 255 127 12
38 24 13 255 127 12
38 24 14 255 127 12
38 24 16 255 127 12
38 25 12 255 127 12
38 25 13 255 127 12
38 25 14 255 127 12
38 25 15 255 127 12
38 26 14 255 127 12
38 26 15 255 127 12
38 26 16 255 127 12
38 30 22 158 216 229
38 31 20 214 38 40
38 31 21 214 38 40
38 31 22 214 38 40
38 31 23 214 38 40
38 31 24 214 38 40
38 31 26 214 38 40
38 31 27 214 38 40
38 31 28 214 38 40
38 31 29 214 38 40
38 32 21 214 38 40
38 32 22 214 38 40
38 32 23 214 38 40
38 32 24 214 38 40
38 33 22 214 38 40
38 33 25 214 38 40
38 33 27 214 38 40
38 33 28 214 38 40
38 33 29 214 38 40
38 33 30 214 38 40
38 33 31 214 38 40
38 33 32 214 38 40
38 33 33 214 38 40
38 33 34 214 38 40
38 33 35 214 38 40
38 33 36 214 38 40
38 33 37 214 38 40
38 33 38 214 38 40
38 33 39 214 38 40
38 33 40 214 38 40
38 33 41 214 38 40
38 33 42 214 38 40
38 33 43 214 38 40
38 34 31 214 38 40
38 34 32 214 38 40
38 34 33 214 38 40
38 34 34 214 38 40
38 34 35 214 38 40
38 34 36 214 38 40
38 34 37 214 38 40
38 34 38 214 38 40
38 34 39 214 38 40
38 34 40 214 38 40
38 34 41 214 38 40
38 34 42 214 38 40
38 34 43 214 38 40
39 9 30 158 216 229
39 10 29 158 216 229
39 10 30 158 216 229
39 11 29 158 216 229
39 11 30 158 216 229
39 12 29 158 216 229
39 12 30 158 216 229
39 13 29 158 216 229
39 13 30 158 216 229
39 14 28 158 216 229
39 14 29 158 216 229
39 14 30 158 216 229
39 15 29 158 216 229
39 15 30 158 216 229
39 16 26 214 38 40
39 16 27 214 38 40
39 16 28 158 216 229
39 16 29 158 216 229
39 16 30 158 216 229
39 18 29 158 216 229
39 19 16 255 127 12
39 20 15 255 127 12
39 20 16 255 127 12
39 21 15 255 127 12
39 21 16 255 127 12
39 22 14 255 127 12
39 22 15 255 127 12
39 23 14 255 127 12
39 23 15 255 127 12
39 24 13 255 127 12
39 24 14 255 127 12
39 25 13 255 127 12
39 25 14 255 127 12
39 25 15 255 127 12
39 26 14 255 127 12
39 26 15 255 127 12
39 26 16 255 127 12
39 27 15 255 127 12
39 30 22 158 216 229
39 31 20 214 38 40
39 31 21 214 38 40
39 31 22 214 38 40
39 31 23 214 38 40
39 31 24 214 38 40
39 31 26 214 38 40
39 31 27 214 38 40
39 31 28 214 38 40
39 31 29 214 38 40
39 31 30 214 38 40
39 31 31 214 38 40
39 32 21 214 38 40
39 32 22 214 38 40
39 32 23 214 38 40
39 32 24 214 38 40
39 32 26 214 38 40
39 33 25 214 38 40
39 33 26 214 38 40
39 33 27 214 38 40
39 33 28 214 38 40
39 33 29 214 38 40
39 33 30 214 38 40
39 33 31 214 38 40
39 33 32 214 38 40
39 33 33 214 38 40
39 33 34 214 38 40
39 33 35 214 38 40
39 33 36 214 38 40
39 33 37 214 38 40
39 33 38 214 38 40
39 33 39 214 38 40
39 33 40 214 38 40
39 33 41 214 38 40
39 33 42 214 38 40
39 33 43 214 38 40
39 34 30 214 38 40
39 34 31 214 38 40
39 34 32 214 38 40
39 34 33 214 38 40
39 34 34 214 38 40
39 34 35 214 38 40
39 34 36 214 38 40
39 34 37 214 38 40
39 34 38 214 38 40
39 34 39 214 38 40
39 34 40 214 38 40
39 34 41 214 38 40
39 34 42 214 38 40
39 34 43 214 38 40
40 9 29 158 216 229
40 9 30 158 216 229
40 10 29 158 216 229
40 10 30 158 216 229
40 11 29 158 216 229
40 11 30 158 216 229
40 12 29 158 216 229
40 12 30 158 216 229
40 13 29 158 216 229
40 13 30 158 216 229
40 14 29 158 216 229
40 14 30 158 216 229
40 15 29 158 216 229
40 15 30 158 216 229
40 16 24 214 38 40
40 16 25 214 38 40
40 16 26 214 38 40
40 16 27 214 38 40
40 16 28 158 216 229
40 20 17 255 127 12
40 21 17 255 127 12
40 22 16 255 127 12
40 22 17 255 127 12
40 23 16 255 127 12
40 24 15 255 127 12
40 24 17 255 127 12
40 25 14 255 127 12
40 25 15 255 127 12
40 25 16 255 127 12
40 26 14 255 127 12
40 27 16 255 127 12
40 28 17 255 127 12
40 29 21 158 216 229
40 29 23 158 216 229
40 30 23 158 216 229
40 31 20 214 38 40
40 31 21 214 38 40
40 31 22 214 38 40
40 31 23 214 38 40
40 31 24 214 38 40
40 31 25 214 38 40
40 31 27 214 38 40
40 31 28 214 38 40
40 31 29 214 38 40
40 31 30 214 38 40
40 31 31 214 38 40
40 32 22 214 38 40
40 32 23 214 38 40
40 32 24 214 38 40
40 32 25 214 38 40
40 32 27 214 38 40
40 33 25 214 38 40
40 33 26 214 38 40
40 33 27 214 38 40
40 33 28 214 38 40
40 33 29 214 38 40
40 33 30 214 38 40
40 33 31 214 38 40
40 33 32 214 38 40
40 33 33 214 38 40
40 33 34 214 38 40
40 33 35 214 38 40
40 33 36 214 38 40
40 33 37 214 38 40
40 33 38 214 38 40
40 33 39 214 38 40
40 33 40 214 38 40
40 33 41 214 38 40
40 33 42 214 38 40
40 33 43 214 38 40
40 34 30 214 38 40
40 34 31 214 38 40
40 34 32 214 38 40
40 34 33 214 38 40
40 34 34 214 38 40
40 34 35 214 38 40
40 34 36 214 38 40
40 34 37 214 38 40
40 34 38 214 38 40
40 34 39 214 38 40
40 34 40 214 38 40
40 34 41 214 38 40
40 34 42 214 38 40
40 34 43 214 38 40
41 9 29 158 216 229
41 9 30 158 216 229
41 10 25 158 216 229
41 10 26 158 216 229
41 10 29 158 216 229
41 10 30 158 216 229
41 11 25 158 216 229
41 11 26 158 216 229
41 11 29 158 216 229
41 11 30 158 216 229
41 12 25 158 216 229
41 12 28 158 216 229
41 12 29 158 216 229
41 13 25 158 216 229
41 13 28 158 216 229
41 13 29 158 216 229
41 13 30 158 216 229
41 14 22 158 216 229
41 14 23 158 216 229
41 14 24 158 216 229
41 14 25 158 216 229
41 14 28 158 216 229
41 14 29 158 216 229
41 14 30 158 216 229
41 15 22 158 216 229
41 15 23 158 216 229
41 15 24 158 216 229
41 15 25 158 216 229
41 15 28 158 216 229
41 15 29 158 216 229
41 15 30 158 216 229
41 16 24 158 216 229
41 16 25 158 216 229
41 16 26 158 216 229
41 16 27 158 216 229
41 16 28 158 216 229
41 16 29 158 216 229
41 16 30 158 216 229
41 17 21 158 216 229
41 17 28 158 216 229
41 17 30 158 216 229
41 18 20 158 216 229
41 18 21 158 216 229
41 18 29 158 216 229
41 19 20 255 127 12
41 20 19 255 127 12
41 21 18 255 127 12
41 21 19 255 127 12
41 22 18 255 127 12
41 23 17 255 127 12
41 25 16 255 127 12
41 26 15 255 127 12
41 26 16 255 127 12
41 28 20 158 216 229
41 29 19 158 216 229
41 29 20 158 216 229
41 29 21 158 216 229
41 29 22 158 216 229
41 29 25 158 216 229
41 30 20 158 216 229
41 30 21 158 216 229
41 30 22 158 216 229
41 30 23 158 216 229
41 30 24 158 216 229
41 31 21 214 38 40
41 31 22 214 38 40
41 31 23 214 38 40
41 31 24 214 38 40
41 31 25 214 38 40
41 31 27 214 38 40
41 31 28 214 38 40
41 31 29 214 38 40
41 31 30 214 38 40
41 31 31 214 38 40
41 32 22 214 38 40
41 32 23 214 38 40
41 32 24 214 38 40
41 32 25 214 38 40
41 32 27 214 38 40
41 33 26 214 38 40
41 33 27 214 38 40
41 33 28 214 38 40
41 33 29 214 38 40
41 33 30 214 38 40
41 33 31 214 38 40
41 33 32 214 38 40
41 33 33 214 38 40
41 33 34 214 38 40
41 33 35 214 38 40
41 33 36 214 38 40
41 33 37 214 38 40
41 33 38 214 38 40
41 33 39 214 38 40
41 33 40 214 38 40
41 33 41 214 38 40
41 33 42 214 38 40
41 33 43 214 38 40
41 34 30 214 38 40
41 34 31 214 38 40
41 34 32 214 38 40
41 34 33 214 38 40
41 34 34 214 38 40
41 34 35 214 38 40
41 34 36 214 38 40
41 34 37 214 38 40
41 34 38 214 38 40
41 34 39 214 38 40
41 34 40 214 38 40
41 34 41 214 38 40
41 34 42 214 38 40
41 34 43 214 38 40
42 9 28 158 216 229
42 9 29 158 216 229
42 10 26 158 216 229
42 10 27 158 216 229
42 10 28 158 216 229
42 10 29 158 216 229
42 11 26 158 216 229
42 11 27 158 216 229
42 11 28 158 216 229
42 11 29 158 216 229
42 12 25 158 216 229
42 12 26 158 216 229
42 12 27 158 216 229
42 12 28 158 216 229
42 12 29 158 216 229
42 13 25 158 216 229
42 13 26 158 216 229
42 13 27 158 216 229
42 13 28 158 216 229
42 13 29 158 216 229
42 14 24 158 216 229
42 14 25 158 216 229
42 14 26 158 216 229
42 14 27 158 216 229
42 14 28 158 216 229
42 14 29 158 216 229
42 15 23 158 216 229
42 15 24 158 216 229
42 15 25 158 216 229
42 15 26 158 216 229
42 15 27 158 216 229
42 15 28 158 216 229
42 15 29 158 216 229
42 16 26 158 216 229
42 16 27 158 216 229
42 16 28 158 216 229
42 16 29 158 216 229
42 16 30 158 216 229
42 17 22 158 216 229
42 17 30 158 216 229
42 18 22 158 216 229
42 18 23 158 216 229
42 18 24 158 216 229
42 18 25 158 216 229
42 18 26 158 216 229
42 18 28 158 216 229
42 18 29 158 216 229
42 19 21 158 216 229
42 19 24 158 216 229
42 19 25 158 216 229
42 21 20 255 127 12
42 23 19 255 127 12
42 24 19 255 127 12
42 24 20 255 127 12
42 25 18 255 127 12
42 25 20 255 127 12
42 27 17 255 127 12
42 27 21 158 216 229
42 28 17 158 216 229
42 28 21 158 216 229
42 28 23 158 216 229
42 29 20 158 216 229
42 29 21 158 216 229
42 29 22 158 216 229
42 29 25 158 216 229
42 30 21 158 216 229
42 30 22 158 216 229
42 30 23 158 216 229
42 30 24 158 216 229
42 31 21 158 216 229
42 31 22 214 38 40
42 31 23 214 38 40
42 31 24 214 38 40
42 31 25 214 38 40
42 31 27 214 38 40
42 31 28 214 38 40
42 31 29 214 38 40
42 31 30 214 38 40
42 31 31 214 38 40
42 32 22 214 38 40
42 33 26 214 38 40
42 33 27 214 38 40
42 33 28 214 38 40
42 33 29 214 38 40
42 33 30 214 38 40
42 33 31 214 38 40
42 33 32 214 38 40
42 33 33 214 38 40
42 33 34 214 38 40
42 33 35 214 38 40
42 33 36 214 38 40
42 33 37 214 38 40
42 33 38 214 38 40
42 33 39 214 38 40
42 33 40 214 38 40
42 33 41 214 38 40
42 33 42 214 38 40
42 33 43 214 38 40
42 34 29 214 38 40
42 34 30 214 38 40
42 34 31 214 38 40
42 34 32 214 38 40
42 34 33 214 38 40
42 34 34 214 38 40
42 34 35 214 38 40
42 34 36 214 38 40
42 34 37 214 38 40
42 34 38 214 38 40
42 34 39 214 38 40
42 34 40 214 38 40
42 34 41 214 38 40
42 34 42 214 38 40
42 34 43 214 38 40
43 10 28 158 216 229
43 11 27 158 216 229
43 11 28 158 216 229
43 11 29 158 216 229
43 12 27 158 216 229
43 12 30 158 216 229
43 13 26 158 216 229
43 13 30 158 216 229
43 14 26 158 216 229
43 15 25 158 216 229
43 15 30 158 216 229
43 16 28 158 216 229
43 17 25 158 216 229
43 17 26 158 216 229
43 17 27 158 216 229
43 17 28 158 216 229
43 17 29 158 216 229
43 18 24 158 216 229
43 18 25 158 216 229
43 19 23 158 216 229
43 19 24 158 216 229
43 20 23 158 216 229
43 21 22 158 216 229
43 22 21 158 216 229
43 23 21 158 216 229
43 24 20 158 216 229
43 24 21 158 216 229
43 25 20 158 216 229
43 25 21 158 216 229
43 26 19 158 216 229
43 26 20 158 216 229
43 27 18 158 216 229
43 27 19 158 216 229
43 27 20 158 216 229
43 28 18 158 216 229
43 28 20 158 216 229
43 29 19 158 216 229
43 29 24 158 216 229
43 30 25 158 216 229
43 31 26 214 38 40
43 32 24 214 38 40
43 32 25 214 38 40
43 33 27 214 38 40
43 33 28 214 38 40
43 33 29 214 38 40
43 33 30 214 38 40
43 33 31 214 38 40
43 33 32 214 38 40
43 33 33 214 38 40
43 33 34 214 38 40
43 33 35 214 38 40
43 33 36 214 38 40
43 33 37 214 38 40
43 33 38 214 38 40
43 33 39 214 38 40
43 33 40 214 38 40
43 33 41 214 38 40
43 33 42 214 38 40
43 33 43 214 38 40
43 34 29 214 38 40
43 34 30 214 38 40
43 34 31 214 38 40
43 34 32 214 38 40
43 34 33 214 38 40
43 34 34 214 38 40
43 34 35 214 38 40
43 34 36 214 38 40
43 34 37 214 38 40
43 34 38 214 38 40
43 34 39 214 38 40
43 34 40 214 38 40
43 34 41 214 38 40
43 34 42 214 38 40
43 34 43 214 38 40
44 29 19 158 216 229
44 33 28 214 38 40
44 33 29 214 38 40
44 33 30 214 38 40
44 33 31 214 38 40
44 33 32 214 38 40
44 33 33 214 38 40
44 33 34 214 38 40
44 33 35 214 38 40
44 33 36 214 38 40
44 33 37 214 38 40
44 33 38 214 38 40
44 33 39 214 38 40
44 34 29 214 38 40
44 34 30 214 38 40
44 34 31 214 38 40
44 34 32 214 38 40
44 34 33 214 38 40
44 34 34 214 38 40
44 34 35 214 38 40
44 34 36 214 38 40
44 34 37 214 38 40
44 34 38 214 38 40
44 34 39 214 38 40
45 33 27 214 38 40
45 33 28 214 38 40
45 33 29 214 38 40
45 33 30 214 38 40
45 33 31 214 38 40
45 33 32 214 38 40
45 33 33 214 38 40
45 33 34 214 38 40
45 33 35 214 38 40
45 33 36 214 38 40
45 33 37 214 38 40
45 33 38 214 38 40
45 33 39 214 38 40
45 34 29 214 38 40
45 34 30 214 38 40
45 34 31 214 38 40
45 34 32 214 38 40
45 34 33 214 38 40
45 34 34 214 38 40
45 34 35 214 38 40
45 34 36 214 38 40
45 34 37 214 38 40
45 34 38 214 38 40
45 34 39 214 38 40
45 34 41 214 38 40
46 33 25 214 38 40
46 33 28 214 38 40
46 33 29 214 38 40
46 33 30 214 38 40
46 33 31 214 38 40
46 33 32 214 38 40
46 33 33 214 38 40
46 33 34 214 38 40
46 33 35 214 38 40
46 33 36 214 38 40
46 33 37 214 38 40
46 33 38 214 38 40
46 33 39 214 38 40
46 34 26 214 38 40
46 34 29 214 38 40
46 34 30 214 38 40
46 34 31 214 38 40
46 34 32 214 38 40
46 34 33 214 38 40
46 34 34 214 38 40
46 34 35 214 38 40
46 34 36 214 38 40
46 34 37 214 38 40
46 34 38 214 38 40
46 34 39 214 38 40
46 34 41 214 38 40
47 33 25 214 38 40
47 33 29 214 38 40
47 33 31 214 38 40
47 33 32 214 38 40
47 33 33 214 38 40
47 33 34 214 38 40
47 33 35 214 38 40
47 33 36 214 38 40
47 33 37 214 38 40
47 33 38 214 38 40
47 33 39 214 38 40
47 34 26 214 38 40
47 34 30 214 38 40
47 34 31 214 38 40
47 34 32 214 38 40
47 34 33 214 38 40
47 34 34 214 38 40
47 34 35 214 38 40
47 34 36 214 38 40
47 34 37 214 38 40
47 34 38 214 38 40
47 34 39 214 38 40
48 33 30 214 38 40
48 33 31 214 38 40
49 33 31 214 38 40
49 33 33 214 38 40
50 33 33 214 38 40
50 34 27 214 38 40
51 33 29 214 38 40
51 33 30 214 38 40
51 33 31 214 38 40
52 0 59 43 160 4
52 33 31 214 38 40
53 0 58 43 160 4
53 0 59 43 160 4
53 33 33 214 38 40
54 0 57 43 160 4
54 0 58 43 160 4
54 0 59 43 160 4
54 15 55 158 216 229
54 15 56 158 216 229
55 0 57 43 160 4
55 0 58 43 160 4
55 0 59 43 160 4
55 33 36 214 38 40
56 0 57 43 160 4
56 0 58 43 160 4
56 0 59 43 160 4
57 0 59 43 160 4
