ply
format ascii 1.0
element vertex 2953
property float x
property float y
property float z
property uchar red
property uchar green
property uchar blue
end_header
0 0 46 43 160 4
0 0 47 43 160 4
0 0 48 43 160 4
0 0 49 43 160 4
0 0 50 43 160 4
0 0 51 43 160 4
0 0 52 43 160 4
0 0 53 43 160 4
0 0 54 43 160 4
0 0 55 43 160 4
0 0 56 43 160 4
0 0 57 43 160 4
0 0 58 43 160 4
0 0 59 43 160 4
1 0 45 43 160 4
1 0 46 43 160 4
1 0 47 43 160 4
1 0 48 43 160 4
1 0 49 43 160 4
1 0 50 43 160 4
1 0 51 43 160 4
1 0 52 43 160 4
1 0 53 43 160 4
1 0 54 43 160 4
1 0 55 43 160 4
1 0 56 43 160 4
1 0 57 43 160 4
1 0 58 43 160 4
1 0 59 43 160 4
2 0 43 43 160 4
2 0 44 43 160 4
2 0 45 43 160 4
2 0 46 43 160 4
2 0 47 43 160 4
2 0 48 43 160 4
2 0 49 43 160 4
2 0 50 43 160 4
2 0 51 43 160 4
2 0 52 43 160 4
2 0 53 43 160 4
2 0 54 43 160 4
2 0 55 43 160 4
2 0 56 43 160 4
2 0 57 43 160 4
2 0 58 43 160 4
2 0 59 43 160 4
3 0 41 43 160 4
3 0 42 43 160 4
3 0 43 43 160 4
3 0 44 43 160 4
3 0 45 43 160 4
3 0 46 43 160 4
3 0 47 43 160 4
3 0 48 43 160 4
3 0 49 43 160 4
3 0 50 43 160 4
3 0 51 43 160 4
3 0 52 43 160 4
3 0 53 43 160 4
3 0 54 43 160 4
3 0 55 43 160 4
3 0 56 43 160 4
3 0 57 43 160 4
3 0 58 43 160 4
3 0 59 43 160 4
4 0 39 43 160 4
4 0 40 43 160 4
4 0 41 43 160 4
4 0 42 43 160 4
4 0 43 43 160 4
4 0 44 43 160 4
4 0 45 43 160 4
4 0 46 43 160 4
4 0 47 43 160 4
4 0 48 43 160 4
4 0 49 43 160 4
4 0 50 43 160 4
4 0 51 43 160 4
4 0 52 43 160 4
4 0 53 43 160 4
4 0 54 43 160 4
4 0 55 43 160 4
4 0 56 43 160 4
4 0 57 43 160 4
4 0 58 43 160 4
4 0 59 43 160 4
5 0 37 43 160 4
5 0 38 43 160 4
5 0 39 43 160 4
5 0 40 43 160 4
5 0 41 43 160 4
5 0 42 43 160 4
5 0 43 43 160 4
5 0 44 43 160 4
5 0 45 43 160 4
5 0 46 43 160 4
5 0 47 43 160 4
5 0 48 43 160 4
5 0 49 43 160 4
5 0 50 43 160 4
5 0 51 43 160 4
5 0 52 43 160 4
5 0 53 43 160 4
5 0 54 43 160 4
5 0 55 43 160 4
5 0 56 43 160 4
5 0 57 43 160 4
5 0 58 43 160 4
5 0 59 43 160 4
6 0 36 43 160 4
6 0 37 43 160 4
6 0 38 43 160 4
6 0 39 43 160 4
6 0 40 43 160 4
6 0 41 43 160 4
6 0 42 43 160 4
6 0 43 43 160 4
6 0 44 43 160 4
6 0 45 43 160 4
6 0 46 43 160 4
6 0 47 43 160 4
6 0 48 43 160 4
6 0 49 43 160 4
6 0 50 43 160 4
6 0 51 43 160 4
6 0 52 43 160 4
6 0 53 43 160 4
6 0 54 43 160 4
6 0 55 43 160 4
6 0 56 43 160 4
6 0 57 43 160 4
6 0 58 43 160 4
6 0 59 43 160 4
7 0 34 43 160 4
7 0 35 43 160 4
7 0 36 43 160 4
7 0 37 43 160 4
7 0 38 43 160 4
7 0 39 43 160 4
7 0 40 43 160 4
7 0 41 43 160 4
7 0 42 43 160 4
7 0 43 43 160 4
7 0 44 43 160 4
7 0 45 43 160 4
7 0 46 43 160 4
7 0 47 43 160 4
7 0 48 43 160 4
7 0 49 43 160 4
7 0 50 43 160 4
7 0 51 43 160 4
7 0 52 43 160 4
7 0 53 43 160 4
7 0 54 43 160 4
7 0 55 43 160 4
7 0 56 43 160 4
7 0 57 43 160 4
7 0 58 43 160 4
7 0 59 43 160 4
8 0 32 43 160 4
8 0 33 43 160 4
8 0 34 43 160 4
8 0 35 43 160 4
8 0 36 43 160 4
8 0 37 43 160 4
8 0 38 43 160 4
8 0 39 43 160 4
8 0 40 43 160 4
8 0 41 43 160 4
8 0 42 43 160 4
8 0 43 43 160 4
8 0 44 43 160 4
8 0 45 43 160 4
8 0 46 43 160 4
8 0 47 43 160 4
8 0 48 43 160 4
8 0 49 43 160 4
8 0 50 43 160 4
8 0 51 43 160 4
8 0 52 43 160 4
8 0 53 43 160 4
8 0 54 43 160 4
8 0 55 43 160 4
8 0 56 43 160 4
8 0 57 43 160 4
8 0 58 43 160 4
8 0 59 43 160 4
9 0 30 43 160 4
9 0 31 43 160 4
9 0 32 43 160 4
9 0 33 43 160 4
9 0 34 43 160 4
9 0 35 43 160 4
9 0 36 43 160 4
9 0 37 43 160 4
9 0 38 43 160 4
9 0 39 43 160 4
9 0 40 43 160 4
9 0 41 43 160 4
9 0 42 43 160 4
9 0 43 43 160 4
9 0 44 43 160 4
9 0 45 43 160 4
9 0 46 43 160 4
9 0 47 43 160 4
9 0 48 43 160 4
9 0 49 43 160 4
9 0 50 43 160 4
9 0 51 43 160 4
9 0 52 43 160 4
9 0 53 43 160 4
9 0 54 43 160 4
9 0 55 43 160 4
9 0 56 43 160 4
9 0 57 43 160 4
9 0 58 43 160 4
9 0 59 43 160 4
10 0 28 43 160 4
10 0 29 43 160 4
10 0 30 43 160 4
10 0 31 43 160 4
10 0 32 43 160 4
10 0 33 43 160 4
10 0 34 43 160 4
10 0 35 43 160 4
10 0 36 43 160 4
10 0 37 43 160 4
10 0 38 43 160 4
10 0 39 43 160 4
10 0 40 43 160 4
10 0 41 43 160 4
10 0 42 43 160 4
10 0 43 43 160 4
10 0 44 43 160 4
10 0 45 43 160 4
10 0 46 43 160 4
10 0 47 43 160 4
10 0 48 43 160 4
10 0 49 43 160 4
10 0 50 43 160 4
10 0 51 43 160 4
10 0 52 43 160 4
10 0 53 43 160 4
10 0 54 43 160 4
10 0 55 43 160 4
10 0 56 43 160 4
10 0 57 43 160 4
10 0 58 43 160 4
10 0 59 43 160 4
11 0 27 43 160 4
11 0 28 43 160 4
11 0 29 43 160 4
11 0 30 43 160 4
11 0 31 43 160 4
11 0 32 43 160 4
11 0 33 43 160 4
11 0 34 43 160 4
11 0 35 43 160 4
11 0 36 43 160 4
11 0 37 43 160 4
11 0 38 43 160 4
11 0 39 43 160 4
11 0 40 43 160 4
11 0 41 43 160 4
11 0 42 43 160 4
11 0 43 43 160 4
11 0 44 43 160 4
11 0 45 43 160 4
11 0 46 43 160 4
11 0 47 43 160 4
11 0 48 43 160 4
11 0 49 43 160 4
11 0 50 43 160 4
11 0 51 43 160 4
11 0 52 43 160 4
11 0 53 43 160 4
11 0 54 43 160 4
11 0 55 43 160 4
11 0 56 43 160 4
11 0 57 43 160 4
11 0 58 43 160 4
11 0 59 43 160 4
12 0 25 43 160 4
12 0 26 43 160 4
12 0 27 43 160 4
12 0 28 43 160 4
12 0 29 43 160 4
12 0 30 43 160 4
12 0 31 43 160 4
12 0 32 43 160 4
12 0 33 43 160 4
12 0 34 43 160 4
12 0 35 43 160 4
12 0 36 43 160 4
12 0 37 43 160 4
12 0 38 43 160 4
12 0 39 43 160 4
12 0 40 43 160 4
12 0 41 43 160 4
12 0 42 43 160 4
12 0 43 43 160 4
12 0 44 43 160 4
12 0 45 43 160 4
12 0 46 43 160 4
12 0 47 43 160 4
12 0 48 43 160 4
12 0 49 43 160 4
12 0 50 43 160 4
12 0 51 43 160 4
12 0 52 43 160 4
12 0 53 43 160 4
12 0 54 43 160 4
12 0 55 43 160 4
12 0 56 43 160 4
12 0 57 43 160 4
12 0 58 43 160 4
12 0 59 43 160 4
13 0 23 43 160 4
13 0 24 43 160 4
13 0 25 43 160 4
13 0 26 43 160 4
13 0 27 43 160 4
13 0 28 43 160 4
13 0 29 43 160 4
13 0 30 43 160 4
13 0 31 43 160 4
13 0 32 43 160 4
13 0 33 43 160 4
13 0 34 43 160 4
13 0 35 43 160 4
13 0 36 43 160 4
13 0 37 43 160 4
13 0 38 43 160 4
13 0 39 43 160 4
13 0 40 43 160 4
13 0 41 43 160 4
13 0 42 43 160 4
13 0 43 43 160 4
13 0 44 43 160 4
13 0 45 43 160 4
13 0 46 43 160 4
13 0 47 43 160 4
13 0 48 43 160 4
13 0 49 43 160 4
13 0 50 43 160 4
13 0 51 43 160 4
13 0 52 43 160 4
13 0 53 43 160 4
13 0 54 43 160 4
13 0 55 43 160 4
13 0 56 43 160 4
13 0 57 43 160 4
13 0 58 43 160 4
13 0 59 43 160 4
14 0 21 43 160 4
14 0 22 43 160 4
14 0 23 43 160 4
14 0 24 43 160 4
14 0 25 43 160 4
14 0 26 43 160 4
14 0 27 43 160 4
14 0 28 43 160 4
14 0 29 43 160 4
14 0 30 43 160 4
14 0 31 43 160 4
14 0 32 43 160 4
14 0 33 43 160 4
14 0 34 43 160 4
14 0 35 43 160 4
14 0 36 43 160 4
14 0 37 43 160 4
14 0 38 43 160 4
14 0 39 43 160 4
14 0 40 43 160 4
14 0 41 43 160 4
14 0 42 43 160 4
14 0 43 43 160 4
14 0 44 43 160 4
14 0 45 43 160 4
14 0 46 43 160 4
14 0 47 43 160 4
14 0 48 43 160 4
14 0 49 43 160 4
14 0 50 43 160 4
14 0 51 43 160 4
14 0 52 43 160 4
14 0 53 43 160 4
14 0 54 43 160 4
14 0 55 43 160 4
14 0 56 43 160 4
14 0 57 43 160 4
14 0 58 43 160 4
14 0 59 43 160 4
15 0 19 43 160 4
15 0 20 43 160 4
15 0 21 43 160 4
15 0 22 43 160 4
15 0 23 43 160 4
15 0 24 43 160 4
15 0 25 43 160 4
15 0 26 43 160 4
15 0 27 43 160 4
15 0 28 43 160 4
15 0 29 43 160 4
15 0 30 43 160 4
15 0 31 43 160 4
15 0 32 43 160 4
15 0 33 43 160 4
15 0 34 43 160 4
15 0 35 43 160 4
15 0 36 43 160 4
15 0 37 43 160 4
15 0 38 43 160 4
15 0 39 43 160 4
15 0 40 43 160 4
15 0 41 43 160 4
15 0 42 43 160 4
15 0 43 43 160 4
15 0 44 43 160 4
15 0 45 43 160 4
15 0 46 43 160 4
15 0 47 43 160 4
15 0 48 43 160 4
15 0 49 43 160 4
15 0 50 43 160 4
15 0 51 43 160 4
15 0 52 43 160 4
15 0 53 43 160 4
15 0 54 43 160 4
15 0 55 43 160 4
15 0 56 43 160 4
15 0 57 43 160 4
15 0 58 43 160 4
15 0 59 43 160 4
16 0 18 43 160 4
16 0 19 43 160 4
16 0 20 43 160 4
16 0 21 43 160 4
16 0 22 43 160 4
16 0 23 43 160 4
16 0 24 43 160 4
16 0 25 43 160 4
16 0 26 43 160 4
16 0 27 43 160 4
16 0 28 43 160 4
16 0 29 43 160 4
16 0 30 43 160 4
16 0 31 43 160 4
16 0 32 43 160 4
16 0 33 43 160 4
16 0 34 43 160 4
16 0 35 43 160 4
16 0 36 43 160 4
16 0 37 43 160 4
16 0 38 43 160 4
16 0 39 43 160 4
16 0 40 43 160 4
16 0 41 43 160 4
16 0 42 43 160 4
16 0 43 43 160 4
16 0 44 43 160 4
16 0 45 43 160 4
16 0 46 43 160 4
16 0 47 43 160 4
16 0 48 43 160 4
16 0 49 43 160 4
16 0 50 43 160 4
16 0 51 43 160 4
16 0 52 43 160 4
16 0 53 43 160 4
16 0 54 43 160 4
16 0 55 43 160 4
16 0 56 43 160 4
16 0 57 43 160 4
16 0 58 43 160 4
16 0 59 43 160 4
17 0 16 43 160 4
17 0 17 43 160 4
17 0 18 43 160 4
17 0 19 43 160 4
17 0 20 43 160 4
17 0 21 43 160 4
17 0 22 43 160 4
17 0 23 43 160 4
17 0 24 43 160 4
17 0 25 43 160 4
17 0 26 43 160 4
17 0 27 43 160 4
17 0 28 43 160 4
17 0 29 43 160 4
17 0 30 43 160 4
17 0 31 43 160 4
17 0 32 43 160 4
17 0 33 43 160 4
17 0 34 43 160 4
17 0 35 43 160 4
17 0 36 43 160 4
17 0 37 43 160 4
17 0 38 43 160 4
17 0 39 43 160 4
17 0 40 43 160 4
17 0 41 43 160 4
17 0 42 43 160 4
17 0 43 43 160 4
17 0 44 43 160 4
17 0 45 43 160 4
17 0 46 43 160 4
17 0 47 43 160 4
17 0 48 43 160 4
17 0 49 43 160 4
17 0 50 43 160 4
17 0 51 43 160 4
17 0 52 43 160 4
17 0 53 43 160 4
17 0 54 43 160 4
17 0 55 43 160 4
17 0 56 43 160 4
17 0 57 43 160 4
17 0 58 43 160 4
17 0 59 43 160 4
18 0 14 43 160 4
18 0 15 43 160 4
18 0 16 43 160 4
18 0 17 43 160 4
18 0 18 43 160 4
18 0 19 43 160 4
18 0 20 43 160 4
18 0 21 43 160 4
18 0 22 43 160 4
18 0 23 43 160 4
18 0 24 43 160 4
18 0 25 43 160 4
18 0 26 43 160 4
18 0 27 43 160 4
18 0 28 43 160 4
18 0 29 43 160 4
18 0 30 43 160 4
18 0 31 43 160 4
18 0 32 43 160 4
18 0 33 43 160 4
18 0 34 43 160 4
18 0 35 43 160 4
18 0 36 43 160 4
18 0 37 43 160 4
18 0 38 43 160 4
18 0 39 43 160 4
18 0 40 43 160 4
18 0 41 43 160 4
18 0 42 43 160 4
18 0 43 43 160 4
18 0 44 43 160 4
18 0 45 43 160 4
18 0 46 43 160 4
18 0 47 43 160 4
18 0 48 43 160 4
18 0 49 43 160 4
18 0 50 43 160 4
18 0 51 43 160 4
18 0 52 43 160 4
18 0 53 43 160 4
18 0 54 43 160 4
18 0 55 43 160 4
18 0 56 43 160 4
18 0 57 43 160 4
18 0 58 43 160 4
18 0 59 43 160 4
19 0 12 43 160 4
19 0 13 43 160 4
19 0 14 43 160 4
19 0 15 43 160 4
19 0 16 43 160 4
19 0 17 43 160 4
19 0 18 43 160 4
19 0 19 43 160 4
19 0 20 43 160 4
19 0 21 43 160 4
19 0 22 43 160 4
19 0 23 43 160 4
19 0 24 43 160 4
19 0 25 43 160 4
19 0 26 43 160 4
19 0 27 43 160 4
19 0 28 43 160 4
19 0 29 43 160 4
19 0 30 43 160 4
19 0 31 43 160 4
19 0 32 43 160 4
19 0 33 43 160 4
19 0 34 43 160 4
19 0 35 43 160 4
19 0 36 43 160 4
19 0 37 43 160 4
19 0 38 43 160 4
19 0 39 43 160 4
19 0 40 43 160 4
19 0 41 43 160 4
19 0 42 43 160 4
19 0 43 43 160 4
19 0 44 43 160 4
19 0 45 43 160 4
19 0 46 43 160 4
19 0 47 43 160 4
19 0 48 43 160 4
19 0 49 43 160 4
19 0 50 43 160 4
19 0 51 43 160 4
19 0 52 43 160 4
19 0 53 43 160 4
19 0 54 43 160 4
19 0 55 43 160 4
19 0 56 43 160 4
19 0 57 43 160 4
19 0 58 43 160 4
19 0 59 43 160 4
20 0 11 43 160 4
20 0 12 43 160 4
20 0 13 43 160 4
20 0 14 43 160 4
20 0 15 43 160 4
20 0 16 43 160 4
20 0 17 43 160 4
20 0 18 43 160 4
20 0 19 43 160 4
20 0 20 43 160 4
20 0 21 43 160 4
20 0 22 43 160 4
20 0 23 43 160 4
20 0 24 43 160 4
20 0 25 43 160 4
20 0 26 43 160 4
20 0 27 43 160 4
20 0 28 43 160 4
20 0 29 43 160 4
20 0 30 43 160 4
20 0 31 43 160 4
20 0 32 43 160 4
20 0 33 43 160 4
20 0 34 43 160 4
20 0 35 43 160 4
20 0 36 43 160 4
20 0 37 43 160 4
20 0 38 43 160 4
20 0 39 43 160 4
20 0 40 43 160 4
20 0 41 43 160 4
20 0 42 43 160 4
20 0 43 43 160 4
20 0 44 43 160 4
20 0 45 43 160 4
20 0 46 43 160 4
20 0 47 43 160 4
20 0 48 43 160 4
20 0 49 43 160 4
20 0 50 43 160 4
20 0 51 43 160 4
20 0 52 43 160 4
20 0 53 43 160 4
20 0 54 43 160 4
20 0 55 43 160 4
20 0 56 43 160 4
20 0 57 43 160 4
20 0 58 43 160 4
20 0 59 43 160 4
21 0 11 43 160 4
21 0 12 43 160 4
21 0 13 43 160 4
21 0 14 43 160 4
21 0 15 43 160 4
21 0 16 43 160 4
21 0 17 43 160 4
21 0 18 43 160 4
21 0 19 43 160 4
21 0 20 43 160 4
21 0 21 43 160 4
21 0 22 43 160 4
21 0 23 43 160 4
21 0 24 43 160 4
21 0 25 43 160 4
21 0 26 43 160 4
21 0 27 43 160 4
21 0 28 43 160 4
21 0 29 43 160 4
21 0 30 43 160 4
21 0 31 43 160 4
21 0 32 43 160 4
21 0 33 43 160 4
21 0 34 43 160 4
21 0 35 43 160 4
21 0 36 43 160 4
21 0 37 43 160 4
21 0 38 43 160 4
21 0 39 43 160 4
21 0 40 43 160 4
21 0 41 43 160 4
21 0 42 43 160 4
21 0 43 43 160 4
21 0 44 43 160 4
21 0 45 43 160 4
21 0 46 43 160 4
21 0 47 43 160 4
21 0 48 43 160 4
21 0 49 43 160 4
21 0 50 43 160 4
21 0 51 43 160 4
21 0 52 43 160 4
21 0 53 43 160 4
21 0 54 43 160 4
21 0 55 43 160 4
21 0 56 43 160 4
21 0 57 43 160 4
21 0 58 43 160 4
21 0 59 43 160 4
22 0 11 43 160 4
22 0 12 43 160 4
22 0 13 43 160 4
22 0 14 43 160 4
22 0 15 43 160 4
22 0 16 43 160 4
22 0 17 43 160 4
22 0 18 43 160 4
22 0 19 43 160 4
22 0 20 43 160 4
22 0 21 43 160 4
22 0 22 43 160 4
22 0 23 43 160 4
22 0 24 43 160 4
22 0 25 43 160 4
22 0 26 43 160 4
22 0 27 43 160 4
22 0 28 43 160 4
22 0 29 43 160 4
22 0 30 43 160 4
22 0 31 43 160 4
22 0 32 43 160 4
22 0 33 43 160 4
22 0 34 43 160 4
22 0 35 43 160 4
22 0 36 43 160 4
22 0 37 43 160 4
22 0 38 43 160 4
22 0 39 43 160 4
22 0 40 43 160 4
22 0 41 43 160 4
22 0 42 43 160 4
22 0 43 43 160 4
22 0 44 43 160 4
22 0 45 43 160 4
22 0 46 43 160 4
22 0 47 43 160 4
22 0 48 43 160 4
22 0 49 43 160 4
22 0 50 43 160 4
22 0 51 43 160 4
22 0 52 43 160 4
22 0 53 43 160 4
22 0 54 43 160 4
22 0 55 43 160 4
22 0 56 43 160 4
22 0 57 43 160 4
22 0 58 43 160 4
22 0 59 43 160 4
23 0 11 43 160 4
23 0 12 43 160 4
23 0 13 43 160 4
23 0 14 43 160 4
23 0 15 43 160 4
23 0 16 43 160 4
23 0 17 43 160 4
23 0 18 43 160 4
23 0 19 43 160 4
23 0 20 43 160 4
23 0 21 43 160 4
23 0 22 43 160 4
23 0 23 43 160 4
23 0 24 43 160 4
23 0 25 43 160 4
23 0 26 43 160 4
23 0 27 43 160 4
23 0 28 43 160 4
23 0 29 43 160 4
23 0 30 43 160 4
23 0 31 43 160 4
23 0 32 43 160 4
23 0 33 43 160 4
23 0 34 43 160 4
23 0 35 43 160 4
23 0 36 43 160 4
23 0 37 43 160 4
23 0 38 43 160 4
23 0 39 43 160 4
23 0 40 43 160 4
23 0 41 43 160 4
23 0 42 43 160 4
23 0 43 43 160 4
23 0 44 43 160 4
23 0 45 43 160 4
23 0 46 43 160 4
23 0 47 43 160 4
23 0 48 43 160 4
23 0 49 43 160 4
23 0 50 43 160 4
23 0 51 43 160 4
23 0 52 43 160 4
23 0 53 43 160 4
23 0 54 43 160 4
23 0 55 43 160 4
23 0 56 43 160 4
23 0 57 43 160 4
23 0 58 43 160 4
23 0 59 43 160 4
24 0 11 43 160 4
24 0 12 43 160 4
24 0 13 43 160 4
24 0 14 43 160 4
24 0 15 43 160 4
24 0 16 43 160 4
24 0 17 43 160 4
24 0 18 43 160 4
24 0 19 43 160 4
24 0 20 43 160 4
24 0 21 43 160 4
24 0 22 43 160 4
24 0 23 43 160 4
24 0 24 43 160 4
24 0 25 43 160 4
24 0 26 43 160 4
24 0 27 43 160 4
24 0 28 43 160 4
24 0 29 43 160 4
24 0 30 43 160 4
24 0 31 43 160 4
24 0 32 43 160 4
24 0 33 43 160 4
24 0 34 43 160 4
24 0 35 43 160 4
24 0 36 43 160 4
24 0 37 43 160 4
24 0 38 43 160 4
24 0 39 43 160 4
24 0 40 43 160 4
24 0 41 43 160 4
24 0 42 43 160 4
24 0 43 43 160 4
24 0 44 43 160 4
24 0 45 43 160 4
24 0 46 43 160 4
24 0 47 43 160 4
24 0 48 43 160 4
24 0 49 43 160 4
24 0 50 43 160 4
24 0 51 43 160 4
24 0 52 43 160 4
24 0 53 43 160 4
24 0 54 43 160 4
24 0 55 43 160 4
24 0 56 43 160 4
24 0 57 43 160 4
24 0 58 43 160 4
24 0 59 43 160 4
24 6 6 158 216 229
24 7 7 158 216 229
24 8 7 158 216 229
24 10 8 158 216 229
25 0 11 43 160 4
25 0 12 43 160 4
25 0 13 43 160 4
25 0 14 43 160 4
25 0 15 43 160 4
25 0 16 43 160 4
25 0 17 43 160 4
25 0 18 43 160 4
25 0 19 43 160 4
25 0 20 43 160 4
25 0 21 43 160 4
25 0 22 43 160 4
25 0 23 43 160 4
25 0 24 43 160 4
25 0 25 43 160 4
25 0 26 43 160 4
25 0 27 43 160 4
25 0 28 43 160 4
25 0 29 43 160 4
25 0 30 43 160 4
25 0 31 43 160 4
25 0 32 43 160 4
25 0 33 43 160 4
25 0 34 43 160 4
25 0 35 43 160 4
25 0 36 43 160 4
25 0 37 43 160 4
25 0 38 43 160 4
25 0 39 43 160 4
25 0 40 43 160 4
25 0 41 43 160 4
25 0 42 43 160 4
25 0 43 43 160 4
25 0 44 43 160 4
25 0 45 43 160 4
25 0 46 43 160 4
25 0 47 43 160 4
25 0 48 43 160 4
25 0 49 43 160 4
25 0 50 43 160 4
25 0 51 43 160 4
25 0 52 43 160 4
25 0 53 43 160 4
25 0 56 43 160 4
25 3 8 158 216 229
25 4 8 158 216 229
25 5 7 158 216 229
25 5 8 158 216 229
25 6 6 158 216 229
25 6 7 158 216 229
25 6 8 158 216 229
25 7 5 158 216 229
25 7 6 158 216 229
25 7 7 158 216 229
25 7 8 158 216 229
25 8 6 158 216 229
25 8 7 158 216 229
25 8 8 158 216 229
25 9 6 158 216 229
25 9 7 158 216 229
25 9 8 158 216 229
25 10 7 158 216 229
25 10 8 158 216 229
25 11 7 158 216 229
25 11 8 158 216 229
25 12 8 158 216 229
25 13 8 158 216 229
25 13 9 158 216 229
26 0 11 43 160 4
26 0 12 43 160 4
26 0 13 43 160 4
26 0 14 43 160 4
26 0 15 43 160 4
26 0 16 43 160 4
26 0 17 43 160 4
26 0 18 43 160 4
26 0 19 43 160 4
26 0 20 43 160 4
26 0 21 43 160 4
26 0 22 43 160 4
26 0 23 43 160 4
26 0 24 43 160 4
26 0 25 43 160 4
26 0 26 43 160 4
26 0 27 43 160 4
26 0 28 43 160 4
26 0 29 43 160 4
26 0 30 43 160 4
26 0 31 43 160 4
26 0 32 43 160 4
26 0 33 43 160 4
26 0 34 43 160 4
26 0 35 43 160 4
26 0 36 43 160 4
26 0 37 43 160 4
26 0 38 43 160 4
26 0 39 43 160 4
26 0 40 43 160 4
26 0 41 43 160 4
26 0 42 43 160 4
26 0 49 43 160 4
26 0 50 43 160 4
26 0 51 43 160 4
26 0 52 43 160 4
26 0 53 43 160 4
26 0 54 43 160 4
26 0 55 43 160 4
26 0 56 43 160 4
26 0 57 43 160 4
26 0 58 43 160 4
26 0 59 43 160 4
26 1 11 158 216 229
26 2 9 158 216 229
26 3 8 158 216 229
26 3 9 158 216 229
26 4 8 158 216 229
26 4 9 158 216 229
26 4 11 158 216 229
26 5 7 158 216 229
26 5 8 158 216 229
26 5 9 158 216 229
26 5 11 158 216 229
26 6 7 158 216 229
26 6 8 158 216 229
26 6 9 158 216 229
26 6 11 158 216 229
26 7 7 158 216 229
26 7 8 158 216 229
26 7 9 158 216 229
26 7 11 158 216 229
26 8 7 158 216 229
26 8 8 158 216 229
26 8 9 158 216 229
26 8 11 158 216 229
26 9 7 158 216 229
26 9 8 158 216 229
26 9 9 158 216 229
26 10 7 158 216 229
26 10 8 158 216 229
26 10 9 158 216 229
26 10 11 158 216 229
26 10 45 158 216 229
26 11 7 158 216 229
26 11 8 158 216 229
26 11 9 158 216 229
26 12 7 158 216 229
26 12 8 158 216 229
26 12 9 158 216 229
26 13 7 158 216 229
26 13 8 158 216 229
26 13 9 158 216 229
26 13 10 158 216 229
26 13 11 158 216 229
27 0 12 43 160 4
27 0 13 43 160 4
27 0 14 43 160 4
27 0 15 43 160 4
27 0 16 43 160 4
27 0 17 43 160 4
27 0 18 43 160 4
27 0 19 43 160 4
27 0 20 43 160 4
27 0 21 43 160 4
27 0 22 43 160 4
27 0 23 43 160 4
27 0 24 43 160 4
27 0 25 43 160 4
27 0 26 43 160 4
27 0 27 43 160 4
27 0 28 43 160 4
27 0 29 43 160 4
27 0 30 43 160 4
27 0 31 43 160 4
27 0 32 43 160 4
27 0 33 43 160 4
27 0 34 43 160 4
27 0 35 43 160 4
27 0 36 43 160 4
27 0 37 43 160 4
27 0 38 43 160 4
27 0 39 43 160 4
27 0 40 43 160 4
27 0 41 43 160 4
27 0 42 43 160 4
27 0 43 43 160 4
27 0 44 43 160 4
27 0 45 43 160 4
27 0 46 43 160 4
27 0 47 43 160 4
27 0 48 43 160 4
27 0 49 43 160 4
27 0 50 43 160 4
27 0 51 43 160 4
27 0 52 43 160 4
27 0 53 43 160 4
27 0 54 43 160 4
27 0 55 43 160 4
27 0 56 43 160 4
27 0 57 43 160 4
27 0 58 43 160 4
27 0 59 43 160 4
27 1 10 158 216 229
27 2 9 158 216 229
27 2 10 158 216 229
27 3 8 158 216 229
27 3 9 158 216 229
27 3 10 158 216 229
27 4 8 158 216 229
27 4 9 158 216 229
27 4 10 158 216 229
27 5 8 158 216 229
27 5 9 158 216 229
27 5 10 158 216 229
27 6 9 158 216 229
27 6 10 158 216 229
27 7 9 158 216 229
27 7 10 158 216 229
27 8 9 158 216 229
27 8 10 158 216 229
27 9 9 158 216 229
27 9 10 158 216 229
27 9 11 158 216 229
27 9 35 158 216 229
27 10 9 158 216 229
27 10 10 158 216 229
27 10 11 158 216 229
27 10 39 158 216 229
27 10 41 158 216 229
27 10 42 158 216 229
27 11 9 158 216 229
27 11 10 158 216 229
27 11 11 158 216 229
27 12 9 158 216 229
27 12 10 158 216 229
27 12 11 158 216 229
27 13 8 158 216 229
27 13 9 158 216 229
27 13 10 158 216 229
27 13 11 158 216 229
27 13 12 158 216 229
28 0 12 43 160 4
28 0 13 43 160 4
28 0 14 43 160 4
28 0 15 43 160 4
28 0 16 43 160 4
28 0 17 43 160 4
28 0 18 43 160 4
28 0 19 43 160 4
28 0 20 43 160 4
28 0 21 43 160 4
28 0 22 43 160 4
28 0 23 43 160 4
28 0 24 43 160 4
28 0 25 43 160 4
28 0 26 43 160 4
28 0 27 43 160 4
28 0 28 43 160 4
28 0 29 43 160 4
28 0 30 43 160 4
28 0 31 43 160 4
28 0 32 43 160 4
28 0 33 43 160 4
28 0 34 43 160 4
28 0 35 43 160 4
28 0 36 43 160 4
28 0 37 43 160 4
28 0 38 43 160 4
28 0 39 43 160 4
28 0 40 43 160 4
28 0 41 43 160 4
28 0 42 43 160 4
28 0 43 43 160 4
28 0 44 43 160 4
28 0 45 43 160 4
28 0 46 43 160 4
28 0 47 43 160 4
28 0 48 43 160 4
28 0 49 43 160 4
28 0 50 43 160 4
28 0 51 43 160 4
28 0 52 43 160 4
28 0 53 43 160 4
28 0 54 43 160 4
28 0 55 43 160 4
28 0 56 43 160 4
28 0 57 43 160 4
28 0 58 43 160 4
28 0 59 43 160 4
28 1 10 158 216 229
28 2 9 158 216 229
28 2 10 158 216 229
28 2 11 158 216 229
28 3 8 158 216 229
28 3 10 158 216 229
28 3 11 158 216 229
28 4 10 158 216 229
28 4 11 158 216 229
28 5 10 158 216 229
28 5 11 158 216 229
28 6 10 158 216 229
28 6 11 158 216 229
28 7 10 158 216 229
28 7 11 158 216 229
28 8 10 158 216 229
28 8 11 158 216 229
28 9 10 158 216 229
28 9 11 158 216 229
28 10 10 158 216 229
28 10 11 158 216 229
28 11 10 158 216 229
28 11 11 158 216 229
28 12 10 158 216 229
28 12 11 158 216 229
28 13 9 158 216 229
28 13 10 158 216 229
28 13 11 158 216 229
28 13 12 158 216 229
29 0 11 43 160 4
29 0 13 43 160 4
29 0 14 43 160 4
29 0 15 43 160 4
29 0 16 43 160 4
29 0 17 43 160 4
29 0 18 43 160 4
29 0 19 43 160 4
29 0 20 43 160 4
29 0 21 43 160 4
29 0 22 43 160 4
29 0 23 43 160 4
29 0 24 43 160 4
29 0 25 43 160 4
29 0 26 43 160 4
29 0 27 43 160 4
29 0 28 43 160 4
29 0 29 43 160 4
29 0 30 43 160 4
29 0 31 43 160 4
29 0 32 43 160 4
29 0 33 43 160 4
29 0 34 43 160 4
29 0 35 43 160 4
29 0 36 43 160 4
29 0 37 43 160 4
29 0 38 43 160 4
29 0 39 43 160 4
29 0 40 43 160 4
29 0 41 43 160 4
29 0 42 43 160 4
29 0 43 43 160 4
29 0 44 43 160 4
29 0 45 43 160 4
29 0 46 43 160 4
29 0 47 43 160 4
29 0 48 43 160 4
29 0 49 43 160 4
29 0 50 43 160 4
29 0 51 43 160 4
29 0 52 43 160 4
29 0 53 43 160 4
29 0 54 43 160 4
29 0 55 43 160 4
29 0 56 43 160 4
29 0 57 43 160 4
29 0 58 43 160 4
29 0 59 43 160 4
29 1 10 158 216 229
29 1 11 158 216 229
29 1 12 158 216 229
29 2 9 158 216 229
29 2 10 158 216 229
29 2 11 158 216 229
29 2 12 158 216 229
29 3 10 158 216 229
29 3 11 158 216 229
29 4 10 158 216 229
29 4 11 158 216 229
29 5 10 158 216 229
29 5 11 158 216 229
29 6 10 158 216 229
29 6 11 158 216 229
29 7 10 158 216 229
29 7 11 158 216 229
29 8 10 158 216 229
29 8 11 158 216 229
29 9 10 158 216 229
29 9 11 158 216 229
29 10 10 158 216 229
29 10 11 158 216 229
29 11 10 158 216 229
29 11 11 158 216 229
29 12 10 158 216 229
29 12 11 158 216 229
30 0 11 43 160 4
30 0 14 43 160 4
30 0 15 43 160 4
30 0 16 43 160 4
30 0 17 43 160 4
30 0 18 43 160 4
30 0 19 43 160 4
30 0 20 43 160 4
30 0 21 43 160 4
30 0 22 43 160 4
30 0 23 43 160 4
30 0 24 43 160 4
30 0 25 43 160 4
30 0 26 43 160 4
30 0 27 43 160 4
30 0 28 43 160 4
30 0 29 43 160 4
30 0 30 43 160 4
30 0 31 43 160 4
30 0 32 43 160 4
30 0 33 43 160 4
30 0 34 43 160 4
30 0 35 43 160 4
30 0 36 43 160 4
30 0 37 43 160 4
30 0 38 43 160 4
30 0 39 43 160 4
30 0 40 43 160 4
30 0 41 43 160 4
30 0 42 43 160 4
30 0 43 43 160 4
30 0 44 43 160 4
30 0 45 43 160 4
30 0 46 43 160 4
30 0 47 43 160 4
30 0 48 43 160 4
30 0 49 43 160 4
30 0 50 43 160 4
30 0 51 43 160 4
30 0 52 43 160 4
30 0 53 43 160 4
30 0 54 43 160 4
30 0 55 43 160 4
30 0 56 43 160 4
30 0 57 43 160 4
30 0 58 43 160 4
30 0 59 43 160 4
30 1 10 196 175 214
30 1 11 196 175 214
30 2 10 196 175 214
30 2 11 196 175 214
30 3 10 196 175 214
30 3 11 196 175 214
30 3 12 158 216 229
30 4 10 158 216 229
30 4 11 158 216 229
30 5 10 158 216 229
30 5 11 158 216 229
30 5 12 158 216 229
30 6 10 158 216 229
30 6 11 158 216 229
30 6 12 158 216 229
30 7 10 196 175 214
30 7 11 158 216 229
30 7 12 158 216 229
30 8 10 196 175 214
30 8 11 158 216 229
30 8 12 158 216 229
30 9 10 158 216 229
30 9 11 158 216 229
30 9 12 158 216 229
30 10 10 158 216 229
30 10 11 158 216 229
30 10 12 158 216 229
30 11 10 158 216 229
30 11 11 158 216 229
30 11 12 158 216 229
30 12 10 158 216 229
30 12 11 158 216 229
30 12 12 158 216 229
30 13 11 158 216 229
30 13 12 158 216 229
30 13 13 158 216 229
31 0 11 43 160 4
31 0 12 43 160 4
31 0 16 43 160 4
31 0 17 43 160 4
31 0 18 43 160 4
31 0 19 43 160 4
31 0 20 43 160 4
31 0 21 43 160 4
31 0 22 43 160 4
31 0 23 43 160 4
31 0 24 43 160 4
31 0 25 43 160 4
31 0 26 43 160 4
31 0 27 43 160 4
31 0 28 43 160 4
31 0 29 43 160 4
31 0 30 43 160 4
31 0 31 43 160 4
31 0 32 43 160 4
31 0 33 43 160 4
31 0 34 43 160 4
31 0 35 43 160 4
31 0 36 43 160 4
31 0 37 43 160 4
31 0 38 43 160 4
31 0 39 43 160 4
31 0 40 43 160 4
31 0 41 43 160 4
31 0 42 43 160 4
31 0 43 43 160 4
31 0 44 43 160 4
31 0 45 43 160 4
31 0 46 43 160 4
31 0 47 43 160 4
31 0 48 43 160 4
31 0 49 43 160 4
31 0 50 43 160 4
31 0 51 43 160 4
31 0 52 43 160 4
31 0 53 43 160 4
31 0 54 43 160 4
31 0 55 43 160 4
31 0 56 43 160 4
31 0 57 43 160 4
31 0 58 43 160 4
31 0 59 43 160 4
31 1 10 196 175 214
31 1 11 196 175 214
31 1 12 114 158 206
31 2 10 196 175 214
31 2 11 114 158 206
31 2 12 114 158 206
31 3 10 196 175 214
31 3 11 196 175 214
31 3 12 114 158 206
31 4 10 196 175 214
31 4 11 196 175 214
31 4 12 158 216 229
31 5 10 196 175 214
31 5 11 196 175 214
31 5 12 158 216 229
31 6 10 196 175 214
31 6 11 114 158 206
31 6 12 158 216 229
31 7 10 196 175 214
31 7 11 158 216 229
31 7 12 158 216 229
31 8 10 114 158 206
31 8 11 158 216 229
31 8 12 158 216 229
31 9 10 158 216 229
31 9 11 158 216 229
31 9 12 158 216 229
31 10 10 158 216 229
31 10 11 158 216 229
31 10 12 158 216 229
31 11 10 158 216 229
31 11 11 158 216 229
31 11 12 158 216 229
31 12 10 158 216 229
31 12 11 158 216 229
31 12 12 158 216 229
31 13 15 114 158 206
31 13 16 114 158 206
32 0 11 43 160 4
32 0 12 43 160 4
32 0 13 43 160 4
32 0 14 43 160 4
32 0 15 43 160 4
32 0 17 43 160 4
32 0 18 43 160 4
32 0 19 43 160 4
32 0 20 43 160 4
32 0 21 43 160 4
32 0 22 43 160 4
32 0 23 43 160 4
32 0 24 43 160 4
32 0 25 43 160 4
32 0 26 43 160 4
32 0 27 43 160 4
32 0 28 43 160 4
32 0 29 43 160 4
32 0 30 43 160 4
32 0 31 43 160 4
32 0 32 43 160 4
32 0 33 43 160 4
32 0 34 43 160 4
32 0 35 43 160 4
32 0 36 43 160 4
32 0 37 43 160 4
32 0 38 43 160 4
32 0 39 43 160 4
32 0 40 43 160 4
32 0 41 43 160 4
32 0 42 43 160 4
32 0 43 43 160 4
32 0 44 43 160 4
32 0 45 43 160 4
32 0 46 43 160 4
32 0 47 43 160 4
32 0 48 43 160 4
32 0 49 43 160 4
32 0 50 43 160 4
32 0 51 43 160 4
32 0 52 43 160 4
32 0 53 43 160 4
32 0 54 43 160 4
32 0 55 43 160 4
32 0 56 43 160 4
32 0 57 43 160 4
32 0 58 43 160 4
32 0 59 43 160 4
32 1 11 114 158 206
32 1 12 114 158 206
32 1 13 114 158 206
32 1 14 114 158 206
32 1 15 114 158 206
32 1 17 114 158 206
32 2 12 114 158 206
32 2 13 114 158 206
32 2 15 114 158 206
32 2 17 114 158 206
32 3 12 114 158 206
32 3 13 114 158 206
32 3 15 114 158 206
32 3 17 114 158 206
32 4 11 196 175 214
32 4 12 196 175 214
32 4 13 114 158 206
32 4 15 114 158 206
32 4 17 114 158 206
32 5 11 196 175 214
32 5 12 196 175 214
32 5 13 114 158 206
32 5 15 114 158 206
32 5 17 114 158 206
32 6 11 196 175 214
32 6 12 196 175 214
32 6 13 114 158 206
32 6 15 114 158 206
32 6 17 114 158 206
32 7 6 147 102 188
32 7 12 196 175 214
32 7 13 114 158 206
32 7 14 114 158 206
32 7 15 114 158 206
32 7 17 114 158 206
32 8 5 30 119 181
32 8 12 158 216 229
32 8 13 114 158 206
32 8 14 114 158 206
32 8 15 114 158 206
32 9 12 158 216 229
32 9 13 114 158 206
32 9 14 114 158 206
32 9 15 114 158 206
32 9 17 114 158 206
32 10 12 158 216 229
32 10 13 114 158 206
32 10 14 114 158 206
32 10 15 114 158 206
32 10 16 114 158 206
32 11 12 158 216 229
32 11 13 114 158 206
32 11 14 114 158 206
32 11 15 114 158 206
32 11 16 114 158 206
32 11 17 114 158 206
32 12 12 114 158 206
32 12 13 114 158 206
32 12 14 114 158 206
32 12 15 114 158 206
32 12 16 114 158 206
32 12 17 114 158 206
33 0 11 43 160 4
33 0 12 43 160 4
33 0 13 43 160 4
33 0 14 43 160 4
33 0 15 43 160 4
33 0 16 43 160 4
33 0 19 43 160 4
33 0 20 43 160 4
33 0 21 43 160 4
33 0 22 43 160 4
33 0 23 43 160 4
33 0 24 43 160 4
33 0 25 43 160 4
33 0 26 43 160 4
33 0 27 43 160 4
33 0 28 43 160 4
33 0 29 43 160 4
33 0 30 43 160 4
33 0 31 43 160 4
33 0 32 43 160 4
33 0 33 43 160 4
33 0 34 43 160 4
33 0 35 43 160 4
33 0 36 43 160 4
33 0 37 43 160 4
33 0 38 43 160 4
33 0 39 43 160 4
33 0 40 43 160 4
33 0 41 43 160 4
33 0 42 43 160 4
33 0 43 43 160 4
33 0 44 43 160 4
33 0 45 43 160 4
33 0 46 43 160 4
33 0 47 43 160 4
33 0 48 43 160 4
33 0 49 43 160 4
33 0 50 43 160 4
33 0 51 43 160 4
33 0 52 43 160 4
33 0 53 43 160 4
33 0 54 43 160 4
33 0 55 43 160 4
33 0 56 43 160 4
33 0 57 43 160 4
33 0 58 43 160 4
33 0 59 43 160 4
33 1 10 147 102 188
33 1 13 114 158 206
33 1 14 114 158 206
33 1 15 114 158 206
33 1 16 114 158 206
33 2 15 114 158 206
33 2 16 114 158 206
33 3 15 114 158 206
33 3 16 114 158 206
33 4 15 114 158 206
33 4 16 114 158 206
33 5 15 114 158 206
33 5 16 114 158 206
33 5 18 114 158 206
33 6 6 147 102 188
33 6 8 147 102 188
33 6 15 114 158 206
33 6 16 114 158 206
33 7 5 147 102 188
33 7 6 147 102 188
33 7 8 147 102 188
33 7 15 114 158 206
33 7 16 114 158 206
33 8 4 30 119 181
33 8 6 147 102 188
33 8 7 30 119 181
33 8 15 114 158 206
33 8 16 114 158 206
33 9 15 114 158 206
33 9 16 114 158 206
33 10 15 114 158 206
33 10 16 114 158 206
33 10 17 114 158 206
33 11 15 114 158 206
33 11 16 114 158 206
33 12 15 114 158 206
33 12 16 114 158 206
33 13 14 114 158 206
33 13 15 114 158 206
33 13 16 114 158 206
34 0 12 43 160 4
34 0 13 43 160 4
34 0 14 43 160 4
34 0 15 43 160 4
34 0 16 43 160 4
34 0 17 43 160 4
34 0 19 43 160 4
34 0 20 43 160 4
34 0 21 43 160 4
34 0 22 43 160 4
34 0 23 43 160 4
34 0 24 43 160 4
34 0 25 43 160 4
34 0 26 43 160 4
34 0 27 43 160 4
34 0 28 43 160 4
34 0 29 43 160 4
34 0 30 43 160 4
34 0 31 43 160 4
34 0 32 43 160 4
34 0 33 43 160 4
34 0 34 43 160 4
34 0 35 43 160 4
34 0 36 43 160 4
34 0 37 43 160 4
34 0 38 43 160 4
34 0 39 43 160 4
34 0 40 43 160 4
34 0 41 43 160 4
34 0 42 43 160 4
34 0 43 43 160 4
34 0 44 43 160 4
34 0 45 43 160 4
34 0 46 43 160 4
34 0 47 43 160 4
34 0 48 43 160 4
34 0 49 43 160 4
34 0 50 43 160 4
34 0 51 43 160 4
34 0 52 43 160 4
34 0 53 43 160 4
34 0 54 43 160 4
34 0 55 43 160 4
34 0 56 43 160 4
34 0 57 43 160 4
34 0 58 43 160 4
34 0 59 43 160 4
34 1 12 114 158 206
34 1 15 114 158 206
34 1 16 114 158 206
34 1 17 114 158 206
34 2 15 114 158 206
34 2 16 114 158 206
34 2 17 114 158 206
34 3 15 114 158 206
34 3 16 114 158 206
34 3 17 114 158 206
34 4 8 147 102 188
34 4 15 114 158 206
34 4 16 114 158 206
34 4 17 114 158 206
34 5 15 114 158 206
34 5 16 114 158 206
34 5 17 114 158 206
34 5 19 114 158 206
34 6 7 147 102 188
34 6 8 147 102 188
34 6 10 147 102 188
34 6 15 114 158 206
34 6 16 114 158 206
34 6 17 114 158 206
34 6 19 114 158 206
34 7 5 147 102 188
34 7 6 147 102 188
34 7 7 147 102 188
34 7 8 147 102 188
34 7 9 147 102 188
34 7 15 114 158 206
34 7 16 114 158 206
34 7 17 114 158 206
34 8 5 30 119 181
34 8 8 147 102 188
34 8 15 114 158 206
34 8 16 114 158 206
34 8 17 114 158 206
34 9 15 114 158 206
34 9 16 114 158 206
34 9 17 114 158 206
34 10 15 114 158 206
34 10 16 114 158 206
34 10 17 114 158 206
34 11 15 114 158 206
34 11 16 114 158 206
34 11 17 114 158 206
34 12 15 114 158 206
34 12 16 114 158 206
34 12 17 114 158 206
34 13 16 114 158 206
35 0 14 43 160 4
35 0 15 43 160 4
35 0 16 43 160 4
35 0 17 43 160 4
35 0 18 43 160 4
35 0 20 43 160 4
35 0 21 43 160 4
35 0 22 43 160 4
35 0 23 43 160 4
35 0 24 43 160 4
35 0 25 43 160 4
35 0 26 43 160 4
35 0 27 43 160 4
35 0 28 43 160 4
35 0 29 43 160 4
35 0 30 43 160 4
35 0 31 43 160 4
35 0 32 43 160 4
35 0 33 43 160 4
35 0 34 43 160 4
35 0 35 43 160 4
35 0 36 43 160 4
35 0 37 43 160 4
35 0 38 43 160 4
35 0 39 43 160 4
35 0 40 43 160 4
35 0 41 43 160 4
35 0 42 43 160 4
35 0 43 43 160 4
35 0 44 43 160 4
35 0 45 43 160 4
35 0 46 43 160 4
35 0 47 43 160 4
35 0 48 43 160 4
35 0 49 43 160 4
35 0 50 43 160 4
35 0 51 43 160 4
35 0 52 43 160 4
35 0 53 43 160 4
35 0 54 43 160 4
35 0 55 43 160 4
35 0 56 43 160 4
35 0 57 43 160 4
35 0 58 43 160 4
35 0 59 43 160 4
35 1 13 114 158 206
35 1 14 114 158 206
35 1 16 114 158 206
35 1 17 114 158 206
35 1 18 114 158 206
35 2 9 147 102 188
35 2 10 147 102 188
35 2 17 114 158 206
35 2 18 114 158 206
35 3 8 147 102 188
35 3 9 147 102 188
35 3 10 147 102 188
35 3 17 114 158 206
35 3 18 114 158 206
35 3 20 114 158 206
35 4 8 147 102 188
35 4 10 147 102 188
35 4 17 114 158 206
35 4 18 114 158 206
35 4 20 114 158 206
35 5 7 147 102 188
35 5 8 147 102 188
35 5 17 114 158 206
35 5 18 114 158 206
35 5 20 114 158 206
35 6 6 147 102 188
35 6 9 147 102 188
35 6 10 147 102 188
35 6 11 147 102 188
35 6 17 114 158 206
35 6 18 114 158 206
35 6 21 114 158 206
35 7 7 147 102 188
35 7 8 147 102 188
35 7 9 147 102 188
35 7 10 147 102 188
35 7 17 114 158 206
35 7 18 114 158 206
35 8 7 147 102 188
35 8 9 147 102 188
35 8 16 114 158 206
35 8 17 114 158 206
35 8 18 114 158 206
35 9 16 114 158 206
35 9 17 114 158 206
35 9 18 114 158 206
35 10 16 114 158 206
35 10 17 114 158 206
35 10 19 114 158 206
35 11 16 114 158 206
35 11 17 114 158 206
35 11 19 114 158 206
35 12 16 114 158 206
35 12 17 114 158 206
35 12 19 114 158 206
36 0 11 43 160 4
36 0 16 43 160 4
36 0 17 43 160 4
36 0 18 43 160 4
36 0 21 43 160 4
36 0 22 43 160 4
36 0 23 43 160 4
36 0 24 43 160 4
36 0 25 43 160 4
36 0 26 43 160 4
36 0 27 43 160 4
36 0 28 43 160 4
36 0 29 43 160 4
36 0 30 43 160 4
36 0 31 43 160 4
36 0 32 43 160 4
36 0 33 43 160 4
36 0 34 43 160 4
36 0 35 43 160 4
36 0 36 43 160 4
36 0 37 43 160 4
36 0 38 43 160 4
36 0 39 43 160 4
36 0 40 43 160 4
36 0 41 43 160 4
36 0 42 43 160 4
36 0 43 43 160 4
36 0 44 43 160 4
36 0 45 43 160 4
36 0 46 43 160 4
36 0 47 43 160 4
36 0 48 43 160 4
36 0 49 43 160 4
36 0 50 43 160 4
36 0 51 43 160 4
36 0 52 43 160 4
36 0 53 43 160 4
36 0 54 43 160 4
36 0 55 43 160 4
36 0 56 43 160 4
36 0 57 43 160 4
36 0 58 43 160 4
36 0 59 43 160 4
36 1 10 147 102 188
36 1 11 147 102 188
36 1 15 114 158 206
36 1 16 114 158 206
36 1 17 114 158 206
36 1 18 114 158 206
36 1 21 114 158 206
36 2 9 147 102 188
36 2 10 147 102 188
36 2 17 114 158 206
36 2 18 114 158 206
36 2 19 114 158 206
36 2 21 114 158 206
36 3 8 147 102 188
36 3 9 147 102 188
36 3 10 147 102 188
36 3 17 114 158 206
36 3 18 114 158 206
36 3 19 114 158 206
36 3 21 114 158 206
36 4 8 147 102 188
36 4 9 147 102 188
36 4 10 147 102 188
36 4 11 147 102 188
36 4 17 114 158 206
36 4 18 114 158 206
36 4 19 114 158 206
36 5 8 147 102 188
36 5 9 147 102 188
36 5 12 147 102 188
36 5 17 114 158 206
36 5 18 114 158 206
36 5 19 114 158 206
36 5 20 114 158 206
36 6 10 147 102 188
36 6 11 147 102 188
36 6 17 114 158 206
36 6 18 114 158 206
36 6 19 114 158 206
36 6 20 114 158 206
36 7 9 147 102 188
36 7 10 147 102 188
36 7 11 147 102 188
36 7 17 114 158 206
36 7 18 114 158 206
36 7 19 114 158 206
36 7 20 114 158 206
36 8 9 147 102 188
36 8 10 147 102 188
36 8 17 114 158 206
36 8 18 114 158 206
36 8 19 114 158 206
36 8 20 114 158 206
36 9 18 114 158 206
36 9 19 114 158 206
36 9 20 114 158 206
36 10 19 114 158 206
36 10 20 114 158 206
36 10 21 114 158 206
36 10 22 114 158 206
36 11 19 114 158 206
36 11 20 114 158 206
36 11 21 114 158 206
36 12 19 114 158 206
36 12 20 114 158 206
36 12 21 114 158 206
36 12 22 114 158 206
36 13 16 114 158 206
37 0 11 43 160 4
37 0 12 43 160 4
37 0 13 43 160 4
37 0 18 43 160 4
37 0 19 43 160 4
37 0 20 43 160 4
37 0 22 43 160 4
37 0 23 43 160 4
37 0 24 43 160 4
37 0 25 43 160 4
37 0 26 43 160 4
37 0 27 43 160 4
37 0 28 43 160 4
37 0 29 43 160 4
37 0 30 43 160 4
37 0 31 43 160 4
37 0 32 43 160 4
37 0 33 43 160 4
37 0 34 43 160 4
37 0 35 43 160 4
37 0 36 43 160 4
37 0 37 43 160 4
37 0 38 43 160 4
37 0 39 43 160 4
37 0 40 43 160 4
37 0 41 43 160 4
37 0 42 43 160 4
37 0 43 43 160 4
37 0 44 43 160 4
37 0 45 43 160 4
37 0 46 43 160 4
37 0 47 43 160 4
37 0 48 43 160 4
37 0 49 43 160 4
37 0 50 43 160 4
37 0 51 43 160 4
37 0 52 43 160 4
37 0 53 43 160 4
37 0 54 43 160 4
37 0 55 43 160 4
37 0 56 43 160 4
37 0 57 43 160 4
37 0 58 43 160 4
37 0 59 43 160 4
37 1 10 147 102 188
37 1 17 114 158 206
37 1 18 114 158 206
37 1 19 114 158 206
37 1 20 114 158 206
37 2 9 147 102 188
37 2 10 147 102 188
37 2 18 114 158 206
37 2 19 114 158 206
37 2 20 114 158 206
37 3 9 147 102 188
37 3 10 147 102 188
37 3 18 114 158 206
37 3 19 114 158 206
37 3 20 114 158 206
37 4 9 147 102 188
37 4 10 147 102 188
37 4 18 114 158 206
37 4 19 114 158 206
37 4 20 114 158 206
37 5 10 147 102 188
37 5 11 147 102 188
37 5 13 147 102 188
37 5 14 114 158 206
37 5 19 114 158 206
37 5 20 114 158 206
37 5 21 114 158 206
37 6 10 147 102 188
37 6 12 147 102 188
37 6 13 147 102 188
37 6 19 114 158 206
37 6 20 114 158 206
37 6 22 114 158 206
37 7 10 147 102 188
37 7 11 147 102 188
37 7 12 147 102 188
37 7 13 147 102 188
37 7 19 114 158 206
37 7 20 114 158 206
37 7 21 114 158 206
37 8 11 147 102 188
37 8 20 114 158 206
37 8 21 114 158 206
37 9 20 114 158 206
37 9 21 114 158 206
37 10 20 114 158 206
37 10 21 114 158 206
37 11 20 114 158 206
37 11 21 114 158 206
37 12 20 114 158 206
37 12 21 114 158 206
37 12 23 114 158 206
38 0 11 43 160 4
38 0 12 43 160 4
38 0 13 43 160 4
38 0 14 43 160 4
38 0 15 43 160 4
38 0 19 43 160 4
38 0 20 43 160 4
38 0 21 43 160 4
38 0 23 43 160 4
38 0 24 43 160 4
38 0 25 43 160 4
38 0 26 43 160 4
38 0 27 43 160 4
38 0 28 43 160 4
38 0 29 43 160 4
38 0 30 43 160 4
38 0 31 43 160 4
38 0 32 43 160 4
38 0 33 43 160 4
38 0 34 43 160 4
38 0 35 43 160 4
38 0 36 43 160 4
38 0 37 43 160 4
38 0 38 43 160 4
38 0 39 43 160 4
38 0 40 43 160 4
38 0 41 43 160 4
38 0 42 43 160 4
38 0 43 43 160 4
38 0 44 43 160 4
38 0 45 43 160 4
38 0 46 43 160 4
38 0 47 43 160 4
38 0 48 43 160 4
38 0 49 43 160 4
38 0 50 43 160 4
38 0 51 43 160 4
38 0 52 43 160 4
38 0 53 43 160 4
38 0 54 43 160 4
38 0 55 43 160 4
38 0 56 43 160 4
38 0 57 43 160 4
38 0 58 43 160 4
38 0 59 43 160 4
38 1 10 147 102 188
38 1 11 147 102 188
38 1 18 114 158 206
38 1 19 114 158 206
38 1 20 114 158 206
38 1 21 114 158 206
38 2 10 147 102 188
38 2 11 147 102 188
38 2 20 114 158 206
38 2 21 114 158 206
38 3 10 147 102 188
38 3 11 147 102 188
38 3 20 114 158 206
38 3 21 114 158 206
38 4 11 147 102 188
38 4 15 114 158 206
38 4 20 114 158 206
38 4 21 114 158 206
38 5 14 147 102 188
38 5 15 147 102 188
38 5 20 114 158 206
38 5 21 114 158 206
38 6 12 147 102 188
38 6 13 147 102 188
38 6 14 147 102 188
38 6 15 147 102 188
38 6 20 114 158 206
38 6 21 114 158 206
38 7 12 147 102 188
38 7 13 147 102 188
38 7 14 114 158 206
38 7 20 114 158 206
38 7 21 114 158 206
38 7 23 114 158 206
38 8 13 114 158 206
38 8 20 114 158 206
38 8 21 114 158 206
38 9 20 114 158 206
38 9 21 114 158 206
38 10 20 114 158 206
38 10 21 114 158 206
38 10 22 114 158 206
38 11 20 114 158 206
38 11 21 114 158 206
38 11 22 114 158 206
38 12 20 114 158 206
38 12 21 114 158 206
38 12 22 114 158 206
39 0 11 43 160 4
39 0 12 43 160 4
39 0 13 43 160 4
39 0 14 43 160 4
39 0 15 43 160 4
39 0 16 43 160 4
39 0 17 43 160 4
39 0 20 43 160 4
39 0 21 43 160 4
39 0 22 43 160 4
39 0 23 43 160 4
39 0 24 43 160 4
39 0 25 43 160 4
39 0 26 43 160 4
39 0 27 43 160 4
39 0 28 43 160 4
39 0 29 43 160 4
39 0 30 43 160 4
39 0 31 43 160 4
39 0 32 43 160 4
39 0 33 43 160 4
39 0 34 43 160 4
39 0 35 43 160 4
39 0 36 43 160 4
39 0 37 43 160 4
39 0 38 43 160 4
39 0 39 43 160 4
39 0 40 43 160 4
39 0 41 43 160 4
39 0 42 43 160 4
39 0 43 43 160 4
39 0 44 43 160 4
39 0 45 43 160 4
39 0 46 43 160 4
39 0 47 43 160 4
39 0 48 43 160 4
39 0 49 43 160 4
39 0 50 43 160 4
39 0 51 43 160 4
39 0 52 43 160 4
39 0 53 43 160 4
39 0 54 43 160 4
39 0 55 43 160 4
39 0 56 43 160 4
39 0 57 43 160 4
39 0 58 43 160 4
39 0 59 43 160 4
39 1 11 147 102 188
39 1 20 114 158 206
39 1 21 114 158 206
39 1 22 114 158 206
39 2 12 147 102 188
39 2 20 114 158 206
39 2 21 114 158 206
39 2 22 114 158 206
39 3 12 147 102 188
39 3 20 114 158 206
39 3 21 114 158 206
39 3 22 114 158 206
39 4 13 147 102 188
39 4 20 114 158 206
39 4 21 114 158 206
39 4 22 158 216 229
39 5 15 147 102 188
39 5 21 114 158 206
39 5 22 158 216 229
39 6 14 147 102 188
39 6 15 147 102 188
39 6 16 147 102 188
39 6 17 114 158 206
39 6 21 114 158 206
39 6 22 158 216 229
39 6 24 158 216 229
39 7 14 147 102 188
39 7 15 147 102 188
39 7 16 147 102 188
39 7 21 114 158 206
39 7 22 114 158 206
39 7 23 114 158 206
39 8 21 114 158 206
39 8 22 114 158 206
39 9 21 114 158 206
39 9 22 114 158 206
39 9 23 114 158 206
39 10 21 114 158 206
39 10 22 114 158 206
39 10 23 114 158 206
39 11 21 114 158 206
39 11 22 114 158 206
39 11 23 114 158 206
39 12 21 114 158 206
39 12 22 114 158 206
39 12 23 114 158 206
40 0 12 43 160 4
40 0 13 43 160 4
40 0 14 43 160 4
40 0 15 43 160 4
40 0 16 43 160 4
40 0 17 43 160 4
40 0 18 43 160 4
40 0 22 43 160 4
40 0 23 43 160 4
40 0 24 43 160 4
40 0 25 43 160 4
40 0 26 43 160 4
40 0 27 43 160 4
40 0 28 43 160 4
40 0 29 43 160 4
40 0 30 43 160 4
40 0 31 43 160 4
40 0 32 43 160 4
40 0 33 43 160 4
40 0 34 43 160 4
40 0 35 43 160 4
40 0 36 43 160 4
40 0 37 43 160 4
40 0 38 43 160 4
40 0 39 43 160 4
40 0 40 43 160 4
40 0 41 43 160 4
40 0 42 43 160 4
40 0 43 43 160 4
40 0 44 43 160 4
40 0 45 43 160 4
40 0 46 43 160 4
40 0 47 43 160 4
40 0 48 43 160 4
40 0 49 43 160 4
40 0 50 43 160 4
40 0 51 43 160 4
40 0 52 43 160 4
40 0 53 43 160 4
40 0 54 43 160 4
40 0 55 43 160 4
40 0 56 43 160 4
40 0 57 43 160 4
40 0 58 43 160 4
40 0 59 43 160 4
40 1 21 158 216 229
40 1 22 158 216 229
40 2 20 147 102 188
40 2 21 147 102 188
40 2 22 158 216 229
40 3 20 158 216 229
40 3 21 158 216 229
40 3 22 158 216 229
40 4 15 147 102 188
40 4 21 158 216 229
40 4 22 158 216 229
40 5 17 147 102 188
40 5 18 147 102 188
40 5 19 147 102 188
40 5 21 158 216 229
40 5 22 158 216 229
40 6 16 147 102 188
40 6 17 147 102 188
40 6 18 147 102 188
40 6 21 158 216 229
40 6 22 158 216 229
40 6 23 158 216 229
40 7 16 147 102 188
40 7 17 147 102 188
40 7 22 158 216 229
40 7 23 196 175 214
40 7 24 196 175 214
40 8 22 196 175 214
40 8 23 196 175 214
40 8 24 196 175 214
40 9 22 196 175 214
40 9 23 196 175 214
40 9 24 196 175 214
40 10 22 114 158 206
40 10 23 114 158 206
40 10 24 196 175 214
40 10 25 196 175 214
40 11 22 114 158 206
40 11 23 114 158 206
40 11 24 114 158 206
40 11 25 196 175 214
40 12 22 114 158 206
40 12 23 114 158 206
40 12 24 114 158 206
40 12 25 114 158 206
41 0 14 43 160 4
41 0 15 43 160 4
41 0 16 43 160 4
41 0 17 43 160 4
41 0 18 43 160 4
41 0 19 43 160 4
41 0 23 43 160 4
41 0 24 43 160 4
41 0 25 43 160 4
41 0 26 43 160 4
41 0 27 43 160 4
41 0 28 43 160 4
41 0 29 43 160 4
41 0 30 43 160 4
41 0 31 43 160 4
41 0 32 43 160 4
41 0 33 43 160 4
41 0 34 43 160 4
41 0 35 43 160 4
41 0 36 43 160 4
41 0 37 43 160 4
41 0 38 43 160 4
41 0 39 43 160 4
41 0 40 43 160 4
41 0 41 43 160 4
41 0 42 43 160 4
41 0 43 43 160 4
41 0 44 43 160 4
41 0 45 43 160 4
41 0 46 43 160 4
41 0 47 43 160 4
41 0 48 43 160 4
41 0 49 43 160 4
41 0 50 43 160 4
41 0 51 43 160 4
41 0 52 43 160 4
41 0 53 43 160 4
41 0 54 43 160 4
41 0 55 43 160 4
41 0 56 43 160 4
41 0 57 43 160 4
41 0 58 43 160 4
41 0 59 43 160 4
41 1 20 147 102 188
41 2 15 147 102 188
41 2 21 147 102 188
41 3 19 147 102 188
41 3 20 147 102 188
41 3 21 158 216 229
41 4 17 147 102 188
41 4 19 147 102 188
41 4 20 147 102 188
41 4 21 158 216 229
41 5 17 147 102 188
41 5 18 147 102 188
41 5 19 147 102 188
41 5 20 147 102 188
41 5 21 147 102 188
41 6 17 147 102 188
41 6 18 147 102 188
41 6 19 30 119 181
41 6 20 147 102 188
41 6 21 30 119 181
41 6 22 158 216 229
41 6 23 196 175 214
41 6 24 158 216 229
41 7 18 147 102 188
41 7 21 30 119 181
41 7 22 196 175 214
41 7 23 196 175 214
41 7 24 196 175 214
41 8 18 147 102 188
41 8 23 196 175 214
41 8 24 196 175 214
41 8 25 196 175 214
41 9 24 196 175 214
41 9 25 196 175 214
41 10 24 196 175 214
41 10 25 196 175 214
41 10 26 196 175 214
41 11 24 196 175 214
41 11 25 196 175 214
41 11 26 158 216 229
41 12 24 114 158 206
41 12 25 114 158 206
41 12 26 158 216 229
42 0 16 43 160 4
42 0 17 43 160 4
42 0 18 43 160 4
42 0 19 43 160 4
42 0 20 43 160 4
42 0 21 43 160 4
42 0 24 43 160 4
42 0 25 43 160 4
42 0 26 43 160 4
42 0 27 43 160 4
42 0 28 43 160 4
42 0 29 43 160 4
42 0 30 43 160 4
42 0 31 43 160 4
42 0 32 43 160 4
42 0 33 43 160 4
42 0 34 43 160 4
42 0 35 43 160 4
42 0 36 43 160 4
42 0 37 43 160 4
42 0 38 43 160 4
42 0 39 43 160 4
42 0 40 43 160 4
42 0 41 43 160 4
42 0 42 43 160 4
42 0 43 43 160 4
42 0 44 43 160 4
42 0 45 43 160 4
42 0 46 43 160 4
42 0 47 43 160 4
42 0 48 43 160 4
42 0 49 43 160 4
42 0 50 43 160 4
42 0 51 43 160 4
42 0 52 43 160 4
42 0 53 43 160 4
42 0 54 43 160 4
42 0 55 43 160 4
42 0 56 43 160 4
42 0 57 43 160 4
42 0 58 43 160 4
42 0 59 43 160 4
42 2 17 147 102 188
42 3 20 147 102 188
42 3 21 158 216 229
42 4 20 147 102 188
42 4 21 147 102 188
42 5 19 147 102 188
42 5 20 147 102 188
42 5 21 147 102 188
42 6 19 30 119 181
42 6 20 147 102 188
42 6 21 30 119 181
42 6 22 30 119 181
42 6 23 30 119 181
42 7 20 114 158 206
42 7 21 30 119 181
42 7 22 196 175 214
42 7 23 196 175 214
42 7 24 196 175 214
42 7 25 196 175 214
42 8 23 196 175 214
42 8 24 196 175 214
42 8 25 196 175 214
42 9 24 196 175 214
42 9 25 196 175 214
42 9 26 196 175 214
42 10 25 196 175 214
42 10 26 158 216 229
42 10 27 196 175 214
42 11 26 158 216 229
42 11 27 158 216 229
42 12 26 158 216 229
42 12 27 158 216 229
43 0 18 43 160 4
43 0 19 43 160 4
43 0 20 43 160 4
43 0 21 43 160 4
43 0 22 43 160 4
43 0 25 43 160 4
43 0 26 43 160 4
43 0 27 43 160 4
43 0 28 43 160 4
43 0 29 43 160 4
43 0 30 43 160 4
43 0 31 43 160 4
43 0 32 43 160 4
43 0 33 43 160 4
43 0 34 43 160 4
43 0 35 43 160 4
43 0 36 43 160 4
43 0 37 43 160 4
43 0 38 43 160 4
43 0 39 43 160 4
43 0 40 43 160 4
43 0 41 43 160 4
43 0 42 43 160 4
43 0 43 43 160 4
43 0 44 43 160 4
43 0 45 43 160 4
43 0 46 43 160 4
43 0 47 43 160 4
43 0 48 43 160 4
43 0 49 43 160 4
43 0 50 43 160 4
43 0 51 43 160 4
43 0 52 43 160 4
43 0 53 43 160 4
43 0 54 43 160 4
43 0 55 43 160 4
43 0 56 43 160 4
43 0 57 43 160 4
43 0 58 43 160 4
43 0 59 43 160 4
43 5 21 147 102 188
43 6 21 30 119 181
43 6 22 158 216 229
43 6 23 30 119 181
43 6 24 158 216 229
43 7 22 30 119 181
43 7 23 196 175 214
43 7 24 196 175 214
43 8 23 196 175 214
43 8 24 196 175 214
43 8 25 196 175 214
43 8 26 158 216 229
43 9 25 196 175 214
43 9 26 158 216 229
43 10 25 158 216 229
43 10 26 158 216 229
43 11 25 158 216 229
43 11 26 158 216 229
43 12 24 158 216 229
43 12 25 158 216 229
43 12 26 158 216 229
44 0 20 43 160 4
44 0 21 43 160 4
44 0 22 43 160 4
44 0 23 43 160 4
44 0 24 43 160 4
44 0 26 43 160 4
44 0 27 43 160 4
44 0 28 43 160 4
44 0 29 43 160 4
44 0 30 43 160 4
44 0 31 43 160 4
44 0 32 43 160 4
44 0 33 43 160 4
44 0 34 43 160 4
44 0 35 43 160 4
44 0 36 43 160 4
44 0 37 43 160 4
44 0 38 43 160 4
44 0 39 43 160 4
44 0 40 43 160 4
44 0 41 43 160 4
44 0 42 43 160 4
44 0 43 43 160 4
44 0 44 43 160 4
44 0 45 43 160 4
44 0 46 43 160 4
44 0 47 43 160 4
44 0 48 43 160 4
44 0 49 43 160 4
44 0 50 43 160 4
44 0 51 43 160 4
44 0 52 43 160 4
44 0 53 43 160 4
44 0 54 43 160 4
44 0 55 43 160 4
44 0 56 43 160 4
44 0 57 43 160 4
44 0 58 43 160 4
44 0 59 43 160 4
44 6 23 158 216 229
44 6 24 158 216 229
44 7 24 196 175 214
44 7 25 158 216 229
44 8 24 158 216 229
44 8 25 158 216 229
44 9 25 158 216 229
44 9 26 158 216 229
44 10 25 158 216 229
44 10 26 158 216 229
44 11 26 158 216 229
44 12 26 158 216 229
45 0 22 43 160 4
45 0 23 43 160 4
45 0 24 43 160 4
45 0 25 43 160 4
45 0 28 43 160 4
45 0 29 43 160 4
45 0 30 43 160 4
45 0 31 43 160 4
45 0 32 43 160 4
45 0 33 43 160 4
45 0 34 43 160 4
45 0 35 43 160 4
45 0 36 43 160 4
45 0 37 43 160 4
45 0 38 43 160 4
45 0 39 43 160 4
45 0 40 43 160 4
45 0 41 43 160 4
45 0 42 43 160 4
45 0 43 43 160 4
45 0 44 43 160 4
45 0 45 43 160 4
45 0 46 43 160 4
45 0 47 43 160 4
45 0 48 43 160 4
45 0 49 43 160 4
45 0 50 43 160 4
45 0 51 43 160 4
45 0 52 43 160 4
45 0 53 43 160 4
45 0 54 43 160 4
45 0 55 43 160 4
45 0 56 43 160 4
45 0 57 43 160 4
45 0 58 43 160 4
45 0 59 43 160 4
45 5 25 158 216 229
45 7 25 158 216 229
45 9 26 158 216 229
46 0 24 43 160 4
46 0 25 43 160 4
46 0 26 43 160 4
46 0 27 43 160 4
46 0 28 43 160 4
46 0 29 43 160 4
46 0 30 43 160 4
46 0 31 43 160 4
46 0 32 43 160 4
46 0 33 43 160 4
46 0 34 43 160 4
46 0 35 43 160 4
46 0 36 43 160 4
46 0 37 43 160 4
46 0 38 43 160 4
46 0 39 43 160 4
46 0 40 43 160 4
46 0 41 43 160 4
46 0 42 43 160 4
46 0 43 43 160 4
46 0 44 43 160 4
46 0 45 43 160 4
46 0 46 43 160 4
46 0 47 43 160 4
46 0 48 43 160 4
46 0 49 43 160 4
46 0 50 43 160 4
46 0 51 43 160 4
46 0 52 43 160 4
46 0 53 43 160 4
46 0 54 43 160 4
46 0 55 43 160 4
46 0 56 43 160 4
46 0 57 43 160 4
46 0 58 43 160 4
46 0 59 43 160 4
47 0 26 43 160 4
47 0 27 43 160 4
47 0 28 43 160 4
47 0 29 43 160 4
47 0 30 43 160 4
47 0 31 43 160 4
47 0 32 43 160 4
47 0 33 43 160 4
47 0 34 43 160 4
47 0 35 43 160 4
47 0 36 43 160 4
47 0 37 43 160 4
47 0 38 43 160 4
47 0 39 43 160 4
47 0 40 43 160 4
47 0 41 43 160 4
47 0 42 43 160 4
47 0 43 43 160 4
47 0 44 43 160 4
47 0 45 43 160 4
47 0 46 43 160 4
47 0 47 43 160 4
47 0 48 43 160 4
47 0 49 43 160 4
47 0 50 43 160 4
47 0 51 43 160 4
47 0 52 43 160 4
47 0 53 43 160 4
47 0 54 43 160 4
47 0 55 43 160 4
47 0 56 43 160 4
47 0 57 43 160 4
47 0 58 43 160 4
47 0 59 43 160 4
48 0 27 43 160 4
48 0 28 43 160 4
48 0 29 43 160 4
48 0 30 43 160 4
48 0 31 43 160 4
48 0 32 43 160 4
48 0 33 43 160 4
48 0 34 43 160 4
48 0 35 43 160 4
48 0 36 43 160 4
48 0 37 43 160 4
48 0 38 43 160 4
48 0 39 43 160 4
48 0 40 43 160 4
48 0 41 43 160 4
48 0 42 43 160 4
48 0 43 43 160 4
48 0 44 43 160 4
48 0 45 43 160 4
48 0 46 43 160 4
48 0 47 43 160 4
48 0 48 43 160 4
48 0 49 43 160 4
48 0 50 43 160 4
48 0 51 43 160 4
48 0 52 43 160 4
48 0 53 43 160 4
48 0 54 43 160 4
48 0 55 43 160 4
48 0 56 43 160 4
48 0 57 43 160 4
48 0 58 43 160 4
48 0 59 43 160 4
49 0 29 43 160 4
49 0 30 43 160 4
49 0 31 43 160 4
49 0 32 43 160 4
49 0 33 43 160 4
49 0 34 43 160 4
49 0 35 43 160 4
49 0 36 43 160 4
49 0 37 43 160 4
49 0 38 43 160 4
49 0 39 43 160 4
49 0 40 43 160 4
49 0 41 43 160 4
49 0 42 43 160 4
49 0 43 43 160 4
49 0 44 43 160 4
49 0 45 43 160 4
49 0 46 43 160 4
49 0 47 43 160 4
49 0 48 43 160 4
49 0 49 43 160 4
49 0 50 43 160 4
49 0 51 43 160 4
49 0 52 43 160 4
49 0 53 43 160 4
49 0 54 43 160 4
49 0 55 43 160 4
49 0 56 43 160 4
49 0 57 43 160 4
49 0 58 43 160 4
49 0 59 43 160 4
49 8 33 255 127 12
50 0 31 43 160 4
50 0 32 43 160 4
50 0 33 43 160 4
50 0 34 43 160 4
50 0 35 43 160 4
50 0 36 43 160 4
50 0 37 43 160 4
50 0 38 43 160 4
50 0 39 43 160 4
50 0 40 43 160 4
50 0 41 43 160 4
50 0 42 43 160 4
50 0 43 43 160 4
50 0 44 43 160 4
50 0 45 43 160 4
50 0 46 43 160 4
50 0 47 43 160 4
50 0 48 43 160 4
50 0 49 43 160 4
50 0 50 43 160 4
50 0 51 43 160 4
50 0 52 43 160 4
50 0 53 43 160 4
50 0 54 43 160 4
50 0 55 43 160 4
50 0 56 43 160 4
50 0 57 43 160 4
50 0 58 43 160 4
50 0 59 43 160 4
51 0 33 43 160 4
51 0 34 43 160 4
51 0 35 43 160 4
51 0 36 43 160 4
51 0 37 43 160 4
51 0 38 43 160 4
51 0 39 43 160 4
51 0 40 43 160 4
51 0 41 43 160 4
51 0 42 43 160 4
51 0 43 43 160 4
51 0 44 43 160 4
51 0 45 43 160 4
51 0 46 43 160 4
51 0 47 43 160 4
51 0 48 43 160 4
51 0 49 43 160 4
51 0 50 43 160 4
51 0 51 43 160 4
51 0 52 43 160 4
51 0 53 43 160 4
51 0 54 43 160 4
51 0 55 43 160 4
51 0 56 43 160 4
51 0 57 43 160 4
51 0 58 43 160 4
51 0 59 43 160 4
52 0 35 43 160 4
52 0 36 43 160 4
52 0 37 43 160 4
52 0 38 43 160 4
52 0 39 43 160 4
52 0 40 43 160 4
52 0 41 43 160 4
52 0 42 43 160 4
52 0 43 43 160 4
52 0 44 43 160 4
52 0 45 43 160 4
52 0 46 43 160 4
52 0 47 43 160 4
52 0 48 43 160 4
52 0 49 43 160 4
52 0 50 43 160 4
52 0 51 43 160 4
52 0 52 43 160 4
52 0 53 43 160 4
52 0 54 43 160 4
52 0 55 43 160 4
52 0 56 43 160 4
52 0 57 43 160 4
52 0 58 43 160 4
52 0 59 43 160 4
53 0 37 43 160 4
53 0 38 43 160 4
53 0 39 43 160 4
53 0 40 43 160 4
53 0 41 43 160 4
53 0 42 43 160 4
53 0 43 43 160 4
53 0 44 43 160 4
53 0 45 43 160 4
53 0 46 43 160 4
53 0 47 43 160 4
53 0 48 43 160 4
53 0 49 43 160 4
53 0 50 43 160 4
53 0 51 43 160 4
53 0 52 43 160 4
53 0 53 43 160 4
53 0 54 43 160 4
53 0 55 43 160 4
53 0 56 43 160 4
53 0 57 43 160 4
53 0 58 43 160 4
53 0 59 43 160 4
54 0 39 43 160 4
54 0 40 43 160 4
54 0 41 43 160 4
54 0 42 43 160 4
54 0 43 43 160 4
54 0 44 43 160 4
54 0 45 43 160 4
54 0 46 43 160 4
54 0 47 43 160 4
54 0 48 43 160 4
54 0 49 43 160 4
54 0 50 43 160 4
54 0 51 43 160 4
54 0 52 43 160 4
54 0 53 43 160 4
54 0 54 43 160 4
54 0 55 43 160 4
54 0 56 43 160 4
54 0 57 43 160 4
54 0 58 43 160 4
54 0 59 43 160 4
55 0 40 43 160 4
55 0 41 43 160 4
55 0 42 43 160 4
55 0 43 43 160 4
55 0 44 43 160 4
55 0 45 43 160 4
55 0 46 43 160 4
55 0 47 43 160 4
55 0 48 43 160 4
55 0 49 43 160 4
55 0 50 43 160 4
55 0 51 43 160 4
55 0 52 43 160 4
55 0 53 43 160 4
55 0 54 43 160 4
55 0 55 43 160 4
55 0 56 43 160 4
55 0 57 43 160 4
55 0 58 43 160 4
55 0 59 43 160 4
56 0 42 43 160 4
56 0 43 43 160 4
56 0 44 43 160 4
56 0 45 43 160 4
56 0 46 43 160 4
56 0 47 43 160 4
56 0 48 43 160 4
56 0 49 43 160 4
56 0 50 43 160 4
56 0 51 43 160 4
56 0 52 43 160 4
56 0 53 43 160 4
56 0 54 43 160 4
56 0 55 43 160 4
56 0 56 43 160 4
56 0 57 43 160 4
56 0 58 43 160 4
56 0 59 43 160 4
57 0 44 43 160 4
57 0 45 43 160 4
57 0 46 43 160 4
57 0 47 43 160 4
57 0 48 43 160 4
57 0 49 43 160 4
57 0 50 43 160 4
57 0 51 43 160 4
57 0 52 43 160 4
57 0 53 43 160 4
57 0 54 43 160 4
57 0 55 43 160 4
57 0 56 43 160 4
57 0 57 43 160 4
57 0 58 43 160 4
57 0 59 43 160 4
57 2 45 255 127 12
58 0 46 43 160 4
58 0 47 43 160 4
58 0 48 43 160 4
58 0 49 43 160 4
58 0 50 43 160 4
58 0 51 43 160 4
58 0 52 43 160 4
58 0 53 43 160 4
58 0 54 43 160 4
58 0 55 43 160 4
58 0 56 43 160 4
58 0 57 43 160 4
58 0 58 43 160 4
58 0 59 43 160 4
59 0 48 43 160 4
59 0 49 43 160 4
59 0 50 43 160 4
59 0 51 43 160 4
59 0 52 43 160 4
59 0 53 43 160 4
59 0 54 43 160 4
59 0 55 43 160 4
59 0 56 43 160 4
59 0 57 43 160 4
59 0 58 43 160 4
59 0 59 43 160 4
59 3 49 158 216 229
